ISO-10303-21;
HEADER;
FILE_DESCRIPTION (( 'STEP AP214' ),
    '1' );
FILE_NAME ('CUI_P78A05-1000.step',
    '2017-08-15T20:05:32',
    ( '' ),
    ( '' ),
    'SwSTEP 2.0',
    'SolidWorks 2017',
    '' );
FILE_SCHEMA (( 'AUTOMOTIVE_DESIGN' ));
ENDSEC;

DATA;
#1 = DIRECTION ( 'NONE',  ( 0.0000000000000000000, -1.000000000000000000, 0.0000000000000000000 ) ) ;
#2 = FACE_OUTER_BOUND ( 'NONE', #648, .T. ) ;
#3 = DIRECTION ( 'NONE',  ( -0.0000000000000000000, -0.0000000000000000000, -1.000000000000000000 ) ) ;
#4 = LINE ( 'NONE', #451, #795 ) ;
#5 = FILL_AREA_STYLE_COLOUR ( '', #96 ) ;
#6 = FACE_OUTER_BOUND ( 'NONE', #112, .T. ) ;
#7 = SURFACE_SIDE_STYLE ('',( #40 ) ) ;
#8 = ORIENTED_EDGE ( 'NONE', *, *, #441, .T. ) ;
#9 = EDGE_LOOP ( 'NONE', ( #572, #561, #902, #699 ) ) ;
#10 = DIRECTION ( 'NONE',  ( 1.000000000000000000, -1.820349663882075100E-032, 0.0000000000000000000 ) ) ;
#11 = EDGE_CURVE ( 'NONE', #661, #268, #407, .T. ) ;
#12 =( LENGTH_UNIT ( ) NAMED_UNIT ( * ) SI_UNIT ( .MILLI., .METRE. ) );
#13 = DIRECTION ( 'NONE',  ( -0.0000000000000000000, -0.0000000000000000000, -1.000000000000000000 ) ) ;
#14 = CARTESIAN_POINT ( 'NONE',  ( 2.140000000000000600, 2.355659513032817000E-019, 6.375000000000000900 ) ) ;
#15 = SURFACE_STYLE_FILL_AREA ( #605 ) ;
#16 = CARTESIAN_POINT ( 'NONE',  ( -0.3999999999999993000, -4.623688146260470900E-032, 6.375000000000000900 ) ) ;
#17 = VERTEX_POINT ( 'NONE', #995 ) ;
#18 = LINE ( 'NONE', #344, #625 ) ;
#19 = DIRECTION ( 'NONE',  ( -1.000000000000000000, -0.0000000000000000000, -0.0000000000000000000 ) ) ;
#20 = ORIENTED_EDGE ( 'NONE', *, *, #921, .T. ) ;
#21 = VERTEX_POINT ( 'NONE', #137 ) ;
#22 = AXIS2_PLACEMENT_3D ( 'NONE', #712, #798, #316 ) ;
#23 =( NAMED_UNIT ( * ) SI_UNIT ( $, .STERADIAN. ) SOLID_ANGLE_UNIT ( ) );
#24 = PRESENTATION_LAYER_ASSIGNMENT (  '', '', ( #763 ) ) ;
#25 = VECTOR ( 'NONE', #10, 1000.000000000000000 ) ;
#26 = EDGE_LOOP ( 'NONE', ( #769, #861, #969, #331, #768, #79, #41, #968 ) ) ;
#27 = VERTEX_POINT ( 'NONE', #737 ) ;
#28 = CARTESIAN_POINT ( 'NONE',  ( -2.589999999999999400, 0.9999999999999991100, 8.500000000000000000 ) ) ;
#29 = EDGE_LOOP ( 'NONE', ( #624, #144, #421, #998 ) ) ;
#30 = VERTEX_POINT ( 'NONE', #498 ) ;
#31 = DIRECTION ( 'NONE',  ( 1.000000000000000000, 0.0000000000000000000, 0.0000000000000000000 ) ) ;
#32 = EDGE_CURVE ( 'NONE', #145, #821, #42, .T. ) ;
#33 = CARTESIAN_POINT ( 'NONE',  ( 5.799999999999999800, -0.5099999999999987900, 0.0000000000000000000 ) ) ;
#34 = FILL_AREA_STYLE ('',( #314 ) ) ;
#35 = AXIS2_PLACEMENT_3D ( 'NONE', #127, #663, #887 ) ;
#36 = DIRECTION ( 'NONE',  ( 1.000000000000000000, 2.125886612716682200E-016, 0.0000000000000000000 ) ) ;
#37 = CIRCLE ( 'NONE', #386, 0.4000000000000006300 ) ;
#38 = DIRECTION ( 'NONE',  ( -1.000000000000000000, 1.820349663882075100E-032, 0.0000000000000000000 ) ) ;
#39 = UNCERTAINTY_MEASURE_WITH_UNIT (LENGTH_MEASURE( 1.000000000000000100E-005 ), #82, 'distance_accuracy_value', 'NONE');
#40 = SURFACE_STYLE_FILL_AREA ( #936 ) ;
#41 = ORIENTED_EDGE ( 'NONE', *, *, #246, .F. ) ;
#42 = LINE ( 'NONE', #59, #832 ) ;
#43 = ORIENTED_EDGE ( 'NONE', *, *, #669, .T. ) ;
#44 = AXIS2_PLACEMENT_3D ( 'NONE', #72, #753, #283 ) ;
#45 = SURFACE_STYLE_FILL_AREA ( #138 ) ;
#46 = FILL_AREA_STYLE_COLOUR ( '', #873 ) ;
#47 = DIRECTION ( 'NONE',  ( 0.0000000000000000000, 0.0000000000000000000, -1.000000000000000000 ) ) ;
#48 = VECTOR ( 'NONE', #254, 1000.000000000000000 ) ;
#49 = DIRECTION ( 'NONE',  ( 0.0000000000000000000, 1.000000000000000000, 0.0000000000000000000 ) ) ;
#50 = LINE ( 'NONE', #210, #912 ) ;
#51 = VECTOR ( 'NONE', #208, 1000.000000000000000 ) ;
#52 = ORIENTED_EDGE ( 'NONE', *, *, #805, .F. ) ;
#53 = EDGE_CURVE ( 'NONE', #736, #118, #758, .T. ) ;
#54 = ORIENTED_EDGE ( 'NONE', *, *, #911, .F. ) ;
#55 = VERTEX_POINT ( 'NONE', #197 ) ;
#56 = PLANE ( 'NONE',  #589 ) ;
#57 = CARTESIAN_POINT ( 'NONE',  ( 0.0000000000000000000, 0.0000000000000000000, 0.0000000000000000000 ) ) ;
#58 = ORIENTED_EDGE ( 'NONE', *, *, #474, .T. ) ;
#59 = CARTESIAN_POINT ( 'NONE',  ( -2.189999999999998600, 0.9999999999999991100, 8.490000000000000200 ) ) ;
#60 = CIRCLE ( 'NONE', #44, 0.4000000000000006300 ) ;
#61 = AXIS2_PLACEMENT_3D ( 'NONE', #478, #971, #38 ) ;
#62 = DIRECTION ( 'NONE',  ( -0.0000000000000000000, -0.0000000000000000000, -1.000000000000000000 ) ) ;
#63 = CARTESIAN_POINT ( 'NONE',  ( -2.189999999999998600, 0.9999999999999991100, 8.490000000000000200 ) ) ;
#64 = CARTESIAN_POINT ( 'NONE',  ( 2.140000000000001000, -4.610000000000000300, 6.375000000000000900 ) ) ;
#65 = FACE_BOUND ( 'NONE', #482, .T. ) ;
#66 = CARTESIAN_POINT ( 'NONE',  ( -2.939999999999999500, -4.610000000000000300, 6.625000000000000900 ) ) ;
#67 = VERTEX_POINT ( 'NONE', #420 ) ;
#68 = SURFACE_STYLE_FILL_AREA ( #656 ) ;
#69 = VERTEX_POINT ( 'NONE', #271 ) ;
#70 = CARTESIAN_POINT ( 'NONE',  ( 2.140000000000001000, -4.610000000000000300, 6.625000000000000900 ) ) ;
#71 = CARTESIAN_POINT ( 'NONE',  ( 0.0000000000000000000, 0.0000000000000000000, 0.0000000000000000000 ) ) ;
#72 = CARTESIAN_POINT ( 'NONE',  ( -2.589999999999999400, 0.9999999999999991100, 8.500000000000000000 ) ) ;
#73 = CARTESIAN_POINT ( 'NONE',  ( 2.140000000000001000, -4.610000000000000300, 6.625000000000000900 ) ) ;
#74 = FILL_AREA_STYLE ('',( #827 ) ) ;
#75 = CYLINDRICAL_SURFACE ( 'NONE', #655, 0.4000000000000006300 ) ;
#76 = ORIENTED_EDGE ( 'NONE', *, *, #32, .F. ) ;
#77 = FACE_OUTER_BOUND ( 'NONE', #697, .T. ) ;
#78 = EDGE_LOOP ( 'NONE', ( #496, #721, #323, #98 ) ) ;
#79 = ORIENTED_EDGE ( 'NONE', *, *, #379, .F. ) ;
#80 = DIRECTION ( 'NONE',  ( 1.000000000000000000, -2.125886612716682200E-016, 0.0000000000000000000 ) ) ;
#81 = DIRECTION ( 'NONE',  ( -1.000000000000000000, -0.0000000000000000000, -0.0000000000000000000 ) ) ;
#82 =( LENGTH_UNIT ( ) NAMED_UNIT ( * ) SI_UNIT ( .MILLI., .METRE. ) );
#83 = EDGE_CURVE ( 'NONE', #664, #661, #18, .T. ) ;
#84 = DIRECTION ( 'NONE',  ( 0.0000000000000000000, 0.0000000000000000000, 1.000000000000000000 ) ) ;
#85 = LINE ( 'NONE', #682, #357 ) ;
#86 = ORIENTED_EDGE ( 'NONE', *, *, #171, .T. ) ;
#87 =( NAMED_UNIT ( * ) PLANE_ANGLE_UNIT ( ) SI_UNIT ( $, .RADIAN. ) );
#88 =( GEOMETRIC_REPRESENTATION_CONTEXT ( 3 ) GLOBAL_UNCERTAINTY_ASSIGNED_CONTEXT ( ( #860 ) ) GLOBAL_UNIT_ASSIGNED_CONTEXT ( ( #667, #662, #984 ) ) REPRESENTATION_CONTEXT ( 'NONE', 'WORKASPACE' ) );
#89 = SURFACE_SIDE_STYLE ('',( #458 ) ) ;
#90 = CARTESIAN_POINT ( 'NONE',  ( 5.799999999999999800, 9.890000000000000600, 0.0000000000000000000 ) ) ;
#91 = PLANE ( 'NONE',  #781 ) ;
#92 = DIRECTION ( 'NONE',  ( 1.000000000000000000, 0.0000000000000000000, 0.0000000000000000000 ) ) ;
#93 = SURFACE_STYLE_USAGE ( .BOTH. , #862 ) ;
#94 = VECTOR ( 'NONE', #226, 1000.000000000000000 ) ;
#95 = PRESENTATION_STYLE_ASSIGNMENT (( #390 ) ) ;
#96 = COLOUR_RGB ( '',0.2509803921568627400, 0.2509803921568627400, 0.2509803921568627400 ) ;
#97 = VERTEX_POINT ( 'NONE', #814 ) ;
#98 = ORIENTED_EDGE ( 'NONE', *, *, #280, .T. ) ;
#99 = ORIENTED_EDGE ( 'NONE', *, *, #950, .F. ) ;
#100 =( LENGTH_UNIT ( ) NAMED_UNIT ( * ) SI_UNIT ( .MILLI., .METRE. ) );
#101 = AXIS2_PLACEMENT_3D ( 'NONE', #222, #368, #523 ) ;
#102 = ADVANCED_FACE ( 'NONE', ( #203 ), #588, .F. ) ;
#103 = CARTESIAN_POINT ( 'NONE',  ( -5.799999999999999800, 9.890000000000000600, 8.500000000000000000 ) ) ;
#104 = COLOUR_RGB ( '',1.000000000000000000, 1.000000000000000000, 1.000000000000000000 ) ;
#105 = VECTOR ( 'NONE', #643, 1000.000000000000000 ) ;
#106 = ADVANCED_FACE ( 'NONE', ( #77 ), #117, .F. ) ;
#107 = CYLINDRICAL_SURFACE ( 'NONE', #647, 0.4000000000000006300 ) ;
#108 = VECTOR ( 'NONE', #442, 1000.000000000000000 ) ;
#109 = CARTESIAN_POINT ( 'NONE',  ( 2.140000000000001000, -4.610000000000000300, 6.625000000000000900 ) ) ;
#110 = MANIFOLD_SOLID_BREP ( 'Boss-Extrude2', #562 ) ;
#111 = ORIENTED_EDGE ( 'NONE', *, *, #225, .F. ) ;
#112 = EDGE_LOOP ( 'NONE', ( #218, #953, #462, #851 ) ) ;
#113 = EDGE_CURVE ( 'NONE', #55, #901, #917, .T. ) ;
#114 = DIRECTION ( 'NONE',  ( 0.0000000000000000000, 0.0000000000000000000, -1.000000000000000000 ) ) ;
#115 = SURFACE_STYLE_USAGE ( .BOTH. , #345 ) ;
#116 = SURFACE_STYLE_FILL_AREA ( #863 ) ;
#117 = PLANE ( 'NONE',  #606 ) ;
#118 = VERTEX_POINT ( 'NONE', #190 ) ;
#119 = VECTOR ( 'NONE', #1013, 1000.000000000000000 ) ;
#120 = ORIENTED_EDGE ( 'NONE', *, *, #828, .F. ) ;
#121 = DIRECTION ( 'NONE',  ( 0.0000000000000000000, 1.000000000000000000, 0.0000000000000000000 ) ) ;
#122 = ORIENTED_EDGE ( 'NONE', *, *, #441, .F. ) ;
#123 = ADVANCED_FACE ( 'NONE', ( #518 ), #56, .F. ) ;
#124 = ORIENTED_EDGE ( 'NONE', *, *, #556, .F. ) ;
#125 = DIRECTION ( 'NONE',  ( 0.0000000000000000000, 0.0000000000000000000, 1.000000000000000000 ) ) ;
#126 = DIRECTION ( 'NONE',  ( 1.000000000000000000, 0.0000000000000000000, 0.0000000000000000000 ) ) ;
#127 = CARTESIAN_POINT ( 'NONE',  ( -2.239999999999999300, -4.610000000000000300, 6.625000000000000900 ) ) ;
#128 = CARTESIAN_POINT ( 'NONE',  ( -5.290000000000000900, 2.355659513034169500E-019, 8.500000000000000000 ) ) ;
#129 = STYLED_ITEM ( 'NONE', ( #706 ), #175 ) ;
#130 = UNCERTAINTY_MEASURE_WITH_UNIT (LENGTH_MEASURE( 1.000000000000000100E-005 ), #960, 'distance_accuracy_value', 'NONE');
#131 = MECHANICAL_DESIGN_GEOMETRIC_PRESENTATION_REPRESENTATION (  '', ( #767 ), #186 ) ;
#132 = VECTOR ( 'NONE', #216, 1000.000000000000000 ) ;
#133 = VECTOR ( 'NONE', #13, 1000.000000000000000 ) ;
#134 = EDGE_CURVE ( 'NONE', #981, #736, #469, .T. ) ;
#135 = ORIENTED_EDGE ( 'NONE', *, *, #751, .T. ) ;
#136 = VERTEX_POINT ( 'NONE', #835 ) ;
#137 = CARTESIAN_POINT ( 'NONE',  ( -5.799999999999999800, -0.5099999999999987900, 8.500000000000000000 ) ) ;
#138 = FILL_AREA_STYLE ('',( #824 ) ) ;
#139 = CARTESIAN_POINT ( 'NONE',  ( -5.799999999999999800, -0.5099999999999987900, 8.500000000000000000 ) ) ;
#140 = APPLICATION_PROTOCOL_DEFINITION ( 'draft international standard', 'automotive_design', 1998, #923 ) ;
#141 = CARTESIAN_POINT ( 'NONE',  ( -2.939999999999999500, 0.0000000000000000000, 6.625000000000000900 ) ) ;
#142 = ORIENTED_EDGE ( 'NONE', *, *, #743, .T. ) ;
#143 = ORIENTED_EDGE ( 'NONE', *, *, #260, .F. ) ;
#144 = ORIENTED_EDGE ( 'NONE', *, *, #280, .F. ) ;
#145 = VERTEX_POINT ( 'NONE', #63 ) ;
#146 = CARTESIAN_POINT ( 'NONE',  ( -0.3999999999999993000, -4.610000000000000300, 6.625000000000000900 ) ) ;
#147 = CARTESIAN_POINT ( 'NONE',  ( 0.3000000000000007700, -4.610000000000000300, 6.375000000000000900 ) ) ;
#148 =( NAMED_UNIT ( * ) SI_UNIT ( $, .STERADIAN. ) SOLID_ANGLE_UNIT ( ) );
#149 = EDGE_CURVE ( 'NONE', #1007, #799, #649, .T. ) ;
#150 = DIRECTION ( 'NONE',  ( 0.0000000000000000000, 0.0000000000000000000, 1.000000000000000000 ) ) ;
#151 = FACE_OUTER_BOUND ( 'NONE', #181, .T. ) ;
#152 = CARTESIAN_POINT ( 'NONE',  ( 5.799999999999999800, -0.5099999999999987900, 8.500000000000000000 ) ) ;
#153 = LINE ( 'NONE', #70, #291 ) ;
#154 = MECHANICAL_DESIGN_GEOMETRIC_PRESENTATION_REPRESENTATION (  '', ( #493 ), #333 ) ;
#155 = ORIENTED_EDGE ( 'NONE', *, *, #571, .F. ) ;
#156 = ORIENTED_EDGE ( 'NONE', *, *, #343, .F. ) ;
#157 = CARTESIAN_POINT ( 'NONE',  ( -2.939999999999999500, -4.610000000000000300, 6.375000000000000900 ) ) ;
#158 = PRODUCT ( 'CUI_P78A05-1000', 'CUI_P78A05-1000', '', ( #354 ) ) ;
#159 = LINE ( 'NONE', #300, #976 ) ;
#160 = ORIENTED_EDGE ( 'NONE', *, *, #999, .F. ) ;
#161 = VERTEX_POINT ( 'NONE', #759 ) ;
#162 =( NAMED_UNIT ( * ) PLANE_ANGLE_UNIT ( ) SI_UNIT ( $, .RADIAN. ) );
#163 = CARTESIAN_POINT ( 'NONE',  ( 5.799999999999999800, 9.890000000000000600, 0.0000000000000000000 ) ) ;
#164 = AXIS2_PLACEMENT_3D ( 'NONE', #822, #573, #114 ) ;
#165 = STYLED_ITEM ( 'NONE', ( #332 ), #110 ) ;
#166 = CARTESIAN_POINT ( 'NONE',  ( 5.799999999999999800, -0.5099999999999987900, 8.500000000000000000 ) ) ;
#167 = CARTESIAN_POINT ( 'NONE',  ( -2.990000000000000200, 0.9999999999999991100, 8.500000000000000000 ) ) ;
#168 = ORIENTED_EDGE ( 'NONE', *, *, #504, .T. ) ;
#169 = ORIENTED_EDGE ( 'NONE', *, *, #225, .T. ) ;
#170 = ORIENTED_EDGE ( 'NONE', *, *, #260, .T. ) ;
#171 = EDGE_CURVE ( 'NONE', #510, #97, #979, .T. ) ;
#172 = DIRECTION ( 'NONE',  ( 1.000000000000000000, 0.0000000000000000000, 0.0000000000000000000 ) ) ;
#173 = LINE ( 'NONE', #64, #385 ) ;
#174 = DIRECTION ( 'NONE',  ( 0.0000000000000000000, 1.000000000000000000, 0.0000000000000000000 ) ) ;
#175 = ADVANCED_FACE ( 'NONE', ( #311 ), #213, .F. ) ;
#176 = DIRECTION ( 'NONE',  ( 0.0000000000000000000, 1.000000000000000000, 0.0000000000000000000 ) ) ;
#177 = PRESENTATION_STYLE_ASSIGNMENT (( #305 ) ) ;
#178 = DIRECTION ( 'NONE',  ( 0.0000000000000000000, 0.0000000000000000000, 1.000000000000000000 ) ) ;
#179 = ORIENTED_EDGE ( 'NONE', *, *, #815, .T. ) ;
#180 = ORIENTED_EDGE ( 'NONE', *, *, #828, .T. ) ;
#181 = EDGE_LOOP ( 'NONE', ( #168, #932, #376, #687 ) ) ;
#182 = ORIENTED_EDGE ( 'NONE', *, *, #134, .F. ) ;
#183 = DIRECTION ( 'NONE',  ( -1.000000000000000000, 0.0000000000000000000, 0.0000000000000000000 ) ) ;
#184 = ADVANCED_FACE ( 'NONE', ( #858 ), #358, .F. ) ;
#185 = DIRECTION ( 'NONE',  ( 0.0000000000000000000, 0.0000000000000000000, 1.000000000000000000 ) ) ;
#186 =( GEOMETRIC_REPRESENTATION_CONTEXT ( 3 ) GLOBAL_UNCERTAINTY_ASSIGNED_CONTEXT ( ( #130 ) ) GLOBAL_UNIT_ASSIGNED_CONTEXT ( ( #960, #473, #791 ) ) REPRESENTATION_CONTEXT ( 'NONE', 'WORKASPACE' ) );
#187 = DIRECTION ( 'NONE',  ( 0.0000000000000000000, 0.0000000000000000000, -1.000000000000000000 ) ) ;
#188 = CARTESIAN_POINT ( 'NONE',  ( -0.3999999999999993000, -4.610000000000000300, 6.625000000000000900 ) ) ;
#189 = VECTOR ( 'NONE', #150, 1000.000000000000000 ) ;
#190 = CARTESIAN_POINT ( 'NONE',  ( -2.939999999999999500, 0.0000000000000000000, 6.375000000000000900 ) ) ;
#191 = DIRECTION ( 'NONE',  ( 0.0000000000000000000, -1.000000000000000000, 0.0000000000000000000 ) ) ;
#192 = LINE ( 'NONE', #139, #585 ) ;
#193 = ORIENTED_EDGE ( 'NONE', *, *, #937, .T. ) ;
#194 = ORIENTED_EDGE ( 'NONE', *, *, #743, .F. ) ;
#195 = VERTEX_POINT ( 'NONE', #597 ) ;
#196 = DIRECTION ( 'NONE',  ( 0.0000000000000000000, 0.0000000000000000000, -1.000000000000000000 ) ) ;
#197 = CARTESIAN_POINT ( 'NONE',  ( 5.290000000000000900, -0.5099999999999989000, 8.500000000000000000 ) ) ;
#198 = EDGE_CURVE ( 'NONE', #510, #981, #704, .T. ) ;
#199 = FACE_OUTER_BOUND ( 'NONE', #29, .T. ) ;
#200 = FACE_OUTER_BOUND ( 'NONE', #874, .T. ) ;
#201 = EDGE_CURVE ( 'NONE', #981, #232, #927, .T. ) ;
#202 = ORIENTED_EDGE ( 'NONE', *, *, #805, .T. ) ;
#203 = FACE_OUTER_BOUND ( 'NONE', #406, .T. ) ;
#204 = DIRECTION ( 'NONE',  ( -1.000000000000000000, -0.0000000000000000000, -0.0000000000000000000 ) ) ;
#205 = EDGE_LOOP ( 'NONE', ( #233, #383, #916, #785 ) ) ;
#206 = CLOSED_SHELL ( 'NONE', ( #659, #882, #796, #564, #123, #328, #175, #802, #399, #472, #888, #413, #990, #402, #640, #486, #964, #475, #106, #102, #804, #184, #903 ) ) ;
#207 = DIRECTION ( 'NONE',  ( 0.0000000000000000000, 1.000000000000000000, 0.0000000000000000000 ) ) ;
#208 = DIRECTION ( 'NONE',  ( 0.0000000000000000000, 1.000000000000000000, 0.0000000000000000000 ) ) ;
#209 = SURFACE_STYLE_FILL_AREA ( #34 ) ;
#210 = CARTESIAN_POINT ( 'NONE',  ( -2.990000000000000200, 0.9999999999999991100, 8.490000000000000200 ) ) ;
#211 = VECTOR ( 'NONE', #461, 1000.000000000000000 ) ;
#212 = AXIS2_PLACEMENT_3D ( 'NONE', #600, #920, #506 ) ;
#213 = PLANE ( 'NONE',  #905 ) ;
#214 = COLOUR_RGB ( '',0.2509803921568627400, 0.2509803921568627400, 0.2509803921568627400 ) ;
#215 = ORIENTED_EDGE ( 'NONE', *, *, #236, .T. ) ;
#216 = DIRECTION ( 'NONE',  ( -0.0000000000000000000, -0.0000000000000000000, -1.000000000000000000 ) ) ;
#217 = VECTOR ( 'NONE', #752, 1000.000000000000000 ) ;
#218 = ORIENTED_EDGE ( 'NONE', *, *, #679, .F. ) ;
#219 = EDGE_CURVE ( 'NONE', #161, #546, #623, .T. ) ;
#220 = EDGE_LOOP ( 'NONE', ( #951, #980, #549, #58 ) ) ;
#221 = CARTESIAN_POINT ( 'NONE',  ( -2.939999999999999500, -4.610000000000000300, 6.375000000000000900 ) ) ;
#222 = CARTESIAN_POINT ( 'NONE',  ( 5.799999999999999800, 9.890000000000000600, 8.500000000000000000 ) ) ;
#223 = DIRECTION ( 'NONE',  ( -0.0000000000000000000, -0.0000000000000000000, -1.000000000000000000 ) ) ;
#224 = CARTESIAN_POINT ( 'NONE',  ( 5.290000000000000900, 2.355659513032243500E-019, 0.0000000000000000000 ) ) ;
#225 = EDGE_CURVE ( 'NONE', #599, #21, #192, .T. ) ;
#226 = DIRECTION ( 'NONE',  ( 0.0000000000000000000, 0.0000000000000000000, 1.000000000000000000 ) ) ;
#227 = DIRECTION ( 'NONE',  ( 0.0000000000000000000, 0.0000000000000000000, -1.000000000000000000 ) ) ;
#228 = VECTOR ( 'NONE', #725, 1000.000000000000000 ) ;
#229 = VECTOR ( 'NONE', #1006, 1000.000000000000000 ) ;
#230 = LINE ( 'NONE', #924, #744 ) ;
#231 = DIRECTION ( 'NONE',  ( 1.000000000000000000, 0.0000000000000000000, 0.0000000000000000000 ) ) ;
#232 = VERTEX_POINT ( 'NONE', #607 ) ;
#233 = ORIENTED_EDGE ( 'NONE', *, *, #713, .T. ) ;
#234 = ORIENTED_EDGE ( 'NONE', *, *, #571, .T. ) ;
#235 =( NAMED_UNIT ( * ) PLANE_ANGLE_UNIT ( ) SI_UNIT ( $, .RADIAN. ) );
#236 = EDGE_CURVE ( 'NONE', #705, #460, #153, .T. ) ;
#237 = CARTESIAN_POINT ( 'NONE',  ( 5.290000000000000900, -0.5099999999999989000, 8.500000000000000000 ) ) ;
#238 = DIRECTION ( 'NONE',  ( 1.000000000000000000, 0.0000000000000000000, 0.0000000000000000000 ) ) ;
#239 = DIRECTION ( 'NONE',  ( 0.0000000000000000000, -1.000000000000000000, 0.0000000000000000000 ) ) ;
#240 = LINE ( 'NONE', #267, #841 ) ;
#241 = LINE ( 'NONE', #147, #51 ) ;
#242 = ORIENTED_EDGE ( 'NONE', *, *, #556, .T. ) ;
#243 = VECTOR ( 'NONE', #577, 1000.000000000000000 ) ;
#244 = PLANE ( 'NONE',  #349 ) ;
#245 = VERTEX_POINT ( 'NONE', #431 ) ;
#246 = EDGE_CURVE ( 'NONE', #282, #997, #230, .T. ) ;
#247 = CARTESIAN_POINT ( 'NONE',  ( 0.3000000000000007700, -4.610000000000000300, 6.625000000000000900 ) ) ;
#248 = PLANE ( 'NONE',  #524 ) ;
#249 =( GEOMETRIC_REPRESENTATION_CONTEXT ( 3 ) GLOBAL_UNCERTAINTY_ASSIGNED_CONTEXT ( ( #39 ) ) GLOBAL_UNIT_ASSIGNED_CONTEXT ( ( #82, #618, #526 ) ) REPRESENTATION_CONTEXT ( 'NONE', 'WORKASPACE' ) );
#250 = CARTESIAN_POINT ( 'NONE',  ( -5.799999999999999800, 9.890000000000000600, 8.500000000000000000 ) ) ;
#251 = STYLED_ITEM ( 'NONE', ( #288 ), #882 ) ;
#252 = EDGE_CURVE ( 'NONE', #722, #634, #966, .T. ) ;
#253 = UNCERTAINTY_MEASURE_WITH_UNIT (LENGTH_MEASURE( 1.000000000000000100E-005 ), #535, 'distance_accuracy_value', 'NONE');
#254 = DIRECTION ( 'NONE',  ( -1.000000000000000000, -0.0000000000000000000, -0.0000000000000000000 ) ) ;
#255 = ADVANCED_FACE ( 'NONE', ( #372 ), #521, .F. ) ;
#256 = VECTOR ( 'NONE', #62, 1000.000000000000000 ) ;
#257 = ORIENTED_EDGE ( 'NONE', *, *, #252, .F. ) ;
#258 = EDGE_LOOP ( 'NONE', ( #601, #257, #471, #497 ) ) ;
#259 = CARTESIAN_POINT ( 'NONE',  ( 2.140000000000001000, -4.610000000000000300, 6.625000000000000900 ) ) ;
#260 = EDGE_CURVE ( 'NONE', #460, #69, #404, .T. ) ;
#261 = PLANE ( 'NONE',  #164 ) ;
#262 = VECTOR ( 'NONE', #994, 1000.000000000000000 ) ;
#263 = ADVANCED_FACE ( 'NONE', ( #480 ), #538, .T. ) ;
#264 = DIRECTION ( 'NONE',  ( 0.0000000000000000000, 0.0000000000000000000, 1.000000000000000000 ) ) ;
#265 = VECTOR ( 'NONE', #714, 1000.000000000000000 ) ;
#266 = MECHANICAL_DESIGN_GEOMETRIC_PRESENTATION_REPRESENTATION (  '', ( #579 ), #740 ) ;
#267 = CARTESIAN_POINT ( 'NONE',  ( -0.3999999999999993000, -4.610000000000000300, 6.375000000000000900 ) ) ;
#268 = VERTEX_POINT ( 'NONE', #702 ) ;
#269 = VECTOR ( 'NONE', #982, 1000.000000000000000 ) ;
#270 = ORIENTED_EDGE ( 'NONE', *, *, #787, .T. ) ;
#271 = CARTESIAN_POINT ( 'NONE',  ( 2.140000000000001000, -4.610000000000000300, 6.375000000000000900 ) ) ;
#272 = DIRECTION ( 'NONE',  ( 1.000000000000000000, 0.0000000000000000000, 0.0000000000000000000 ) ) ;
#273 = PRESENTATION_LAYER_ASSIGNMENT (  '', '', ( #251 ) ) ;
#274 = FACE_OUTER_BOUND ( 'NONE', #361, .T. ) ;
#275 =( GEOMETRIC_REPRESENTATION_CONTEXT ( 3 ) GLOBAL_UNCERTAINTY_ASSIGNED_CONTEXT ( ( #974 ) ) GLOBAL_UNIT_ASSIGNED_CONTEXT ( ( #897, #910, #491 ) ) REPRESENTATION_CONTEXT ( 'NONE', 'WORKASPACE' ) );
#276 = CARTESIAN_POINT ( 'NONE',  ( -2.589999999999999400, 0.9999999999999991100, 8.490000000000000200 ) ) ;
#277 = FILL_AREA_STYLE ('',( #336 ) ) ;
#278 = SURFACE_STYLE_FILL_AREA ( #732 ) ;
#279 = VECTOR ( 'NONE', #207, 1000.000000000000000 ) ;
#280 = EDGE_CURVE ( 'NONE', #55, #872, #435, .T. ) ;
#281 = DIRECTION ( 'NONE',  ( -1.000000000000000000, 0.0000000000000000000, 0.0000000000000000000 ) ) ;
#282 = VERTEX_POINT ( 'NONE', #782 ) ;
#283 = DIRECTION ( 'NONE',  ( 1.000000000000000000, 0.0000000000000000000, 0.0000000000000000000 ) ) ;
#284 = VECTOR ( 'NONE', #187, 1000.000000000000000 ) ;
#285 = APPLICATION_CONTEXT ( 'automotive_design' ) ;
#286 = DIRECTION ( 'NONE',  ( -1.000000000000000000, -0.0000000000000000000, -0.0000000000000000000 ) ) ;
#287 = PRESENTATION_STYLE_ASSIGNMENT (( #115 ) ) ;
#288 = PRESENTATION_STYLE_ASSIGNMENT (( #397 ) ) ;
#289 = VECTOR ( 'NONE', #806, 1000.000000000000000 ) ;
#290 = PLANE ( 'NONE',  #101 ) ;
#291 = VECTOR ( 'NONE', #286, 1000.000000000000000 ) ;
#292 = EDGE_CURVE ( 'NONE', #195, #30, #829, .T. ) ;
#293 = ORIENTED_EDGE ( 'NONE', *, *, #730, .F. ) ;
#294 = DIRECTION ( 'NONE',  ( 0.0000000000000000000, 0.0000000000000000000, -1.000000000000000000 ) ) ;
#295 = ORIENTED_EDGE ( 'NONE', *, *, #854, .T. ) ;
#296 = EDGE_LOOP ( 'NONE', ( #242, #52, #439, #745 ) ) ;
#297 = DIRECTION ( 'NONE',  ( 0.0000000000000000000, 0.0000000000000000000, 1.000000000000000000 ) ) ;
#298 = DIRECTION ( 'NONE',  ( 1.000000000000000000, 0.0000000000000000000, 0.0000000000000000000 ) ) ;
#299 = AXIS2_PLACEMENT_3D ( 'NONE', #1011, #1, #930 ) ;
#300 = CARTESIAN_POINT ( 'NONE',  ( -5.290000000000000900, 2.355659513034169500E-019, 8.500000000000000000 ) ) ;
#301 = FACE_OUTER_BOUND ( 'NONE', #304, .T. ) ;
#302 = MECHANICAL_DESIGN_GEOMETRIC_PRESENTATION_REPRESENTATION (  '', ( #251 ), #962 ) ;
#303 = LINE ( 'NONE', #224, #693 ) ;
#304 = EDGE_LOOP ( 'NONE', ( #389, #182, #810, #86 ) ) ;
#305 = SURFACE_STYLE_USAGE ( .BOTH. , #306 ) ;
#306 = SURFACE_SIDE_STYLE ('',( #868 ) ) ;
#307 = STYLED_ITEM ( 'NONE', ( #177 ), #802 ) ;
#308 = EDGE_CURVE ( 'NONE', #705, #534, #938, .T. ) ;
#309 = VECTOR ( 'NONE', #846, 1000.000000000000000 ) ;
#310 = ORIENTED_EDGE ( 'NONE', *, *, #236, .F. ) ;
#311 = FACE_OUTER_BOUND ( 'NONE', #783, .T. ) ;
#312 = ORIENTED_EDGE ( 'NONE', *, *, #219, .F. ) ;
#313 = ORIENTED_EDGE ( 'NONE', *, *, #950, .T. ) ;
#314 = FILL_AREA_STYLE_COLOUR ( '', #416 ) ;
#315 = CARTESIAN_POINT ( 'NONE',  ( 2.840000000000000700, -4.610000000000000300, 6.375000000000000900 ) ) ;
#316 = DIRECTION ( 'NONE',  ( -1.000000000000000000, -2.125886612716682700E-016, 0.0000000000000000000 ) ) ;
#317 = FACE_OUTER_BOUND ( 'NONE', #820, .T. ) ;
#318 = VECTOR ( 'NONE', #992, 1000.000000000000000 ) ;
#319 = LINE ( 'NONE', #837, #132 ) ;
#320 = VECTOR ( 'NONE', #298, 1000.000000000000000 ) ;
#321 = CARTESIAN_POINT ( 'NONE',  ( 0.3000000000000007700, -4.610000000000000300, 6.625000000000000900 ) ) ;
#322 = ORIENTED_EDGE ( 'NONE', *, *, #801, .T. ) ;
#323 = ORIENTED_EDGE ( 'NONE', *, *, #113, .F. ) ;
#324 = EDGE_CURVE ( 'NONE', #232, #722, #731, .T. ) ;
#325 = CARTESIAN_POINT ( 'NONE',  ( -5.799999999999999800, 9.890000000000000600, 8.500000000000000000 ) ) ;
#326 = SURFACE_SIDE_STYLE ('',( #371 ) ) ;
#327 =( NAMED_UNIT ( * ) PLANE_ANGLE_UNIT ( ) SI_UNIT ( $, .RADIAN. ) );
#328 = ADVANCED_FACE ( 'NONE', ( #915 ), #370, .F. ) ;
#329 = SURFACE_STYLE_FILL_AREA ( #797 ) ;
#330 = VECTOR ( 'NONE', #185, 1000.000000000000000 ) ;
#331 = ORIENTED_EDGE ( 'NONE', *, *, #700, .F. ) ;
#332 = PRESENTATION_STYLE_ASSIGNMENT (( #991 ) ) ;
#333 =( GEOMETRIC_REPRESENTATION_CONTEXT ( 3 ) GLOBAL_UNCERTAINTY_ASSIGNED_CONTEXT ( ( #393 ) ) GLOBAL_UNIT_ASSIGNED_CONTEXT ( ( #100, #327, #23 ) ) REPRESENTATION_CONTEXT ( 'NONE', 'WORKASPACE' ) );
#334 = ORIENTED_EDGE ( 'NONE', *, *, #457, .F. ) ;
#335 = ORIENTED_EDGE ( 'NONE', *, *, #775, .F. ) ;
#336 = FILL_AREA_STYLE_COLOUR ( '', #382 ) ;
#337 = DIRECTION ( 'NONE',  ( 1.000000000000000000, 0.0000000000000000000, 0.0000000000000000000 ) ) ;
#338 = ADVANCED_FACE ( 'NONE', ( #977 ), #773, .F. ) ;
#339 = AXIS2_PLACEMENT_3D ( 'NONE', #484, #878, #563 ) ;
#340 = CARTESIAN_POINT ( 'NONE',  ( -5.290000000000000900, 2.355659513034169500E-019, 8.500000000000000000 ) ) ;
#341 = DIRECTION ( 'NONE',  ( -0.0000000000000000000, -0.0000000000000000000, -1.000000000000000000 ) ) ;
#342 = LINE ( 'NONE', #988, #959 ) ;
#343 = EDGE_CURVE ( 'NONE', #97, #736, #557, .T. ) ;
#344 = CARTESIAN_POINT ( 'NONE',  ( -5.290000000000000900, 2.355659513034169500E-019, 8.500000000000000000 ) ) ;
#345 = SURFACE_SIDE_STYLE ('',( #278 ) ) ;
#346 = VECTOR ( 'NONE', #81, 1000.000000000000000 ) ;
#347 = ORIENTED_EDGE ( 'NONE', *, *, #219, .T. ) ;
#348 = SURFACE_SIDE_STYLE ('',( #483 ) ) ;
#349 = AXIS2_PLACEMENT_3D ( 'NONE', #163, #792, #554 ) ;
#350 = APPLICATION_PROTOCOL_DEFINITION ( 'draft international standard', 'automotive_design', 1998, #285 ) ;
#351 = CARTESIAN_POINT ( 'NONE',  ( -2.939999999999999500, -4.610000000000000300, 6.625000000000000900 ) ) ;
#352 = EDGE_CURVE ( 'NONE', #877, #136, #609, .T. ) ;
#353 =( LENGTH_UNIT ( ) NAMED_UNIT ( * ) SI_UNIT ( .MILLI., .METRE. ) );
#354 = PRODUCT_CONTEXT ( 'NONE', #285, 'mechanical' ) ;
#355 = DIRECTION ( 'NONE',  ( 1.000000000000000000, -2.125886612716682200E-016, 0.0000000000000000000 ) ) ;
#356 = LINE ( 'NONE', #638, #48 ) ;
#357 = VECTOR ( 'NONE', #770, 1000.000000000000000 ) ;
#358 = PLANE ( 'NONE',  #823 ) ;
#359 = PRESENTATION_LAYER_ASSIGNMENT (  '', '', ( #767 ) ) ;
#360 = VERTEX_POINT ( 'NONE', #627 ) ;
#361 = EDGE_LOOP ( 'NONE', ( #734, #391 ) ) ;
#362 = ORIENTED_EDGE ( 'NONE', *, *, #839, .F. ) ;
#363 = SURFACE_STYLE_USAGE ( .BOTH. , #831 ) ;
#364 = FILL_AREA_STYLE_COLOUR ( '', #214 ) ;
#365 = CARTESIAN_POINT ( 'NONE',  ( -2.239999999999999300, -4.610000000000000300, 6.625000000000000900 ) ) ;
#366 = DIRECTION ( 'NONE',  ( 0.0000000000000000000, 0.0000000000000000000, 1.000000000000000000 ) ) ;
#367 = STYLED_ITEM ( 'NONE', ( #509 ), #328 ) ;
#368 = DIRECTION ( 'NONE',  ( 0.0000000000000000000, 0.0000000000000000000, -1.000000000000000000 ) ) ;
#369 = PRODUCT_DEFINITION_FORMATION_WITH_SPECIFIED_SOURCE ( 'ANY', '', #158, .NOT_KNOWN. ) ;
#370 = PLANE ( 'NONE',  #808 ) ;
#371 = SURFACE_STYLE_FILL_AREA ( #883 ) ;
#372 = FACE_OUTER_BOUND ( 'NONE', #537, .T. ) ;
#373 = DIRECTION ( 'NONE',  ( 0.0000000000000000000, 0.0000000000000000000, 1.000000000000000000 ) ) ;
#374 = ORIENTED_EDGE ( 'NONE', *, *, #425, .T. ) ;
#375 = CARTESIAN_POINT ( 'NONE',  ( -2.589999999999999400, 0.9999999999999991100, 8.490000000000000200 ) ) ;
#376 = ORIENTED_EDGE ( 'NONE', *, *, #937, .F. ) ;
#377 = CARTESIAN_POINT ( 'NONE',  ( -2.939999999999999500, -4.610000000000000300, 6.625000000000000900 ) ) ;
#378 = CARTESIAN_POINT ( 'NONE',  ( 2.840000000000002100, 2.355659513032689900E-019, 6.625000000000000900 ) ) ;
#379 = EDGE_CURVE ( 'NONE', #997, #360, #545, .T. ) ;
#380 = CARTESIAN_POINT ( 'NONE',  ( -5.799999999999999800, 9.890000000000000600, 0.0000000000000000000 ) ) ;
#381 = ORIENTED_EDGE ( 'NONE', *, *, #859, .F. ) ;
#382 = COLOUR_RGB ( '',0.2509803921568627400, 0.2509803921568627400, 0.2509803921568627400 ) ;
#383 = ORIENTED_EDGE ( 'NONE', *, *, #198, .T. ) ;
#384 = DIRECTION ( 'NONE',  ( -1.000000000000000000, 0.0000000000000000000, 0.0000000000000000000 ) ) ;
#385 = VECTOR ( 'NONE', #914, 1000.000000000000000 ) ;
#386 = AXIS2_PLACEMENT_3D ( 'NONE', #28, #716, #636 ) ;
#387 = LINE ( 'NONE', #678, #309 ) ;
#388 = DIRECTION ( 'NONE',  ( 0.0000000000000000000, 0.0000000000000000000, -1.000000000000000000 ) ) ;
#389 = ORIENTED_EDGE ( 'NONE', *, *, #343, .T. ) ;
#390 = SURFACE_STYLE_USAGE ( .BOTH. , #326 ) ;
#391 = ORIENTED_EDGE ( 'NONE', *, *, #454, .T. ) ;
#392 = ORIENTED_EDGE ( 'NONE', *, *, #149, .T. ) ;
#393 = UNCERTAINTY_MEASURE_WITH_UNIT (LENGTH_MEASURE( 1.000000000000000100E-005 ), #100, 'distance_accuracy_value', 'NONE');
#394 = CARTESIAN_POINT ( 'NONE',  ( 2.840000000000000700, -9.247376292520941900E-032, 6.375000000000000900 ) ) ;
#395 = SHAPE_DEFINITION_REPRESENTATION ( #689, #881 ) ;
#396 = CARTESIAN_POINT ( 'NONE',  ( 2.140000000000001000, -9.247376292520941900E-032, 6.375000000000000900 ) ) ;
#397 = SURFACE_STYLE_USAGE ( .BOTH. , #892 ) ;
#398 = MECHANICAL_DESIGN_GEOMETRIC_PRESENTATION_REPRESENTATION (  '', ( #657 ), #88 ) ;
#399 = ADVANCED_FACE ( 'NONE', ( #845 ), #866, .F. ) ;
#400 = PRESENTATION_LAYER_ASSIGNMENT (  '', '', ( #165 ) ) ;
#401 =( NAMED_UNIT ( * ) PLANE_ANGLE_UNIT ( ) SI_UNIT ( $, .RADIAN. ) );
#402 = ADVANCED_FACE ( 'NONE', ( #200 ), #569, .F. ) ;
#403 = LINE ( 'NONE', #908, #229 ) ;
#404 = LINE ( 'NONE', #856, #695 ) ;
#405 = DIRECTION ( 'NONE',  ( 1.000000000000000000, 0.0000000000000000000, 0.0000000000000000000 ) ) ;
#406 = EDGE_LOOP ( 'NONE', ( #234, #120, #310, #809 ) ) ;
#407 = LINE ( 'NONE', #128, #269 ) ;
#408 = DIRECTION ( 'NONE',  ( 1.000000000000000000, 0.0000000000000000000, 0.0000000000000000000 ) ) ;
#409 = ADVANCED_FACE ( 'NONE', ( #857 ), #502, .F. ) ;
#410 = CARTESIAN_POINT ( 'NONE',  ( -2.239999999999999300, -4.610000000000000300, 6.625000000000000900 ) ) ;
#411 = CARTESIAN_POINT ( 'NONE',  ( -2.239999999999999300, 0.0000000000000000000, 6.375000000000000900 ) ) ;
#412 = DIRECTION ( 'NONE',  ( 0.0000000000000000000, 1.000000000000000000, 0.0000000000000000000 ) ) ;
#413 = ADVANCED_FACE ( 'NONE', ( #6 ), #107, .F. ) ;
#414 = PLANE ( 'NONE',  #955 ) ;
#415 = AXIS2_PLACEMENT_3D ( 'NONE', #375, #448, #520 ) ;
#416 = COLOUR_RGB ( '',0.2509803921568627400, 0.2509803921568627400, 0.2509803921568627400 ) ;
#417 = CARTESIAN_POINT ( 'NONE',  ( -0.3999999999999993000, -4.610000000000000300, 6.375000000000000900 ) ) ;
#418 = LINE ( 'NONE', #476, #467 ) ;
#419 = VECTOR ( 'NONE', #223, 1000.000000000000000 ) ;
#420 = CARTESIAN_POINT ( 'NONE',  ( 5.799999999999999800, 9.890000000000000600, 8.500000000000000000 ) ) ;
#421 = ORIENTED_EDGE ( 'NONE', *, *, #751, .F. ) ;
#422 = VECTOR ( 'NONE', #918, 1000.000000000000000 ) ;
#423 = ORIENTED_EDGE ( 'NONE', *, *, #171, .F. ) ;
#424 =( LENGTH_UNIT ( ) NAMED_UNIT ( * ) SI_UNIT ( .MILLI., .METRE. ) );
#425 = EDGE_CURVE ( 'NONE', #245, #705, #403, .T. ) ;
#426 = CARTESIAN_POINT ( 'NONE',  ( -5.290000000000000900, 2.355659513034169500E-019, 0.0000000000000000000 ) ) ;
#427 = CARTESIAN_POINT ( 'NONE',  ( 5.290000000000000900, -0.5099999999999989000, 8.500000000000000000 ) ) ;
#428 = CARTESIAN_POINT ( 'NONE',  ( -5.799999999999999800, -0.5099999999999987900, 0.0000000000000000000 ) ) ;
#429 = UNCERTAINTY_MEASURE_WITH_UNIT (LENGTH_MEASURE( 1.000000000000000100E-005 ), #790, 'distance_accuracy_value', 'NONE');
#430 = EDGE_CURVE ( 'NONE', #21, #664, #871, .T. ) ;
#431 = CARTESIAN_POINT ( 'NONE',  ( 2.840000000000000700, -4.610000000000000300, 6.375000000000000900 ) ) ;
#432 = LINE ( 'NONE', #109, #729 ) ;
#433 = MECHANICAL_DESIGN_GEOMETRIC_PRESENTATION_REPRESENTATION (  '', ( #367 ), #760 ) ;
#434 = PRESENTATION_STYLE_ASSIGNMENT (( #793 ) ) ;
#435 = LINE ( 'NONE', #237, #133 ) ;
#436 = ORIENTED_EDGE ( 'NONE', *, *, #352, .F. ) ;
#437 = SURFACE_STYLE_FILL_AREA ( #74 ) ;
#438 = CARTESIAN_POINT ( 'NONE',  ( -5.290000000000000900, 2.355659513034169500E-019, 8.500000000000000000 ) ) ;
#439 = ORIENTED_EDGE ( 'NONE', *, *, #1012, .F. ) ;
#440 = DIRECTION ( 'NONE',  ( 1.000000000000000000, 0.0000000000000000000, 0.0000000000000000000 ) ) ;
#441 = EDGE_CURVE ( 'NONE', #21, #997, #658, .T. ) ;
#442 = DIRECTION ( 'NONE',  ( 0.0000000000000000000, 0.0000000000000000000, -1.000000000000000000 ) ) ;
#443 = LINE ( 'NONE', #568, #620 ) ;
#444 = FACE_OUTER_BOUND ( 'NONE', #9, .T. ) ;
#445 = DIRECTION ( 'NONE',  ( 0.0000000000000000000, 0.0000000000000000000, -1.000000000000000000 ) ) ;
#446 = FACE_OUTER_BOUND ( 'NONE', #533, .T. ) ;
#447 = ORIENTED_EDGE ( 'NONE', *, *, #246, .T. ) ;
#448 = DIRECTION ( 'NONE',  ( 0.0000000000000000000, 0.0000000000000000000, 1.000000000000000000 ) ) ;
#449 = ORIENTED_EDGE ( 'NONE', *, *, #921, .F. ) ;
#450 = ORIENTED_EDGE ( 'NONE', *, *, #457, .T. ) ;
#451 = CARTESIAN_POINT ( 'NONE',  ( -5.290000000000000900, -0.5099999999999989000, 8.500000000000000000 ) ) ;
#452 = EDGE_LOOP ( 'NONE', ( #586, #698, #850, #76 ) ) ;
#453 = DIRECTION ( 'NONE',  ( -1.000000000000000000, 2.125886612716682700E-016, 0.0000000000000000000 ) ) ;
#454 = EDGE_CURVE ( 'NONE', #17, #145, #644, .T. ) ;
#455 = AXIS2_PLACEMENT_3D ( 'NONE', #417, #906, #580 ) ;
#456 = VECTOR ( 'NONE', #355, 1000.000000000000000 ) ;
#457 = EDGE_CURVE ( 'NONE', #548, #30, #241, .T. ) ;
#458 = SURFACE_STYLE_FILL_AREA ( #848 ) ;
#459 = FILL_AREA_STYLE_COLOUR ( '', #886 ) ;
#460 = VERTEX_POINT ( 'NONE', #73 ) ;
#461 = DIRECTION ( 'NONE',  ( 0.0000000000000000000, 0.0000000000000000000, 1.000000000000000000 ) ) ;
#462 = ORIENTED_EDGE ( 'NONE', *, *, #32, .T. ) ;
#463 = CARTESIAN_POINT ( 'NONE',  ( 2.840000000000000700, -4.610000000000000300, 6.625000000000000900 ) ) ;
#464 = EDGE_CURVE ( 'NONE', #67, #495, #718, .T. ) ;
#465 = LINE ( 'NONE', #653, #865 ) ;
#466 = LINE ( 'NONE', #694, #94 ) ;
#467 = VECTOR ( 'NONE', #176, 1000.000000000000000 ) ;
#468 = ORIENTED_EDGE ( 'NONE', *, *, #292, .F. ) ;
#469 = LINE ( 'NONE', #351, #422 ) ;
#470 = ORIENTED_EDGE ( 'NONE', *, *, #972, .F. ) ;
#471 = ORIENTED_EDGE ( 'NONE', *, *, #324, .F. ) ;
#472 = ADVANCED_FACE ( 'NONE', ( #65, #446 ), #290, .F. ) ;
#473 =( NAMED_UNIT ( * ) PLANE_ANGLE_UNIT ( ) SI_UNIT ( $, .RADIAN. ) );
#474 = EDGE_CURVE ( 'NONE', #901, #685, #319, .T. ) ;
#475 = ADVANCED_FACE ( 'NONE', ( #913 ), #925, .T. ) ;
#476 = CARTESIAN_POINT ( 'NONE',  ( -2.939999999999999500, -4.610000000000000300, 6.375000000000000900 ) ) ;
#477 = LINE ( 'NONE', #365, #189 ) ;
#478 = CARTESIAN_POINT ( 'NONE',  ( -5.290000000000000900, 2.355659513034169500E-019, 8.500000000000000000 ) ) ;
#479 = VECTOR ( 'NONE', #19, 1000.000000000000000 ) ;
#480 = FACE_OUTER_BOUND ( 'NONE', #205, .T. ) ;
#481 = EDGE_CURVE ( 'NONE', #136, #872, #303, .T. ) ;
#482 = EDGE_LOOP ( 'NONE', ( #160, #381 ) ) ;
#483 = SURFACE_STYLE_FILL_AREA ( #277 ) ;
#484 = CARTESIAN_POINT ( 'NONE',  ( 5.290000000000000900, 2.355659513032243500E-019, 8.500000000000000000 ) ) ;
#485 = PRESENTATION_LAYER_ASSIGNMENT (  '', '', ( #579 ) ) ;
#486 = ADVANCED_FACE ( 'NONE', ( #444 ), #788, .F. ) ;
#487 = UNCERTAINTY_MEASURE_WITH_UNIT (LENGTH_MEASURE( 1.000000000000000100E-005 ), #750, 'distance_accuracy_value', 'NONE');
#488 = DIRECTION ( 'NONE',  ( -1.000000000000000000, -0.0000000000000000000, -0.0000000000000000000 ) ) ;
#489 = CARTESIAN_POINT ( 'NONE',  ( -2.939999999999999500, -4.610000000000000300, 6.625000000000000900 ) ) ;
#490 = FACE_BOUND ( 'NONE', #708, .T. ) ;
#491 =( NAMED_UNIT ( * ) SI_UNIT ( $, .STERADIAN. ) SOLID_ANGLE_UNIT ( ) );
#492 = FACE_OUTER_BOUND ( 'NONE', #650, .T. ) ;
#493 = STYLED_ITEM ( 'NONE', ( #813 ), #888 ) ;
#494 = DIRECTION ( 'NONE',  ( 0.0000000000000000000, 0.0000000000000000000, 1.000000000000000000 ) ) ;
#495 = VERTEX_POINT ( 'NONE', #90 ) ;
#496 = ORIENTED_EDGE ( 'NONE', *, *, #628, .T. ) ;
#497 = ORIENTED_EDGE ( 'NONE', *, *, #615, .T. ) ;
#498 = CARTESIAN_POINT ( 'NONE',  ( 0.3000000000000007700, -4.623688146260470900E-032, 6.375000000000000900 ) ) ;
#499 =( GEOMETRIC_REPRESENTATION_CONTEXT ( 3 ) GLOBAL_UNCERTAINTY_ASSIGNED_CONTEXT ( ( #565 ) ) GLOBAL_UNIT_ASSIGNED_CONTEXT ( ( #424, #749, #508 ) ) REPRESENTATION_CONTEXT ( 'NONE', 'WORKASPACE' ) );
#500 = DIRECTION ( 'NONE',  ( 0.0000000000000000000, 0.0000000000000000000, -1.000000000000000000 ) ) ;
#501 = CARTESIAN_POINT ( 'NONE',  ( -2.939999999999999500, 0.0000000000000000000, 6.375000000000000900 ) ) ;
#502 = PLANE ( 'NONE',  #35 ) ;
#503 = FILL_AREA_STYLE_COLOUR ( '', #104 ) ;
#504 = EDGE_CURVE ( 'NONE', #495, #282, #965, .T. ) ;
#505 = CARTESIAN_POINT ( 'NONE',  ( -2.939999999999999500, 0.0000000000000000000, 6.625000000000000900 ) ) ;
#506 = DIRECTION ( 'NONE',  ( 1.000000000000000000, 0.0000000000000000000, 0.0000000000000000000 ) ) ;
#507 = VECTOR ( 'NONE', #49, 1000.000000000000000 ) ;
#508 =( NAMED_UNIT ( * ) SI_UNIT ( $, .STERADIAN. ) SOLID_ANGLE_UNIT ( ) );
#509 = PRESENTATION_STYLE_ASSIGNMENT (( #947 ) ) ;
#510 = VERTEX_POINT ( 'NONE', #942 ) ;
#511 = EDGE_LOOP ( 'NONE', ( #449, #470, #1010, #156 ) ) ;
#512 = CARTESIAN_POINT ( 'NONE',  ( 2.140000000000001000, -4.610000000000000300, 6.375000000000000900 ) ) ;
#513 = DIRECTION ( 'NONE',  ( 1.000000000000000000, 0.0000000000000000000, 0.0000000000000000000 ) ) ;
#514 = CARTESIAN_POINT ( 'NONE',  ( -5.290000000000000900, -0.5099999999999989000, 8.500000000000000000 ) ) ;
#515 = EDGE_CURVE ( 'NONE', #818, #534, #742, .T. ) ;
#516 = LINE ( 'NONE', #33, #105 ) ;
#517 = ORIENTED_EDGE ( 'NONE', *, *, #252, .T. ) ;
#518 = FACE_OUTER_BOUND ( 'NONE', #852, .T. ) ;
#519 = ORIENTED_EDGE ( 'NONE', *, *, #11, .F. ) ;
#520 = DIRECTION ( 'NONE',  ( 1.000000000000000000, 0.0000000000000000000, 0.0000000000000000000 ) ) ;
#521 = PLANE ( 'NONE',  #688 ) ;
#522 =( GEOMETRIC_REPRESENTATION_CONTEXT ( 3 ) GLOBAL_UNCERTAINTY_ASSIGNED_CONTEXT ( ( #779 ) ) GLOBAL_UNIT_ASSIGNED_CONTEXT ( ( #353, #842, #148 ) ) REPRESENTATION_CONTEXT ( 'NONE', 'WORKASPACE' ) );
#523 = DIRECTION ( 'NONE',  ( -1.000000000000000000, 0.0000000000000000000, 0.0000000000000000000 ) ) ;
#524 = AXIS2_PLACEMENT_3D ( 'NONE', #259, #31, #388 ) ;
#525 = CARTESIAN_POINT ( 'NONE',  ( -2.939999999999999500, 0.0000000000000000000, 6.625000000000000900 ) ) ;
#526 =( NAMED_UNIT ( * ) SI_UNIT ( $, .STERADIAN. ) SOLID_ANGLE_UNIT ( ) );
#527 = CIRCLE ( 'NONE', #583, 0.4000000000000006300 ) ;
#528 = CARTESIAN_POINT ( 'NONE',  ( 5.799999999999999800, -0.5099999999999987900, 0.0000000000000000000 ) ) ;
#529 = MECHANICAL_DESIGN_GEOMETRIC_PRESENTATION_REPRESENTATION (  '', ( #876 ), #275 ) ;
#530 = CARTESIAN_POINT ( 'NONE',  ( 5.290000000000000900, 2.355659513032243500E-019, 8.500000000000000000 ) ) ;
#531 = VECTOR ( 'NONE', #80, 1000.000000000000000 ) ;
#532 = VECTOR ( 'NONE', #445, 1000.000000000000000 ) ;
#533 = EDGE_LOOP ( 'NONE', ( #270, #193, #169, #761, #890, #889, #135, #786 ) ) ;
#534 = VERTEX_POINT ( 'NONE', #378 ) ;
#535 =( LENGTH_UNIT ( ) NAMED_UNIT ( * ) SI_UNIT ( .MILLI., .METRE. ) );
#536 = PRESENTATION_LAYER_ASSIGNMENT (  '', '', ( #307 ) ) ;
#537 = EDGE_LOOP ( 'NONE', ( #674, #635, #660, #611 ) ) ;
#538 = PLANE ( 'NONE',  #983 ) ;
#539 = DIRECTION ( 'NONE',  ( 0.0000000000000000000, 0.0000000000000000000, -1.000000000000000000 ) ) ;
#540 = AXIS2_PLACEMENT_3D ( 'NONE', #157, #373, #92 ) ;
#541 = CARTESIAN_POINT ( 'NONE',  ( 0.3000000000000007700, -4.610000000000000300, 6.375000000000000900 ) ) ;
#542 = CARTESIAN_POINT ( 'NONE',  ( -5.290000000000000900, -0.5099999999999989000, 0.0000000000000000000 ) ) ;
#543 = CARTESIAN_POINT ( 'NONE',  ( -0.3999999999999993000, -4.610000000000000300, 6.625000000000000900 ) ) ;
#544 = FACE_OUTER_BOUND ( 'NONE', #220, .T. ) ;
#545 = LINE ( 'NONE', #542, #531 ) ;
#546 = VERTEX_POINT ( 'NONE', #14 ) ;
#547 = STYLED_ITEM ( 'NONE', ( #608 ), #796 ) ;
#548 = VERTEX_POINT ( 'NONE', #541 ) ;
#549 = ORIENTED_EDGE ( 'NONE', *, *, #787, .F. ) ;
#550 =( GEOMETRIC_REPRESENTATION_CONTEXT ( 3 ) GLOBAL_UNCERTAINTY_ASSIGNED_CONTEXT ( ( #487 ) ) GLOBAL_UNIT_ASSIGNED_CONTEXT ( ( #750, #1005, #596 ) ) REPRESENTATION_CONTEXT ( 'NONE', 'WORKASPACE' ) );
#551 = AXIS2_PLACEMENT_3D ( 'NONE', #670, #196, #281 ) ;
#552 =( LENGTH_UNIT ( ) NAMED_UNIT ( * ) SI_UNIT ( .MILLI., .METRE. ) );
#553 = AXIS2_PLACEMENT_3D ( 'NONE', #543, #238, #948 ) ;
#554 = DIRECTION ( 'NONE',  ( -1.000000000000000000, 0.0000000000000000000, 0.0000000000000000000 ) ) ;
#555 = LINE ( 'NONE', #247, #289 ) ;
#556 = EDGE_CURVE ( 'NONE', #546, #818, #582, .T. ) ;
#557 = LINE ( 'NONE', #525, #346 ) ;
#558 = DIRECTION ( 'NONE',  ( 0.0000000000000000000, 1.000000000000000000, 0.0000000000000000000 ) ) ;
#559 = AXIS2_PLACEMENT_3D ( 'NONE', #989, #811, #726 ) ;
#560 = ORIENTED_EDGE ( 'NONE', *, *, #292, .T. ) ;
#561 = ORIENTED_EDGE ( 'NONE', *, *, #675, .F. ) ;
#562 = CLOSED_SHELL ( 'NONE', ( #409, #651, #255, #338, #263, #654 ) ) ;
#563 = DIRECTION ( 'NONE',  ( 0.0000000000000000000, 0.0000000000000000000, -1.000000000000000000 ) ) ;
#564 = ADVANCED_FACE ( 'NONE', ( #151 ), #784, .F. ) ;
#565 = UNCERTAINTY_MEASURE_WITH_UNIT (LENGTH_MEASURE( 1.000000000000000100E-005 ), #424, 'distance_accuracy_value', 'NONE');
#566 = EDGE_CURVE ( 'NONE', #875, #833, #555, .T. ) ;
#567 = FACE_BOUND ( 'NONE', #665, .T. ) ;
#568 = CARTESIAN_POINT ( 'NONE',  ( 2.140000000000001000, -4.610000000000000300, 6.375000000000000900 ) ) ;
#569 = PLANE ( 'NONE',  #559 ) ;
#570 = VECTOR ( 'NONE', #36, 1000.000000000000000 ) ;
#571 = EDGE_CURVE ( 'NONE', #534, #161, #780, .T. ) ;
#572 = ORIENTED_EDGE ( 'NONE', *, *, #730, .T. ) ;
#573 = DIRECTION ( 'NONE',  ( 0.0000000000000000000, -1.000000000000000000, 0.0000000000000000000 ) ) ;
#574 = ORIENTED_EDGE ( 'NONE', *, *, #1012, .T. ) ;
#575 =( GEOMETRIC_REPRESENTATION_CONTEXT ( 3 ) GLOBAL_UNCERTAINTY_ASSIGNED_CONTEXT ( ( #919 ) ) GLOBAL_UNIT_ASSIGNED_CONTEXT ( ( #945, #87, #621 ) ) REPRESENTATION_CONTEXT ( 'NONE', 'WORKASPACE' ) );
#576 = CARTESIAN_POINT ( 'NONE',  ( -2.589999999999999400, 0.9999999999999991100, 8.490000000000000200 ) ) ;
#577 = DIRECTION ( 'NONE',  ( 1.000000000000000000, 2.125886612716682200E-016, 0.0000000000000000000 ) ) ;
#578 = CARTESIAN_POINT ( 'NONE',  ( -0.3999999999999993000, -4.610000000000000300, 6.375000000000000900 ) ) ;
#579 = STYLED_ITEM ( 'NONE', ( #434 ), #399 ) ;
#580 = DIRECTION ( 'NONE',  ( 1.000000000000000000, 0.0000000000000000000, 0.0000000000000000000 ) ) ;
#581 = CARTESIAN_POINT ( 'NONE',  ( -5.290000000000000900, 2.355659513034169500E-019, 0.0000000000000000000 ) ) ;
#582 = LINE ( 'NONE', #396, #683 ) ;
#583 = AXIS2_PLACEMENT_3D ( 'NONE', #276, #494, #408 ) ;
#584 = CARTESIAN_POINT ( 'NONE',  ( -5.799999999999999800, -0.5099999999999987900, 8.500000000000000000 ) ) ;
#585 = VECTOR ( 'NONE', #604, 1000.000000000000000 ) ;
#586 = ORIENTED_EDGE ( 'NONE', *, *, #454, .F. ) ;
#587 = EDGE_LOOP ( 'NONE', ( #673, #436, #335, #978 ) ) ;
#588 = PLANE ( 'NONE',  #551 ) ;
#589 = AXIS2_PLACEMENT_3D ( 'NONE', #907, #593, #294 ) ;
#590 = AXIS2_PLACEMENT_3D ( 'NONE', #188, #739, #183 ) ;
#591 = PRODUCT_DEFINITION_CONTEXT ( 'detailed design', #923, 'design' ) ;
#592 = MECHANICAL_DESIGN_GEOMETRIC_PRESENTATION_REPRESENTATION (  '', ( #307 ), #575 ) ;
#593 = DIRECTION ( 'NONE',  ( 1.000000000000000000, 0.0000000000000000000, 0.0000000000000000000 ) ) ;
#594 =( LENGTH_UNIT ( ) NAMED_UNIT ( * ) SI_UNIT ( .MILLI., .METRE. ) );
#595 = PRESENTATION_LAYER_ASSIGNMENT (  '', '', ( #367 ) ) ;
#596 =( NAMED_UNIT ( * ) SI_UNIT ( $, .STERADIAN. ) SOLID_ANGLE_UNIT ( ) );
#597 = CARTESIAN_POINT ( 'NONE',  ( -0.3999999999999993000, 2.355659513033279200E-019, 6.375000000000000900 ) ) ;
#598 = UNCERTAINTY_MEASURE_WITH_UNIT (LENGTH_MEASURE( 1.000000000000000100E-005 ), #12, 'distance_accuracy_value', 'NONE');
#599 = VERTEX_POINT ( 'NONE', #250 ) ;
#600 = CARTESIAN_POINT ( 'NONE',  ( -2.589999999999999400, 0.9999999999999991100, 8.490000000000000200 ) ) ;
#601 = ORIENTED_EDGE ( 'NONE', *, *, #972, .T. ) ;
#602 = DIRECTION ( 'NONE',  ( -0.0000000000000000000, -1.000000000000000000, -0.0000000000000000000 ) ) ;
#603 = EDGE_CURVE ( 'NONE', #685, #495, #516, .T. ) ;
#604 = DIRECTION ( 'NONE',  ( -0.0000000000000000000, -1.000000000000000000, -0.0000000000000000000 ) ) ;
#605 = FILL_AREA_STYLE ('',( #5 ) ) ;
#606 = AXIS2_PLACEMENT_3D ( 'NONE', #894, #666, #264 ) ;
#607 = CARTESIAN_POINT ( 'NONE',  ( -2.939999999999999500, -4.610000000000000300, 6.375000000000000900 ) ) ;
#608 = PRESENTATION_STYLE_ASSIGNMENT (( #93 ) ) ;
#609 = LINE ( 'NONE', #530, #419 ) ;
#610 = CARTESIAN_POINT ( 'NONE',  ( -0.3999999999999993000, -4.610000000000000300, 6.375000000000000900 ) ) ;
#611 = ORIENTED_EDGE ( 'NONE', *, *, #134, .T. ) ;
#612 = CARTESIAN_POINT ( 'NONE',  ( -5.290000000000000900, -0.5099999999999989000, 8.500000000000000000 ) ) ;
#613 = ORIENTED_EDGE ( 'NONE', *, *, #379, .T. ) ;
#614 = VERTEX_POINT ( 'NONE', #167 ) ;
#615 = EDGE_CURVE ( 'NONE', #232, #118, #418, .T. ) ;
#616 = CARTESIAN_POINT ( 'NONE',  ( -2.239999999999999300, -4.610000000000000300, 6.375000000000000900 ) ) ;
#617 = LINE ( 'NONE', #501, #880 ) ;
#618 =( NAMED_UNIT ( * ) PLANE_ANGLE_UNIT ( ) SI_UNIT ( $, .RADIAN. ) );
#619 = DIRECTION ( 'NONE',  ( 0.0000000000000000000, 1.000000000000000000, 0.0000000000000000000 ) ) ;
#620 = VECTOR ( 'NONE', #121, 1000.000000000000000 ) ;
#621 =( NAMED_UNIT ( * ) SI_UNIT ( $, .STERADIAN. ) SOLID_ANGLE_UNIT ( ) );
#622 = LINE ( 'NONE', #723, #641 ) ;
#623 = LINE ( 'NONE', #754, #108 ) ;
#624 = ORIENTED_EDGE ( 'NONE', *, *, #481, .T. ) ;
#625 = VECTOR ( 'NONE', #986, 1000.000000000000000 ) ;
#626 = EDGE_LOOP ( 'NONE', ( #20, #423, #1009, #517 ) ) ;
#627 = CARTESIAN_POINT ( 'NONE',  ( -5.290000000000000900, -0.5099999999999989000, 0.0000000000000000000 ) ) ;
#628 = EDGE_CURVE ( 'NONE', #872, #685, #715, .T. ) ;
#629 = FILL_AREA_STYLE_COLOUR ( '', #755 ) ;
#630 =( NAMED_UNIT ( * ) SI_UNIT ( $, .STERADIAN. ) SOLID_ANGLE_UNIT ( ) );
#631 = FACE_OUTER_BOUND ( 'NONE', #26, .T. ) ;
#632 = LINE ( 'NONE', #975, #330 ) ;
#633 = ORIENTED_EDGE ( 'NONE', *, *, #83, .F. ) ;
#634 = VERTEX_POINT ( 'NONE', #411 ) ;
#635 = ORIENTED_EDGE ( 'NONE', *, *, #615, .F. ) ;
#636 = DIRECTION ( 'NONE',  ( 1.000000000000000000, 0.0000000000000000000, 0.0000000000000000000 ) ) ;
#637 = DIRECTION ( 'NONE',  ( 0.0000000000000000000, 0.0000000000000000000, -1.000000000000000000 ) ) ;
#638 = CARTESIAN_POINT ( 'NONE',  ( -0.3999999999999993000, -4.623688146260470900E-032, 6.625000000000000900 ) ) ;
#639 = SURFACE_SIDE_STYLE ('',( #209 ) ) ;
#640 = ADVANCED_FACE ( 'NONE', ( #492 ), #720, .F. ) ;
#641 = VECTOR ( 'NONE', #807, 1000.000000000000000 ) ;
#642 = EDGE_CURVE ( 'NONE', #548, #875, #632, .T. ) ;
#643 = DIRECTION ( 'NONE',  ( 0.0000000000000000000, 1.000000000000000000, 0.0000000000000000000 ) ) ;
#644 = CIRCLE ( 'NONE', #415, 0.4000000000000006300 ) ;
#645 = VECTOR ( 'NONE', #204, 1000.000000000000000 ) ;
#646 = CARTESIAN_POINT ( 'NONE',  ( 5.290000000000000900, -0.5099999999999989000, 0.0000000000000000000 ) ) ;
#647 = AXIS2_PLACEMENT_3D ( 'NONE', #652, #178, #405 ) ;
#648 = EDGE_LOOP ( 'NONE', ( #347, #686, #143, #180 ) ) ;
#649 = LINE ( 'NONE', #146, #119 ) ;
#650 = EDGE_LOOP ( 'NONE', ( #676, #54, #684, #900 ) ) ;
#651 = ADVANCED_FACE ( 'NONE', ( #301 ), #738, .F. ) ;
#652 = CARTESIAN_POINT ( 'NONE',  ( -2.589999999999999400, 0.9999999999999991100, 8.490000000000000200 ) ) ;
#653 = CARTESIAN_POINT ( 'NONE',  ( -5.799999999999999800, 9.890000000000000600, 8.500000000000000000 ) ) ;
#654 = ADVANCED_FACE ( 'NONE', ( #1004 ), #414, .F. ) ;
#655 = AXIS2_PLACEMENT_3D ( 'NONE', #576, #898, #272 ) ;
#656 = FILL_AREA_STYLE ('',( #46 ) ) ;
#657 = STYLED_ITEM ( 'NONE', ( #287 ), #933 ) ;
#658 = LINE ( 'NONE', #584, #672 ) ;
#659 = ADVANCED_FACE ( 'NONE', ( #896 ), #75, .F. ) ;
#660 = ORIENTED_EDGE ( 'NONE', *, *, #201, .F. ) ;
#661 = VERTEX_POINT ( 'NONE', #340 ) ;
#662 =( NAMED_UNIT ( * ) PLANE_ANGLE_UNIT ( ) SI_UNIT ( $, .RADIAN. ) );
#663 = DIRECTION ( 'NONE',  ( -1.000000000000000000, 0.0000000000000000000, 0.0000000000000000000 ) ) ;
#664 = VERTEX_POINT ( 'NONE', #727 ) ;
#665 = EDGE_LOOP ( 'NONE', ( #830, #124, #312, #155 ) ) ;
#666 = DIRECTION ( 'NONE',  ( -1.000000000000000000, 0.0000000000000000000, 0.0000000000000000000 ) ) ;
#667 =( LENGTH_UNIT ( ) NAMED_UNIT ( * ) SI_UNIT ( .MILLI., .METRE. ) );
#668 = CARTESIAN_POINT ( 'NONE',  ( 5.799999999999999800, 9.890000000000000600, 8.500000000000000000 ) ) ;
#669 = EDGE_CURVE ( 'NONE', #360, #268, #816, .T. ) ;
#670 = CARTESIAN_POINT ( 'NONE',  ( 2.140000000000001000, -4.610000000000000300, 6.625000000000000900 ) ) ;
#671 = SURFACE_SIDE_STYLE ('',( #68 ) ) ;
#672 = VECTOR ( 'NONE', #341, 1000.000000000000000 ) ;
#673 = ORIENTED_EDGE ( 'NONE', *, *, #700, .T. ) ;
#674 = ORIENTED_EDGE ( 'NONE', *, *, #53, .T. ) ;
#675 = EDGE_CURVE ( 'NONE', #799, #195, #869, .T. ) ;
#676 = ORIENTED_EDGE ( 'NONE', *, *, #839, .T. ) ;
#677 =( NAMED_UNIT ( * ) SI_UNIT ( $, .STERADIAN. ) SOLID_ANGLE_UNIT ( ) );
#678 = CARTESIAN_POINT ( 'NONE',  ( -0.3999999999999993000, -4.623688146260470900E-032, 6.625000000000000900 ) ) ;
#679 = EDGE_CURVE ( 'NONE', #17, #614, #50, .T. ) ;
#680 = DIRECTION ( 'NONE',  ( 0.0000000000000000000, 1.000000000000000000, 0.0000000000000000000 ) ) ;
#681 = FACE_OUTER_BOUND ( 'NONE', #954, .T. ) ;
#682 = CARTESIAN_POINT ( 'NONE',  ( 5.290000000000000900, 2.355659513032243500E-019, 8.500000000000000000 ) ) ;
#683 = VECTOR ( 'NONE', #172, 1000.000000000000000 ) ;
#684 = ORIENTED_EDGE ( 'NONE', *, *, #815, .F. ) ;
#685 = VERTEX_POINT ( 'NONE', #528 ) ;
#686 = ORIENTED_EDGE ( 'NONE', *, *, #946, .F. ) ;
#687 = ORIENTED_EDGE ( 'NONE', *, *, #464, .T. ) ;
#688 = AXIS2_PLACEMENT_3D ( 'NONE', #377, #231, #539 ) ;
#689 = PRODUCT_DEFINITION_SHAPE ( 'NONE', 'NONE',  #834 ) ;
#690 = UNCERTAINTY_MEASURE_WITH_UNIT (LENGTH_MEASURE( 1.000000000000000100E-005 ), #594, 'distance_accuracy_value', 'NONE');
#691 = DIRECTION ( 'NONE',  ( 1.000000000000000000, 0.0000000000000000000, 0.0000000000000000000 ) ) ;
#692 = LINE ( 'NONE', #152, #279 ) ;
#693 = VECTOR ( 'NONE', #239, 1000.000000000000000 ) ;
#694 = CARTESIAN_POINT ( 'NONE',  ( 0.3000000000000007700, -4.623688146260470900E-032, 6.625000000000000900 ) ) ;
#695 = VECTOR ( 'NONE', #696, 1000.000000000000000 ) ;
#696 = DIRECTION ( 'NONE',  ( 0.0000000000000000000, 0.0000000000000000000, -1.000000000000000000 ) ) ;
#697 = EDGE_LOOP ( 'NONE', ( #847, #771, #940, #202 ) ) ;
#698 = ORIENTED_EDGE ( 'NONE', *, *, #679, .T. ) ;
#699 = ORIENTED_EDGE ( 'NONE', *, *, #911, .T. ) ;
#700 = EDGE_CURVE ( 'NONE', #268, #136, #844, .T. ) ;
#701 = STYLED_ITEM ( 'NONE', ( #826 ), #472 ) ;
#702 = CARTESIAN_POINT ( 'NONE',  ( -5.290000000000000900, 2.355659513034169500E-019, 0.0000000000000000000 ) ) ;
#703 = COLOUR_RGB ( '',0.2509803921568627400, 0.2509803921568627400, 0.2509803921568627400 ) ;
#704 = LINE ( 'NONE', #66, #645 ) ;
#705 = VERTEX_POINT ( 'NONE', #838 ) ;
#706 = PRESENTATION_STYLE_ASSIGNMENT (( #1008 ) ) ;
#707 = ORIENTED_EDGE ( 'NONE', *, *, #801, .F. ) ;
#708 = EDGE_LOOP ( 'NONE', ( #707, #468, #293, #362 ) ) ;
#709 = FILL_AREA_STYLE_COLOUR ( '', #926 ) ;
#710 = COLOUR_RGB ( '',1.000000000000000000, 1.000000000000000000, 1.000000000000000000 ) ;
#711 = CARTESIAN_POINT ( 'NONE',  ( 0.3000000000000007700, 2.355659513033152100E-019, 6.625000000000000900 ) ) ;
#712 = CARTESIAN_POINT ( 'NONE',  ( 5.290000000000000900, -0.5099999999999989000, 8.500000000000000000 ) ) ;
#713 = EDGE_CURVE ( 'NONE', #722, #510, #477, .T. ) ;
#714 = DIRECTION ( 'NONE',  ( -1.000000000000000000, -0.0000000000000000000, -0.0000000000000000000 ) ) ;
#715 = LINE ( 'NONE', #885, #570 ) ;
#716 = DIRECTION ( 'NONE',  ( 0.0000000000000000000, 0.0000000000000000000, 1.000000000000000000 ) ) ;
#717 = PRESENTATION_LAYER_ASSIGNMENT (  '', '', ( #129 ) ) ;
#718 = LINE ( 'NONE', #668, #256 ) ;
#719 = VECTOR ( 'NONE', #691, 1000.000000000000000 ) ;
#720 = PLANE ( 'NONE',  #590 ) ;
#721 = ORIENTED_EDGE ( 'NONE', *, *, #474, .F. ) ;
#722 = VERTEX_POINT ( 'NONE', #616 ) ;
#723 = CARTESIAN_POINT ( 'NONE',  ( -0.3999999999999993000, -4.610000000000000300, 6.625000000000000900 ) ) ;
#724 = MECHANICAL_DESIGN_GEOMETRIC_PRESENTATION_REPRESENTATION (  '', ( #763 ), #812 ) ;
#725 = DIRECTION ( 'NONE',  ( -0.0000000000000000000, -0.0000000000000000000, -1.000000000000000000 ) ) ;
#726 = DIRECTION ( 'NONE',  ( 0.0000000000000000000, 0.0000000000000000000, 1.000000000000000000 ) ) ;
#727 = CARTESIAN_POINT ( 'NONE',  ( -5.290000000000000900, -0.5099999999999989000, 8.500000000000000000 ) ) ;
#728 = PLANE ( 'NONE',  #455 ) ;
#729 = VECTOR ( 'NONE', #174, 1000.000000000000000 ) ;
#730 = EDGE_CURVE ( 'NONE', #27, #195, #387, .T. ) ;
#731 = LINE ( 'NONE', #221, #719 ) ;
#732 = FILL_AREA_STYLE ('',( #503 ) ) ;
#733 = AXIS2_PLACEMENT_3D ( 'NONE', #325, #800, #637 ) ;
#734 = ORIENTED_EDGE ( 'NONE', *, *, #895, .T. ) ;
#735 = ORIENTED_EDGE ( 'NONE', *, *, #642, .F. ) ;
#736 = VERTEX_POINT ( 'NONE', #141 ) ;
#737 = CARTESIAN_POINT ( 'NONE',  ( -0.3999999999999993000, 2.355659513033279200E-019, 6.625000000000000900 ) ) ;
#738 = PLANE ( 'NONE',  #748 ) ;
#739 = DIRECTION ( 'NONE',  ( 0.0000000000000000000, 0.0000000000000000000, -1.000000000000000000 ) ) ;
#740 =( GEOMETRIC_REPRESENTATION_CONTEXT ( 3 ) GLOBAL_UNCERTAINTY_ASSIGNED_CONTEXT ( ( #429 ) ) GLOBAL_UNIT_ASSIGNED_CONTEXT ( ( #790, #162, #879 ) ) REPRESENTATION_CONTEXT ( 'NONE', 'WORKASPACE' ) );
#741 = SURFACE_STYLE_USAGE ( .BOTH. , #348 ) ;
#742 = LINE ( 'NONE', #778, #211 ) ;
#743 = EDGE_CURVE ( 'NONE', #664, #360, #4, .T. ) ;
#744 = VECTOR ( 'NONE', #602, 1000.000000000000000 ) ;
#745 = ORIENTED_EDGE ( 'NONE', *, *, #946, .T. ) ;
#746 = PLANE ( 'NONE',  #212 ) ;
#747 = ORIENTED_EDGE ( 'NONE', *, *, #566, .F. ) ;
#748 = AXIS2_PLACEMENT_3D ( 'NONE', #489, #47, #904 ) ;
#749 =( NAMED_UNIT ( * ) PLANE_ANGLE_UNIT ( ) SI_UNIT ( $, .RADIAN. ) );
#750 =( LENGTH_UNIT ( ) NAMED_UNIT ( * ) SI_UNIT ( .MILLI., .METRE. ) );
#751 = EDGE_CURVE ( 'NONE', #877, #55, #85, .T. ) ;
#752 = DIRECTION ( 'NONE',  ( 0.0000000000000000000, 1.000000000000000000, 0.0000000000000000000 ) ) ;
#753 = DIRECTION ( 'NONE',  ( 0.0000000000000000000, 0.0000000000000000000, 1.000000000000000000 ) ) ;
#754 = CARTESIAN_POINT ( 'NONE',  ( 2.140000000000001000, -9.247376292520941900E-032, 6.625000000000000900 ) ) ;
#755 = COLOUR_RGB ( '',0.2509803921568627400, 0.2509803921568627400, 0.2509803921568627400 ) ;
#756 = DIRECTION ( 'NONE',  ( 1.000000000000000000, -1.820349663882075100E-032, 0.0000000000000000000 ) ) ;
#757 = ORIENTED_EDGE ( 'NONE', *, *, #675, .T. ) ;
#758 = LINE ( 'NONE', #505, #284 ) ;
#759 = CARTESIAN_POINT ( 'NONE',  ( 2.140000000000001900, 2.355659513032817000E-019, 6.625000000000000900 ) ) ;
#760 =( GEOMETRIC_REPRESENTATION_CONTEXT ( 3 ) GLOBAL_UNCERTAINTY_ASSIGNED_CONTEXT ( ( #598 ) ) GLOBAL_UNIT_ASSIGNED_CONTEXT ( ( #12, #853, #772 ) ) REPRESENTATION_CONTEXT ( 'NONE', 'WORKASPACE' ) );
#761 = ORIENTED_EDGE ( 'NONE', *, *, #430, .T. ) ;
#762 = ORIENTED_EDGE ( 'NONE', *, *, #642, .T. ) ;
#763 = STYLED_ITEM ( 'NONE', ( #864 ), #881 ) ;
#764 = SURFACE_SIDE_STYLE ('',( #437 ) ) ;
#765 = SURFACE_STYLE_USAGE ( .BOTH. , #7 ) ;
#766 = MECHANICAL_DESIGN_GEOMETRIC_PRESENTATION_REPRESENTATION (  '', ( #165 ), #499 ) ;
#767 = STYLED_ITEM ( 'NONE', ( #95 ), #564 ) ;
#768 = ORIENTED_EDGE ( 'NONE', *, *, #669, .F. ) ;
#769 = ORIENTED_EDGE ( 'NONE', *, *, #603, .F. ) ;
#770 = DIRECTION ( 'NONE',  ( 0.0000000000000000000, -1.000000000000000000, 0.0000000000000000000 ) ) ;
#771 = ORIENTED_EDGE ( 'NONE', *, *, #308, .F. ) ;
#772 =( NAMED_UNIT ( * ) SI_UNIT ( $, .STERADIAN. ) SOLID_ANGLE_UNIT ( ) );
#773 = PLANE ( 'NONE',  #540 ) ;
#774 = PLANE ( 'NONE',  #339 ) ;
#775 = EDGE_CURVE ( 'NONE', #661, #877, #159, .T. ) ;
#776 = CARTESIAN_POINT ( 'NONE',  ( 0.0000000000000000000, -4.610000000000000300, 0.0000000000000000000 ) ) ;
#777 = COLOUR_RGB ( '',0.2509803921568627400, 0.2509803921568627400, 0.2509803921568627400 ) ;
#778 = CARTESIAN_POINT ( 'NONE',  ( 2.840000000000000700, -9.247376292520941900E-032, 6.625000000000000900 ) ) ;
#779 = UNCERTAINTY_MEASURE_WITH_UNIT (LENGTH_MEASURE( 1.000000000000000100E-005 ), #353, 'distance_accuracy_value', 'NONE');
#780 = LINE ( 'NONE', #967, #265 ) ;
#781 = AXIS2_PLACEMENT_3D ( 'NONE', #789, #384, #84 ) ;
#782 = CARTESIAN_POINT ( 'NONE',  ( -5.799999999999999800, 9.890000000000000600, 0.0000000000000000000 ) ) ;
#783 = EDGE_LOOP ( 'NONE', ( #43, #519, #633, #142 ) ) ;
#784 = PLANE ( 'NONE',  #733 ) ;
#785 = ORIENTED_EDGE ( 'NONE', *, *, #324, .T. ) ;
#786 = ORIENTED_EDGE ( 'NONE', *, *, #113, .T. ) ;
#787 = EDGE_CURVE ( 'NONE', #901, #67, #692, .T. ) ;
#788 = PLANE ( 'NONE',  #553 ) ;
#789 = CARTESIAN_POINT ( 'NONE',  ( 5.799999999999999800, -0.5099999999999987900, 8.500000000000000000 ) ) ;
#790 =( LENGTH_UNIT ( ) NAMED_UNIT ( * ) SI_UNIT ( .MILLI., .METRE. ) );
#791 =( NAMED_UNIT ( * ) SI_UNIT ( $, .STERADIAN. ) SOLID_ANGLE_UNIT ( ) );
#792 = DIRECTION ( 'NONE',  ( 0.0000000000000000000, 0.0000000000000000000, -1.000000000000000000 ) ) ;
#793 = SURFACE_STYLE_USAGE ( .BOTH. , #963 ) ;
#794 = PRESENTATION_LAYER_ASSIGNMENT (  '', '', ( #701 ) ) ;
#795 = VECTOR ( 'NONE', #3, 1000.000000000000000 ) ;
#796 = ADVANCED_FACE ( 'NONE', ( #544 ), #91, .F. ) ;
#797 = FILL_AREA_STYLE ('',( #709 ) ) ;
#798 = DIRECTION ( 'NONE',  ( -2.125886612716682700E-016, 1.000000000000000000, 0.0000000000000000000 ) ) ;
#799 = VERTEX_POINT ( 'NONE', #610 ) ;
#800 = DIRECTION ( 'NONE',  ( 0.0000000000000000000, -1.000000000000000000, 0.0000000000000000000 ) ) ;
#801 = EDGE_CURVE ( 'NONE', #30, #833, #466, .T. ) ;
#802 = ADVANCED_FACE ( 'NONE', ( #199 ), #774, .F. ) ;
#803 =( NAMED_UNIT ( * ) SI_UNIT ( $, .STERADIAN. ) SOLID_ANGLE_UNIT ( ) );
#804 = ADVANCED_FACE ( 'NONE', ( #2 ), #248, .F. ) ;
#805 = EDGE_CURVE ( 'NONE', #245, #818, #993, .T. ) ;
#806 = DIRECTION ( 'NONE',  ( 0.0000000000000000000, 1.000000000000000000, 0.0000000000000000000 ) ) ;
#807 = DIRECTION ( 'NONE',  ( -1.000000000000000000, -0.0000000000000000000, -0.0000000000000000000 ) ) ;
#808 = AXIS2_PLACEMENT_3D ( 'NONE', #612, #935, #453 ) ;
#809 = ORIENTED_EDGE ( 'NONE', *, *, #308, .T. ) ;
#810 = ORIENTED_EDGE ( 'NONE', *, *, #198, .F. ) ;
#811 = DIRECTION ( 'NONE',  ( -1.000000000000000000, 0.0000000000000000000, 0.0000000000000000000 ) ) ;
#812 =( GEOMETRIC_REPRESENTATION_CONTEXT ( 3 ) GLOBAL_UNCERTAINTY_ASSIGNED_CONTEXT ( ( #690 ) ) GLOBAL_UNIT_ASSIGNED_CONTEXT ( ( #594, #840, #677 ) ) REPRESENTATION_CONTEXT ( 'NONE', 'WORKASPACE' ) );
#813 = PRESENTATION_STYLE_ASSIGNMENT (( #973 ) ) ;
#814 = CARTESIAN_POINT ( 'NONE',  ( -2.239999999999999300, 0.0000000000000000000, 6.625000000000000900 ) ) ;
#815 = EDGE_CURVE ( 'NONE', #875, #1007, #622, .T. ) ;
#816 = LINE ( 'NONE', #426, #507 ) ;
#817 = CARTESIAN_POINT ( 'NONE',  ( -2.239999999999999300, 0.0000000000000000000, 6.625000000000000900 ) ) ;
#818 = VERTEX_POINT ( 'NONE', #394 ) ;
#819 =( GEOMETRIC_REPRESENTATION_CONTEXT ( 3 ) GLOBAL_UNCERTAINTY_ASSIGNED_CONTEXT ( ( #253 ) ) GLOBAL_UNIT_ASSIGNED_CONTEXT ( ( #535, #235, #630 ) ) REPRESENTATION_CONTEXT ( 'NONE', 'WORKASPACE' ) );
#820 = EDGE_LOOP ( 'NONE', ( #374, #215, #170, #574 ) ) ;
#821 = VERTEX_POINT ( 'NONE', #961 ) ;
#822 = CARTESIAN_POINT ( 'NONE',  ( 5.080000000000000100, -4.610000000000000300, 0.0000000000000000000 ) ) ;
#823 = AXIS2_PLACEMENT_3D ( 'NONE', #512, #922, #440 ) ;
#824 = FILL_AREA_STYLE_COLOUR ( '', #710 ) ;
#825 = CARTESIAN_POINT ( 'NONE',  ( -0.3999999999999993000, -4.610000000000000300, 6.625000000000000900 ) ) ;
#826 = PRESENTATION_STYLE_ASSIGNMENT (( #765 ) ) ;
#827 = FILL_AREA_STYLE_COLOUR ( '', #931 ) ;
#828 = EDGE_CURVE ( 'NONE', #460, #161, #432, .T. ) ;
#829 = LINE ( 'NONE', #16, #320 ) ;
#830 = ORIENTED_EDGE ( 'NONE', *, *, #515, .F. ) ;
#831 = SURFACE_SIDE_STYLE ('',( #45 ) ) ;
#832 = VECTOR ( 'NONE', #125, 1000.000000000000000 ) ;
#833 = VERTEX_POINT ( 'NONE', #711 ) ;
#834 = PRODUCT_DEFINITION ( 'UNKNOWN', '', #369, #591 ) ;
#835 = CARTESIAN_POINT ( 'NONE',  ( 5.290000000000000900, 2.355659513032243500E-019, 0.0000000000000000000 ) ) ;
#836 = DIRECTION ( 'NONE',  ( 0.0000000000000000000, 0.0000000000000000000, 1.000000000000000000 ) ) ;
#837 = CARTESIAN_POINT ( 'NONE',  ( 5.799999999999999800, -0.5099999999999987900, 8.500000000000000000 ) ) ;
#838 = CARTESIAN_POINT ( 'NONE',  ( 2.840000000000000700, -4.610000000000000300, 6.625000000000000900 ) ) ;
#839 = EDGE_CURVE ( 'NONE', #833, #27, #356, .T. ) ;
#840 =( NAMED_UNIT ( * ) PLANE_ANGLE_UNIT ( ) SI_UNIT ( $, .RADIAN. ) );
#841 = VECTOR ( 'NONE', #337, 1000.000000000000000 ) ;
#842 =( NAMED_UNIT ( * ) PLANE_ANGLE_UNIT ( ) SI_UNIT ( $, .RADIAN. ) );
#843 = LINE ( 'NONE', #103, #228 ) ;
#844 = LINE ( 'NONE', #581, #25 ) ;
#845 = FACE_OUTER_BOUND ( 'NONE', #78, .T. ) ;
#846 = DIRECTION ( 'NONE',  ( 0.0000000000000000000, 0.0000000000000000000, -1.000000000000000000 ) ) ;
#847 = ORIENTED_EDGE ( 'NONE', *, *, #515, .T. ) ;
#848 = FILL_AREA_STYLE ('',( #459 ) ) ;
#849 = MECHANICAL_DESIGN_GEOMETRIC_PRESENTATION_REPRESENTATION (  '', ( #129 ), #522 ) ;
#850 = ORIENTED_EDGE ( 'NONE', *, *, #859, .T. ) ;
#851 = ORIENTED_EDGE ( 'NONE', *, *, #999, .T. ) ;
#852 = EDGE_LOOP ( 'NONE', ( #447, #122, #111, #295 ) ) ;
#853 =( NAMED_UNIT ( * ) PLANE_ANGLE_UNIT ( ) SI_UNIT ( $, .RADIAN. ) );
#854 = EDGE_CURVE ( 'NONE', #599, #282, #843, .T. ) ;
#855 = VECTOR ( 'NONE', #558, 1000.000000000000000 ) ;
#856 = CARTESIAN_POINT ( 'NONE',  ( 2.140000000000001000, -4.610000000000000300, 6.625000000000000900 ) ) ;
#857 = FACE_OUTER_BOUND ( 'NONE', #626, .T. ) ;
#858 = FACE_OUTER_BOUND ( 'NONE', #296, .T. ) ;
#859 = EDGE_CURVE ( 'NONE', #614, #821, #37, .T. ) ;
#860 = UNCERTAINTY_MEASURE_WITH_UNIT (LENGTH_MEASURE( 1.000000000000000100E-005 ), #667, 'distance_accuracy_value', 'NONE');
#861 = ORIENTED_EDGE ( 'NONE', *, *, #628, .F. ) ;
#862 = SURFACE_SIDE_STYLE ('',( #116 ) ) ;
#863 = FILL_AREA_STYLE ('',( #629 ) ) ;
#864 = PRESENTATION_STYLE_ASSIGNMENT (( #363 ) ) ;
#865 = VECTOR ( 'NONE', #488, 1000.000000000000000 ) ;
#866 = PLANE ( 'NONE',  #22 ) ;
#867 = PRESENTATION_LAYER_ASSIGNMENT (  '', '', ( #547 ) ) ;
#868 = SURFACE_STYLE_FILL_AREA ( #956 ) ;
#869 = LINE ( 'NONE', #578, #318 ) ;
#870 = FILL_AREA_STYLE_COLOUR ( '', #777 ) ;
#871 = LINE ( 'NONE', #514, #456 ) ;
#872 = VERTEX_POINT ( 'NONE', #646 ) ;
#873 = COLOUR_RGB ( '',1.000000000000000000, 1.000000000000000000, 1.000000000000000000 ) ;
#874 = EDGE_LOOP ( 'NONE', ( #322, #747, #735, #450 ) ) ;
#875 = VERTEX_POINT ( 'NONE', #321 ) ;
#876 = STYLED_ITEM ( 'NONE', ( #952 ), #123 ) ;
#877 = VERTEX_POINT ( 'NONE', #884 ) ;
#878 = DIRECTION ( 'NONE',  ( 1.000000000000000000, 0.0000000000000000000, 0.0000000000000000000 ) ) ;
#879 =( NAMED_UNIT ( * ) SI_UNIT ( $, .STERADIAN. ) SOLID_ANGLE_UNIT ( ) );
#880 = VECTOR ( 'NONE', #126, 1000.000000000000000 ) ;
#881 = ADVANCED_BREP_SHAPE_REPRESENTATION ( 'CUI_P78A05-1000', ( #933, #110, #943 ), #550 ) ;
#882 = ADVANCED_FACE ( 'NONE', ( #490, #1003, #567 ), #970, .F. ) ;
#883 = FILL_AREA_STYLE ('',( #944 ) ) ;
#884 = CARTESIAN_POINT ( 'NONE',  ( 5.290000000000000900, 2.355659513032243500E-019, 8.500000000000000000 ) ) ;
#885 = CARTESIAN_POINT ( 'NONE',  ( 5.290000000000000900, -0.5099999999999989000, 0.0000000000000000000 ) ) ;
#886 = COLOUR_RGB ( '',0.2509803921568627400, 0.2509803921568627400, 0.2509803921568627400 ) ;
#887 = DIRECTION ( 'NONE',  ( 0.0000000000000000000, 0.0000000000000000000, 1.000000000000000000 ) ) ;
#888 = ADVANCED_FACE ( 'NONE', ( #631 ), #244, .T. ) ;
#889 = ORIENTED_EDGE ( 'NONE', *, *, #775, .T. ) ;
#890 = ORIENTED_EDGE ( 'NONE', *, *, #83, .T. ) ;
#891 = PRESENTATION_LAYER_ASSIGNMENT (  '', '', ( #876 ) ) ;
#892 = SURFACE_SIDE_STYLE ('',( #329 ) ) ;
#893 = PRODUCT_RELATED_PRODUCT_CATEGORY ( 'part', '', ( #158 ) ) ;
#894 = CARTESIAN_POINT ( 'NONE',  ( 2.840000000000000700, -4.610000000000000300, 6.625000000000000900 ) ) ;
#895 = EDGE_CURVE ( 'NONE', #145, #17, #527, .T. ) ;
#896 = FACE_OUTER_BOUND ( 'NONE', #452, .T. ) ;
#897 =( LENGTH_UNIT ( ) NAMED_UNIT ( * ) SI_UNIT ( .MILLI., .METRE. ) );
#898 = DIRECTION ( 'NONE',  ( 0.0000000000000000000, 0.0000000000000000000, 1.000000000000000000 ) ) ;
#899 = EDGE_LOOP ( 'NONE', ( #762, #179, #392, #313 ) ) ;
#900 = ORIENTED_EDGE ( 'NONE', *, *, #566, .T. ) ;
#901 = VERTEX_POINT ( 'NONE', #166 ) ;
#902 = ORIENTED_EDGE ( 'NONE', *, *, #149, .F. ) ;
#903 = ADVANCED_FACE ( 'NONE', ( #317 ), #261, .T. ) ;
#904 = DIRECTION ( 'NONE',  ( -1.000000000000000000, 0.0000000000000000000, 0.0000000000000000000 ) ) ;
#905 = AXIS2_PLACEMENT_3D ( 'NONE', #438, #1000, #366 ) ;
#906 = DIRECTION ( 'NONE',  ( 0.0000000000000000000, 0.0000000000000000000, 1.000000000000000000 ) ) ;
#907 = CARTESIAN_POINT ( 'NONE',  ( -5.799999999999999800, -0.5099999999999987900, 8.500000000000000000 ) ) ;
#908 = CARTESIAN_POINT ( 'NONE',  ( 2.840000000000000700, -4.610000000000000300, 6.625000000000000900 ) ) ;
#909 = LINE ( 'NONE', #817, #262 ) ;
#910 =( NAMED_UNIT ( * ) PLANE_ANGLE_UNIT ( ) SI_UNIT ( $, .RADIAN. ) );
#911 = EDGE_CURVE ( 'NONE', #1007, #27, #342, .T. ) ;
#912 = VECTOR ( 'NONE', #297, 1000.000000000000000 ) ;
#913 = FACE_OUTER_BOUND ( 'NONE', #899, .T. ) ;
#914 = DIRECTION ( 'NONE',  ( 1.000000000000000000, 0.0000000000000000000, 0.0000000000000000000 ) ) ;
#915 = FACE_OUTER_BOUND ( 'NONE', #928, .T. ) ;
#916 = ORIENTED_EDGE ( 'NONE', *, *, #201, .T. ) ;
#917 = LINE ( 'NONE', #427, #243 ) ;
#918 = DIRECTION ( 'NONE',  ( 0.0000000000000000000, 1.000000000000000000, 0.0000000000000000000 ) ) ;
#919 = UNCERTAINTY_MEASURE_WITH_UNIT (LENGTH_MEASURE( 1.000000000000000100E-005 ), #945, 'distance_accuracy_value', 'NONE');
#920 = DIRECTION ( 'NONE',  ( 0.0000000000000000000, 0.0000000000000000000, 1.000000000000000000 ) ) ;
#921 = EDGE_CURVE ( 'NONE', #634, #97, #909, .T. ) ;
#922 = DIRECTION ( 'NONE',  ( 0.0000000000000000000, 0.0000000000000000000, 1.000000000000000000 ) ) ;
#923 = APPLICATION_CONTEXT ( 'automotive_design' ) ;
#924 = CARTESIAN_POINT ( 'NONE',  ( -5.799999999999999800, -0.5099999999999987900, 0.0000000000000000000 ) ) ;
#925 = PLANE ( 'NONE',  #299 ) ;
#926 = COLOUR_RGB ( '',0.2509803921568627400, 0.2509803921568627400, 0.2509803921568627400 ) ;
#927 = LINE ( 'NONE', #934, #532 ) ;
#928 = EDGE_LOOP ( 'NONE', ( #613, #194, #941, #8 ) ) ;
#929 = CARTESIAN_POINT ( 'NONE',  ( -2.939999999999999500, -4.610000000000000300, 6.625000000000000900 ) ) ;
#930 = DIRECTION ( 'NONE',  ( 0.0000000000000000000, 0.0000000000000000000, -1.000000000000000000 ) ) ;
#931 = COLOUR_RGB ( '',0.2509803921568627400, 0.2509803921568627400, 0.2509803921568627400 ) ;
#932 = ORIENTED_EDGE ( 'NONE', *, *, #854, .F. ) ;
#933 = MANIFOLD_SOLID_BREP ( 'LPattern1', #206 ) ;
#934 = CARTESIAN_POINT ( 'NONE',  ( -2.939999999999999500, -4.610000000000000300, 6.625000000000000900 ) ) ;
#935 = DIRECTION ( 'NONE',  ( 2.125886612716682700E-016, 1.000000000000000000, 0.0000000000000000000 ) ) ;
#936 = FILL_AREA_STYLE ('',( #364 ) ) ;
#937 = EDGE_CURVE ( 'NONE', #67, #599, #465, .T. ) ;
#938 = LINE ( 'NONE', #463, #996 ) ;
#939 = DIRECTION ( 'NONE',  ( 0.0000000000000000000, -1.000000000000000000, 0.0000000000000000000 ) ) ;
#940 = ORIENTED_EDGE ( 'NONE', *, *, #425, .F. ) ;
#941 = ORIENTED_EDGE ( 'NONE', *, *, #430, .F. ) ;
#942 = CARTESIAN_POINT ( 'NONE',  ( -2.239999999999999300, -4.610000000000000300, 6.625000000000000900 ) ) ;
#943 = AXIS2_PLACEMENT_3D ( 'NONE', #71, #836, #513 ) ;
#944 = FILL_AREA_STYLE_COLOUR ( '', #703 ) ;
#945 =( LENGTH_UNIT ( ) NAMED_UNIT ( * ) SI_UNIT ( .MILLI., .METRE. ) );
#946 = EDGE_CURVE ( 'NONE', #69, #546, #443, .T. ) ;
#947 = SURFACE_STYLE_USAGE ( .BOTH. , #89 ) ;
#948 = DIRECTION ( 'NONE',  ( 0.0000000000000000000, 0.0000000000000000000, -1.000000000000000000 ) ) ;
#949 = VECTOR ( 'NONE', #680, 1000.000000000000000 ) ;
#950 = EDGE_CURVE ( 'NONE', #799, #548, #240, .T. ) ;
#951 = ORIENTED_EDGE ( 'NONE', *, *, #603, .T. ) ;
#952 = PRESENTATION_STYLE_ASSIGNMENT (( #741 ) ) ;
#953 = ORIENTED_EDGE ( 'NONE', *, *, #895, .F. ) ;
#954 = EDGE_LOOP ( 'NONE', ( #560, #334, #99, #757 ) ) ;
#955 = AXIS2_PLACEMENT_3D ( 'NONE', #57, #191, #500 ) ;
#956 = FILL_AREA_STYLE ('',( #870 ) ) ;
#957 = MECHANICAL_DESIGN_GEOMETRIC_PRESENTATION_REPRESENTATION (  '', ( #701 ), #249 ) ;
#958 = UNCERTAINTY_MEASURE_WITH_UNIT (LENGTH_MEASURE( 1.000000000000000100E-005 ), #552, 'distance_accuracy_value', 'NONE');
#959 = VECTOR ( 'NONE', #412, 1000.000000000000000 ) ;
#960 =( LENGTH_UNIT ( ) NAMED_UNIT ( * ) SI_UNIT ( .MILLI., .METRE. ) );
#961 = CARTESIAN_POINT ( 'NONE',  ( -2.189999999999998600, 0.9999999999999991100, 8.500000000000000000 ) ) ;
#962 =( GEOMETRIC_REPRESENTATION_CONTEXT ( 3 ) GLOBAL_UNCERTAINTY_ASSIGNED_CONTEXT ( ( #958 ) ) GLOBAL_UNIT_ASSIGNED_CONTEXT ( ( #552, #401, #803 ) ) REPRESENTATION_CONTEXT ( 'NONE', 'WORKASPACE' ) );
#963 = SURFACE_SIDE_STYLE ('',( #15 ) ) ;
#964 = ADVANCED_FACE ( 'NONE', ( #681 ), #728, .F. ) ;
#965 = LINE ( 'NONE', #380, #479 ) ;
#966 = LINE ( 'NONE', #1002, #949 ) ;
#967 = CARTESIAN_POINT ( 'NONE',  ( 2.140000000000001000, -9.247376292520941900E-032, 6.625000000000000900 ) ) ;
#968 = ORIENTED_EDGE ( 'NONE', *, *, #504, .F. ) ;
#969 = ORIENTED_EDGE ( 'NONE', *, *, #481, .F. ) ;
#970 = PLANE ( 'NONE',  #61 ) ;
#971 = DIRECTION ( 'NONE',  ( 1.820349663882075100E-032, 1.000000000000000000, 0.0000000000000000000 ) ) ;
#972 = EDGE_CURVE ( 'NONE', #118, #634, #617, .T. ) ;
#973 = SURFACE_STYLE_USAGE ( .BOTH. , #639 ) ;
#974 = UNCERTAINTY_MEASURE_WITH_UNIT (LENGTH_MEASURE( 1.000000000000000100E-005 ), #897, 'distance_accuracy_value', 'NONE');
#975 = CARTESIAN_POINT ( 'NONE',  ( 0.3000000000000007700, -4.610000000000000300, 6.625000000000000900 ) ) ;
#976 = VECTOR ( 'NONE', #756, 1000.000000000000000 ) ;
#977 = FACE_OUTER_BOUND ( 'NONE', #258, .T. ) ;
#978 = ORIENTED_EDGE ( 'NONE', *, *, #11, .T. ) ;
#979 = LINE ( 'NONE', #410, #217 ) ;
#980 = ORIENTED_EDGE ( 'NONE', *, *, #464, .F. ) ;
#981 = VERTEX_POINT ( 'NONE', #929 ) ;
#982 = DIRECTION ( 'NONE',  ( -0.0000000000000000000, -0.0000000000000000000, -1.000000000000000000 ) ) ;
#983 = AXIS2_PLACEMENT_3D ( 'NONE', #776, #939, #227 ) ;
#984 =( NAMED_UNIT ( * ) SI_UNIT ( $, .STERADIAN. ) SOLID_ANGLE_UNIT ( ) );
#985 = MECHANICAL_DESIGN_GEOMETRIC_PRESENTATION_REPRESENTATION (  '', ( #547 ), #819 ) ;
#986 = DIRECTION ( 'NONE',  ( 0.0000000000000000000, 1.000000000000000000, 0.0000000000000000000 ) ) ;
#987 = PRESENTATION_LAYER_ASSIGNMENT (  '', '', ( #493 ) ) ;
#988 = CARTESIAN_POINT ( 'NONE',  ( -0.3999999999999993000, -4.610000000000000300, 6.625000000000000900 ) ) ;
#989 = CARTESIAN_POINT ( 'NONE',  ( 0.3000000000000007700, -4.610000000000000300, 6.625000000000000900 ) ) ;
#990 = ADVANCED_FACE ( 'NONE', ( #274 ), #746, .T. ) ;
#991 = SURFACE_STYLE_USAGE ( .BOTH. , #671 ) ;
#992 = DIRECTION ( 'NONE',  ( 0.0000000000000000000, 1.000000000000000000, 0.0000000000000000000 ) ) ;
#993 = LINE ( 'NONE', #315, #855 ) ;
#994 = DIRECTION ( 'NONE',  ( 0.0000000000000000000, 0.0000000000000000000, 1.000000000000000000 ) ) ;
#995 = CARTESIAN_POINT ( 'NONE',  ( -2.990000000000000200, 0.9999999999999991100, 8.490000000000000200 ) ) ;
#996 = VECTOR ( 'NONE', #619, 1000.000000000000000 ) ;
#997 = VERTEX_POINT ( 'NONE', #428 ) ;
#998 = ORIENTED_EDGE ( 'NONE', *, *, #352, .T. ) ;
#999 = EDGE_CURVE ( 'NONE', #821, #614, #60, .T. ) ;
#1000 = DIRECTION ( 'NONE',  ( -1.000000000000000000, 0.0000000000000000000, 0.0000000000000000000 ) ) ;
#1001 = PRESENTATION_LAYER_ASSIGNMENT (  '', '', ( #657 ) ) ;
#1002 = CARTESIAN_POINT ( 'NONE',  ( -2.239999999999999300, -4.610000000000000300, 6.375000000000000900 ) ) ;
#1003 = FACE_OUTER_BOUND ( 'NONE', #587, .T. ) ;
#1004 = FACE_OUTER_BOUND ( 'NONE', #511, .T. ) ;
#1005 =( NAMED_UNIT ( * ) PLANE_ANGLE_UNIT ( ) SI_UNIT ( $, .RADIAN. ) );
#1006 = DIRECTION ( 'NONE',  ( 0.0000000000000000000, 0.0000000000000000000, 1.000000000000000000 ) ) ;
#1007 = VERTEX_POINT ( 'NONE', #825 ) ;
#1008 = SURFACE_STYLE_USAGE ( .BOTH. , #764 ) ;
#1009 = ORIENTED_EDGE ( 'NONE', *, *, #713, .F. ) ;
#1010 = ORIENTED_EDGE ( 'NONE', *, *, #53, .F. ) ;
#1011 = CARTESIAN_POINT ( 'NONE',  ( 2.540000000000000000, -4.610000000000000300, 0.0000000000000000000 ) ) ;
#1012 = EDGE_CURVE ( 'NONE', #69, #245, #173, .T. ) ;
#1013 = DIRECTION ( 'NONE',  ( 0.0000000000000000000, 0.0000000000000000000, -1.000000000000000000 ) ) ;
ENDSEC;
END-ISO-10303-21;
