solid RMP_Front
facet normal -0.06546139576303808 0.9978551025398202 9.44925355412255e-31
  outer loop
    vertex -306.7564832154964 8.868705979673315 15.139999999999993
    vertex -306.5803505809127 8.880260651358538 14.999999999999993
    vertex -306.7564832154964 8.868705979673315 14.999999999999993
  endloop
endfacet
facet normal -0.06546139576303808 0.9978551025398202 9.44925355412255e-31
  outer loop
    vertex -306.5803505809127 8.880260651358538 14.999999999999993
    vertex -306.7564832154964 8.868705979673315 15.139999999999993
    vertex -306.5803505809127 8.880260651358538 15.139999999999993
  endloop
endfacet
facet normal -0.9403168074150883 0.3403003110382002 -2.137824228680196e-32
  outer loop
    vertex -305.9992855149651 9.42059031039194 15.139999999999993
    vertex -306.0737335792363 9.21487564060449 14.999999999999993
    vertex -306.0737335792363 9.21487564060449 15.139999999999993
  endloop
endfacet
facet normal -0.9403168074150883 0.3403003110382002 -2.137824228680196e-32
  outer loop
    vertex -306.0737335792363 9.21487564060449 14.999999999999993
    vertex -305.9992855149651 9.42059031039194 15.139999999999993
    vertex -305.9992855149651 9.42059031039194 14.999999999999993
  endloop
endfacet
facet normal 1.0 0.0 0.0
  outer loop
    vertex -304.21650345841147 9.690568327851453 14.999999999999993
    vertex -304.21650345841147 8.415264684126758 15.139999999999993
    vertex -304.21650345841147 8.415264684126758 14.999999999999993
  endloop
endfacet
facet normal 1.0 0.0 0.0
  outer loop
    vertex -304.21650345841147 8.415264684126758 15.139999999999993
    vertex -304.21650345841147 9.690568327851453 14.999999999999993
    vertex -304.21650345841147 9.690568327851453 15.139999999999993
  endloop
endfacet
facet normal -0.48614803338025786 0.8738764727583114 6.670048287066544e-31
  outer loop
    vertex -306.43327068070397 8.914924666414207 15.139999999999993
    vertex -306.2117392567414 9.038165272436474 14.999999999999993
    vertex -306.43327068070397 8.914924666414207 14.999999999999993
  endloop
endfacet
facet normal -0.48614803338025786 0.8738764727583114 6.670048287066544e-31
  outer loop
    vertex -306.2117392567414 9.038165272436474 14.999999999999993
    vertex -306.43327068070397 8.914924666414207 15.139999999999993
    vertex -306.2117392567414 9.038165272436474 15.139999999999993
  endloop
endfacet
facet normal 0.0 -1.0 0.0
  outer loop
    vertex -303.2848232964681 9.690568327851453 15.139999999999993
    vertex -304.21650345841147 9.690568327851453 14.999999999999993
    vertex -303.2848232964681 9.690568327851453 14.999999999999993
  endloop
endfacet
facet normal 0.0 -1.0 0.0
  outer loop
    vertex -304.21650345841147 9.690568327851453 14.999999999999993
    vertex -303.2848232964681 9.690568327851453 15.139999999999993
    vertex -304.21650345841147 9.690568327851453 15.139999999999993
  endloop
endfacet
facet normal 0.0 1.0 0.0
  outer loop
    vertex -304.21650345841147 10.076701931090321 15.139999999999993
    vertex -303.2848232964681 10.076701931090321 14.999999999999993
    vertex -304.21650345841147 10.076701931090321 14.999999999999993
  endloop
endfacet
facet normal 0.0 1.0 0.0
  outer loop
    vertex -303.2848232964681 10.076701931090321 14.999999999999993
    vertex -304.21650345841147 10.076701931090321 15.139999999999993
    vertex -303.2848232964681 10.076701931090321 15.139999999999993
  endloop
endfacet
facet normal 0.0 -1.0 0.0
  outer loop
    vertex -303.14782778786486 10.723210028256313 15.139999999999993
    vertex -304.24370882910983 10.723210028256313 14.999999999999993
    vertex -303.14782778786486 10.723210028256313 14.999999999999993
  endloop
endfacet
facet normal 0.0 -1.0 0.0
  outer loop
    vertex -304.24370882910983 10.723210028256313 14.999999999999993
    vertex -303.14782778786486 10.723210028256313 15.139999999999993
    vertex -304.24370882910983 10.723210028256313 15.139999999999993
  endloop
endfacet
facet normal -0.7881310293024031 0.615507498452078 3.0295611644468967e-31
  outer loop
    vertex -306.0737335792363 9.21487564060449 15.139999999999993
    vertex -306.2117392567414 9.038165272436474 14.999999999999993
    vertex -306.2117392567414 9.038165272436474 15.139999999999993
  endloop
endfacet
facet normal -0.7881310293024031 0.615507498452078 3.0295611644468967e-31
  outer loop
    vertex -306.2117392567414 9.038165272436474 14.999999999999993
    vertex -306.0737335792363 9.21487564060449 15.139999999999993
    vertex -306.0737335792363 9.21487564060449 14.999999999999993
  endloop
endfacet
facet normal 1.0 0.0 0.0
  outer loop
    vertex -303.2848232964681 10.076701931090321 14.999999999999993
    vertex -303.2848232964681 9.690568327851453 15.139999999999993
    vertex -303.2848232964681 9.690568327851453 14.999999999999993
  endloop
endfacet
facet normal 1.0 0.0 0.0
  outer loop
    vertex -303.2848232964681 9.690568327851453 15.139999999999993
    vertex -303.2848232964681 10.076701931090321 14.999999999999993
    vertex -303.2848232964681 10.076701931090321 15.139999999999993
  endloop
endfacet
facet normal 0.0 -1.0 0.0
  outer loop
    vertex -304.21650345841147 8.415264684126758 15.139999999999993
    vertex -304.8523840252131 8.415264684126758 14.999999999999993
    vertex -304.21650345841147 8.415264684126758 14.999999999999993
  endloop
endfacet
facet normal 0.0 -1.0 0.0
  outer loop
    vertex -304.8523840252131 8.415264684126758 14.999999999999993
    vertex -304.21650345841147 8.415264684126758 15.139999999999993
    vertex -304.8523840252131 8.415264684126758 15.139999999999993
  endloop
endfacet
facet normal 0.0 1.0 0.0
  outer loop
    vertex -304.91587244879605 11.135912457406109 15.139999999999993
    vertex -303.0988415150916 11.135912457406109 14.999999999999993
    vertex -304.91587244879605 11.135912457406109 14.999999999999993
  endloop
endfacet
facet normal 0.0 1.0 0.0
  outer loop
    vertex -303.0988415150916 11.135912457406109 14.999999999999993
    vertex -304.91587244879605 11.135912457406109 15.139999999999993
    vertex -303.0988415150916 11.135912457406109 15.139999999999993
  endloop
endfacet
facet normal 0.0 0.0 1.0
  outer loop
    vertex -303.2848232964681 9.690568327851453 15.139999999999993
    vertex -304.21650345841147 10.076701931090321 15.139999999999993
    vertex -304.21650345841147 9.690568327851453 15.139999999999993
  endloop
endfacet
facet normal 0.0 0.0 1.0
  outer loop
    vertex -304.21650345841147 10.076701931090321 15.139999999999993
    vertex -303.2848232964681 9.690568327851453 15.139999999999993
    vertex -303.2848232964681 10.076701931090321 15.139999999999993
  endloop
endfacet
facet normal 0.0 0.0 1.0
  outer loop
    vertex -304.21650345841147 8.415264684126758 15.139999999999993
    vertex -304.8523840252131 10.706050994855502 15.139999999999993
    vertex -304.8523840252131 8.415264684126758 15.139999999999993
  endloop
endfacet
facet normal 0.0 0.0 1.0
  outer loop
    vertex -304.8523840252131 10.706050994855502 15.139999999999993
    vertex -304.21650345841147 8.415264684126758 15.139999999999993
    vertex -304.24370882910983 10.723210028256313 15.139999999999993
  endloop
endfacet
facet normal 0.0 0.0 1.0
  outer loop
    vertex -304.24370882910983 10.723210028256313 15.139999999999993
    vertex -304.21650345841147 8.415264684126758 15.139999999999993
    vertex -304.21650345841147 10.472605113023517 15.139999999999993
  endloop
endfacet
facet normal 0.0 0.0 1.0
  outer loop
    vertex -304.21650345841147 10.472605113023517 15.139999999999993
    vertex -304.21650345841147 8.415264684126758 15.139999999999993
    vertex -304.21650345841147 9.690568327851453 15.139999999999993
  endloop
endfacet
facet normal 0.0 0.0 1.0
  outer loop
    vertex -304.21650345841147 10.472605113023517 15.139999999999993
    vertex -304.21650345841147 9.690568327851453 15.139999999999993
    vertex -304.21650345841147 10.076701931090321 15.139999999999993
  endloop
endfacet
facet normal 0.0 0.0 1.0
  outer loop
    vertex -304.8523840252131 10.706050994855502 15.139999999999993
    vertex -303.0988415150916 11.135912457406109 15.139999999999993
    vertex -304.91587244879605 11.135912457406109 15.139999999999993
  endloop
endfacet
facet normal 0.0 0.0 1.0
  outer loop
    vertex -303.0988415150916 11.135912457406109 15.139999999999993
    vertex -304.8523840252131 10.706050994855502 15.139999999999993
    vertex -304.24370882910983 10.723210028256313 15.139999999999993
  endloop
endfacet
facet normal 0.0 0.0 1.0
  outer loop
    vertex -303.0988415150916 11.135912457406109 15.139999999999993
    vertex -304.24370882910983 10.723210028256313 15.139999999999993
    vertex -303.14782778786486 10.723210028256313 15.139999999999993
  endloop
endfacet
facet normal 1.0 0.0 0.0
  outer loop
    vertex -304.21650345841147 10.472605113023517 14.999999999999993
    vertex -304.21650345841147 10.076701931090321 15.139999999999993
    vertex -304.21650345841147 10.076701931090321 14.999999999999993
  endloop
endfacet
facet normal 1.0 0.0 0.0
  outer loop
    vertex -304.21650345841147 10.076701931090321 15.139999999999993
    vertex -304.21650345841147 10.472605113023517 14.999999999999993
    vertex -304.21650345841147 10.472605113023517 15.139999999999993
  endloop
endfacet
facet normal 0.9941590688690845 0.10792472277173214 0.0
  outer loop
    vertex -304.24370882910983 10.723210028256313 14.999999999999993
    vertex -304.21650345841147 10.472605113023517 15.139999999999993
    vertex -304.21650345841147 10.472605113023517 14.999999999999993
  endloop
endfacet
facet normal 0.9941590688690845 0.10792472277173214 0.0
  outer loop
    vertex -304.21650345841147 10.472605113023517 15.139999999999993
    vertex -304.24370882910983 10.723210028256313 14.999999999999993
    vertex -304.24370882910983 10.723210028256313 15.139999999999993
  endloop
endfacet
facet normal 0.9930291603428015 -0.11786893869408864 0.0
  outer loop
    vertex -303.0988415150916 11.135912457406109 14.999999999999993
    vertex -303.14782778786486 10.723210028256313 15.139999999999993
    vertex -303.14782778786486 10.723210028256313 14.999999999999993
  endloop
endfacet
facet normal 0.9930291603428015 -0.11786893869408864 0.0
  outer loop
    vertex -303.14782778786486 10.723210028256313 15.139999999999993
    vertex -303.0988415150916 11.135912457406109 14.999999999999993
    vertex -303.0988415150916 11.135912457406109 15.139999999999993
  endloop
endfacet
facet normal -0.9892683397932422 -0.14611006769802848 0.0
  outer loop
    vertex -304.91587244879605 11.135912457406109 15.139999999999993
    vertex -304.8523840252131 10.706050994855502 14.999999999999993
    vertex -304.8523840252131 10.706050994855502 15.139999999999993
  endloop
endfacet
facet normal -0.9892683397932422 -0.14611006769802848 0.0
  outer loop
    vertex -304.8523840252131 10.706050994855502 14.999999999999993
    vertex -304.91587244879605 11.135912457406109 15.139999999999993
    vertex -304.91587244879605 11.135912457406109 14.999999999999993
  endloop
endfacet
facet normal -0.2293966128476393 0.9733330334546497 8.597367379873739e-31
  outer loop
    vertex -306.5803505809127 8.880260651358538 15.139999999999993
    vertex -306.43327068070397 8.914924666414207 14.999999999999993
    vertex -306.5803505809127 8.880260651358538 14.999999999999993
  endloop
endfacet
facet normal -0.2293966128476393 0.9733330334546497 8.597367379873739e-31
  outer loop
    vertex -306.43327068070397 8.914924666414207 14.999999999999993
    vertex -306.5803505809127 8.880260651358538 15.139999999999993
    vertex -306.43327068070397 8.914924666414207 15.139999999999993
  endloop
endfacet
facet normal -1.0 0.0 0.0
  outer loop
    vertex -304.8523840252131 10.706050994855502 15.139999999999993
    vertex -304.8523840252131 8.415264684126758 14.999999999999993
    vertex -304.8523840252131 8.415264684126758 15.139999999999993
  endloop
endfacet
facet normal -1.0 0.0 0.0
  outer loop
    vertex -304.8523840252131 8.415264684126758 14.999999999999993
    vertex -304.8523840252131 10.706050994855502 15.139999999999993
    vertex -304.8523840252131 10.706050994855502 14.999999999999993
  endloop
endfacet
facet normal -0.07491179866096434 0.9971901636204497 9.40741833185811e-31
  outer loop
    vertex -307.45405327496 11.135912457406109 15.139999999999993
    vertex -307.2654284489226 11.15008249789194 14.999999999999993
    vertex -307.45405327496 11.135912457406109 14.999999999999993
  endloop
endfacet
facet normal -0.07491179866096434 0.9971901636204497 9.40741833185811e-31
  outer loop
    vertex -307.2654284489226 11.15008249789194 14.999999999999993
    vertex -307.45405327496 11.135912457406109 15.139999999999993
    vertex -307.2654284489226 11.15008249789194 15.139999999999993
  endloop
endfacet
facet normal 0.09514826425297415 -0.9954631122295021 -9.314889581325527e-31
  outer loop
    vertex -306.3842013803497 8.450620595690523 15.139999999999993
    vertex -306.7541030915086 8.415264684126758 14.999999999999993
    vertex -306.3842013803497 8.450620595690523 14.999999999999993
  endloop
endfacet
facet normal 0.09514826425297415 -0.9954631122295021 -9.314889581325527e-31
  outer loop
    vertex -306.7541030915086 8.415264684126758 14.999999999999993
    vertex -306.3842013803497 8.450620595690523 15.139999999999993
    vertex -306.7541030915086 8.415264684126758 15.139999999999993
  endloop
endfacet
facet normal -0.9899431460612359 -0.14146578231637047 -5.079966672240707e-31
  outer loop
    vertex -307.45405327496 11.135912457406109 15.139999999999993
    vertex -307.3923637822981 10.704224388074126 14.999999999999993
    vertex -307.3923637822981 10.704224388074126 15.139999999999993
  endloop
endfacet
facet normal -0.9899431460612359 -0.14146578231637047 -5.079966672240707e-31
  outer loop
    vertex -307.3923637822981 10.704224388074126 14.999999999999993
    vertex -307.45405327496 11.135912457406109 15.139999999999993
    vertex -307.45405327496 11.135912457406109 14.999999999999993
  endloop
endfacet
facet normal -1.0 0.0 -3.7432535445470285e-31
  outer loop
    vertex -307.3923637822981 10.704224388074126 15.139999999999993
    vertex -307.3923637822981 8.415264684126758 14.999999999999993
    vertex -307.3923637822981 8.415264684126758 15.139999999999993
  endloop
endfacet
facet normal -1.0 0.0 -3.7432535445470285e-31
  outer loop
    vertex -307.3923637822981 8.415264684126758 14.999999999999993
    vertex -307.3923637822981 10.704224388074126 15.139999999999993
    vertex -307.3923637822981 10.704224388074126 14.999999999999993
  endloop
endfacet
facet normal -3.743253544547028e-31 -9.715130113749837e-31 1.0
  outer loop
    vertex -306.7564832154964 10.447309376687487 15.139999999999993
    vertex -306.79459287516244 10.739095972082225 15.139999999999993
    vertex -306.7564832154964 8.868705979673315 15.139999999999993
  endloop
endfacet
facet normal -3.743253544547028e-31 -9.715130113749837e-31 1.0
  outer loop
    vertex -306.7541030915086 8.415264684126758 15.139999999999993
    vertex -307.3923637822981 10.704224388074126 15.139999999999993
    vertex -307.3923637822981 8.415264684126758 15.139999999999993
  endloop
endfacet
facet normal -3.743253544547028e-31 -9.715130113749837e-31 1.0
  outer loop
    vertex -307.3923637822981 10.704224388074126 15.139999999999993
    vertex -306.7541030915086 8.415264684126758 15.139999999999993
    vertex -307.2654284489226 11.15008249789194 15.139999999999993
  endloop
endfacet
facet normal -3.743253544547028e-31 -9.715130113749837e-31 1.0
  outer loop
    vertex -307.2654284489226 11.15008249789194 15.139999999999993
    vertex -306.7541030915086 8.415264684126758 15.139999999999993
    vertex -307.0686945958102 11.158938773195585 15.139999999999993
  endloop
endfacet
facet normal -3.743253544547028e-31 -9.715130113749837e-31 1.0
  outer loop
    vertex -307.0686945958102 11.158938773195585 15.139999999999993
    vertex -306.7541030915086 8.415264684126758 15.139999999999993
    vertex -306.8855634280471 11.164252538377768 15.139999999999993
  endloop
endfacet
facet normal -3.743253544547028e-31 -9.715130113749837e-31 1.0
  outer loop
    vertex -306.8855634280471 11.164252538377768 15.139999999999993
    vertex -306.7541030915086 8.415264684126758 15.139999999999993
    vertex -306.79459287516244 10.739095972082225 15.139999999999993
  endloop
endfacet
facet normal -3.743253544547028e-31 -9.715130113749837e-31 1.0
  outer loop
    vertex -306.79459287516244 10.739095972082225 15.139999999999993
    vertex -306.7541030915086 8.415264684126758 15.139999999999993
    vertex -306.7564832154964 8.868705979673315 15.139999999999993
  endloop
endfacet
facet normal -3.743253544547028e-31 -9.715130113749837e-31 1.0
  outer loop
    vertex -306.7564832154964 8.868705979673315 15.139999999999993
    vertex -306.7541030915086 8.415264684126758 15.139999999999993
    vertex -306.5803505809127 8.880260651358538 15.139999999999993
  endloop
endfacet
facet normal -3.743253544547028e-31 -9.715130113749837e-31 1.0
  outer loop
    vertex -306.5803505809127 8.880260651358538 15.139999999999993
    vertex -306.7541030915086 8.415264684126758 15.139999999999993
    vertex -306.3842013803497 8.450620595690523 15.139999999999993
  endloop
endfacet
facet normal -3.743253544547028e-31 -9.715130113749837e-31 1.0
  outer loop
    vertex -306.5803505809127 8.880260651358538 15.139999999999993
    vertex -306.3842013803497 8.450620595690523 15.139999999999993
    vertex -306.43327068070397 8.914924666414207 15.139999999999993
  endloop
endfacet
facet normal -3.743253544547028e-31 -9.715130113749837e-31 1.0
  outer loop
    vertex -306.43327068070397 8.914924666414207 15.139999999999993
    vertex -306.3842013803497 8.450620595690523 15.139999999999993
    vertex -306.2117392567414 9.038165272436474 15.139999999999993
  endloop
endfacet
facet normal -3.743253544547028e-31 -9.715130113749837e-31 1.0
  outer loop
    vertex -306.2117392567414 9.038165272436474 15.139999999999993
    vertex -306.3842013803497 8.450620595690523 15.139999999999993
    vertex -306.04603004305216 8.560327706014409 15.139999999999993
  endloop
endfacet
facet normal -3.743253544547028e-31 -9.715130113749837e-31 1.0
  outer loop
    vertex -306.2117392567414 9.038165272436474 15.139999999999993
    vertex -306.04603004305216 8.560327706014409 15.139999999999993
    vertex -306.0737335792363 9.21487564060449 15.139999999999993
  endloop
endfacet
facet normal -3.743253544547028e-31 -9.715130113749837e-31 1.0
  outer loop
    vertex -306.0737335792363 9.21487564060449 15.139999999999993
    vertex -306.04603004305216 8.560327706014409 15.139999999999993
    vertex -305.9992855149651 9.42059031039194 15.139999999999993
  endloop
endfacet
facet normal -3.743253544547028e-31 -9.715130113749837e-31 1.0
  outer loop
    vertex -305.9992855149651 9.42059031039194 15.139999999999993
    vertex -306.04603004305216 8.560327706014409 15.139999999999993
    vertex -305.7550045338163 8.751637090503277 15.139999999999993
  endloop
endfacet
facet normal -3.743253544547028e-31 -9.715130113749837e-31 1.0
  outer loop
    vertex -305.9992855149651 9.42059031039194 15.139999999999993
    vertex -305.7550045338163 8.751637090503277 15.139999999999993
    vertex -305.9684130927738 9.63172944880287 15.139999999999993
  endloop
endfacet
facet normal -3.743253544547028e-31 -9.715130113749837e-31 1.0
  outer loop
    vertex -305.9684130927738 9.63172944880287 15.139999999999993
    vertex -305.7550045338163 8.751637090503277 15.139999999999993
    vertex -305.96296094829 9.825654202092345 15.139999999999993
  endloop
endfacet
facet normal -3.743253544547028e-31 -9.715130113749837e-31 1.0
  outer loop
    vertex -305.96296094829 9.825654202092345 15.139999999999993
    vertex -305.7550045338163 8.751637090503277 15.139999999999993
    vertex -305.93565871208045 10.998522567793255 15.139999999999993
  endloop
endfacet
facet normal -3.743253544547028e-31 -9.715130113749837e-31 1.0
  outer loop
    vertex -305.93565871208045 10.998522567793255 15.139999999999993
    vertex -305.7550045338163 8.751637090503277 15.139999999999993
    vertex -305.72962576989926 10.863208367704694 15.139999999999993
  endloop
endfacet
facet normal -3.743253544547028e-31 -9.715130113749837e-31 1.0
  outer loop
    vertex -305.72962576989926 10.863208367704694 15.139999999999993
    vertex -305.7550045338163 8.751637090503277 15.139999999999993
    vertex -305.63192652347345 8.879928541034653 15.139999999999993
  endloop
endfacet
facet normal -3.743253544547028e-31 -9.715130113749837e-31 1.0
  outer loop
    vertex -305.72962576989926 10.863208367704694 15.139999999999993
    vertex -305.63192652347345 8.879928541034653 15.139999999999993
    vertex -305.56144302619356 10.685280261682427 15.139999999999993
  endloop
endfacet
facet normal -3.743253544547028e-31 -9.715130113749837e-31 1.0
  outer loop
    vertex -305.56144302619356 10.685280261682427 15.139999999999993
    vertex -305.63192652347345 8.879928541034653 15.139999999999993
    vertex -305.5274397723031 9.030886521171292 15.139999999999993
  endloop
endfacet
facet normal -3.743253544547028e-31 -9.715130113749837e-31 1.0
  outer loop
    vertex -305.56144302619356 10.685280261682427 15.139999999999993
    vertex -305.5274397723031 9.030886521171292 15.139999999999993
    vertex -305.43406141957036 10.463375213605504 15.139999999999993
  endloop
endfacet
facet normal -3.743253544547028e-31 -9.715130113749837e-31 1.0
  outer loop
    vertex -305.43406141957036 10.463375213605504 15.139999999999993
    vertex -305.5274397723031 9.030886521171292 15.139999999999993
    vertex -305.4429003974613 9.205413955856262 15.139999999999993
  endloop
endfacet
facet normal -3.743253544547028e-31 -9.715130113749837e-31 1.0
  outer loop
    vertex -305.43406141957036 10.463375213605504 15.139999999999993
    vertex -305.4429003974613 9.205413955856262 15.139999999999993
    vertex -305.37966451610373 9.404413770032628 15.139999999999993
  endloop
endfacet
facet normal -3.743253544547028e-31 -9.715130113749837e-31 1.0
  outer loop
    vertex -305.43406141957036 10.463375213605504 15.139999999999993
    vertex -305.37966451610373 9.404413770032628 15.139999999999993
    vertex -305.3538256410089 10.195234181374985 15.139999999999993
  endloop
endfacet
facet normal -3.743253544547028e-31 -9.715130113749837e-31 1.0
  outer loop
    vertex -305.3538256410089 10.195234181374985 15.139999999999993
    vertex -305.37966451610373 9.404413770032628 15.139999999999993
    vertex -305.3402264151422 9.62857786020849 15.139999999999993
  endloop
endfacet
facet normal -3.743253544547028e-31 -9.715130113749837e-31 1.0
  outer loop
    vertex -305.3538256410089 10.195234181374985 15.139999999999993
    vertex -305.3402264151422 9.62857786020849 15.139999999999993
    vertex -305.3270803814884 9.87859812289194 15.139999999999993
  endloop
endfacet
facet normal -3.743253544547028e-31 -9.715130113749837e-31 1.0
  outer loop
    vertex -306.79459287516244 10.739095972082225 15.139999999999993
    vertex -306.7396009406989 11.166023793438502 15.139999999999993
    vertex -306.8855634280471 11.164252538377768 15.139999999999993
  endloop
endfacet
facet normal -3.743253544547028e-31 -9.715130113749837e-31 1.0
  outer loop
    vertex -306.7396009406989 11.166023793438502 15.139999999999993
    vertex -306.79459287516244 10.739095972082225 15.139999999999993
    vertex -306.7546566087151 10.7409225788636 15.139999999999993
  endloop
endfacet
facet normal -3.743253544547028e-31 -9.715130113749837e-31 1.0
  outer loop
    vertex -306.7396009406989 11.166023793438502 15.139999999999993
    vertex -306.7546566087151 10.7409225788636 15.139999999999993
    vertex -306.532225719292 10.724382792837536 15.139999999999993
  endloop
endfacet
facet normal -3.743253544547028e-31 -9.715130113749837e-31 1.0
  outer loop
    vertex -306.7396009406989 11.166023793438502 15.139999999999993
    vertex -306.532225719292 10.724382792837536 15.139999999999993
    vertex -306.44653433676416 11.147664319596142 15.139999999999993
  endloop
endfacet
facet normal -3.743253544547028e-31 -9.715130113749837e-31 1.0
  outer loop
    vertex -306.44653433676416 11.147664319596142 15.139999999999993
    vertex -306.532225719292 10.724382792837536 15.139999999999993
    vertex -306.3551832408001 10.67476343475935 15.139999999999993
  endloop
endfacet
facet normal -3.743253544547028e-31 -9.715130113749837e-31 1.0
  outer loop
    vertex -306.44653433676416 11.147664319596142 15.139999999999993
    vertex -306.3551832408001 10.67476343475935 15.139999999999993
    vertex -306.1765909141301 11.092585898069066 15.139999999999993
  endloop
endfacet
facet normal -3.743253544547028e-31 -9.715130113749837e-31 1.0
  outer loop
    vertex -306.1765909141301 11.092585898069066 15.139999999999993
    vertex -306.3551832408001 10.67476343475935 15.139999999999993
    vertex -306.21763075550786 10.5947871173884 15.139999999999993
  endloop
endfacet
facet normal -3.743253544547028e-31 -9.715130113749837e-31 1.0
  outer loop
    vertex -306.1765909141301 11.092585898069066 15.139999999999993
    vertex -306.21763075550786 10.5947871173884 15.139999999999993
    vertex -306.1136698456837 10.487176453484045 15.139999999999993
  endloop
endfacet
facet normal -3.743253544547028e-31 -9.715130113749837e-31 1.0
  outer loop
    vertex -306.1765909141301 11.092585898069066 15.139999999999993
    vertex -306.1136698456837 10.487176453484045 15.139999999999993
    vertex -305.93565871208045 10.998522567793255 15.139999999999993
  endloop
endfacet
facet normal -3.743253544547028e-31 -9.715130113749837e-31 1.0
  outer loop
    vertex -305.93565871208045 10.998522567793255 15.139999999999993
    vertex -306.1136698456837 10.487176453484045 15.139999999999993
    vertex -306.0403530322032 10.353969078262638 15.139999999999993
  endloop
endfacet
facet normal -3.743253544547028e-31 -9.715130113749837e-31 1.0
  outer loop
    vertex -305.93565871208045 10.998522567793255 15.139999999999993
    vertex -306.0403530322032 10.353969078262638 15.139999999999993
    vertex -305.9947328359418 10.197202626940523 15.139999999999993
  endloop
endfacet
facet normal -3.743253544547028e-31 -9.715130113749837e-31 1.0
  outer loop
    vertex -305.93565871208045 10.998522567793255 15.139999999999993
    vertex -305.9947328359418 10.197202626940523 15.139999999999993
    vertex -305.96296094829 9.825654202092345 15.139999999999993
  endloop
endfacet
facet normal -3.743253544547028e-31 -9.715130113749837e-31 1.0
  outer loop
    vertex -307.2654284489226 11.15008249789194 15.139999999999993
    vertex -307.45405327496 11.135912457406109 15.139999999999993
    vertex -307.3923637822981 10.704224388074126 15.139999999999993
  endloop
endfacet
facet normal 0.0 -1.0 -9.715130113749837e-31
  outer loop
    vertex -306.7541030915086 8.415264684126758 15.139999999999993
    vertex -307.3923637822981 8.415264684126758 14.999999999999993
    vertex -306.7541030915086 8.415264684126758 14.999999999999993
  endloop
endfacet
facet normal 0.0 -1.0 -9.715130113749837e-31
  outer loop
    vertex -307.3923637822981 8.415264684126758 14.999999999999993
    vertex -306.7541030915086 8.415264684126758 15.139999999999993
    vertex -307.3923637822981 8.415264684126758 15.139999999999993
  endloop
endfacet
facet normal 0.30858084497955196 -0.9511981192746891 -8.085917150958719e-31
  outer loop
    vertex -306.04603004305216 8.560327706014409 15.139999999999993
    vertex -306.3842013803497 8.450620595690523 14.999999999999993
    vertex -306.04603004305216 8.560327706014409 14.999999999999993
  endloop
endfacet
facet normal 0.30858084497955196 -0.9511981192746891 -8.085917150958719e-31
  outer loop
    vertex -306.3842013803497 8.450620595690523 14.999999999999993
    vertex -306.04603004305216 8.560327706014409 15.139999999999993
    vertex -306.3842013803497 8.450620595690523 15.139999999999993
  endloop
endfacet
facet normal -0.9601699771914237 -0.2794165616068975 -6.308727922437042e-31
  outer loop
    vertex -306.0403530322032 10.353969078262638 15.139999999999993
    vertex -305.9947328359418 10.197202626940523 14.999999999999993
    vertex -305.9947328359418 10.197202626940523 15.139999999999993
  endloop
endfacet
facet normal -0.9601699771914237 -0.2794165616068975 -6.308727922437042e-31
  outer loop
    vertex -305.9947328359418 10.197202626940523 14.999999999999993
    vertex -306.0403530322032 10.353969078262638 15.139999999999993
    vertex -306.0403530322032 10.353969078262638 14.999999999999993
  endloop
endfacet
facet normal -0.9963637698616502 -0.08520116259230576 -4.557382593619867e-31
  outer loop
    vertex -305.9947328359418 10.197202626940523 15.139999999999993
    vertex -305.96296094829 9.825654202092345 14.999999999999993
    vertex -305.96296094829 9.825654202092345 15.139999999999993
  endloop
endfacet
facet normal -0.9963637698616502 -0.08520116259230576 -4.557382593619867e-31
  outer loop
    vertex -305.96296094829 9.825654202092345 14.999999999999993
    vertex -305.9947328359418 10.197202626940523 15.139999999999993
    vertex -305.9947328359418 10.197202626940523 14.999999999999993
  endloop
endfacet
facet normal 0.89997596525637 -0.43593951640206374 -8.6637090161819e-32
  outer loop
    vertex -305.4429003974613 9.205413955856262 14.999999999999993
    vertex -305.5274397723031 9.030886521171292 15.139999999999993
    vertex -305.5274397723031 9.030886521171292 14.999999999999993
  endloop
endfacet
facet normal 0.89997596525637 -0.43593951640206374 -8.6637090161819e-32
  outer loop
    vertex -305.5274397723031 9.030886521171292 15.139999999999993
    vertex -305.4429003974613 9.205413955856262 14.999999999999993
    vertex -305.4429003974613 9.205413955856262 15.139999999999993
  endloop
endfacet
facet normal 0.9580291393178253 0.2866708360087348 6.3711904431730885e-31
  outer loop
    vertex -305.43406141957036 10.463375213605504 14.999999999999993
    vertex -305.3538256410089 10.195234181374985 15.139999999999993
    vertex -305.3538256410089 10.195234181374985 14.999999999999993
  endloop
endfacet
facet normal 0.9580291393178253 0.2866708360087348 6.3711904431730885e-31
  outer loop
    vertex -305.3538256410089 10.195234181374985 15.139999999999993
    vertex -305.43406141957036 10.463375213605504 14.999999999999993
    vertex -305.43406141957036 10.463375213605504 15.139999999999993
  endloop
endfacet
facet normal 0.998620538110532 -0.05250734104705589 3.227974218740524e-31
  outer loop
    vertex -305.3270803814884 9.87859812289194 14.999999999999993
    vertex -305.3402264151422 9.62857786020849 15.139999999999993
    vertex -305.3402264151422 9.62857786020849 14.999999999999993
  endloop
endfacet
facet normal 0.998620538110532 -0.05250734104705589 3.227974218740524e-31
  outer loop
    vertex -305.3402264151422 9.62857786020849 15.139999999999993
    vertex -305.3270803814884 9.87859812289194 14.999999999999993
    vertex -305.3270803814884 9.87859812289194 15.139999999999993
  endloop
endfacet
facet normal 0.9964516491493562 0.08416716050531929 4.547666083262102e-31
  outer loop
    vertex -305.3538256410089 10.195234181374985 14.999999999999993
    vertex -305.3270803814884 9.87859812289194 15.139999999999993
    vertex -305.3270803814884 9.87859812289194 14.999999999999993
  endloop
endfacet
facet normal 0.9964516491493562 0.08416716050531929 4.547666083262102e-31
  outer loop
    vertex -305.3270803814884 9.87859812289194 15.139999999999993
    vertex -305.3538256410089 10.195234181374985 14.999999999999993
    vertex -305.3538256410089 10.195234181374985 15.139999999999993
  endloop
endfacet
facet normal 0.7216170950324361 -0.6922924007649862 -4.0245150014061935e-31
  outer loop
    vertex -305.63192652347345 8.879928541034653 14.999999999999993
    vertex -305.7550045338163 8.751637090503277 15.139999999999993
    vertex -305.7550045338163 8.751637090503277 14.999999999999993
  endloop
endfacet
facet normal 0.7216170950324361 -0.6922924007649862 -4.0245150014061935e-31
  outer loop
    vertex -305.7550045338163 8.751637090503277 15.139999999999993
    vertex -305.63192652347345 8.879928541034653 14.999999999999993
    vertex -305.63192652347345 8.879928541034653 15.139999999999993
  endloop
endfacet
facet normal 0.5493063209524235 -0.8356210658915398 -6.061974547979389e-31
  outer loop
    vertex -305.7550045338163 8.751637090503277 15.139999999999993
    vertex -306.04603004305216 8.560327706014409 14.999999999999993
    vertex -305.7550045338163 8.751637090503277 14.999999999999993
  endloop
endfacet
facet normal 0.5493063209524235 -0.8356210658915398 -6.061974547979389e-31
  outer loop
    vertex -306.04603004305216 8.560327706014409 14.999999999999993
    vertex -305.7550045338163 8.751637090503277 15.139999999999993
    vertex -306.04603004305216 8.560327706014409 15.139999999999993
  endloop
endfacet
facet normal 0.8222498481763305 -0.5691266881582707 -2.4512501679758235e-31
  outer loop
    vertex -305.5274397723031 9.030886521171292 14.999999999999993
    vertex -305.63192652347345 8.879928541034653 15.139999999999993
    vertex -305.63192652347345 8.879928541034653 14.999999999999993
  endloop
endfacet
facet normal 0.8222498481763305 -0.5691266881582707 -2.4512501679758235e-31
  outer loop
    vertex -305.63192652347345 8.879928541034653 15.139999999999993
    vertex -305.5274397723031 9.030886521171292 14.999999999999993
    vertex -305.5274397723031 9.030886521171292 15.139999999999993
  endloop
endfacet
facet normal 0.9530395127993028 -0.30284597907726574 6.252804432177652e-32
  outer loop
    vertex -305.37966451610373 9.404413770032628 14.999999999999993
    vertex -305.4429003974613 9.205413955856262 15.139999999999993
    vertex -305.4429003974613 9.205413955856262 14.999999999999993
  endloop
endfacet
facet normal 0.9530395127993028 -0.30284597907726574 6.252804432177652e-32
  outer loop
    vertex -305.4429003974613 9.205413955856262 15.139999999999993
    vertex -305.37966451610373 9.404413770032628 14.999999999999993
    vertex -305.37966451610373 9.404413770032628 15.139999999999993
  endloop
endfacet
facet normal 0.9848738566667011 -0.17327286704633907 2.00326410636167e-31
  outer loop
    vertex -305.3402264151422 9.62857786020849 14.999999999999993
    vertex -305.37966451610373 9.404413770032628 15.139999999999993
    vertex -305.37966451610373 9.404413770032628 14.999999999999993
  endloop
endfacet
facet normal 0.9848738566667011 -0.17327286704633907 2.00326410636167e-31
  outer loop
    vertex -305.37966451610373 9.404413770032628 15.139999999999993
    vertex -305.3402264151422 9.62857786020849 14.999999999999993
    vertex -305.3402264151422 9.62857786020849 15.139999999999993
  endloop
endfacet
facet normal 0.8672671506884474 0.49784303684669723 8.083010715073751e-31
  outer loop
    vertex -305.56144302619356 10.685280261682427 14.999999999999993
    vertex -305.43406141957036 10.463375213605504 15.139999999999993
    vertex -305.43406141957036 10.463375213605504 14.999999999999993
  endloop
endfacet
facet normal 0.8672671506884474 0.49784303684669723 8.083010715073751e-31
  outer loop
    vertex -305.43406141957036 10.463375213605504 15.139999999999993
    vertex -305.56144302619356 10.685280261682427 14.999999999999993
    vertex -305.56144302619356 10.685280261682427 15.139999999999993
  endloop
endfacet
facet normal 0.726728602176102 0.6869246965855638 9.393892221696282e-31
  outer loop
    vertex -305.72962576989926 10.863208367704694 14.999999999999993
    vertex -305.56144302619356 10.685280261682427 15.139999999999993
    vertex -305.56144302619356 10.685280261682427 14.999999999999993
  endloop
endfacet
facet normal 0.726728602176102 0.6869246965855638 9.393892221696282e-31
  outer loop
    vertex -305.56144302619356 10.685280261682427 15.139999999999993
    vertex -305.72962576989926 10.863208367704694 14.999999999999993
    vertex -305.72962576989926 10.863208367704694 15.139999999999993
  endloop
endfacet
facet normal 0.9770549630280957 -0.2129873217404427 0.0
  outer loop
    vertex -308.83582595335076 10.21007190199113 14.999999999999993
    vertex -308.9718528068426 9.58606427926846 15.139999999999993
    vertex -308.9718528068426 9.58606427926846 14.999999999999993
  endloop
endfacet
facet normal 0.9770549630280957 -0.2129873217404427 0.0
  outer loop
    vertex -308.9718528068426 9.58606427926846 15.139999999999993
    vertex -308.83582595335076 10.21007190199113 14.999999999999993
    vertex -308.83582595335076 10.21007190199113 15.139999999999993
  endloop
endfacet
facet normal -0.07415448532206707 -0.997246766004593 -9.965961127276748e-31
  outer loop
    vertex -306.532225719292 10.724382792837536 15.139999999999993
    vertex -306.7546566087151 10.7409225788636 14.999999999999993
    vertex -306.532225719292 10.724382792837536 14.999999999999993
  endloop
endfacet
facet normal -0.07415448532206707 -0.997246766004593 -9.965961127276748e-31
  outer loop
    vertex -306.7546566087151 10.7409225788636 14.999999999999993
    vertex -306.532225719292 10.724382792837536 15.139999999999993
    vertex -306.7546566087151 10.7409225788636 15.139999999999993
  endloop
endfacet
facet normal -0.5026389742641229 -0.864496420785367 -1.028020033284253e-30
  outer loop
    vertex -306.21763075550786 10.5947871173884 15.139999999999993
    vertex -306.3551832408001 10.67476343475935 14.999999999999993
    vertex -306.21763075550786 10.5947871173884 14.999999999999993
  endloop
endfacet
facet normal -0.5026389742641229 -0.864496420785367 -1.028020033284253e-30
  outer loop
    vertex -306.3551832408001 10.67476343475935 14.999999999999993
    vertex -306.21763075550786 10.5947871173884 15.139999999999993
    vertex -306.3551832408001 10.67476343475935 15.139999999999993
  endloop
endfacet
facet normal -0.9715640134819038 -0.23677704218723417 0.0
  outer loop
    vertex -308.4585763012758 9.189303145665217 15.139999999999993
    vertex -308.2699376373082 8.415264684126758 14.999999999999993
    vertex -308.2699376373082 8.415264684126758 15.139999999999993
  endloop
endfacet
facet normal -0.9715640134819038 -0.23677704218723417 0.0
  outer loop
    vertex -308.2699376373082 8.415264684126758 14.999999999999993
    vertex -308.4585763012758 9.189303145665217 15.139999999999993
    vertex -308.4585763012758 9.189303145665217 14.999999999999993
  endloop
endfacet
facet normal -0.7191978522172899 -0.6948053319930967 -9.442264113583067e-31
  outer loop
    vertex -306.21763075550786 10.5947871173884 15.139999999999993
    vertex -306.1136698456837 10.487176453484045 14.999999999999993
    vertex -306.1136698456837 10.487176453484045 15.139999999999993
  endloop
endfacet
facet normal -0.7191978522172899 -0.6948053319930967 -9.442264113583067e-31
  outer loop
    vertex -306.1136698456837 10.487176453484045 14.999999999999993
    vertex -306.21763075550786 10.5947871173884 15.139999999999993
    vertex -306.21763075550786 10.5947871173884 14.999999999999993
  endloop
endfacet
facet normal 0.04569027938627804 -0.9989556538553671 -9.533953854806907e-31
  outer loop
    vertex -306.7546566087151 10.7409225788636 15.139999999999993
    vertex -306.79459287516244 10.739095972082225 14.999999999999993
    vertex -306.7546566087151 10.7409225788636 14.999999999999993
  endloop
endfacet
facet normal 0.04569027938627804 -0.9989556538553671 -9.533953854806907e-31
  outer loop
    vertex -306.79459287516244 10.739095972082225 14.999999999999993
    vertex -306.7546566087151 10.7409225788636 15.139999999999993
    vertex -306.79459287516244 10.739095972082225 15.139999999999993
  endloop
endfacet
facet normal 0.0 0.0 1.0
  outer loop
    vertex -308.4585763012758 9.189303145665217 15.139999999999993
    vertex -308.9718528068426 9.58606427926846 15.139999999999993
    vertex -309.0788753587151 9.189303145665217 15.139999999999993
  endloop
endfacet
facet normal 0.0 0.0 1.0
  outer loop
    vertex -308.9718528068426 9.58606427926846 15.139999999999993
    vertex -308.4585763012758 9.189303145665217 15.139999999999993
    vertex -308.56557117728795 9.58606427926846 15.139999999999993
  endloop
endfacet
facet normal 0.0 0.0 1.0
  outer loop
    vertex -309.2620618781989 8.415264684126758 15.139999999999993
    vertex -309.19721733746 10.74341340629275 15.139999999999993
    vertex -309.84126228305723 8.415264684126758 15.139999999999993
  endloop
endfacet
facet normal 0.0 0.0 1.0
  outer loop
    vertex -309.19721733746 10.74341340629275 15.139999999999993
    vertex -309.2620618781989 8.415264684126758 15.139999999999993
    vertex -309.0788753587151 9.189303145665217 15.139999999999993
  endloop
endfacet
facet normal 0.0 0.0 1.0
  outer loop
    vertex -309.19721733746 10.74341340629275 15.139999999999993
    vertex -309.0788753587151 9.189303145665217 15.139999999999993
    vertex -309.1319023070957 11.135082181596395 15.139999999999993
  endloop
endfacet
facet normal 0.0 0.0 1.0
  outer loop
    vertex -309.1319023070957 11.135082181596395 15.139999999999993
    vertex -309.0788753587151 9.189303145665217 15.139999999999993
    vertex -308.76508645436286 10.82865505609032 15.139999999999993
  endloop
endfacet
facet normal 0.0 0.0 1.0
  outer loop
    vertex -309.1319023070957 11.135082181596395 15.139999999999993
    vertex -308.76508645436286 10.82865505609032 15.139999999999993
    vertex -308.44609448826975 11.171337558620685 15.139999999999993
  endloop
endfacet
facet normal 0.0 0.0 1.0
  outer loop
    vertex -308.76508645436286 10.82865505609032 15.139999999999993
    vertex -309.0788753587151 9.189303145665217 15.139999999999993
    vertex -308.9718528068426 9.58606427926846 15.139999999999993
  endloop
endfacet
facet normal 0.0 0.0 1.0
  outer loop
    vertex -308.76508645436286 10.82865505609032 15.139999999999993
    vertex -308.9718528068426 9.58606427926846 15.139999999999993
    vertex -308.83582595335076 10.21007190199113 15.139999999999993
  endloop
endfacet
facet normal 0.0 0.0 1.0
  outer loop
    vertex -308.44609448826975 11.171337558620685 15.139999999999993
    vertex -308.76508645436286 10.82865505609032 15.139999999999993
    vertex -308.6961735621564 10.21007190199113 15.139999999999993
  endloop
endfacet
facet normal 0.0 0.0 1.0
  outer loop
    vertex -308.44609448826975 11.171337558620685 15.139999999999993
    vertex -308.6961735621564 10.21007190199113 15.139999999999993
    vertex -308.56557117728795 9.58606427926846 15.139999999999993
  endloop
endfacet
facet normal 0.0 0.0 1.0
  outer loop
    vertex -308.44609448826975 11.171337558620685 15.139999999999993
    vertex -308.56557117728795 9.58606427926846 15.139999999999993
    vertex -308.4585763012758 9.189303145665217 15.139999999999993
  endloop
endfacet
facet normal 0.0 0.0 1.0
  outer loop
    vertex -308.44609448826975 11.171337558620685 15.139999999999993
    vertex -308.4585763012758 9.189303145665217 15.139999999999993
    vertex -308.2699376373082 8.415264684126758 15.139999999999993
  endloop
endfacet
facet normal 0.0 0.0 1.0
  outer loop
    vertex -308.44609448826975 11.171337558620685 15.139999999999993
    vertex -308.2699376373082 8.415264684126758 15.139999999999993
    vertex -307.664168406539 8.415264684126758 15.139999999999993
  endloop
endfacet
facet normal -0.9638016619259487 0.2666202476721891 0.0
  outer loop
    vertex -309.19721733746 10.74341340629275 15.139999999999993
    vertex -309.84126228305723 8.415264684126758 14.999999999999993
    vertex -309.84126228305723 8.415264684126758 15.139999999999993
  endloop
endfacet
facet normal -0.9638016619259487 0.2666202476721891 0.0
  outer loop
    vertex -309.84126228305723 8.415264684126758 14.999999999999993
    vertex -309.19721733746 10.74341340629275 15.139999999999993
    vertex -309.19721733746 10.74341340629275 14.999999999999993
  endloop
endfacet
facet normal 0.0 -1.0 0.0
  outer loop
    vertex -309.2620618781989 8.415264684126758 15.139999999999993
    vertex -309.84126228305723 8.415264684126758 14.999999999999993
    vertex -309.2620618781989 8.415264684126758 14.999999999999993
  endloop
endfacet
facet normal 0.0 -1.0 0.0
  outer loop
    vertex -309.84126228305723 8.415264684126758 14.999999999999993
    vertex -309.2620618781989 8.415264684126758 15.139999999999993
    vertex -309.84126228305723 8.415264684126758 15.139999999999993
  endloop
endfacet
facet normal -0.8760693551825204 -0.4821851147744847 -7.963840848003517e-31
  outer loop
    vertex -306.1136698456837 10.487176453484045 15.139999999999993
    vertex -306.0403530322032 10.353969078262638 14.999999999999993
    vertex -306.0403530322032 10.353969078262638 15.139999999999993
  endloop
endfacet
facet normal -0.8760693551825204 -0.4821851147744847 -7.963840848003517e-31
  outer loop
    vertex -306.0403530322032 10.353969078262638 14.999999999999993
    vertex -306.1136698456837 10.487176453484045 15.139999999999993
    vertex -306.1136698456837 10.487176453484045 14.999999999999993
  endloop
endfacet
facet normal 0.0 -1.0 0.0
  outer loop
    vertex -307.664168406539 8.415264684126758 15.139999999999993
    vertex -308.2699376373082 8.415264684126758 14.999999999999993
    vertex -307.664168406539 8.415264684126758 14.999999999999993
  endloop
endfacet
facet normal 0.0 -1.0 0.0
  outer loop
    vertex -308.2699376373082 8.415264684126758 14.999999999999993
    vertex -307.664168406539 8.415264684126758 15.139999999999993
    vertex -308.2699376373082 8.415264684126758 15.139999999999993
  endloop
endfacet
facet normal 0.9731192884861195 -0.23030165083270432 0.0
  outer loop
    vertex -309.0788753587151 9.189303145665217 14.999999999999993
    vertex -309.2620618781989 8.415264684126758 15.139999999999993
    vertex -309.2620618781989 8.415264684126758 14.999999999999993
  endloop
endfacet
facet normal 0.9731192884861195 -0.23030165083270432 0.0
  outer loop
    vertex -309.2620618781989 8.415264684126758 15.139999999999993
    vertex -309.0788753587151 9.189303145665217 14.999999999999993
    vertex -309.0788753587151 9.189303145665217 15.139999999999993
  endloop
endfacet
facet normal -0.2698692971058284 -0.9628969635841657 -1.0364858490310616e-30
  outer loop
    vertex -306.3551832408001 10.67476343475935 15.139999999999993
    vertex -306.532225719292 10.724382792837536 14.999999999999993
    vertex -306.3551832408001 10.67476343475935 14.999999999999993
  endloop
endfacet
facet normal -0.2698692971058284 -0.9628969635841657 -1.0364858490310616e-30
  outer loop
    vertex -306.532225719292 10.724382792837536 14.999999999999993
    vertex -306.3551832408001 10.67476343475935 15.139999999999993
    vertex -306.532225719292 10.724382792837536 15.139999999999993
  endloop
endfacet
facet normal 0.0 -1.0 0.0
  outer loop
    vertex -308.4585763012758 9.189303145665217 15.139999999999993
    vertex -309.0788753587151 9.189303145665217 14.999999999999993
    vertex -308.4585763012758 9.189303145665217 14.999999999999993
  endloop
endfacet
facet normal 0.0 -1.0 0.0
  outer loop
    vertex -309.0788753587151 9.189303145665217 14.999999999999993
    vertex -308.4585763012758 9.189303145665217 15.139999999999993
    vertex -309.0788753587151 9.189303145665217 15.139999999999993
  endloop
endfacet
facet normal -0.05279149633997157 0.9986055567210643 0.0
  outer loop
    vertex -309.1319023070957 11.135082181596395 15.139999999999993
    vertex -308.44609448826975 11.171337558620685 14.999999999999993
    vertex -309.1319023070957 11.135082181596395 14.999999999999993
  endloop
endfacet
facet normal -0.05279149633997157 0.9986055567210643 0.0
  outer loop
    vertex -308.44609448826975 11.171337558620685 14.999999999999993
    vertex -309.1319023070957 11.135082181596395 15.139999999999993
    vertex -308.44609448826975 11.171337558620685 15.139999999999993
  endloop
endfacet
facet normal -0.9863788496551743 0.1644894068106975 0.0
  outer loop
    vertex -309.1319023070957 11.135082181596395 15.139999999999993
    vertex -309.19721733746 10.74341340629275 14.999999999999993
    vertex -309.19721733746 10.74341340629275 15.139999999999993
  endloop
endfacet
facet normal -0.9863788496551743 0.1644894068106975 0.0
  outer loop
    vertex -309.19721733746 10.74341340629275 14.999999999999993
    vertex -309.1319023070957 11.135082181596395 15.139999999999993
    vertex -309.1319023070957 11.135082181596395 14.999999999999993
  endloop
endfacet
facet normal 0.9935246467856303 -0.11361679554312722 0.0
  outer loop
    vertex -308.76508645436286 10.82865505609032 14.999999999999993
    vertex -308.83582595335076 10.21007190199113 15.139999999999993
    vertex -308.83582595335076 10.21007190199113 14.999999999999993
  endloop
endfacet
facet normal 0.9935246467856303 -0.11361679554312722 0.0
  outer loop
    vertex -308.83582595335076 10.21007190199113 15.139999999999993
    vertex -308.76508645436286 10.82865505609032 14.999999999999993
    vertex -308.76508645436286 10.82865505609032 15.139999999999993
  endloop
endfacet
facet normal 0.962031568074605 0.27293820184781126 0.0
  outer loop
    vertex -308.44609448826975 11.171337558620685 14.999999999999993
    vertex -307.664168406539 8.415264684126758 15.139999999999993
    vertex -307.664168406539 8.415264684126758 14.999999999999993
  endloop
endfacet
facet normal 0.962031568074605 0.27293820184781126 0.0
  outer loop
    vertex -307.664168406539 8.415264684126758 15.139999999999993
    vertex -308.44609448826975 11.171337558620685 14.999999999999993
    vertex -308.44609448826975 11.171337558620685 15.139999999999993
  endloop
endfacet
facet normal 0.9915783700218135 0.12950805420854544 4.969916845694904e-31
  outer loop
    vertex -306.79459287516244 10.739095972082225 14.999999999999993
    vertex -306.7564832154964 10.447309376687487 15.139999999999993
    vertex -306.7564832154964 10.447309376687487 14.999999999999993
  endloop
endfacet
facet normal 0.9915783700218135 0.12950805420854544 4.969916845694904e-31
  outer loop
    vertex -306.7564832154964 10.447309376687487 15.139999999999993
    vertex -306.79459287516244 10.739095972082225 14.999999999999993
    vertex -306.79459287516244 10.739095972082225 15.139999999999993
  endloop
endfacet
facet normal -0.9938516993871247 -0.11071946362462459 0.0
  outer loop
    vertex -308.76508645436286 10.82865505609032 15.139999999999993
    vertex -308.6961735621564 10.21007190199113 14.999999999999993
    vertex -308.6961735621564 10.21007190199113 15.139999999999993
  endloop
endfacet
facet normal -0.9938516993871247 -0.11071946362462459 0.0
  outer loop
    vertex -308.6961735621564 10.21007190199113 14.999999999999993
    vertex -308.76508645436286 10.82865505609032 15.139999999999993
    vertex -308.76508645436286 10.82865505609032 14.999999999999993
  endloop
endfacet
facet normal -0.9787918398489451 -0.2048573509667567 0.0
  outer loop
    vertex -308.6961735621564 10.21007190199113 15.139999999999993
    vertex -308.56557117728795 9.58606427926846 14.999999999999993
    vertex -308.56557117728795 9.58606427926846 15.139999999999993
  endloop
endfacet
facet normal -0.9787918398489451 -0.2048573509667567 0.0
  outer loop
    vertex -308.56557117728795 9.58606427926846 14.999999999999993
    vertex -308.6961735621564 10.21007190199113 15.139999999999993
    vertex -308.6961735621564 10.21007190199113 14.999999999999993
  endloop
endfacet
facet normal 0.0 1.0 0.0
  outer loop
    vertex -308.9718528068426 9.58606427926846 15.139999999999993
    vertex -308.56557117728795 9.58606427926846 14.999999999999993
    vertex -308.9718528068426 9.58606427926846 14.999999999999993
  endloop
endfacet
facet normal 0.0 1.0 0.0
  outer loop
    vertex -308.56557117728795 9.58606427926846 14.999999999999993
    vertex -308.9718528068426 9.58606427926846 15.139999999999993
    vertex -308.56557117728795 9.58606427926846 15.139999999999993
  endloop
endfacet
facet normal -0.999605014773177 0.02810363749261968 -3.4687445197862207e-31
  outer loop
    vertex -305.96296094829 9.825654202092345 15.139999999999993
    vertex -305.9684130927738 9.63172944880287 14.999999999999993
    vertex -305.9684130927738 9.63172944880287 15.139999999999993
  endloop
endfacet
facet normal -0.999605014773177 0.02810363749261968 -3.4687445197862207e-31
  outer loop
    vertex -305.9684130927738 9.63172944880287 14.999999999999993
    vertex -305.96296094829 9.825654202092345 15.139999999999993
    vertex -305.96296094829 9.825654202092345 14.999999999999993
  endloop
endfacet
facet normal 1.0 0.0 3.743253544547028e-31
  outer loop
    vertex -306.7564832154964 10.447309376687487 14.999999999999993
    vertex -306.7564832154964 8.868705979673315 15.139999999999993
    vertex -306.7564832154964 8.868705979673315 14.999999999999993
  endloop
endfacet
facet normal 1.0 0.0 3.743253544547028e-31
  outer loop
    vertex -306.7564832154964 8.868705979673315 15.139999999999993
    vertex -306.7564832154964 10.447309376687487 14.999999999999993
    vertex -306.7564832154964 10.447309376687487 15.139999999999993
  endloop
endfacet
facet normal -0.012134108505089785 0.9999263789953673 9.66899383143913e-31
  outer loop
    vertex -306.8855634280471 11.164252538377768 15.139999999999993
    vertex -306.7396009406989 11.166023793438502 14.999999999999993
    vertex -306.8855634280471 11.164252538377768 14.999999999999993
  endloop
endfacet
facet normal -0.012134108505089785 0.9999263789953673 9.66899383143913e-31
  outer loop
    vertex -306.7396009406989 11.166023793438502 14.999999999999993
    vertex -306.8855634280471 11.164252538377768 15.139999999999993
    vertex -306.7396009406989 11.166023793438502 15.139999999999993
  endloop
endfacet
facet normal 0.3636800761025432 0.9315239139421211 1.041122276196919e-30
  outer loop
    vertex -306.1765909141301 11.092585898069066 15.139999999999993
    vertex -305.93565871208045 10.998522567793255 14.999999999999993
    vertex -306.1765909141301 11.092585898069066 14.999999999999993
  endloop
endfacet
facet normal 0.3636800761025432 0.9315239139421211 1.041122276196919e-30
  outer loop
    vertex -305.93565871208045 10.998522567793255 14.999999999999993
    vertex -306.1765909141301 11.092585898069066 15.139999999999993
    vertex -305.93565871208045 10.998522567793255 15.139999999999993
  endloop
endfacet
facet normal -0.02900396326730508 0.9995792965617029 9.602473736801228e-31
  outer loop
    vertex -307.0686945958102 11.158938773195585 15.139999999999993
    vertex -306.8855634280471 11.164252538377768 14.999999999999993
    vertex -307.0686945958102 11.158938773195585 14.999999999999993
  endloop
endfacet
facet normal -0.02900396326730508 0.9995792965617029 9.602473736801228e-31
  outer loop
    vertex -306.8855634280471 11.164252538377768 14.999999999999993
    vertex -307.0686945958102 11.158938773195585 15.139999999999993
    vertex -306.8855634280471 11.164252538377768 15.139999999999993
  endloop
endfacet
facet normal 3.743253544547028e-31 9.715130113749837e-31 -1.0
  outer loop
    vertex -306.7396009406989 11.166023793438502 14.999999999999993
    vertex -306.79459287516244 10.739095972082225 14.999999999999993
    vertex -306.8855634280471 11.164252538377768 14.999999999999993
  endloop
endfacet
facet normal 3.743253544547028e-31 9.715130113749837e-31 -1.0
  outer loop
    vertex -306.79459287516244 10.739095972082225 14.999999999999993
    vertex -306.7396009406989 11.166023793438502 14.999999999999993
    vertex -306.7546566087151 10.7409225788636 14.999999999999993
  endloop
endfacet
facet normal 3.743253544547028e-31 9.715130113749837e-31 -1.0
  outer loop
    vertex -306.7546566087151 10.7409225788636 14.999999999999993
    vertex -306.7396009406989 11.166023793438502 14.999999999999993
    vertex -306.532225719292 10.724382792837536 14.999999999999993
  endloop
endfacet
facet normal 3.743253544547028e-31 9.715130113749837e-31 -1.0
  outer loop
    vertex -306.532225719292 10.724382792837536 14.999999999999993
    vertex -306.7396009406989 11.166023793438502 14.999999999999993
    vertex -306.44653433676416 11.147664319596142 14.999999999999993
  endloop
endfacet
facet normal 3.743253544547028e-31 9.715130113749837e-31 -1.0
  outer loop
    vertex -306.532225719292 10.724382792837536 14.999999999999993
    vertex -306.44653433676416 11.147664319596142 14.999999999999993
    vertex -306.3551832408001 10.67476343475935 14.999999999999993
  endloop
endfacet
facet normal 3.743253544547028e-31 9.715130113749837e-31 -1.0
  outer loop
    vertex -306.3551832408001 10.67476343475935 14.999999999999993
    vertex -306.44653433676416 11.147664319596142 14.999999999999993
    vertex -306.1765909141301 11.092585898069066 14.999999999999993
  endloop
endfacet
facet normal 3.743253544547028e-31 9.715130113749837e-31 -1.0
  outer loop
    vertex -306.3551832408001 10.67476343475935 14.999999999999993
    vertex -306.1765909141301 11.092585898069066 14.999999999999993
    vertex -306.21763075550786 10.5947871173884 14.999999999999993
  endloop
endfacet
facet normal 3.743253544547028e-31 9.715130113749837e-31 -1.0
  outer loop
    vertex -306.21763075550786 10.5947871173884 14.999999999999993
    vertex -306.1765909141301 11.092585898069066 14.999999999999993
    vertex -306.1136698456837 10.487176453484045 14.999999999999993
  endloop
endfacet
facet normal 3.743253544547028e-31 9.715130113749837e-31 -1.0
  outer loop
    vertex -306.1136698456837 10.487176453484045 14.999999999999993
    vertex -306.1765909141301 11.092585898069066 14.999999999999993
    vertex -305.93565871208045 10.998522567793255 14.999999999999993
  endloop
endfacet
facet normal 3.743253544547028e-31 9.715130113749837e-31 -1.0
  outer loop
    vertex -306.1136698456837 10.487176453484045 14.999999999999993
    vertex -305.93565871208045 10.998522567793255 14.999999999999993
    vertex -306.0403530322032 10.353969078262638 14.999999999999993
  endloop
endfacet
facet normal 3.743253544547028e-31 9.715130113749837e-31 -1.0
  outer loop
    vertex -306.0403530322032 10.353969078262638 14.999999999999993
    vertex -305.93565871208045 10.998522567793255 14.999999999999993
    vertex -305.9947328359418 10.197202626940523 14.999999999999993
  endloop
endfacet
facet normal 3.743253544547028e-31 9.715130113749837e-31 -1.0
  outer loop
    vertex -305.9947328359418 10.197202626940523 14.999999999999993
    vertex -305.93565871208045 10.998522567793255 14.999999999999993
    vertex -305.96296094829 9.825654202092345 14.999999999999993
  endloop
endfacet
facet normal 3.743253544547028e-31 9.715130113749837e-31 -1.0
  outer loop
    vertex -307.2654284489226 11.15008249789194 14.999999999999993
    vertex -307.3923637822981 10.704224388074126 14.999999999999993
    vertex -307.45405327496 11.135912457406109 14.999999999999993
  endloop
endfacet
facet normal 3.743253544547028e-31 9.715130113749837e-31 -1.0
  outer loop
    vertex -307.3923637822981 10.704224388074126 14.999999999999993
    vertex -307.2654284489226 11.15008249789194 14.999999999999993
    vertex -307.3923637822981 8.415264684126758 14.999999999999993
  endloop
endfacet
facet normal 3.743253544547028e-31 9.715130113749837e-31 -1.0
  outer loop
    vertex -307.3923637822981 8.415264684126758 14.999999999999993
    vertex -307.2654284489226 11.15008249789194 14.999999999999993
    vertex -306.7541030915086 8.415264684126758 14.999999999999993
  endloop
endfacet
facet normal 3.743253544547028e-31 9.715130113749837e-31 -1.0
  outer loop
    vertex -306.7541030915086 8.415264684126758 14.999999999999993
    vertex -307.2654284489226 11.15008249789194 14.999999999999993
    vertex -307.0686945958102 11.158938773195585 14.999999999999993
  endloop
endfacet
facet normal 3.743253544547028e-31 9.715130113749837e-31 -1.0
  outer loop
    vertex -306.7541030915086 8.415264684126758 14.999999999999993
    vertex -307.0686945958102 11.158938773195585 14.999999999999993
    vertex -306.8855634280471 11.164252538377768 14.999999999999993
  endloop
endfacet
facet normal 3.743253544547028e-31 9.715130113749837e-31 -1.0
  outer loop
    vertex -306.7541030915086 8.415264684126758 14.999999999999993
    vertex -306.8855634280471 11.164252538377768 14.999999999999993
    vertex -306.79459287516244 10.739095972082225 14.999999999999993
  endloop
endfacet
facet normal 3.743253544547028e-31 9.715130113749837e-31 -1.0
  outer loop
    vertex -306.7541030915086 8.415264684126758 14.999999999999993
    vertex -306.79459287516244 10.739095972082225 14.999999999999993
    vertex -306.7564832154964 8.868705979673315 14.999999999999993
  endloop
endfacet
facet normal 3.743253544547028e-31 9.715130113749837e-31 -1.0
  outer loop
    vertex -306.7564832154964 8.868705979673315 14.999999999999993
    vertex -306.79459287516244 10.739095972082225 14.999999999999993
    vertex -306.7564832154964 10.447309376687487 14.999999999999993
  endloop
endfacet
facet normal 3.743253544547028e-31 9.715130113749837e-31 -1.0
  outer loop
    vertex -306.7541030915086 8.415264684126758 14.999999999999993
    vertex -306.7564832154964 8.868705979673315 14.999999999999993
    vertex -306.5803505809127 8.880260651358538 14.999999999999993
  endloop
endfacet
facet normal 3.743253544547028e-31 9.715130113749837e-31 -1.0
  outer loop
    vertex -306.7541030915086 8.415264684126758 14.999999999999993
    vertex -306.5803505809127 8.880260651358538 14.999999999999993
    vertex -306.3842013803497 8.450620595690523 14.999999999999993
  endloop
endfacet
facet normal 3.743253544547028e-31 9.715130113749837e-31 -1.0
  outer loop
    vertex -306.3842013803497 8.450620595690523 14.999999999999993
    vertex -306.5803505809127 8.880260651358538 14.999999999999993
    vertex -306.43327068070397 8.914924666414207 14.999999999999993
  endloop
endfacet
facet normal 3.743253544547028e-31 9.715130113749837e-31 -1.0
  outer loop
    vertex -306.3842013803497 8.450620595690523 14.999999999999993
    vertex -306.43327068070397 8.914924666414207 14.999999999999993
    vertex -306.2117392567414 9.038165272436474 14.999999999999993
  endloop
endfacet
facet normal 3.743253544547028e-31 9.715130113749837e-31 -1.0
  outer loop
    vertex -306.3842013803497 8.450620595690523 14.999999999999993
    vertex -306.2117392567414 9.038165272436474 14.999999999999993
    vertex -306.04603004305216 8.560327706014409 14.999999999999993
  endloop
endfacet
facet normal 3.743253544547028e-31 9.715130113749837e-31 -1.0
  outer loop
    vertex -306.04603004305216 8.560327706014409 14.999999999999993
    vertex -306.2117392567414 9.038165272436474 14.999999999999993
    vertex -306.0737335792363 9.21487564060449 14.999999999999993
  endloop
endfacet
facet normal 3.743253544547028e-31 9.715130113749837e-31 -1.0
  outer loop
    vertex -306.04603004305216 8.560327706014409 14.999999999999993
    vertex -306.0737335792363 9.21487564060449 14.999999999999993
    vertex -305.9992855149651 9.42059031039194 14.999999999999993
  endloop
endfacet
facet normal 3.743253544547028e-31 9.715130113749837e-31 -1.0
  outer loop
    vertex -306.04603004305216 8.560327706014409 14.999999999999993
    vertex -305.9992855149651 9.42059031039194 14.999999999999993
    vertex -305.7550045338163 8.751637090503277 14.999999999999993
  endloop
endfacet
facet normal 3.743253544547028e-31 9.715130113749837e-31 -1.0
  outer loop
    vertex -305.7550045338163 8.751637090503277 14.999999999999993
    vertex -305.9992855149651 9.42059031039194 14.999999999999993
    vertex -305.9684130927738 9.63172944880287 14.999999999999993
  endloop
endfacet
facet normal 3.743253544547028e-31 9.715130113749837e-31 -1.0
  outer loop
    vertex -305.7550045338163 8.751637090503277 14.999999999999993
    vertex -305.9684130927738 9.63172944880287 14.999999999999993
    vertex -305.96296094829 9.825654202092345 14.999999999999993
  endloop
endfacet
facet normal 3.743253544547028e-31 9.715130113749837e-31 -1.0
  outer loop
    vertex -305.7550045338163 8.751637090503277 14.999999999999993
    vertex -305.96296094829 9.825654202092345 14.999999999999993
    vertex -305.93565871208045 10.998522567793255 14.999999999999993
  endloop
endfacet
facet normal 3.743253544547028e-31 9.715130113749837e-31 -1.0
  outer loop
    vertex -305.7550045338163 8.751637090503277 14.999999999999993
    vertex -305.93565871208045 10.998522567793255 14.999999999999993
    vertex -305.72962576989926 10.863208367704694 14.999999999999993
  endloop
endfacet
facet normal 3.743253544547028e-31 9.715130113749837e-31 -1.0
  outer loop
    vertex -305.7550045338163 8.751637090503277 14.999999999999993
    vertex -305.72962576989926 10.863208367704694 14.999999999999993
    vertex -305.63192652347345 8.879928541034653 14.999999999999993
  endloop
endfacet
facet normal 3.743253544547028e-31 9.715130113749837e-31 -1.0
  outer loop
    vertex -305.63192652347345 8.879928541034653 14.999999999999993
    vertex -305.72962576989926 10.863208367704694 14.999999999999993
    vertex -305.56144302619356 10.685280261682427 14.999999999999993
  endloop
endfacet
facet normal 3.743253544547028e-31 9.715130113749837e-31 -1.0
  outer loop
    vertex -305.63192652347345 8.879928541034653 14.999999999999993
    vertex -305.56144302619356 10.685280261682427 14.999999999999993
    vertex -305.5274397723031 9.030886521171292 14.999999999999993
  endloop
endfacet
facet normal 3.743253544547028e-31 9.715130113749837e-31 -1.0
  outer loop
    vertex -305.5274397723031 9.030886521171292 14.999999999999993
    vertex -305.56144302619356 10.685280261682427 14.999999999999993
    vertex -305.43406141957036 10.463375213605504 14.999999999999993
  endloop
endfacet
facet normal 3.743253544547028e-31 9.715130113749837e-31 -1.0
  outer loop
    vertex -305.5274397723031 9.030886521171292 14.999999999999993
    vertex -305.43406141957036 10.463375213605504 14.999999999999993
    vertex -305.4429003974613 9.205413955856262 14.999999999999993
  endloop
endfacet
facet normal 3.743253544547028e-31 9.715130113749837e-31 -1.0
  outer loop
    vertex -305.4429003974613 9.205413955856262 14.999999999999993
    vertex -305.43406141957036 10.463375213605504 14.999999999999993
    vertex -305.37966451610373 9.404413770032628 14.999999999999993
  endloop
endfacet
facet normal 3.743253544547028e-31 9.715130113749837e-31 -1.0
  outer loop
    vertex -305.37966451610373 9.404413770032628 14.999999999999993
    vertex -305.43406141957036 10.463375213605504 14.999999999999993
    vertex -305.3538256410089 10.195234181374985 14.999999999999993
  endloop
endfacet
facet normal 3.743253544547028e-31 9.715130113749837e-31 -1.0
  outer loop
    vertex -305.37966451610373 9.404413770032628 14.999999999999993
    vertex -305.3538256410089 10.195234181374985 14.999999999999993
    vertex -305.3402264151422 9.62857786020849 14.999999999999993
  endloop
endfacet
facet normal 3.743253544547028e-31 9.715130113749837e-31 -1.0
  outer loop
    vertex -305.3402264151422 9.62857786020849 14.999999999999993
    vertex -305.3538256410089 10.195234181374985 14.999999999999993
    vertex -305.3270803814884 9.87859812289194 14.999999999999993
  endloop
endfacet
facet normal 0.19991794303039961 0.9798126433428453 1.026735086604e-30
  outer loop
    vertex -306.44653433676416 11.147664319596142 15.139999999999993
    vertex -306.1765909141301 11.092585898069066 14.999999999999993
    vertex -306.44653433676416 11.147664319596142 14.999999999999993
  endloop
endfacet
facet normal 0.19991794303039961 0.9798126433428453 1.026735086604e-30
  outer loop
    vertex -306.1765909141301 11.092585898069066 14.999999999999993
    vertex -306.44653433676416 11.147664319596142 15.139999999999993
    vertex -306.1765909141301 11.092585898069066 15.139999999999993
  endloop
endfacet
facet normal -0.044970985988465204 0.9989882934345254 9.53696345012622e-31
  outer loop
    vertex -307.2654284489226 11.15008249789194 15.139999999999993
    vertex -307.0686945958102 11.158938773195585 14.999999999999993
    vertex -307.2654284489226 11.15008249789194 14.999999999999993
  endloop
endfacet
facet normal -0.044970985988465204 0.9989882934345254 9.53696345012622e-31
  outer loop
    vertex -307.0686945958102 11.158938773195585 14.999999999999993
    vertex -307.2654284489226 11.15008249789194 15.139999999999993
    vertex -307.0686945958102 11.158938773195585 15.139999999999993
  endloop
endfacet
facet normal 0.0 0.0 -1.0
  outer loop
    vertex -303.0988415150916 11.135912457406109 14.999999999999993
    vertex -304.8523840252131 10.706050994855502 14.999999999999993
    vertex -304.91587244879605 11.135912457406109 14.999999999999993
  endloop
endfacet
facet normal 0.0 0.0 -1.0
  outer loop
    vertex -304.8523840252131 10.706050994855502 14.999999999999993
    vertex -303.0988415150916 11.135912457406109 14.999999999999993
    vertex -304.24370882910983 10.723210028256313 14.999999999999993
  endloop
endfacet
facet normal 0.0 0.0 -1.0
  outer loop
    vertex -304.8523840252131 10.706050994855502 14.999999999999993
    vertex -304.24370882910983 10.723210028256313 14.999999999999993
    vertex -304.8523840252131 8.415264684126758 14.999999999999993
  endloop
endfacet
facet normal 0.0 0.0 -1.0
  outer loop
    vertex -304.24370882910983 10.723210028256313 14.999999999999993
    vertex -303.0988415150916 11.135912457406109 14.999999999999993
    vertex -303.14782778786486 10.723210028256313 14.999999999999993
  endloop
endfacet
facet normal 0.0 0.0 -1.0
  outer loop
    vertex -303.2848232964681 10.076701931090321 14.999999999999993
    vertex -304.21650345841147 9.690568327851453 14.999999999999993
    vertex -304.21650345841147 10.076701931090321 14.999999999999993
  endloop
endfacet
facet normal 0.0 0.0 -1.0
  outer loop
    vertex -304.21650345841147 9.690568327851453 14.999999999999993
    vertex -303.2848232964681 10.076701931090321 14.999999999999993
    vertex -303.2848232964681 9.690568327851453 14.999999999999993
  endloop
endfacet
facet normal 0.0 0.0 -1.0
  outer loop
    vertex -304.24370882910983 10.723210028256313 14.999999999999993
    vertex -304.21650345841147 8.415264684126758 14.999999999999993
    vertex -304.8523840252131 8.415264684126758 14.999999999999993
  endloop
endfacet
facet normal 0.0 0.0 -1.0
  outer loop
    vertex -304.21650345841147 8.415264684126758 14.999999999999993
    vertex -304.24370882910983 10.723210028256313 14.999999999999993
    vertex -304.21650345841147 10.472605113023517 14.999999999999993
  endloop
endfacet
facet normal 0.0 0.0 -1.0
  outer loop
    vertex -304.21650345841147 8.415264684126758 14.999999999999993
    vertex -304.21650345841147 10.472605113023517 14.999999999999993
    vertex -304.21650345841147 10.076701931090321 14.999999999999993
  endloop
endfacet
facet normal 0.0 0.0 -1.0
  outer loop
    vertex -304.21650345841147 8.415264684126758 14.999999999999993
    vertex -304.21650345841147 10.076701931090321 14.999999999999993
    vertex -304.21650345841147 9.690568327851453 14.999999999999993
  endloop
endfacet
facet normal 0.5489543835713117 0.835852310374172 1.0175289393261435e-30
  outer loop
    vertex -305.93565871208045 10.998522567793255 15.139999999999993
    vertex -305.72962576989926 10.863208367704694 14.999999999999993
    vertex -305.93565871208045 10.998522567793255 14.999999999999993
  endloop
endfacet
facet normal 0.5489543835713117 0.835852310374172 1.0175289393261435e-30
  outer loop
    vertex -305.72962576989926 10.863208367704694 14.999999999999993
    vertex -305.93565871208045 10.998522567793255 15.139999999999993
    vertex -305.72962576989926 10.863208367704694 15.139999999999993
  endloop
endfacet
facet normal 0.0 0.0 -1.0
  outer loop
    vertex -309.19721733746 10.74341340629275 14.999999999999993
    vertex -309.2620618781989 8.415264684126758 14.999999999999993
    vertex -309.84126228305723 8.415264684126758 14.999999999999993
  endloop
endfacet
facet normal 0.0 0.0 -1.0
  outer loop
    vertex -309.2620618781989 8.415264684126758 14.999999999999993
    vertex -309.19721733746 10.74341340629275 14.999999999999993
    vertex -309.0788753587151 9.189303145665217 14.999999999999993
  endloop
endfacet
facet normal 0.0 0.0 -1.0
  outer loop
    vertex -309.0788753587151 9.189303145665217 14.999999999999993
    vertex -309.19721733746 10.74341340629275 14.999999999999993
    vertex -309.1319023070957 11.135082181596395 14.999999999999993
  endloop
endfacet
facet normal 0.0 0.0 -1.0
  outer loop
    vertex -309.0788753587151 9.189303145665217 14.999999999999993
    vertex -309.1319023070957 11.135082181596395 14.999999999999993
    vertex -308.76508645436286 10.82865505609032 14.999999999999993
  endloop
endfacet
facet normal 0.0 0.0 -1.0
  outer loop
    vertex -308.76508645436286 10.82865505609032 14.999999999999993
    vertex -309.1319023070957 11.135082181596395 14.999999999999993
    vertex -308.44609448826975 11.171337558620685 14.999999999999993
  endloop
endfacet
facet normal 0.0 0.0 -1.0
  outer loop
    vertex -309.0788753587151 9.189303145665217 14.999999999999993
    vertex -308.76508645436286 10.82865505609032 14.999999999999993
    vertex -308.9718528068426 9.58606427926846 14.999999999999993
  endloop
endfacet
facet normal 0.0 0.0 -1.0
  outer loop
    vertex -308.9718528068426 9.58606427926846 14.999999999999993
    vertex -308.76508645436286 10.82865505609032 14.999999999999993
    vertex -308.83582595335076 10.21007190199113 14.999999999999993
  endloop
endfacet
facet normal 0.0 0.0 -1.0
  outer loop
    vertex -308.76508645436286 10.82865505609032 14.999999999999993
    vertex -308.44609448826975 11.171337558620685 14.999999999999993
    vertex -308.6961735621564 10.21007190199113 14.999999999999993
  endloop
endfacet
facet normal 0.0 0.0 -1.0
  outer loop
    vertex -308.6961735621564 10.21007190199113 14.999999999999993
    vertex -308.44609448826975 11.171337558620685 14.999999999999993
    vertex -308.56557117728795 9.58606427926846 14.999999999999993
  endloop
endfacet
facet normal 0.0 0.0 -1.0
  outer loop
    vertex -308.56557117728795 9.58606427926846 14.999999999999993
    vertex -308.44609448826975 11.171337558620685 14.999999999999993
    vertex -308.4585763012758 9.189303145665217 14.999999999999993
  endloop
endfacet
facet normal 0.0 0.0 -1.0
  outer loop
    vertex -308.4585763012758 9.189303145665217 14.999999999999993
    vertex -308.44609448826975 11.171337558620685 14.999999999999993
    vertex -308.2699376373082 8.415264684126758 14.999999999999993
  endloop
endfacet
facet normal 0.0 0.0 -1.0
  outer loop
    vertex -308.2699376373082 8.415264684126758 14.999999999999993
    vertex -308.44609448826975 11.171337558620685 14.999999999999993
    vertex -307.664168406539 8.415264684126758 14.999999999999993
  endloop
endfacet
facet normal 0.0 0.0 -1.0
  outer loop
    vertex -308.9718528068426 9.58606427926846 14.999999999999993
    vertex -308.4585763012758 9.189303145665217 14.999999999999993
    vertex -309.0788753587151 9.189303145665217 14.999999999999993
  endloop
endfacet
facet normal 0.0 0.0 -1.0
  outer loop
    vertex -308.4585763012758 9.189303145665217 14.999999999999993
    vertex -308.9718528068426 9.58606427926846 14.999999999999993
    vertex -308.56557117728795 9.58606427926846 14.999999999999993
  endloop
endfacet
facet normal 0.06252351214758103 0.9980434912511235 9.930163735149775e-31
  outer loop
    vertex -306.7396009406989 11.166023793438502 15.139999999999993
    vertex -306.44653433676416 11.147664319596142 14.999999999999993
    vertex -306.7396009406989 11.166023793438502 14.999999999999993
  endloop
endfacet
facet normal 0.06252351214758103 0.9980434912511235 9.930163735149775e-31
  outer loop
    vertex -306.44653433676416 11.147664319596142 14.999999999999993
    vertex -306.7396009406989 11.166023793438502 15.139999999999993
    vertex -306.44653433676416 11.147664319596142 15.139999999999993
  endloop
endfacet
facet normal -0.989478506347051 0.14467994151646882 -2.298284469454486e-31
  outer loop
    vertex -305.9684130927738 9.63172944880287 15.139999999999993
    vertex -305.9992855149651 9.42059031039194 14.999999999999993
    vertex -305.9992855149651 9.42059031039194 15.139999999999993
  endloop
endfacet
facet normal -0.989478506347051 0.14467994151646882 -2.298284469454486e-31
  outer loop
    vertex -305.9992855149651 9.42059031039194 14.999999999999993
    vertex -305.9684130927738 9.63172944880287 15.139999999999993
    vertex -305.9684130927738 9.63172944880287 14.999999999999993
  endloop
endfacet
endsolid RMP_Front
