solid RMP_Front
facet normal 1.0 0.0 0.0
  outer loop
    vertex -301.11666888615787 14.599999999999868 4.999999999999994
    vertex -301.11666888615787 5.399999999999875 14.44
    vertex -301.11666888615787 5.399999999999875 4.999999999999994
  endloop
endfacet
facet normal 1.0 0.0 0.0
  outer loop
    vertex -301.11666888615787 5.399999999999875 14.44
    vertex -301.11666888615787 14.599999999999868 4.999999999999994
    vertex -301.11666888615787 14.599999999999868 14.44
  endloop
endfacet
facet normal -1.0 0.0 0.0
  outer loop
    vertex -311.9166688861579 14.599999999999868 14.44
    vertex -311.9166688861579 5.399999999999875 4.999999999999994
    vertex -311.9166688861579 5.399999999999875 14.44
  endloop
endfacet
facet normal -1.0 0.0 0.0
  outer loop
    vertex -311.9166688861579 5.399999999999875 4.999999999999994
    vertex -311.9166688861579 14.599999999999868 14.44
    vertex -311.9166688861579 14.599999999999868 4.999999999999994
  endloop
endfacet
facet normal 0.0 0.0 1.0
  outer loop
    vertex -307.3923637822981 10.704224388074126 14.44
    vertex -307.45405327496 11.135912457406112 14.44
    vertex -307.3923637822981 8.415264684126758 14.44
  endloop
endfacet
facet normal 0.0 0.0 1.0
  outer loop
    vertex -303.2848232964681 10.076701931090321 14.44
    vertex -304.21650345841147 10.47260511302352 14.44
    vertex -304.21650345841147 10.076701931090321 14.44
  endloop
endfacet
facet normal 0.0 0.0 1.0
  outer loop
    vertex -311.9166688861579 5.399999999999875 14.44
    vertex -309.84126228305723 8.415264684126758 14.44
    vertex -311.9166688861579 14.599999999999868 14.44
  endloop
endfacet
facet normal 0.0 0.0 1.0
  outer loop
    vertex -309.84126228305723 8.415264684126758 14.44
    vertex -311.9166688861579 5.399999999999875 14.44
    vertex -301.11666888615787 5.399999999999875 14.44
  endloop
endfacet
facet normal 0.0 0.0 1.0
  outer loop
    vertex -309.84126228305723 8.415264684126758 14.44
    vertex -301.11666888615787 5.399999999999875 14.44
    vertex -309.2620618781989 8.415264684126758 14.44
  endloop
endfacet
facet normal 0.0 0.0 1.0
  outer loop
    vertex -309.2620618781989 8.415264684126758 14.44
    vertex -301.11666888615787 5.399999999999875 14.44
    vertex -308.2699376373082 8.415264684126758 14.44
  endloop
endfacet
facet normal 0.0 0.0 1.0
  outer loop
    vertex -309.2620618781989 8.415264684126758 14.44
    vertex -308.2699376373082 8.415264684126758 14.44
    vertex -309.0788753587151 9.18930314566522 14.44
  endloop
endfacet
facet normal 0.0 0.0 1.0
  outer loop
    vertex -309.0788753587151 9.18930314566522 14.44
    vertex -308.2699376373082 8.415264684126758 14.44
    vertex -308.4585763012758 9.18930314566522 14.44
  endloop
endfacet
facet normal 0.0 0.0 1.0
  outer loop
    vertex -308.2699376373082 8.415264684126758 14.44
    vertex -301.11666888615787 5.399999999999875 14.44
    vertex -307.664168406539 8.415264684126758 14.44
  endloop
endfacet
facet normal 0.0 0.0 1.0
  outer loop
    vertex -307.664168406539 8.415264684126758 14.44
    vertex -301.11666888615787 5.399999999999875 14.44
    vertex -307.3923637822981 8.415264684126758 14.44
  endloop
endfacet
facet normal 0.0 0.0 1.0
  outer loop
    vertex -307.664168406539 8.415264684126758 14.44
    vertex -307.3923637822981 8.415264684126758 14.44
    vertex -307.45405327496 11.135912457406112 14.44
  endloop
endfacet
facet normal 0.0 0.0 1.0
  outer loop
    vertex -307.3923637822981 8.415264684126758 14.44
    vertex -301.11666888615787 5.399999999999875 14.44
    vertex -306.7541030915087 8.415264684126747 14.44
  endloop
endfacet
facet normal 0.0 0.0 1.0
  outer loop
    vertex -306.7541030915087 8.415264684126747 14.44
    vertex -301.11666888615787 5.399999999999875 14.44
    vertex -306.3842013803498 8.450620595690499 14.44
  endloop
endfacet
facet normal 0.0 0.0 1.0
  outer loop
    vertex -306.3842013803498 8.450620595690499 14.44
    vertex -301.11666888615787 5.399999999999875 14.44
    vertex -306.04603004305216 8.560327706014414 14.44
  endloop
endfacet
facet normal 0.0 0.0 1.0
  outer loop
    vertex -306.04603004305216 8.560327706014414 14.44
    vertex -301.11666888615787 5.399999999999875 14.44
    vertex -305.7550045338163 8.751637090503275 14.44
  endloop
endfacet
facet normal 0.0 0.0 1.0
  outer loop
    vertex -305.7550045338163 8.751637090503275 14.44
    vertex -301.11666888615787 5.399999999999875 14.44
    vertex -305.63192652347345 8.879928541034651 14.44
  endloop
endfacet
facet normal 0.0 0.0 1.0
  outer loop
    vertex -305.63192652347345 8.879928541034651 14.44
    vertex -301.11666888615787 5.399999999999875 14.44
    vertex -304.8523840252131 8.415264684126758 14.44
  endloop
endfacet
facet normal 0.0 0.0 1.0
  outer loop
    vertex -305.63192652347345 8.879928541034651 14.44
    vertex -304.8523840252131 8.415264684126758 14.44
    vertex -305.5274397723032 9.030886521171308 14.44
  endloop
endfacet
facet normal 0.0 0.0 1.0
  outer loop
    vertex -305.5274397723032 9.030886521171308 14.44
    vertex -304.8523840252131 8.415264684126758 14.44
    vertex -305.4429003974613 9.205413955856276 14.44
  endloop
endfacet
facet normal 0.0 0.0 1.0
  outer loop
    vertex -305.4429003974613 9.205413955856276 14.44
    vertex -304.8523840252131 8.415264684126758 14.44
    vertex -305.37966451610373 9.404413770032633 14.44
  endloop
endfacet
facet normal 0.0 0.0 1.0
  outer loop
    vertex -305.37966451610373 9.404413770032633 14.44
    vertex -304.8523840252131 8.415264684126758 14.44
    vertex -305.3402264151422 9.628577860208493 14.44
  endloop
endfacet
facet normal 0.0 0.0 1.0
  outer loop
    vertex -305.3402264151422 9.628577860208493 14.44
    vertex -304.8523840252131 8.415264684126758 14.44
    vertex -305.3270803814883 9.878598122891942 14.44
  endloop
endfacet
facet normal 0.0 0.0 1.0
  outer loop
    vertex -305.3270803814883 9.878598122891942 14.44
    vertex -304.8523840252131 8.415264684126758 14.44
    vertex -304.91587244879605 11.13591245740611 14.44
  endloop
endfacet
facet normal 0.0 0.0 1.0
  outer loop
    vertex -304.8523840252131 8.415264684126758 14.44
    vertex -301.11666888615787 5.399999999999875 14.44
    vertex -304.21650345841147 8.415264684126758 14.44
  endloop
endfacet
facet normal 0.0 0.0 1.0
  outer loop
    vertex -304.21650345841147 8.415264684126758 14.44
    vertex -301.11666888615787 5.399999999999875 14.44
    vertex -304.21650345841147 9.690568327851455 14.44
  endloop
endfacet
facet normal 0.0 0.0 1.0
  outer loop
    vertex -304.21650345841147 9.690568327851455 14.44
    vertex -301.11666888615787 5.399999999999875 14.44
    vertex -303.2848232964681 9.690568327851455 14.44
  endloop
endfacet
facet normal 0.0 0.0 1.0
  outer loop
    vertex -303.2848232964681 9.690568327851455 14.44
    vertex -301.11666888615787 5.399999999999875 14.44
    vertex -303.2848232964681 10.076701931090321 14.44
  endloop
endfacet
facet normal 0.0 0.0 1.0
  outer loop
    vertex -303.2848232964681 10.076701931090321 14.44
    vertex -301.11666888615787 5.399999999999875 14.44
    vertex -303.14782778786486 10.723210028256313 14.44
  endloop
endfacet
facet normal 0.0 0.0 1.0
  outer loop
    vertex -303.14782778786486 10.723210028256313 14.44
    vertex -301.11666888615787 5.399999999999875 14.44
    vertex -303.0988415150916 11.13591245740611 14.44
  endloop
endfacet
facet normal 0.0 0.0 1.0
  outer loop
    vertex -311.9166688861579 14.599999999999868 14.44
    vertex -309.13190230709574 11.1350821815964 14.44
    vertex -301.11666888615787 14.599999999999868 14.44
  endloop
endfacet
facet normal 0.0 0.0 1.0
  outer loop
    vertex -309.13190230709574 11.1350821815964 14.44
    vertex -311.9166688861579 14.599999999999868 14.44
    vertex -309.84126228305723 8.415264684126758 14.44
  endloop
endfacet
facet normal 0.0 0.0 1.0
  outer loop
    vertex -309.13190230709574 11.1350821815964 14.44
    vertex -309.84126228305723 8.415264684126758 14.44
    vertex -309.1972173374601 10.743413406292762 14.44
  endloop
endfacet
facet normal 0.0 0.0 1.0
  outer loop
    vertex -301.11666888615787 14.599999999999868 14.44
    vertex -309.13190230709574 11.1350821815964 14.44
    vertex -308.44609448826975 11.171337558620689 14.44
  endloop
endfacet
facet normal 0.0 0.0 1.0
  outer loop
    vertex -301.11666888615787 14.599999999999868 14.44
    vertex -308.44609448826975 11.171337558620689 14.44
    vertex -307.45405327496 11.135912457406112 14.44
  endloop
endfacet
facet normal 0.0 0.0 1.0
  outer loop
    vertex -307.45405327496 11.135912457406112 14.44
    vertex -308.44609448826975 11.171337558620689 14.44
    vertex -307.664168406539 8.415264684126758 14.44
  endloop
endfacet
facet normal 0.0 0.0 1.0
  outer loop
    vertex -301.11666888615787 14.599999999999868 14.44
    vertex -307.45405327496 11.135912457406112 14.44
    vertex -307.26542844892265 11.15008249789194 14.44
  endloop
endfacet
facet normal 0.0 0.0 1.0
  outer loop
    vertex -301.11666888615787 14.599999999999868 14.44
    vertex -307.26542844892265 11.15008249789194 14.44
    vertex -307.06869459581026 11.158938773195587 14.44
  endloop
endfacet
facet normal 0.0 0.0 1.0
  outer loop
    vertex -301.11666888615787 14.599999999999868 14.44
    vertex -307.06869459581026 11.158938773195587 14.44
    vertex -306.88556342804713 11.16425253837777 14.44
  endloop
endfacet
facet normal 0.0 0.0 1.0
  outer loop
    vertex -301.11666888615787 14.599999999999868 14.44
    vertex -306.88556342804713 11.16425253837777 14.44
    vertex -306.7396009406989 11.166023793438503 14.44
  endloop
endfacet
facet normal 0.0 0.0 1.0
  outer loop
    vertex -301.11666888615787 14.599999999999868 14.44
    vertex -306.7396009406989 11.166023793438503 14.44
    vertex -306.4465343367642 11.147664319596146 14.44
  endloop
endfacet
facet normal 0.0 0.0 1.0
  outer loop
    vertex -301.11666888615787 14.599999999999868 14.44
    vertex -306.4465343367642 11.147664319596146 14.44
    vertex -306.1765909141301 11.09258589806908 14.44
  endloop
endfacet
facet normal 0.0 0.0 1.0
  outer loop
    vertex -301.11666888615787 14.599999999999868 14.44
    vertex -306.1765909141301 11.09258589806908 14.44
    vertex -305.93565871208045 10.998522567793264 14.44
  endloop
endfacet
facet normal 0.0 0.0 1.0
  outer loop
    vertex -301.11666888615787 14.599999999999868 14.44
    vertex -305.93565871208045 10.998522567793264 14.44
    vertex -305.72962576989926 10.86320836770469 14.44
  endloop
endfacet
facet normal 0.0 0.0 1.0
  outer loop
    vertex -301.11666888615787 14.599999999999868 14.44
    vertex -305.72962576989926 10.86320836770469 14.44
    vertex -305.5614430261936 10.685280261682406 14.44
  endloop
endfacet
facet normal 0.0 0.0 1.0
  outer loop
    vertex -301.11666888615787 14.599999999999868 14.44
    vertex -305.5614430261936 10.685280261682406 14.44
    vertex -304.91587244879605 11.13591245740611 14.44
  endloop
endfacet
facet normal 0.0 0.0 1.0
  outer loop
    vertex -304.91587244879605 11.13591245740611 14.44
    vertex -305.5614430261936 10.685280261682406 14.44
    vertex -305.4340614195703 10.46337521360552 14.44
  endloop
endfacet
facet normal 0.0 0.0 1.0
  outer loop
    vertex -304.91587244879605 11.13591245740611 14.44
    vertex -305.4340614195703 10.46337521360552 14.44
    vertex -305.3538256410088 10.195234181375 14.44
  endloop
endfacet
facet normal 0.0 0.0 1.0
  outer loop
    vertex -304.91587244879605 11.13591245740611 14.44
    vertex -305.3538256410088 10.195234181375 14.44
    vertex -305.3270803814883 9.878598122891942 14.44
  endloop
endfacet
facet normal 0.0 0.0 1.0
  outer loop
    vertex -301.11666888615787 14.599999999999868 14.44
    vertex -304.91587244879605 11.13591245740611 14.44
    vertex -303.0988415150916 11.13591245740611 14.44
  endloop
endfacet
facet normal 0.0 0.0 1.0
  outer loop
    vertex -301.11666888615787 14.599999999999868 14.44
    vertex -303.0988415150916 11.13591245740611 14.44
    vertex -301.11666888615787 5.399999999999875 14.44
  endloop
endfacet
facet normal 0.0 0.0 1.0
  outer loop
    vertex -304.21650345841147 10.47260511302352 14.44
    vertex -303.14782778786486 10.723210028256313 14.44
    vertex -304.24370882910983 10.723210028256318 14.44
  endloop
endfacet
facet normal 0.0 0.0 1.0
  outer loop
    vertex -303.14782778786486 10.723210028256313 14.44
    vertex -304.21650345841147 10.47260511302352 14.44
    vertex -303.2848232964681 10.076701931090321 14.44
  endloop
endfacet
facet normal 0.0 0.0 1.0
  outer loop
    vertex -304.8523840252131 10.706050994855506 14.44
    vertex -304.91587244879605 11.13591245740611 14.44
    vertex -304.8523840252131 8.415264684126758 14.44
  endloop
endfacet
facet normal 0.0 -1.0 0.0
  outer loop
    vertex -301.11666888615787 5.399999999999875 14.44
    vertex -311.9166688861579 5.399999999999875 4.999999999999994
    vertex -301.11666888615787 5.399999999999875 4.999999999999994
  endloop
endfacet
facet normal 0.0 -1.0 0.0
  outer loop
    vertex -311.9166688861579 5.399999999999875 4.999999999999994
    vertex -301.11666888615787 5.399999999999875 14.44
    vertex -311.9166688861579 5.399999999999875 14.44
  endloop
endfacet
facet normal 0.0 1.0 0.0
  outer loop
    vertex -311.9166688861579 14.599999999999868 14.44
    vertex -301.11666888615787 14.599999999999868 4.999999999999994
    vertex -311.9166688861579 14.599999999999868 4.999999999999994
  endloop
endfacet
facet normal 0.0 1.0 0.0
  outer loop
    vertex -301.11666888615787 14.599999999999868 4.999999999999994
    vertex -311.9166688861579 14.599999999999868 14.44
    vertex -301.11666888615787 14.599999999999868 14.44
  endloop
endfacet
facet normal 0.0 0.0 -1.0
  outer loop
    vertex -301.11666888615787 14.599999999999868 4.999999999999994
    vertex -311.9166688861579 5.399999999999875 4.999999999999994
    vertex -311.9166688861579 14.599999999999868 4.999999999999994
  endloop
endfacet
facet normal 0.0 0.0 -1.0
  outer loop
    vertex -311.9166688861579 5.399999999999875 4.999999999999994
    vertex -301.11666888615787 14.599999999999868 4.999999999999994
    vertex -301.11666888615787 5.399999999999875 4.999999999999994
  endloop
endfacet
facet normal 9.239460558534048e-16 -3.4241693230201027e-16 1.0
  outer loop
    vertex -306.7564832154965 10.44730937668748 14.44
    vertex -306.75465660871527 10.740922578863595 14.44
    vertex -306.7945928751626 10.739095972082218 14.44
  endloop
endfacet
facet normal 9.239460558534048e-16 -3.4241693230201027e-16 1.0
  outer loop
    vertex -306.75465660871527 10.740922578863595 14.44
    vertex -306.7564832154965 10.44730937668748 14.44
    vertex -306.7564832154964 8.868705979673317 14.44
  endloop
endfacet
facet normal 9.239460558534048e-16 -3.4241693230201027e-16 1.0
  outer loop
    vertex -306.75465660871527 10.740922578863595 14.44
    vertex -306.7564832154964 8.868705979673317 14.44
    vertex -306.5803505809128 8.880260651358533 14.44
  endloop
endfacet
facet normal 9.239460558534048e-16 -3.4241693230201027e-16 1.0
  outer loop
    vertex -306.75465660871527 10.740922578863595 14.44
    vertex -306.5803505809128 8.880260651358533 14.44
    vertex -306.53222571929206 10.724382792837542 14.44
  endloop
endfacet
facet normal 9.239460558534048e-16 -3.4241693230201027e-16 1.0
  outer loop
    vertex -306.53222571929206 10.724382792837542 14.44
    vertex -306.5803505809128 8.880260651358533 14.44
    vertex -306.433270680704 8.91492466641417 14.44
  endloop
endfacet
facet normal 9.239460558534048e-16 -3.4241693230201027e-16 1.0
  outer loop
    vertex -306.53222571929206 10.724382792837542 14.44
    vertex -306.433270680704 8.91492466641417 14.44
    vertex -306.3551832408001 10.674763434759354 14.44
  endloop
endfacet
facet normal 9.239460558534048e-16 -3.4241693230201027e-16 1.0
  outer loop
    vertex -306.3551832408001 10.674763434759354 14.44
    vertex -306.433270680704 8.91492466641417 14.44
    vertex -306.21173925674145 9.038165272436471 14.44
  endloop
endfacet
facet normal 9.239460558534048e-16 -3.4241693230201027e-16 1.0
  outer loop
    vertex -306.3551832408001 10.674763434759354 14.44
    vertex -306.21173925674145 9.038165272436471 14.44
    vertex -306.21763075550786 10.594787117388416 14.44
  endloop
endfacet
facet normal 9.239460558534048e-16 -3.4241693230201027e-16 1.0
  outer loop
    vertex -306.21763075550786 10.594787117388416 14.44
    vertex -306.21173925674145 9.038165272436471 14.44
    vertex -306.11366984568366 10.487176453484073 14.44
  endloop
endfacet
facet normal 9.239460558534048e-16 -3.4241693230201027e-16 1.0
  outer loop
    vertex -306.11366984568366 10.487176453484073 14.44
    vertex -306.21173925674145 9.038165272436471 14.44
    vertex -306.0737335792364 9.214875640604502 14.439999999999998
  endloop
endfacet
facet normal 9.239460558534048e-16 -3.4241693230201027e-16 1.0
  outer loop
    vertex -306.11366984568366 10.487176453484073 14.44
    vertex -306.0737335792364 9.214875640604502 14.439999999999998
    vertex -306.0403530322032 10.35396907826264 14.44
  endloop
endfacet
facet normal 9.239460558534048e-16 -3.4241693230201027e-16 1.0
  outer loop
    vertex -306.0403530322032 10.35396907826264 14.44
    vertex -306.0737335792364 9.214875640604502 14.439999999999998
    vertex -305.9992855149651 9.420590310391955 14.439999999999998
  endloop
endfacet
facet normal 9.239460558534048e-16 -3.4241693230201027e-16 1.0
  outer loop
    vertex -306.0403530322032 10.35396907826264 14.44
    vertex -305.9992855149651 9.420590310391955 14.439999999999998
    vertex -305.9947328359418 10.197202626940534 14.44
  endloop
endfacet
facet normal 9.239460558534048e-16 -3.4241693230201027e-16 1.0
  outer loop
    vertex -305.9947328359418 10.197202626940534 14.44
    vertex -305.9992855149651 9.420590310391955 14.439999999999998
    vertex -305.9684130927738 9.631729448802874 14.44
  endloop
endfacet
facet normal 9.239460558534048e-16 -3.4241693230201027e-16 1.0
  outer loop
    vertex -305.9947328359418 10.197202626940534 14.44
    vertex -305.9684130927738 9.631729448802874 14.44
    vertex -305.96296094829 9.825654202092348 14.44
  endloop
endfacet
facet normal 0.0 0.0 1.0
  outer loop
    vertex -308.56557117728795 9.586064279268458 14.44
    vertex -308.83582595335076 10.210071901991135 14.44
    vertex -308.9718528068426 9.586064279268458 14.44
  endloop
endfacet
facet normal 0.0 0.0 1.0
  outer loop
    vertex -308.83582595335076 10.210071901991135 14.44
    vertex -308.56557117728795 9.586064279268458 14.44
    vertex -308.6961735621564 10.210071901991132 14.44
  endloop
endfacet
facet normal 0.0 0.0 1.0
  outer loop
    vertex -308.83582595335076 10.210071901991135 14.44
    vertex -308.6961735621564 10.210071901991132 14.44
    vertex -308.76508645436286 10.828655056090321 14.44
  endloop
endfacet
facet normal -0.7191978522171897 -0.6948053319932005 -5.608626254700339e-14
  outer loop
    vertex -306.21763075550786 10.594787117388398 14.999999999999993
    vertex -306.11366984568366 10.487176453484073 14.44
    vertex -306.1136698456837 10.487176453484047 14.999999999999993
  endloop
endfacet
facet normal -0.7191978522171897 -0.6948053319932005 -5.608626254700339e-14
  outer loop
    vertex -306.11366984568366 10.487176453484073 14.44
    vertex -306.21763075550786 10.594787117388398 14.999999999999993
    vertex -306.21763075550786 10.594787117388416 14.44
  endloop
endfacet
facet normal -0.8760693551826045 -0.4821851147743317 -4.742913192162906e-14
  outer loop
    vertex -306.1136698456837 10.487176453484047 14.999999999999993
    vertex -306.0403530322032 10.35396907826264 14.44
    vertex -306.0403530322032 10.353969078262638 14.999999999999993
  endloop
endfacet
facet normal -0.8760693551826045 -0.4821851147743317 -4.742913192162906e-14
  outer loop
    vertex -306.0403530322032 10.35396907826264 14.44
    vertex -306.1136698456837 10.487176453484047 14.999999999999993
    vertex -306.11366984568366 10.487176453484073 14.44
  endloop
endfacet
facet normal 0.0 0.0 1.0
  outer loop
    vertex -306.7564832154964 10.447309376687487 14.999999999999993
    vertex -306.79459287516244 10.739095972082223 14.999999999999993
    vertex -306.7564832154964 8.868705979673317 14.999999999999993
  endloop
endfacet
facet normal 0.0 0.0 1.0
  outer loop
    vertex -306.7541030915086 8.415264684126758 14.999999999999993
    vertex -307.3923637822981 10.704224388074126 14.999999999999993
    vertex -307.3923637822981 8.415264684126758 14.999999999999993
  endloop
endfacet
facet normal 0.0 0.0 1.0
  outer loop
    vertex -307.3923637822981 10.704224388074126 14.999999999999993
    vertex -306.7541030915086 8.415264684126758 14.999999999999993
    vertex -307.2654284489226 11.15008249789194 14.999999999999993
  endloop
endfacet
facet normal 0.0 0.0 1.0
  outer loop
    vertex -307.2654284489226 11.15008249789194 14.999999999999993
    vertex -306.7541030915086 8.415264684126758 14.999999999999993
    vertex -307.0686945958102 11.158938773195585 14.999999999999993
  endloop
endfacet
facet normal 0.0 0.0 1.0
  outer loop
    vertex -307.0686945958102 11.158938773195585 14.999999999999993
    vertex -306.7541030915086 8.415264684126758 14.999999999999993
    vertex -306.8855634280471 11.16425253837777 14.999999999999993
  endloop
endfacet
facet normal 0.0 0.0 1.0
  outer loop
    vertex -306.8855634280471 11.16425253837777 14.999999999999993
    vertex -306.7541030915086 8.415264684126758 14.999999999999993
    vertex -306.79459287516244 10.739095972082223 14.999999999999993
  endloop
endfacet
facet normal 0.0 0.0 1.0
  outer loop
    vertex -306.79459287516244 10.739095972082223 14.999999999999993
    vertex -306.7541030915086 8.415264684126758 14.999999999999993
    vertex -306.7564832154964 8.868705979673317 14.999999999999993
  endloop
endfacet
facet normal 0.0 0.0 1.0
  outer loop
    vertex -306.7564832154964 8.868705979673317 14.999999999999993
    vertex -306.7541030915086 8.415264684126758 14.999999999999993
    vertex -306.5803505809127 8.880260651358538 14.999999999999993
  endloop
endfacet
facet normal 0.0 0.0 1.0
  outer loop
    vertex -306.5803505809127 8.880260651358538 14.999999999999993
    vertex -306.7541030915086 8.415264684126758 14.999999999999993
    vertex -306.3842013803497 8.450620595690523 14.999999999999993
  endloop
endfacet
facet normal 0.0 0.0 1.0
  outer loop
    vertex -306.5803505809127 8.880260651358538 14.999999999999993
    vertex -306.3842013803497 8.450620595690523 14.999999999999993
    vertex -306.43327068070397 8.914924666414207 14.999999999999993
  endloop
endfacet
facet normal 0.0 0.0 1.0
  outer loop
    vertex -306.43327068070397 8.914924666414207 14.999999999999993
    vertex -306.3842013803497 8.450620595690523 14.999999999999993
    vertex -306.2117392567414 9.038165272436474 14.999999999999993
  endloop
endfacet
facet normal 0.0 0.0 1.0
  outer loop
    vertex -306.2117392567414 9.038165272436474 14.999999999999993
    vertex -306.3842013803497 8.450620595690523 14.999999999999993
    vertex -306.04603004305216 8.560327706014409 14.999999999999993
  endloop
endfacet
facet normal 0.0 0.0 1.0
  outer loop
    vertex -306.2117392567414 9.038165272436474 14.999999999999993
    vertex -306.04603004305216 8.560327706014409 14.999999999999993
    vertex -306.0737335792363 9.214875640604491 14.999999999999993
  endloop
endfacet
facet normal 0.0 0.0 1.0
  outer loop
    vertex -306.0737335792363 9.214875640604491 14.999999999999993
    vertex -306.04603004305216 8.560327706014409 14.999999999999993
    vertex -305.9992855149651 9.42059031039194 14.999999999999993
  endloop
endfacet
facet normal 0.0 0.0 1.0
  outer loop
    vertex -305.9992855149651 9.42059031039194 14.999999999999993
    vertex -306.04603004305216 8.560327706014409 14.999999999999993
    vertex -305.7550045338163 8.751637090503277 14.999999999999993
  endloop
endfacet
facet normal 0.0 0.0 1.0
  outer loop
    vertex -305.9992855149651 9.42059031039194 14.999999999999993
    vertex -305.7550045338163 8.751637090503277 14.999999999999993
    vertex -305.9684130927738 9.631729448802872 14.999999999999993
  endloop
endfacet
facet normal 0.0 0.0 1.0
  outer loop
    vertex -305.9684130927738 9.631729448802872 14.999999999999993
    vertex -305.7550045338163 8.751637090503277 14.999999999999993
    vertex -305.96296094829 9.825654202092347 14.999999999999993
  endloop
endfacet
facet normal 0.0 0.0 1.0
  outer loop
    vertex -305.96296094829 9.825654202092347 14.999999999999993
    vertex -305.7550045338163 8.751637090503277 14.999999999999993
    vertex -305.93565871208045 10.998522567793255 14.999999999999993
  endloop
endfacet
facet normal 0.0 0.0 1.0
  outer loop
    vertex -305.93565871208045 10.998522567793255 14.999999999999993
    vertex -305.7550045338163 8.751637090503277 14.999999999999993
    vertex -305.72962576989926 10.863208367704694 14.999999999999993
  endloop
endfacet
facet normal 0.0 0.0 1.0
  outer loop
    vertex -305.72962576989926 10.863208367704694 14.999999999999993
    vertex -305.7550045338163 8.751637090503277 14.999999999999993
    vertex -305.63192652347345 8.879928541034653 14.999999999999993
  endloop
endfacet
facet normal 0.0 0.0 1.0
  outer loop
    vertex -305.72962576989926 10.863208367704694 14.999999999999993
    vertex -305.63192652347345 8.879928541034653 14.999999999999993
    vertex -305.56144302619356 10.685280261682427 14.999999999999993
  endloop
endfacet
facet normal 0.0 0.0 1.0
  outer loop
    vertex -305.56144302619356 10.685280261682427 14.999999999999993
    vertex -305.63192652347345 8.879928541034653 14.999999999999993
    vertex -305.5274397723031 9.030886521171292 14.999999999999993
  endloop
endfacet
facet normal 0.0 0.0 1.0
  outer loop
    vertex -305.56144302619356 10.685280261682427 14.999999999999993
    vertex -305.5274397723031 9.030886521171292 14.999999999999993
    vertex -305.43406141957036 10.463375213605504 14.999999999999993
  endloop
endfacet
facet normal 0.0 0.0 1.0
  outer loop
    vertex -305.43406141957036 10.463375213605504 14.999999999999993
    vertex -305.5274397723031 9.030886521171292 14.999999999999993
    vertex -305.4429003974613 9.205413955856264 14.999999999999993
  endloop
endfacet
facet normal 0.0 0.0 1.0
  outer loop
    vertex -305.43406141957036 10.463375213605504 14.999999999999993
    vertex -305.4429003974613 9.205413955856264 14.999999999999993
    vertex -305.37966451610373 9.40441377003263 14.999999999999993
  endloop
endfacet
facet normal 0.0 0.0 1.0
  outer loop
    vertex -305.43406141957036 10.463375213605504 14.999999999999993
    vertex -305.37966451610373 9.40441377003263 14.999999999999993
    vertex -305.3538256410089 10.195234181374987 14.999999999999993
  endloop
endfacet
facet normal 0.0 0.0 1.0
  outer loop
    vertex -305.3538256410089 10.195234181374987 14.999999999999993
    vertex -305.37966451610373 9.40441377003263 14.999999999999993
    vertex -305.3402264151422 9.62857786020849 14.999999999999993
  endloop
endfacet
facet normal 0.0 0.0 1.0
  outer loop
    vertex -305.3538256410089 10.195234181374987 14.999999999999993
    vertex -305.3402264151422 9.62857786020849 14.999999999999993
    vertex -305.3270803814884 9.87859812289194 14.999999999999993
  endloop
endfacet
facet normal 0.0 0.0 1.0
  outer loop
    vertex -306.79459287516244 10.739095972082223 14.999999999999993
    vertex -306.7396009406989 11.1660237934385 14.999999999999993
    vertex -306.8855634280471 11.16425253837777 14.999999999999993
  endloop
endfacet
facet normal 0.0 0.0 1.0
  outer loop
    vertex -306.7396009406989 11.1660237934385 14.999999999999993
    vertex -306.79459287516244 10.739095972082223 14.999999999999993
    vertex -306.7546566087151 10.7409225788636 14.999999999999993
  endloop
endfacet
facet normal 0.0 0.0 1.0
  outer loop
    vertex -306.7396009406989 11.1660237934385 14.999999999999993
    vertex -306.7546566087151 10.7409225788636 14.999999999999993
    vertex -306.532225719292 10.724382792837536 14.999999999999993
  endloop
endfacet
facet normal 0.0 0.0 1.0
  outer loop
    vertex -306.7396009406989 11.1660237934385 14.999999999999993
    vertex -306.532225719292 10.724382792837536 14.999999999999993
    vertex -306.44653433676416 11.14766431959614 14.999999999999993
  endloop
endfacet
facet normal 0.0 0.0 1.0
  outer loop
    vertex -306.44653433676416 11.14766431959614 14.999999999999993
    vertex -306.532225719292 10.724382792837536 14.999999999999993
    vertex -306.3551832408001 10.674763434759349 14.999999999999993
  endloop
endfacet
facet normal 0.0 0.0 1.0
  outer loop
    vertex -306.44653433676416 11.14766431959614 14.999999999999993
    vertex -306.3551832408001 10.674763434759349 14.999999999999993
    vertex -306.1765909141301 11.092585898069066 14.999999999999993
  endloop
endfacet
facet normal 0.0 0.0 1.0
  outer loop
    vertex -306.1765909141301 11.092585898069066 14.999999999999993
    vertex -306.3551832408001 10.674763434759349 14.999999999999993
    vertex -306.21763075550786 10.594787117388398 14.999999999999993
  endloop
endfacet
facet normal 0.0 0.0 1.0
  outer loop
    vertex -306.1765909141301 11.092585898069066 14.999999999999993
    vertex -306.21763075550786 10.594787117388398 14.999999999999993
    vertex -306.1136698456837 10.487176453484047 14.999999999999993
  endloop
endfacet
facet normal 0.0 0.0 1.0
  outer loop
    vertex -306.1765909141301 11.092585898069066 14.999999999999993
    vertex -306.1136698456837 10.487176453484047 14.999999999999993
    vertex -305.93565871208045 10.998522567793255 14.999999999999993
  endloop
endfacet
facet normal 0.0 0.0 1.0
  outer loop
    vertex -305.93565871208045 10.998522567793255 14.999999999999993
    vertex -306.1136698456837 10.487176453484047 14.999999999999993
    vertex -306.0403530322032 10.353969078262638 14.999999999999993
  endloop
endfacet
facet normal 0.0 0.0 1.0
  outer loop
    vertex -305.93565871208045 10.998522567793255 14.999999999999993
    vertex -306.0403530322032 10.353969078262638 14.999999999999993
    vertex -305.9947328359418 10.197202626940523 14.999999999999993
  endloop
endfacet
facet normal 0.0 0.0 1.0
  outer loop
    vertex -305.93565871208045 10.998522567793255 14.999999999999993
    vertex -305.9947328359418 10.197202626940523 14.999999999999993
    vertex -305.96296094829 9.825654202092347 14.999999999999993
  endloop
endfacet
facet normal 0.0 0.0 1.0
  outer loop
    vertex -307.2654284489226 11.15008249789194 14.999999999999993
    vertex -307.45405327496 11.13591245740611 14.999999999999993
    vertex -307.3923637822981 10.704224388074126 14.999999999999993
  endloop
endfacet
facet normal -0.5026389742640964 -0.8644964207853825 -1.741456843721231e-14
  outer loop
    vertex -306.21763075550786 10.594787117388398 14.999999999999993
    vertex -306.3551832408001 10.674763434759354 14.44
    vertex -306.21763075550786 10.594787117388416 14.44
  endloop
endfacet
facet normal -0.5026389742640964 -0.8644964207853825 -1.741456843721231e-14
  outer loop
    vertex -306.3551832408001 10.674763434759354 14.44
    vertex -306.21763075550786 10.594787117388398 14.999999999999993
    vertex -306.3551832408001 10.674763434759349 14.999999999999993
  endloop
endfacet
facet normal -0.07491179866095103 0.9971901636204507 5.529019805992507e-15
  outer loop
    vertex -307.45405327496 11.13591245740611 14.999999999999993
    vertex -307.26542844892265 11.15008249789194 14.44
    vertex -307.45405327496 11.135912457406112 14.44
  endloop
endfacet
facet normal -0.07491179866095103 0.9971901636204507 5.529019805992507e-15
  outer loop
    vertex -307.26542844892265 11.15008249789194 14.44
    vertex -307.45405327496 11.13591245740611 14.999999999999993
    vertex -307.2654284489226 11.15008249789194 14.999999999999993
  endloop
endfacet
facet normal -0.04497098598847592 0.998988293434525 4.8813511849552054e-15
  outer loop
    vertex -307.2654284489226 11.15008249789194 14.999999999999993
    vertex -307.06869459581026 11.158938773195587 14.44
    vertex -307.26542844892265 11.15008249789194 14.44
  endloop
endfacet
facet normal -0.04497098598847592 0.998988293434525 4.8813511849552054e-15
  outer loop
    vertex -307.06869459581026 11.158938773195587 14.44
    vertex -307.2654284489226 11.15008249789194 14.999999999999993
    vertex -307.0686945958102 11.158938773195585 14.999999999999993
  endloop
endfacet
facet normal -0.02900396326730893 0.9995792965617029 3.594281046004461e-15
  outer loop
    vertex -307.0686945958102 11.158938773195585 14.999999999999993
    vertex -306.88556342804713 11.16425253837777 14.44
    vertex -307.06869459581026 11.158938773195587 14.44
  endloop
endfacet
facet normal -0.02900396326730893 0.9995792965617029 3.594281046004461e-15
  outer loop
    vertex -306.88556342804713 11.16425253837777 14.44
    vertex -307.0686945958102 11.158938773195585 14.999999999999993
    vertex -306.8855634280471 11.16425253837777 14.999999999999993
  endloop
endfacet
facet normal -0.01213410850507825 0.9999263789953674 3.0064821159739856e-15
  outer loop
    vertex -306.8855634280471 11.16425253837777 14.999999999999993
    vertex -306.7396009406989 11.166023793438503 14.44
    vertex -306.88556342804713 11.16425253837777 14.44
  endloop
endfacet
facet normal -0.01213410850507825 0.9999263789953674 3.0064821159739856e-15
  outer loop
    vertex -306.7396009406989 11.166023793438503 14.44
    vertex -306.8855634280471 11.16425253837777 14.999999999999993
    vertex -306.7396009406989 11.1660237934385 14.999999999999993
  endloop
endfacet
facet normal 0.06252351214758105 0.9980434912511236 5.0168389163437124e-15
  outer loop
    vertex -306.7396009406989 11.1660237934385 14.999999999999993
    vertex -306.4465343367642 11.147664319596146 14.44
    vertex -306.7396009406989 11.166023793438503 14.44
  endloop
endfacet
facet normal 0.06252351214758105 0.9980434912511236 5.0168389163437124e-15
  outer loop
    vertex -306.4465343367642 11.147664319596146 14.44
    vertex -306.7396009406989 11.1660237934385 14.999999999999993
    vertex -306.44653433676416 11.14766431959614 14.999999999999993
  endloop
endfacet
facet normal 0.199917943030359 0.9798126433428537 9.214256888999992e-15
  outer loop
    vertex -306.44653433676416 11.14766431959614 14.999999999999993
    vertex -306.1765909141301 11.09258589806908 14.44
    vertex -306.4465343367642 11.147664319596146 14.44
  endloop
endfacet
facet normal 0.199917943030359 0.9798126433428537 9.214256888999992e-15
  outer loop
    vertex -306.1765909141301 11.09258589806908 14.44
    vertex -306.44653433676416 11.14766431959614 14.999999999999993
    vertex -306.1765909141301 11.092585898069066 14.999999999999993
  endloop
endfacet
facet normal 0.3636800761025527 0.9315239139421175 1.875828908191074e-14
  outer loop
    vertex -306.1765909141301 11.092585898069066 14.999999999999993
    vertex -305.93565871208045 10.998522567793264 14.44
    vertex -306.1765909141301 11.09258589806908 14.44
  endloop
endfacet
facet normal 0.3636800761025527 0.9315239139421175 1.875828908191074e-14
  outer loop
    vertex -305.93565871208045 10.998522567793264 14.44
    vertex -306.1765909141301 11.092585898069066 14.999999999999993
    vertex -305.93565871208045 10.998522567793255 14.999999999999993
  endloop
endfacet
facet normal 0.5489543835713336 0.8358523103741577 3.1577700973146264e-15
  outer loop
    vertex -305.93565871208045 10.998522567793255 14.999999999999993
    vertex -305.72962576989926 10.86320836770469 14.44
    vertex -305.93565871208045 10.998522567793264 14.44
  endloop
endfacet
facet normal 0.5489543835713336 0.8358523103741577 3.1577700973146264e-15
  outer loop
    vertex -305.72962576989926 10.86320836770469 14.44
    vertex -305.93565871208045 10.998522567793255 14.999999999999993
    vertex -305.72962576989926 10.863208367704694 14.999999999999993
  endloop
endfacet
facet normal 0.726728602176163 0.6869246965854994 -4.397808389666578e-14
  outer loop
    vertex -305.72962576989926 10.86320836770469 14.44
    vertex -305.56144302619356 10.685280261682427 14.999999999999993
    vertex -305.5614430261936 10.685280261682406 14.44
  endloop
endfacet
facet normal 0.726728602176163 0.6869246965854994 -4.397808389666578e-14
  outer loop
    vertex -305.56144302619356 10.685280261682427 14.999999999999993
    vertex -305.72962576989926 10.86320836770469 14.44
    vertex -305.72962576989926 10.863208367704694 14.999999999999993
  endloop
endfacet
facet normal 0.8672671506883548 0.49784303684685854 -1.2552872159516688e-15
  outer loop
    vertex -305.4340614195703 10.46337521360552 14.44
    vertex -305.56144302619356 10.685280261682427 14.999999999999993
    vertex -305.43406141957036 10.463375213605504 14.999999999999993
  endloop
endfacet
facet normal 0.8672671506883548 0.49784303684685854 -1.2552872159516688e-15
  outer loop
    vertex -305.56144302619356 10.685280261682427 14.999999999999993
    vertex -305.4340614195703 10.46337521360552 14.44
    vertex -305.5614430261936 10.685280261682406 14.44
  endloop
endfacet
facet normal 0.9580291393178252 0.2866708360087355 8.475858525042223e-14
  outer loop
    vertex -305.3538256410088 10.195234181375 14.44
    vertex -305.43406141957036 10.463375213605504 14.999999999999993
    vertex -305.3538256410089 10.195234181374987 14.999999999999993
  endloop
endfacet
facet normal 0.9580291393178252 0.2866708360087355 8.475858525042223e-14
  outer loop
    vertex -305.43406141957036 10.463375213605504 14.999999999999993
    vertex -305.3538256410088 10.195234181375 14.44
    vertex -305.4340614195703 10.46337521360552 14.44
  endloop
endfacet
facet normal 0.9964516491493566 0.08416716050531745 8.134862937249396e-14
  outer loop
    vertex -305.3270803814883 9.878598122891942 14.44
    vertex -305.3538256410089 10.195234181374987 14.999999999999993
    vertex -305.3270803814884 9.87859812289194 14.999999999999993
  endloop
endfacet
facet normal 0.9964516491493566 0.08416716050531745 8.134862937249396e-14
  outer loop
    vertex -305.3538256410089 10.195234181374987 14.999999999999993
    vertex -305.3270803814883 9.878598122891942 14.44
    vertex -305.3538256410088 10.195234181375 14.44
  endloop
endfacet
facet normal 0.9986205381105271 -0.052507341047146036 3.996592009689517e-14
  outer loop
    vertex -305.3402264151422 9.628577860208493 14.44
    vertex -305.3270803814884 9.87859812289194 14.999999999999993
    vertex -305.3402264151422 9.62857786020849 14.999999999999993
  endloop
endfacet
facet normal 0.9986205381105271 -0.052507341047146036 3.996592009689517e-14
  outer loop
    vertex -305.3270803814884 9.87859812289194 14.999999999999993
    vertex -305.3402264151422 9.628577860208493 14.44
    vertex -305.3270803814883 9.878598122891942 14.44
  endloop
endfacet
facet normal 0.9848738566667009 -0.1732728670463401 -1.3068011149002162e-15
  outer loop
    vertex -305.37966451610373 9.404413770032633 14.44
    vertex -305.3402264151422 9.62857786020849 14.999999999999993
    vertex -305.37966451610373 9.40441377003263 14.999999999999993
  endloop
endfacet
facet normal 0.9848738566667009 -0.1732728670463401 -1.3068011149002162e-15
  outer loop
    vertex -305.3402264151422 9.62857786020849 14.999999999999993
    vertex -305.37966451610373 9.404413770032633 14.44
    vertex -305.3402264151422 9.628577860208493 14.44
  endloop
endfacet
facet normal 0.9530395127993009 -0.30284597907727157 -4.576492593023267e-15
  outer loop
    vertex -305.4429003974613 9.205413955856276 14.44
    vertex -305.37966451610373 9.40441377003263 14.999999999999993
    vertex -305.4429003974613 9.205413955856264 14.999999999999993
  endloop
endfacet
facet normal 0.9530395127993009 -0.30284597907727157 -4.576492593023267e-15
  outer loop
    vertex -305.37966451610373 9.40441377003263 14.999999999999993
    vertex -305.4429003974613 9.205413955856276 14.44
    vertex -305.37966451610373 9.404413770032633 14.44
  endloop
endfacet
facet normal 0.8999759652563231 -0.4359395164021607 -4.722800587864643e-14
  outer loop
    vertex -305.5274397723032 9.030886521171308 14.44
    vertex -305.4429003974613 9.205413955856264 14.999999999999993
    vertex -305.5274397723031 9.030886521171292 14.999999999999993
  endloop
endfacet
facet normal 0.8999759652563231 -0.4359395164021607 -4.722800587864643e-14
  outer loop
    vertex -305.4429003974613 9.205413955856264 14.999999999999993
    vertex -305.5274397723032 9.030886521171308 14.44
    vertex -305.4429003974613 9.205413955856276 14.44
  endloop
endfacet
facet normal 0.8222498481764066 -0.5691266881581606 -3.958534462934691e-14
  outer loop
    vertex -305.5274397723032 9.030886521171308 14.44
    vertex -305.63192652347345 8.879928541034653 14.999999999999993
    vertex -305.63192652347345 8.879928541034651 14.44
  endloop
endfacet
facet normal 0.8222498481764066 -0.5691266881581606 -3.958534462934691e-14
  outer loop
    vertex -305.63192652347345 8.879928541034653 14.999999999999993
    vertex -305.5274397723032 9.030886521171308 14.44
    vertex -305.5274397723031 9.030886521171292 14.999999999999993
  endloop
endfacet
facet normal 0.7216170950324361 -0.6922924007649861 3.4936533002796402e-15
  outer loop
    vertex -305.63192652347345 8.879928541034651 14.44
    vertex -305.7550045338163 8.751637090503277 14.999999999999993
    vertex -305.7550045338163 8.751637090503275 14.44
  endloop
endfacet
facet normal 0.7216170950324361 -0.6922924007649861 3.4936533002796402e-15
  outer loop
    vertex -305.7550045338163 8.751637090503277 14.999999999999993
    vertex -305.63192652347345 8.879928541034651 14.44
    vertex -305.63192652347345 8.879928541034653 14.999999999999993
  endloop
endfacet
facet normal 0.5493063209524165 -0.8356210658915444 -1.0484158044264145e-15
  outer loop
    vertex -305.7550045338163 8.751637090503277 14.999999999999993
    vertex -306.04603004305216 8.560327706014414 14.44
    vertex -305.7550045338163 8.751637090503275 14.44
  endloop
endfacet
facet normal 0.5493063209524165 -0.8356210658915444 -1.0484158044264145e-15
  outer loop
    vertex -306.04603004305216 8.560327706014414 14.44
    vertex -305.7550045338163 8.751637090503277 14.999999999999993
    vertex -306.04603004305216 8.560327706014409 14.999999999999993
  endloop
endfacet
facet normal 0.3085808449795505 -0.9511981192746896 -8.103435654952961e-15
  outer loop
    vertex -306.04603004305216 8.560327706014409 14.999999999999993
    vertex -306.3842013803498 8.450620595690499 14.44
    vertex -306.04603004305216 8.560327706014414 14.44
  endloop
endfacet
facet normal 0.3085808449795505 -0.9511981192746896 -8.103435654952961e-15
  outer loop
    vertex -306.3842013803498 8.450620595690499 14.44
    vertex -306.04603004305216 8.560327706014409 14.999999999999993
    vertex -306.3842013803497 8.450620595690523 14.999999999999993
  endloop
endfacet
facet normal 0.09514826425296298 -0.9954631122295031 1.9831508026638585e-14
  outer loop
    vertex -306.3842013803497 8.450620595690523 14.999999999999993
    vertex -306.7541030915087 8.415264684126747 14.44
    vertex -306.3842013803498 8.450620595690499 14.44
  endloop
endfacet
facet normal 0.09514826425296298 -0.9954631122295031 1.9831508026638585e-14
  outer loop
    vertex -306.7541030915087 8.415264684126747 14.44
    vertex -306.3842013803497 8.450620595690523 14.999999999999993
    vertex -306.7541030915086 8.415264684126758 14.999999999999993
  endloop
endfacet
facet normal -8.836409709204828e-15 -1.0 1.0071308866242986e-14
  outer loop
    vertex -306.7541030915086 8.415264684126758 14.999999999999993
    vertex -307.3923637822981 8.415264684126758 14.44
    vertex -306.7541030915087 8.415264684126747 14.44
  endloop
endfacet
facet normal -8.836409709204828e-15 -1.0 1.0071308866242986e-14
  outer loop
    vertex -307.3923637822981 8.415264684126758 14.44
    vertex -306.7541030915086 8.415264684126758 14.999999999999993
    vertex -307.3923637822981 8.415264684126758 14.999999999999993
  endloop
endfacet
facet normal -1.0 0.0 0.0
  outer loop
    vertex -307.3923637822981 10.704224388074126 14.999999999999993
    vertex -307.3923637822981 8.415264684126758 14.44
    vertex -307.3923637822981 8.415264684126758 14.999999999999993
  endloop
endfacet
facet normal -1.0 0.0 0.0
  outer loop
    vertex -307.3923637822981 8.415264684126758 14.44
    vertex -307.3923637822981 10.704224388074126 14.999999999999993
    vertex -307.3923637822981 10.704224388074126 14.44
  endloop
endfacet
facet normal -0.9899431460612361 -0.1414657823163696 -3.589256233694261e-16
  outer loop
    vertex -307.45405327496 11.13591245740611 14.999999999999993
    vertex -307.3923637822981 10.704224388074126 14.44
    vertex -307.3923637822981 10.704224388074126 14.999999999999993
  endloop
endfacet
facet normal -0.9899431460612361 -0.1414657823163696 -3.589256233694261e-16
  outer loop
    vertex -307.3923637822981 10.704224388074126 14.44
    vertex -307.45405327496 11.13591245740611 14.999999999999993
    vertex -307.45405327496 11.135912457406112 14.44
  endloop
endfacet
facet normal 1.0 1.4290943439659072e-14 -4.0285235464970613e-14
  outer loop
    vertex -306.7564832154965 10.44730937668748 14.44
    vertex -306.7564832154964 8.868705979673317 14.999999999999993
    vertex -306.7564832154964 8.868705979673317 14.44
  endloop
endfacet
facet normal 1.0 1.4290943439659072e-14 -4.0285235464970613e-14
  outer loop
    vertex -306.7564832154964 8.868705979673317 14.999999999999993
    vertex -306.7564832154965 10.44730937668748 14.44
    vertex -306.7564832154964 10.447309376687487 14.999999999999993
  endloop
endfacet
facet normal -0.06546139576302694 0.997855102539821 -1.00688926498608e-15
  outer loop
    vertex -306.7564832154964 8.868705979673317 14.999999999999993
    vertex -306.5803505809128 8.880260651358533 14.44
    vertex -306.7564832154964 8.868705979673317 14.44
  endloop
endfacet
facet normal -0.06546139576302694 0.997855102539821 -1.00688926498608e-15
  outer loop
    vertex -306.5803505809128 8.880260651358533 14.44
    vertex -306.7564832154964 8.868705979673317 14.999999999999993
    vertex -306.5803505809127 8.880260651358538 14.999999999999993
  endloop
endfacet
facet normal -0.22939661284750873 0.9733330334546805 -1.1489451482671968e-14
  outer loop
    vertex -306.5803505809127 8.880260651358538 14.999999999999993
    vertex -306.433270680704 8.91492466641417 14.44
    vertex -306.5803505809128 8.880260651358533 14.44
  endloop
endfacet
facet normal -0.22939661284750873 0.9733330334546805 -1.1489451482671968e-14
  outer loop
    vertex -306.433270680704 8.91492466641417 14.44
    vertex -306.5803505809127 8.880260651358538 14.999999999999993
    vertex -306.43327068070397 8.914924666414207 14.999999999999993
  endloop
endfacet
facet normal -0.4861480333803088 0.8738764727582832 6.164080771042742e-15
  outer loop
    vertex -306.43327068070397 8.914924666414207 14.999999999999993
    vertex -306.21173925674145 9.038165272436471 14.44
    vertex -306.433270680704 8.91492466641417 14.44
  endloop
endfacet
facet normal -0.4861480333803088 0.8738764727582832 6.164080771042742e-15
  outer loop
    vertex -306.21173925674145 9.038165272436471 14.44
    vertex -306.43327068070397 8.914924666414207 14.999999999999993
    vertex -306.2117392567414 9.038165272436474 14.999999999999993
  endloop
endfacet
facet normal -0.7881310293024185 0.6155074984520581 6.736950427229466e-14
  outer loop
    vertex -306.2117392567414 9.038165272436474 14.999999999999993
    vertex -306.0737335792364 9.214875640604502 14.439999999999998
    vertex -306.21173925674145 9.038165272436471 14.44
  endloop
endfacet
facet normal -0.7881310293024185 0.6155074984520581 6.736950427229466e-14
  outer loop
    vertex -306.0737335792364 9.214875640604502 14.439999999999998
    vertex -306.2117392567414 9.038165272436474 14.999999999999993
    vertex -306.0737335792363 9.214875640604491 14.999999999999993
  endloop
endfacet
facet normal -0.9403168074150883 0.34030031103820013 8.348136293095304e-14
  outer loop
    vertex -305.9992855149651 9.42059031039194 14.999999999999993
    vertex -306.0737335792364 9.214875640604502 14.439999999999998
    vertex -306.0737335792363 9.214875640604491 14.999999999999993
  endloop
endfacet
facet normal -0.9403168074150883 0.34030031103820013 8.348136293095304e-14
  outer loop
    vertex -306.0737335792364 9.214875640604502 14.439999999999998
    vertex -305.9992855149651 9.42059031039194 14.999999999999993
    vertex -305.9992855149651 9.420590310391955 14.439999999999998
  endloop
endfacet
facet normal -0.9894785063470355 0.14467994151657568 4.186662366964045e-14
  outer loop
    vertex -305.9684130927738 9.631729448802872 14.999999999999993
    vertex -305.9992855149651 9.420590310391955 14.439999999999998
    vertex -305.9992855149651 9.42059031039194 14.999999999999993
  endloop
endfacet
facet normal -0.9894785063470355 0.14467994151657568 4.186662366964045e-14
  outer loop
    vertex -305.9992855149651 9.420590310391955 14.439999999999998
    vertex -305.9684130927738 9.631729448802872 14.999999999999993
    vertex -305.9684130927738 9.631729448802874 14.44
  endloop
endfacet
facet normal -0.999605014773177 0.028103637492619578 1.061728549392164e-16
  outer loop
    vertex -305.96296094829 9.825654202092347 14.999999999999993
    vertex -305.9684130927738 9.631729448802874 14.44
    vertex -305.9684130927738 9.631729448802872 14.999999999999993
  endloop
endfacet
facet normal -0.999605014773177 0.028103637492619578 1.061728549392164e-16
  outer loop
    vertex -305.9684130927738 9.631729448802874 14.44
    vertex -305.96296094829 9.825654202092347 14.999999999999993
    vertex -305.96296094829 9.825654202092348 14.44
  endloop
endfacet
facet normal -0.9963637698616502 -0.08520116259230526 -9.644577779661161e-16
  outer loop
    vertex -305.9947328359418 10.197202626940523 14.999999999999993
    vertex -305.96296094829 9.825654202092348 14.44
    vertex -305.96296094829 9.825654202092347 14.999999999999993
  endloop
endfacet
facet normal -0.9963637698616502 -0.08520116259230526 -9.644577779661161e-16
  outer loop
    vertex -305.96296094829 9.825654202092348 14.44
    vertex -305.9947328359418 10.197202626940523 14.999999999999993
    vertex -305.9947328359418 10.197202626940534 14.44
  endloop
endfacet
facet normal -0.9601699771914217 -0.27941656160690437 -2.8123606412955515e-15
  outer loop
    vertex -306.0403530322032 10.353969078262638 14.999999999999993
    vertex -305.9947328359418 10.197202626940534 14.44
    vertex -305.9947328359418 10.197202626940523 14.999999999999993
  endloop
endfacet
facet normal -0.9601699771914217 -0.27941656160690437 -2.8123606412955515e-15
  outer loop
    vertex -305.9947328359418 10.197202626940534 14.44
    vertex -306.0403530322032 10.353969078262638 14.999999999999993
    vertex -306.0403530322032 10.35396907826264 14.44
  endloop
endfacet
facet normal -0.26986929710580726 -0.9628969635841717 2.3856652450111486e-15
  outer loop
    vertex -306.3551832408001 10.674763434759349 14.999999999999993
    vertex -306.53222571929206 10.724382792837542 14.44
    vertex -306.3551832408001 10.674763434759354 14.44
  endloop
endfacet
facet normal -0.26986929710580726 -0.9628969635841717 2.3856652450111486e-15
  outer loop
    vertex -306.53222571929206 10.724382792837542 14.44
    vertex -306.3551832408001 10.674763434759349 14.999999999999993
    vertex -306.532225719292 10.724382792837536 14.999999999999993
  endloop
endfacet
facet normal -0.07415448532203013 -0.9972467660045958 1.3205792968608683e-14
  outer loop
    vertex -306.532225719292 10.724382792837536 14.999999999999993
    vertex -306.75465660871527 10.740922578863595 14.44
    vertex -306.53222571929206 10.724382792837542 14.44
  endloop
endfacet
facet normal -0.07415448532203013 -0.9972467660045958 1.3205792968608683e-14
  outer loop
    vertex -306.75465660871527 10.740922578863595 14.44
    vertex -306.532225719292 10.724382792837536 14.999999999999993
    vertex -306.7546566087151 10.7409225788636 14.999999999999993
  endloop
endfacet
facet normal 0.045690279386348426 -0.9989556538553639 -9.830037171378802e-16
  outer loop
    vertex -306.7546566087151 10.7409225788636 14.999999999999993
    vertex -306.7945928751626 10.739095972082218 14.44
    vertex -306.75465660871527 10.740922578863595 14.44
  endloop
endfacet
facet normal 0.045690279386348426 -0.9989556538553639 -9.830037171378802e-16
  outer loop
    vertex -306.7945928751626 10.739095972082218 14.44
    vertex -306.7546566087151 10.7409225788636 14.999999999999993
    vertex -306.79459287516244 10.739095972082223 14.999999999999993
  endloop
endfacet
facet normal 0.9915783700217939 0.12950805420869654 -1.6124480483187058e-13
  outer loop
    vertex -306.7945928751626 10.739095972082218 14.44
    vertex -306.7564832154964 10.447309376687487 14.999999999999993
    vertex -306.7564832154965 10.44730937668748 14.44
  endloop
endfacet
facet normal 0.9915783700217939 0.12950805420869654 -1.6124480483187058e-13
  outer loop
    vertex -306.7564832154964 10.447309376687487 14.999999999999993
    vertex -306.7945928751626 10.739095972082218 14.44
    vertex -306.79459287516244 10.739095972082223 14.999999999999993
  endloop
endfacet
facet normal -2.5732414161890805e-15 -1.0 -5.0356544331213164e-15
  outer loop
    vertex -303.14782778786486 10.723210028256313 14.999999999999993
    vertex -304.24370882910983 10.723210028256318 14.44
    vertex -303.14782778786486 10.723210028256313 14.44
  endloop
endfacet
facet normal -2.5732414161890805e-15 -1.0 -5.0356544331213164e-15
  outer loop
    vertex -304.24370882910983 10.723210028256318 14.44
    vertex -303.14782778786486 10.723210028256313 14.999999999999993
    vertex -304.24370882910983 10.723210028256313 14.999999999999993
  endloop
endfacet
facet normal 0.9930291603428015 -0.11786893869408822 0.0
  outer loop
    vertex -303.0988415150916 11.13591245740611 14.44
    vertex -303.14782778786486 10.723210028256313 14.999999999999993
    vertex -303.14782778786486 10.723210028256313 14.44
  endloop
endfacet
facet normal 0.9930291603428015 -0.11786893869408822 0.0
  outer loop
    vertex -303.14782778786486 10.723210028256313 14.999999999999993
    vertex -303.0988415150916 11.13591245740611 14.44
    vertex -303.0988415150916 11.13591245740611 14.999999999999993
  endloop
endfacet
facet normal 0.0 0.0 1.0
  outer loop
    vertex -303.2848232964681 9.690568327851455 14.999999999999993
    vertex -304.21650345841147 10.076701931090321 14.999999999999993
    vertex -304.21650345841147 9.690568327851455 14.999999999999993
  endloop
endfacet
facet normal 0.0 0.0 1.0
  outer loop
    vertex -304.21650345841147 10.076701931090321 14.999999999999993
    vertex -303.2848232964681 9.690568327851455 14.999999999999993
    vertex -303.2848232964681 10.076701931090321 14.999999999999993
  endloop
endfacet
facet normal 0.0 0.0 1.0
  outer loop
    vertex -304.21650345841147 8.415264684126758 14.999999999999993
    vertex -304.8523840252131 10.706050994855502 14.999999999999993
    vertex -304.8523840252131 8.415264684126758 14.999999999999993
  endloop
endfacet
facet normal 0.0 0.0 1.0
  outer loop
    vertex -304.8523840252131 10.706050994855502 14.999999999999993
    vertex -304.21650345841147 8.415264684126758 14.999999999999993
    vertex -304.24370882910983 10.723210028256313 14.999999999999993
  endloop
endfacet
facet normal 0.0 0.0 1.0
  outer loop
    vertex -304.24370882910983 10.723210028256313 14.999999999999993
    vertex -304.21650345841147 8.415264684126758 14.999999999999993
    vertex -304.21650345841147 10.47260511302352 14.999999999999993
  endloop
endfacet
facet normal 0.0 0.0 1.0
  outer loop
    vertex -304.21650345841147 10.47260511302352 14.999999999999993
    vertex -304.21650345841147 8.415264684126758 14.999999999999993
    vertex -304.21650345841147 9.690568327851455 14.999999999999993
  endloop
endfacet
facet normal 0.0 0.0 1.0
  outer loop
    vertex -304.21650345841147 10.47260511302352 14.999999999999993
    vertex -304.21650345841147 9.690568327851455 14.999999999999993
    vertex -304.21650345841147 10.076701931090321 14.999999999999993
  endloop
endfacet
facet normal 0.0 0.0 1.0
  outer loop
    vertex -304.8523840252131 10.706050994855502 14.999999999999993
    vertex -303.0988415150916 11.13591245740611 14.999999999999993
    vertex -304.91587244879605 11.13591245740611 14.999999999999993
  endloop
endfacet
facet normal 0.0 0.0 1.0
  outer loop
    vertex -303.0988415150916 11.13591245740611 14.999999999999993
    vertex -304.8523840252131 10.706050994855502 14.999999999999993
    vertex -304.24370882910983 10.723210028256313 14.999999999999993
  endloop
endfacet
facet normal 0.0 0.0 1.0
  outer loop
    vertex -303.0988415150916 11.13591245740611 14.999999999999993
    vertex -304.24370882910983 10.723210028256313 14.999999999999993
    vertex -303.14782778786486 10.723210028256313 14.999999999999993
  endloop
endfacet
facet normal 0.9941590688690843 0.10792472277173153 5.431375305751586e-16
  outer loop
    vertex -304.24370882910983 10.723210028256318 14.44
    vertex -304.21650345841147 10.47260511302352 14.999999999999993
    vertex -304.21650345841147 10.47260511302352 14.44
  endloop
endfacet
facet normal 0.9941590688690843 0.10792472277173153 5.431375305751586e-16
  outer loop
    vertex -304.21650345841147 10.47260511302352 14.999999999999993
    vertex -304.24370882910983 10.723210028256318 14.44
    vertex -304.24370882910983 10.723210028256313 14.999999999999993
  endloop
endfacet
facet normal 0.0 -1.0 0.0
  outer loop
    vertex -304.21650345841147 8.415264684126758 14.999999999999993
    vertex -304.8523840252131 8.415264684126758 14.44
    vertex -304.21650345841147 8.415264684126758 14.44
  endloop
endfacet
facet normal 0.0 -1.0 0.0
  outer loop
    vertex -304.8523840252131 8.415264684126758 14.44
    vertex -304.21650345841147 8.415264684126758 14.999999999999993
    vertex -304.8523840252131 8.415264684126758 14.999999999999993
  endloop
endfacet
facet normal -1.0 0.0 0.0
  outer loop
    vertex -304.8523840252131 10.706050994855502 14.999999999999993
    vertex -304.8523840252131 8.415264684126758 14.44
    vertex -304.8523840252131 8.415264684126758 14.999999999999993
  endloop
endfacet
facet normal -1.0 0.0 0.0
  outer loop
    vertex -304.8523840252131 8.415264684126758 14.44
    vertex -304.8523840252131 10.706050994855502 14.999999999999993
    vertex -304.8523840252131 10.706050994855506 14.44
  endloop
endfacet
facet normal -0.9892683397932421 -0.14611006769802848 -3.7070905960695743e-16
  outer loop
    vertex -304.91587244879605 11.13591245740611 14.999999999999993
    vertex -304.8523840252131 10.706050994855506 14.44
    vertex -304.8523840252131 10.706050994855502 14.999999999999993
  endloop
endfacet
facet normal -0.9892683397932421 -0.14611006769802848 -3.7070905960695743e-16
  outer loop
    vertex -304.8523840252131 10.706050994855506 14.44
    vertex -304.91587244879605 11.13591245740611 14.999999999999993
    vertex -304.91587244879605 11.13591245740611 14.44
  endloop
endfacet
facet normal 0.0 1.0 0.0
  outer loop
    vertex -304.91587244879605 11.13591245740611 14.999999999999993
    vertex -303.0988415150916 11.13591245740611 14.44
    vertex -304.91587244879605 11.13591245740611 14.44
  endloop
endfacet
facet normal 0.0 1.0 0.0
  outer loop
    vertex -303.0988415150916 11.13591245740611 14.44
    vertex -304.91587244879605 11.13591245740611 14.999999999999993
    vertex -303.0988415150916 11.13591245740611 14.999999999999993
  endloop
endfacet
facet normal 1.0 0.0 0.0
  outer loop
    vertex -304.21650345841147 10.47260511302352 14.44
    vertex -304.21650345841147 10.076701931090321 14.999999999999993
    vertex -304.21650345841147 10.076701931090321 14.44
  endloop
endfacet
facet normal 1.0 0.0 0.0
  outer loop
    vertex -304.21650345841147 10.076701931090321 14.999999999999993
    vertex -304.21650345841147 10.47260511302352 14.44
    vertex -304.21650345841147 10.47260511302352 14.999999999999993
  endloop
endfacet
facet normal 0.0 1.0 0.0
  outer loop
    vertex -304.21650345841147 10.076701931090321 14.999999999999993
    vertex -303.2848232964681 10.076701931090321 14.44
    vertex -304.21650345841147 10.076701931090321 14.44
  endloop
endfacet
facet normal 0.0 1.0 0.0
  outer loop
    vertex -303.2848232964681 10.076701931090321 14.44
    vertex -304.21650345841147 10.076701931090321 14.999999999999993
    vertex -303.2848232964681 10.076701931090321 14.999999999999993
  endloop
endfacet
facet normal 1.0 0.0 0.0
  outer loop
    vertex -303.2848232964681 10.076701931090321 14.44
    vertex -303.2848232964681 9.690568327851455 14.999999999999993
    vertex -303.2848232964681 9.690568327851455 14.44
  endloop
endfacet
facet normal 1.0 0.0 0.0
  outer loop
    vertex -303.2848232964681 9.690568327851455 14.999999999999993
    vertex -303.2848232964681 10.076701931090321 14.44
    vertex -303.2848232964681 10.076701931090321 14.999999999999993
  endloop
endfacet
facet normal 0.0 -1.0 0.0
  outer loop
    vertex -303.2848232964681 9.690568327851455 14.999999999999993
    vertex -304.21650345841147 9.690568327851455 14.44
    vertex -303.2848232964681 9.690568327851455 14.44
  endloop
endfacet
facet normal 0.0 -1.0 0.0
  outer loop
    vertex -304.21650345841147 9.690568327851455 14.44
    vertex -303.2848232964681 9.690568327851455 14.999999999999993
    vertex -304.21650345841147 9.690568327851455 14.999999999999993
  endloop
endfacet
facet normal 1.0 0.0 0.0
  outer loop
    vertex -304.21650345841147 9.690568327851455 14.44
    vertex -304.21650345841147 8.415264684126758 14.999999999999993
    vertex -304.21650345841147 8.415264684126758 14.44
  endloop
endfacet
facet normal 1.0 0.0 0.0
  outer loop
    vertex -304.21650345841147 8.415264684126758 14.999999999999993
    vertex -304.21650345841147 9.690568327851455 14.44
    vertex -304.21650345841147 9.690568327851455 14.999999999999993
  endloop
endfacet
facet normal 0.0 0.0 1.0
  outer loop
    vertex -308.4585763012758 9.18930314566522 14.999999999999993
    vertex -308.9718528068426 9.586064279268458 14.999999999999993
    vertex -309.0788753587151 9.18930314566522 14.999999999999993
  endloop
endfacet
facet normal 0.0 0.0 1.0
  outer loop
    vertex -308.9718528068426 9.586064279268458 14.999999999999993
    vertex -308.4585763012758 9.18930314566522 14.999999999999993
    vertex -308.56557117728795 9.586064279268458 14.999999999999993
  endloop
endfacet
facet normal 0.0 0.0 1.0
  outer loop
    vertex -309.2620618781989 8.415264684126758 14.999999999999993
    vertex -309.19721733746 10.743413406292749 14.999999999999993
    vertex -309.84126228305723 8.415264684126758 14.999999999999993
  endloop
endfacet
facet normal 0.0 0.0 1.0
  outer loop
    vertex -309.19721733746 10.743413406292749 14.999999999999993
    vertex -309.2620618781989 8.415264684126758 14.999999999999993
    vertex -309.0788753587151 9.18930314566522 14.999999999999993
  endloop
endfacet
facet normal 0.0 0.0 1.0
  outer loop
    vertex -309.19721733746 10.743413406292749 14.999999999999993
    vertex -309.0788753587151 9.18930314566522 14.999999999999993
    vertex -309.1319023070957 11.135082181596394 14.999999999999993
  endloop
endfacet
facet normal 0.0 0.0 1.0
  outer loop
    vertex -309.1319023070957 11.135082181596394 14.999999999999993
    vertex -309.0788753587151 9.18930314566522 14.999999999999993
    vertex -308.76508645436286 10.828655056090321 14.999999999999993
  endloop
endfacet
facet normal 0.0 0.0 1.0
  outer loop
    vertex -309.1319023070957 11.135082181596394 14.999999999999993
    vertex -308.76508645436286 10.828655056090321 14.999999999999993
    vertex -308.44609448826975 11.171337558620685 14.999999999999993
  endloop
endfacet
facet normal 0.0 0.0 1.0
  outer loop
    vertex -308.76508645436286 10.828655056090321 14.999999999999993
    vertex -309.0788753587151 9.18930314566522 14.999999999999993
    vertex -308.9718528068426 9.586064279268458 14.999999999999993
  endloop
endfacet
facet normal 0.0 0.0 1.0
  outer loop
    vertex -308.76508645436286 10.828655056090321 14.999999999999993
    vertex -308.9718528068426 9.586064279268458 14.999999999999993
    vertex -308.83582595335076 10.21007190199113 14.999999999999993
  endloop
endfacet
facet normal 0.0 0.0 1.0
  outer loop
    vertex -308.44609448826975 11.171337558620685 14.999999999999993
    vertex -308.76508645436286 10.828655056090321 14.999999999999993
    vertex -308.6961735621564 10.21007190199113 14.999999999999993
  endloop
endfacet
facet normal 0.0 0.0 1.0
  outer loop
    vertex -308.44609448826975 11.171337558620685 14.999999999999993
    vertex -308.6961735621564 10.21007190199113 14.999999999999993
    vertex -308.56557117728795 9.586064279268458 14.999999999999993
  endloop
endfacet
facet normal 0.0 0.0 1.0
  outer loop
    vertex -308.44609448826975 11.171337558620685 14.999999999999993
    vertex -308.56557117728795 9.586064279268458 14.999999999999993
    vertex -308.4585763012758 9.18930314566522 14.999999999999993
  endloop
endfacet
facet normal 0.0 0.0 1.0
  outer loop
    vertex -308.44609448826975 11.171337558620685 14.999999999999993
    vertex -308.4585763012758 9.18930314566522 14.999999999999993
    vertex -308.2699376373082 8.415264684126758 14.999999999999993
  endloop
endfacet
facet normal 0.0 0.0 1.0
  outer loop
    vertex -308.44609448826975 11.171337558620685 14.999999999999993
    vertex -308.2699376373082 8.415264684126758 14.999999999999993
    vertex -307.664168406539 8.415264684126758 14.999999999999993
  endloop
endfacet
facet normal -0.9638016619259512 0.2666202476721798 4.1776587888095633e-14
  outer loop
    vertex -309.19721733746 10.743413406292749 14.999999999999993
    vertex -309.84126228305723 8.415264684126758 14.44
    vertex -309.84126228305723 8.415264684126758 14.999999999999993
  endloop
endfacet
facet normal -0.9638016619259512 0.2666202476721798 4.1776587888095633e-14
  outer loop
    vertex -309.84126228305723 8.415264684126758 14.44
    vertex -309.19721733746 10.743413406292749 14.999999999999993
    vertex -309.1972173374601 10.743413406292762 14.44
  endloop
endfacet
facet normal 0.0 -1.0 0.0
  outer loop
    vertex -309.2620618781989 8.415264684126758 14.999999999999993
    vertex -309.84126228305723 8.415264684126758 14.44
    vertex -309.2620618781989 8.415264684126758 14.44
  endloop
endfacet
facet normal 0.0 -1.0 0.0
  outer loop
    vertex -309.84126228305723 8.415264684126758 14.44
    vertex -309.2620618781989 8.415264684126758 14.999999999999993
    vertex -309.84126228305723 8.415264684126758 14.999999999999993
  endloop
endfacet
facet normal 0.9731192884861194 -0.23030165083270387 0.0
  outer loop
    vertex -309.0788753587151 9.18930314566522 14.44
    vertex -309.2620618781989 8.415264684126758 14.999999999999993
    vertex -309.2620618781989 8.415264684126758 14.44
  endloop
endfacet
facet normal 0.9731192884861194 -0.23030165083270387 0.0
  outer loop
    vertex -309.2620618781989 8.415264684126758 14.999999999999993
    vertex -309.0788753587151 9.18930314566522 14.44
    vertex -309.0788753587151 9.18930314566522 14.999999999999993
  endloop
endfacet
facet normal 0.0 -1.0 0.0
  outer loop
    vertex -308.4585763012758 9.18930314566522 14.999999999999993
    vertex -309.0788753587151 9.18930314566522 14.44
    vertex -308.4585763012758 9.18930314566522 14.44
  endloop
endfacet
facet normal 0.0 -1.0 0.0
  outer loop
    vertex -309.0788753587151 9.18930314566522 14.44
    vertex -308.4585763012758 9.18930314566522 14.999999999999993
    vertex -309.0788753587151 9.18930314566522 14.999999999999993
  endloop
endfacet
facet normal -0.9715640134819038 -0.2367770421872337 0.0
  outer loop
    vertex -308.4585763012758 9.18930314566522 14.999999999999993
    vertex -308.2699376373082 8.415264684126758 14.44
    vertex -308.2699376373082 8.415264684126758 14.999999999999993
  endloop
endfacet
facet normal -0.9715640134819038 -0.2367770421872337 0.0
  outer loop
    vertex -308.2699376373082 8.415264684126758 14.44
    vertex -308.4585763012758 9.18930314566522 14.999999999999993
    vertex -308.4585763012758 9.18930314566522 14.44
  endloop
endfacet
facet normal -1.1637956912102015e-15 -1.0 1.258913608280329e-15
  outer loop
    vertex -307.664168406539 8.415264684126758 14.999999999999993
    vertex -308.2699376373082 8.415264684126758 14.44
    vertex -307.664168406539 8.415264684126758 14.44
  endloop
endfacet
facet normal -1.1637956912102015e-15 -1.0 1.258913608280329e-15
  outer loop
    vertex -308.2699376373082 8.415264684126758 14.44
    vertex -307.664168406539 8.415264684126758 14.999999999999993
    vertex -308.2699376373082 8.415264684126758 14.999999999999993
  endloop
endfacet
facet normal 0.9620315680746051 0.272938201847811 6.087878529404815e-16
  outer loop
    vertex -308.44609448826975 11.171337558620689 14.44
    vertex -307.664168406539 8.415264684126758 14.999999999999993
    vertex -307.664168406539 8.415264684126758 14.44
  endloop
endfacet
facet normal 0.9620315680746051 0.272938201847811 6.087878529404815e-16
  outer loop
    vertex -307.664168406539 8.415264684126758 14.999999999999993
    vertex -308.44609448826975 11.171337558620689 14.44
    vertex -308.44609448826975 11.171337558620685 14.999999999999993
  endloop
endfacet
facet normal -0.052791496339969844 0.9986055567210644 1.218693410232733e-14
  outer loop
    vertex -309.1319023070957 11.135082181596394 14.999999999999993
    vertex -308.44609448826975 11.171337558620689 14.44
    vertex -309.13190230709574 11.1350821815964 14.44
  endloop
endfacet
facet normal -0.052791496339969844 0.9986055567210644 1.218693410232733e-14
  outer loop
    vertex -308.44609448826975 11.171337558620689 14.44
    vertex -309.1319023070957 11.135082181596394 14.999999999999993
    vertex -308.44609448826975 11.171337558620685 14.999999999999993
  endloop
endfacet
facet normal -0.9863788496551742 0.16448940681069865 8.237532493881084e-14
  outer loop
    vertex -309.1319023070957 11.135082181596394 14.999999999999993
    vertex -309.1972173374601 10.743413406292762 14.44
    vertex -309.19721733746 10.743413406292749 14.999999999999993
  endloop
endfacet
facet normal -0.9863788496551742 0.16448940681069865 8.237532493881084e-14
  outer loop
    vertex -309.1972173374601 10.743413406292762 14.44
    vertex -309.1319023070957 11.135082181596394 14.999999999999993
    vertex -309.13190230709574 11.1350821815964 14.44
  endloop
endfacet
facet normal 0.993524646785626 -0.1136167955431632 -4.059767091190256e-14
  outer loop
    vertex -308.83582595335076 10.210071901991135 14.44
    vertex -308.76508645436286 10.828655056090321 14.999999999999993
    vertex -308.83582595335076 10.21007190199113 14.999999999999993
  endloop
endfacet
facet normal 0.993524646785626 -0.1136167955431632 -4.059767091190256e-14
  outer loop
    vertex -308.76508645436286 10.828655056090321 14.999999999999993
    vertex -308.83582595335076 10.210071901991135 14.44
    vertex -308.76508645436286 10.828655056090321 14.44
  endloop
endfacet
facet normal -0.9938516993871246 -0.11071946362462445 -1.4200167601088061e-16
  outer loop
    vertex -308.76508645436286 10.828655056090321 14.999999999999993
    vertex -308.6961735621564 10.210071901991132 14.44
    vertex -308.6961735621564 10.21007190199113 14.999999999999993
  endloop
endfacet
facet normal -0.9938516993871246 -0.11071946362462445 -1.4200167601088061e-16
  outer loop
    vertex -308.6961735621564 10.210071901991132 14.44
    vertex -308.76508645436286 10.828655056090321 14.999999999999993
    vertex -308.76508645436286 10.828655056090321 14.44
  endloop
endfacet
facet normal -0.9787918398489454 -0.20485735096675609 -2.6273688679574494e-16
  outer loop
    vertex -308.6961735621564 10.21007190199113 14.999999999999993
    vertex -308.56557117728795 9.586064279268458 14.44
    vertex -308.56557117728795 9.586064279268458 14.999999999999993
  endloop
endfacet
facet normal -0.9787918398489454 -0.20485735096675609 -2.6273688679574494e-16
  outer loop
    vertex -308.56557117728795 9.586064279268458 14.44
    vertex -308.6961735621564 10.21007190199113 14.999999999999993
    vertex -308.6961735621564 10.210071901991132 14.44
  endloop
endfacet
facet normal 0.0 1.0 0.0
  outer loop
    vertex -308.9718528068426 9.586064279268458 14.999999999999993
    vertex -308.56557117728795 9.586064279268458 14.44
    vertex -308.9718528068426 9.586064279268458 14.44
  endloop
endfacet
facet normal 0.0 1.0 0.0
  outer loop
    vertex -308.56557117728795 9.586064279268458 14.44
    vertex -308.9718528068426 9.586064279268458 14.999999999999993
    vertex -308.56557117728795 9.586064279268458 14.999999999999993
  endloop
endfacet
facet normal 0.9770549630281034 -0.21298732174040758 -4.044471391701251e-14
  outer loop
    vertex -308.83582595335076 10.210071901991135 14.44
    vertex -308.9718528068426 9.586064279268458 14.999999999999993
    vertex -308.9718528068426 9.586064279268458 14.44
  endloop
endfacet
facet normal 0.9770549630281034 -0.21298732174040758 -4.044471391701251e-14
  outer loop
    vertex -308.9718528068426 9.586064279268458 14.999999999999993
    vertex -308.83582595335076 10.210071901991135 14.44
    vertex -308.83582595335076 10.21007190199113 14.999999999999993
  endloop
endfacet
endsolid RMP_Front
