solid RMP_Front
facet normal -1.0 0.0 0.0
  outer loop
    vertex -313.4166688861578 15.599999999999879 8.000000000000004
    vertex -313.4166688861578 4.399999999999877 0.0
    vertex -313.4166688861578 4.399999999999877 8.000000000000004
  endloop
endfacet
facet normal -1.0 0.0 0.0
  outer loop
    vertex -313.4166688861578 4.399999999999877 0.0
    vertex -313.4166688861578 15.599999999999879 8.000000000000004
    vertex -313.4166688861578 15.599999999999879 0.0
  endloop
endfacet
facet normal 1.0 0.0 0.0
  outer loop
    vertex -299.61666888615787 15.599999999999879 0.0
    vertex -299.61666888615787 4.399999999999877 8.000000000000004
    vertex -299.61666888615787 4.399999999999877 0.0
  endloop
endfacet
facet normal 1.0 0.0 0.0
  outer loop
    vertex -299.61666888615787 4.399999999999877 8.000000000000004
    vertex -299.61666888615787 15.599999999999879 0.0
    vertex -299.61666888615787 15.599999999999879 8.000000000000004
  endloop
endfacet
facet normal 1.0 0.0 0.0
  outer loop
    vertex -300.36666888615787 15.349999999999879 8.000000000000004
    vertex -300.36666888615787 4.649999999999877 15.000000000000004
    vertex -300.36666888615787 4.649999999999877 8.000000000000004
  endloop
endfacet
facet normal 1.0 0.0 0.0
  outer loop
    vertex -300.36666888615787 4.649999999999877 15.000000000000004
    vertex -300.36666888615787 15.349999999999879 8.000000000000004
    vertex -300.36666888615787 15.349999999999879 15.000000000000004
  endloop
endfacet
facet normal -1.0 0.0 0.0
  outer loop
    vertex -312.6666688861578 15.349999999999879 15.000000000000004
    vertex -312.6666688861578 4.649999999999877 8.000000000000004
    vertex -312.6666688861578 4.649999999999877 15.000000000000004
  endloop
endfacet
facet normal -1.0 0.0 0.0
  outer loop
    vertex -312.6666688861578 4.649999999999877 8.000000000000004
    vertex -312.6666688861578 15.349999999999879 15.000000000000004
    vertex -312.6666688861578 15.349999999999879 8.000000000000004
  endloop
endfacet
facet normal 0.0 -1.0 0.0
  outer loop
    vertex -299.61666888615787 4.399999999999877 8.000000000000004
    vertex -313.4166688861578 4.399999999999877 0.0
    vertex -299.61666888615787 4.399999999999877 0.0
  endloop
endfacet
facet normal 0.0 -1.0 0.0
  outer loop
    vertex -313.4166688861578 4.399999999999877 0.0
    vertex -299.61666888615787 4.399999999999877 8.000000000000004
    vertex -313.4166688861578 4.399999999999877 8.000000000000004
  endloop
endfacet
facet normal 0.0 0.0 -1.0
  outer loop
    vertex -313.4166688861578 15.599999999999879 0.0
    vertex -311.9166688861579 14.599999999999868 0.0
    vertex -313.4166688861578 4.399999999999877 0.0
  endloop
endfacet
facet normal 0.0 0.0 -1.0
  outer loop
    vertex -311.9166688861579 14.599999999999868 0.0
    vertex -313.4166688861578 15.599999999999879 0.0
    vertex -299.61666888615787 15.599999999999879 0.0
  endloop
endfacet
facet normal 0.0 0.0 -1.0
  outer loop
    vertex -311.9166688861579 14.599999999999868 0.0
    vertex -299.61666888615787 15.599999999999879 0.0
    vertex -301.11666888615787 14.599999999999868 0.0
  endloop
endfacet
facet normal 0.0 0.0 -1.0
  outer loop
    vertex -301.11666888615787 14.599999999999868 0.0
    vertex -299.61666888615787 15.599999999999879 0.0
    vertex -301.11666888615787 5.399999999999875 0.0
  endloop
endfacet
facet normal 0.0 0.0 -1.0
  outer loop
    vertex -313.4166688861578 4.399999999999877 0.0
    vertex -311.9166688861579 5.399999999999875 0.0
    vertex -299.61666888615787 4.399999999999877 0.0
  endloop
endfacet
facet normal 0.0 0.0 -1.0
  outer loop
    vertex -311.9166688861579 5.399999999999875 0.0
    vertex -313.4166688861578 4.399999999999877 0.0
    vertex -311.9166688861579 14.599999999999868 0.0
  endloop
endfacet
facet normal 0.0 0.0 -1.0
  outer loop
    vertex -299.61666888615787 4.399999999999877 0.0
    vertex -311.9166688861579 5.399999999999875 0.0
    vertex -301.11666888615787 5.399999999999875 0.0
  endloop
endfacet
facet normal 0.0 0.0 -1.0
  outer loop
    vertex -299.61666888615787 4.399999999999877 0.0
    vertex -301.11666888615787 5.399999999999875 0.0
    vertex -299.61666888615787 15.599999999999879 0.0
  endloop
endfacet
facet normal 0.0 0.0 1.0
  outer loop
    vertex -303.2848232964681 10.076701931090321 15.000000000000004
    vertex -304.21650345841147 10.47260511302352 15.000000000000004
    vertex -304.21650345841147 10.076701931090321 15.000000000000004
  endloop
endfacet
facet normal 0.0 0.0 1.0
  outer loop
    vertex -312.6666688861578 4.649999999999877 15.000000000000004
    vertex -309.84126228305723 8.41526468412677 15.000000000000004
    vertex -312.6666688861578 15.349999999999879 15.000000000000004
  endloop
endfacet
facet normal 0.0 0.0 1.0
  outer loop
    vertex -309.84126228305723 8.41526468412677 15.000000000000004
    vertex -312.6666688861578 4.649999999999877 15.000000000000004
    vertex -300.36666888615787 4.649999999999877 15.000000000000004
  endloop
endfacet
facet normal 0.0 0.0 1.0
  outer loop
    vertex -309.84126228305723 8.41526468412677 15.000000000000004
    vertex -300.36666888615787 4.649999999999877 15.000000000000004
    vertex -309.26206187819884 8.415264684126756 15.000000000000004
  endloop
endfacet
facet normal 0.0 0.0 1.0
  outer loop
    vertex -309.26206187819884 8.415264684126756 15.000000000000004
    vertex -300.36666888615787 4.649999999999877 15.000000000000004
    vertex -308.26993763730815 8.415264684126765 15.000000000000004
  endloop
endfacet
facet normal 0.0 0.0 1.0
  outer loop
    vertex -309.26206187819884 8.415264684126756 15.000000000000004
    vertex -308.26993763730815 8.415264684126765 15.000000000000004
    vertex -309.0788753587151 9.18930314566522 15.000000000000004
  endloop
endfacet
facet normal 0.0 0.0 1.0
  outer loop
    vertex -309.0788753587151 9.18930314566522 15.000000000000004
    vertex -308.26993763730815 8.415264684126765 15.000000000000004
    vertex -308.4585763012758 9.18930314566522 15.000000000000004
  endloop
endfacet
facet normal 0.0 0.0 1.0
  outer loop
    vertex -308.26993763730815 8.415264684126765 15.000000000000004
    vertex -300.36666888615787 4.649999999999877 15.000000000000004
    vertex -307.664168406539 8.415264684126758 15.000000000000004
  endloop
endfacet
facet normal 0.0 0.0 1.0
  outer loop
    vertex -307.664168406539 8.415264684126758 15.000000000000004
    vertex -300.36666888615787 4.649999999999877 15.000000000000004
    vertex -307.3923637822981 8.415264684126758 15.000000000000004
  endloop
endfacet
facet normal 0.0 0.0 1.0
  outer loop
    vertex -307.664168406539 8.415264684126758 15.000000000000004
    vertex -307.3923637822981 8.415264684126758 15.000000000000004
    vertex -307.4540532749601 11.135912457406102 15.000000000000004
  endloop
endfacet
facet normal 0.0 0.0 1.0
  outer loop
    vertex -307.3923637822981 8.415264684126758 15.000000000000004
    vertex -300.36666888615787 4.649999999999877 15.000000000000004
    vertex -306.7541030915086 8.415264684126765 15.000000000000004
  endloop
endfacet
facet normal 0.0 0.0 1.0
  outer loop
    vertex -306.7541030915086 8.415264684126765 15.000000000000004
    vertex -300.36666888615787 4.649999999999877 15.000000000000004
    vertex -306.3842013803498 8.450620595690511 15.000000000000004
  endloop
endfacet
facet normal 0.0 0.0 1.0
  outer loop
    vertex -306.3842013803498 8.450620595690511 15.000000000000004
    vertex -300.36666888615787 4.649999999999877 15.000000000000004
    vertex -306.04603004305227 8.560327706014391 15.000000000000004
  endloop
endfacet
facet normal 0.0 0.0 1.0
  outer loop
    vertex -306.04603004305227 8.560327706014391 15.000000000000004
    vertex -300.36666888615787 4.649999999999877 15.000000000000004
    vertex -305.7550045338163 8.751637090503301 15.000000000000004
  endloop
endfacet
facet normal 0.0 0.0 1.0
  outer loop
    vertex -305.7550045338163 8.751637090503301 15.000000000000004
    vertex -300.36666888615787 4.649999999999877 15.000000000000004
    vertex -305.63192652347345 8.879928541034648 15.000000000000004
  endloop
endfacet
facet normal 0.0 0.0 1.0
  outer loop
    vertex -305.63192652347345 8.879928541034648 15.000000000000004
    vertex -300.36666888615787 4.649999999999877 15.000000000000004
    vertex -304.8523840252131 8.415264684126758 15.000000000000004
  endloop
endfacet
facet normal 0.0 0.0 1.0
  outer loop
    vertex -305.63192652347345 8.879928541034648 15.000000000000004
    vertex -304.8523840252131 8.415264684126758 15.000000000000004
    vertex -305.5274397723031 9.030886521171286 15.000000000000004
  endloop
endfacet
facet normal 0.0 0.0 1.0
  outer loop
    vertex -305.5274397723031 9.030886521171286 15.000000000000004
    vertex -304.8523840252131 8.415264684126758 15.000000000000004
    vertex -305.44290039746124 9.205413955856248 15.000000000000004
  endloop
endfacet
facet normal 0.0 0.0 1.0
  outer loop
    vertex -305.44290039746124 9.205413955856248 15.000000000000004
    vertex -304.8523840252131 8.415264684126758 15.000000000000004
    vertex -305.37966451610373 9.404413770032628 15.000000000000004
  endloop
endfacet
facet normal 0.0 0.0 1.0
  outer loop
    vertex -305.37966451610373 9.404413770032628 15.000000000000004
    vertex -304.8523840252131 8.415264684126758 15.000000000000004
    vertex -305.34022641514224 9.628577860208491 15.000000000000004
  endloop
endfacet
facet normal 0.0 0.0 1.0
  outer loop
    vertex -305.34022641514224 9.628577860208491 15.000000000000004
    vertex -304.8523840252131 8.415264684126758 15.000000000000004
    vertex -305.3270803814884 9.878598122891942 15.000000000000004
  endloop
endfacet
facet normal 0.0 0.0 1.0
  outer loop
    vertex -305.3270803814884 9.878598122891942 15.000000000000004
    vertex -304.8523840252131 8.415264684126758 15.000000000000004
    vertex -304.91587244879605 11.13591245740611 15.000000000000004
  endloop
endfacet
facet normal 0.0 0.0 1.0
  outer loop
    vertex -304.8523840252131 8.415264684126758 15.000000000000004
    vertex -300.36666888615787 4.649999999999877 15.000000000000004
    vertex -304.21650345841147 8.415264684126758 15.000000000000004
  endloop
endfacet
facet normal 0.0 0.0 1.0
  outer loop
    vertex -304.21650345841147 8.415264684126758 15.000000000000004
    vertex -300.36666888615787 4.649999999999877 15.000000000000004
    vertex -304.21650345841147 9.690568327851455 15.000000000000004
  endloop
endfacet
facet normal 0.0 0.0 1.0
  outer loop
    vertex -304.21650345841147 9.690568327851455 15.000000000000004
    vertex -300.36666888615787 4.649999999999877 15.000000000000004
    vertex -303.2848232964681 9.690568327851455 15.000000000000004
  endloop
endfacet
facet normal 0.0 0.0 1.0
  outer loop
    vertex -303.2848232964681 9.690568327851455 15.000000000000004
    vertex -300.36666888615787 4.649999999999877 15.000000000000004
    vertex -303.2848232964681 10.076701931090321 15.000000000000004
  endloop
endfacet
facet normal 0.0 0.0 1.0
  outer loop
    vertex -303.2848232964681 10.076701931090321 15.000000000000004
    vertex -300.36666888615787 4.649999999999877 15.000000000000004
    vertex -303.14782778786486 10.723210028256311 15.000000000000004
  endloop
endfacet
facet normal 0.0 0.0 1.0
  outer loop
    vertex -303.14782778786486 10.723210028256311 15.000000000000004
    vertex -300.36666888615787 4.649999999999877 15.000000000000004
    vertex -303.0988415150916 11.13591245740611 15.000000000000004
  endloop
endfacet
facet normal 0.0 0.0 1.0
  outer loop
    vertex -312.6666688861578 15.349999999999879 15.000000000000004
    vertex -309.13190230709574 11.135082181596403 15.000000000000004
    vertex -300.36666888615787 15.349999999999879 15.000000000000004
  endloop
endfacet
facet normal 0.0 0.0 1.0
  outer loop
    vertex -309.13190230709574 11.135082181596403 15.000000000000004
    vertex -312.6666688861578 15.349999999999879 15.000000000000004
    vertex -309.84126228305723 8.41526468412677 15.000000000000004
  endloop
endfacet
facet normal 0.0 0.0 1.0
  outer loop
    vertex -309.13190230709574 11.135082181596403 15.000000000000004
    vertex -309.84126228305723 8.41526468412677 15.000000000000004
    vertex -309.1972173374601 10.743413406292769 15.000000000000004
  endloop
endfacet
facet normal 0.0 0.0 1.0
  outer loop
    vertex -300.36666888615787 15.349999999999879 15.000000000000004
    vertex -309.13190230709574 11.135082181596403 15.000000000000004
    vertex -308.4460944882698 11.171337558620683 15.000000000000004
  endloop
endfacet
facet normal 0.0 0.0 1.0
  outer loop
    vertex -300.36666888615787 15.349999999999879 15.000000000000004
    vertex -308.4460944882698 11.171337558620683 15.000000000000004
    vertex -307.4540532749601 11.135912457406102 15.000000000000004
  endloop
endfacet
facet normal 0.0 0.0 1.0
  outer loop
    vertex -307.4540532749601 11.135912457406102 15.000000000000004
    vertex -308.4460944882698 11.171337558620683 15.000000000000004
    vertex -307.664168406539 8.415264684126758 15.000000000000004
  endloop
endfacet
facet normal 0.0 0.0 1.0
  outer loop
    vertex -300.36666888615787 15.349999999999879 15.000000000000004
    vertex -307.4540532749601 11.135912457406102 15.000000000000004
    vertex -307.2654284489227 11.150082497891937 15.000000000000004
  endloop
endfacet
facet normal 0.0 0.0 1.0
  outer loop
    vertex -300.36666888615787 15.349999999999879 15.000000000000004
    vertex -307.2654284489227 11.150082497891937 15.000000000000004
    vertex -307.06869459581026 11.158938773195583 15.000000000000004
  endloop
endfacet
facet normal 0.0 0.0 1.0
  outer loop
    vertex -300.36666888615787 15.349999999999879 15.000000000000004
    vertex -307.06869459581026 11.158938773195583 15.000000000000004
    vertex -306.8855634280471 11.16425253837777 15.000000000000004
  endloop
endfacet
facet normal 0.0 0.0 1.0
  outer loop
    vertex -300.36666888615787 15.349999999999879 15.000000000000004
    vertex -306.8855634280471 11.16425253837777 15.000000000000004
    vertex -306.73960094069895 11.166023793438496 15.000000000000004
  endloop
endfacet
facet normal 0.0 0.0 1.0
  outer loop
    vertex -300.36666888615787 15.349999999999879 15.000000000000004
    vertex -306.73960094069895 11.166023793438496 15.000000000000004
    vertex -306.44653433676416 11.147664319596135 15.000000000000004
  endloop
endfacet
facet normal 0.0 0.0 1.0
  outer loop
    vertex -300.36666888615787 15.349999999999879 15.000000000000004
    vertex -306.44653433676416 11.147664319596135 15.000000000000004
    vertex -306.1765909141301 11.09258589806907 15.000000000000004
  endloop
endfacet
facet normal 0.0 0.0 1.0
  outer loop
    vertex -300.36666888615787 15.349999999999879 15.000000000000004
    vertex -306.1765909141301 11.09258589806907 15.000000000000004
    vertex -305.93565871208057 10.99852256779331 15.000000000000004
  endloop
endfacet
facet normal 0.0 0.0 1.0
  outer loop
    vertex -300.36666888615787 15.349999999999879 15.000000000000004
    vertex -305.93565871208057 10.99852256779331 15.000000000000004
    vertex -305.7296257698993 10.863208367704758 15.000000000000004
  endloop
endfacet
facet normal 0.0 0.0 1.0
  outer loop
    vertex -300.36666888615787 15.349999999999879 15.000000000000004
    vertex -305.7296257698993 10.863208367704758 15.000000000000004
    vertex -305.56144302619356 10.685280261682422 15.000000000000004
  endloop
endfacet
facet normal 0.0 0.0 1.0
  outer loop
    vertex -300.36666888615787 15.349999999999879 15.000000000000004
    vertex -305.56144302619356 10.685280261682422 15.000000000000004
    vertex -304.91587244879605 11.13591245740611 15.000000000000004
  endloop
endfacet
facet normal 0.0 0.0 1.0
  outer loop
    vertex -304.91587244879605 11.13591245740611 15.000000000000004
    vertex -305.56144302619356 10.685280261682422 15.000000000000004
    vertex -305.4340614195703 10.463375213605518 15.000000000000004
  endloop
endfacet
facet normal 0.0 0.0 1.0
  outer loop
    vertex -304.91587244879605 11.13591245740611 15.000000000000004
    vertex -305.4340614195703 10.463375213605518 15.000000000000004
    vertex -305.3538256410088 10.195234181375003 15.000000000000004
  endloop
endfacet
facet normal 0.0 0.0 1.0
  outer loop
    vertex -304.91587244879605 11.13591245740611 15.000000000000004
    vertex -305.3538256410088 10.195234181375003 15.000000000000004
    vertex -305.3270803814884 9.878598122891942 15.000000000000004
  endloop
endfacet
facet normal 0.0 0.0 1.0
  outer loop
    vertex -300.36666888615787 15.349999999999879 15.000000000000004
    vertex -304.91587244879605 11.13591245740611 15.000000000000004
    vertex -303.0988415150916 11.13591245740611 15.000000000000004
  endloop
endfacet
facet normal 0.0 0.0 1.0
  outer loop
    vertex -300.36666888615787 15.349999999999879 15.000000000000004
    vertex -303.0988415150916 11.13591245740611 15.000000000000004
    vertex -300.36666888615787 4.649999999999877 15.000000000000004
  endloop
endfacet
facet normal 0.0 0.0 1.0
  outer loop
    vertex -304.21650345841147 10.47260511302352 15.000000000000004
    vertex -303.14782778786486 10.723210028256311 15.000000000000004
    vertex -304.24370882910983 10.723210028256315 15.000000000000004
  endloop
endfacet
facet normal 0.0 0.0 1.0
  outer loop
    vertex -303.14782778786486 10.723210028256311 15.000000000000004
    vertex -304.21650345841147 10.47260511302352 15.000000000000004
    vertex -303.2848232964681 10.076701931090321 15.000000000000004
  endloop
endfacet
facet normal 0.0 0.0 1.0
  outer loop
    vertex -304.8523840252131 10.706050994855504 15.000000000000004
    vertex -304.91587244879605 11.13591245740611 15.000000000000004
    vertex -304.8523840252131 8.415264684126758 15.000000000000004
  endloop
endfacet
facet normal 0.0 0.0 1.0
  outer loop
    vertex -307.3923637822981 10.704224388074126 15.000000000000004
    vertex -307.4540532749601 11.135912457406102 15.000000000000004
    vertex -307.3923637822981 8.415264684126758 15.000000000000004
  endloop
endfacet
facet normal 0.0 1.0 0.0
  outer loop
    vertex -313.4166688861578 15.599999999999879 8.000000000000004
    vertex -299.61666888615787 15.599999999999879 0.0
    vertex -313.4166688861578 15.599999999999879 0.0
  endloop
endfacet
facet normal 0.0 1.0 0.0
  outer loop
    vertex -299.61666888615787 15.599999999999879 0.0
    vertex -313.4166688861578 15.599999999999879 8.000000000000004
    vertex -299.61666888615787 15.599999999999879 8.000000000000004
  endloop
endfacet
facet normal -1.0 0.0 0.0
  outer loop
    vertex -301.11666888615787 14.599999999999868 4.999999999999994
    vertex -301.11666888615787 5.399999999999875 0.0
    vertex -301.11666888615787 5.399999999999875 4.999999999999994
  endloop
endfacet
facet normal -1.0 0.0 0.0
  outer loop
    vertex -301.11666888615787 5.399999999999875 0.0
    vertex -301.11666888615787 14.599999999999868 4.999999999999994
    vertex -301.11666888615787 14.599999999999868 0.0
  endloop
endfacet
facet normal 0.0 1.0 0.0
  outer loop
    vertex -311.9166688861579 5.399999999999875 4.999999999999994
    vertex -301.11666888615787 5.399999999999875 0.0
    vertex -311.9166688861579 5.399999999999875 0.0
  endloop
endfacet
facet normal 0.0 1.0 0.0
  outer loop
    vertex -301.11666888615787 5.399999999999875 0.0
    vertex -311.9166688861579 5.399999999999875 4.999999999999994
    vertex -301.11666888615787 5.399999999999875 4.999999999999994
  endloop
endfacet
facet normal 1.0 0.0 0.0
  outer loop
    vertex -311.9166688861579 14.599999999999868 0.0
    vertex -311.9166688861579 5.399999999999875 4.999999999999994
    vertex -311.9166688861579 5.399999999999875 0.0
  endloop
endfacet
facet normal 1.0 0.0 0.0
  outer loop
    vertex -311.9166688861579 5.399999999999875 4.999999999999994
    vertex -311.9166688861579 14.599999999999868 0.0
    vertex -311.9166688861579 14.599999999999868 4.999999999999994
  endloop
endfacet
facet normal 0.0 -1.0 0.0
  outer loop
    vertex -301.11666888615787 14.599999999999868 4.999999999999994
    vertex -311.9166688861579 14.599999999999868 0.0
    vertex -301.11666888615787 14.599999999999868 0.0
  endloop
endfacet
facet normal 0.0 -1.0 0.0
  outer loop
    vertex -311.9166688861579 14.599999999999868 0.0
    vertex -301.11666888615787 14.599999999999868 4.999999999999994
    vertex -311.9166688861579 14.599999999999868 4.999999999999994
  endloop
endfacet
facet normal 0.0 -1.0 0.0
  outer loop
    vertex -300.36666888615787 4.649999999999877 15.000000000000004
    vertex -312.6666688861578 4.649999999999877 8.000000000000004
    vertex -300.36666888615787 4.649999999999877 8.000000000000004
  endloop
endfacet
facet normal 0.0 -1.0 0.0
  outer loop
    vertex -312.6666688861578 4.649999999999877 8.000000000000004
    vertex -300.36666888615787 4.649999999999877 15.000000000000004
    vertex -312.6666688861578 4.649999999999877 15.000000000000004
  endloop
endfacet
facet normal 0.0 0.0 1.0
  outer loop
    vertex -313.4166688861578 4.399999999999877 8.000000000000004
    vertex -312.6666688861578 4.649999999999877 8.000000000000004
    vertex -313.4166688861578 15.599999999999879 8.000000000000004
  endloop
endfacet
facet normal 0.0 0.0 1.0
  outer loop
    vertex -312.6666688861578 4.649999999999877 8.000000000000004
    vertex -313.4166688861578 4.399999999999877 8.000000000000004
    vertex -299.61666888615787 4.399999999999877 8.000000000000004
  endloop
endfacet
facet normal 0.0 0.0 1.0
  outer loop
    vertex -312.6666688861578 4.649999999999877 8.000000000000004
    vertex -299.61666888615787 4.399999999999877 8.000000000000004
    vertex -300.36666888615787 4.649999999999877 8.000000000000004
  endloop
endfacet
facet normal 0.0 0.0 1.0
  outer loop
    vertex -300.36666888615787 4.649999999999877 8.000000000000004
    vertex -299.61666888615787 4.399999999999877 8.000000000000004
    vertex -300.36666888615787 15.349999999999879 8.000000000000004
  endloop
endfacet
facet normal 0.0 0.0 1.0
  outer loop
    vertex -313.4166688861578 15.599999999999879 8.000000000000004
    vertex -312.6666688861578 15.349999999999879 8.000000000000004
    vertex -299.61666888615787 15.599999999999879 8.000000000000004
  endloop
endfacet
facet normal 0.0 0.0 1.0
  outer loop
    vertex -312.6666688861578 15.349999999999879 8.000000000000004
    vertex -313.4166688861578 15.599999999999879 8.000000000000004
    vertex -312.6666688861578 4.649999999999877 8.000000000000004
  endloop
endfacet
facet normal 0.0 0.0 1.0
  outer loop
    vertex -299.61666888615787 15.599999999999879 8.000000000000004
    vertex -312.6666688861578 15.349999999999879 8.000000000000004
    vertex -300.36666888615787 15.349999999999879 8.000000000000004
  endloop
endfacet
facet normal 0.0 0.0 1.0
  outer loop
    vertex -299.61666888615787 15.599999999999879 8.000000000000004
    vertex -300.36666888615787 15.349999999999879 8.000000000000004
    vertex -299.61666888615787 4.399999999999877 8.000000000000004
  endloop
endfacet
facet normal 0.0 1.0 0.0
  outer loop
    vertex -312.6666688861578 15.349999999999879 15.000000000000004
    vertex -300.36666888615787 15.349999999999879 8.000000000000004
    vertex -312.6666688861578 15.349999999999879 8.000000000000004
  endloop
endfacet
facet normal 0.0 1.0 0.0
  outer loop
    vertex -300.36666888615787 15.349999999999879 8.000000000000004
    vertex -312.6666688861578 15.349999999999879 15.000000000000004
    vertex -300.36666888615787 15.349999999999879 15.000000000000004
  endloop
endfacet
facet normal 0.0 0.0 1.0
  outer loop
    vertex -306.58035058091264 8.880260651358554 15.000000000000004
    vertex -306.7564832154965 10.447309376687485 15.000000000000004
    vertex -306.75648321549653 8.868705979673315 15.000000000000004
  endloop
endfacet
facet normal 0.0 0.0 1.0
  outer loop
    vertex -306.7564832154965 10.447309376687485 15.000000000000004
    vertex -306.58035058091264 8.880260651358554 15.000000000000004
    vertex -306.7546566087152 10.7409225788636 15.000000000000004
  endloop
endfacet
facet normal 0.0 0.0 1.0
  outer loop
    vertex -306.7546566087152 10.7409225788636 15.000000000000004
    vertex -306.58035058091264 8.880260651358554 15.000000000000004
    vertex -306.53222571929206 10.724382792837543 15.000000000000004
  endloop
endfacet
facet normal 0.0 0.0 1.0
  outer loop
    vertex -306.53222571929206 10.724382792837543 15.000000000000004
    vertex -306.58035058091264 8.880260651358554 15.000000000000004
    vertex -306.433270680704 8.914924666414146 15.000000000000004
  endloop
endfacet
facet normal 0.0 0.0 1.0
  outer loop
    vertex -306.53222571929206 10.724382792837543 15.000000000000004
    vertex -306.433270680704 8.914924666414146 15.000000000000004
    vertex -306.3551832408001 10.674763434759367 15.000000000000004
  endloop
endfacet
facet normal 0.0 0.0 1.0
  outer loop
    vertex -306.3551832408001 10.674763434759367 15.000000000000004
    vertex -306.433270680704 8.914924666414146 15.000000000000004
    vertex -306.21173925674134 9.038165272436457 15.000000000000004
  endloop
endfacet
facet normal 0.0 0.0 1.0
  outer loop
    vertex -306.3551832408001 10.674763434759367 15.000000000000004
    vertex -306.21173925674134 9.038165272436457 15.000000000000004
    vertex -306.2176307555079 10.594787117388364 15.000000000000004
  endloop
endfacet
facet normal 0.0 0.0 1.0
  outer loop
    vertex -306.2176307555079 10.594787117388364 15.000000000000004
    vertex -306.21173925674134 9.038165272436457 15.000000000000004
    vertex -306.1136698456838 10.487176453484034 15.000000000000004
  endloop
endfacet
facet normal 0.0 0.0 1.0
  outer loop
    vertex -306.1136698456838 10.487176453484034 15.000000000000004
    vertex -306.21173925674134 9.038165272436457 15.000000000000004
    vertex -306.0737335792363 9.214875640604477 15.000000000000004
  endloop
endfacet
facet normal 0.0 0.0 1.0
  outer loop
    vertex -306.1136698456838 10.487176453484034 15.000000000000004
    vertex -306.0737335792363 9.214875640604477 15.000000000000004
    vertex -306.0403530322032 10.353969078262615 15.000000000000004
  endloop
endfacet
facet normal 0.0 0.0 1.0
  outer loop
    vertex -306.0403530322032 10.353969078262615 15.000000000000004
    vertex -306.0737335792363 9.214875640604477 15.000000000000004
    vertex -305.99928551496504 9.420590310391932 15.000000000000004
  endloop
endfacet
facet normal 0.0 0.0 1.0
  outer loop
    vertex -306.0403530322032 10.353969078262615 15.000000000000004
    vertex -305.99928551496504 9.420590310391932 15.000000000000004
    vertex -305.99473283594176 10.197202626940527 15.000000000000004
  endloop
endfacet
facet normal 0.0 0.0 1.0
  outer loop
    vertex -305.99473283594176 10.197202626940527 15.000000000000004
    vertex -305.99928551496504 9.420590310391932 15.000000000000004
    vertex -305.9684130927739 9.631729448802878 15.000000000000004
  endloop
endfacet
facet normal 0.0 0.0 1.0
  outer loop
    vertex -305.99473283594176 10.197202626940527 15.000000000000004
    vertex -305.9684130927739 9.631729448802878 15.000000000000004
    vertex -305.96296094828995 9.82565420209235 15.000000000000004
  endloop
endfacet
facet normal 0.0 0.0 1.0
  outer loop
    vertex -306.7546566087152 10.7409225788636 15.000000000000004
    vertex -306.7945928751625 10.739095972082216 15.000000000000004
    vertex -306.7564832154965 10.447309376687485 15.000000000000004
  endloop
endfacet
facet normal 0.0 0.0 1.0
  outer loop
    vertex -308.565571177288 9.586064279268452 15.000000000000004
    vertex -308.83582595335076 10.210071901991132 15.000000000000004
    vertex -308.9718528068426 9.586064279268458 15.000000000000004
  endloop
endfacet
facet normal 0.0 0.0 1.0
  outer loop
    vertex -308.83582595335076 10.210071901991132 15.000000000000004
    vertex -308.565571177288 9.586064279268452 15.000000000000004
    vertex -308.6961735621564 10.21007190199113 15.000000000000004
  endloop
endfacet
facet normal 0.0 0.0 1.0
  outer loop
    vertex -308.83582595335076 10.210071901991132 15.000000000000004
    vertex -308.6961735621564 10.21007190199113 15.000000000000004
    vertex -308.7650864543628 10.82865505609032 15.000000000000004
  endloop
endfacet
facet normal -1.0 0.0 0.0
  outer loop
    vertex -301.11666888615787 14.599999999999868 14.44
    vertex -301.11666888615787 5.399999999999875 4.999999999999994
    vertex -301.11666888615787 5.399999999999875 14.44
  endloop
endfacet
facet normal -1.0 0.0 0.0
  outer loop
    vertex -301.11666888615787 5.399999999999875 4.999999999999994
    vertex -301.11666888615787 14.599999999999868 14.44
    vertex -301.11666888615787 14.599999999999868 4.999999999999994
  endloop
endfacet
facet normal 1.0 0.0 0.0
  outer loop
    vertex -311.9166688861579 14.599999999999868 4.999999999999994
    vertex -311.9166688861579 5.399999999999875 14.44
    vertex -311.9166688861579 5.399999999999875 4.999999999999994
  endloop
endfacet
facet normal 1.0 0.0 0.0
  outer loop
    vertex -311.9166688861579 5.399999999999875 14.44
    vertex -311.9166688861579 14.599999999999868 4.999999999999994
    vertex -311.9166688861579 14.599999999999868 14.44
  endloop
endfacet
facet normal 0.0 0.0 -1.0
  outer loop
    vertex -303.2848232964681 9.690568327851455 14.44
    vertex -304.21650345841147 8.415264684126758 14.44
    vertex -304.21650345841147 9.690568327851455 14.44
  endloop
endfacet
facet normal 0.0 0.0 -1.0
  outer loop
    vertex -303.14782778786486 10.723210028256315 14.44
    vertex -304.21650345841147 10.47260511302352 14.44
    vertex -304.24370882910983 10.723210028256318 14.44
  endloop
endfacet
facet normal 0.0 0.0 -1.0
  outer loop
    vertex -304.21650345841147 10.47260511302352 14.44
    vertex -303.14782778786486 10.723210028256315 14.44
    vertex -304.21650345841147 10.076701931090321 14.44
  endloop
endfacet
facet normal 0.0 0.0 -1.0
  outer loop
    vertex -304.21650345841147 10.076701931090321 14.44
    vertex -303.14782778786486 10.723210028256315 14.44
    vertex -303.2848232964681 10.076701931090321 14.44
  endloop
endfacet
facet normal 0.0 0.0 -1.0
  outer loop
    vertex -303.2848232964681 10.076701931090321 14.44
    vertex -303.14782778786486 10.723210028256315 14.44
    vertex -303.2848232964681 9.690568327851455 14.44
  endloop
endfacet
facet normal 0.0 0.0 -1.0
  outer loop
    vertex -311.9166688861579 14.599999999999868 14.44
    vertex -309.13190230709574 11.135082181596408 14.44
    vertex -311.9166688861579 5.399999999999875 14.44
  endloop
endfacet
facet normal 0.0 0.0 -1.0
  outer loop
    vertex -309.13190230709574 11.135082181596408 14.44
    vertex -311.9166688861579 14.599999999999868 14.44
    vertex -301.11666888615787 14.599999999999868 14.44
  endloop
endfacet
facet normal 0.0 0.0 -1.0
  outer loop
    vertex -311.9166688861579 5.399999999999875 14.44
    vertex -309.13190230709574 11.135082181596408 14.44
    vertex -309.8412622830573 8.415264684126782 14.44
  endloop
endfacet
facet normal 0.0 0.0 -1.0
  outer loop
    vertex -309.8412622830573 8.415264684126782 14.44
    vertex -309.13190230709574 11.135082181596408 14.44
    vertex -309.19721733746013 10.74341340629277 14.44
  endloop
endfacet
facet normal 0.0 0.0 -1.0
  outer loop
    vertex -309.13190230709574 11.135082181596408 14.44
    vertex -301.11666888615787 14.599999999999868 14.44
    vertex -308.44609448826975 11.171337558620683 14.44
  endloop
endfacet
facet normal 0.0 0.0 -1.0
  outer loop
    vertex -308.44609448826975 11.171337558620683 14.44
    vertex -301.11666888615787 14.599999999999868 14.44
    vertex -307.45405327496 11.135912457406118 14.44
  endloop
endfacet
facet normal 0.0 0.0 -1.0
  outer loop
    vertex -308.44609448826975 11.171337558620683 14.44
    vertex -307.45405327496 11.135912457406118 14.44
    vertex -307.664168406539 8.415264684126758 14.44
  endloop
endfacet
facet normal 0.0 0.0 -1.0
  outer loop
    vertex -307.45405327496 11.135912457406118 14.44
    vertex -301.11666888615787 14.599999999999868 14.44
    vertex -307.2654284489227 11.15008249789194 14.44
  endloop
endfacet
facet normal 0.0 0.0 -1.0
  outer loop
    vertex -307.2654284489227 11.15008249789194 14.44
    vertex -301.11666888615787 14.599999999999868 14.44
    vertex -307.06869459581037 11.158938773195583 14.44
  endloop
endfacet
facet normal 0.0 0.0 -1.0
  outer loop
    vertex -307.06869459581037 11.158938773195583 14.44
    vertex -301.11666888615787 14.599999999999868 14.44
    vertex -306.88556342804713 11.16425253837777 14.44
  endloop
endfacet
facet normal 0.0 0.0 -1.0
  outer loop
    vertex -306.88556342804713 11.16425253837777 14.44
    vertex -301.11666888615787 14.599999999999868 14.44
    vertex -306.73960094069895 11.1660237934385 14.44
  endloop
endfacet
facet normal 0.0 0.0 -1.0
  outer loop
    vertex -306.73960094069895 11.1660237934385 14.44
    vertex -301.11666888615787 14.599999999999868 14.44
    vertex -306.4465343367642 11.147664319596158 14.44
  endloop
endfacet
facet normal 0.0 0.0 -1.0
  outer loop
    vertex -306.4465343367642 11.147664319596158 14.44
    vertex -301.11666888615787 14.599999999999868 14.44
    vertex -306.1765909141301 11.09258589806908 14.44
  endloop
endfacet
facet normal 0.0 0.0 -1.0
  outer loop
    vertex -306.1765909141301 11.09258589806908 14.44
    vertex -301.11666888615787 14.599999999999868 14.44
    vertex -305.93565871208057 10.99852256779331 14.44
  endloop
endfacet
facet normal 0.0 0.0 -1.0
  outer loop
    vertex -305.93565871208057 10.99852256779331 14.44
    vertex -301.11666888615787 14.599999999999868 14.44
    vertex -305.7296257698993 10.863208367704758 14.44
  endloop
endfacet
facet normal 0.0 0.0 -1.0
  outer loop
    vertex -305.7296257698993 10.863208367704758 14.44
    vertex -301.11666888615787 14.599999999999868 14.44
    vertex -305.56144302619356 10.685280261682427 14.44
  endloop
endfacet
facet normal 0.0 0.0 -1.0
  outer loop
    vertex -305.56144302619356 10.685280261682427 14.44
    vertex -301.11666888615787 14.599999999999868 14.44
    vertex -304.91587244879605 11.13591245740611 14.44
  endloop
endfacet
facet normal 0.0 0.0 -1.0
  outer loop
    vertex -305.56144302619356 10.685280261682427 14.44
    vertex -304.91587244879605 11.13591245740611 14.44
    vertex -305.4340614195703 10.463375213605534 14.44
  endloop
endfacet
facet normal 0.0 0.0 -1.0
  outer loop
    vertex -305.4340614195703 10.463375213605534 14.44
    vertex -304.91587244879605 11.13591245740611 14.44
    vertex -305.35382564100877 10.195234181375012 14.44
  endloop
endfacet
facet normal 0.0 0.0 -1.0
  outer loop
    vertex -305.35382564100877 10.195234181375012 14.44
    vertex -304.91587244879605 11.13591245740611 14.44
    vertex -305.3270803814884 9.878598122891944 14.44
  endloop
endfacet
facet normal 0.0 0.0 -1.0
  outer loop
    vertex -304.91587244879605 11.13591245740611 14.44
    vertex -301.11666888615787 14.599999999999868 14.44
    vertex -303.0988415150916 11.13591245740611 14.44
  endloop
endfacet
facet normal 0.0 0.0 -1.0
  outer loop
    vertex -309.8412622830573 8.415264684126782 14.44
    vertex -301.11666888615787 5.399999999999875 14.44
    vertex -311.9166688861579 5.399999999999875 14.44
  endloop
endfacet
facet normal 0.0 0.0 -1.0
  outer loop
    vertex -301.11666888615787 5.399999999999875 14.44
    vertex -309.8412622830573 8.415264684126782 14.44
    vertex -309.26206187819884 8.415264684126756 14.44
  endloop
endfacet
facet normal 0.0 0.0 -1.0
  outer loop
    vertex -301.11666888615787 5.399999999999875 14.44
    vertex -309.26206187819884 8.415264684126756 14.44
    vertex -308.26993763730815 8.415264684126765 14.44
  endloop
endfacet
facet normal 0.0 0.0 -1.0
  outer loop
    vertex -308.26993763730815 8.415264684126765 14.44
    vertex -309.26206187819884 8.415264684126756 14.44
    vertex -309.07887535871504 9.189303145665216 14.44
  endloop
endfacet
facet normal 0.0 0.0 -1.0
  outer loop
    vertex -308.26993763730815 8.415264684126765 14.44
    vertex -309.07887535871504 9.189303145665216 14.44
    vertex -308.45857630127574 9.189303145665225 14.44
  endloop
endfacet
facet normal 0.0 0.0 -1.0
  outer loop
    vertex -301.11666888615787 5.399999999999875 14.44
    vertex -308.26993763730815 8.415264684126765 14.44
    vertex -307.664168406539 8.415264684126758 14.44
  endloop
endfacet
facet normal 0.0 0.0 -1.0
  outer loop
    vertex -301.11666888615787 5.399999999999875 14.44
    vertex -307.664168406539 8.415264684126758 14.44
    vertex -307.3923637822981 8.415264684126756 14.44
  endloop
endfacet
facet normal 0.0 0.0 -1.0
  outer loop
    vertex -307.3923637822981 8.415264684126756 14.44
    vertex -307.664168406539 8.415264684126758 14.44
    vertex -307.45405327496 11.135912457406118 14.44
  endloop
endfacet
facet normal 0.0 0.0 -1.0
  outer loop
    vertex -307.3923637822981 8.415264684126756 14.44
    vertex -307.45405327496 11.135912457406118 14.44
    vertex -307.3923637822981 10.704224388074131 14.44
  endloop
endfacet
facet normal 0.0 0.0 -1.0
  outer loop
    vertex -301.11666888615787 5.399999999999875 14.44
    vertex -307.3923637822981 8.415264684126756 14.44
    vertex -306.7541030915087 8.41526468412675 14.44
  endloop
endfacet
facet normal 0.0 0.0 -1.0
  outer loop
    vertex -301.11666888615787 5.399999999999875 14.44
    vertex -306.7541030915087 8.41526468412675 14.44
    vertex -306.3842013803499 8.450620595690477 14.439999999999998
  endloop
endfacet
facet normal 0.0 0.0 -1.0
  outer loop
    vertex -301.11666888615787 5.399999999999875 14.44
    vertex -306.3842013803499 8.450620595690477 14.439999999999998
    vertex -306.04603004305227 8.560327706014391 14.439999999999998
  endloop
endfacet
facet normal 0.0 0.0 -1.0
  outer loop
    vertex -301.11666888615787 5.399999999999875 14.44
    vertex -306.04603004305227 8.560327706014391 14.439999999999998
    vertex -305.7550045338163 8.751637090503301 14.44
  endloop
endfacet
facet normal 0.0 0.0 -1.0
  outer loop
    vertex -301.11666888615787 5.399999999999875 14.44
    vertex -305.7550045338163 8.751637090503301 14.44
    vertex -305.63192652347345 8.879928541034651 14.44
  endloop
endfacet
facet normal 0.0 0.0 -1.0
  outer loop
    vertex -301.11666888615787 5.399999999999875 14.44
    vertex -305.63192652347345 8.879928541034651 14.44
    vertex -304.8523840252131 8.415264684126758 14.44
  endloop
endfacet
facet normal 0.0 0.0 -1.0
  outer loop
    vertex -304.8523840252131 8.415264684126758 14.44
    vertex -305.63192652347345 8.879928541034651 14.44
    vertex -305.5274397723031 9.030886521171299 14.44
  endloop
endfacet
facet normal 0.0 0.0 -1.0
  outer loop
    vertex -304.8523840252131 8.415264684126758 14.44
    vertex -305.5274397723031 9.030886521171299 14.44
    vertex -305.44290039746124 9.20541395585626 14.44
  endloop
endfacet
facet normal 0.0 0.0 -1.0
  outer loop
    vertex -304.8523840252131 8.415264684126758 14.44
    vertex -305.44290039746124 9.20541395585626 14.44
    vertex -305.37966451610373 9.404413770032619 14.44
  endloop
endfacet
facet normal 0.0 0.0 -1.0
  outer loop
    vertex -304.8523840252131 8.415264684126758 14.44
    vertex -305.37966451610373 9.404413770032619 14.44
    vertex -305.34022641514224 9.628577860208496 14.44
  endloop
endfacet
facet normal 0.0 0.0 -1.0
  outer loop
    vertex -304.8523840252131 8.415264684126758 14.44
    vertex -305.34022641514224 9.628577860208496 14.44
    vertex -305.3270803814884 9.878598122891944 14.44
  endloop
endfacet
facet normal 0.0 0.0 -1.0
  outer loop
    vertex -304.8523840252131 8.415264684126758 14.44
    vertex -305.3270803814884 9.878598122891944 14.44
    vertex -304.91587244879605 11.13591245740611 14.44
  endloop
endfacet
facet normal 0.0 0.0 -1.0
  outer loop
    vertex -304.8523840252131 8.415264684126758 14.44
    vertex -304.91587244879605 11.13591245740611 14.44
    vertex -304.8523840252131 10.706050994855506 14.44
  endloop
endfacet
facet normal 0.0 0.0 -1.0
  outer loop
    vertex -301.11666888615787 5.399999999999875 14.44
    vertex -304.8523840252131 8.415264684126758 14.44
    vertex -304.21650345841147 8.415264684126758 14.44
  endloop
endfacet
facet normal 0.0 0.0 -1.0
  outer loop
    vertex -301.11666888615787 5.399999999999875 14.44
    vertex -304.21650345841147 8.415264684126758 14.44
    vertex -303.2848232964681 9.690568327851455 14.44
  endloop
endfacet
facet normal 0.0 0.0 -1.0
  outer loop
    vertex -301.11666888615787 5.399999999999875 14.44
    vertex -303.2848232964681 9.690568327851455 14.44
    vertex -303.14782778786486 10.723210028256315 14.44
  endloop
endfacet
facet normal 0.0 0.0 -1.0
  outer loop
    vertex -301.11666888615787 5.399999999999875 14.44
    vertex -303.14782778786486 10.723210028256315 14.44
    vertex -303.0988415150916 11.13591245740611 14.44
  endloop
endfacet
facet normal 0.0 0.0 -1.0
  outer loop
    vertex -301.11666888615787 5.399999999999875 14.44
    vertex -303.0988415150916 11.13591245740611 14.44
    vertex -301.11666888615787 14.599999999999868 14.44
  endloop
endfacet
facet normal 0.0 1.0 0.0
  outer loop
    vertex -311.9166688861579 5.399999999999875 14.44
    vertex -301.11666888615787 5.399999999999875 4.999999999999994
    vertex -311.9166688861579 5.399999999999875 4.999999999999994
  endloop
endfacet
facet normal 0.0 1.0 0.0
  outer loop
    vertex -301.11666888615787 5.399999999999875 4.999999999999994
    vertex -311.9166688861579 5.399999999999875 14.44
    vertex -301.11666888615787 5.399999999999875 14.44
  endloop
endfacet
facet normal 0.0 -1.0 0.0
  outer loop
    vertex -301.11666888615787 14.599999999999868 14.44
    vertex -311.9166688861579 14.599999999999868 4.999999999999994
    vertex -301.11666888615787 14.599999999999868 4.999999999999994
  endloop
endfacet
facet normal 0.0 -1.0 0.0
  outer loop
    vertex -311.9166688861579 14.599999999999868 4.999999999999994
    vertex -301.11666888615787 14.599999999999868 14.44
    vertex -311.9166688861579 14.599999999999868 14.44
  endloop
endfacet
facet normal 0.0 0.0 -1.0
  outer loop
    vertex -306.75465660871527 10.740922578863593 14.44
    vertex -306.7564832154964 10.44730937668748 14.44
    vertex -306.7945928751626 10.739095972082215 14.44
  endloop
endfacet
facet normal 0.0 0.0 -1.0
  outer loop
    vertex -306.7564832154964 10.44730937668748 14.44
    vertex -306.58035058091286 8.88026065135853 14.44
    vertex -306.75648321549653 8.868705979673315 14.44
  endloop
endfacet
facet normal 0.0 0.0 -1.0
  outer loop
    vertex -306.58035058091286 8.88026065135853 14.44
    vertex -306.7564832154964 10.44730937668748 14.44
    vertex -306.75465660871527 10.740922578863593 14.44
  endloop
endfacet
facet normal 0.0 0.0 -1.0
  outer loop
    vertex -306.58035058091286 8.88026065135853 14.44
    vertex -306.75465660871527 10.740922578863593 14.44
    vertex -306.53222571929206 10.724382792837563 14.44
  endloop
endfacet
facet normal 0.0 0.0 -1.0
  outer loop
    vertex -306.58035058091286 8.88026065135853 14.44
    vertex -306.53222571929206 10.724382792837563 14.44
    vertex -306.43327068070397 8.914924666414192 14.44
  endloop
endfacet
facet normal 0.0 0.0 -1.0
  outer loop
    vertex -306.43327068070397 8.914924666414192 14.44
    vertex -306.53222571929206 10.724382792837563 14.44
    vertex -306.3551832408001 10.674763434759333 14.44
  endloop
endfacet
facet normal 0.0 0.0 -1.0
  outer loop
    vertex -306.43327068070397 8.914924666414192 14.44
    vertex -306.3551832408001 10.674763434759333 14.44
    vertex -306.2117392567414 9.038165272436432 14.44
  endloop
endfacet
facet normal 0.0 0.0 -1.0
  outer loop
    vertex -306.2117392567414 9.038165272436432 14.44
    vertex -306.3551832408001 10.674763434759333 14.44
    vertex -306.21763075550786 10.594787117388387 14.44
  endloop
endfacet
facet normal 0.0 0.0 -1.0
  outer loop
    vertex -306.2117392567414 9.038165272436432 14.44
    vertex -306.21763075550786 10.594787117388387 14.44
    vertex -306.11366984568366 10.487176453484075 14.44
  endloop
endfacet
facet normal 0.0 0.0 -1.0
  outer loop
    vertex -306.2117392567414 9.038165272436432 14.44
    vertex -306.11366984568366 10.487176453484075 14.44
    vertex -306.0737335792363 9.214875640604461 14.44
  endloop
endfacet
facet normal 0.0 0.0 -1.0
  outer loop
    vertex -306.0737335792363 9.214875640604461 14.44
    vertex -306.11366984568366 10.487176453484075 14.44
    vertex -306.0403530322032 10.353969078262644 14.44
  endloop
endfacet
facet normal 0.0 0.0 -1.0
  outer loop
    vertex -306.0737335792363 9.214875640604461 14.44
    vertex -306.0403530322032 10.353969078262644 14.44
    vertex -305.99928551496515 9.420590310391962 14.44
  endloop
endfacet
facet normal 0.0 0.0 -1.0
  outer loop
    vertex -305.99928551496515 9.420590310391962 14.44
    vertex -306.0403530322032 10.353969078262644 14.44
    vertex -305.99473283594176 10.197202626940538 14.44
  endloop
endfacet
facet normal 0.0 0.0 -1.0
  outer loop
    vertex -305.99928551496515 9.420590310391962 14.44
    vertex -305.99473283594176 10.197202626940538 14.44
    vertex -305.96841309277386 9.631729448802881 14.44
  endloop
endfacet
facet normal 0.0 0.0 -1.0
  outer loop
    vertex -305.96841309277386 9.631729448802881 14.44
    vertex -305.99473283594176 10.197202626940538 14.44
    vertex -305.96296094828995 9.825654202092354 14.44
  endloop
endfacet
facet normal 0.0 0.0 -1.0
  outer loop
    vertex -308.83582595335076 10.21007190199113 14.44
    vertex -308.565571177288 9.586064279268452 14.44
    vertex -308.9718528068426 9.586064279268456 14.44
  endloop
endfacet
facet normal 0.0 0.0 -1.0
  outer loop
    vertex -308.565571177288 9.586064279268452 14.44
    vertex -308.83582595335076 10.21007190199113 14.44
    vertex -308.69617356215645 10.210071901991125 14.44
  endloop
endfacet
facet normal 0.0 0.0 -1.0
  outer loop
    vertex -308.69617356215645 10.210071901991125 14.44
    vertex -308.83582595335076 10.21007190199113 14.44
    vertex -308.76508645436286 10.828655056090321 14.44
  endloop
endfacet
facet normal 0.7191978522171031 0.6948053319932901 1.2627997008545942e-13
  outer loop
    vertex -306.11366984568366 10.487176453484075 14.44
    vertex -306.2176307555079 10.594787117388364 15.000000000000004
    vertex -306.1136698456838 10.487176453484034 15.000000000000004
  endloop
endfacet
facet normal 0.7191978522171031 0.6948053319932901 1.2627997008545942e-13
  outer loop
    vertex -306.2176307555079 10.594787117388364 15.000000000000004
    vertex -306.11366984568366 10.487176453484075 14.44
    vertex -306.21763075550786 10.594787117388387 14.44
  endloop
endfacet
facet normal 0.8760693551826122 0.48218511477431797 1.356247094107334e-13
  outer loop
    vertex -306.0403530322032 10.353969078262644 14.44
    vertex -306.1136698456838 10.487176453484034 15.000000000000004
    vertex -306.0403530322032 10.353969078262615 15.000000000000004
  endloop
endfacet
facet normal 0.8760693551826122 0.48218511477431797 1.356247094107334e-13
  outer loop
    vertex -306.1136698456838 10.487176453484034 15.000000000000004
    vertex -306.0403530322032 10.353969078262644 14.44
    vertex -306.11366984568366 10.487176453484075 14.44
  endloop
endfacet
facet normal 0.5026389742642904 0.8644964207852697 1.1543212153799364e-14
  outer loop
    vertex -306.3551832408001 10.674763434759367 15.000000000000004
    vertex -306.21763075550786 10.594787117388387 14.44
    vertex -306.3551832408001 10.674763434759333 14.44
  endloop
endfacet
facet normal 0.5026389742642904 0.8644964207852697 1.1543212153799364e-14
  outer loop
    vertex -306.21763075550786 10.594787117388387 14.44
    vertex -306.3551832408001 10.674763434759367 15.000000000000004
    vertex -306.2176307555079 10.594787117388364 15.000000000000004
  endloop
endfacet
facet normal 0.07491179866097775 -0.9971901636204487 -1.757471462474565e-14
  outer loop
    vertex -307.2654284489227 11.150082497891937 15.000000000000004
    vertex -307.45405327496 11.135912457406118 14.44
    vertex -307.2654284489227 11.15008249789194 14.44
  endloop
endfacet
facet normal 0.07491179866097775 -0.9971901636204487 -1.757471462474565e-14
  outer loop
    vertex -307.45405327496 11.135912457406118 14.44
    vertex -307.2654284489227 11.150082497891937 15.000000000000004
    vertex -307.4540532749601 11.135912457406102 15.000000000000004
  endloop
endfacet
facet normal 0.044970985988470775 -0.9989882934345252 -6.692531215535486e-15
  outer loop
    vertex -307.06869459581026 11.158938773195583 15.000000000000004
    vertex -307.2654284489227 11.15008249789194 14.44
    vertex -307.06869459581037 11.158938773195583 14.44
  endloop
endfacet
facet normal 0.044970985988470775 -0.9989882934345252 -6.692531215535486e-15
  outer loop
    vertex -307.2654284489227 11.15008249789194 14.44
    vertex -307.06869459581026 11.158938773195583 15.000000000000004
    vertex -307.2654284489227 11.150082497891937 15.000000000000004
  endloop
endfacet
facet normal 0.02900396326730948 -0.9995792965617029 -3.4147976062284886e-15
  outer loop
    vertex -306.8855634280471 11.16425253837777 15.000000000000004
    vertex -307.06869459581037 11.158938773195583 14.44
    vertex -306.88556342804713 11.16425253837777 14.44
  endloop
endfacet
facet normal 0.02900396326730948 -0.9995792965617029 -3.4147976062284886e-15
  outer loop
    vertex -307.06869459581037 11.158938773195583 14.44
    vertex -306.8855634280471 11.16425253837777 15.000000000000004
    vertex -307.06869459581026 11.158938773195583 15.000000000000004
  endloop
endfacet
facet normal 0.012134108505074218 -0.9999263789953674 -3.4953453614552598e-15
  outer loop
    vertex -306.73960094069895 11.166023793438496 15.000000000000004
    vertex -306.88556342804713 11.16425253837777 14.44
    vertex -306.73960094069895 11.1660237934385 14.44
  endloop
endfacet
facet normal 0.012134108505074218 -0.9999263789953674 -3.4953453614552598e-15
  outer loop
    vertex -306.88556342804713 11.16425253837777 14.44
    vertex -306.73960094069895 11.166023793438496 15.000000000000004
    vertex -306.8855634280471 11.16425253837777 15.000000000000004
  endloop
endfacet
facet normal -0.06252351214754753 -0.9980434912511256 -2.009715122418427e-14
  outer loop
    vertex -306.44653433676416 11.147664319596135 15.000000000000004
    vertex -306.73960094069895 11.1660237934385 14.44
    vertex -306.4465343367642 11.147664319596158 14.44
  endloop
endfacet
facet normal -0.06252351214754753 -0.9980434912511256 -2.009715122418427e-14
  outer loop
    vertex -306.73960094069895 11.1660237934385 14.44
    vertex -306.44653433676416 11.147664319596135 15.000000000000004
    vertex -306.73960094069895 11.166023793438496 15.000000000000004
  endloop
endfacet
facet normal -0.19991794303036395 -0.9798126433428527 -2.154849872336443e-14
  outer loop
    vertex -306.1765909141301 11.09258589806907 15.000000000000004
    vertex -306.4465343367642 11.147664319596158 14.44
    vertex -306.1765909141301 11.09258589806908 14.44
  endloop
endfacet
facet normal -0.19991794303036395 -0.9798126433428527 -2.154849872336443e-14
  outer loop
    vertex -306.4465343367642 11.147664319596158 14.44
    vertex -306.1765909141301 11.09258589806907 15.000000000000004
    vertex -306.44653433676416 11.147664319596135 15.000000000000004
  endloop
endfacet
facet normal -0.36368007610251 -0.9315239139421341 -9.382391043046179e-15
  outer loop
    vertex -305.93565871208057 10.99852256779331 15.000000000000004
    vertex -306.1765909141301 11.09258589806908 14.44
    vertex -305.93565871208057 10.99852256779331 14.44
  endloop
endfacet
facet normal -0.36368007610251 -0.9315239139421341 -9.382391043046179e-15
  outer loop
    vertex -306.1765909141301 11.09258589806908 14.44
    vertex -305.93565871208057 10.99852256779331 15.000000000000004
    vertex -306.1765909141301 11.09258589806907 15.000000000000004
  endloop
endfacet
facet normal -0.5489543835712037 -0.835852310374243 0.0
  outer loop
    vertex -305.7296257698993 10.863208367704758 15.000000000000004
    vertex -305.93565871208057 10.99852256779331 14.44
    vertex -305.7296257698993 10.863208367704758 14.44
  endloop
endfacet
facet normal -0.5489543835712037 -0.835852310374243 0.0
  outer loop
    vertex -305.93565871208057 10.99852256779331 14.44
    vertex -305.7296257698993 10.863208367704758 15.000000000000004
    vertex -305.93565871208057 10.99852256779331 15.000000000000004
  endloop
endfacet
facet normal -0.7267286021761363 -0.6869246965855275 -2.595135814141165e-15
  outer loop
    vertex -305.7296257698993 10.863208367704758 15.000000000000004
    vertex -305.56144302619356 10.685280261682427 14.44
    vertex -305.56144302619356 10.685280261682422 15.000000000000004
  endloop
endfacet
facet normal -0.7267286021761363 -0.6869246965855275 -2.595135814141165e-15
  outer loop
    vertex -305.56144302619356 10.685280261682427 14.44
    vertex -305.7296257698993 10.863208367704758 15.000000000000004
    vertex -305.7296257698993 10.863208367704758 14.44
  endloop
endfacet
facet normal -0.8672671506883106 -0.4978430368469355 -4.4331796595766294e-14
  outer loop
    vertex -305.56144302619356 10.685280261682422 15.000000000000004
    vertex -305.4340614195703 10.463375213605534 14.44
    vertex -305.4340614195703 10.463375213605518 15.000000000000004
  endloop
endfacet
facet normal -0.8672671506883106 -0.4978430368469355 -4.4331796595766294e-14
  outer loop
    vertex -305.4340614195703 10.463375213605534 14.44
    vertex -305.56144302619356 10.685280261682422 15.000000000000004
    vertex -305.56144302619356 10.685280261682427 14.44
  endloop
endfacet
facet normal -0.9580291393178252 -0.2866708360087355 -8.403524312561066e-14
  outer loop
    vertex -305.4340614195703 10.463375213605518 15.000000000000004
    vertex -305.35382564100877 10.195234181375012 14.44
    vertex -305.3538256410088 10.195234181375003 15.000000000000004
  endloop
endfacet
facet normal -0.9580291393178252 -0.2866708360087355 -8.403524312561066e-14
  outer loop
    vertex -305.35382564100877 10.195234181375012 14.44
    vertex -305.4340614195703 10.463375213605518 15.000000000000004
    vertex -305.4340614195703 10.463375213605534 14.44
  endloop
endfacet
facet normal -0.9964516491493747 -0.0841671605051028 -4.109467600516128e-14
  outer loop
    vertex -305.3538256410088 10.195234181375003 15.000000000000004
    vertex -305.3270803814884 9.878598122891944 14.44
    vertex -305.3270803814884 9.878598122891942 15.000000000000004
  endloop
endfacet
facet normal -0.9964516491493747 -0.0841671605051028 -4.109467600516128e-14
  outer loop
    vertex -305.3270803814884 9.878598122891944 14.44
    vertex -305.3538256410088 10.195234181375003 15.000000000000004
    vertex -305.35382564100877 10.195234181375012 14.44
  endloop
endfacet
facet normal -0.9986205381105224 0.05250734104723604 3.308568501934089e-16
  outer loop
    vertex -305.3270803814884 9.878598122891942 15.000000000000004
    vertex -305.34022641514224 9.628577860208496 14.44
    vertex -305.34022641514224 9.628577860208491 15.000000000000004
  endloop
endfacet
facet normal -0.9986205381105224 0.05250734104723604 3.308568501934089e-16
  outer loop
    vertex -305.34022641514224 9.628577860208496 14.44
    vertex -305.3270803814884 9.878598122891942 15.000000000000004
    vertex -305.3270803814884 9.878598122891944 14.44
  endloop
endfacet
facet normal -0.9848738566667531 0.17327286704604378 -4.033012137858851e-14
  outer loop
    vertex -305.37966451610373 9.404413770032628 15.000000000000004
    vertex -305.34022641514224 9.628577860208496 14.44
    vertex -305.37966451610373 9.404413770032619 14.44
  endloop
endfacet
facet normal -0.9848738566667531 0.17327286704604378 -4.033012137858851e-14
  outer loop
    vertex -305.34022641514224 9.628577860208496 14.44
    vertex -305.37966451610373 9.404413770032628 15.000000000000004
    vertex -305.34022641514224 9.628577860208491 15.000000000000004
  endloop
endfacet
facet normal -0.9530395127993356 0.30284597907716276 -3.724894757615424e-14
  outer loop
    vertex -305.37966451610373 9.404413770032628 15.000000000000004
    vertex -305.44290039746124 9.20541395585626 14.44
    vertex -305.44290039746124 9.205413955856248 15.000000000000004
  endloop
endfacet
facet normal -0.9530395127993356 0.30284597907716276 -3.724894757615424e-14
  outer loop
    vertex -305.44290039746124 9.20541395585626 14.44
    vertex -305.37966451610373 9.404413770032628 15.000000000000004
    vertex -305.37966451610373 9.404413770032619 14.44
  endloop
endfacet
facet normal -0.8999759652562697 0.43593951640227063 9.33467331393959e-15
  outer loop
    vertex -305.44290039746124 9.205413955856248 15.000000000000004
    vertex -305.5274397723031 9.030886521171299 14.44
    vertex -305.5274397723031 9.030886521171286 15.000000000000004
  endloop
endfacet
facet normal -0.8999759652562697 0.43593951640227063 9.33467331393959e-15
  outer loop
    vertex -305.5274397723031 9.030886521171299 14.44
    vertex -305.44290039746124 9.205413955856248 15.000000000000004
    vertex -305.44290039746124 9.20541395585626 14.44
  endloop
endfacet
facet normal -0.8222498481763405 0.5691266881582563 7.172309991307744e-15
  outer loop
    vertex -305.5274397723031 9.030886521171286 15.000000000000004
    vertex -305.63192652347345 8.879928541034651 14.44
    vertex -305.63192652347345 8.879928541034648 15.000000000000004
  endloop
endfacet
facet normal -0.8222498481763405 0.5691266881582563 7.172309991307744e-15
  outer loop
    vertex -305.63192652347345 8.879928541034651 14.44
    vertex -305.5274397723031 9.030886521171286 15.000000000000004
    vertex -305.5274397723031 9.030886521171299 14.44
  endloop
endfacet
facet normal -0.72161709503236 0.6922924007650655 1.7420011621561376e-15
  outer loop
    vertex -305.63192652347345 8.879928541034648 15.000000000000004
    vertex -305.7550045338163 8.751637090503301 14.44
    vertex -305.7550045338163 8.751637090503301 15.000000000000004
  endloop
endfacet
facet normal -0.72161709503236 0.6922924007650655 1.7420011621561376e-15
  outer loop
    vertex -305.7550045338163 8.751637090503301 14.44
    vertex -305.63192652347345 8.879928541034648 15.000000000000004
    vertex -305.63192652347345 8.879928541034651 14.44
  endloop
endfacet
facet normal -0.5493063209523299 0.8356210658916013 -1.773697604588636e-17
  outer loop
    vertex -306.04603004305227 8.560327706014391 15.000000000000004
    vertex -305.7550045338163 8.751637090503301 14.44
    vertex -306.04603004305227 8.560327706014391 14.439999999999998
  endloop
endfacet
facet normal -0.5493063209523299 0.8356210658916013 -1.773697604588636e-17
  outer loop
    vertex -305.7550045338163 8.751637090503301 14.44
    vertex -306.04603004305227 8.560327706014391 15.000000000000004
    vertex -305.7550045338163 8.751637090503301 15.000000000000004
  endloop
endfacet
facet normal -0.30858084497956206 0.951198119274686 8.561617949433024e-15
  outer loop
    vertex -306.3842013803498 8.450620595690511 15.000000000000004
    vertex -306.04603004305227 8.560327706014391 14.439999999999998
    vertex -306.3842013803499 8.450620595690477 14.439999999999998
  endloop
endfacet
facet normal -0.30858084497956206 0.951198119274686 8.561617949433024e-15
  outer loop
    vertex -306.04603004305227 8.560327706014391 14.439999999999998
    vertex -306.3842013803498 8.450620595690511 15.000000000000004
    vertex -306.04603004305227 8.560327706014391 15.000000000000004
  endloop
endfacet
facet normal -0.09514826425293348 0.9954631122295061 -2.7273077136443233e-14
  outer loop
    vertex -306.7541030915087 8.41526468412675 14.44
    vertex -306.3842013803498 8.450620595690511 15.000000000000004
    vertex -306.3842013803499 8.450620595690477 14.439999999999998
  endloop
endfacet
facet normal -0.09514826425293348 0.9954631122295061 -2.7273077136443233e-14
  outer loop
    vertex -306.3842013803498 8.450620595690511 15.000000000000004
    vertex -306.7541030915087 8.41526468412675 14.44
    vertex -306.7541030915086 8.415264684126765 15.000000000000004
  endloop
endfacet
facet normal -3.126165339866203e-28 1.0 -1.510696329936364e-14
  outer loop
    vertex -307.3923637822981 8.415264684126758 15.000000000000004
    vertex -306.7541030915087 8.41526468412675 14.44
    vertex -307.3923637822981 8.415264684126756 14.44
  endloop
endfacet
facet normal -3.126165339866203e-28 1.0 -1.510696329936364e-14
  outer loop
    vertex -306.7541030915087 8.41526468412675 14.44
    vertex -307.3923637822981 8.415264684126758 15.000000000000004
    vertex -306.7541030915086 8.415264684126765 15.000000000000004
  endloop
endfacet
facet normal 1.0 0.0 0.0
  outer loop
    vertex -307.3923637822981 10.704224388074131 14.44
    vertex -307.3923637822981 8.415264684126758 15.000000000000004
    vertex -307.3923637822981 8.415264684126756 14.44
  endloop
endfacet
facet normal 1.0 0.0 0.0
  outer loop
    vertex -307.3923637822981 8.415264684126758 15.000000000000004
    vertex -307.3923637822981 10.704224388074131 14.44
    vertex -307.3923637822981 10.704224388074126 15.000000000000004
  endloop
endfacet
facet normal 0.9899431460612286 0.14146578231642162 4.2727468270741505e-14
  outer loop
    vertex -307.3923637822981 10.704224388074131 14.44
    vertex -307.4540532749601 11.135912457406102 15.000000000000004
    vertex -307.3923637822981 10.704224388074126 15.000000000000004
  endloop
endfacet
facet normal 0.9899431460612286 0.14146578231642162 4.2727468270741505e-14
  outer loop
    vertex -307.4540532749601 11.135912457406102 15.000000000000004
    vertex -307.3923637822981 10.704224388074131 14.44
    vertex -307.45405327496 11.135912457406118 14.44
  endloop
endfacet
facet normal -1.0 4.287283031897723e-14 -4.0285235464969925e-14
  outer loop
    vertex -306.7564832154965 10.447309376687485 15.000000000000004
    vertex -306.75648321549653 8.868705979673315 14.44
    vertex -306.75648321549653 8.868705979673315 15.000000000000004
  endloop
endfacet
facet normal -1.0 4.287283031897723e-14 -4.0285235464969925e-14
  outer loop
    vertex -306.75648321549653 8.868705979673315 14.44
    vertex -306.7564832154965 10.447309376687485 15.000000000000004
    vertex -306.7564832154964 10.44730937668748 14.44
  endloop
endfacet
facet normal 0.0654613957630536 -0.9978551025398192 9.4261050765953e-15
  outer loop
    vertex -306.58035058091264 8.880260651358554 15.000000000000004
    vertex -306.75648321549653 8.868705979673315 14.44
    vertex -306.58035058091286 8.88026065135853 14.44
  endloop
endfacet
facet normal 0.0654613957630536 -0.9978551025398192 9.4261050765953e-15
  outer loop
    vertex -306.75648321549653 8.868705979673315 14.44
    vertex -306.58035058091264 8.880260651358554 15.000000000000004
    vertex -306.75648321549653 8.868705979673315 15.000000000000004
  endloop
endfacet
facet normal 0.22939661284731633 -0.973333033454726 -5.4119271048688886e-14
  outer loop
    vertex -306.433270680704 8.914924666414146 15.000000000000004
    vertex -306.58035058091286 8.88026065135853 14.44
    vertex -306.43327068070397 8.914924666414192 14.44
  endloop
endfacet
facet normal 0.22939661284731633 -0.973333033454726 -5.4119271048688886e-14
  outer loop
    vertex -306.58035058091286 8.88026065135853 14.44
    vertex -306.433270680704 8.914924666414146 15.000000000000004
    vertex -306.58035058091264 8.880260651358554 15.000000000000004
  endloop
endfacet
facet normal 0.4861480333802034 -0.8738764727583417 -1.5391736040346024e-14
  outer loop
    vertex -306.21173925674134 9.038165272436457 15.000000000000004
    vertex -306.43327068070397 8.914924666414192 14.44
    vertex -306.2117392567414 9.038165272436432 14.44
  endloop
endfacet
facet normal 0.4861480333802034 -0.8738764727583417 -1.5391736040346024e-14
  outer loop
    vertex -306.43327068070397 8.914924666414192 14.44
    vertex -306.21173925674134 9.038165272436457 15.000000000000004
    vertex -306.433270680704 8.914924666414146 15.000000000000004
  endloop
endfacet
facet normal 0.7881310293024697 -0.6155074984519926 -9.271465649610938e-15
  outer loop
    vertex -306.0737335792363 9.214875640604461 14.44
    vertex -306.21173925674134 9.038165272436457 15.000000000000004
    vertex -306.2117392567414 9.038165272436432 14.44
  endloop
endfacet
facet normal 0.7881310293024697 -0.6155074984519926 -9.271465649610938e-15
  outer loop
    vertex -306.21173925674134 9.038165272436457 15.000000000000004
    vertex -306.0737335792363 9.214875640604461 14.44
    vertex -306.0737335792363 9.214875640604477 15.000000000000004
  endloop
endfacet
facet normal 0.9403168074151355 -0.3403003110380698 -1.1791741896748947e-13
  outer loop
    vertex -305.99928551496515 9.420590310391962 14.44
    vertex -306.0737335792363 9.214875640604477 15.000000000000004
    vertex -306.0737335792363 9.214875640604461 14.44
  endloop
endfacet
facet normal 0.9403168074151355 -0.3403003110380698 -1.1791741896748947e-13
  outer loop
    vertex -306.0737335792363 9.214875640604477 15.000000000000004
    vertex -305.99928551496515 9.420590310391962 14.44
    vertex -305.99928551496504 9.420590310391932 15.000000000000004
  endloop
endfacet
facet normal 0.9894785063470817 -0.1446799415162599 -8.409471738835485e-14
  outer loop
    vertex -305.99928551496515 9.420590310391962 14.44
    vertex -305.9684130927739 9.631729448802878 15.000000000000004
    vertex -305.99928551496504 9.420590310391932 15.000000000000004
  endloop
endfacet
facet normal 0.9894785063470817 -0.1446799415162599 -8.409471738835485e-14
  outer loop
    vertex -305.9684130927739 9.631729448802878 15.000000000000004
    vertex -305.99928551496515 9.420590310391962 14.44
    vertex -305.96841309277386 9.631729448802881 14.44
  endloop
endfacet
facet normal 0.9996050147731608 -0.02810363749320097 4.0091870460533046e-14
  outer loop
    vertex -305.96841309277386 9.631729448802881 14.44
    vertex -305.96296094828995 9.82565420209235 15.000000000000004
    vertex -305.9684130927739 9.631729448802878 15.000000000000004
  endloop
endfacet
facet normal 0.9996050147731608 -0.02810363749320097 4.0091870460533046e-14
  outer loop
    vertex -305.96296094828995 9.82565420209235 15.000000000000004
    vertex -305.96841309277386 9.631729448802881 14.44
    vertex -305.96296094828995 9.825654202092354 14.44
  endloop
endfacet
facet normal 0.9963637698616502 0.08520116259230527 9.644577779660773e-16
  outer loop
    vertex -305.96296094828995 9.825654202092354 14.44
    vertex -305.99473283594176 10.197202626940527 15.000000000000004
    vertex -305.96296094828995 9.82565420209235 15.000000000000004
  endloop
endfacet
facet normal 0.9963637698616502 0.08520116259230527 9.644577779660773e-16
  outer loop
    vertex -305.99473283594176 10.197202626940527 15.000000000000004
    vertex -305.96296094828995 9.825654202092354 14.44
    vertex -305.99473283594176 10.197202626940538 14.44
  endloop
endfacet
facet normal 0.9601699771913039 0.2794165616073086 4.817690674918448e-14
  outer loop
    vertex -305.99473283594176 10.197202626940538 14.44
    vertex -306.0403530322032 10.353969078262615 15.000000000000004
    vertex -305.99473283594176 10.197202626940527 15.000000000000004
  endloop
endfacet
facet normal 0.9601699771913039 0.2794165616073086 4.817690674918448e-14
  outer loop
    vertex -306.0403530322032 10.353969078262615 15.000000000000004
    vertex -305.99473283594176 10.197202626940538 14.44
    vertex -306.0403530322032 10.353969078262644 14.44
  endloop
endfacet
facet normal 0.2698692971058571 0.9628969635841577 -1.2117945195691566e-14
  outer loop
    vertex -306.53222571929206 10.724382792837543 15.000000000000004
    vertex -306.3551832408001 10.674763434759333 14.44
    vertex -306.53222571929206 10.724382792837563 14.44
  endloop
endfacet
facet normal 0.2698692971058571 0.9628969635841577 -1.2117945195691566e-14
  outer loop
    vertex -306.3551832408001 10.674763434759333 14.44
    vertex -306.53222571929206 10.724382792837543 15.000000000000004
    vertex -306.3551832408001 10.674763434759367 15.000000000000004
  endloop
endfacet
facet normal 0.07415448532194915 0.9972467660046018 4.0702670194462215e-15
  outer loop
    vertex -306.7546566087152 10.7409225788636 15.000000000000004
    vertex -306.53222571929206 10.724382792837563 14.44
    vertex -306.75465660871527 10.740922578863593 14.44
  endloop
endfacet
facet normal 0.07415448532194915 0.9972467660046018 4.0702670194462215e-15
  outer loop
    vertex -306.53222571929206 10.724382792837563 14.44
    vertex -306.7546566087152 10.7409225788636 15.000000000000004
    vertex -306.53222571929206 10.724382792837543 15.000000000000004
  endloop
endfacet
facet normal -0.045690279386462175 0.9989556538553588 4.000730396241994e-16
  outer loop
    vertex -306.7945928751625 10.739095972082216 15.000000000000004
    vertex -306.75465660871527 10.740922578863593 14.44
    vertex -306.7945928751626 10.739095972082215 14.44
  endloop
endfacet
facet normal -0.045690279386462175 0.9989556538553588 4.000730396241994e-16
  outer loop
    vertex -306.75465660871527 10.740922578863593 14.44
    vertex -306.7945928751625 10.739095972082216 15.000000000000004
    vertex -306.7546566087152 10.7409225788636 15.000000000000004
  endloop
endfacet
facet normal -0.9915783700217738 -0.1295080542088491 8.070364635315074e-14
  outer loop
    vertex -306.7564832154965 10.447309376687485 15.000000000000004
    vertex -306.7945928751626 10.739095972082215 14.44
    vertex -306.7564832154964 10.44730937668748 14.44
  endloop
endfacet
facet normal -0.9915783700217738 -0.1295080542088491 8.070364635315074e-14
  outer loop
    vertex -306.7945928751626 10.739095972082215 14.44
    vertex -306.7564832154965 10.447309376687485 15.000000000000004
    vertex -306.7945928751625 10.739095972082216 15.000000000000004
  endloop
endfacet
facet normal 2.5732414161890273e-15 1.0 7.553481649681718e-15
  outer loop
    vertex -304.24370882910983 10.723210028256315 15.000000000000004
    vertex -303.14782778786486 10.723210028256315 14.44
    vertex -304.24370882910983 10.723210028256318 14.44
  endloop
endfacet
facet normal 2.5732414161890273e-15 1.0 7.553481649681718e-15
  outer loop
    vertex -303.14782778786486 10.723210028256315 14.44
    vertex -304.24370882910983 10.723210028256315 15.000000000000004
    vertex -303.14782778786486 10.723210028256311 15.000000000000004
  endloop
endfacet
facet normal -0.9930291603428015 0.11786893869408842 4.436544142625207e-16
  outer loop
    vertex -303.0988415150916 11.13591245740611 15.000000000000004
    vertex -303.14782778786486 10.723210028256315 14.44
    vertex -303.14782778786486 10.723210028256311 15.000000000000004
  endloop
endfacet
facet normal -0.9930291603428015 0.11786893869408842 4.436544142625207e-16
  outer loop
    vertex -303.14782778786486 10.723210028256315 14.44
    vertex -303.0988415150916 11.13591245740611 15.000000000000004
    vertex -303.0988415150916 11.13591245740611 14.44
  endloop
endfacet
facet normal -0.9941590688690846 -0.10792472277173126 7.9691403922484e-14
  outer loop
    vertex -304.24370882910983 10.723210028256315 15.000000000000004
    vertex -304.21650345841147 10.47260511302352 14.44
    vertex -304.21650345841147 10.47260511302352 15.000000000000004
  endloop
endfacet
facet normal -0.9941590688690846 -0.10792472277173126 7.9691403922484e-14
  outer loop
    vertex -304.21650345841147 10.47260511302352 14.44
    vertex -304.24370882910983 10.723210028256315 15.000000000000004
    vertex -304.24370882910983 10.723210028256318 14.44
  endloop
endfacet
facet normal 0.0 1.0 0.0
  outer loop
    vertex -304.8523840252131 8.415264684126758 15.000000000000004
    vertex -304.21650345841147 8.415264684126758 14.44
    vertex -304.8523840252131 8.415264684126758 14.44
  endloop
endfacet
facet normal 0.0 1.0 0.0
  outer loop
    vertex -304.21650345841147 8.415264684126758 14.44
    vertex -304.8523840252131 8.415264684126758 15.000000000000004
    vertex -304.21650345841147 8.415264684126758 15.000000000000004
  endloop
endfacet
facet normal 1.0 0.0 0.0
  outer loop
    vertex -304.8523840252131 10.706050994855506 14.44
    vertex -304.8523840252131 8.415264684126758 15.000000000000004
    vertex -304.8523840252131 8.415264684126758 14.44
  endloop
endfacet
facet normal 1.0 0.0 0.0
  outer loop
    vertex -304.8523840252131 8.415264684126758 15.000000000000004
    vertex -304.8523840252131 10.706050994855506 14.44
    vertex -304.8523840252131 10.706050994855504 15.000000000000004
  endloop
endfacet
facet normal 0.9892683397932421 0.14611006769802873 1.8331766683859823e-16
  outer loop
    vertex -304.8523840252131 10.706050994855506 14.44
    vertex -304.91587244879605 11.13591245740611 15.000000000000004
    vertex -304.8523840252131 10.706050994855504 15.000000000000004
  endloop
endfacet
facet normal 0.9892683397932421 0.14611006769802873 1.8331766683859823e-16
  outer loop
    vertex -304.91587244879605 11.13591245740611 15.000000000000004
    vertex -304.8523840252131 10.706050994855506 14.44
    vertex -304.91587244879605 11.13591245740611 14.44
  endloop
endfacet
facet normal 0.0 -1.0 0.0
  outer loop
    vertex -303.0988415150916 11.13591245740611 15.000000000000004
    vertex -304.91587244879605 11.13591245740611 14.44
    vertex -303.0988415150916 11.13591245740611 14.44
  endloop
endfacet
facet normal 0.0 -1.0 0.0
  outer loop
    vertex -304.91587244879605 11.13591245740611 14.44
    vertex -303.0988415150916 11.13591245740611 15.000000000000004
    vertex -304.91587244879605 11.13591245740611 15.000000000000004
  endloop
endfacet
facet normal -1.0 -5.698295161514944e-14 4.0285235464969704e-14
  outer loop
    vertex -304.21650345841147 10.47260511302352 15.000000000000004
    vertex -304.21650345841147 10.076701931090321 14.44
    vertex -304.21650345841147 10.076701931090321 15.000000000000004
  endloop
endfacet
facet normal -1.0 -5.698295161514944e-14 4.0285235464969704e-14
  outer loop
    vertex -304.21650345841147 10.076701931090321 14.44
    vertex -304.21650345841147 10.47260511302352 15.000000000000004
    vertex -304.21650345841147 10.47260511302352 14.44
  endloop
endfacet
facet normal 0.0 -1.0 0.0
  outer loop
    vertex -303.2848232964681 10.076701931090321 15.000000000000004
    vertex -304.21650345841147 10.076701931090321 14.44
    vertex -303.2848232964681 10.076701931090321 14.44
  endloop
endfacet
facet normal 0.0 -1.0 0.0
  outer loop
    vertex -304.21650345841147 10.076701931090321 14.44
    vertex -303.2848232964681 10.076701931090321 15.000000000000004
    vertex -304.21650345841147 10.076701931090321 15.000000000000004
  endloop
endfacet
facet normal -1.0 0.0 0.0
  outer loop
    vertex -303.2848232964681 10.076701931090321 15.000000000000004
    vertex -303.2848232964681 9.690568327851455 14.44
    vertex -303.2848232964681 9.690568327851455 15.000000000000004
  endloop
endfacet
facet normal -1.0 0.0 0.0
  outer loop
    vertex -303.2848232964681 9.690568327851455 14.44
    vertex -303.2848232964681 10.076701931090321 15.000000000000004
    vertex -303.2848232964681 10.076701931090321 14.44
  endloop
endfacet
facet normal 0.0 1.0 0.0
  outer loop
    vertex -304.21650345841147 9.690568327851455 15.000000000000004
    vertex -303.2848232964681 9.690568327851455 14.44
    vertex -304.21650345841147 9.690568327851455 14.44
  endloop
endfacet
facet normal 0.0 1.0 0.0
  outer loop
    vertex -303.2848232964681 9.690568327851455 14.44
    vertex -304.21650345841147 9.690568327851455 15.000000000000004
    vertex -303.2848232964681 9.690568327851455 15.000000000000004
  endloop
endfacet
facet normal -1.0 0.0 0.0
  outer loop
    vertex -304.21650345841147 9.690568327851455 15.000000000000004
    vertex -304.21650345841147 8.415264684126758 14.44
    vertex -304.21650345841147 8.415264684126758 15.000000000000004
  endloop
endfacet
facet normal -1.0 0.0 0.0
  outer loop
    vertex -304.21650345841147 8.415264684126758 14.44
    vertex -304.21650345841147 9.690568327851455 15.000000000000004
    vertex -304.21650345841147 9.690568327851455 14.44
  endloop
endfacet
facet normal 0.9638016619259487 -0.26662024767218895 -8.140082004987809e-14
  outer loop
    vertex -309.8412622830573 8.415264684126782 14.44
    vertex -309.1972173374601 10.743413406292769 15.000000000000004
    vertex -309.84126228305723 8.41526468412677 15.000000000000004
  endloop
endfacet
facet normal 0.9638016619259487 -0.26662024767218895 -8.140082004987809e-14
  outer loop
    vertex -309.1972173374601 10.743413406292769 15.000000000000004
    vertex -309.8412622830573 8.415264684126782 14.44
    vertex -309.19721733746013 10.74341340629277 14.44
  endloop
endfacet
facet normal 3.529824362513902e-14 1.0 1.1330222474521307e-14
  outer loop
    vertex -309.84126228305723 8.41526468412677 15.000000000000004
    vertex -309.26206187819884 8.415264684126756 14.44
    vertex -309.8412622830573 8.415264684126782 14.44
  endloop
endfacet
facet normal 3.529824362513902e-14 1.0 1.1330222474521307e-14
  outer loop
    vertex -309.26206187819884 8.415264684126756 14.44
    vertex -309.84126228305723 8.41526468412677 15.000000000000004
    vertex -309.26206187819884 8.415264684126756 15.000000000000004
  endloop
endfacet
facet normal -0.9731192884861258 0.23030165083267662 -3.978327134632018e-14
  outer loop
    vertex -309.0788753587151 9.18930314566522 15.000000000000004
    vertex -309.26206187819884 8.415264684126756 14.44
    vertex -309.26206187819884 8.415264684126756 15.000000000000004
  endloop
endfacet
facet normal -0.9731192884861258 0.23030165083267662 -3.978327134632018e-14
  outer loop
    vertex -309.26206187819884 8.415264684126756 14.44
    vertex -309.0788753587151 9.18930314566522 15.000000000000004
    vertex -309.07887535871504 9.189303145665216 14.44
  endloop
endfacet
facet normal -6.8192103036299085e-15 1.0 2.5178272165600575e-15
  outer loop
    vertex -309.0788753587151 9.18930314566522 15.000000000000004
    vertex -308.45857630127574 9.189303145665225 14.44
    vertex -309.07887535871504 9.189303145665216 14.44
  endloop
endfacet
facet normal -6.8192103036299085e-15 1.0 2.5178272165600575e-15
  outer loop
    vertex -308.45857630127574 9.189303145665225 14.44
    vertex -309.0788753587151 9.18930314566522 15.000000000000004
    vertex -308.4585763012758 9.18930314566522 15.000000000000004
  endloop
endfacet
facet normal 0.9715640134818969 0.2367770421872617 4.0344210704165934e-14
  outer loop
    vertex -308.45857630127574 9.189303145665225 14.44
    vertex -308.26993763730815 8.415264684126765 15.000000000000004
    vertex -308.26993763730815 8.415264684126765 14.44
  endloop
endfacet
facet normal 0.9715640134818969 0.2367770421872617 4.0344210704165934e-14
  outer loop
    vertex -308.26993763730815 8.415264684126765 15.000000000000004
    vertex -308.45857630127574 9.189303145665225 14.44
    vertex -308.4585763012758 9.18930314566522 15.000000000000004
  endloop
endfacet
facet normal 1.1637956912102882e-14 1.0 0.0
  outer loop
    vertex -308.26993763730815 8.415264684126765 15.000000000000004
    vertex -307.664168406539 8.415264684126758 14.44
    vertex -308.26993763730815 8.415264684126765 14.44
  endloop
endfacet
facet normal 1.1637956912102882e-14 1.0 0.0
  outer loop
    vertex -307.664168406539 8.415264684126758 14.44
    vertex -308.26993763730815 8.415264684126765 15.000000000000004
    vertex -307.664168406539 8.415264684126758 15.000000000000004
  endloop
endfacet
facet normal -0.962031568074603 -0.2729382018478187 -3.915076262667667e-14
  outer loop
    vertex -308.4460944882698 11.171337558620683 15.000000000000004
    vertex -307.664168406539 8.415264684126758 14.44
    vertex -307.664168406539 8.415264684126758 15.000000000000004
  endloop
endfacet
facet normal -0.962031568074603 -0.2729382018478187 -3.915076262667667e-14
  outer loop
    vertex -307.664168406539 8.415264684126758 14.44
    vertex -308.4460944882698 11.171337558620683 15.000000000000004
    vertex -308.44609448826975 11.171337558620683 14.44
  endloop
endfacet
facet normal 0.05279149633995174 -0.9986055567210653 -7.544736086465704e-15
  outer loop
    vertex -308.4460944882698 11.171337558620683 15.000000000000004
    vertex -309.13190230709574 11.135082181596408 14.44
    vertex -308.44609448826975 11.171337558620683 14.44
  endloop
endfacet
facet normal 0.05279149633995174 -0.9986055567210653 -7.544736086465704e-15
  outer loop
    vertex -309.13190230709574 11.135082181596408 14.44
    vertex -308.4460944882698 11.171337558620683 15.000000000000004
    vertex -309.13190230709574 11.135082181596403 15.000000000000004
  endloop
endfacet
facet normal 0.9863788496551738 -0.1644894068107007 -8.092838624722028e-14
  outer loop
    vertex -309.19721733746013 10.74341340629277 14.44
    vertex -309.13190230709574 11.135082181596403 15.000000000000004
    vertex -309.1972173374601 10.743413406292769 15.000000000000004
  endloop
endfacet
facet normal 0.9863788496551738 -0.1644894068107007 -8.092838624722028e-14
  outer loop
    vertex -309.13190230709574 11.135082181596403 15.000000000000004
    vertex -309.19721733746013 10.74341340629277 14.44
    vertex -309.13190230709574 11.135082181596408 14.44
  endloop
endfacet
facet normal -0.9935246467856262 0.11361679554316298 4.0021136028371755e-14
  outer loop
    vertex -308.83582595335076 10.210071901991132 15.000000000000004
    vertex -308.76508645436286 10.828655056090321 14.44
    vertex -308.83582595335076 10.21007190199113 14.44
  endloop
endfacet
facet normal -0.9935246467856262 0.11361679554316298 4.0021136028371755e-14
  outer loop
    vertex -308.76508645436286 10.828655056090321 14.44
    vertex -308.83582595335076 10.210071901991132 15.000000000000004
    vertex -308.7650864543628 10.82865505609032 15.000000000000004
  endloop
endfacet
facet normal 0.9938516993871327 0.11071946362455236 -8.048802558278896e-14
  outer loop
    vertex -308.76508645436286 10.828655056090321 14.44
    vertex -308.6961735621564 10.21007190199113 15.000000000000004
    vertex -308.69617356215645 10.210071901991125 14.44
  endloop
endfacet
facet normal 0.9938516993871327 0.11071946362455236 -8.048802558278896e-14
  outer loop
    vertex -308.6961735621564 10.21007190199113 15.000000000000004
    vertex -308.76508645436286 10.828655056090321 14.44
    vertex -308.7650864543628 10.82865505609032 15.000000000000004
  endloop
endfacet
facet normal 0.9787918398489526 0.20485735096672147 -4.04551894370028e-14
  outer loop
    vertex -308.69617356215645 10.210071901991125 14.44
    vertex -308.565571177288 9.586064279268452 15.000000000000004
    vertex -308.565571177288 9.586064279268452 14.44
  endloop
endfacet
facet normal 0.9787918398489526 0.20485735096672147 -4.04551894370028e-14
  outer loop
    vertex -308.565571177288 9.586064279268452 15.000000000000004
    vertex -308.69617356215645 10.210071901991125 14.44
    vertex -308.6961735621564 10.21007190199113 15.000000000000004
  endloop
endfacet
facet normal -1.2146602222377154e-14 -1.0 1.2589136082803035e-15
  outer loop
    vertex -308.565571177288 9.586064279268452 15.000000000000004
    vertex -308.9718528068426 9.586064279268456 14.44
    vertex -308.565571177288 9.586064279268452 14.44
  endloop
endfacet
facet normal -1.2146602222377154e-14 -1.0 1.2589136082803035e-15
  outer loop
    vertex -308.9718528068426 9.586064279268456 14.44
    vertex -308.565571177288 9.586064279268452 15.000000000000004
    vertex -308.9718528068426 9.586064279268458 15.000000000000004
  endloop
endfacet
facet normal -0.9770549630280959 0.21298732174044174 -5.344510409557001e-16
  outer loop
    vertex -308.9718528068426 9.586064279268458 15.000000000000004
    vertex -308.83582595335076 10.21007190199113 14.44
    vertex -308.9718528068426 9.586064279268456 14.44
  endloop
endfacet
facet normal -0.9770549630280959 0.21298732174044174 -5.344510409557001e-16
  outer loop
    vertex -308.83582595335076 10.21007190199113 14.44
    vertex -308.9718528068426 9.586064279268458 15.000000000000004
    vertex -308.83582595335076 10.210071901991132 15.000000000000004
  endloop
endfacet
endsolid RMP_Front
