solid RMP_Front
facet normal 1.0 0.0 0.0
  outer loop
    vertex -267.84494047811995 14.599999999999882 4.999999999999994
    vertex -267.84494047811995 5.3999999999998884 14.44
    vertex -267.84494047811995 5.3999999999998884 4.999999999999994
  endloop
endfacet
facet normal 1.0 0.0 0.0
  outer loop
    vertex -267.84494047811995 5.3999999999998884 14.44
    vertex -267.84494047811995 14.599999999999882 4.999999999999994
    vertex -267.84494047811995 14.599999999999882 14.44
  endloop
endfacet
facet normal -1.0 0.0 0.0
  outer loop
    vertex -278.64494047811996 14.599999999999882 14.44
    vertex -278.64494047811996 5.3999999999998884 4.999999999999994
    vertex -278.64494047811996 5.3999999999998884 14.44
  endloop
endfacet
facet normal -1.0 0.0 0.0
  outer loop
    vertex -278.64494047811996 5.3999999999998884 4.999999999999994
    vertex -278.64494047811996 14.599999999999882 14.44
    vertex -278.64494047811996 14.599999999999882 4.999999999999994
  endloop
endfacet
facet normal 0.0 0.0 1.0
  outer loop
    vertex -272.46498720900837 9.817714121997666 14.44
    vertex -272.7170866206987 10.72459671309078 14.44
    vertex -272.5323225771764 9.362501571390384 14.44
  endloop
endfacet
facet normal 0.0 0.0 1.0
  outer loop
    vertex -278.64494047811996 5.3999999999998884 14.44
    vertex -275.565735247976 8.548803602007792 14.44
    vertex -278.64494047811996 14.599999999999882 14.44
  endloop
endfacet
facet normal 0.0 0.0 1.0
  outer loop
    vertex -275.565735247976 8.548803602007792 14.44
    vertex -278.64494047811996 5.3999999999998884 14.44
    vertex -267.84494047811995 5.3999999999998884 14.44
  endloop
endfacet
facet normal 0.0 0.0 1.0
  outer loop
    vertex -275.565735247976 8.548803602007792 14.44
    vertex -267.84494047811995 5.3999999999998884 14.44
    vertex -274.9865348431177 8.548803602007792 14.44
  endloop
endfacet
facet normal 0.0 0.0 1.0
  outer loop
    vertex -274.9865348431177 8.548803602007792 14.44
    vertex -267.84494047811995 5.3999999999998884 14.44
    vertex -273.994410602227 8.548803602007792 14.44
  endloop
endfacet
facet normal 0.0 0.0 1.0
  outer loop
    vertex -274.9865348431177 8.548803602007792 14.44
    vertex -273.994410602227 8.548803602007792 14.44
    vertex -274.8033483236339 9.322842063546252 14.44
  endloop
endfacet
facet normal 0.0 0.0 1.0
  outer loop
    vertex -274.8033483236339 9.322842063546252 14.44
    vertex -273.994410602227 8.548803602007792 14.44
    vertex -274.18304926619464 9.322842063546252 14.44
  endloop
endfacet
facet normal 0.0 0.0 1.0
  outer loop
    vertex -273.994410602227 8.548803602007792 14.44
    vertex -267.84494047811995 5.3999999999998884 14.44
    vertex -273.38864137145777 8.548803602007798 14.44
  endloop
endfacet
facet normal 0.0 0.0 1.0
  outer loop
    vertex -273.38864137145777 8.548803602007798 14.44
    vertex -267.84494047811995 5.3999999999998884 14.44
    vertex -273.1168367472169 8.548803602007792 14.44
  endloop
endfacet
facet normal 0.0 0.0 1.0
  outer loop
    vertex -273.38864137145777 8.548803602007798 14.44
    vertex -273.1168367472169 8.548803602007792 14.44
    vertex -273.173074095395 11.268621099477432 14.44
  endloop
endfacet
facet normal 0.0 0.0 1.0
  outer loop
    vertex -273.1168367472169 8.548803602007792 14.44
    vertex -267.84494047811995 5.3999999999998884 14.44
    vertex -272.5323225771764 8.548803602007792 14.44
  endloop
endfacet
facet normal 0.0 0.0 1.0
  outer loop
    vertex -272.5323225771764 8.548803602007792 14.44
    vertex -267.84494047811995 5.3999999999998884 14.44
    vertex -271.6962901885124 8.548803602007792 14.44
  endloop
endfacet
facet normal 0.0 0.0 1.0
  outer loop
    vertex -272.5323225771764 8.548803602007792 14.44
    vertex -271.6962901885124 8.548803602007792 14.44
    vertex -272.5323225771764 9.362501571390384 14.44
  endloop
endfacet
facet normal 0.0 0.0 1.0
  outer loop
    vertex -272.5323225771764 9.362501571390384 14.44
    vertex -271.6962901885124 8.548803602007792 14.44
    vertex -272.3108326670044 9.409633561521966 14.44
  endloop
endfacet
facet normal 0.0 0.0 1.0
  outer loop
    vertex -272.5323225771764 9.362501571390384 14.44
    vertex -272.3108326670044 9.409633561521966 14.44
    vertex -272.46498720900837 9.817714121997666 14.44
  endloop
endfacet
facet normal 0.0 0.0 1.0
  outer loop
    vertex -272.3108326670044 9.409633561521966 14.44
    vertex -271.6962901885124 8.548803602007792 14.44
    vertex -271.92813087044567 9.40963356152196 14.44
  endloop
endfacet
facet normal 0.0 0.0 1.0
  outer loop
    vertex -271.92813087044567 9.40963356152196 14.44
    vertex -271.6962901885124 8.548803602007792 14.44
    vertex -271.76852418395777 9.817714121997676 14.44
  endloop
endfacet
facet normal 0.0 0.0 1.0
  outer loop
    vertex -271.76852418395777 9.817714121997676 14.44
    vertex -271.6962901885124 8.548803602007792 14.44
    vertex -271.6962901885125 9.362501571390391 14.44
  endloop
endfacet
facet normal 0.0 0.0 1.0
  outer loop
    vertex -271.6962901885124 8.548803602007792 14.44
    vertex -267.84494047811995 5.3999999999998884 14.44
    vertex -271.1100047634112 8.548803602007792 14.44
  endloop
endfacet
facet normal 0.0 0.0 1.0
  outer loop
    vertex -271.1100047634112 8.548803602007792 14.44
    vertex -267.84494047811995 5.3999999999998884 14.44
    vertex -271.1100047634112 11.304876476501716 14.44
  endloop
endfacet
facet normal 0.0 0.0 1.0
  outer loop
    vertex -278.64494047811996 14.599999999999882 14.44
    vertex -274.85637527201453 11.268621099477421 14.44
    vertex -267.84494047811995 14.599999999999882 14.44
  endloop
endfacet
facet normal 0.0 0.0 1.0
  outer loop
    vertex -274.85637527201453 11.268621099477421 14.44
    vertex -278.64494047811996 14.599999999999882 14.44
    vertex -275.565735247976 8.548803602007792 14.44
  endloop
endfacet
facet normal 0.0 0.0 1.0
  outer loop
    vertex -274.85637527201453 11.268621099477421 14.44
    vertex -275.565735247976 8.548803602007792 14.44
    vertex -274.92169030237875 10.876952324173777 14.44
  endloop
endfacet
facet normal 0.0 0.0 1.0
  outer loop
    vertex -267.84494047811995 14.599999999999882 14.44
    vertex -274.85637527201453 11.268621099477421 14.44
    vertex -274.1705674531885 11.30487647650173 14.44
  endloop
endfacet
facet normal 0.0 0.0 1.0
  outer loop
    vertex -267.84494047811995 14.599999999999882 14.44
    vertex -274.1705674531885 11.30487647650173 14.44
    vertex -273.173074095395 11.268621099477432 14.44
  endloop
endfacet
facet normal 0.0 0.0 1.0
  outer loop
    vertex -273.173074095395 11.268621099477432 14.44
    vertex -274.1705674531885 11.30487647650173 14.44
    vertex -273.38864137145777 8.548803602007798 14.44
  endloop
endfacet
facet normal 0.0 0.0 1.0
  outer loop
    vertex -267.84494047811995 14.599999999999882 14.44
    vertex -273.173074095395 11.268621099477432 14.44
    vertex -272.555016782642 11.304876476501711 14.44
  endloop
endfacet
facet normal 0.0 0.0 1.0
  outer loop
    vertex -267.84494047811995 14.599999999999882 14.44
    vertex -272.555016782642 11.304876476501711 14.44
    vertex -271.7188736905368 11.268621099477443 14.44
  endloop
endfacet
facet normal 0.0 0.0 1.0
  outer loop
    vertex -271.7188736905368 11.268621099477443 14.44
    vertex -272.555016782642 11.304876476501711 14.44
    vertex -272.2085703631076 10.505265520023983 14.44
  endloop
endfacet
facet normal 0.0 0.0 1.0
  outer loop
    vertex -271.7188736905368 11.268621099477443 14.44
    vertex -272.2085703631076 10.505265520023983 14.44
    vertex -272.02721045040516 10.510689988647474 14.44
  endloop
endfacet
facet normal 0.0 0.0 1.0
  outer loop
    vertex -272.02721045040516 10.510689988647474 14.44
    vertex -272.2085703631076 10.505265520023983 14.44
    vertex -272.11607763790516 9.99937846916366 14.44
  endloop
endfacet
facet normal 0.0 0.0 1.0
  outer loop
    vertex -267.84494047811995 14.599999999999882 14.44
    vertex -271.7188736905368 11.268621099477443 14.44
    vertex -271.1100047634112 11.304876476501716 14.44
  endloop
endfacet
facet normal 0.0 0.0 1.0
  outer loop
    vertex -267.84494047811995 14.599999999999882 14.44
    vertex -271.1100047634112 11.304876476501716 14.44
    vertex -267.84494047811995 5.3999999999998884 14.44
  endloop
endfacet
facet normal 0.0 0.0 1.0
  outer loop
    vertex -271.50186726973715 10.72459671309079 14.44
    vertex -271.76852418395777 9.817714121997676 14.44
    vertex -271.6962901885125 9.362501571390391 14.44
  endloop
endfacet
facet normal 0.0 0.0 1.0
  outer loop
    vertex -273.1168367472169 10.838870340368116 14.44
    vertex -273.173074095395 11.268621099477432 14.44
    vertex -273.1168367472169 8.548803602007792 14.44
  endloop
endfacet
facet normal 0.0 -1.0 0.0
  outer loop
    vertex -267.84494047811995 5.3999999999998884 14.44
    vertex -278.64494047811996 5.3999999999998884 4.999999999999994
    vertex -267.84494047811995 5.3999999999998884 4.999999999999994
  endloop
endfacet
facet normal 0.0 -1.0 0.0
  outer loop
    vertex -278.64494047811996 5.3999999999998884 4.999999999999994
    vertex -267.84494047811995 5.3999999999998884 14.44
    vertex -278.64494047811996 5.3999999999998884 14.44
  endloop
endfacet
facet normal 0.0 1.0 0.0
  outer loop
    vertex -278.64494047811996 14.599999999999882 14.44
    vertex -267.84494047811995 14.599999999999882 4.999999999999994
    vertex -278.64494047811996 14.599999999999882 4.999999999999994
  endloop
endfacet
facet normal 0.0 1.0 0.0
  outer loop
    vertex -267.84494047811995 14.599999999999882 4.999999999999994
    vertex -278.64494047811996 14.599999999999882 14.44
    vertex -267.84494047811995 14.599999999999882 14.44
  endloop
endfacet
facet normal 0.0 0.0 -1.0
  outer loop
    vertex -267.84494047811995 14.599999999999882 4.999999999999994
    vertex -278.64494047811996 5.3999999999998884 4.999999999999994
    vertex -278.64494047811996 14.599999999999882 4.999999999999994
  endloop
endfacet
facet normal 0.0 0.0 -1.0
  outer loop
    vertex -278.64494047811996 5.3999999999998884 4.999999999999994
    vertex -267.84494047811995 14.599999999999882 4.999999999999994
    vertex -267.84494047811995 5.3999999999998884 4.999999999999994
  endloop
endfacet
facet normal 0.0 0.0 1.0
  outer loop
    vertex -274.2900441422068 9.719603197149493 14.44
    vertex -274.5602989182695 10.343610819872163 14.44
    vertex -274.6963257717614 9.719603197149493 14.44
  endloop
endfacet
facet normal 0.0 0.0 1.0
  outer loop
    vertex -274.5602989182695 10.343610819872163 14.44
    vertex -274.2900441422068 9.719603197149493 14.44
    vertex -274.4206465270752 10.343610819872168 14.44
  endloop
endfacet
facet normal 0.0 0.0 1.0
  outer loop
    vertex -274.5602989182695 10.343610819872163 14.44
    vertex -274.4206465270752 10.343610819872168 14.44
    vertex -274.4895594192817 10.96219397397136 14.44
  endloop
endfacet
facet normal -0.9915462016008573 -0.12975411396526987 -6.511863777650899e-16
  outer loop
    vertex -273.173074095395 11.268621099477427 15.000000000000004
    vertex -273.1168367472169 10.838870340368116 14.44
    vertex -273.1168367472169 10.838870340368116 15.000000000000004
  endloop
endfacet
facet normal -0.9915462016008573 -0.12975411396526987 -6.511863777650899e-16
  outer loop
    vertex -273.1168367472169 10.838870340368116 14.44
    vertex -273.173074095395 11.268621099477427 15.000000000000004
    vertex -273.173074095395 11.268621099477432 14.44
  endloop
endfacet
facet normal -1.0 0.0 0.0
  outer loop
    vertex -273.1168367472169 10.838870340368116 15.000000000000004
    vertex -273.1168367472169 8.548803602007792 14.44
    vertex -273.1168367472169 8.548803602007792 15.000000000000004
  endloop
endfacet
facet normal -1.0 0.0 0.0
  outer loop
    vertex -273.1168367472169 8.548803602007792 14.44
    vertex -273.1168367472169 10.838870340368116 15.000000000000004
    vertex -273.1168367472169 10.838870340368116 14.44
  endloop
endfacet
facet normal -3.794510559481083e-33 3.91996520350929e-33 1.0
  outer loop
    vertex -272.5323225771764 8.548803602007792 15.000000000000004
    vertex -273.1168367472169 10.838870340368116 15.000000000000004
    vertex -273.1168367472169 8.548803602007792 15.000000000000004
  endloop
endfacet
facet normal -3.794510559481083e-33 3.91996520350929e-33 1.0
  outer loop
    vertex -273.1168367472169 10.838870340368116 15.000000000000004
    vertex -272.5323225771764 8.548803602007792 15.000000000000004
    vertex -272.71708662069864 10.724596713090788 15.000000000000004
  endloop
endfacet
facet normal -3.794510559481083e-33 3.91996520350929e-33 1.0
  outer loop
    vertex -272.71708662069864 10.724596713090788 15.000000000000004
    vertex -272.5323225771764 8.548803602007792 15.000000000000004
    vertex -272.5323225771764 9.362501571390384 15.000000000000004
  endloop
endfacet
facet normal -3.794510559481083e-33 3.91996520350929e-33 1.0
  outer loop
    vertex -271.1100047634112 8.548803602007792 15.000000000000004
    vertex -271.6962901885124 9.362501571390384 15.000000000000004
    vertex -271.6962901885124 8.548803602007792 15.000000000000004
  endloop
endfacet
facet normal -3.794510559481083e-33 3.91996520350929e-33 1.0
  outer loop
    vertex -271.6962901885124 9.362501571390384 15.000000000000004
    vertex -271.1100047634112 8.548803602007792 15.000000000000004
    vertex -271.50186726973715 10.724596713090788 15.000000000000004
  endloop
endfacet
facet normal -3.794510559481083e-33 3.91996520350929e-33 1.0
  outer loop
    vertex -273.1168367472169 10.838870340368116 15.000000000000004
    vertex -272.555016782642 11.304876476501718 15.000000000000004
    vertex -273.173074095395 11.268621099477427 15.000000000000004
  endloop
endfacet
facet normal -3.794510559481083e-33 3.91996520350929e-33 1.0
  outer loop
    vertex -272.555016782642 11.304876476501718 15.000000000000004
    vertex -273.1168367472169 10.838870340368116 15.000000000000004
    vertex -272.71708662069864 10.724596713090788 15.000000000000004
  endloop
endfacet
facet normal -3.794510559481083e-33 3.91996520350929e-33 1.0
  outer loop
    vertex -272.555016782642 11.304876476501718 15.000000000000004
    vertex -272.71708662069864 10.724596713090788 15.000000000000004
    vertex -272.46498720900837 9.817714121997671 15.000000000000004
  endloop
endfacet
facet normal -3.794510559481083e-33 3.91996520350929e-33 1.0
  outer loop
    vertex -272.555016782642 11.304876476501718 15.000000000000004
    vertex -272.46498720900837 9.817714121997671 15.000000000000004
    vertex -272.2085703631076 10.505265520023986 15.000000000000004
  endloop
endfacet
facet normal -3.794510559481083e-33 3.91996520350929e-33 1.0
  outer loop
    vertex -272.2085703631076 10.505265520023986 15.000000000000004
    vertex -272.46498720900837 9.817714121997671 15.000000000000004
    vertex -272.3108326670044 9.40963356152196 15.000000000000004
  endloop
endfacet
facet normal -3.794510559481083e-33 3.91996520350929e-33 1.0
  outer loop
    vertex -272.2085703631076 10.505265520023986 15.000000000000004
    vertex -272.3108326670044 9.40963356152196 15.000000000000004
    vertex -272.11607763790516 9.999378469163663 15.000000000000004
  endloop
endfacet
facet normal -3.794510559481083e-33 3.91996520350929e-33 1.0
  outer loop
    vertex -272.11607763790516 9.999378469163663 15.000000000000004
    vertex -272.3108326670044 9.40963356152196 15.000000000000004
    vertex -271.92813087044567 9.40963356152196 15.000000000000004
  endloop
endfacet
facet normal -3.794510559481083e-33 3.91996520350929e-33 1.0
  outer loop
    vertex -272.11607763790516 9.999378469163663 15.000000000000004
    vertex -271.92813087044567 9.40963356152196 15.000000000000004
    vertex -272.02721045040516 10.510689988647467 15.000000000000004
  endloop
endfacet
facet normal -3.794510559481083e-33 3.91996520350929e-33 1.0
  outer loop
    vertex -272.02721045040516 10.510689988647467 15.000000000000004
    vertex -271.92813087044567 9.40963356152196 15.000000000000004
    vertex -271.7188736905367 11.268621099477427 15.000000000000004
  endloop
endfacet
facet normal -3.794510559481083e-33 3.91996520350929e-33 1.0
  outer loop
    vertex -271.7188736905367 11.268621099477427 15.000000000000004
    vertex -271.92813087044567 9.40963356152196 15.000000000000004
    vertex -271.76852418395777 9.817714121997671 15.000000000000004
  endloop
endfacet
facet normal -3.794510559481083e-33 3.91996520350929e-33 1.0
  outer loop
    vertex -271.7188736905367 11.268621099477427 15.000000000000004
    vertex -271.76852418395777 9.817714121997671 15.000000000000004
    vertex -271.50186726973715 10.724596713090788 15.000000000000004
  endloop
endfacet
facet normal -3.794510559481083e-33 3.91996520350929e-33 1.0
  outer loop
    vertex -271.7188736905367 11.268621099477427 15.000000000000004
    vertex -271.50186726973715 10.724596713090788 15.000000000000004
    vertex -271.1100047634112 11.304876476501718 15.000000000000004
  endloop
endfacet
facet normal -3.794510559481083e-33 3.91996520350929e-33 1.0
  outer loop
    vertex -271.1100047634112 11.304876476501718 15.000000000000004
    vertex -271.50186726973715 10.724596713090788 15.000000000000004
    vertex -271.1100047634112 8.548803602007792 15.000000000000004
  endloop
endfacet
facet normal -0.05855955271217621 0.9982839169225106 -1.2559806676477884e-15
  outer loop
    vertex -273.173074095395 11.268621099477427 15.000000000000004
    vertex -272.555016782642 11.304876476501711 14.44
    vertex -273.173074095395 11.268621099477432 14.44
  endloop
endfacet
facet normal -0.05855955271217621 0.9982839169225106 -1.2559806676477884e-15
  outer loop
    vertex -272.555016782642 11.304876476501711 14.44
    vertex -273.173074095395 11.268621099477427 15.000000000000004
    vertex -272.555016782642 11.304876476501718 15.000000000000004
  endloop
endfacet
facet normal -1.0 -2.7724945507115863e-14 4.0285235464969496e-14
  outer loop
    vertex -271.6962901885124 9.362501571390384 15.000000000000004
    vertex -271.6962901885124 8.548803602007792 14.44
    vertex -271.6962901885124 8.548803602007792 15.000000000000004
  endloop
endfacet
facet normal -1.0 -2.7724945507115863e-14 4.0285235464969496e-14
  outer loop
    vertex -271.6962901885124 8.548803602007792 14.44
    vertex -271.6962901885124 9.362501571390384 15.000000000000004
    vertex -271.6962901885125 9.362501571390391 14.44
  endloop
endfacet
facet normal -0.9899659809972557 0.1413058967918232 4.112906921562916e-14
  outer loop
    vertex -271.50186726973715 10.724596713090788 15.000000000000004
    vertex -271.6962901885125 9.362501571390391 14.44
    vertex -271.6962901885124 9.362501571390384 15.000000000000004
  endloop
endfacet
facet normal -0.9899659809972557 0.1413058967918232 4.112906921562916e-14
  outer loop
    vertex -271.6962901885125 9.362501571390391 14.44
    vertex -271.50186726973715 10.724596713090788 15.000000000000004
    vertex -271.50186726973715 10.72459671309079 14.44
  endloop
endfacet
facet normal 0.9593864784868785 -0.2820949926825113 -1.7775240351688196e-15
  outer loop
    vertex -271.76852418395777 9.817714121997676 14.44
    vertex -271.50186726973715 10.724596713090788 15.000000000000004
    vertex -271.76852418395777 9.817714121997671 15.000000000000004
  endloop
endfacet
facet normal 0.9593864784868785 -0.2820949926825113 -1.7775240351688196e-15
  outer loop
    vertex -271.50186726973715 10.724596713090788 15.000000000000004
    vertex -271.76852418395777 9.817714121997676 14.44
    vertex -271.50186726973715 10.72459671309079 14.44
  endloop
endfacet
facet normal 0.931302407365335 -0.3642469300289733 -1.838171974452156e-15
  outer loop
    vertex -271.76852418395777 9.817714121997676 14.44
    vertex -271.92813087044567 9.40963356152196 15.000000000000004
    vertex -271.92813087044567 9.40963356152196 14.44
  endloop
endfacet
facet normal 0.931302407365335 -0.3642469300289733 -1.838171974452156e-15
  outer loop
    vertex -271.92813087044567 9.40963356152196 15.000000000000004
    vertex -271.76852418395777 9.817714121997676 14.44
    vertex -271.76852418395777 9.817714121997671 15.000000000000004
  endloop
endfacet
facet normal -5.526430450363813e-15 -1.0 -3.77674082484091e-15
  outer loop
    vertex -271.92813087044567 9.40963356152196 15.000000000000004
    vertex -272.3108326670044 9.409633561521966 14.44
    vertex -271.92813087044567 9.40963356152196 14.44
  endloop
endfacet
facet normal -5.526430450363813e-15 -1.0 -3.77674082484091e-15
  outer loop
    vertex -272.3108326670044 9.409633561521966 14.44
    vertex -271.92813087044567 9.40963356152196 15.000000000000004
    vertex -272.3108326670044 9.40963356152196 15.000000000000004
  endloop
endfacet
facet normal -0.9354790849156602 -0.35338206191791754 4.433724254189753e-16
  outer loop
    vertex -272.46498720900837 9.817714121997671 15.000000000000004
    vertex -272.3108326670044 9.409633561521966 14.44
    vertex -272.3108326670044 9.40963356152196 15.000000000000004
  endloop
endfacet
facet normal -0.9354790849156602 -0.35338206191791754 4.433724254189753e-16
  outer loop
    vertex -272.3108326670044 9.409633561521966 14.44
    vertex -272.46498720900837 9.817714121997671 15.000000000000004
    vertex -272.46498720900837 9.817714121997666 14.44
  endloop
endfacet
facet normal -0.9634665003916092 -0.2678288681661209 4.252030566273488e-14
  outer loop
    vertex -272.46498720900837 9.817714121997671 15.000000000000004
    vertex -272.7170866206987 10.72459671309078 14.44
    vertex -272.46498720900837 9.817714121997666 14.44
  endloop
endfacet
facet normal -0.9634665003916092 -0.2678288681661209 4.252030566273488e-14
  outer loop
    vertex -272.7170866206987 10.72459671309078 14.44
    vertex -272.46498720900837 9.817714121997671 15.000000000000004
    vertex -272.71708662069864 10.724596713090788 15.000000000000004
  endloop
endfacet
facet normal 0.9909249986526403 0.13441594788292413 -4.110700281514191e-14
  outer loop
    vertex -272.7170866206987 10.72459671309078 14.44
    vertex -272.5323225771764 9.362501571390384 15.000000000000004
    vertex -272.5323225771764 9.362501571390384 14.44
  endloop
endfacet
facet normal 0.9909249986526403 0.13441594788292413 -4.110700281514191e-14
  outer loop
    vertex -272.5323225771764 9.362501571390384 15.000000000000004
    vertex -272.7170866206987 10.72459671309078 14.44
    vertex -272.71708662069864 10.724596713090788 15.000000000000004
  endloop
endfacet
facet normal 1.0 0.0 0.0
  outer loop
    vertex -272.5323225771764 9.362501571390384 14.44
    vertex -272.5323225771764 8.548803602007792 15.000000000000004
    vertex -272.5323225771764 8.548803602007792 14.44
  endloop
endfacet
facet normal 1.0 0.0 0.0
  outer loop
    vertex -272.5323225771764 8.548803602007792 15.000000000000004
    vertex -272.5323225771764 9.362501571390384 14.44
    vertex -272.5323225771764 9.362501571390384 15.000000000000004
  endloop
endfacet
facet normal 0.0 -1.0 0.0
  outer loop
    vertex -272.5323225771764 8.548803602007792 15.000000000000004
    vertex -273.1168367472169 8.548803602007792 14.44
    vertex -272.5323225771764 8.548803602007792 14.44
  endloop
endfacet
facet normal 0.0 -1.0 0.0
  outer loop
    vertex -273.1168367472169 8.548803602007792 14.44
    vertex -272.5323225771764 8.548803602007792 15.000000000000004
    vertex -273.1168367472169 8.548803602007792 15.000000000000004
  endloop
endfacet
facet normal 0.9175772520692413 0.3975575260073188 -4.098022390221153e-14
  outer loop
    vertex -272.555016782642 11.304876476501711 14.44
    vertex -272.2085703631076 10.505265520023986 15.000000000000004
    vertex -272.2085703631076 10.505265520023983 14.44
  endloop
endfacet
facet normal 0.9175772520692413 0.3975575260073188 -4.098022390221153e-14
  outer loop
    vertex -272.2085703631076 10.505265520023986 15.000000000000004
    vertex -272.555016782642 11.304876476501711 14.44
    vertex -272.555016782642 11.304876476501718 15.000000000000004
  endloop
endfacet
facet normal 0.9836937819401217 0.17985144806851133 -4.0757817279660667e-14
  outer loop
    vertex -272.2085703631076 10.505265520023983 14.44
    vertex -272.11607763790516 9.999378469163663 15.000000000000004
    vertex -272.11607763790516 9.99937846916366 14.44
  endloop
endfacet
facet normal 0.9836937819401217 0.17985144806851133 -4.0757817279660667e-14
  outer loop
    vertex -272.11607763790516 9.999378469163663 15.000000000000004
    vertex -272.2085703631076 10.505265520023983 14.44
    vertex -272.2085703631076 10.505265520023986 15.000000000000004
  endloop
endfacet
facet normal -0.9852301447683919 0.17123539890937808 6.397495861359115e-16
  outer loop
    vertex -272.11607763790516 9.999378469163663 15.000000000000004
    vertex -272.02721045040516 10.510689988647474 14.44
    vertex -272.11607763790516 9.99937846916366 14.44
  endloop
endfacet
facet normal -0.9852301447683919 0.17123539890937808 6.397495861359115e-16
  outer loop
    vertex -272.02721045040516 10.510689988647474 14.44
    vertex -272.11607763790516 9.999378469163663 15.000000000000004
    vertex -272.02721045040516 10.510689988647467 15.000000000000004
  endloop
endfacet
facet normal -0.9262843956959936 0.3768251826644656 4.487822647677061e-14
  outer loop
    vertex -271.7188736905367 11.268621099477427 15.000000000000004
    vertex -272.02721045040516 10.510689988647474 14.44
    vertex -272.02721045040516 10.510689988647467 15.000000000000004
  endloop
endfacet
facet normal -0.9262843956959936 0.3768251826644656 4.487822647677061e-14
  outer loop
    vertex -272.02721045040516 10.510689988647474 14.44
    vertex -271.7188736905367 11.268621099477427 15.000000000000004
    vertex -271.7188736905368 11.268621099477443 14.44
  endloop
endfacet
facet normal -0.05944017043656261 0.9982318699272592 1.4962513657975422e-14
  outer loop
    vertex -271.7188736905367 11.268621099477427 15.000000000000004
    vertex -271.1100047634112 11.304876476501716 14.44
    vertex -271.7188736905368 11.268621099477443 14.44
  endloop
endfacet
facet normal -0.05944017043656261 0.9982318699272592 1.4962513657975422e-14
  outer loop
    vertex -271.1100047634112 11.304876476501716 14.44
    vertex -271.7188736905367 11.268621099477427 15.000000000000004
    vertex -271.1100047634112 11.304876476501718 15.000000000000004
  endloop
endfacet
facet normal 1.0 0.0 0.0
  outer loop
    vertex -271.1100047634112 11.304876476501716 14.44
    vertex -271.1100047634112 8.548803602007792 15.000000000000004
    vertex -271.1100047634112 8.548803602007792 14.44
  endloop
endfacet
facet normal 1.0 0.0 0.0
  outer loop
    vertex -271.1100047634112 8.548803602007792 15.000000000000004
    vertex -271.1100047634112 11.304876476501716 14.44
    vertex -271.1100047634112 11.304876476501718 15.000000000000004
  endloop
endfacet
facet normal 0.0 -1.0 0.0
  outer loop
    vertex -271.1100047634112 8.548803602007792 15.000000000000004
    vertex -271.6962901885124 8.548803602007792 14.44
    vertex -271.1100047634112 8.548803602007792 14.44
  endloop
endfacet
facet normal 0.0 -1.0 0.0
  outer loop
    vertex -271.6962901885124 8.548803602007792 14.44
    vertex -271.1100047634112 8.548803602007792 15.000000000000004
    vertex -271.6962901885124 8.548803602007792 15.000000000000004
  endloop
endfacet
facet normal 0.9935246467856343 -0.11361679554309066 3.9736036360693033e-14
  outer loop
    vertex -274.4895594192817 10.96219397397136 14.44
    vertex -274.56029891826955 10.343610819872165 15.000000000000004
    vertex -274.5602989182695 10.343610819872163 14.44
  endloop
endfacet
facet normal 0.9935246467856343 -0.11361679554309066 3.9736036360693033e-14
  outer loop
    vertex -274.56029891826955 10.343610819872165 15.000000000000004
    vertex -274.4895594192817 10.96219397397136 14.44
    vertex -274.4895594192817 10.962193973971356 15.000000000000004
  endloop
endfacet
facet normal -0.9938516993871246 -0.11071946362462434 -8.396620842382158e-16
  outer loop
    vertex -274.4895594192817 10.962193973971356 15.000000000000004
    vertex -274.4206465270752 10.343610819872168 14.44
    vertex -274.4206465270752 10.343610819872165 15.000000000000004
  endloop
endfacet
facet normal -0.9938516993871246 -0.11071946362462434 -8.396620842382158e-16
  outer loop
    vertex -274.4206465270752 10.343610819872168 14.44
    vertex -274.4895594192817 10.962193973971356 15.000000000000004
    vertex -274.4895594192817 10.96219397397136 14.44
  endloop
endfacet
facet normal 0.0 0.0 1.0
  outer loop
    vertex -274.18304926619464 9.322842063546252 15.000000000000004
    vertex -274.6963257717614 9.719603197149493 15.000000000000004
    vertex -274.8033483236339 9.322842063546252 15.000000000000004
  endloop
endfacet
facet normal 0.0 0.0 1.0
  outer loop
    vertex -274.6963257717614 9.719603197149493 15.000000000000004
    vertex -274.18304926619464 9.322842063546252 15.000000000000004
    vertex -274.2900441422068 9.719603197149493 15.000000000000004
  endloop
endfacet
facet normal 0.0 0.0 1.0
  outer loop
    vertex -274.9865348431177 8.548803602007792 15.000000000000004
    vertex -274.9216903023788 10.876952324173784 15.000000000000004
    vertex -275.565735247976 8.548803602007792 15.000000000000004
  endloop
endfacet
facet normal 0.0 0.0 1.0
  outer loop
    vertex -274.9216903023788 10.876952324173784 15.000000000000004
    vertex -274.9865348431177 8.548803602007792 15.000000000000004
    vertex -274.8033483236339 9.322842063546252 15.000000000000004
  endloop
endfacet
facet normal 0.0 0.0 1.0
  outer loop
    vertex -274.9216903023788 10.876952324173784 15.000000000000004
    vertex -274.8033483236339 9.322842063546252 15.000000000000004
    vertex -274.8563752720145 11.268621099477427 15.000000000000004
  endloop
endfacet
facet normal 0.0 0.0 1.0
  outer loop
    vertex -274.8563752720145 11.268621099477427 15.000000000000004
    vertex -274.8033483236339 9.322842063546252 15.000000000000004
    vertex -274.4895594192817 10.962193973971356 15.000000000000004
  endloop
endfacet
facet normal 0.0 0.0 1.0
  outer loop
    vertex -274.8563752720145 11.268621099477427 15.000000000000004
    vertex -274.4895594192817 10.962193973971356 15.000000000000004
    vertex -274.17056745318854 11.304876476501718 15.000000000000004
  endloop
endfacet
facet normal 0.0 0.0 1.0
  outer loop
    vertex -274.4895594192817 10.962193973971356 15.000000000000004
    vertex -274.8033483236339 9.322842063546252 15.000000000000004
    vertex -274.6963257717614 9.719603197149493 15.000000000000004
  endloop
endfacet
facet normal 0.0 0.0 1.0
  outer loop
    vertex -274.4895594192817 10.962193973971356 15.000000000000004
    vertex -274.6963257717614 9.719603197149493 15.000000000000004
    vertex -274.56029891826955 10.343610819872165 15.000000000000004
  endloop
endfacet
facet normal 0.0 0.0 1.0
  outer loop
    vertex -274.17056745318854 11.304876476501718 15.000000000000004
    vertex -274.4895594192817 10.962193973971356 15.000000000000004
    vertex -274.4206465270752 10.343610819872165 15.000000000000004
  endloop
endfacet
facet normal 0.0 0.0 1.0
  outer loop
    vertex -274.17056745318854 11.304876476501718 15.000000000000004
    vertex -274.4206465270752 10.343610819872165 15.000000000000004
    vertex -274.2900441422068 9.719603197149493 15.000000000000004
  endloop
endfacet
facet normal 0.0 0.0 1.0
  outer loop
    vertex -274.17056745318854 11.304876476501718 15.000000000000004
    vertex -274.2900441422068 9.719603197149493 15.000000000000004
    vertex -274.18304926619464 9.322842063546252 15.000000000000004
  endloop
endfacet
facet normal 0.0 0.0 1.0
  outer loop
    vertex -274.17056745318854 11.304876476501718 15.000000000000004
    vertex -274.18304926619464 9.322842063546252 15.000000000000004
    vertex -273.994410602227 8.548803602007792 15.000000000000004
  endloop
endfacet
facet normal 0.0 0.0 1.0
  outer loop
    vertex -274.17056745318854 11.304876476501718 15.000000000000004
    vertex -273.994410602227 8.548803602007792 15.000000000000004
    vertex -273.38864137145777 8.548803602007792 15.000000000000004
  endloop
endfacet
facet normal 0.9770549630280883 -0.21298732174047622 3.9618411951476107e-14
  outer loop
    vertex -274.5602989182695 10.343610819872163 14.44
    vertex -274.6963257717614 9.719603197149493 15.000000000000004
    vertex -274.6963257717614 9.719603197149493 14.44
  endloop
endfacet
facet normal 0.9770549630280883 -0.21298732174047622 3.9618411951476107e-14
  outer loop
    vertex -274.6963257717614 9.719603197149493 15.000000000000004
    vertex -274.5602989182695 10.343610819872163 14.44
    vertex -274.56029891826955 10.343610819872165 15.000000000000004
  endloop
endfacet
facet normal -0.9638016619259462 0.2666202476721982 -4.0165183917605066e-14
  outer loop
    vertex -274.9216903023788 10.876952324173784 15.000000000000004
    vertex -275.565735247976 8.548803602007792 14.44
    vertex -275.565735247976 8.548803602007792 15.000000000000004
  endloop
endfacet
facet normal -0.9638016619259462 0.2666202476721982 -4.0165183917605066e-14
  outer loop
    vertex -275.565735247976 8.548803602007792 14.44
    vertex -274.9216903023788 10.876952324173784 15.000000000000004
    vertex -274.92169030237875 10.876952324173777 14.44
  endloop
endfacet
facet normal -0.9863788496551927 0.164489406810587 -1.6636291201524727e-15
  outer loop
    vertex -274.9216903023788 10.876952324173784 15.000000000000004
    vertex -274.85637527201453 11.268621099477421 14.44
    vertex -274.92169030237875 10.876952324173777 14.44
  endloop
endfacet
facet normal -0.9863788496551927 0.164489406810587 -1.6636291201524727e-15
  outer loop
    vertex -274.85637527201453 11.268621099477421 14.44
    vertex -274.9216903023788 10.876952324173784 15.000000000000004
    vertex -274.8563752720145 11.268621099477427 15.000000000000004
  endloop
endfacet
facet normal -0.05279149633998245 0.9986055567210638 5.026077851713286e-15
  outer loop
    vertex -274.8563752720145 11.268621099477427 15.000000000000004
    vertex -274.1705674531885 11.30487647650173 14.44
    vertex -274.85637527201453 11.268621099477421 14.44
  endloop
endfacet
facet normal -0.05279149633998245 0.9986055567210638 5.026077851713286e-15
  outer loop
    vertex -274.1705674531885 11.30487647650173 14.44
    vertex -274.8563752720145 11.268621099477427 15.000000000000004
    vertex -274.17056745318854 11.304876476501718 15.000000000000004
  endloop
endfacet
facet normal 0.9620315680746071 0.27293820184780376 4.2810723315346685e-14
  outer loop
    vertex -273.38864137145777 8.548803602007798 14.44
    vertex -274.17056745318854 11.304876476501718 15.000000000000004
    vertex -273.38864137145777 8.548803602007792 15.000000000000004
  endloop
endfacet
facet normal 0.9620315680746071 0.27293820184780376 4.2810723315346685e-14
  outer loop
    vertex -274.17056745318854 11.304876476501718 15.000000000000004
    vertex -273.38864137145777 8.548803602007798 14.44
    vertex -274.1705674531885 11.30487647650173 14.44
  endloop
endfacet
facet normal 4.655182764840805e-15 -1.0 -5.035654433121213e-15
  outer loop
    vertex -273.38864137145777 8.548803602007792 15.000000000000004
    vertex -273.994410602227 8.548803602007792 14.44
    vertex -273.38864137145777 8.548803602007798 14.44
  endloop
endfacet
facet normal 4.655182764840805e-15 -1.0 -5.035654433121213e-15
  outer loop
    vertex -273.994410602227 8.548803602007792 14.44
    vertex -273.38864137145777 8.548803602007792 15.000000000000004
    vertex -273.994410602227 8.548803602007792 15.000000000000004
  endloop
endfacet
facet normal -0.9715640134819038 -0.23677704218723375 0.0
  outer loop
    vertex -274.18304926619464 9.322842063546252 15.000000000000004
    vertex -273.994410602227 8.548803602007792 14.44
    vertex -273.994410602227 8.548803602007792 15.000000000000004
  endloop
endfacet
facet normal -0.9715640134819038 -0.23677704218723375 0.0
  outer loop
    vertex -273.994410602227 8.548803602007792 14.44
    vertex -274.18304926619464 9.322842063546252 15.000000000000004
    vertex -274.18304926619464 9.322842063546252 14.44
  endloop
endfacet
facet normal 0.0 -1.0 0.0
  outer loop
    vertex -274.18304926619464 9.322842063546252 15.000000000000004
    vertex -274.8033483236339 9.322842063546252 14.44
    vertex -274.18304926619464 9.322842063546252 14.44
  endloop
endfacet
facet normal 0.0 -1.0 0.0
  outer loop
    vertex -274.8033483236339 9.322842063546252 14.44
    vertex -274.18304926619464 9.322842063546252 15.000000000000004
    vertex -274.8033483236339 9.322842063546252 15.000000000000004
  endloop
endfacet
facet normal 0.9731192884861194 -0.23030165083270387 0.0
  outer loop
    vertex -274.8033483236339 9.322842063546252 14.44
    vertex -274.9865348431177 8.548803602007792 15.000000000000004
    vertex -274.9865348431177 8.548803602007792 14.44
  endloop
endfacet
facet normal 0.9731192884861194 -0.23030165083270387 0.0
  outer loop
    vertex -274.9865348431177 8.548803602007792 15.000000000000004
    vertex -274.8033483236339 9.322842063546252 14.44
    vertex -274.8033483236339 9.322842063546252 15.000000000000004
  endloop
endfacet
facet normal 0.0 -1.0 0.0
  outer loop
    vertex -274.9865348431177 8.548803602007792 15.000000000000004
    vertex -275.565735247976 8.548803602007792 14.44
    vertex -274.9865348431177 8.548803602007792 14.44
  endloop
endfacet
facet normal 0.0 -1.0 0.0
  outer loop
    vertex -275.565735247976 8.548803602007792 14.44
    vertex -274.9865348431177 8.548803602007792 15.000000000000004
    vertex -275.565735247976 8.548803602007792 15.000000000000004
  endloop
endfacet
facet normal 0.0 1.0 0.0
  outer loop
    vertex -274.6963257717614 9.719603197149493 15.000000000000004
    vertex -274.2900441422068 9.719603197149493 14.44
    vertex -274.6963257717614 9.719603197149493 14.44
  endloop
endfacet
facet normal 0.0 1.0 0.0
  outer loop
    vertex -274.2900441422068 9.719603197149493 14.44
    vertex -274.6963257717614 9.719603197149493 15.000000000000004
    vertex -274.2900441422068 9.719603197149493 15.000000000000004
  endloop
endfacet
facet normal -0.9787918398489454 -0.2048573509667556 -7.653639745788766e-16
  outer loop
    vertex -274.4206465270752 10.343610819872165 15.000000000000004
    vertex -274.2900441422068 9.719603197149493 14.44
    vertex -274.2900441422068 9.719603197149493 15.000000000000004
  endloop
endfacet
facet normal -0.9787918398489454 -0.2048573509667556 -7.653639745788766e-16
  outer loop
    vertex -274.2900441422068 9.719603197149493 14.44
    vertex -274.4206465270752 10.343610819872165 15.000000000000004
    vertex -274.4206465270752 10.343610819872168 14.44
  endloop
endfacet
endsolid RMP_Front
