solid RMP_Front
facet normal -1.0 0.0 0.0
  outer loop
    vertex -280.14494047811996 15.599999999999893 8.000000000000004
    vertex -280.14494047811996 4.39999999999989 0.0
    vertex -280.14494047811996 4.39999999999989 8.000000000000004
  endloop
endfacet
facet normal -1.0 0.0 0.0
  outer loop
    vertex -280.14494047811996 4.39999999999989 0.0
    vertex -280.14494047811996 15.599999999999893 8.000000000000004
    vertex -280.14494047811996 15.599999999999893 0.0
  endloop
endfacet
facet normal 1.0 0.0 0.0
  outer loop
    vertex -266.34494047811995 15.599999999999893 0.0
    vertex -266.34494047811995 4.39999999999989 8.000000000000004
    vertex -266.34494047811995 4.39999999999989 0.0
  endloop
endfacet
facet normal 1.0 0.0 0.0
  outer loop
    vertex -266.34494047811995 4.39999999999989 8.000000000000004
    vertex -266.34494047811995 15.599999999999893 0.0
    vertex -266.34494047811995 15.599999999999893 8.000000000000004
  endloop
endfacet
facet normal 1.0 0.0 0.0
  outer loop
    vertex -267.09494047811995 15.349999999999893 8.000000000000004
    vertex -267.09494047811995 4.64999999999989 15.000000000000004
    vertex -267.09494047811995 4.64999999999989 8.000000000000004
  endloop
endfacet
facet normal 1.0 0.0 0.0
  outer loop
    vertex -267.09494047811995 4.64999999999989 15.000000000000004
    vertex -267.09494047811995 15.349999999999893 8.000000000000004
    vertex -267.09494047811995 15.349999999999893 15.000000000000004
  endloop
endfacet
facet normal -1.0 0.0 0.0
  outer loop
    vertex -279.39494047811996 15.349999999999893 15.000000000000004
    vertex -279.39494047811996 4.64999999999989 8.000000000000004
    vertex -279.39494047811996 4.64999999999989 15.000000000000004
  endloop
endfacet
facet normal -1.0 0.0 0.0
  outer loop
    vertex -279.39494047811996 4.64999999999989 8.000000000000004
    vertex -279.39494047811996 15.349999999999893 15.000000000000004
    vertex -279.39494047811996 15.349999999999893 8.000000000000004
  endloop
endfacet
facet normal 0.0 -1.0 0.0
  outer loop
    vertex -266.34494047811995 4.39999999999989 8.000000000000004
    vertex -280.14494047811996 4.39999999999989 0.0
    vertex -266.34494047811995 4.39999999999989 0.0
  endloop
endfacet
facet normal 0.0 -1.0 0.0
  outer loop
    vertex -280.14494047811996 4.39999999999989 0.0
    vertex -266.34494047811995 4.39999999999989 8.000000000000004
    vertex -280.14494047811996 4.39999999999989 8.000000000000004
  endloop
endfacet
facet normal 0.0 0.0 -1.0
  outer loop
    vertex -280.14494047811996 15.599999999999893 0.0
    vertex -278.64494047811996 14.599999999999882 0.0
    vertex -280.14494047811996 4.39999999999989 0.0
  endloop
endfacet
facet normal 0.0 0.0 -1.0
  outer loop
    vertex -278.64494047811996 14.599999999999882 0.0
    vertex -280.14494047811996 15.599999999999893 0.0
    vertex -266.34494047811995 15.599999999999893 0.0
  endloop
endfacet
facet normal 0.0 0.0 -1.0
  outer loop
    vertex -278.64494047811996 14.599999999999882 0.0
    vertex -266.34494047811995 15.599999999999893 0.0
    vertex -267.84494047811995 14.599999999999882 0.0
  endloop
endfacet
facet normal 0.0 0.0 -1.0
  outer loop
    vertex -267.84494047811995 14.599999999999882 0.0
    vertex -266.34494047811995 15.599999999999893 0.0
    vertex -267.84494047811995 5.3999999999998884 0.0
  endloop
endfacet
facet normal 0.0 0.0 -1.0
  outer loop
    vertex -280.14494047811996 4.39999999999989 0.0
    vertex -278.64494047811996 5.3999999999998884 0.0
    vertex -266.34494047811995 4.39999999999989 0.0
  endloop
endfacet
facet normal 0.0 0.0 -1.0
  outer loop
    vertex -278.64494047811996 5.3999999999998884 0.0
    vertex -280.14494047811996 4.39999999999989 0.0
    vertex -278.64494047811996 14.599999999999882 0.0
  endloop
endfacet
facet normal 0.0 0.0 -1.0
  outer loop
    vertex -266.34494047811995 4.39999999999989 0.0
    vertex -278.64494047811996 5.3999999999998884 0.0
    vertex -267.84494047811995 5.3999999999998884 0.0
  endloop
endfacet
facet normal 0.0 0.0 -1.0
  outer loop
    vertex -266.34494047811995 4.39999999999989 0.0
    vertex -267.84494047811995 5.3999999999998884 0.0
    vertex -266.34494047811995 15.599999999999893 0.0
  endloop
endfacet
facet normal 0.0 0.0 1.0
  outer loop
    vertex -272.46498720900837 9.817714121997666 15.000000000000004
    vertex -272.7170866206987 10.72459671309078 15.000000000000004
    vertex -272.5323225771764 9.362501571390384 15.000000000000004
  endloop
endfacet
facet normal 0.0 0.0 1.0
  outer loop
    vertex -279.39494047811996 4.64999999999989 15.000000000000004
    vertex -275.565735247976 8.548803602007794 15.000000000000004
    vertex -279.39494047811996 15.349999999999893 15.000000000000004
  endloop
endfacet
facet normal 0.0 0.0 1.0
  outer loop
    vertex -275.565735247976 8.548803602007794 15.000000000000004
    vertex -279.39494047811996 4.64999999999989 15.000000000000004
    vertex -267.09494047811995 4.64999999999989 15.000000000000004
  endloop
endfacet
facet normal 0.0 0.0 1.0
  outer loop
    vertex -275.565735247976 8.548803602007794 15.000000000000004
    vertex -267.09494047811995 4.64999999999989 15.000000000000004
    vertex -274.9865348431177 8.548803602007792 15.000000000000004
  endloop
endfacet
facet normal 0.0 0.0 1.0
  outer loop
    vertex -274.9865348431177 8.548803602007792 15.000000000000004
    vertex -267.09494047811995 4.64999999999989 15.000000000000004
    vertex -273.994410602227 8.548803602007794 15.000000000000004
  endloop
endfacet
facet normal 0.0 0.0 1.0
  outer loop
    vertex -274.9865348431177 8.548803602007792 15.000000000000004
    vertex -273.994410602227 8.548803602007794 15.000000000000004
    vertex -274.8033483236339 9.322842063546254 15.000000000000004
  endloop
endfacet
facet normal 0.0 0.0 1.0
  outer loop
    vertex -274.8033483236339 9.322842063546254 15.000000000000004
    vertex -273.994410602227 8.548803602007794 15.000000000000004
    vertex -274.18304926619464 9.322842063546256 15.000000000000004
  endloop
endfacet
facet normal 0.0 0.0 1.0
  outer loop
    vertex -273.994410602227 8.548803602007794 15.000000000000004
    vertex -267.09494047811995 4.64999999999989 15.000000000000004
    vertex -273.38864137145777 8.548803602007792 15.000000000000004
  endloop
endfacet
facet normal 0.0 0.0 1.0
  outer loop
    vertex -273.38864137145777 8.548803602007792 15.000000000000004
    vertex -267.09494047811995 4.64999999999989 15.000000000000004
    vertex -273.1168367472169 8.548803602007792 15.000000000000004
  endloop
endfacet
facet normal 0.0 0.0 1.0
  outer loop
    vertex -273.38864137145777 8.548803602007792 15.000000000000004
    vertex -273.1168367472169 8.548803602007792 15.000000000000004
    vertex -273.173074095395 11.268621099477432 15.000000000000004
  endloop
endfacet
facet normal 0.0 0.0 1.0
  outer loop
    vertex -273.1168367472169 8.548803602007792 15.000000000000004
    vertex -267.09494047811995 4.64999999999989 15.000000000000004
    vertex -272.5323225771764 8.548803602007792 15.000000000000004
  endloop
endfacet
facet normal 0.0 0.0 1.0
  outer loop
    vertex -272.5323225771764 8.548803602007792 15.000000000000004
    vertex -267.09494047811995 4.64999999999989 15.000000000000004
    vertex -271.6962901885124 8.548803602007792 15.000000000000004
  endloop
endfacet
facet normal 0.0 0.0 1.0
  outer loop
    vertex -272.5323225771764 8.548803602007792 15.000000000000004
    vertex -271.6962901885124 8.548803602007792 15.000000000000004
    vertex -272.5323225771764 9.362501571390384 15.000000000000004
  endloop
endfacet
facet normal 0.0 0.0 1.0
  outer loop
    vertex -272.5323225771764 9.362501571390384 15.000000000000004
    vertex -271.6962901885124 8.548803602007792 15.000000000000004
    vertex -272.3108326670044 9.409633561521968 15.000000000000004
  endloop
endfacet
facet normal 0.0 0.0 1.0
  outer loop
    vertex -272.5323225771764 9.362501571390384 15.000000000000004
    vertex -272.3108326670044 9.409633561521968 15.000000000000004
    vertex -272.46498720900837 9.817714121997666 15.000000000000004
  endloop
endfacet
facet normal 0.0 0.0 1.0
  outer loop
    vertex -272.3108326670044 9.409633561521968 15.000000000000004
    vertex -271.6962901885124 8.548803602007792 15.000000000000004
    vertex -271.92813087044567 9.40963356152197 15.000000000000004
  endloop
endfacet
facet normal 0.0 0.0 1.0
  outer loop
    vertex -271.92813087044567 9.40963356152197 15.000000000000004
    vertex -271.6962901885124 8.548803602007792 15.000000000000004
    vertex -271.76852418395777 9.817714121997678 15.000000000000004
  endloop
endfacet
facet normal 0.0 0.0 1.0
  outer loop
    vertex -271.6962901885124 8.548803602007792 15.000000000000004
    vertex -267.09494047811995 4.64999999999989 15.000000000000004
    vertex -271.1100047634112 8.548803602007792 15.000000000000004
  endloop
endfacet
facet normal 0.0 0.0 1.0
  outer loop
    vertex -271.1100047634112 8.548803602007792 15.000000000000004
    vertex -267.09494047811995 4.64999999999989 15.000000000000004
    vertex -271.1100047634112 11.304876476501718 15.000000000000004
  endloop
endfacet
facet normal 0.0 0.0 1.0
  outer loop
    vertex -279.39494047811996 15.349999999999893 15.000000000000004
    vertex -274.8563752720145 11.268621099477432 15.000000000000004
    vertex -267.09494047811995 15.349999999999893 15.000000000000004
  endloop
endfacet
facet normal 0.0 0.0 1.0
  outer loop
    vertex -274.8563752720145 11.268621099477432 15.000000000000004
    vertex -279.39494047811996 15.349999999999893 15.000000000000004
    vertex -275.565735247976 8.548803602007794 15.000000000000004
  endloop
endfacet
facet normal 0.0 0.0 1.0
  outer loop
    vertex -274.8563752720145 11.268621099477432 15.000000000000004
    vertex -275.565735247976 8.548803602007794 15.000000000000004
    vertex -274.92169030237875 10.87695232417378 15.000000000000004
  endloop
endfacet
facet normal 0.0 0.0 1.0
  outer loop
    vertex -267.09494047811995 15.349999999999893 15.000000000000004
    vertex -274.8563752720145 11.268621099477432 15.000000000000004
    vertex -274.17056745318854 11.30487647650172 15.000000000000004
  endloop
endfacet
facet normal 0.0 0.0 1.0
  outer loop
    vertex -267.09494047811995 15.349999999999893 15.000000000000004
    vertex -274.17056745318854 11.30487647650172 15.000000000000004
    vertex -273.173074095395 11.268621099477432 15.000000000000004
  endloop
endfacet
facet normal 0.0 0.0 1.0
  outer loop
    vertex -273.173074095395 11.268621099477432 15.000000000000004
    vertex -274.17056745318854 11.30487647650172 15.000000000000004
    vertex -273.38864137145777 8.548803602007792 15.000000000000004
  endloop
endfacet
facet normal 0.0 0.0 1.0
  outer loop
    vertex -267.09494047811995 15.349999999999893 15.000000000000004
    vertex -273.173074095395 11.268621099477432 15.000000000000004
    vertex -272.555016782642 11.304876476501738 15.000000000000004
  endloop
endfacet
facet normal 0.0 0.0 1.0
  outer loop
    vertex -267.09494047811995 15.349999999999893 15.000000000000004
    vertex -272.555016782642 11.304876476501738 15.000000000000004
    vertex -271.7188736905368 11.268621099477446 15.000000000000004
  endloop
endfacet
facet normal 0.0 0.0 1.0
  outer loop
    vertex -271.7188736905368 11.268621099477446 15.000000000000004
    vertex -272.555016782642 11.304876476501738 15.000000000000004
    vertex -272.2085703631076 10.505265520023997 15.000000000000004
  endloop
endfacet
facet normal 0.0 0.0 1.0
  outer loop
    vertex -271.7188736905368 11.268621099477446 15.000000000000004
    vertex -272.2085703631076 10.505265520023997 15.000000000000004
    vertex -272.02721045040516 10.510689988647478 15.000000000000004
  endloop
endfacet
facet normal 0.0 0.0 1.0
  outer loop
    vertex -272.02721045040516 10.510689988647478 15.000000000000004
    vertex -272.2085703631076 10.505265520023997 15.000000000000004
    vertex -272.11607763790516 9.999378469163664 15.000000000000004
  endloop
endfacet
facet normal 0.0 0.0 1.0
  outer loop
    vertex -267.09494047811995 15.349999999999893 15.000000000000004
    vertex -271.7188736905368 11.268621099477446 15.000000000000004
    vertex -271.1100047634112 11.304876476501718 15.000000000000004
  endloop
endfacet
facet normal 0.0 0.0 1.0
  outer loop
    vertex -267.09494047811995 15.349999999999893 15.000000000000004
    vertex -271.1100047634112 11.304876476501718 15.000000000000004
    vertex -267.09494047811995 4.64999999999989 15.000000000000004
  endloop
endfacet
facet normal 0.0 0.0 1.0
  outer loop
    vertex -271.76852418395777 9.817714121997678 15.000000000000004
    vertex -271.6962901885124 9.362501571390384 15.000000000000004
    vertex -271.50186726973715 10.724596713090794 15.000000000000004
  endloop
endfacet
facet normal 0.0 0.0 1.0
  outer loop
    vertex -271.6962901885124 9.362501571390384 15.000000000000004
    vertex -271.76852418395777 9.817714121997678 15.000000000000004
    vertex -271.6962901885124 8.548803602007792 15.000000000000004
  endloop
endfacet
facet normal 0.0 0.0 1.0
  outer loop
    vertex -273.1168367472169 10.83887034036812 15.000000000000004
    vertex -273.173074095395 11.268621099477432 15.000000000000004
    vertex -273.1168367472169 8.548803602007792 15.000000000000004
  endloop
endfacet
facet normal 0.0 1.0 0.0
  outer loop
    vertex -280.14494047811996 15.599999999999893 8.000000000000004
    vertex -266.34494047811995 15.599999999999893 0.0
    vertex -280.14494047811996 15.599999999999893 0.0
  endloop
endfacet
facet normal 0.0 1.0 0.0
  outer loop
    vertex -266.34494047811995 15.599999999999893 0.0
    vertex -280.14494047811996 15.599999999999893 8.000000000000004
    vertex -266.34494047811995 15.599999999999893 8.000000000000004
  endloop
endfacet
facet normal -1.0 0.0 0.0
  outer loop
    vertex -267.84494047811995 14.599999999999882 4.999999999999994
    vertex -267.84494047811995 5.3999999999998884 0.0
    vertex -267.84494047811995 5.3999999999998884 4.999999999999994
  endloop
endfacet
facet normal -1.0 0.0 0.0
  outer loop
    vertex -267.84494047811995 5.3999999999998884 0.0
    vertex -267.84494047811995 14.599999999999882 4.999999999999994
    vertex -267.84494047811995 14.599999999999882 0.0
  endloop
endfacet
facet normal 0.0 1.0 0.0
  outer loop
    vertex -278.64494047811996 5.3999999999998884 4.999999999999994
    vertex -267.84494047811995 5.3999999999998884 0.0
    vertex -278.64494047811996 5.3999999999998884 0.0
  endloop
endfacet
facet normal 0.0 1.0 0.0
  outer loop
    vertex -267.84494047811995 5.3999999999998884 0.0
    vertex -278.64494047811996 5.3999999999998884 4.999999999999994
    vertex -267.84494047811995 5.3999999999998884 4.999999999999994
  endloop
endfacet
facet normal 1.0 0.0 0.0
  outer loop
    vertex -278.64494047811996 14.599999999999882 0.0
    vertex -278.64494047811996 5.3999999999998884 4.999999999999994
    vertex -278.64494047811996 5.3999999999998884 0.0
  endloop
endfacet
facet normal 1.0 0.0 0.0
  outer loop
    vertex -278.64494047811996 5.3999999999998884 4.999999999999994
    vertex -278.64494047811996 14.599999999999882 0.0
    vertex -278.64494047811996 14.599999999999882 4.999999999999994
  endloop
endfacet
facet normal 0.0 -1.0 0.0
  outer loop
    vertex -267.84494047811995 14.599999999999882 4.999999999999994
    vertex -278.64494047811996 14.599999999999882 0.0
    vertex -267.84494047811995 14.599999999999882 0.0
  endloop
endfacet
facet normal 0.0 -1.0 0.0
  outer loop
    vertex -278.64494047811996 14.599999999999882 0.0
    vertex -267.84494047811995 14.599999999999882 4.999999999999994
    vertex -278.64494047811996 14.599999999999882 4.999999999999994
  endloop
endfacet
facet normal 0.0 -1.0 0.0
  outer loop
    vertex -267.09494047811995 4.64999999999989 15.000000000000004
    vertex -279.39494047811996 4.64999999999989 8.000000000000004
    vertex -267.09494047811995 4.64999999999989 8.000000000000004
  endloop
endfacet
facet normal 0.0 -1.0 0.0
  outer loop
    vertex -279.39494047811996 4.64999999999989 8.000000000000004
    vertex -267.09494047811995 4.64999999999989 15.000000000000004
    vertex -279.39494047811996 4.64999999999989 15.000000000000004
  endloop
endfacet
facet normal 0.0 0.0 1.0
  outer loop
    vertex -280.14494047811996 4.39999999999989 8.000000000000004
    vertex -279.39494047811996 4.64999999999989 8.000000000000004
    vertex -280.14494047811996 15.599999999999893 8.000000000000004
  endloop
endfacet
facet normal 0.0 0.0 1.0
  outer loop
    vertex -279.39494047811996 4.64999999999989 8.000000000000004
    vertex -280.14494047811996 4.39999999999989 8.000000000000004
    vertex -266.34494047811995 4.39999999999989 8.000000000000004
  endloop
endfacet
facet normal 0.0 0.0 1.0
  outer loop
    vertex -279.39494047811996 4.64999999999989 8.000000000000004
    vertex -266.34494047811995 4.39999999999989 8.000000000000004
    vertex -267.09494047811995 4.64999999999989 8.000000000000004
  endloop
endfacet
facet normal 0.0 0.0 1.0
  outer loop
    vertex -267.09494047811995 4.64999999999989 8.000000000000004
    vertex -266.34494047811995 4.39999999999989 8.000000000000004
    vertex -267.09494047811995 15.349999999999893 8.000000000000004
  endloop
endfacet
facet normal 0.0 0.0 1.0
  outer loop
    vertex -280.14494047811996 15.599999999999893 8.000000000000004
    vertex -279.39494047811996 15.349999999999893 8.000000000000004
    vertex -266.34494047811995 15.599999999999893 8.000000000000004
  endloop
endfacet
facet normal 0.0 0.0 1.0
  outer loop
    vertex -279.39494047811996 15.349999999999893 8.000000000000004
    vertex -280.14494047811996 15.599999999999893 8.000000000000004
    vertex -279.39494047811996 4.64999999999989 8.000000000000004
  endloop
endfacet
facet normal 0.0 0.0 1.0
  outer loop
    vertex -266.34494047811995 15.599999999999893 8.000000000000004
    vertex -279.39494047811996 15.349999999999893 8.000000000000004
    vertex -267.09494047811995 15.349999999999893 8.000000000000004
  endloop
endfacet
facet normal 0.0 0.0 1.0
  outer loop
    vertex -266.34494047811995 15.599999999999893 8.000000000000004
    vertex -267.09494047811995 15.349999999999893 8.000000000000004
    vertex -266.34494047811995 4.39999999999989 8.000000000000004
  endloop
endfacet
facet normal 0.0 1.0 0.0
  outer loop
    vertex -279.39494047811996 15.349999999999893 15.000000000000004
    vertex -267.09494047811995 15.349999999999893 8.000000000000004
    vertex -279.39494047811996 15.349999999999893 8.000000000000004
  endloop
endfacet
facet normal 0.0 1.0 0.0
  outer loop
    vertex -267.09494047811995 15.349999999999893 8.000000000000004
    vertex -279.39494047811996 15.349999999999893 15.000000000000004
    vertex -267.09494047811995 15.349999999999893 15.000000000000004
  endloop
endfacet
facet normal 0.0 0.0 1.0
  outer loop
    vertex -274.2900441422068 9.719603197149493 15.000000000000004
    vertex -274.5602989182695 10.343610819872158 15.000000000000004
    vertex -274.6963257717614 9.719603197149493 15.000000000000004
  endloop
endfacet
facet normal 0.0 0.0 1.0
  outer loop
    vertex -274.5602989182695 10.343610819872158 15.000000000000004
    vertex -274.2900441422068 9.719603197149493 15.000000000000004
    vertex -274.42064652707523 10.343610819872158 15.000000000000004
  endloop
endfacet
facet normal 0.0 0.0 1.0
  outer loop
    vertex -274.5602989182695 10.343610819872158 15.000000000000004
    vertex -274.42064652707523 10.343610819872158 15.000000000000004
    vertex -274.4895594192817 10.962193973971358 15.000000000000004
  endloop
endfacet
facet normal -1.0 0.0 0.0
  outer loop
    vertex -267.84494047811995 14.599999999999882 14.44
    vertex -267.84494047811995 5.3999999999998884 4.999999999999994
    vertex -267.84494047811995 5.3999999999998884 14.44
  endloop
endfacet
facet normal -1.0 0.0 0.0
  outer loop
    vertex -267.84494047811995 5.3999999999998884 4.999999999999994
    vertex -267.84494047811995 14.599999999999882 14.44
    vertex -267.84494047811995 14.599999999999882 4.999999999999994
  endloop
endfacet
facet normal 1.0 0.0 0.0
  outer loop
    vertex -278.64494047811996 14.599999999999882 4.999999999999994
    vertex -278.64494047811996 5.3999999999998884 14.44
    vertex -278.64494047811996 5.3999999999998884 4.999999999999994
  endloop
endfacet
facet normal 1.0 0.0 0.0
  outer loop
    vertex -278.64494047811996 5.3999999999998884 14.44
    vertex -278.64494047811996 14.599999999999882 4.999999999999994
    vertex -278.64494047811996 14.599999999999882 14.44
  endloop
endfacet
facet normal 0.0 0.0 -1.0
  outer loop
    vertex -272.46498720900837 9.817714121997671 14.44
    vertex -272.53232257717644 9.36250157139038 14.44
    vertex -272.7170866206987 10.72459671309078 14.44
  endloop
endfacet
facet normal 0.0 0.0 -1.0
  outer loop
    vertex -272.53232257717644 9.36250157139038 14.44
    vertex -272.46498720900837 9.817714121997671 14.44
    vertex -272.5323225771764 8.548803602007792 14.44
  endloop
endfacet
facet normal 0.0 0.0 -1.0
  outer loop
    vertex -271.50186726973715 10.724596713090795 14.44
    vertex -271.6962901885124 9.362501571390391 14.44
    vertex -271.76852418395777 9.817714121997682 14.44
  endloop
endfacet
facet normal 0.0 0.0 -1.0
  outer loop
    vertex -278.64494047811996 14.599999999999882 14.44
    vertex -274.8563752720145 11.268621099477418 14.44
    vertex -278.64494047811996 5.3999999999998884 14.44
  endloop
endfacet
facet normal 0.0 0.0 -1.0
  outer loop
    vertex -274.8563752720145 11.268621099477418 14.44
    vertex -278.64494047811996 14.599999999999882 14.44
    vertex -267.84494047811995 14.599999999999882 14.44
  endloop
endfacet
facet normal 0.0 0.0 -1.0
  outer loop
    vertex -278.64494047811996 5.3999999999998884 14.44
    vertex -274.8563752720145 11.268621099477418 14.44
    vertex -275.565735247976 8.548803602007792 14.44
  endloop
endfacet
facet normal 0.0 0.0 -1.0
  outer loop
    vertex -275.565735247976 8.548803602007792 14.44
    vertex -274.8563752720145 11.268621099477418 14.44
    vertex -274.92169030237875 10.876952324173786 14.44
  endloop
endfacet
facet normal 0.0 0.0 -1.0
  outer loop
    vertex -274.8563752720145 11.268621099477418 14.44
    vertex -267.84494047811995 14.599999999999882 14.44
    vertex -274.17056745318854 11.304876476501727 14.44
  endloop
endfacet
facet normal 0.0 0.0 -1.0
  outer loop
    vertex -274.17056745318854 11.304876476501727 14.44
    vertex -267.84494047811995 14.599999999999882 14.44
    vertex -273.173074095395 11.268621099477437 14.44
  endloop
endfacet
facet normal 0.0 0.0 -1.0
  outer loop
    vertex -274.17056745318854 11.304876476501727 14.44
    vertex -273.173074095395 11.268621099477437 14.44
    vertex -273.38864137145777 8.548803602007796 14.44
  endloop
endfacet
facet normal 0.0 0.0 -1.0
  outer loop
    vertex -273.173074095395 11.268621099477437 14.44
    vertex -267.84494047811995 14.599999999999882 14.44
    vertex -272.555016782642 11.304876476501715 14.44
  endloop
endfacet
facet normal 0.0 0.0 -1.0
  outer loop
    vertex -272.555016782642 11.304876476501715 14.44
    vertex -267.84494047811995 14.599999999999882 14.44
    vertex -271.7188736905368 11.268621099477459 14.44
  endloop
endfacet
facet normal 0.0 0.0 -1.0
  outer loop
    vertex -272.555016782642 11.304876476501715 14.44
    vertex -271.7188736905368 11.268621099477459 14.44
    vertex -272.2085703631076 10.505265520023993 14.44
  endloop
endfacet
facet normal 0.0 0.0 -1.0
  outer loop
    vertex -272.2085703631076 10.505265520023993 14.44
    vertex -271.7188736905368 11.268621099477459 14.44
    vertex -272.0272104504051 10.51068998864747 14.44
  endloop
endfacet
facet normal 0.0 0.0 -1.0
  outer loop
    vertex -272.2085703631076 10.505265520023993 14.44
    vertex -272.0272104504051 10.51068998864747 14.44
    vertex -272.1160776379051 9.999378469163654 14.44
  endloop
endfacet
facet normal 0.0 0.0 -1.0
  outer loop
    vertex -271.7188736905368 11.268621099477459 14.44
    vertex -267.84494047811995 14.599999999999882 14.44
    vertex -271.1100047634112 11.304876476501716 14.44
  endloop
endfacet
facet normal 0.0 0.0 -1.0
  outer loop
    vertex -271.1100047634112 11.304876476501716 14.44
    vertex -267.84494047811995 14.599999999999882 14.44
    vertex -271.1100047634112 8.548803602007792 14.44
  endloop
endfacet
facet normal 0.0 0.0 -1.0
  outer loop
    vertex -275.565735247976 8.548803602007792 14.44
    vertex -267.84494047811995 5.3999999999998884 14.44
    vertex -278.64494047811996 5.3999999999998884 14.44
  endloop
endfacet
facet normal 0.0 0.0 -1.0
  outer loop
    vertex -267.84494047811995 5.3999999999998884 14.44
    vertex -275.565735247976 8.548803602007792 14.44
    vertex -274.9865348431177 8.548803602007792 14.44
  endloop
endfacet
facet normal 0.0 0.0 -1.0
  outer loop
    vertex -267.84494047811995 5.3999999999998884 14.44
    vertex -274.9865348431177 8.548803602007792 14.44
    vertex -273.994410602227 8.548803602007794 14.44
  endloop
endfacet
facet normal 0.0 0.0 -1.0
  outer loop
    vertex -273.994410602227 8.548803602007794 14.44
    vertex -274.9865348431177 8.548803602007792 14.44
    vertex -274.8033483236339 9.322842063546254 14.44
  endloop
endfacet
facet normal 0.0 0.0 -1.0
  outer loop
    vertex -273.994410602227 8.548803602007794 14.44
    vertex -274.8033483236339 9.322842063546254 14.44
    vertex -274.18304926619464 9.322842063546252 14.44
  endloop
endfacet
facet normal 0.0 0.0 -1.0
  outer loop
    vertex -267.84494047811995 5.3999999999998884 14.44
    vertex -273.994410602227 8.548803602007794 14.44
    vertex -273.38864137145777 8.548803602007796 14.44
  endloop
endfacet
facet normal 0.0 0.0 -1.0
  outer loop
    vertex -267.84494047811995 5.3999999999998884 14.44
    vertex -273.38864137145777 8.548803602007796 14.44
    vertex -273.1168367472169 8.548803602007792 14.44
  endloop
endfacet
facet normal 0.0 0.0 -1.0
  outer loop
    vertex -273.1168367472169 8.548803602007792 14.44
    vertex -273.38864137145777 8.548803602007796 14.44
    vertex -273.173074095395 11.268621099477437 14.44
  endloop
endfacet
facet normal 0.0 0.0 -1.0
  outer loop
    vertex -273.1168367472169 8.548803602007792 14.44
    vertex -273.173074095395 11.268621099477437 14.44
    vertex -273.1168367472169 10.83887034036812 14.44
  endloop
endfacet
facet normal 0.0 0.0 -1.0
  outer loop
    vertex -267.84494047811995 5.3999999999998884 14.44
    vertex -273.1168367472169 8.548803602007792 14.44
    vertex -272.5323225771764 8.548803602007792 14.44
  endloop
endfacet
facet normal 0.0 0.0 -1.0
  outer loop
    vertex -267.84494047811995 5.3999999999998884 14.44
    vertex -272.5323225771764 8.548803602007792 14.44
    vertex -271.6962901885124 8.548803602007792 14.44
  endloop
endfacet
facet normal 0.0 0.0 -1.0
  outer loop
    vertex -271.6962901885124 8.548803602007792 14.44
    vertex -272.5323225771764 8.548803602007792 14.44
    vertex -272.3108326670044 9.409633561521963 14.44
  endloop
endfacet
facet normal 0.0 0.0 -1.0
  outer loop
    vertex -272.3108326670044 9.409633561521963 14.44
    vertex -272.5323225771764 8.548803602007792 14.44
    vertex -272.46498720900837 9.817714121997671 14.44
  endloop
endfacet
facet normal 0.0 0.0 -1.0
  outer loop
    vertex -271.6962901885124 8.548803602007792 14.44
    vertex -272.3108326670044 9.409633561521963 14.44
    vertex -271.92813087044567 9.40963356152196 14.44
  endloop
endfacet
facet normal 0.0 0.0 -1.0
  outer loop
    vertex -271.6962901885124 8.548803602007792 14.44
    vertex -271.92813087044567 9.40963356152196 14.44
    vertex -271.76852418395777 9.817714121997682 14.44
  endloop
endfacet
facet normal 0.0 0.0 -1.0
  outer loop
    vertex -271.6962901885124 8.548803602007792 14.44
    vertex -271.76852418395777 9.817714121997682 14.44
    vertex -271.6962901885124 9.362501571390391 14.44
  endloop
endfacet
facet normal 0.0 0.0 -1.0
  outer loop
    vertex -267.84494047811995 5.3999999999998884 14.44
    vertex -271.6962901885124 8.548803602007792 14.44
    vertex -271.1100047634112 8.548803602007792 14.44
  endloop
endfacet
facet normal 0.0 0.0 -1.0
  outer loop
    vertex -267.84494047811995 5.3999999999998884 14.44
    vertex -271.1100047634112 8.548803602007792 14.44
    vertex -267.84494047811995 14.599999999999882 14.44
  endloop
endfacet
facet normal 0.0 1.0 0.0
  outer loop
    vertex -278.64494047811996 5.3999999999998884 14.44
    vertex -267.84494047811995 5.3999999999998884 4.999999999999994
    vertex -278.64494047811996 5.3999999999998884 4.999999999999994
  endloop
endfacet
facet normal 0.0 1.0 0.0
  outer loop
    vertex -267.84494047811995 5.3999999999998884 4.999999999999994
    vertex -278.64494047811996 5.3999999999998884 14.44
    vertex -267.84494047811995 5.3999999999998884 14.44
  endloop
endfacet
facet normal 0.0 -1.0 0.0
  outer loop
    vertex -267.84494047811995 14.599999999999882 14.44
    vertex -278.64494047811996 14.599999999999882 4.999999999999994
    vertex -267.84494047811995 14.599999999999882 4.999999999999994
  endloop
endfacet
facet normal 0.0 -1.0 0.0
  outer loop
    vertex -278.64494047811996 14.599999999999882 4.999999999999994
    vertex -267.84494047811995 14.599999999999882 14.44
    vertex -278.64494047811996 14.599999999999882 14.44
  endloop
endfacet
facet normal 0.0 0.0 -1.0
  outer loop
    vertex -274.56029891826955 10.343610819872167 14.44
    vertex -274.2900441422068 9.719603197149493 14.44
    vertex -274.6963257717614 9.719603197149493 14.44
  endloop
endfacet
facet normal 0.0 0.0 -1.0
  outer loop
    vertex -274.2900441422068 9.719603197149493 14.44
    vertex -274.56029891826955 10.343610819872167 14.44
    vertex -274.4206465270752 10.34361081987217 14.44
  endloop
endfacet
facet normal 0.0 0.0 -1.0
  outer loop
    vertex -274.4206465270752 10.34361081987217 14.44
    vertex -274.56029891826955 10.343610819872167 14.44
    vertex -274.4895594192817 10.962193973971363 14.44
  endloop
endfacet
facet normal 0.9915462016008573 0.12975411396526942 6.511863777650876e-16
  outer loop
    vertex -273.173074095395 11.268621099477437 14.44
    vertex -273.1168367472169 10.83887034036812 15.000000000000004
    vertex -273.1168367472169 10.83887034036812 14.44
  endloop
endfacet
facet normal 0.9915462016008573 0.12975411396526942 6.511863777650876e-16
  outer loop
    vertex -273.1168367472169 10.83887034036812 15.000000000000004
    vertex -273.173074095395 11.268621099477437 14.44
    vertex -273.173074095395 11.268621099477432 15.000000000000004
  endloop
endfacet
facet normal 1.0 0.0 0.0
  outer loop
    vertex -273.1168367472169 10.83887034036812 14.44
    vertex -273.1168367472169 8.548803602007792 15.000000000000004
    vertex -273.1168367472169 8.548803602007792 14.44
  endloop
endfacet
facet normal 1.0 0.0 0.0
  outer loop
    vertex -273.1168367472169 8.548803602007792 15.000000000000004
    vertex -273.1168367472169 10.83887034036812 14.44
    vertex -273.1168367472169 10.83887034036812 15.000000000000004
  endloop
endfacet
facet normal 0.058559552712184305 -0.9982839169225102 1.2721091139926335e-14
  outer loop
    vertex -272.555016782642 11.304876476501738 15.000000000000004
    vertex -273.173074095395 11.268621099477437 14.44
    vertex -272.555016782642 11.304876476501715 14.44
  endloop
endfacet
facet normal 0.058559552712184305 -0.9982839169225102 1.2721091139926335e-14
  outer loop
    vertex -273.173074095395 11.268621099477437 14.44
    vertex -272.555016782642 11.304876476501738 15.000000000000004
    vertex -273.173074095395 11.268621099477432 15.000000000000004
  endloop
endfacet
facet normal 1.0 0.0 0.0
  outer loop
    vertex -271.6962901885124 9.362501571390391 14.44
    vertex -271.6962901885124 8.548803602007792 15.000000000000004
    vertex -271.6962901885124 8.548803602007792 14.44
  endloop
endfacet
facet normal 1.0 0.0 0.0
  outer loop
    vertex -271.6962901885124 8.548803602007792 15.000000000000004
    vertex -271.6962901885124 9.362501571390391 14.44
    vertex -271.6962901885124 9.362501571390384 15.000000000000004
  endloop
endfacet
facet normal 0.989965980997258 -0.14130589679180647 -1.0716201102420304e-15
  outer loop
    vertex -271.6962901885124 9.362501571390391 14.44
    vertex -271.50186726973715 10.724596713090794 15.000000000000004
    vertex -271.6962901885124 9.362501571390384 15.000000000000004
  endloop
endfacet
facet normal 0.989965980997258 -0.14130589679180647 -1.0716201102420304e-15
  outer loop
    vertex -271.50186726973715 10.724596713090794 15.000000000000004
    vertex -271.6962901885124 9.362501571390391 14.44
    vertex -271.50186726973715 10.724596713090795 14.44
  endloop
endfacet
facet normal -0.9593864784868785 0.28209499268251176 1.0853907825367147e-15
  outer loop
    vertex -271.50186726973715 10.724596713090794 15.000000000000004
    vertex -271.76852418395777 9.817714121997682 14.44
    vertex -271.76852418395777 9.817714121997678 15.000000000000004
  endloop
endfacet
facet normal -0.9593864784868785 0.28209499268251176 1.0853907825367147e-15
  outer loop
    vertex -271.76852418395777 9.817714121997682 14.44
    vertex -271.50186726973715 10.724596713090794 15.000000000000004
    vertex -271.50186726973715 10.724596713090795 14.44
  endloop
endfacet
facet normal -0.9313024073653358 0.3642469300289711 -1.838171974452146e-15
  outer loop
    vertex -271.92813087044567 9.40963356152197 15.000000000000004
    vertex -271.76852418395777 9.817714121997682 14.44
    vertex -271.92813087044567 9.40963356152196 14.44
  endloop
endfacet
facet normal -0.9313024073653358 0.3642469300289711 -1.838171974452146e-15
  outer loop
    vertex -271.76852418395777 9.817714121997682 14.44
    vertex -271.92813087044567 9.40963356152197 15.000000000000004
    vertex -271.76852418395777 9.817714121997678 15.000000000000004
  endloop
endfacet
facet normal -1.8421434834546043e-15 1.0 -1.1330222474522732e-14
  outer loop
    vertex -272.3108326670044 9.409633561521968 15.000000000000004
    vertex -271.92813087044567 9.40963356152196 14.44
    vertex -272.3108326670044 9.409633561521963 14.44
  endloop
endfacet
facet normal -1.8421434834546043e-15 1.0 -1.1330222474522732e-14
  outer loop
    vertex -271.92813087044567 9.40963356152196 14.44
    vertex -272.3108326670044 9.409633561521968 15.000000000000004
    vertex -271.92813087044567 9.40963356152197 15.000000000000004
  endloop
endfacet
facet normal 0.93547908491566 0.3533820619179181 0.0
  outer loop
    vertex -272.46498720900837 9.817714121997671 14.44
    vertex -272.3108326670044 9.409633561521968 15.000000000000004
    vertex -272.3108326670044 9.409633561521963 14.44
  endloop
endfacet
facet normal 0.93547908491566 0.3533820619179181 0.0
  outer loop
    vertex -272.3108326670044 9.409633561521968 15.000000000000004
    vertex -272.46498720900837 9.817714121997671 14.44
    vertex -272.46498720900837 9.817714121997666 15.000000000000004
  endloop
endfacet
facet normal 0.9634665003916026 0.2678288681661446 1.0006307612552687e-15
  outer loop
    vertex -272.46498720900837 9.817714121997671 14.44
    vertex -272.7170866206987 10.72459671309078 15.000000000000004
    vertex -272.46498720900837 9.817714121997666 15.000000000000004
  endloop
endfacet
facet normal 0.9634665003916026 0.2678288681661446 1.0006307612552687e-15
  outer loop
    vertex -272.7170866206987 10.72459671309078 15.000000000000004
    vertex -272.46498720900837 9.817714121997671 14.44
    vertex -272.7170866206987 10.72459671309078 14.44
  endloop
endfacet
facet normal -0.9909249986526403 -0.1344159478829245 4.0252531847311047e-14
  outer loop
    vertex -272.5323225771764 9.362501571390384 15.000000000000004
    vertex -272.7170866206987 10.72459671309078 14.44
    vertex -272.53232257717644 9.36250157139038 14.44
  endloop
endfacet
facet normal -0.9909249986526403 -0.1344159478829245 4.0252531847311047e-14
  outer loop
    vertex -272.7170866206987 10.72459671309078 14.44
    vertex -272.5323225771764 9.362501571390384 15.000000000000004
    vertex -272.7170866206987 10.72459671309078 15.000000000000004
  endloop
endfacet
facet normal -1.0 -2.7724945507115873e-14 4.0285235464969786e-14
  outer loop
    vertex -272.5323225771764 9.362501571390384 15.000000000000004
    vertex -272.5323225771764 8.548803602007792 14.44
    vertex -272.5323225771764 8.548803602007792 15.000000000000004
  endloop
endfacet
facet normal -1.0 -2.7724945507115873e-14 4.0285235464969786e-14
  outer loop
    vertex -272.5323225771764 8.548803602007792 14.44
    vertex -272.5323225771764 9.362501571390384 15.000000000000004
    vertex -272.53232257717644 9.36250157139038 14.44
  endloop
endfacet
facet normal 0.0 1.0 0.0
  outer loop
    vertex -273.1168367472169 8.548803602007792 15.000000000000004
    vertex -272.5323225771764 8.548803602007792 14.44
    vertex -273.1168367472169 8.548803602007792 14.44
  endloop
endfacet
facet normal 0.0 1.0 0.0
  outer loop
    vertex -272.5323225771764 8.548803602007792 14.44
    vertex -273.1168367472169 8.548803602007792 15.000000000000004
    vertex -272.5323225771764 8.548803602007792 15.000000000000004
  endloop
endfacet
facet normal -0.9175772520692413 -0.3975575260073188 4.5968197643515216e-14
  outer loop
    vertex -272.2085703631076 10.505265520023997 15.000000000000004
    vertex -272.555016782642 11.304876476501715 14.44
    vertex -272.2085703631076 10.505265520023993 14.44
  endloop
endfacet
facet normal -0.9175772520692413 -0.3975575260073188 4.5968197643515216e-14
  outer loop
    vertex -272.555016782642 11.304876476501715 14.44
    vertex -272.2085703631076 10.505265520023997 15.000000000000004
    vertex -272.555016782642 11.304876476501738 15.000000000000004
  endloop
endfacet
facet normal -0.9836937819401225 -0.17985144806850717 -3.7358002181969566e-14
  outer loop
    vertex -272.11607763790516 9.999378469163664 15.000000000000004
    vertex -272.2085703631076 10.505265520023993 14.44
    vertex -272.1160776379051 9.999378469163654 14.44
  endloop
endfacet
facet normal -0.9836937819401225 -0.17985144806850717 -3.7358002181969566e-14
  outer loop
    vertex -272.2085703631076 10.505265520023993 14.44
    vertex -272.11607763790516 9.999378469163664 15.000000000000004
    vertex -272.2085703631076 10.505265520023997 15.000000000000004
  endloop
endfacet
facet normal 0.9852301447683921 -0.17123539890937672 8.217534992594838e-14
  outer loop
    vertex -272.0272104504051 10.51068998864747 14.44
    vertex -272.11607763790516 9.999378469163664 15.000000000000004
    vertex -272.1160776379051 9.999378469163654 14.44
  endloop
endfacet
facet normal 0.9852301447683921 -0.17123539890937672 8.217534992594838e-14
  outer loop
    vertex -272.11607763790516 9.999378469163664 15.000000000000004
    vertex -272.0272104504051 10.51068998864747 14.44
    vertex -272.02721045040516 10.510689988647478 15.000000000000004
  endloop
endfacet
facet normal 0.9262843956960249 -0.37682518266438864 -1.916967710316807e-15
  outer loop
    vertex -271.7188736905368 11.268621099477459 14.44
    vertex -272.02721045040516 10.510689988647478 15.000000000000004
    vertex -272.0272104504051 10.51068998864747 14.44
  endloop
endfacet
facet normal 0.9262843956960249 -0.37682518266438864 -1.916967710316807e-15
  outer loop
    vertex -272.02721045040516 10.510689988647478 15.000000000000004
    vertex -271.7188736905368 11.268621099477459 14.44
    vertex -271.7188736905368 11.268621099477446 15.000000000000004
  endloop
endfacet
facet normal 0.059440170436530576 -0.998231869927261 -1.2443889769917683e-14
  outer loop
    vertex -271.1100047634112 11.304876476501718 15.000000000000004
    vertex -271.7188736905368 11.268621099477459 14.44
    vertex -271.1100047634112 11.304876476501716 14.44
  endloop
endfacet
facet normal 0.059440170436530576 -0.998231869927261 -1.2443889769917683e-14
  outer loop
    vertex -271.7188736905368 11.268621099477459 14.44
    vertex -271.1100047634112 11.304876476501718 15.000000000000004
    vertex -271.7188736905368 11.268621099477446 15.000000000000004
  endloop
endfacet
facet normal -1.0 0.0 0.0
  outer loop
    vertex -271.1100047634112 11.304876476501718 15.000000000000004
    vertex -271.1100047634112 8.548803602007792 14.44
    vertex -271.1100047634112 8.548803602007792 15.000000000000004
  endloop
endfacet
facet normal -1.0 0.0 0.0
  outer loop
    vertex -271.1100047634112 8.548803602007792 14.44
    vertex -271.1100047634112 11.304876476501718 15.000000000000004
    vertex -271.1100047634112 11.304876476501716 14.44
  endloop
endfacet
facet normal 0.0 1.0 0.0
  outer loop
    vertex -271.6962901885124 8.548803602007792 15.000000000000004
    vertex -271.1100047634112 8.548803602007792 14.44
    vertex -271.6962901885124 8.548803602007792 14.44
  endloop
endfacet
facet normal 0.0 1.0 0.0
  outer loop
    vertex -271.1100047634112 8.548803602007792 14.44
    vertex -271.6962901885124 8.548803602007792 15.000000000000004
    vertex -271.1100047634112 8.548803602007792 15.000000000000004
  endloop
endfacet
facet normal -0.9935246467856427 0.11361679554301835 4.145930546310818e-14
  outer loop
    vertex -274.4895594192817 10.962193973971358 15.000000000000004
    vertex -274.56029891826955 10.343610819872167 14.44
    vertex -274.5602989182695 10.343610819872158 15.000000000000004
  endloop
endfacet
facet normal -0.9935246467856427 0.11361679554301835 4.145930546310818e-14
  outer loop
    vertex -274.56029891826955 10.343610819872167 14.44
    vertex -274.4895594192817 10.962193973971358 15.000000000000004
    vertex -274.4895594192817 10.962193973971363 14.44
  endloop
endfacet
facet normal 0.9938516993871167 0.11071946362469506 8.188952038515729e-14
  outer loop
    vertex -274.4206465270752 10.34361081987217 14.44
    vertex -274.4895594192817 10.962193973971358 15.000000000000004
    vertex -274.42064652707523 10.343610819872158 15.000000000000004
  endloop
endfacet
facet normal 0.9938516993871167 0.11071946362469506 8.188952038515729e-14
  outer loop
    vertex -274.4895594192817 10.962193973971358 15.000000000000004
    vertex -274.4206465270752 10.34361081987217 14.44
    vertex -274.4895594192817 10.962193973971363 14.44
  endloop
endfacet
facet normal -0.9770549630280883 0.2129873217404767 4.123364176414249e-14
  outer loop
    vertex -274.5602989182695 10.343610819872158 15.000000000000004
    vertex -274.6963257717614 9.719603197149493 14.44
    vertex -274.6963257717614 9.719603197149493 15.000000000000004
  endloop
endfacet
facet normal -0.9770549630280883 0.2129873217404767 4.123364176414249e-14
  outer loop
    vertex -274.6963257717614 9.719603197149493 14.44
    vertex -274.5602989182695 10.343610819872158 15.000000000000004
    vertex -274.56029891826955 10.343610819872167 14.44
  endloop
endfacet
facet normal 0.9638016619259437 -0.26662024767220677 -6.5416524229706e-16
  outer loop
    vertex -274.92169030237875 10.876952324173786 14.44
    vertex -275.565735247976 8.548803602007794 15.000000000000004
    vertex -275.565735247976 8.548803602007792 14.44
  endloop
endfacet
facet normal 0.9638016619259437 -0.26662024767220677 -6.5416524229706e-16
  outer loop
    vertex -275.565735247976 8.548803602007794 15.000000000000004
    vertex -274.92169030237875 10.876952324173786 14.44
    vertex -274.92169030237875 10.87695232417378 15.000000000000004
  endloop
endfacet
facet normal 0.9863788496551925 -0.16448940681058782 1.0364731091329583e-15
  outer loop
    vertex -274.92169030237875 10.876952324173786 14.44
    vertex -274.8563752720145 11.268621099477432 15.000000000000004
    vertex -274.92169030237875 10.87695232417378 15.000000000000004
  endloop
endfacet
facet normal 0.9863788496551925 -0.16448940681058782 1.0364731091329583e-15
  outer loop
    vertex -274.8563752720145 11.268621099477432 15.000000000000004
    vertex -274.92169030237875 10.876952324173786 14.44
    vertex -274.8563752720145 11.268621099477418 14.44
  endloop
endfacet
facet normal 0.05279149633998387 -0.9986055567210638 5.029021633629187e-15
  outer loop
    vertex -274.17056745318854 11.30487647650172 15.000000000000004
    vertex -274.8563752720145 11.268621099477418 14.44
    vertex -274.17056745318854 11.304876476501727 14.44
  endloop
endfacet
facet normal 0.05279149633998387 -0.9986055567210638 5.029021633629187e-15
  outer loop
    vertex -274.8563752720145 11.268621099477418 14.44
    vertex -274.17056745318854 11.30487647650172 15.000000000000004
    vertex -274.8563752720145 11.268621099477432 15.000000000000004
  endloop
endfacet
facet normal -0.9620315680746051 -0.2729382018478111 -2.3742726264677827e-15
  outer loop
    vertex -274.17056745318854 11.30487647650172 15.000000000000004
    vertex -273.38864137145777 8.548803602007796 14.44
    vertex -273.38864137145777 8.548803602007792 15.000000000000004
  endloop
endfacet
facet normal -0.9620315680746051 -0.2729382018478111 -2.3742726264677827e-15
  outer loop
    vertex -273.38864137145777 8.548803602007796 14.44
    vertex -274.17056745318854 11.30487647650172 15.000000000000004
    vertex -274.17056745318854 11.304876476501727 14.44
  endloop
endfacet
facet normal 0.0 1.0 2.5178272165606065e-15
  outer loop
    vertex -273.994410602227 8.548803602007794 15.000000000000004
    vertex -273.38864137145777 8.548803602007796 14.44
    vertex -273.994410602227 8.548803602007794 14.44
  endloop
endfacet
facet normal 0.0 1.0 2.5178272165606065e-15
  outer loop
    vertex -273.38864137145777 8.548803602007796 14.44
    vertex -273.994410602227 8.548803602007794 15.000000000000004
    vertex -273.38864137145777 8.548803602007792 15.000000000000004
  endloop
endfacet
facet normal 0.9715640134819038 0.23677704218723422 -5.941468047830317e-16
  outer loop
    vertex -274.18304926619464 9.322842063546252 14.44
    vertex -273.994410602227 8.548803602007794 15.000000000000004
    vertex -273.994410602227 8.548803602007794 14.44
  endloop
endfacet
facet normal 0.9715640134819038 0.23677704218723422 -5.941468047830317e-16
  outer loop
    vertex -273.994410602227 8.548803602007794 15.000000000000004
    vertex -274.18304926619464 9.322842063546252 14.44
    vertex -274.18304926619464 9.322842063546256 15.000000000000004
  endloop
endfacet
facet normal 0.0 1.0 -2.517827216560607e-15
  outer loop
    vertex -274.8033483236339 9.322842063546254 15.000000000000004
    vertex -274.18304926619464 9.322842063546252 14.44
    vertex -274.8033483236339 9.322842063546254 14.44
  endloop
endfacet
facet normal 0.0 1.0 -2.517827216560607e-15
  outer loop
    vertex -274.18304926619464 9.322842063546252 14.44
    vertex -274.8033483236339 9.322842063546254 15.000000000000004
    vertex -274.18304926619464 9.322842063546256 15.000000000000004
  endloop
endfacet
facet normal -0.9731192884861194 0.23030165083270387 0.0
  outer loop
    vertex -274.8033483236339 9.322842063546254 15.000000000000004
    vertex -274.9865348431177 8.548803602007792 14.44
    vertex -274.9865348431177 8.548803602007792 15.000000000000004
  endloop
endfacet
facet normal -0.9731192884861194 0.23030165083270387 0.0
  outer loop
    vertex -274.9865348431177 8.548803602007792 14.44
    vertex -274.8033483236339 9.322842063546254 15.000000000000004
    vertex -274.8033483236339 9.322842063546254 14.44
  endloop
endfacet
facet normal 0.0 1.0 -2.517827216560607e-15
  outer loop
    vertex -275.565735247976 8.548803602007794 15.000000000000004
    vertex -274.9865348431177 8.548803602007792 14.44
    vertex -275.565735247976 8.548803602007792 14.44
  endloop
endfacet
facet normal 0.0 1.0 -2.517827216560607e-15
  outer loop
    vertex -274.9865348431177 8.548803602007792 14.44
    vertex -275.565735247976 8.548803602007794 15.000000000000004
    vertex -274.9865348431177 8.548803602007792 15.000000000000004
  endloop
endfacet
facet normal 0.0 -1.0 0.0
  outer loop
    vertex -274.2900441422068 9.719603197149493 15.000000000000004
    vertex -274.6963257717614 9.719603197149493 14.44
    vertex -274.2900441422068 9.719603197149493 14.44
  endloop
endfacet
facet normal 0.0 -1.0 0.0
  outer loop
    vertex -274.6963257717614 9.719603197149493 14.44
    vertex -274.2900441422068 9.719603197149493 15.000000000000004
    vertex -274.6963257717614 9.719603197149493 15.000000000000004
  endloop
endfacet
facet normal 0.9787918398489454 0.20485735096675628 8.144267512355732e-14
  outer loop
    vertex -274.4206465270752 10.34361081987217 14.44
    vertex -274.2900441422068 9.719603197149493 15.000000000000004
    vertex -274.2900441422068 9.719603197149493 14.44
  endloop
endfacet
facet normal 0.9787918398489454 0.20485735096675628 8.144267512355732e-14
  outer loop
    vertex -274.2900441422068 9.719603197149493 15.000000000000004
    vertex -274.4206465270752 10.34361081987217 14.44
    vertex -274.42064652707523 10.343610819872158 15.000000000000004
  endloop
endfacet
endsolid RMP_Front
