solid RMP_Front
facet normal -0.9787918398489454 -0.2048573509667558 0.0
  outer loop
    vertex -274.4206465270752 10.343610819872163 15.140000000000004
    vertex -274.2900441422068 9.719603197149489 15.000000000000004
    vertex -274.2900441422068 9.719603197149489 15.140000000000004
  endloop
endfacet
facet normal -0.9787918398489454 -0.2048573509667558 0.0
  outer loop
    vertex -274.2900441422068 9.719603197149489 15.000000000000004
    vertex -274.4206465270752 10.343610819872163 15.140000000000004
    vertex -274.4206465270752 10.343610819872163 15.000000000000004
  endloop
endfacet
facet normal -0.9863788496551743 0.1644894068106975 0.0
  outer loop
    vertex -274.8563752720145 11.268621099477425 15.140000000000004
    vertex -274.9216903023788 10.87695232417378 15.000000000000004
    vertex -274.9216903023788 10.87695232417378 15.140000000000004
  endloop
endfacet
facet normal -0.9863788496551743 0.1644894068106975 0.0
  outer loop
    vertex -274.9216903023788 10.87695232417378 15.000000000000004
    vertex -274.8563752720145 11.268621099477425 15.140000000000004
    vertex -274.8563752720145 11.268621099477425 15.000000000000004
  endloop
endfacet
facet normal -0.9638016619259486 0.26662024767218956 0.0
  outer loop
    vertex -274.9216903023788 10.87695232417378 15.140000000000004
    vertex -275.565735247976 8.548803602007792 15.000000000000004
    vertex -275.565735247976 8.548803602007792 15.140000000000004
  endloop
endfacet
facet normal -0.9638016619259486 0.26662024767218956 0.0
  outer loop
    vertex -275.565735247976 8.548803602007792 15.000000000000004
    vertex -274.9216903023788 10.87695232417378 15.140000000000004
    vertex -274.9216903023788 10.87695232417378 15.000000000000004
  endloop
endfacet
facet normal 0.9731192884861195 -0.23030165083270393 0.0
  outer loop
    vertex -274.8033483236339 9.322842063546252 15.000000000000004
    vertex -274.9865348431177 8.548803602007792 15.140000000000004
    vertex -274.9865348431177 8.548803602007792 15.000000000000004
  endloop
endfacet
facet normal 0.9731192884861195 -0.23030165083270393 0.0
  outer loop
    vertex -274.9865348431177 8.548803602007792 15.140000000000004
    vertex -274.8033483236339 9.322842063546252 15.000000000000004
    vertex -274.8033483236339 9.322842063546252 15.140000000000004
  endloop
endfacet
facet normal -0.052791496339975666 0.9986055567210641 0.0
  outer loop
    vertex -274.8563752720145 11.268621099477425 15.140000000000004
    vertex -274.17056745318854 11.304876476501716 15.000000000000004
    vertex -274.8563752720145 11.268621099477425 15.000000000000004
  endloop
endfacet
facet normal -0.052791496339975666 0.9986055567210641 0.0
  outer loop
    vertex -274.17056745318854 11.304876476501716 15.000000000000004
    vertex -274.8563752720145 11.268621099477425 15.140000000000004
    vertex -274.17056745318854 11.304876476501716 15.140000000000004
  endloop
endfacet
facet normal 0.0 1.0 0.0
  outer loop
    vertex -274.6963257717614 9.719603197149489 15.140000000000004
    vertex -274.2900441422068 9.719603197149489 15.000000000000004
    vertex -274.6963257717614 9.719603197149489 15.000000000000004
  endloop
endfacet
facet normal 0.0 1.0 0.0
  outer loop
    vertex -274.2900441422068 9.719603197149489 15.000000000000004
    vertex -274.6963257717614 9.719603197149489 15.140000000000004
    vertex -274.2900441422068 9.719603197149489 15.140000000000004
  endloop
endfacet
facet normal 0.0 0.0 1.0
  outer loop
    vertex -272.5323225771764 8.548803602007792 15.140000000000004
    vertex -273.1168367472169 10.838870340368114 15.140000000000004
    vertex -273.1168367472169 8.548803602007792 15.140000000000004
  endloop
endfacet
facet normal 0.0 0.0 1.0
  outer loop
    vertex -273.1168367472169 10.838870340368114 15.140000000000004
    vertex -272.5323225771764 8.548803602007792 15.140000000000004
    vertex -272.71708662069864 10.724596713090786 15.140000000000004
  endloop
endfacet
facet normal 0.0 0.0 1.0
  outer loop
    vertex -272.71708662069864 10.724596713090786 15.140000000000004
    vertex -272.5323225771764 8.548803602007792 15.140000000000004
    vertex -272.5323225771764 9.362501571390379 15.140000000000004
  endloop
endfacet
facet normal 0.0 0.0 1.0
  outer loop
    vertex -271.1100047634112 8.548803602007792 15.140000000000004
    vertex -271.6962901885124 9.362501571390379 15.140000000000004
    vertex -271.6962901885124 8.548803602007792 15.140000000000004
  endloop
endfacet
facet normal 0.0 0.0 1.0
  outer loop
    vertex -271.6962901885124 9.362501571390379 15.140000000000004
    vertex -271.1100047634112 8.548803602007792 15.140000000000004
    vertex -271.50186726973715 10.724596713090786 15.140000000000004
  endloop
endfacet
facet normal 0.0 0.0 1.0
  outer loop
    vertex -273.1168367472169 10.838870340368114 15.140000000000004
    vertex -272.555016782642 11.304876476501716 15.140000000000004
    vertex -273.173074095395 11.268621099477425 15.140000000000004
  endloop
endfacet
facet normal 0.0 0.0 1.0
  outer loop
    vertex -272.555016782642 11.304876476501716 15.140000000000004
    vertex -273.1168367472169 10.838870340368114 15.140000000000004
    vertex -272.71708662069864 10.724596713090786 15.140000000000004
  endloop
endfacet
facet normal 0.0 0.0 1.0
  outer loop
    vertex -272.555016782642 11.304876476501716 15.140000000000004
    vertex -272.71708662069864 10.724596713090786 15.140000000000004
    vertex -272.46498720900837 9.817714121997668 15.140000000000004
  endloop
endfacet
facet normal 0.0 0.0 1.0
  outer loop
    vertex -272.555016782642 11.304876476501716 15.140000000000004
    vertex -272.46498720900837 9.817714121997668 15.140000000000004
    vertex -272.2085703631076 10.505265520023986 15.140000000000004
  endloop
endfacet
facet normal 0.0 0.0 1.0
  outer loop
    vertex -272.2085703631076 10.505265520023986 15.140000000000004
    vertex -272.46498720900837 9.817714121997668 15.140000000000004
    vertex -272.3108326670044 9.40963356152196 15.140000000000004
  endloop
endfacet
facet normal 0.0 0.0 1.0
  outer loop
    vertex -272.2085703631076 10.505265520023986 15.140000000000004
    vertex -272.3108326670044 9.40963356152196 15.140000000000004
    vertex -272.11607763790516 9.999378469163663 15.140000000000004
  endloop
endfacet
facet normal 0.0 0.0 1.0
  outer loop
    vertex -272.11607763790516 9.999378469163663 15.140000000000004
    vertex -272.3108326670044 9.40963356152196 15.140000000000004
    vertex -271.92813087044567 9.40963356152196 15.140000000000004
  endloop
endfacet
facet normal 0.0 0.0 1.0
  outer loop
    vertex -272.11607763790516 9.999378469163663 15.140000000000004
    vertex -271.92813087044567 9.40963356152196 15.140000000000004
    vertex -272.02721045040516 10.510689988647467 15.140000000000004
  endloop
endfacet
facet normal 0.0 0.0 1.0
  outer loop
    vertex -272.02721045040516 10.510689988647467 15.140000000000004
    vertex -271.92813087044567 9.40963356152196 15.140000000000004
    vertex -271.7188736905367 11.268621099477425 15.140000000000004
  endloop
endfacet
facet normal 0.0 0.0 1.0
  outer loop
    vertex -271.7188736905367 11.268621099477425 15.140000000000004
    vertex -271.92813087044567 9.40963356152196 15.140000000000004
    vertex -271.76852418395777 9.817714121997668 15.140000000000004
  endloop
endfacet
facet normal 0.0 0.0 1.0
  outer loop
    vertex -271.7188736905367 11.268621099477425 15.140000000000004
    vertex -271.76852418395777 9.817714121997668 15.140000000000004
    vertex -271.50186726973715 10.724596713090786 15.140000000000004
  endloop
endfacet
facet normal 0.0 0.0 1.0
  outer loop
    vertex -271.7188736905367 11.268621099477425 15.140000000000004
    vertex -271.50186726973715 10.724596713090786 15.140000000000004
    vertex -271.1100047634112 11.304876476501716 15.140000000000004
  endloop
endfacet
facet normal 0.0 0.0 1.0
  outer loop
    vertex -271.1100047634112 11.304876476501716 15.140000000000004
    vertex -271.50186726973715 10.724596713090786 15.140000000000004
    vertex -271.1100047634112 8.548803602007792 15.140000000000004
  endloop
endfacet
facet normal 0.9620315680746051 0.2729382018478114 0.0
  outer loop
    vertex -274.17056745318854 11.304876476501716 15.000000000000004
    vertex -273.38864137145777 8.548803602007792 15.140000000000004
    vertex -273.38864137145777 8.548803602007792 15.000000000000004
  endloop
endfacet
facet normal 0.9620315680746051 0.2729382018478114 0.0
  outer loop
    vertex -273.38864137145777 8.548803602007792 15.140000000000004
    vertex -274.17056745318854 11.304876476501716 15.000000000000004
    vertex -274.17056745318854 11.304876476501716 15.140000000000004
  endloop
endfacet
facet normal 0.9935246467856302 -0.11361679554312668 0.0
  outer loop
    vertex -274.4895594192817 10.962193973971356 15.000000000000004
    vertex -274.56029891826955 10.343610819872163 15.140000000000004
    vertex -274.56029891826955 10.343610819872163 15.000000000000004
  endloop
endfacet
facet normal 0.9935246467856302 -0.11361679554312668 0.0
  outer loop
    vertex -274.56029891826955 10.343610819872163 15.140000000000004
    vertex -274.4895594192817 10.962193973971356 15.000000000000004
    vertex -274.4895594192817 10.962193973971356 15.140000000000004
  endloop
endfacet
facet normal 0.0 -1.0 0.0
  outer loop
    vertex -274.18304926619464 9.322842063546252 15.140000000000004
    vertex -274.8033483236339 9.322842063546252 15.000000000000004
    vertex -274.18304926619464 9.322842063546252 15.000000000000004
  endloop
endfacet
facet normal 0.0 -1.0 0.0
  outer loop
    vertex -274.8033483236339 9.322842063546252 15.000000000000004
    vertex -274.18304926619464 9.322842063546252 15.140000000000004
    vertex -274.8033483236339 9.322842063546252 15.140000000000004
  endloop
endfacet
facet normal 0.0 -1.0 0.0
  outer loop
    vertex -273.38864137145777 8.548803602007792 15.140000000000004
    vertex -273.994410602227 8.548803602007792 15.000000000000004
    vertex -273.38864137145777 8.548803602007792 15.000000000000004
  endloop
endfacet
facet normal 0.0 -1.0 0.0
  outer loop
    vertex -273.994410602227 8.548803602007792 15.000000000000004
    vertex -273.38864137145777 8.548803602007792 15.140000000000004
    vertex -273.994410602227 8.548803602007792 15.140000000000004
  endloop
endfacet
facet normal -0.9938516993871247 -0.11071946362462409 0.0
  outer loop
    vertex -274.4895594192817 10.962193973971356 15.140000000000004
    vertex -274.4206465270752 10.343610819872163 15.000000000000004
    vertex -274.4206465270752 10.343610819872163 15.140000000000004
  endloop
endfacet
facet normal -0.9938516993871247 -0.11071946362462409 0.0
  outer loop
    vertex -274.4206465270752 10.343610819872163 15.000000000000004
    vertex -274.4895594192817 10.962193973971356 15.140000000000004
    vertex -274.4895594192817 10.962193973971356 15.000000000000004
  endloop
endfacet
facet normal 0.0 -1.0 0.0
  outer loop
    vertex -274.9865348431177 8.548803602007792 15.140000000000004
    vertex -275.565735247976 8.548803602007792 15.000000000000004
    vertex -274.9865348431177 8.548803602007792 15.000000000000004
  endloop
endfacet
facet normal 0.0 -1.0 0.0
  outer loop
    vertex -275.565735247976 8.548803602007792 15.000000000000004
    vertex -274.9865348431177 8.548803602007792 15.140000000000004
    vertex -275.565735247976 8.548803602007792 15.140000000000004
  endloop
endfacet
facet normal 0.9770549630280959 -0.21298732174044177 0.0
  outer loop
    vertex -274.56029891826955 10.343610819872163 15.000000000000004
    vertex -274.6963257717614 9.719603197149489 15.140000000000004
    vertex -274.6963257717614 9.719603197149489 15.000000000000004
  endloop
endfacet
facet normal 0.9770549630280959 -0.21298732174044177 0.0
  outer loop
    vertex -274.6963257717614 9.719603197149489 15.140000000000004
    vertex -274.56029891826955 10.343610819872163 15.000000000000004
    vertex -274.56029891826955 10.343610819872163 15.140000000000004
  endloop
endfacet
facet normal 0.0 0.0 1.0
  outer loop
    vertex -274.18304926619464 9.322842063546252 15.140000000000004
    vertex -274.6963257717614 9.719603197149489 15.140000000000004
    vertex -274.8033483236339 9.322842063546252 15.140000000000004
  endloop
endfacet
facet normal 0.0 0.0 1.0
  outer loop
    vertex -274.6963257717614 9.719603197149489 15.140000000000004
    vertex -274.18304926619464 9.322842063546252 15.140000000000004
    vertex -274.2900441422068 9.719603197149489 15.140000000000004
  endloop
endfacet
facet normal 0.0 0.0 1.0
  outer loop
    vertex -274.9865348431177 8.548803602007792 15.140000000000004
    vertex -274.9216903023788 10.87695232417378 15.140000000000004
    vertex -275.565735247976 8.548803602007792 15.140000000000004
  endloop
endfacet
facet normal 0.0 0.0 1.0
  outer loop
    vertex -274.9216903023788 10.87695232417378 15.140000000000004
    vertex -274.9865348431177 8.548803602007792 15.140000000000004
    vertex -274.8033483236339 9.322842063546252 15.140000000000004
  endloop
endfacet
facet normal 0.0 0.0 1.0
  outer loop
    vertex -274.9216903023788 10.87695232417378 15.140000000000004
    vertex -274.8033483236339 9.322842063546252 15.140000000000004
    vertex -274.8563752720145 11.268621099477425 15.140000000000004
  endloop
endfacet
facet normal 0.0 0.0 1.0
  outer loop
    vertex -274.8563752720145 11.268621099477425 15.140000000000004
    vertex -274.8033483236339 9.322842063546252 15.140000000000004
    vertex -274.4895594192817 10.962193973971356 15.140000000000004
  endloop
endfacet
facet normal 0.0 0.0 1.0
  outer loop
    vertex -274.8563752720145 11.268621099477425 15.140000000000004
    vertex -274.4895594192817 10.962193973971356 15.140000000000004
    vertex -274.17056745318854 11.304876476501716 15.140000000000004
  endloop
endfacet
facet normal 0.0 0.0 1.0
  outer loop
    vertex -274.4895594192817 10.962193973971356 15.140000000000004
    vertex -274.8033483236339 9.322842063546252 15.140000000000004
    vertex -274.6963257717614 9.719603197149489 15.140000000000004
  endloop
endfacet
facet normal 0.0 0.0 1.0
  outer loop
    vertex -274.4895594192817 10.962193973971356 15.140000000000004
    vertex -274.6963257717614 9.719603197149489 15.140000000000004
    vertex -274.56029891826955 10.343610819872163 15.140000000000004
  endloop
endfacet
facet normal 0.0 0.0 1.0
  outer loop
    vertex -274.17056745318854 11.304876476501716 15.140000000000004
    vertex -274.4895594192817 10.962193973971356 15.140000000000004
    vertex -274.4206465270752 10.343610819872163 15.140000000000004
  endloop
endfacet
facet normal 0.0 0.0 1.0
  outer loop
    vertex -274.17056745318854 11.304876476501716 15.140000000000004
    vertex -274.4206465270752 10.343610819872163 15.140000000000004
    vertex -274.2900441422068 9.719603197149489 15.140000000000004
  endloop
endfacet
facet normal 0.0 0.0 1.0
  outer loop
    vertex -274.17056745318854 11.304876476501716 15.140000000000004
    vertex -274.2900441422068 9.719603197149489 15.140000000000004
    vertex -274.18304926619464 9.322842063546252 15.140000000000004
  endloop
endfacet
facet normal 0.0 0.0 1.0
  outer loop
    vertex -274.17056745318854 11.304876476501716 15.140000000000004
    vertex -274.18304926619464 9.322842063546252 15.140000000000004
    vertex -273.994410602227 8.548803602007792 15.140000000000004
  endloop
endfacet
facet normal 0.0 0.0 1.0
  outer loop
    vertex -274.17056745318854 11.304876476501716 15.140000000000004
    vertex -273.994410602227 8.548803602007792 15.140000000000004
    vertex -273.38864137145777 8.548803602007792 15.140000000000004
  endloop
endfacet
facet normal -0.9715640134819038 -0.23677704218723375 0.0
  outer loop
    vertex -274.18304926619464 9.322842063546252 15.140000000000004
    vertex -273.994410602227 8.548803602007792 15.000000000000004
    vertex -273.994410602227 8.548803602007792 15.140000000000004
  endloop
endfacet
facet normal -0.9715640134819038 -0.23677704218723375 0.0
  outer loop
    vertex -273.994410602227 8.548803602007792 15.000000000000004
    vertex -274.18304926619464 9.322842063546252 15.140000000000004
    vertex -274.18304926619464 9.322842063546252 15.000000000000004
  endloop
endfacet
facet normal -1.0 0.0 0.0
  outer loop
    vertex -271.6962901885124 9.362501571390379 15.140000000000004
    vertex -271.6962901885124 8.548803602007792 15.000000000000004
    vertex -271.6962901885124 8.548803602007792 15.140000000000004
  endloop
endfacet
facet normal -1.0 0.0 0.0
  outer loop
    vertex -271.6962901885124 8.548803602007792 15.000000000000004
    vertex -271.6962901885124 9.362501571390379 15.140000000000004
    vertex -271.6962901885124 9.362501571390379 15.000000000000004
  endloop
endfacet
facet normal 0.0 -1.0 0.0
  outer loop
    vertex -271.1100047634112 8.548803602007792 15.140000000000004
    vertex -271.6962901885124 8.548803602007792 15.000000000000004
    vertex -271.1100047634112 8.548803602007792 15.000000000000004
  endloop
endfacet
facet normal 0.0 -1.0 0.0
  outer loop
    vertex -271.6962901885124 8.548803602007792 15.000000000000004
    vertex -271.1100047634112 8.548803602007792 15.140000000000004
    vertex -271.6962901885124 8.548803602007792 15.140000000000004
  endloop
endfacet
facet normal 1.0 0.0 0.0
  outer loop
    vertex -271.1100047634112 11.304876476501716 15.000000000000004
    vertex -271.1100047634112 8.548803602007792 15.140000000000004
    vertex -271.1100047634112 8.548803602007792 15.000000000000004
  endloop
endfacet
facet normal 1.0 0.0 0.0
  outer loop
    vertex -271.1100047634112 8.548803602007792 15.140000000000004
    vertex -271.1100047634112 11.304876476501716 15.000000000000004
    vertex -271.1100047634112 11.304876476501716 15.140000000000004
  endloop
endfacet
facet normal -0.059440170436580925 0.998231869927258 0.0
  outer loop
    vertex -271.7188736905367 11.268621099477425 15.140000000000004
    vertex -271.1100047634112 11.304876476501716 15.000000000000004
    vertex -271.7188736905367 11.268621099477425 15.000000000000004
  endloop
endfacet
facet normal -0.059440170436580925 0.998231869927258 0.0
  outer loop
    vertex -271.1100047634112 11.304876476501716 15.000000000000004
    vertex -271.7188736905367 11.268621099477425 15.140000000000004
    vertex -271.1100047634112 11.304876476501716 15.140000000000004
  endloop
endfacet
facet normal -0.9262843956959828 0.3768251826644923 0.0
  outer loop
    vertex -271.7188736905367 11.268621099477425 15.140000000000004
    vertex -272.02721045040516 10.510689988647467 15.000000000000004
    vertex -272.02721045040516 10.510689988647467 15.140000000000004
  endloop
endfacet
facet normal -0.9262843956959828 0.3768251826644923 0.0
  outer loop
    vertex -272.02721045040516 10.510689988647467 15.000000000000004
    vertex -271.7188736905367 11.268621099477425 15.140000000000004
    vertex -271.7188736905367 11.268621099477425 15.000000000000004
  endloop
endfacet
facet normal 0.9175772520692319 0.3975575260073406 0.0
  outer loop
    vertex -272.555016782642 11.304876476501716 15.000000000000004
    vertex -272.2085703631076 10.505265520023986 15.140000000000004
    vertex -272.2085703631076 10.505265520023986 15.000000000000004
  endloop
endfacet
facet normal 0.9175772520692319 0.3975575260073406 0.0
  outer loop
    vertex -272.2085703631076 10.505265520023986 15.140000000000004
    vertex -272.555016782642 11.304876476501716 15.000000000000004
    vertex -272.555016782642 11.304876476501716 15.140000000000004
  endloop
endfacet
facet normal -0.05855955271218869 0.9982839169225098 0.0
  outer loop
    vertex -273.173074095395 11.268621099477425 15.140000000000004
    vertex -272.555016782642 11.304876476501716 15.000000000000004
    vertex -273.173074095395 11.268621099477425 15.000000000000004
  endloop
endfacet
facet normal -0.05855955271218869 0.9982839169225098 0.0
  outer loop
    vertex -272.555016782642 11.304876476501716 15.000000000000004
    vertex -273.173074095395 11.268621099477425 15.140000000000004
    vertex -272.555016782642 11.304876476501716 15.140000000000004
  endloop
endfacet
facet normal 1.0 0.0 0.0
  outer loop
    vertex -272.5323225771764 9.362501571390379 15.000000000000004
    vertex -272.5323225771764 8.548803602007792 15.140000000000004
    vertex -272.5323225771764 8.548803602007792 15.000000000000004
  endloop
endfacet
facet normal 1.0 0.0 0.0
  outer loop
    vertex -272.5323225771764 8.548803602007792 15.140000000000004
    vertex -272.5323225771764 9.362501571390379 15.000000000000004
    vertex -272.5323225771764 9.362501571390379 15.140000000000004
  endloop
endfacet
facet normal -0.9354790849156612 -0.35338206191791477 0.0
  outer loop
    vertex -272.46498720900837 9.817714121997668 15.140000000000004
    vertex -272.3108326670044 9.40963356152196 15.000000000000004
    vertex -272.3108326670044 9.40963356152196 15.140000000000004
  endloop
endfacet
facet normal -0.9354790849156612 -0.35338206191791477 0.0
  outer loop
    vertex -272.3108326670044 9.40963356152196 15.000000000000004
    vertex -272.46498720900837 9.817714121997668 15.140000000000004
    vertex -272.46498720900837 9.817714121997668 15.000000000000004
  endloop
endfacet
facet normal 0.0 0.0 -1.0
  outer loop
    vertex -274.9216903023788 10.87695232417378 15.000000000000004
    vertex -274.9865348431177 8.548803602007792 15.000000000000004
    vertex -275.565735247976 8.548803602007792 15.000000000000004
  endloop
endfacet
facet normal 0.0 0.0 -1.0
  outer loop
    vertex -274.9865348431177 8.548803602007792 15.000000000000004
    vertex -274.9216903023788 10.87695232417378 15.000000000000004
    vertex -274.8033483236339 9.322842063546252 15.000000000000004
  endloop
endfacet
facet normal 0.0 0.0 -1.0
  outer loop
    vertex -274.8033483236339 9.322842063546252 15.000000000000004
    vertex -274.9216903023788 10.87695232417378 15.000000000000004
    vertex -274.8563752720145 11.268621099477425 15.000000000000004
  endloop
endfacet
facet normal 0.0 0.0 -1.0
  outer loop
    vertex -274.8033483236339 9.322842063546252 15.000000000000004
    vertex -274.8563752720145 11.268621099477425 15.000000000000004
    vertex -274.4895594192817 10.962193973971356 15.000000000000004
  endloop
endfacet
facet normal 0.0 0.0 -1.0
  outer loop
    vertex -274.4895594192817 10.962193973971356 15.000000000000004
    vertex -274.8563752720145 11.268621099477425 15.000000000000004
    vertex -274.17056745318854 11.304876476501716 15.000000000000004
  endloop
endfacet
facet normal 0.0 0.0 -1.0
  outer loop
    vertex -274.8033483236339 9.322842063546252 15.000000000000004
    vertex -274.4895594192817 10.962193973971356 15.000000000000004
    vertex -274.6963257717614 9.719603197149489 15.000000000000004
  endloop
endfacet
facet normal 0.0 0.0 -1.0
  outer loop
    vertex -274.6963257717614 9.719603197149489 15.000000000000004
    vertex -274.4895594192817 10.962193973971356 15.000000000000004
    vertex -274.56029891826955 10.343610819872163 15.000000000000004
  endloop
endfacet
facet normal 0.0 0.0 -1.0
  outer loop
    vertex -274.4895594192817 10.962193973971356 15.000000000000004
    vertex -274.17056745318854 11.304876476501716 15.000000000000004
    vertex -274.4206465270752 10.343610819872163 15.000000000000004
  endloop
endfacet
facet normal 0.0 0.0 -1.0
  outer loop
    vertex -274.4206465270752 10.343610819872163 15.000000000000004
    vertex -274.17056745318854 11.304876476501716 15.000000000000004
    vertex -274.2900441422068 9.719603197149489 15.000000000000004
  endloop
endfacet
facet normal 0.0 0.0 -1.0
  outer loop
    vertex -274.2900441422068 9.719603197149489 15.000000000000004
    vertex -274.17056745318854 11.304876476501716 15.000000000000004
    vertex -274.18304926619464 9.322842063546252 15.000000000000004
  endloop
endfacet
facet normal 0.0 0.0 -1.0
  outer loop
    vertex -274.18304926619464 9.322842063546252 15.000000000000004
    vertex -274.17056745318854 11.304876476501716 15.000000000000004
    vertex -273.994410602227 8.548803602007792 15.000000000000004
  endloop
endfacet
facet normal 0.0 0.0 -1.0
  outer loop
    vertex -273.994410602227 8.548803602007792 15.000000000000004
    vertex -274.17056745318854 11.304876476501716 15.000000000000004
    vertex -273.38864137145777 8.548803602007792 15.000000000000004
  endloop
endfacet
facet normal 0.0 0.0 -1.0
  outer loop
    vertex -274.6963257717614 9.719603197149489 15.000000000000004
    vertex -274.18304926619464 9.322842063546252 15.000000000000004
    vertex -274.8033483236339 9.322842063546252 15.000000000000004
  endloop
endfacet
facet normal 0.0 0.0 -1.0
  outer loop
    vertex -274.18304926619464 9.322842063546252 15.000000000000004
    vertex -274.6963257717614 9.719603197149489 15.000000000000004
    vertex -274.2900441422068 9.719603197149489 15.000000000000004
  endloop
endfacet
facet normal 0.0 -1.0 0.0
  outer loop
    vertex -272.5323225771764 8.548803602007792 15.140000000000004
    vertex -273.1168367472169 8.548803602007792 15.000000000000004
    vertex -272.5323225771764 8.548803602007792 15.000000000000004
  endloop
endfacet
facet normal 0.0 -1.0 0.0
  outer loop
    vertex -273.1168367472169 8.548803602007792 15.000000000000004
    vertex -272.5323225771764 8.548803602007792 15.140000000000004
    vertex -273.1168367472169 8.548803602007792 15.140000000000004
  endloop
endfacet
facet normal 0.9909249986526425 0.1344159478829074 0.0
  outer loop
    vertex -272.71708662069864 10.724596713090786 15.000000000000004
    vertex -272.5323225771764 9.362501571390379 15.140000000000004
    vertex -272.5323225771764 9.362501571390379 15.000000000000004
  endloop
endfacet
facet normal 0.9909249986526425 0.1344159478829074 0.0
  outer loop
    vertex -272.5323225771764 9.362501571390379 15.140000000000004
    vertex -272.71708662069864 10.724596713090786 15.000000000000004
    vertex -272.71708662069864 10.724596713090786 15.140000000000004
  endloop
endfacet
facet normal -0.9634665003916156 -0.267828868166098 0.0
  outer loop
    vertex -272.71708662069864 10.724596713090786 15.140000000000004
    vertex -272.46498720900837 9.817714121997668 15.000000000000004
    vertex -272.46498720900837 9.817714121997668 15.140000000000004
  endloop
endfacet
facet normal -0.9634665003916156 -0.267828868166098 0.0
  outer loop
    vertex -272.46498720900837 9.817714121997668 15.000000000000004
    vertex -272.71708662069864 10.724596713090786 15.140000000000004
    vertex -272.71708662069864 10.724596713090786 15.000000000000004
  endloop
endfacet
facet normal -0.9852301447683917 0.1712353989093797 0.0
  outer loop
    vertex -272.02721045040516 10.510689988647467 15.140000000000004
    vertex -272.11607763790516 9.999378469163663 15.000000000000004
    vertex -272.11607763790516 9.999378469163663 15.140000000000004
  endloop
endfacet
facet normal -0.9852301447683917 0.1712353989093797 0.0
  outer loop
    vertex -272.11607763790516 9.999378469163663 15.000000000000004
    vertex -272.02721045040516 10.510689988647467 15.140000000000004
    vertex -272.02721045040516 10.510689988647467 15.000000000000004
  endloop
endfacet
facet normal 0.9836937819401296 0.17985144806846864 0.0
  outer loop
    vertex -272.2085703631076 10.505265520023986 15.000000000000004
    vertex -272.11607763790516 9.999378469163663 15.140000000000004
    vertex -272.11607763790516 9.999378469163663 15.000000000000004
  endloop
endfacet
facet normal 0.9836937819401296 0.17985144806846864 0.0
  outer loop
    vertex -272.11607763790516 9.999378469163663 15.140000000000004
    vertex -272.2085703631076 10.505265520023986 15.000000000000004
    vertex -272.2085703631076 10.505265520023986 15.140000000000004
  endloop
endfacet
facet normal -0.991546201600857 -0.12975411396527067 0.0
  outer loop
    vertex -273.173074095395 11.268621099477425 15.140000000000004
    vertex -273.1168367472169 10.838870340368114 15.000000000000004
    vertex -273.1168367472169 10.838870340368114 15.140000000000004
  endloop
endfacet
facet normal -0.991546201600857 -0.12975411396527067 0.0
  outer loop
    vertex -273.1168367472169 10.838870340368114 15.000000000000004
    vertex -273.173074095395 11.268621099477425 15.140000000000004
    vertex -273.173074095395 11.268621099477425 15.000000000000004
  endloop
endfacet
facet normal -1.0 0.0 0.0
  outer loop
    vertex -273.1168367472169 10.838870340368114 15.140000000000004
    vertex -273.1168367472169 8.548803602007792 15.000000000000004
    vertex -273.1168367472169 8.548803602007792 15.140000000000004
  endloop
endfacet
facet normal -1.0 0.0 0.0
  outer loop
    vertex -273.1168367472169 8.548803602007792 15.000000000000004
    vertex -273.1168367472169 10.838870340368114 15.140000000000004
    vertex -273.1168367472169 10.838870340368114 15.000000000000004
  endloop
endfacet
facet normal 0.0 0.0 -1.0
  outer loop
    vertex -272.555016782642 11.304876476501716 15.000000000000004
    vertex -273.1168367472169 10.838870340368114 15.000000000000004
    vertex -273.173074095395 11.268621099477425 15.000000000000004
  endloop
endfacet
facet normal 0.0 0.0 -1.0
  outer loop
    vertex -273.1168367472169 10.838870340368114 15.000000000000004
    vertex -272.555016782642 11.304876476501716 15.000000000000004
    vertex -272.71708662069864 10.724596713090786 15.000000000000004
  endloop
endfacet
facet normal 0.0 0.0 -1.0
  outer loop
    vertex -273.1168367472169 10.838870340368114 15.000000000000004
    vertex -272.71708662069864 10.724596713090786 15.000000000000004
    vertex -273.1168367472169 8.548803602007792 15.000000000000004
  endloop
endfacet
facet normal 0.0 0.0 -1.0
  outer loop
    vertex -272.71708662069864 10.724596713090786 15.000000000000004
    vertex -272.555016782642 11.304876476501716 15.000000000000004
    vertex -272.46498720900837 9.817714121997668 15.000000000000004
  endloop
endfacet
facet normal 0.0 0.0 -1.0
  outer loop
    vertex -272.46498720900837 9.817714121997668 15.000000000000004
    vertex -272.555016782642 11.304876476501716 15.000000000000004
    vertex -272.2085703631076 10.505265520023986 15.000000000000004
  endloop
endfacet
facet normal 0.0 0.0 -1.0
  outer loop
    vertex -272.46498720900837 9.817714121997668 15.000000000000004
    vertex -272.2085703631076 10.505265520023986 15.000000000000004
    vertex -272.3108326670044 9.40963356152196 15.000000000000004
  endloop
endfacet
facet normal 0.0 0.0 -1.0
  outer loop
    vertex -272.3108326670044 9.40963356152196 15.000000000000004
    vertex -272.2085703631076 10.505265520023986 15.000000000000004
    vertex -272.11607763790516 9.999378469163663 15.000000000000004
  endloop
endfacet
facet normal 0.0 0.0 -1.0
  outer loop
    vertex -272.3108326670044 9.40963356152196 15.000000000000004
    vertex -272.11607763790516 9.999378469163663 15.000000000000004
    vertex -271.92813087044567 9.40963356152196 15.000000000000004
  endloop
endfacet
facet normal 0.0 0.0 -1.0
  outer loop
    vertex -271.92813087044567 9.40963356152196 15.000000000000004
    vertex -272.11607763790516 9.999378469163663 15.000000000000004
    vertex -272.02721045040516 10.510689988647467 15.000000000000004
  endloop
endfacet
facet normal 0.0 0.0 -1.0
  outer loop
    vertex -271.92813087044567 9.40963356152196 15.000000000000004
    vertex -272.02721045040516 10.510689988647467 15.000000000000004
    vertex -271.7188736905367 11.268621099477425 15.000000000000004
  endloop
endfacet
facet normal 0.0 0.0 -1.0
  outer loop
    vertex -271.92813087044567 9.40963356152196 15.000000000000004
    vertex -271.7188736905367 11.268621099477425 15.000000000000004
    vertex -271.76852418395777 9.817714121997668 15.000000000000004
  endloop
endfacet
facet normal 0.0 0.0 -1.0
  outer loop
    vertex -271.76852418395777 9.817714121997668 15.000000000000004
    vertex -271.7188736905367 11.268621099477425 15.000000000000004
    vertex -271.50186726973715 10.724596713090786 15.000000000000004
  endloop
endfacet
facet normal 0.0 0.0 -1.0
  outer loop
    vertex -271.50186726973715 10.724596713090786 15.000000000000004
    vertex -271.7188736905367 11.268621099477425 15.000000000000004
    vertex -271.1100047634112 11.304876476501716 15.000000000000004
  endloop
endfacet
facet normal 0.0 0.0 -1.0
  outer loop
    vertex -271.50186726973715 10.724596713090786 15.000000000000004
    vertex -271.6962901885124 8.548803602007792 15.000000000000004
    vertex -271.6962901885124 9.362501571390379 15.000000000000004
  endloop
endfacet
facet normal 0.0 0.0 -1.0
  outer loop
    vertex -271.6962901885124 8.548803602007792 15.000000000000004
    vertex -271.50186726973715 10.724596713090786 15.000000000000004
    vertex -271.1100047634112 8.548803602007792 15.000000000000004
  endloop
endfacet
facet normal 0.0 0.0 -1.0
  outer loop
    vertex -271.1100047634112 8.548803602007792 15.000000000000004
    vertex -271.50186726973715 10.724596713090786 15.000000000000004
    vertex -271.1100047634112 11.304876476501716 15.000000000000004
  endloop
endfacet
facet normal 0.0 0.0 -1.0
  outer loop
    vertex -272.71708662069864 10.724596713090786 15.000000000000004
    vertex -272.5323225771764 8.548803602007792 15.000000000000004
    vertex -273.1168367472169 8.548803602007792 15.000000000000004
  endloop
endfacet
facet normal 0.0 0.0 -1.0
  outer loop
    vertex -272.5323225771764 8.548803602007792 15.000000000000004
    vertex -272.71708662069864 10.724596713090786 15.000000000000004
    vertex -272.5323225771764 9.362501571390379 15.000000000000004
  endloop
endfacet
facet normal -0.9899659809972581 0.1413058967918066 0.0
  outer loop
    vertex -271.50186726973715 10.724596713090786 15.140000000000004
    vertex -271.6962901885124 9.362501571390379 15.000000000000004
    vertex -271.6962901885124 9.362501571390379 15.140000000000004
  endloop
endfacet
facet normal -0.9899659809972581 0.1413058967918066 0.0
  outer loop
    vertex -271.6962901885124 9.362501571390379 15.000000000000004
    vertex -271.50186726973715 10.724596713090786 15.140000000000004
    vertex -271.50186726973715 10.724596713090786 15.000000000000004
  endloop
endfacet
facet normal 0.9313024073653338 -0.3642469300289766 0.0
  outer loop
    vertex -271.76852418395777 9.817714121997668 15.000000000000004
    vertex -271.92813087044567 9.40963356152196 15.140000000000004
    vertex -271.92813087044567 9.40963356152196 15.000000000000004
  endloop
endfacet
facet normal 0.9313024073653338 -0.3642469300289766 0.0
  outer loop
    vertex -271.92813087044567 9.40963356152196 15.140000000000004
    vertex -271.76852418395777 9.817714121997668 15.000000000000004
    vertex -271.76852418395777 9.817714121997668 15.140000000000004
  endloop
endfacet
facet normal 0.9593864784868789 -0.28209499268251076 0.0
  outer loop
    vertex -271.50186726973715 10.724596713090786 15.000000000000004
    vertex -271.76852418395777 9.817714121997668 15.140000000000004
    vertex -271.76852418395777 9.817714121997668 15.000000000000004
  endloop
endfacet
facet normal 0.9593864784868789 -0.28209499268251076 0.0
  outer loop
    vertex -271.76852418395777 9.817714121997668 15.140000000000004
    vertex -271.50186726973715 10.724596713090786 15.000000000000004
    vertex -271.50186726973715 10.724596713090786 15.140000000000004
  endloop
endfacet
facet normal 0.0 -1.0 0.0
  outer loop
    vertex -271.92813087044567 9.40963356152196 15.140000000000004
    vertex -272.3108326670044 9.40963356152196 15.000000000000004
    vertex -271.92813087044567 9.40963356152196 15.000000000000004
  endloop
endfacet
facet normal 0.0 -1.0 0.0
  outer loop
    vertex -272.3108326670044 9.40963356152196 15.000000000000004
    vertex -271.92813087044567 9.40963356152196 15.140000000000004
    vertex -272.3108326670044 9.40963356152196 15.140000000000004
  endloop
endfacet
endsolid RMP_Front
