solid RMP_Front
facet normal 0.0 0.0 -1.0
  outer loop
    vertex -138.96301195251047 35.96629329144391 23.0
    vertex -140.7165544626319 35.536431828893285 23.0
    vertex -140.78004288621491 35.96629329144391 23.0
  endloop
endfacet
facet normal 0.0 0.0 -1.0
  outer loop
    vertex -140.7165544626319 35.536431828893285 23.0
    vertex -138.96301195251047 35.96629329144391 23.0
    vertex -140.10787926652867 35.55359086229411 23.0
  endloop
endfacet
facet normal 0.0 0.0 -1.0
  outer loop
    vertex -140.7165544626319 35.536431828893285 23.0
    vertex -140.10787926652867 35.55359086229411 23.0
    vertex -140.7165544626319 33.24564551816455 23.0
  endloop
endfacet
facet normal 0.0 0.0 -1.0
  outer loop
    vertex -140.10787926652867 35.55359086229411 23.0
    vertex -138.96301195251047 35.96629329144391 23.0
    vertex -139.01199822528372 35.55359086229411 23.0
  endloop
endfacet
facet normal 0.0 0.0 -1.0
  outer loop
    vertex -139.14899373388695 34.907082765128116 23.0
    vertex -140.0806738958303 34.52094916188924 23.0
    vertex -140.0806738958303 34.907082765128116 23.0
  endloop
endfacet
facet normal 0.0 0.0 -1.0
  outer loop
    vertex -140.0806738958303 34.52094916188924 23.0
    vertex -139.14899373388695 34.907082765128116 23.0
    vertex -139.14899373388695 34.52094916188924 23.0
  endloop
endfacet
facet normal 0.0 0.0 -1.0
  outer loop
    vertex -140.10787926652867 35.55359086229411 23.0
    vertex -140.0806738958303 33.24564551816455 23.0
    vertex -140.7165544626319 33.24564551816455 23.0
  endloop
endfacet
facet normal 0.0 0.0 -1.0
  outer loop
    vertex -140.0806738958303 33.24564551816455 23.0
    vertex -140.10787926652867 35.55359086229411 23.0
    vertex -140.0806738958303 35.30298594706131 23.0
  endloop
endfacet
facet normal 0.0 0.0 -1.0
  outer loop
    vertex -140.0806738958303 33.24564551816455 23.0
    vertex -140.0806738958303 35.30298594706131 23.0
    vertex -140.0806738958303 34.907082765128116 23.0
  endloop
endfacet
facet normal 0.0 0.0 -1.0
  outer loop
    vertex -140.0806738958303 33.24564551816455 23.0
    vertex -140.0806738958303 34.907082765128116 23.0
    vertex -140.0806738958303 34.52094916188924 23.0
  endloop
endfacet
facet normal 0.0 0.0 -1.0
  outer loop
    vertex -137.59939463849224 35.500148776008686 23.0
    vertex -137.73362256106307 33.60839301942973 23.0
    vertex -137.73362256106307 34.841767734763735 23.0
  endloop
endfacet
facet normal 0.0 0.0 -1.0
  outer loop
    vertex -137.57401587457522 36.00257634432851 23.0
    vertex -138.1634840236137 34.87439757408561 23.0
    vertex -138.44461541278372 35.209939704652406 23.0
  endloop
endfacet
facet normal 0.0 0.0 -1.0
  outer loop
    vertex -138.1634840236137 34.87439757408561 23.0
    vertex -137.57401587457522 36.00257634432851 23.0
    vertex -138.0111284125307 35.00862549665645 23.0
  endloop
endfacet
facet normal 0.0 0.0 -1.0
  outer loop
    vertex -138.0111284125307 35.00862549665645 23.0
    vertex -137.57401587457522 36.00257634432851 23.0
    vertex -137.59939463849224 35.500148776008686 23.0
  endloop
endfacet
facet normal 0.0 0.0 -1.0
  outer loop
    vertex -137.73362256106307 33.60839301942973 23.0
    vertex -138.174360636721 33.24564551816455 23.0
    vertex -138.174360636721 33.60839301942973 23.0
  endloop
endfacet
facet normal 0.0 0.0 -1.0
  outer loop
    vertex -138.174360636721 33.24564551816455 23.0
    vertex -137.73362256106307 33.60839301942973 23.0
    vertex -136.6925120473991 33.24564551816455 23.0
  endloop
endfacet
facet normal 0.0 0.0 -1.0
  outer loop
    vertex -136.6925120473991 33.24564551816455 23.0
    vertex -137.73362256106307 33.60839301942973 23.0
    vertex -137.13325012305702 33.60839301942973 23.0
  endloop
endfacet
facet normal 0.0 0.0 -1.0
  outer loop
    vertex -137.13325012305702 33.60839301942973 23.0
    vertex -137.73362256106307 33.60839301942973 23.0
    vertex -137.59939463849224 35.500148776008686 23.0
  endloop
endfacet
facet normal 0.0 0.0 -1.0
  outer loop
    vertex -137.13325012305702 33.60839301942973 23.0
    vertex -137.59939463849224 35.500148776008686 23.0
    vertex -137.57401587457522 36.00257634432851 23.0
  endloop
endfacet
facet normal 0.0 0.0 -1.0
  outer loop
    vertex -137.13325012305702 33.60839301942973 23.0
    vertex -137.57401587457522 36.00257634432851 23.0
    vertex -137.13325012305702 35.96629329144391 23.0
  endloop
endfacet
facet normal 0.0 0.0 -1.0
  outer loop
    vertex -136.6925120473991 33.24564551816455 23.0
    vertex -137.13325012305702 33.60839301942973 23.0
    vertex -136.6925120473991 33.60839301942973 23.0
  endloop
endfacet
facet normal 0.0 0.0 -1.0
  outer loop
    vertex -141.2284471751825 36.001718392658475 23.0
    vertex -141.85547146668048 34.907082765128116 23.0
    vertex -141.85547146668048 35.965463015634185 23.0
  endloop
endfacet
facet normal 0.0 0.0 -1.0
  outer loop
    vertex -141.85547146668048 34.907082765128116 23.0
    vertex -141.2284471751825 36.001718392658475 23.0
    vertex -141.85547146668048 34.49438033597831 23.0
  endloop
endfacet
facet normal 0.0 0.0 -1.0
  outer loop
    vertex -141.85547146668048 34.49438033597831 23.0
    vertex -141.2284471751825 36.001718392658475 23.0
    vertex -141.85547146668048 33.24564551816455 23.0
  endloop
endfacet
facet normal 0.0 0.0 -1.0
  outer loop
    vertex -141.85547146668048 33.24564551816455 23.0
    vertex -141.2284471751825 36.001718392658475 23.0
    vertex -141.2284471751825 33.24564551816455 23.0
  endloop
endfacet
facet normal 0.0 0.0 -1.0
  outer loop
    vertex -141.85547146668048 34.907082765128116 23.0
    vertex -142.66493502943354 34.49438033597831 23.0
    vertex -142.66493502943354 34.907082765128116 23.0
  endloop
endfacet
facet normal 0.0 0.0 -1.0
  outer loop
    vertex -142.66493502943354 34.49438033597831 23.0
    vertex -141.85547146668048 34.907082765128116 23.0
    vertex -141.85547146668048 34.49438033597831 23.0
  endloop
endfacet
facet normal 0.0 0.0 -1.0
  outer loop
    vertex -142.66493502943354 36.001718392658475 23.0
    vertex -143.29373057599224 35.53571225652487 23.0
    vertex -143.34994024831005 35.965463015634185 23.0
  endloop
endfacet
facet normal 0.0 0.0 -1.0
  outer loop
    vertex -143.29373057599224 35.53571225652487 23.0
    vertex -142.66493502943354 36.001718392658475 23.0
    vertex -143.29373057599224 33.24564551816455 23.0
  endloop
endfacet
facet normal 0.0 0.0 -1.0
  outer loop
    vertex -143.29373057599224 33.24564551816455 23.0
    vertex -142.66493502943354 36.001718392658475 23.0
    vertex -142.66493502943354 33.24564551816455 23.0
  endloop
endfacet
facet normal 0.0 0.0 -1.0
  outer loop
    vertex -142.66493502943354 33.24564551816455 23.0
    vertex -142.66493502943354 36.001718392658475 23.0
    vertex -142.66493502943354 34.907082765128116 23.0
  endloop
endfacet
facet normal 0.0 0.0 -1.0
  outer loop
    vertex -142.66493502943354 33.24564551816455 23.0
    vertex -142.66493502943354 34.907082765128116 23.0
    vertex -142.66493502943354 34.49438033597831 23.0
  endloop
endfacet
facet normal 0.0 -1.0 0.0
  outer loop
    vertex -140.0806738958303 33.24564551816455 23.14
    vertex -140.7165544626319 33.24564551816455 23.0
    vertex -140.0806738958303 33.24564551816455 23.0
  endloop
endfacet
facet normal 0.0 -1.0 0.0
  outer loop
    vertex -140.7165544626319 33.24564551816455 23.0
    vertex -140.0806738958303 33.24564551816455 23.14
    vertex -140.7165544626319 33.24564551816455 23.14
  endloop
endfacet
facet normal 0.0 0.0 1.0
  outer loop
    vertex -138.1634840236137 34.87439757408561 23.14
    vertex -137.57401587457522 36.00257634432851 23.14
    vertex -138.44461541278372 35.209939704652406 23.14
  endloop
endfacet
facet normal 0.0 0.0 1.0
  outer loop
    vertex -137.57401587457522 36.00257634432851 23.14
    vertex -138.1634840236137 34.87439757408561 23.14
    vertex -138.0111284125307 35.00862549665645 23.14
  endloop
endfacet
facet normal 0.0 0.0 1.0
  outer loop
    vertex -137.57401587457522 36.00257634432851 23.14
    vertex -138.0111284125307 35.00862549665645 23.14
    vertex -137.59939463849224 35.500148776008686 23.14
  endloop
endfacet
facet normal 0.0 0.0 1.0
  outer loop
    vertex -136.6925120473991 33.24564551816455 23.14
    vertex -138.174360636721 33.60839301942973 23.14
    vertex -138.174360636721 33.24564551816455 23.14
  endloop
endfacet
facet normal 0.0 0.0 1.0
  outer loop
    vertex -138.174360636721 33.60839301942973 23.14
    vertex -136.6925120473991 33.24564551816455 23.14
    vertex -137.73362256106307 33.60839301942973 23.14
  endloop
endfacet
facet normal 0.0 0.0 1.0
  outer loop
    vertex -137.73362256106307 33.60839301942973 23.14
    vertex -136.6925120473991 33.24564551816455 23.14
    vertex -137.13325012305702 33.60839301942973 23.14
  endloop
endfacet
facet normal 0.0 0.0 1.0
  outer loop
    vertex -137.73362256106307 33.60839301942973 23.14
    vertex -137.13325012305702 33.60839301942973 23.14
    vertex -137.73362256106307 34.841767734763735 23.14
  endloop
endfacet
facet normal 0.0 0.0 1.0
  outer loop
    vertex -137.73362256106307 34.841767734763735 23.14
    vertex -137.13325012305702 33.60839301942973 23.14
    vertex -137.59939463849224 35.500148776008686 23.14
  endloop
endfacet
facet normal 0.0 0.0 1.0
  outer loop
    vertex -137.59939463849224 35.500148776008686 23.14
    vertex -137.13325012305702 33.60839301942973 23.14
    vertex -137.57401587457522 36.00257634432851 23.14
  endloop
endfacet
facet normal 0.0 0.0 1.0
  outer loop
    vertex -137.13325012305702 33.60839301942973 23.14
    vertex -136.6925120473991 33.24564551816455 23.14
    vertex -136.6925120473991 33.60839301942973 23.14
  endloop
endfacet
facet normal 0.0 0.0 1.0
  outer loop
    vertex -137.13325012305702 35.96629329144391 23.14
    vertex -137.57401587457522 36.00257634432851 23.14
    vertex -137.13325012305702 33.60839301942973 23.14
  endloop
endfacet
facet normal -1.0 0.0 0.0
  outer loop
    vertex -141.85547146668048 34.49438033597831 23.14
    vertex -141.85547146668048 33.24564551816455 23.0
    vertex -141.85547146668048 33.24564551816455 23.14
  endloop
endfacet
facet normal -1.0 0.0 0.0
  outer loop
    vertex -141.85547146668048 33.24564551816455 23.0
    vertex -141.85547146668048 34.49438033597831 23.14
    vertex -141.85547146668048 34.49438033597831 23.0
  endloop
endfacet
facet normal 0.0 -1.0 0.0
  outer loop
    vertex -141.2284471751825 33.24564551816455 23.14
    vertex -141.85547146668048 33.24564551816455 23.0
    vertex -141.2284471751825 33.24564551816455 23.0
  endloop
endfacet
facet normal 0.0 -1.0 0.0
  outer loop
    vertex -141.85547146668048 33.24564551816455 23.0
    vertex -141.2284471751825 33.24564551816455 23.14
    vertex -141.85547146668048 33.24564551816455 23.14
  endloop
endfacet
facet normal -1.0 0.0 0.0
  outer loop
    vertex -141.85547146668048 35.965463015634185 23.14
    vertex -141.85547146668048 34.907082765128116 23.0
    vertex -141.85547146668048 34.907082765128116 23.14
  endloop
endfacet
facet normal -1.0 0.0 0.0
  outer loop
    vertex -141.85547146668048 34.907082765128116 23.0
    vertex -141.85547146668048 35.965463015634185 23.14
    vertex -141.85547146668048 35.965463015634185 23.0
  endloop
endfacet
facet normal 1.0 0.0 0.0
  outer loop
    vertex -142.66493502943354 36.001718392658475 23.0
    vertex -142.66493502943354 34.907082765128116 23.14
    vertex -142.66493502943354 34.907082765128116 23.0
  endloop
endfacet
facet normal 1.0 0.0 0.0
  outer loop
    vertex -142.66493502943354 34.907082765128116 23.14
    vertex -142.66493502943354 36.001718392658475 23.0
    vertex -142.66493502943354 36.001718392658475 23.14
  endloop
endfacet
facet normal -0.9798435652057599 0.19976633281127754 0.0
  outer loop
    vertex -137.59939463849224 35.500148776008686 23.14
    vertex -137.73362256106307 34.841767734763735 23.0
    vertex -137.73362256106307 34.841767734763735 23.14
  endloop
endfacet
facet normal -0.9798435652057599 0.19976633281127754 0.0
  outer loop
    vertex -137.73362256106307 34.841767734763735 23.0
    vertex -137.59939463849224 35.500148776008686 23.14
    vertex -137.59939463849224 35.500148776008686 23.0
  endloop
endfacet
facet normal -0.05285317785727011 0.9986022940041684 0.0
  outer loop
    vertex -143.34994024831005 35.965463015634185 23.14
    vertex -142.66493502943354 36.001718392658475 23.0
    vertex -143.34994024831005 35.965463015634185 23.0
  endloop
endfacet
facet normal -0.05285317785727011 0.9986022940041684 0.0
  outer loop
    vertex -142.66493502943354 36.001718392658475 23.0
    vertex -143.34994024831005 35.965463015634185 23.14
    vertex -142.66493502943354 36.001718392658475 23.14
  endloop
endfacet
facet normal -0.9915544151345606 -0.12969133289144522 0.0
  outer loop
    vertex -143.34994024831005 35.965463015634185 23.14
    vertex -143.29373057599224 35.53571225652487 23.0
    vertex -143.29373057599224 35.53571225652487 23.14
  endloop
endfacet
facet normal -0.9915544151345606 -0.12969133289144522 0.0
  outer loop
    vertex -143.29373057599224 35.53571225652487 23.0
    vertex -143.34994024831005 35.965463015634185 23.14
    vertex -143.34994024831005 35.965463015634185 23.0
  endloop
endfacet
facet normal 0.0 -1.0 0.0
  outer loop
    vertex -142.66493502943354 33.24564551816455 23.14
    vertex -143.29373057599224 33.24564551816455 23.0
    vertex -142.66493502943354 33.24564551816455 23.0
  endloop
endfacet
facet normal 0.0 -1.0 0.0
  outer loop
    vertex -143.29373057599224 33.24564551816455 23.0
    vertex -142.66493502943354 33.24564551816455 23.14
    vertex -143.29373057599224 33.24564551816455 23.14
  endloop
endfacet
facet normal 1.0 0.0 0.0
  outer loop
    vertex -142.66493502943354 34.49438033597831 23.0
    vertex -142.66493502943354 33.24564551816455 23.14
    vertex -142.66493502943354 33.24564551816455 23.0
  endloop
endfacet
facet normal 1.0 0.0 0.0
  outer loop
    vertex -142.66493502943354 33.24564551816455 23.14
    vertex -142.66493502943354 34.49438033597831 23.0
    vertex -142.66493502943354 34.49438033597831 23.14
  endloop
endfacet
facet normal -1.0 0.0 0.0
  outer loop
    vertex -143.29373057599224 35.53571225652487 23.14
    vertex -143.29373057599224 33.24564551816455 23.0
    vertex -143.29373057599224 33.24564551816455 23.14
  endloop
endfacet
facet normal -1.0 0.0 0.0
  outer loop
    vertex -143.29373057599224 33.24564551816455 23.0
    vertex -143.29373057599224 35.53571225652487 23.14
    vertex -143.29373057599224 35.53571225652487 23.0
  endloop
endfacet
facet normal 0.0 0.0 1.0
  outer loop
    vertex -142.66493502943354 33.24564551816455 23.14
    vertex -143.29373057599224 35.53571225652487 23.14
    vertex -143.29373057599224 33.24564551816455 23.14
  endloop
endfacet
facet normal 0.0 0.0 1.0
  outer loop
    vertex -141.2284471751825 33.24564551816455 23.14
    vertex -141.85547146668048 34.49438033597831 23.14
    vertex -141.85547146668048 33.24564551816455 23.14
  endloop
endfacet
facet normal 0.0 0.0 1.0
  outer loop
    vertex -141.85547146668048 34.49438033597831 23.14
    vertex -141.2284471751825 33.24564551816455 23.14
    vertex -141.85547146668048 34.907082765128116 23.14
  endloop
endfacet
facet normal 0.0 0.0 1.0
  outer loop
    vertex -141.85547146668048 34.907082765128116 23.14
    vertex -141.2284471751825 33.24564551816455 23.14
    vertex -141.85547146668048 35.965463015634185 23.14
  endloop
endfacet
facet normal 0.0 0.0 1.0
  outer loop
    vertex -141.85547146668048 35.965463015634185 23.14
    vertex -141.2284471751825 33.24564551816455 23.14
    vertex -141.2284471751825 36.001718392658475 23.14
  endloop
endfacet
facet normal 0.0 0.0 1.0
  outer loop
    vertex -141.85547146668048 34.49438033597831 23.14
    vertex -142.66493502943354 34.907082765128116 23.14
    vertex -142.66493502943354 34.49438033597831 23.14
  endloop
endfacet
facet normal 0.0 0.0 1.0
  outer loop
    vertex -142.66493502943354 34.907082765128116 23.14
    vertex -141.85547146668048 34.49438033597831 23.14
    vertex -141.85547146668048 34.907082765128116 23.14
  endloop
endfacet
facet normal 0.0 0.0 1.0
  outer loop
    vertex -143.29373057599224 35.53571225652487 23.14
    vertex -142.66493502943354 36.001718392658475 23.14
    vertex -143.34994024831005 35.965463015634185 23.14
  endloop
endfacet
facet normal 0.0 0.0 1.0
  outer loop
    vertex -142.66493502943354 36.001718392658475 23.14
    vertex -143.29373057599224 35.53571225652487 23.14
    vertex -142.66493502943354 33.24564551816455 23.14
  endloop
endfacet
facet normal 0.0 0.0 1.0
  outer loop
    vertex -142.66493502943354 36.001718392658475 23.14
    vertex -142.66493502943354 33.24564551816455 23.14
    vertex -142.66493502943354 34.49438033597831 23.14
  endloop
endfacet
facet normal 0.0 0.0 1.0
  outer loop
    vertex -142.66493502943354 36.001718392658475 23.14
    vertex -142.66493502943354 34.49438033597831 23.14
    vertex -142.66493502943354 34.907082765128116 23.14
  endloop
endfacet
facet normal -0.05772491218224346 0.9983325270237128 0.0
  outer loop
    vertex -141.85547146668048 35.965463015634185 23.14
    vertex -141.2284471751825 36.001718392658475 23.0
    vertex -141.85547146668048 35.965463015634185 23.0
  endloop
endfacet
facet normal -0.05772491218224346 0.9983325270237128 0.0
  outer loop
    vertex -141.2284471751825 36.001718392658475 23.0
    vertex -141.85547146668048 35.965463015634185 23.14
    vertex -141.2284471751825 36.001718392658475 23.14
  endloop
endfacet
facet normal 1.0 0.0 0.0
  outer loop
    vertex -141.2284471751825 36.001718392658475 23.0
    vertex -141.2284471751825 33.24564551816455 23.14
    vertex -141.2284471751825 33.24564551816455 23.0
  endloop
endfacet
facet normal 1.0 0.0 0.0
  outer loop
    vertex -141.2284471751825 33.24564551816455 23.14
    vertex -141.2284471751825 36.001718392658475 23.0
    vertex -141.2284471751825 36.001718392658475 23.14
  endloop
endfacet
facet normal 0.0 1.0 0.0
  outer loop
    vertex -142.66493502943354 34.907082765128116 23.14
    vertex -141.85547146668048 34.907082765128116 23.0
    vertex -142.66493502943354 34.907082765128116 23.0
  endloop
endfacet
facet normal 0.0 1.0 0.0
  outer loop
    vertex -141.85547146668048 34.907082765128116 23.0
    vertex -142.66493502943354 34.907082765128116 23.14
    vertex -141.85547146668048 34.907082765128116 23.14
  endloop
endfacet
facet normal 0.0 0.0 1.0
  outer loop
    vertex -139.14899373388695 34.52094916188924 23.14
    vertex -140.0806738958303 34.907082765128116 23.14
    vertex -140.0806738958303 34.52094916188924 23.14
  endloop
endfacet
facet normal 0.0 0.0 1.0
  outer loop
    vertex -140.0806738958303 34.907082765128116 23.14
    vertex -139.14899373388695 34.52094916188924 23.14
    vertex -139.14899373388695 34.907082765128116 23.14
  endloop
endfacet
facet normal 0.0 0.0 1.0
  outer loop
    vertex -140.0806738958303 33.24564551816455 23.14
    vertex -140.7165544626319 35.536431828893285 23.14
    vertex -140.7165544626319 33.24564551816455 23.14
  endloop
endfacet
facet normal 0.0 0.0 1.0
  outer loop
    vertex -140.7165544626319 35.536431828893285 23.14
    vertex -140.0806738958303 33.24564551816455 23.14
    vertex -140.10787926652867 35.55359086229411 23.14
  endloop
endfacet
facet normal 0.0 0.0 1.0
  outer loop
    vertex -140.10787926652867 35.55359086229411 23.14
    vertex -140.0806738958303 33.24564551816455 23.14
    vertex -140.0806738958303 35.30298594706131 23.14
  endloop
endfacet
facet normal 0.0 0.0 1.0
  outer loop
    vertex -140.0806738958303 35.30298594706131 23.14
    vertex -140.0806738958303 33.24564551816455 23.14
    vertex -140.0806738958303 34.52094916188924 23.14
  endloop
endfacet
facet normal 0.0 0.0 1.0
  outer loop
    vertex -140.0806738958303 35.30298594706131 23.14
    vertex -140.0806738958303 34.52094916188924 23.14
    vertex -140.0806738958303 34.907082765128116 23.14
  endloop
endfacet
facet normal 0.0 0.0 1.0
  outer loop
    vertex -140.7165544626319 35.536431828893285 23.14
    vertex -138.96301195251047 35.96629329144391 23.14
    vertex -140.78004288621491 35.96629329144391 23.14
  endloop
endfacet
facet normal 0.0 0.0 1.0
  outer loop
    vertex -138.96301195251047 35.96629329144391 23.14
    vertex -140.7165544626319 35.536431828893285 23.14
    vertex -140.10787926652867 35.55359086229411 23.14
  endloop
endfacet
facet normal 0.0 0.0 1.0
  outer loop
    vertex -138.96301195251047 35.96629329144391 23.14
    vertex -140.10787926652867 35.55359086229411 23.14
    vertex -139.01199822528372 35.55359086229411 23.14
  endloop
endfacet
facet normal -1.0 0.0 0.0
  outer loop
    vertex -137.73362256106307 34.841767734763735 23.14
    vertex -137.73362256106307 33.60839301942973 23.0
    vertex -137.73362256106307 33.60839301942973 23.14
  endloop
endfacet
facet normal -1.0 0.0 0.0
  outer loop
    vertex -137.73362256106307 33.60839301942973 23.0
    vertex -137.73362256106307 34.841767734763735 23.14
    vertex -137.73362256106307 34.841767734763735 23.0
  endloop
endfacet
facet normal -1.0 0.0 0.0
  outer loop
    vertex -140.7165544626319 35.536431828893285 23.14
    vertex -140.7165544626319 33.24564551816455 23.0
    vertex -140.7165544626319 33.24564551816455 23.14
  endloop
endfacet
facet normal -1.0 0.0 0.0
  outer loop
    vertex -140.7165544626319 33.24564551816455 23.0
    vertex -140.7165544626319 35.536431828893285 23.14
    vertex -140.7165544626319 35.536431828893285 23.0
  endloop
endfacet
facet normal 0.9930291603428016 -0.11786893869408703 0.0
  outer loop
    vertex -138.96301195251047 35.96629329144391 23.0
    vertex -139.01199822528372 35.55359086229411 23.14
    vertex -139.01199822528372 35.55359086229411 23.0
  endloop
endfacet
facet normal 0.9930291603428016 -0.11786893869408703 0.0
  outer loop
    vertex -139.01199822528372 35.55359086229411 23.14
    vertex -138.96301195251047 35.96629329144391 23.0
    vertex -138.96301195251047 35.96629329144391 23.14
  endloop
endfacet
facet normal 0.0 1.0 0.0
  outer loop
    vertex -140.78004288621491 35.96629329144391 23.14
    vertex -138.96301195251047 35.96629329144391 23.0
    vertex -140.78004288621491 35.96629329144391 23.0
  endloop
endfacet
facet normal 0.0 1.0 0.0
  outer loop
    vertex -138.96301195251047 35.96629329144391 23.0
    vertex -140.78004288621491 35.96629329144391 23.14
    vertex -138.96301195251047 35.96629329144391 23.14
  endloop
endfacet
facet normal 1.0 0.0 0.0
  outer loop
    vertex -137.13325012305702 35.96629329144391 23.0
    vertex -137.13325012305702 33.60839301942973 23.14
    vertex -137.13325012305702 33.60839301942973 23.0
  endloop
endfacet
facet normal 1.0 0.0 0.0
  outer loop
    vertex -137.13325012305702 33.60839301942973 23.14
    vertex -137.13325012305702 35.96629329144391 23.0
    vertex -137.13325012305702 35.96629329144391 23.14
  endloop
endfacet
facet normal 0.08204072522319912 0.9966289778071135 0.0
  outer loop
    vertex -137.57401587457522 36.00257634432851 23.14
    vertex -137.13325012305702 35.96629329144391 23.0
    vertex -137.57401587457522 36.00257634432851 23.0
  endloop
endfacet
facet normal 0.08204072522319912 0.9966289778071135 0.0
  outer loop
    vertex -137.13325012305702 35.96629329144391 23.0
    vertex -137.57401587457522 36.00257634432851 23.14
    vertex -137.13325012305702 35.96629329144391 23.14
  endloop
endfacet
facet normal -1.0 0.0 0.0
  outer loop
    vertex -138.174360636721 33.60839301942973 23.14
    vertex -138.174360636721 33.24564551816455 23.0
    vertex -138.174360636721 33.24564551816455 23.14
  endloop
endfacet
facet normal -1.0 0.0 0.0
  outer loop
    vertex -138.174360636721 33.24564551816455 23.0
    vertex -138.174360636721 33.60839301942973 23.14
    vertex -138.174360636721 33.60839301942973 23.0
  endloop
endfacet
facet normal 0.0 -1.0 0.0
  outer loop
    vertex -141.85547146668048 34.49438033597831 23.14
    vertex -142.66493502943354 34.49438033597831 23.0
    vertex -141.85547146668048 34.49438033597831 23.0
  endloop
endfacet
facet normal 0.0 -1.0 0.0
  outer loop
    vertex -142.66493502943354 34.49438033597831 23.0
    vertex -141.85547146668048 34.49438033597831 23.14
    vertex -142.66493502943354 34.49438033597831 23.14
  endloop
endfacet
facet normal 0.0 1.0 0.0
  outer loop
    vertex -138.174360636721 33.60839301942973 23.14
    vertex -137.73362256106307 33.60839301942973 23.0
    vertex -138.174360636721 33.60839301942973 23.0
  endloop
endfacet
facet normal 0.0 1.0 0.0
  outer loop
    vertex -137.73362256106307 33.60839301942973 23.0
    vertex -138.174360636721 33.60839301942973 23.14
    vertex -137.73362256106307 33.60839301942973 23.14
  endloop
endfacet
facet normal 0.661057950666046 -0.750334849158166 0.0
  outer loop
    vertex -138.0111284125307 35.00862549665645 23.14
    vertex -138.1634840236137 34.87439757408561 23.0
    vertex -138.0111284125307 35.00862549665645 23.0
  endloop
endfacet
facet normal 0.661057950666046 -0.750334849158166 0.0
  outer loop
    vertex -138.1634840236137 34.87439757408561 23.0
    vertex -138.0111284125307 35.00862549665645 23.14
    vertex -138.1634840236137 34.87439757408561 23.14
  endloop
endfacet
facet normal 1.0 0.0 0.0
  outer loop
    vertex -136.6925120473991 33.60839301942973 23.0
    vertex -136.6925120473991 33.24564551816455 23.14
    vertex -136.6925120473991 33.24564551816455 23.0
  endloop
endfacet
facet normal 1.0 0.0 0.0
  outer loop
    vertex -136.6925120473991 33.24564551816455 23.14
    vertex -136.6925120473991 33.60839301942973 23.0
    vertex -136.6925120473991 33.60839301942973 23.14
  endloop
endfacet
facet normal 0.9941590688690846 0.10792472277172972 0.0
  outer loop
    vertex -140.10787926652867 35.55359086229411 23.0
    vertex -140.0806738958303 35.30298594706131 23.14
    vertex -140.0806738958303 35.30298594706131 23.0
  endloop
endfacet
facet normal 0.9941590688690846 0.10792472277172972 0.0
  outer loop
    vertex -140.0806738958303 35.30298594706131 23.14
    vertex -140.10787926652867 35.55359086229411 23.0
    vertex -140.10787926652867 35.55359086229411 23.14
  endloop
endfacet
facet normal 0.0 -1.0 0.0
  outer loop
    vertex -136.6925120473991 33.24564551816455 23.14
    vertex -138.174360636721 33.24564551816455 23.0
    vertex -136.6925120473991 33.24564551816455 23.0
  endloop
endfacet
facet normal 0.0 -1.0 0.0
  outer loop
    vertex -138.174360636721 33.24564551816455 23.0
    vertex -136.6925120473991 33.24564551816455 23.14
    vertex -138.174360636721 33.24564551816455 23.14
  endloop
endfacet
facet normal 1.0 0.0 0.0
  outer loop
    vertex -140.0806738958303 34.52094916188924 23.0
    vertex -140.0806738958303 33.24564551816455 23.14
    vertex -140.0806738958303 33.24564551816455 23.0
  endloop
endfacet
facet normal 1.0 0.0 0.0
  outer loop
    vertex -140.0806738958303 33.24564551816455 23.14
    vertex -140.0806738958303 34.52094916188924 23.0
    vertex -140.0806738958303 34.52094916188924 23.14
  endloop
endfacet
facet normal 0.0 1.0 0.0
  outer loop
    vertex -140.0806738958303 34.907082765128116 23.14
    vertex -139.14899373388695 34.907082765128116 23.0
    vertex -140.0806738958303 34.907082765128116 23.0
  endloop
endfacet
facet normal 0.0 1.0 0.0
  outer loop
    vertex -139.14899373388695 34.907082765128116 23.0
    vertex -140.0806738958303 34.907082765128116 23.14
    vertex -139.14899373388695 34.907082765128116 23.14
  endloop
endfacet
facet normal 0.0 1.0 0.0
  outer loop
    vertex -137.13325012305702 33.60839301942973 23.14
    vertex -136.6925120473991 33.60839301942973 23.0
    vertex -137.13325012305702 33.60839301942973 23.0
  endloop
endfacet
facet normal 0.0 1.0 0.0
  outer loop
    vertex -136.6925120473991 33.60839301942973 23.0
    vertex -137.13325012305702 33.60839301942973 23.14
    vertex -136.6925120473991 33.60839301942973 23.14
  endloop
endfacet
facet normal 1.0 0.0 0.0
  outer loop
    vertex -139.14899373388695 34.907082765128116 23.0
    vertex -139.14899373388695 34.52094916188924 23.14
    vertex -139.14899373388695 34.52094916188924 23.0
  endloop
endfacet
facet normal 1.0 0.0 0.0
  outer loop
    vertex -139.14899373388695 34.52094916188924 23.14
    vertex -139.14899373388695 34.907082765128116 23.0
    vertex -139.14899373388695 34.907082765128116 23.14
  endloop
endfacet
facet normal -0.989268339793243 -0.14611006769802287 0.0
  outer loop
    vertex -140.78004288621491 35.96629329144391 23.14
    vertex -140.7165544626319 35.536431828893285 23.0
    vertex -140.7165544626319 35.536431828893285 23.14
  endloop
endfacet
facet normal -0.989268339793243 -0.14611006769802287 0.0
  outer loop
    vertex -140.7165544626319 35.536431828893285 23.0
    vertex -140.78004288621491 35.96629329144391 23.14
    vertex -140.78004288621491 35.96629329144391 23.0
  endloop
endfacet
facet normal -0.6732225084452419 0.7394399597821963 0.0
  outer loop
    vertex -138.44461541278372 35.209939704652406 23.14
    vertex -137.57401587457522 36.00257634432851 23.0
    vertex -138.44461541278372 35.209939704652406 23.0
  endloop
endfacet
facet normal -0.6732225084452419 0.7394399597821963 0.0
  outer loop
    vertex -137.57401587457522 36.00257634432851 23.0
    vertex -138.44461541278372 35.209939704652406 23.14
    vertex -137.57401587457522 36.00257634432851 23.14
  endloop
endfacet
facet normal 0.7665842223369491 -0.6421437767852735 0.0
  outer loop
    vertex -137.59939463849224 35.500148776008686 23.0
    vertex -138.0111284125307 35.00862549665645 23.14
    vertex -138.0111284125307 35.00862549665645 23.0
  endloop
endfacet
facet normal 0.7665842223369491 -0.6421437767852735 0.0
  outer loop
    vertex -138.0111284125307 35.00862549665645 23.14
    vertex -137.59939463849224 35.500148776008686 23.0
    vertex -137.59939463849224 35.500148776008686 23.14
  endloop
endfacet
facet normal 0.0 -1.0 0.0
  outer loop
    vertex -139.01199822528372 35.55359086229411 23.14
    vertex -140.10787926652867 35.55359086229411 23.0
    vertex -139.01199822528372 35.55359086229411 23.0
  endloop
endfacet
facet normal 0.0 -1.0 0.0
  outer loop
    vertex -140.10787926652867 35.55359086229411 23.0
    vertex -139.01199822528372 35.55359086229411 23.14
    vertex -140.10787926652867 35.55359086229411 23.14
  endloop
endfacet
facet normal -0.7665187988418811 -0.6422218705572085 0.0
  outer loop
    vertex -138.44461541278372 35.209939704652406 23.14
    vertex -138.1634840236137 34.87439757408561 23.0
    vertex -138.1634840236137 34.87439757408561 23.14
  endloop
endfacet
facet normal -0.7665187988418811 -0.6422218705572085 0.0
  outer loop
    vertex -138.1634840236137 34.87439757408561 23.0
    vertex -138.44461541278372 35.209939704652406 23.14
    vertex -138.44461541278372 35.209939704652406 23.0
  endloop
endfacet
facet normal 0.0 -1.0 0.0
  outer loop
    vertex -139.14899373388695 34.52094916188924 23.14
    vertex -140.0806738958303 34.52094916188924 23.0
    vertex -139.14899373388695 34.52094916188924 23.0
  endloop
endfacet
facet normal 0.0 -1.0 0.0
  outer loop
    vertex -140.0806738958303 34.52094916188924 23.0
    vertex -139.14899373388695 34.52094916188924 23.14
    vertex -140.0806738958303 34.52094916188924 23.14
  endloop
endfacet
facet normal 1.0 0.0 0.0
  outer loop
    vertex -140.0806738958303 35.30298594706131 23.0
    vertex -140.0806738958303 34.907082765128116 23.14
    vertex -140.0806738958303 34.907082765128116 23.0
  endloop
endfacet
facet normal 1.0 0.0 0.0
  outer loop
    vertex -140.0806738958303 34.907082765128116 23.14
    vertex -140.0806738958303 35.30298594706131 23.0
    vertex -140.0806738958303 35.30298594706131 23.14
  endloop
endfacet
endsolid RMP_Front
