solid RMP_Front
facet normal 1.0 0.0 0.0
  outer loop
    vertex -134.75170455223866 39.18359474246032 12.999999999999998
    vertex -134.75170455223866 29.98359474246033 22.440000000000005
    vertex -134.75170455223866 29.98359474246033 12.999999999999998
  endloop
endfacet
facet normal 1.0 0.0 0.0
  outer loop
    vertex -134.75170455223866 29.98359474246033 22.440000000000005
    vertex -134.75170455223866 39.18359474246032 12.999999999999998
    vertex -134.75170455223866 39.18359474246032 22.440000000000005
  endloop
endfacet
facet normal -1.0 0.0 0.0
  outer loop
    vertex -145.55170455223868 39.18359474246032 22.440000000000005
    vertex -145.55170455223868 29.98359474246033 12.999999999999998
    vertex -145.55170455223868 29.98359474246033 22.440000000000005
  endloop
endfacet
facet normal -1.0 0.0 0.0
  outer loop
    vertex -145.55170455223868 29.98359474246033 12.999999999999998
    vertex -145.55170455223868 39.18359474246032 22.440000000000005
    vertex -145.55170455223868 39.18359474246032 12.999999999999998
  endloop
endfacet
facet normal 0.0 0.0 1.0
  outer loop
    vertex -141.85547146668048 34.90708276512811 22.440000000000005
    vertex -142.66493502943354 36.001718392658475 22.440000000000005
    vertex -142.66493502943354 34.90708276512811 22.440000000000005
  endloop
endfacet
facet normal 0.0 0.0 1.0
  outer loop
    vertex -141.85547146668048 34.49438033597831 22.440000000000005
    vertex -142.66493502943354 34.49438033597831 22.440000000000005
    vertex -141.85547146668048 33.24564551816455 22.440000000000005
  endloop
endfacet
facet normal 0.0 0.0 1.0
  outer loop
    vertex -143.29373057599224 35.53571225652489 22.440000000000005
    vertex -143.34994024831005 35.9654630156342 22.440000000000005
    vertex -143.29373057599224 33.24564551816455 22.440000000000005
  endloop
endfacet
facet normal 0.0 0.0 1.0
  outer loop
    vertex -145.55170455223868 29.98359474246033 22.440000000000005
    vertex -143.29373057599224 33.24564551816455 22.440000000000005
    vertex -145.55170455223868 39.18359474246032 22.440000000000005
  endloop
endfacet
facet normal 0.0 0.0 1.0
  outer loop
    vertex -143.29373057599224 33.24564551816455 22.440000000000005
    vertex -145.55170455223868 29.98359474246033 22.440000000000005
    vertex -134.75170455223866 29.98359474246033 22.440000000000005
  endloop
endfacet
facet normal 0.0 0.0 1.0
  outer loop
    vertex -145.55170455223868 39.18359474246032 22.440000000000005
    vertex -143.29373057599224 33.24564551816455 22.440000000000005
    vertex -143.34994024831005 35.9654630156342 22.440000000000005
  endloop
endfacet
facet normal 0.0 0.0 1.0
  outer loop
    vertex -143.29373057599224 33.24564551816455 22.440000000000005
    vertex -134.75170455223866 29.98359474246033 22.440000000000005
    vertex -142.66493502943354 33.24564551816455 22.440000000000005
  endloop
endfacet
facet normal 0.0 0.0 1.0
  outer loop
    vertex -142.66493502943354 33.24564551816455 22.440000000000005
    vertex -134.75170455223866 29.98359474246033 22.440000000000005
    vertex -141.85547146668048 33.24564551816455 22.440000000000005
  endloop
endfacet
facet normal 0.0 0.0 1.0
  outer loop
    vertex -142.66493502943354 33.24564551816455 22.440000000000005
    vertex -141.85547146668048 33.24564551816455 22.440000000000005
    vertex -142.66493502943354 34.49438033597831 22.440000000000005
  endloop
endfacet
facet normal 0.0 0.0 1.0
  outer loop
    vertex -141.85547146668048 33.24564551816455 22.440000000000005
    vertex -134.75170455223866 29.98359474246033 22.440000000000005
    vertex -141.2284471751825 33.24564551816455 22.440000000000005
  endloop
endfacet
facet normal 0.0 0.0 1.0
  outer loop
    vertex -141.2284471751825 33.24564551816455 22.440000000000005
    vertex -134.75170455223866 29.98359474246033 22.440000000000005
    vertex -140.7165544626319 33.24564551816455 22.440000000000005
  endloop
endfacet
facet normal 0.0 0.0 1.0
  outer loop
    vertex -141.2284471751825 33.24564551816455 22.440000000000005
    vertex -140.7165544626319 33.24564551816455 22.440000000000005
    vertex -141.2284471751825 36.001718392658475 22.440000000000005
  endloop
endfacet
facet normal 0.0 0.0 1.0
  outer loop
    vertex -141.2284471751825 36.001718392658475 22.440000000000005
    vertex -140.7165544626319 33.24564551816455 22.440000000000005
    vertex -140.78004288621491 35.966293291443904 22.440000000000005
  endloop
endfacet
facet normal 0.0 0.0 1.0
  outer loop
    vertex -140.7165544626319 33.24564551816455 22.440000000000005
    vertex -134.75170455223866 29.98359474246033 22.440000000000005
    vertex -140.0806738958303 33.24564551816455 22.440000000000005
  endloop
endfacet
facet normal 0.0 0.0 1.0
  outer loop
    vertex -140.0806738958303 33.24564551816455 22.440000000000005
    vertex -134.75170455223866 29.98359474246033 22.440000000000005
    vertex -140.0806738958303 34.52094916188924 22.440000000000005
  endloop
endfacet
facet normal 0.0 0.0 1.0
  outer loop
    vertex -140.0806738958303 34.52094916188924 22.440000000000005
    vertex -134.75170455223866 29.98359474246033 22.440000000000005
    vertex -138.174360636721 33.24564551816455 22.440000000000005
  endloop
endfacet
facet normal 0.0 0.0 1.0
  outer loop
    vertex -140.0806738958303 34.52094916188924 22.440000000000005
    vertex -138.174360636721 33.24564551816455 22.440000000000005
    vertex -139.14899373388695 34.52094916188924 22.440000000000005
  endloop
endfacet
facet normal 0.0 0.0 1.0
  outer loop
    vertex -139.14899373388695 34.52094916188924 22.440000000000005
    vertex -138.174360636721 33.24564551816455 22.440000000000005
    vertex -139.14899373388695 34.90708276512811 22.440000000000005
  endloop
endfacet
facet normal 0.0 0.0 1.0
  outer loop
    vertex -139.14899373388695 34.90708276512811 22.440000000000005
    vertex -138.174360636721 33.24564551816455 22.440000000000005
    vertex -139.01199822528372 35.55359086229411 22.440000000000005
  endloop
endfacet
facet normal 0.0 0.0 1.0
  outer loop
    vertex -139.01199822528372 35.55359086229411 22.440000000000005
    vertex -138.174360636721 33.24564551816455 22.440000000000005
    vertex -138.96301195251044 35.966293291443904 22.440000000000005
  endloop
endfacet
facet normal 0.0 0.0 1.0
  outer loop
    vertex -138.96301195251044 35.966293291443904 22.440000000000005
    vertex -138.174360636721 33.24564551816455 22.440000000000005
    vertex -138.44461541278378 35.20993970465239 22.44
  endloop
endfacet
facet normal 0.0 0.0 1.0
  outer loop
    vertex -138.174360636721 33.24564551816455 22.440000000000005
    vertex -134.75170455223866 29.98359474246033 22.440000000000005
    vertex -136.6925120473991 33.24564551816455 22.440000000000005
  endloop
endfacet
facet normal 0.0 0.0 1.0
  outer loop
    vertex -136.6925120473991 33.24564551816455 22.440000000000005
    vertex -134.75170455223866 29.98359474246033 22.440000000000005
    vertex -136.6925120473991 33.60839301942973 22.440000000000005
  endloop
endfacet
facet normal 0.0 0.0 1.0
  outer loop
    vertex -143.34994024831005 35.9654630156342 22.440000000000005
    vertex -134.75170455223866 39.18359474246032 22.440000000000005
    vertex -145.55170455223868 39.18359474246032 22.440000000000005
  endloop
endfacet
facet normal 0.0 0.0 1.0
  outer loop
    vertex -134.75170455223866 39.18359474246032 22.440000000000005
    vertex -143.34994024831005 35.9654630156342 22.440000000000005
    vertex -142.66493502943354 36.001718392658475 22.440000000000005
  endloop
endfacet
facet normal 0.0 0.0 1.0
  outer loop
    vertex -134.75170455223866 39.18359474246032 22.440000000000005
    vertex -142.66493502943354 36.001718392658475 22.440000000000005
    vertex -141.85547146668048 35.965463015634185 22.440000000000005
  endloop
endfacet
facet normal 0.0 0.0 1.0
  outer loop
    vertex -141.85547146668048 35.965463015634185 22.440000000000005
    vertex -142.66493502943354 36.001718392658475 22.440000000000005
    vertex -141.85547146668048 34.90708276512811 22.440000000000005
  endloop
endfacet
facet normal 0.0 0.0 1.0
  outer loop
    vertex -134.75170455223866 39.18359474246032 22.440000000000005
    vertex -141.85547146668048 35.965463015634185 22.440000000000005
    vertex -141.2284471751825 36.001718392658475 22.440000000000005
  endloop
endfacet
facet normal 0.0 0.0 1.0
  outer loop
    vertex -134.75170455223866 39.18359474246032 22.440000000000005
    vertex -141.2284471751825 36.001718392658475 22.440000000000005
    vertex -140.78004288621491 35.966293291443904 22.440000000000005
  endloop
endfacet
facet normal 0.0 0.0 1.0
  outer loop
    vertex -134.75170455223866 39.18359474246032 22.440000000000005
    vertex -140.78004288621491 35.966293291443904 22.440000000000005
    vertex -138.96301195251044 35.966293291443904 22.440000000000005
  endloop
endfacet
facet normal 0.0 0.0 1.0
  outer loop
    vertex -134.75170455223866 39.18359474246032 22.440000000000005
    vertex -138.96301195251044 35.966293291443904 22.440000000000005
    vertex -138.44461541278378 35.20993970465239 22.44
  endloop
endfacet
facet normal 0.0 0.0 1.0
  outer loop
    vertex -134.75170455223866 39.18359474246032 22.440000000000005
    vertex -138.44461541278378 35.20993970465239 22.44
    vertex -137.57401587457525 36.00257634432852 22.44
  endloop
endfacet
facet normal 0.0 0.0 1.0
  outer loop
    vertex -134.75170455223866 39.18359474246032 22.440000000000005
    vertex -137.57401587457525 36.00257634432852 22.44
    vertex -137.13325012305705 35.96629329144391 22.440000000000005
  endloop
endfacet
facet normal 0.0 0.0 1.0
  outer loop
    vertex -134.75170455223866 39.18359474246032 22.440000000000005
    vertex -137.13325012305705 35.96629329144391 22.440000000000005
    vertex -137.13325012305702 33.60839301942973 22.440000000000005
  endloop
endfacet
facet normal 0.0 0.0 1.0
  outer loop
    vertex -134.75170455223866 39.18359474246032 22.440000000000005
    vertex -137.13325012305702 33.60839301942973 22.440000000000005
    vertex -136.6925120473991 33.60839301942973 22.440000000000005
  endloop
endfacet
facet normal 0.0 0.0 1.0
  outer loop
    vertex -134.75170455223866 39.18359474246032 22.440000000000005
    vertex -136.6925120473991 33.60839301942973 22.440000000000005
    vertex -134.75170455223866 29.98359474246033 22.440000000000005
  endloop
endfacet
facet normal 0.0 0.0 1.0
  outer loop
    vertex -138.44461541278378 35.20993970465239 22.44
    vertex -138.174360636721 33.60839301942973 22.440000000000005
    vertex -138.16348402361373 34.87439757408559 22.44
  endloop
endfacet
facet normal 0.0 0.0 1.0
  outer loop
    vertex -138.174360636721 33.60839301942973 22.440000000000005
    vertex -138.44461541278378 35.20993970465239 22.44
    vertex -138.174360636721 33.24564551816455 22.440000000000005
  endloop
endfacet
facet normal 0.0 0.0 1.0
  outer loop
    vertex -138.16348402361373 34.87439757408559 22.44
    vertex -138.174360636721 33.60839301942973 22.440000000000005
    vertex -137.73362256106307 33.60839301942973 22.440000000000005
  endloop
endfacet
facet normal 0.0 0.0 1.0
  outer loop
    vertex -138.16348402361373 34.87439757408559 22.44
    vertex -137.73362256106307 33.60839301942973 22.440000000000005
    vertex -138.01112841253072 35.008625496656435 22.44
  endloop
endfacet
facet normal 0.0 0.0 1.0
  outer loop
    vertex -138.01112841253072 35.008625496656435 22.44
    vertex -137.73362256106307 33.60839301942973 22.440000000000005
    vertex -137.7336225610631 34.84176773476375 22.440000000000005
  endloop
endfacet
facet normal 0.0 0.0 1.0
  outer loop
    vertex -137.59939463849227 35.500148776008686 22.440000000000005
    vertex -138.01112841253072 35.008625496656435 22.44
    vertex -137.7336225610631 34.84176773476375 22.440000000000005
  endloop
endfacet
facet normal 0.0 0.0 1.0
  outer loop
    vertex -139.14899373388695 34.90708276512811 22.440000000000005
    vertex -140.0806738958303 35.302985947061316 22.440000000000005
    vertex -140.0806738958303 34.90708276512811 22.440000000000005
  endloop
endfacet
facet normal 0.0 0.0 1.0
  outer loop
    vertex -140.0806738958303 35.302985947061316 22.440000000000005
    vertex -139.01199822528372 35.55359086229411 22.440000000000005
    vertex -140.10787926652867 35.5535908622941 22.440000000000005
  endloop
endfacet
facet normal 0.0 0.0 1.0
  outer loop
    vertex -139.01199822528372 35.55359086229411 22.440000000000005
    vertex -140.0806738958303 35.302985947061316 22.440000000000005
    vertex -139.14899373388695 34.90708276512811 22.440000000000005
  endloop
endfacet
facet normal 0.0 0.0 1.0
  outer loop
    vertex -140.7165544626319 35.53643182889329 22.440000000000005
    vertex -140.78004288621491 35.966293291443904 22.440000000000005
    vertex -140.7165544626319 33.24564551816455 22.440000000000005
  endloop
endfacet
facet normal 0.0 -1.0 0.0
  outer loop
    vertex -134.75170455223866 29.98359474246033 22.440000000000005
    vertex -145.55170455223868 29.98359474246033 12.999999999999998
    vertex -134.75170455223866 29.98359474246033 12.999999999999998
  endloop
endfacet
facet normal 0.0 -1.0 0.0
  outer loop
    vertex -145.55170455223868 29.98359474246033 12.999999999999998
    vertex -134.75170455223866 29.98359474246033 22.440000000000005
    vertex -145.55170455223868 29.98359474246033 22.440000000000005
  endloop
endfacet
facet normal 0.0 1.0 0.0
  outer loop
    vertex -145.55170455223868 39.18359474246032 22.440000000000005
    vertex -134.75170455223866 39.18359474246032 12.999999999999998
    vertex -145.55170455223868 39.18359474246032 12.999999999999998
  endloop
endfacet
facet normal 0.0 1.0 0.0
  outer loop
    vertex -134.75170455223866 39.18359474246032 12.999999999999998
    vertex -145.55170455223868 39.18359474246032 22.440000000000005
    vertex -134.75170455223866 39.18359474246032 22.440000000000005
  endloop
endfacet
facet normal 0.0 0.0 -1.0
  outer loop
    vertex -134.75170455223866 39.18359474246032 12.999999999999998
    vertex -145.55170455223868 29.98359474246033 12.999999999999998
    vertex -145.55170455223868 39.18359474246032 12.999999999999998
  endloop
endfacet
facet normal 0.0 0.0 -1.0
  outer loop
    vertex -145.55170455223868 29.98359474246033 12.999999999999998
    vertex -134.75170455223866 39.18359474246032 12.999999999999998
    vertex -134.75170455223866 29.98359474246033 12.999999999999998
  endloop
endfacet
facet normal -1.0 0.0 0.0
  outer loop
    vertex -141.85547146668048 34.49438033597831 23.0
    vertex -141.85547146668048 33.24564551816455 22.440000000000005
    vertex -141.85547146668048 33.24564551816455 23.0
  endloop
endfacet
facet normal -1.0 0.0 0.0
  outer loop
    vertex -141.85547146668048 33.24564551816455 22.440000000000005
    vertex -141.85547146668048 34.49438033597831 23.0
    vertex -141.85547146668048 34.49438033597831 22.440000000000005
  endloop
endfacet
facet normal 0.0 -1.0 0.0
  outer loop
    vertex -141.2284471751825 33.24564551816455 23.0
    vertex -141.85547146668048 33.24564551816455 22.440000000000005
    vertex -141.2284471751825 33.24564551816455 22.440000000000005
  endloop
endfacet
facet normal 0.0 -1.0 0.0
  outer loop
    vertex -141.85547146668048 33.24564551816455 22.440000000000005
    vertex -141.2284471751825 33.24564551816455 23.0
    vertex -141.85547146668048 33.24564551816455 23.0
  endloop
endfacet
facet normal 0.0 0.0 1.0
  outer loop
    vertex -142.66493502943354 33.24564551816455 23.0
    vertex -143.29373057599224 35.535712256524874 23.0
    vertex -143.29373057599224 33.24564551816455 23.0
  endloop
endfacet
facet normal 0.0 0.0 1.0
  outer loop
    vertex -141.2284471751825 33.24564551816455 23.0
    vertex -141.85547146668048 34.49438033597831 23.0
    vertex -141.85547146668048 33.24564551816455 23.0
  endloop
endfacet
facet normal 0.0 0.0 1.0
  outer loop
    vertex -141.85547146668048 34.49438033597831 23.0
    vertex -141.2284471751825 33.24564551816455 23.0
    vertex -141.85547146668048 34.90708276512811 23.0
  endloop
endfacet
facet normal 0.0 0.0 1.0
  outer loop
    vertex -141.85547146668048 34.90708276512811 23.0
    vertex -141.2284471751825 33.24564551816455 23.0
    vertex -141.85547146668048 35.965463015634185 23.0
  endloop
endfacet
facet normal 0.0 0.0 1.0
  outer loop
    vertex -141.85547146668048 35.965463015634185 23.0
    vertex -141.2284471751825 33.24564551816455 23.0
    vertex -141.2284471751825 36.001718392658475 23.0
  endloop
endfacet
facet normal 0.0 0.0 1.0
  outer loop
    vertex -141.85547146668048 34.49438033597831 23.0
    vertex -142.66493502943354 34.90708276512811 23.0
    vertex -142.66493502943354 34.49438033597831 23.0
  endloop
endfacet
facet normal 0.0 0.0 1.0
  outer loop
    vertex -142.66493502943354 34.90708276512811 23.0
    vertex -141.85547146668048 34.49438033597831 23.0
    vertex -141.85547146668048 34.90708276512811 23.0
  endloop
endfacet
facet normal 0.0 0.0 1.0
  outer loop
    vertex -143.29373057599224 35.535712256524874 23.0
    vertex -142.66493502943354 36.001718392658475 23.0
    vertex -143.34994024831005 35.965463015634185 23.0
  endloop
endfacet
facet normal 0.0 0.0 1.0
  outer loop
    vertex -142.66493502943354 36.001718392658475 23.0
    vertex -143.29373057599224 35.535712256524874 23.0
    vertex -142.66493502943354 33.24564551816455 23.0
  endloop
endfacet
facet normal 0.0 0.0 1.0
  outer loop
    vertex -142.66493502943354 36.001718392658475 23.0
    vertex -142.66493502943354 33.24564551816455 23.0
    vertex -142.66493502943354 34.49438033597831 23.0
  endloop
endfacet
facet normal 0.0 0.0 1.0
  outer loop
    vertex -142.66493502943354 36.001718392658475 23.0
    vertex -142.66493502943354 34.49438033597831 23.0
    vertex -142.66493502943354 34.90708276512811 23.0
  endloop
endfacet
facet normal 0.0 -1.0 0.0
  outer loop
    vertex -141.85547146668048 34.49438033597831 23.0
    vertex -142.66493502943354 34.49438033597831 22.440000000000005
    vertex -141.85547146668048 34.49438033597831 22.440000000000005
  endloop
endfacet
facet normal 0.0 -1.0 0.0
  outer loop
    vertex -142.66493502943354 34.49438033597831 22.440000000000005
    vertex -141.85547146668048 34.49438033597831 23.0
    vertex -142.66493502943354 34.49438033597831 23.0
  endloop
endfacet
facet normal 1.0 0.0 0.0
  outer loop
    vertex -142.66493502943354 34.49438033597831 22.440000000000005
    vertex -142.66493502943354 33.24564551816455 23.0
    vertex -142.66493502943354 33.24564551816455 22.440000000000005
  endloop
endfacet
facet normal 1.0 0.0 0.0
  outer loop
    vertex -142.66493502943354 33.24564551816455 23.0
    vertex -142.66493502943354 34.49438033597831 22.440000000000005
    vertex -142.66493502943354 34.49438033597831 23.0
  endloop
endfacet
facet normal 0.0 -1.0 0.0
  outer loop
    vertex -142.66493502943354 33.24564551816455 23.0
    vertex -143.29373057599224 33.24564551816455 22.440000000000005
    vertex -142.66493502943354 33.24564551816455 22.440000000000005
  endloop
endfacet
facet normal 0.0 -1.0 0.0
  outer loop
    vertex -143.29373057599224 33.24564551816455 22.440000000000005
    vertex -142.66493502943354 33.24564551816455 23.0
    vertex -143.29373057599224 33.24564551816455 23.0
  endloop
endfacet
facet normal -1.0 0.0 0.0
  outer loop
    vertex -143.29373057599224 35.535712256524874 23.0
    vertex -143.29373057599224 33.24564551816455 22.440000000000005
    vertex -143.29373057599224 33.24564551816455 23.0
  endloop
endfacet
facet normal -1.0 0.0 0.0
  outer loop
    vertex -143.29373057599224 33.24564551816455 22.440000000000005
    vertex -143.29373057599224 35.535712256524874 23.0
    vertex -143.29373057599224 35.53571225652489 22.440000000000005
  endloop
endfacet
facet normal -0.9915544151345604 -0.12969133289144605 -3.2686600901276335e-15
  outer loop
    vertex -143.34994024831005 35.965463015634185 23.0
    vertex -143.29373057599224 35.53571225652489 22.440000000000005
    vertex -143.29373057599224 35.535712256524874 23.0
  endloop
endfacet
facet normal -0.9915544151345604 -0.12969133289144605 -3.2686600901276335e-15
  outer loop
    vertex -143.29373057599224 35.53571225652489 22.440000000000005
    vertex -143.34994024831005 35.965463015634185 23.0
    vertex -143.34994024831005 35.9654630156342 22.440000000000005
  endloop
endfacet
facet normal -0.05285317785726603 0.9986022940041688 1.508353532691245e-14
  outer loop
    vertex -143.34994024831005 35.965463015634185 23.0
    vertex -142.66493502943354 36.001718392658475 22.440000000000005
    vertex -143.34994024831005 35.9654630156342 22.440000000000005
  endloop
endfacet
facet normal -0.05285317785726603 0.9986022940041688 1.508353532691245e-14
  outer loop
    vertex -142.66493502943354 36.001718392658475 22.440000000000005
    vertex -143.34994024831005 35.965463015634185 23.0
    vertex -142.66493502943354 36.001718392658475 23.0
  endloop
endfacet
facet normal 1.0 0.0 0.0
  outer loop
    vertex -142.66493502943354 36.001718392658475 22.440000000000005
    vertex -142.66493502943354 34.90708276512811 23.0
    vertex -142.66493502943354 34.90708276512811 22.440000000000005
  endloop
endfacet
facet normal 1.0 0.0 0.0
  outer loop
    vertex -142.66493502943354 34.90708276512811 23.0
    vertex -142.66493502943354 36.001718392658475 22.440000000000005
    vertex -142.66493502943354 36.001718392658475 23.0
  endloop
endfacet
facet normal 0.0 1.0 0.0
  outer loop
    vertex -142.66493502943354 34.90708276512811 23.0
    vertex -141.85547146668048 34.90708276512811 22.440000000000005
    vertex -142.66493502943354 34.90708276512811 22.440000000000005
  endloop
endfacet
facet normal 0.0 1.0 0.0
  outer loop
    vertex -141.85547146668048 34.90708276512811 22.440000000000005
    vertex -142.66493502943354 34.90708276512811 23.0
    vertex -141.85547146668048 34.90708276512811 23.0
  endloop
endfacet
facet normal -1.0 0.0 0.0
  outer loop
    vertex -141.85547146668048 35.965463015634185 23.0
    vertex -141.85547146668048 34.90708276512811 22.440000000000005
    vertex -141.85547146668048 34.90708276512811 23.0
  endloop
endfacet
facet normal -1.0 0.0 0.0
  outer loop
    vertex -141.85547146668048 34.90708276512811 22.440000000000005
    vertex -141.85547146668048 35.965463015634185 23.0
    vertex -141.85547146668048 35.965463015634185 22.440000000000005
  endloop
endfacet
facet normal -0.05772491218225243 0.9983325270237124 3.892084278001733e-29
  outer loop
    vertex -141.85547146668048 35.965463015634185 23.0
    vertex -141.2284471751825 36.001718392658475 22.440000000000005
    vertex -141.85547146668048 35.965463015634185 22.440000000000005
  endloop
endfacet
facet normal -0.05772491218225243 0.9983325270237124 3.892084278001733e-29
  outer loop
    vertex -141.2284471751825 36.001718392658475 22.440000000000005
    vertex -141.85547146668048 35.965463015634185 23.0
    vertex -141.2284471751825 36.001718392658475 23.0
  endloop
endfacet
facet normal 1.0 0.0 0.0
  outer loop
    vertex -141.2284471751825 36.001718392658475 22.440000000000005
    vertex -141.2284471751825 33.24564551816455 23.0
    vertex -141.2284471751825 33.24564551816455 22.440000000000005
  endloop
endfacet
facet normal 1.0 0.0 0.0
  outer loop
    vertex -141.2284471751825 33.24564551816455 23.0
    vertex -141.2284471751825 36.001718392658475 22.440000000000005
    vertex -141.2284471751825 36.001718392658475 23.0
  endloop
endfacet
facet normal 0.0 0.0 1.0
  outer loop
    vertex -139.14899373388695 34.52094916188924 23.0
    vertex -140.0806738958303 34.90708276512811 23.0
    vertex -140.0806738958303 34.52094916188924 23.0
  endloop
endfacet
facet normal 0.0 0.0 1.0
  outer loop
    vertex -140.0806738958303 34.90708276512811 23.0
    vertex -139.14899373388695 34.52094916188924 23.0
    vertex -139.14899373388695 34.90708276512811 23.0
  endloop
endfacet
facet normal 0.0 0.0 1.0
  outer loop
    vertex -140.0806738958303 33.24564551816455 23.0
    vertex -140.7165544626319 35.53643182889329 23.0
    vertex -140.7165544626319 33.24564551816455 23.0
  endloop
endfacet
facet normal 0.0 0.0 1.0
  outer loop
    vertex -140.7165544626319 35.53643182889329 23.0
    vertex -140.0806738958303 33.24564551816455 23.0
    vertex -140.10787926652867 35.5535908622941 23.0
  endloop
endfacet
facet normal 0.0 0.0 1.0
  outer loop
    vertex -140.10787926652867 35.5535908622941 23.0
    vertex -140.0806738958303 33.24564551816455 23.0
    vertex -140.0806738958303 35.30298594706131 23.0
  endloop
endfacet
facet normal 0.0 0.0 1.0
  outer loop
    vertex -140.0806738958303 35.30298594706131 23.0
    vertex -140.0806738958303 33.24564551816455 23.0
    vertex -140.0806738958303 34.52094916188924 23.0
  endloop
endfacet
facet normal 0.0 0.0 1.0
  outer loop
    vertex -140.0806738958303 35.30298594706131 23.0
    vertex -140.0806738958303 34.52094916188924 23.0
    vertex -140.0806738958303 34.90708276512811 23.0
  endloop
endfacet
facet normal 0.0 0.0 1.0
  outer loop
    vertex -140.7165544626319 35.53643182889329 23.0
    vertex -138.96301195251047 35.966293291443904 23.0
    vertex -140.78004288621491 35.966293291443904 23.0
  endloop
endfacet
facet normal 0.0 0.0 1.0
  outer loop
    vertex -138.96301195251047 35.966293291443904 23.0
    vertex -140.7165544626319 35.53643182889329 23.0
    vertex -140.10787926652867 35.5535908622941 23.0
  endloop
endfacet
facet normal 0.0 0.0 1.0
  outer loop
    vertex -138.96301195251047 35.966293291443904 23.0
    vertex -140.10787926652867 35.5535908622941 23.0
    vertex -139.01199822528372 35.5535908622941 23.0
  endloop
endfacet
facet normal 0.0 -1.0 0.0
  outer loop
    vertex -140.0806738958303 33.24564551816455 23.0
    vertex -140.7165544626319 33.24564551816455 22.440000000000005
    vertex -140.0806738958303 33.24564551816455 22.440000000000005
  endloop
endfacet
facet normal 0.0 -1.0 0.0
  outer loop
    vertex -140.7165544626319 33.24564551816455 22.440000000000005
    vertex -140.0806738958303 33.24564551816455 23.0
    vertex -140.7165544626319 33.24564551816455 23.0
  endloop
endfacet
facet normal 1.0 0.0 0.0
  outer loop
    vertex -140.0806738958303 34.52094916188924 22.440000000000005
    vertex -140.0806738958303 33.24564551816455 23.0
    vertex -140.0806738958303 33.24564551816455 22.440000000000005
  endloop
endfacet
facet normal 1.0 0.0 0.0
  outer loop
    vertex -140.0806738958303 33.24564551816455 23.0
    vertex -140.0806738958303 34.52094916188924 22.440000000000005
    vertex -140.0806738958303 34.52094916188924 23.0
  endloop
endfacet
facet normal 0.0 -1.0 0.0
  outer loop
    vertex -139.14899373388695 34.52094916188924 23.0
    vertex -140.0806738958303 34.52094916188924 22.440000000000005
    vertex -139.14899373388695 34.52094916188924 22.440000000000005
  endloop
endfacet
facet normal 0.0 -1.0 0.0
  outer loop
    vertex -140.0806738958303 34.52094916188924 22.440000000000005
    vertex -139.14899373388695 34.52094916188924 23.0
    vertex -140.0806738958303 34.52094916188924 23.0
  endloop
endfacet
facet normal 1.0 0.0 0.0
  outer loop
    vertex -139.14899373388695 34.90708276512811 22.440000000000005
    vertex -139.14899373388695 34.52094916188924 23.0
    vertex -139.14899373388695 34.52094916188924 22.440000000000005
  endloop
endfacet
facet normal 1.0 0.0 0.0
  outer loop
    vertex -139.14899373388695 34.52094916188924 23.0
    vertex -139.14899373388695 34.90708276512811 22.440000000000005
    vertex -139.14899373388695 34.90708276512811 23.0
  endloop
endfacet
facet normal 0.0 1.0 0.0
  outer loop
    vertex -140.0806738958303 34.90708276512811 23.0
    vertex -139.14899373388695 34.90708276512811 22.440000000000005
    vertex -140.0806738958303 34.90708276512811 22.440000000000005
  endloop
endfacet
facet normal 0.0 1.0 0.0
  outer loop
    vertex -139.14899373388695 34.90708276512811 22.440000000000005
    vertex -140.0806738958303 34.90708276512811 23.0
    vertex -139.14899373388695 34.90708276512811 23.0
  endloop
endfacet
facet normal 1.0 0.0 0.0
  outer loop
    vertex -140.0806738958303 35.302985947061316 22.440000000000005
    vertex -140.0806738958303 34.90708276512811 23.0
    vertex -140.0806738958303 34.90708276512811 22.440000000000005
  endloop
endfacet
facet normal 1.0 0.0 0.0
  outer loop
    vertex -140.0806738958303 34.90708276512811 23.0
    vertex -140.0806738958303 35.302985947061316 22.440000000000005
    vertex -140.0806738958303 35.30298594706131 23.0
  endloop
endfacet
facet normal 0.9941590688690843 0.10792472277173333 5.448699281273557e-16
  outer loop
    vertex -140.0806738958303 35.302985947061316 22.440000000000005
    vertex -140.10787926652867 35.5535908622941 23.0
    vertex -140.0806738958303 35.30298594706131 23.0
  endloop
endfacet
facet normal 0.9941590688690843 0.10792472277173333 5.448699281273557e-16
  outer loop
    vertex -140.10787926652867 35.5535908622941 23.0
    vertex -140.0806738958303 35.302985947061316 22.440000000000005
    vertex -140.10787926652867 35.5535908622941 22.440000000000005
  endloop
endfacet
facet normal 2.5732414161890805e-15 -1.0 -5.03565443312129e-15
  outer loop
    vertex -139.01199822528372 35.5535908622941 23.0
    vertex -140.10787926652867 35.5535908622941 22.440000000000005
    vertex -139.01199822528372 35.55359086229411 22.440000000000005
  endloop
endfacet
facet normal 2.5732414161890805e-15 -1.0 -5.03565443312129e-15
  outer loop
    vertex -140.10787926652867 35.5535908622941 22.440000000000005
    vertex -139.01199822528372 35.5535908622941 23.0
    vertex -140.10787926652867 35.5535908622941 23.0
  endloop
endfacet
facet normal 0.9930291603427983 -0.11786893869411456 1.9405468216728396e-14
  outer loop
    vertex -139.01199822528372 35.55359086229411 22.440000000000005
    vertex -138.96301195251047 35.966293291443904 23.0
    vertex -139.01199822528372 35.5535908622941 23.0
  endloop
endfacet
facet normal 0.9930291603427983 -0.11786893869411456 1.9405468216728396e-14
  outer loop
    vertex -138.96301195251047 35.966293291443904 23.0
    vertex -139.01199822528372 35.55359086229411 22.440000000000005
    vertex -138.96301195251044 35.966293291443904 22.440000000000005
  endloop
endfacet
facet normal 0.0 1.0 0.0
  outer loop
    vertex -140.78004288621491 35.966293291443904 23.0
    vertex -138.96301195251044 35.966293291443904 22.440000000000005
    vertex -140.78004288621491 35.966293291443904 22.440000000000005
  endloop
endfacet
facet normal 0.0 1.0 0.0
  outer loop
    vertex -138.96301195251044 35.966293291443904 22.440000000000005
    vertex -140.78004288621491 35.966293291443904 23.0
    vertex -138.96301195251047 35.966293291443904 23.0
  endloop
endfacet
facet normal -0.9892683397932424 -0.1461100676980266 -1.4820128598318442e-29
  outer loop
    vertex -140.78004288621491 35.966293291443904 23.0
    vertex -140.7165544626319 35.53643182889329 22.440000000000005
    vertex -140.7165544626319 35.53643182889329 23.0
  endloop
endfacet
facet normal -0.9892683397932424 -0.1461100676980266 -1.4820128598318442e-29
  outer loop
    vertex -140.7165544626319 35.53643182889329 22.440000000000005
    vertex -140.78004288621491 35.966293291443904 23.0
    vertex -140.78004288621491 35.966293291443904 22.440000000000005
  endloop
endfacet
facet normal -1.0 0.0 0.0
  outer loop
    vertex -140.7165544626319 35.53643182889329 23.0
    vertex -140.7165544626319 33.24564551816455 22.440000000000005
    vertex -140.7165544626319 33.24564551816455 23.0
  endloop
endfacet
facet normal -1.0 0.0 0.0
  outer loop
    vertex -140.7165544626319 33.24564551816455 22.440000000000005
    vertex -140.7165544626319 35.53643182889329 23.0
    vertex -140.7165544626319 35.53643182889329 22.440000000000005
  endloop
endfacet
facet normal -0.9798435652057589 0.19976633281128156 4.2495075741958157e-14
  outer loop
    vertex -137.59939463849224 35.50014877600868 23.0
    vertex -137.7336225610631 34.84176773476375 22.440000000000005
    vertex -137.73362256106307 34.84176773476374 23.0
  endloop
endfacet
facet normal -0.9798435652057589 0.19976633281128156 4.2495075741958157e-14
  outer loop
    vertex -137.7336225610631 34.84176773476375 22.440000000000005
    vertex -137.59939463849224 35.50014877600868 23.0
    vertex -137.59939463849227 35.500148776008686 22.440000000000005
  endloop
endfacet
facet normal 0.7665842223369528 -0.6421437767852691 -2.4438777755264358e-14
  outer loop
    vertex -137.59939463849227 35.500148776008686 22.440000000000005
    vertex -138.0111284125307 35.00862549665645 23.0
    vertex -138.01112841253072 35.008625496656435 22.44
  endloop
endfacet
facet normal 0.7665842223369528 -0.6421437767852691 -2.4438777755264358e-14
  outer loop
    vertex -138.0111284125307 35.00862549665645 23.0
    vertex -137.59939463849227 35.500148776008686 22.440000000000005
    vertex -137.59939463849224 35.50014877600868 23.0
  endloop
endfacet
facet normal 0.6610579506660538 -0.750334849158159 -7.732738486641974e-15
  outer loop
    vertex -138.0111284125307 35.00862549665645 23.0
    vertex -138.16348402361373 34.87439757408559 22.44
    vertex -138.01112841253072 35.008625496656435 22.44
  endloop
endfacet
facet normal 0.6610579506660538 -0.750334849158159 -7.732738486641974e-15
  outer loop
    vertex -138.16348402361373 34.87439757408559 22.44
    vertex -138.0111284125307 35.00862549665645 23.0
    vertex -138.1634840236137 34.874397574085606 23.0
  endloop
endfacet
facet normal -0.7665187988418711 -0.6422218705572205 6.249171990593217e-14
  outer loop
    vertex -138.1634840236137 34.874397574085606 23.0
    vertex -138.44461541278378 35.20993970465239 22.44
    vertex -138.16348402361373 34.87439757408559 22.44
  endloop
endfacet
facet normal -0.7665187988418711 -0.6422218705572205 6.249171990593217e-14
  outer loop
    vertex -138.44461541278378 35.20993970465239 22.44
    vertex -138.1634840236137 34.874397574085606 23.0
    vertex -138.44461541278372 35.209939704652406 23.0
  endloop
endfacet
facet normal -0.6732225084452437 0.7394399597821948 2.951979029648912e-14
  outer loop
    vertex -138.44461541278372 35.209939704652406 23.0
    vertex -137.57401587457525 36.00257634432852 22.44
    vertex -138.44461541278378 35.20993970465239 22.44
  endloop
endfacet
facet normal -0.6732225084452437 0.7394399597821948 2.951979029648912e-14
  outer loop
    vertex -137.57401587457525 36.00257634432852 22.44
    vertex -138.44461541278372 35.209939704652406 23.0
    vertex -137.57401587457522 36.00257634432852 23.0
  endloop
endfacet
facet normal 0.08204072522322021 0.9966289778071117 5.965416084813625e-17
  outer loop
    vertex -137.57401587457522 36.00257634432852 23.0
    vertex -137.13325012305705 35.96629329144391 22.440000000000005
    vertex -137.57401587457525 36.00257634432852 22.44
  endloop
endfacet
facet normal 0.08204072522322021 0.9966289778071117 5.965416084813625e-17
  outer loop
    vertex -137.13325012305705 35.96629329144391 22.440000000000005
    vertex -137.57401587457522 36.00257634432852 23.0
    vertex -137.13325012305702 35.966293291443904 23.0
  endloop
endfacet
facet normal 1.0 9.56772096264789e-15 -4.028523546497028e-14
  outer loop
    vertex -137.13325012305705 35.96629329144391 22.440000000000005
    vertex -137.13325012305702 33.60839301942973 23.0
    vertex -137.13325012305702 33.60839301942973 22.440000000000005
  endloop
endfacet
facet normal 1.0 9.56772096264789e-15 -4.028523546497028e-14
  outer loop
    vertex -137.13325012305702 33.60839301942973 23.0
    vertex -137.13325012305705 35.96629329144391 22.440000000000005
    vertex -137.13325012305702 35.966293291443904 23.0
  endloop
endfacet
facet normal 0.0 1.0 0.0
  outer loop
    vertex -137.13325012305702 33.60839301942973 23.0
    vertex -136.6925120473991 33.60839301942973 22.440000000000005
    vertex -137.13325012305702 33.60839301942973 22.440000000000005
  endloop
endfacet
facet normal 0.0 1.0 0.0
  outer loop
    vertex -136.6925120473991 33.60839301942973 22.440000000000005
    vertex -137.13325012305702 33.60839301942973 23.0
    vertex -136.6925120473991 33.60839301942973 23.0
  endloop
endfacet
facet normal 1.0 0.0 0.0
  outer loop
    vertex -136.6925120473991 33.60839301942973 22.440000000000005
    vertex -136.6925120473991 33.24564551816455 23.0
    vertex -136.6925120473991 33.24564551816455 22.440000000000005
  endloop
endfacet
facet normal 1.0 0.0 0.0
  outer loop
    vertex -136.6925120473991 33.24564551816455 23.0
    vertex -136.6925120473991 33.60839301942973 22.440000000000005
    vertex -136.6925120473991 33.60839301942973 23.0
  endloop
endfacet
facet normal 0.0 -1.0 0.0
  outer loop
    vertex -136.6925120473991 33.24564551816455 23.0
    vertex -138.174360636721 33.24564551816455 22.440000000000005
    vertex -136.6925120473991 33.24564551816455 22.440000000000005
  endloop
endfacet
facet normal 0.0 -1.0 0.0
  outer loop
    vertex -138.174360636721 33.24564551816455 22.440000000000005
    vertex -136.6925120473991 33.24564551816455 23.0
    vertex -138.174360636721 33.24564551816455 23.0
  endloop
endfacet
facet normal -1.0 0.0 0.0
  outer loop
    vertex -138.174360636721 33.60839301942973 23.0
    vertex -138.174360636721 33.24564551816455 22.440000000000005
    vertex -138.174360636721 33.24564551816455 23.0
  endloop
endfacet
facet normal -1.0 0.0 0.0
  outer loop
    vertex -138.174360636721 33.24564551816455 22.440000000000005
    vertex -138.174360636721 33.60839301942973 23.0
    vertex -138.174360636721 33.60839301942973 22.440000000000005
  endloop
endfacet
facet normal 0.0 1.0 0.0
  outer loop
    vertex -138.174360636721 33.60839301942973 23.0
    vertex -137.73362256106307 33.60839301942973 22.440000000000005
    vertex -138.174360636721 33.60839301942973 22.440000000000005
  endloop
endfacet
facet normal 0.0 1.0 0.0
  outer loop
    vertex -137.73362256106307 33.60839301942973 22.440000000000005
    vertex -138.174360636721 33.60839301942973 23.0
    vertex -137.73362256106307 33.60839301942973 23.0
  endloop
endfacet
facet normal -1.0 -9.145530380957167e-15 2.014261773248507e-14
  outer loop
    vertex -137.73362256106307 34.84176773476374 23.0
    vertex -137.73362256106307 33.60839301942973 22.440000000000005
    vertex -137.73362256106307 33.60839301942973 23.0
  endloop
endfacet
facet normal -1.0 -9.145530380957167e-15 2.014261773248507e-14
  outer loop
    vertex -137.73362256106307 33.60839301942973 22.440000000000005
    vertex -137.73362256106307 34.84176773476374 23.0
    vertex -137.7336225610631 34.84176773476375 22.440000000000005
  endloop
endfacet
facet normal 0.0 0.0 1.0
  outer loop
    vertex -138.1634840236137 34.874397574085606 23.0
    vertex -137.57401587457522 36.00257634432852 23.0
    vertex -138.44461541278372 35.209939704652406 23.0
  endloop
endfacet
facet normal 0.0 0.0 1.0
  outer loop
    vertex -137.57401587457522 36.00257634432852 23.0
    vertex -138.1634840236137 34.874397574085606 23.0
    vertex -138.0111284125307 35.00862549665645 23.0
  endloop
endfacet
facet normal 0.0 0.0 1.0
  outer loop
    vertex -137.57401587457522 36.00257634432852 23.0
    vertex -138.0111284125307 35.00862549665645 23.0
    vertex -137.59939463849224 35.50014877600868 23.0
  endloop
endfacet
facet normal 0.0 0.0 1.0
  outer loop
    vertex -136.6925120473991 33.24564551816455 23.0
    vertex -138.174360636721 33.60839301942973 23.0
    vertex -138.174360636721 33.24564551816455 23.0
  endloop
endfacet
facet normal 0.0 0.0 1.0
  outer loop
    vertex -138.174360636721 33.60839301942973 23.0
    vertex -136.6925120473991 33.24564551816455 23.0
    vertex -137.73362256106307 33.60839301942973 23.0
  endloop
endfacet
facet normal 0.0 0.0 1.0
  outer loop
    vertex -137.73362256106307 33.60839301942973 23.0
    vertex -136.6925120473991 33.24564551816455 23.0
    vertex -137.13325012305702 33.60839301942973 23.0
  endloop
endfacet
facet normal 0.0 0.0 1.0
  outer loop
    vertex -137.73362256106307 33.60839301942973 23.0
    vertex -137.13325012305702 33.60839301942973 23.0
    vertex -137.73362256106307 34.84176773476374 23.0
  endloop
endfacet
facet normal 0.0 0.0 1.0
  outer loop
    vertex -137.73362256106307 34.84176773476374 23.0
    vertex -137.13325012305702 33.60839301942973 23.0
    vertex -137.59939463849224 35.50014877600868 23.0
  endloop
endfacet
facet normal 0.0 0.0 1.0
  outer loop
    vertex -137.59939463849224 35.50014877600868 23.0
    vertex -137.13325012305702 33.60839301942973 23.0
    vertex -137.57401587457522 36.00257634432852 23.0
  endloop
endfacet
facet normal 0.0 0.0 1.0
  outer loop
    vertex -137.13325012305702 33.60839301942973 23.0
    vertex -136.6925120473991 33.24564551816455 23.0
    vertex -136.6925120473991 33.60839301942973 23.0
  endloop
endfacet
facet normal 0.0 0.0 1.0
  outer loop
    vertex -137.13325012305702 35.966293291443904 23.0
    vertex -137.57401587457522 36.00257634432852 23.0
    vertex -137.13325012305702 33.60839301942973 23.0
  endloop
endfacet
endsolid RMP_Front
