solid RMP_Front
facet normal -1.0 0.0 0.0
  outer loop
    vertex -147.05170455223868 40.183594742460336 16.000000000000007
    vertex -147.05170455223868 28.98359474246033 8.000000000000004
    vertex -147.05170455223868 28.98359474246033 16.000000000000007
  endloop
endfacet
facet normal -1.0 0.0 0.0
  outer loop
    vertex -147.05170455223868 28.98359474246033 8.000000000000004
    vertex -147.05170455223868 40.183594742460336 16.000000000000007
    vertex -147.05170455223868 40.183594742460336 8.000000000000004
  endloop
endfacet
facet normal 1.0 0.0 0.0
  outer loop
    vertex -133.25170455223866 40.183594742460336 8.000000000000004
    vertex -133.25170455223866 28.98359474246033 16.000000000000007
    vertex -133.25170455223866 28.98359474246033 8.000000000000004
  endloop
endfacet
facet normal 1.0 0.0 0.0
  outer loop
    vertex -133.25170455223866 28.98359474246033 16.000000000000007
    vertex -133.25170455223866 40.183594742460336 8.000000000000004
    vertex -133.25170455223866 40.183594742460336 16.000000000000007
  endloop
endfacet
facet normal 1.0 0.0 0.0
  outer loop
    vertex -134.0017045522387 39.933594742460336 16.000000000000007
    vertex -134.0017045522387 29.23359474246033 23.000000000000007
    vertex -134.0017045522387 29.23359474246033 16.000000000000007
  endloop
endfacet
facet normal 1.0 0.0 0.0
  outer loop
    vertex -134.0017045522387 29.23359474246033 23.000000000000007
    vertex -134.0017045522387 39.933594742460336 16.000000000000007
    vertex -134.0017045522387 39.933594742460336 23.000000000000007
  endloop
endfacet
facet normal -1.0 0.0 0.0
  outer loop
    vertex -146.30170455223868 39.933594742460336 23.000000000000007
    vertex -146.30170455223868 29.23359474246033 16.000000000000007
    vertex -146.30170455223868 29.23359474246033 23.000000000000007
  endloop
endfacet
facet normal -1.0 0.0 0.0
  outer loop
    vertex -146.30170455223868 29.23359474246033 16.000000000000007
    vertex -146.30170455223868 39.933594742460336 23.000000000000007
    vertex -146.30170455223868 39.933594742460336 16.000000000000007
  endloop
endfacet
facet normal 0.0 -1.0 0.0
  outer loop
    vertex -133.25170455223866 28.98359474246033 16.000000000000007
    vertex -147.05170455223868 28.98359474246033 8.000000000000004
    vertex -133.25170455223866 28.98359474246033 8.000000000000004
  endloop
endfacet
facet normal 0.0 -1.0 0.0
  outer loop
    vertex -147.05170455223868 28.98359474246033 8.000000000000004
    vertex -133.25170455223866 28.98359474246033 16.000000000000007
    vertex -147.05170455223868 28.98359474246033 16.000000000000007
  endloop
endfacet
facet normal 0.0 0.0 -1.0
  outer loop
    vertex -147.05170455223868 40.183594742460336 8.000000000000004
    vertex -145.55170455223868 39.18359474246032 8.000000000000004
    vertex -147.05170455223868 28.98359474246033 8.000000000000004
  endloop
endfacet
facet normal 0.0 0.0 -1.0
  outer loop
    vertex -145.55170455223868 39.18359474246032 8.000000000000004
    vertex -147.05170455223868 40.183594742460336 8.000000000000004
    vertex -133.25170455223866 40.183594742460336 8.000000000000004
  endloop
endfacet
facet normal 0.0 0.0 -1.0
  outer loop
    vertex -145.55170455223868 39.18359474246032 8.000000000000004
    vertex -133.25170455223866 40.183594742460336 8.000000000000004
    vertex -134.75170455223866 39.18359474246032 8.000000000000004
  endloop
endfacet
facet normal 0.0 0.0 -1.0
  outer loop
    vertex -134.75170455223866 39.18359474246032 8.000000000000004
    vertex -133.25170455223866 40.183594742460336 8.000000000000004
    vertex -134.75170455223866 29.98359474246033 8.000000000000004
  endloop
endfacet
facet normal 0.0 0.0 -1.0
  outer loop
    vertex -147.05170455223868 28.98359474246033 8.000000000000004
    vertex -145.55170455223868 29.98359474246033 8.000000000000004
    vertex -133.25170455223866 28.98359474246033 8.000000000000004
  endloop
endfacet
facet normal 0.0 0.0 -1.0
  outer loop
    vertex -145.55170455223868 29.98359474246033 8.000000000000004
    vertex -147.05170455223868 28.98359474246033 8.000000000000004
    vertex -145.55170455223868 39.18359474246032 8.000000000000004
  endloop
endfacet
facet normal 0.0 0.0 -1.0
  outer loop
    vertex -133.25170455223866 28.98359474246033 8.000000000000004
    vertex -145.55170455223868 29.98359474246033 8.000000000000004
    vertex -134.75170455223866 29.98359474246033 8.000000000000004
  endloop
endfacet
facet normal 0.0 0.0 -1.0
  outer loop
    vertex -133.25170455223866 28.98359474246033 8.000000000000004
    vertex -134.75170455223866 29.98359474246033 8.000000000000004
    vertex -133.25170455223866 40.183594742460336 8.000000000000004
  endloop
endfacet
facet normal 0.0 0.0 1.0
  outer loop
    vertex -139.14899373388695 34.90708276512811 23.000000000000007
    vertex -140.0806738958303 35.30298594706131 23.000000000000007
    vertex -140.0806738958303 34.90708276512811 23.000000000000007
  endloop
endfacet
facet normal 0.0 0.0 1.0
  outer loop
    vertex -146.30170455223868 29.23359474246033 23.000000000000007
    vertex -143.29373057599224 33.24564551816455 23.000000000000007
    vertex -146.30170455223868 39.933594742460336 23.000000000000007
  endloop
endfacet
facet normal 0.0 0.0 1.0
  outer loop
    vertex -143.29373057599224 33.24564551816455 23.000000000000007
    vertex -146.30170455223868 29.23359474246033 23.000000000000007
    vertex -134.0017045522387 29.23359474246033 23.000000000000007
  endloop
endfacet
facet normal 0.0 0.0 1.0
  outer loop
    vertex -146.30170455223868 39.933594742460336 23.000000000000007
    vertex -143.29373057599224 33.24564551816455 23.000000000000007
    vertex -143.34994024831008 35.965463015634185 23.000000000000007
  endloop
endfacet
facet normal 0.0 0.0 1.0
  outer loop
    vertex -143.29373057599224 33.24564551816455 23.000000000000007
    vertex -134.0017045522387 29.23359474246033 23.000000000000007
    vertex -142.66493502943354 33.24564551816455 23.000000000000007
  endloop
endfacet
facet normal 0.0 0.0 1.0
  outer loop
    vertex -142.66493502943354 33.24564551816455 23.000000000000007
    vertex -134.0017045522387 29.23359474246033 23.000000000000007
    vertex -141.85547146668048 33.24564551816455 23.000000000000007
  endloop
endfacet
facet normal 0.0 0.0 1.0
  outer loop
    vertex -142.66493502943354 33.24564551816455 23.000000000000007
    vertex -141.85547146668048 33.24564551816455 23.000000000000007
    vertex -142.66493502943354 34.49438033597831 23.000000000000007
  endloop
endfacet
facet normal 0.0 0.0 1.0
  outer loop
    vertex -141.85547146668048 33.24564551816455 23.000000000000007
    vertex -134.0017045522387 29.23359474246033 23.000000000000007
    vertex -141.2284471751825 33.24564551816455 23.000000000000007
  endloop
endfacet
facet normal 0.0 0.0 1.0
  outer loop
    vertex -141.2284471751825 33.24564551816455 23.000000000000007
    vertex -134.0017045522387 29.23359474246033 23.000000000000007
    vertex -140.7165544626319 33.24564551816455 23.000000000000007
  endloop
endfacet
facet normal 0.0 0.0 1.0
  outer loop
    vertex -141.2284471751825 33.24564551816455 23.000000000000007
    vertex -140.7165544626319 33.24564551816455 23.000000000000007
    vertex -141.2284471751825 36.001718392658475 23.000000000000007
  endloop
endfacet
facet normal 0.0 0.0 1.0
  outer loop
    vertex -141.2284471751825 36.001718392658475 23.000000000000007
    vertex -140.7165544626319 33.24564551816455 23.000000000000007
    vertex -140.78004288621491 35.966293291443904 23.000000000000007
  endloop
endfacet
facet normal 0.0 0.0 1.0
  outer loop
    vertex -140.7165544626319 33.24564551816455 23.000000000000007
    vertex -134.0017045522387 29.23359474246033 23.000000000000007
    vertex -140.0806738958303 33.24564551816455 23.000000000000007
  endloop
endfacet
facet normal 0.0 0.0 1.0
  outer loop
    vertex -140.0806738958303 33.24564551816455 23.000000000000007
    vertex -134.0017045522387 29.23359474246033 23.000000000000007
    vertex -140.0806738958303 34.52094916188924 23.000000000000007
  endloop
endfacet
facet normal 0.0 0.0 1.0
  outer loop
    vertex -140.0806738958303 34.52094916188924 23.000000000000007
    vertex -134.0017045522387 29.23359474246033 23.000000000000007
    vertex -138.174360636721 33.24564551816455 23.000000000000007
  endloop
endfacet
facet normal 0.0 0.0 1.0
  outer loop
    vertex -140.0806738958303 34.52094916188924 23.000000000000007
    vertex -138.174360636721 33.24564551816455 23.000000000000007
    vertex -139.14899373388695 34.52094916188924 23.000000000000007
  endloop
endfacet
facet normal 0.0 0.0 1.0
  outer loop
    vertex -139.14899373388695 34.52094916188924 23.000000000000007
    vertex -138.174360636721 33.24564551816455 23.000000000000007
    vertex -139.14899373388695 34.90708276512811 23.000000000000007
  endloop
endfacet
facet normal 0.0 0.0 1.0
  outer loop
    vertex -139.14899373388695 34.90708276512811 23.000000000000007
    vertex -138.174360636721 33.24564551816455 23.000000000000007
    vertex -139.01199822528372 35.5535908622941 23.000000000000007
  endloop
endfacet
facet normal 0.0 0.0 1.0
  outer loop
    vertex -139.01199822528372 35.5535908622941 23.000000000000007
    vertex -138.174360636721 33.24564551816455 23.000000000000007
    vertex -138.96301195251047 35.966293291443904 23.000000000000007
  endloop
endfacet
facet normal 0.0 0.0 1.0
  outer loop
    vertex -138.96301195251047 35.966293291443904 23.000000000000007
    vertex -138.174360636721 33.24564551816455 23.000000000000007
    vertex -138.44461541278375 35.20993970465239 23.000000000000007
  endloop
endfacet
facet normal 0.0 0.0 1.0
  outer loop
    vertex -138.174360636721 33.24564551816455 23.000000000000007
    vertex -134.0017045522387 29.23359474246033 23.000000000000007
    vertex -136.6925120473991 33.24564551816455 23.000000000000007
  endloop
endfacet
facet normal 0.0 0.0 1.0
  outer loop
    vertex -136.6925120473991 33.24564551816455 23.000000000000007
    vertex -134.0017045522387 29.23359474246033 23.000000000000007
    vertex -136.6925120473991 33.60839301942973 23.000000000000007
  endloop
endfacet
facet normal 0.0 0.0 1.0
  outer loop
    vertex -143.34994024831008 35.965463015634185 23.000000000000007
    vertex -134.0017045522387 39.933594742460336 23.000000000000007
    vertex -146.30170455223868 39.933594742460336 23.000000000000007
  endloop
endfacet
facet normal 0.0 0.0 1.0
  outer loop
    vertex -134.0017045522387 39.933594742460336 23.000000000000007
    vertex -143.34994024831008 35.965463015634185 23.000000000000007
    vertex -142.66493502943354 36.001718392658475 23.000000000000007
  endloop
endfacet
facet normal 0.0 0.0 1.0
  outer loop
    vertex -134.0017045522387 39.933594742460336 23.000000000000007
    vertex -142.66493502943354 36.001718392658475 23.000000000000007
    vertex -141.85547146668048 35.965463015634185 23.000000000000007
  endloop
endfacet
facet normal 0.0 0.0 1.0
  outer loop
    vertex -141.85547146668048 35.965463015634185 23.000000000000007
    vertex -142.66493502943354 36.001718392658475 23.000000000000007
    vertex -141.85547146668048 34.90708276512811 23.000000000000007
  endloop
endfacet
facet normal 0.0 0.0 1.0
  outer loop
    vertex -134.0017045522387 39.933594742460336 23.000000000000007
    vertex -141.85547146668048 35.965463015634185 23.000000000000007
    vertex -141.2284471751825 36.001718392658475 23.000000000000007
  endloop
endfacet
facet normal 0.0 0.0 1.0
  outer loop
    vertex -134.0017045522387 39.933594742460336 23.000000000000007
    vertex -141.2284471751825 36.001718392658475 23.000000000000007
    vertex -140.78004288621491 35.966293291443904 23.000000000000007
  endloop
endfacet
facet normal 0.0 0.0 1.0
  outer loop
    vertex -134.0017045522387 39.933594742460336 23.000000000000007
    vertex -140.78004288621491 35.966293291443904 23.000000000000007
    vertex -138.96301195251047 35.966293291443904 23.000000000000007
  endloop
endfacet
facet normal 0.0 0.0 1.0
  outer loop
    vertex -134.0017045522387 39.933594742460336 23.000000000000007
    vertex -138.96301195251047 35.966293291443904 23.000000000000007
    vertex -138.44461541278375 35.20993970465239 23.000000000000007
  endloop
endfacet
facet normal 0.0 0.0 1.0
  outer loop
    vertex -134.0017045522387 39.933594742460336 23.000000000000007
    vertex -138.44461541278375 35.20993970465239 23.000000000000007
    vertex -137.57401587457525 36.002576344328524 23.000000000000007
  endloop
endfacet
facet normal 0.0 0.0 1.0
  outer loop
    vertex -134.0017045522387 39.933594742460336 23.000000000000007
    vertex -137.57401587457525 36.002576344328524 23.000000000000007
    vertex -137.13325012305702 35.96629329144391 23.000000000000007
  endloop
endfacet
facet normal 0.0 0.0 1.0
  outer loop
    vertex -134.0017045522387 39.933594742460336 23.000000000000007
    vertex -137.13325012305702 35.96629329144391 23.000000000000007
    vertex -137.13325012305702 33.60839301942973 23.000000000000007
  endloop
endfacet
facet normal 0.0 0.0 1.0
  outer loop
    vertex -134.0017045522387 39.933594742460336 23.000000000000007
    vertex -137.13325012305702 33.60839301942973 23.000000000000007
    vertex -136.6925120473991 33.60839301942973 23.000000000000007
  endloop
endfacet
facet normal 0.0 0.0 1.0
  outer loop
    vertex -134.0017045522387 39.933594742460336 23.000000000000007
    vertex -136.6925120473991 33.60839301942973 23.000000000000007
    vertex -134.0017045522387 29.23359474246033 23.000000000000007
  endloop
endfacet
facet normal 0.0 0.0 1.0
  outer loop
    vertex -138.44461541278375 35.20993970465239 23.000000000000007
    vertex -138.174360636721 33.60839301942973 23.000000000000007
    vertex -138.16348402361373 34.874397574085606 23.000000000000007
  endloop
endfacet
facet normal 0.0 0.0 1.0
  outer loop
    vertex -138.174360636721 33.60839301942973 23.000000000000007
    vertex -138.44461541278375 35.20993970465239 23.000000000000007
    vertex -138.174360636721 33.24564551816455 23.000000000000007
  endloop
endfacet
facet normal 0.0 0.0 1.0
  outer loop
    vertex -138.16348402361373 34.874397574085606 23.000000000000007
    vertex -138.174360636721 33.60839301942973 23.000000000000007
    vertex -137.73362256106304 33.60839301942973 23.000000000000007
  endloop
endfacet
facet normal 0.0 0.0 1.0
  outer loop
    vertex -138.16348402361373 34.874397574085606 23.000000000000007
    vertex -137.73362256106304 33.60839301942973 23.000000000000007
    vertex -138.01112841253075 35.008625496656386 23.000000000000007
  endloop
endfacet
facet normal 0.0 0.0 1.0
  outer loop
    vertex -138.01112841253075 35.008625496656386 23.000000000000007
    vertex -137.73362256106304 33.60839301942973 23.000000000000007
    vertex -137.73362256106307 34.841767734763756 23.000000000000007
  endloop
endfacet
facet normal 0.0 0.0 1.0
  outer loop
    vertex -137.59939463849224 35.50014877600869 23.000000000000007
    vertex -138.01112841253075 35.008625496656386 23.000000000000007
    vertex -137.73362256106307 34.841767734763756 23.000000000000007
  endloop
endfacet
facet normal 0.0 0.0 1.0
  outer loop
    vertex -140.0806738958303 35.30298594706131 23.000000000000007
    vertex -139.01199822528372 35.5535908622941 23.000000000000007
    vertex -140.1078792665287 35.553590862294115 23.000000000000007
  endloop
endfacet
facet normal 0.0 0.0 1.0
  outer loop
    vertex -139.01199822528372 35.5535908622941 23.000000000000007
    vertex -140.0806738958303 35.30298594706131 23.000000000000007
    vertex -139.14899373388695 34.90708276512811 23.000000000000007
  endloop
endfacet
facet normal 0.0 0.0 1.0
  outer loop
    vertex -140.7165544626319 35.53643182889329 23.000000000000007
    vertex -140.78004288621491 35.966293291443904 23.000000000000007
    vertex -140.7165544626319 33.24564551816455 23.000000000000007
  endloop
endfacet
facet normal 0.0 0.0 1.0
  outer loop
    vertex -141.85547146668048 34.90708276512811 23.000000000000007
    vertex -142.66493502943354 36.001718392658475 23.000000000000007
    vertex -142.66493502943354 34.90708276512811 23.000000000000007
  endloop
endfacet
facet normal 0.0 0.0 1.0
  outer loop
    vertex -141.85547146668048 34.49438033597831 23.000000000000007
    vertex -142.66493502943354 34.49438033597831 23.000000000000007
    vertex -141.85547146668048 33.24564551816455 23.000000000000007
  endloop
endfacet
facet normal 0.0 0.0 1.0
  outer loop
    vertex -143.29373057599224 35.535712256524874 23.000000000000007
    vertex -143.34994024831008 35.965463015634185 23.000000000000007
    vertex -143.29373057599224 33.24564551816455 23.000000000000007
  endloop
endfacet
facet normal 0.0 1.0 0.0
  outer loop
    vertex -147.05170455223868 40.183594742460336 16.000000000000007
    vertex -133.25170455223866 40.183594742460336 8.000000000000004
    vertex -147.05170455223868 40.183594742460336 8.000000000000004
  endloop
endfacet
facet normal 0.0 1.0 0.0
  outer loop
    vertex -133.25170455223866 40.183594742460336 8.000000000000004
    vertex -147.05170455223868 40.183594742460336 16.000000000000007
    vertex -133.25170455223866 40.183594742460336 16.000000000000007
  endloop
endfacet
facet normal -1.0 0.0 0.0
  outer loop
    vertex -134.75170455223866 39.18359474246032 12.999999999999998
    vertex -134.75170455223866 29.98359474246033 8.000000000000004
    vertex -134.75170455223866 29.98359474246033 12.999999999999998
  endloop
endfacet
facet normal -1.0 0.0 0.0
  outer loop
    vertex -134.75170455223866 29.98359474246033 8.000000000000004
    vertex -134.75170455223866 39.18359474246032 12.999999999999998
    vertex -134.75170455223866 39.18359474246032 8.000000000000004
  endloop
endfacet
facet normal 0.0 1.0 0.0
  outer loop
    vertex -145.55170455223868 29.98359474246033 12.999999999999998
    vertex -134.75170455223866 29.98359474246033 8.000000000000004
    vertex -145.55170455223868 29.98359474246033 8.000000000000004
  endloop
endfacet
facet normal 0.0 1.0 0.0
  outer loop
    vertex -134.75170455223866 29.98359474246033 8.000000000000004
    vertex -145.55170455223868 29.98359474246033 12.999999999999998
    vertex -134.75170455223866 29.98359474246033 12.999999999999998
  endloop
endfacet
facet normal 1.0 0.0 0.0
  outer loop
    vertex -145.55170455223868 39.18359474246032 8.000000000000004
    vertex -145.55170455223868 29.98359474246033 12.999999999999998
    vertex -145.55170455223868 29.98359474246033 8.000000000000004
  endloop
endfacet
facet normal 1.0 0.0 0.0
  outer loop
    vertex -145.55170455223868 29.98359474246033 12.999999999999998
    vertex -145.55170455223868 39.18359474246032 8.000000000000004
    vertex -145.55170455223868 39.18359474246032 12.999999999999998
  endloop
endfacet
facet normal 0.0 -1.0 0.0
  outer loop
    vertex -134.75170455223866 39.18359474246032 12.999999999999998
    vertex -145.55170455223868 39.18359474246032 8.000000000000004
    vertex -134.75170455223866 39.18359474246032 8.000000000000004
  endloop
endfacet
facet normal 0.0 -1.0 0.0
  outer loop
    vertex -145.55170455223868 39.18359474246032 8.000000000000004
    vertex -134.75170455223866 39.18359474246032 12.999999999999998
    vertex -145.55170455223868 39.18359474246032 12.999999999999998
  endloop
endfacet
facet normal 0.0 -1.0 0.0
  outer loop
    vertex -134.0017045522387 29.23359474246033 23.000000000000007
    vertex -146.30170455223868 29.23359474246033 16.000000000000007
    vertex -134.0017045522387 29.23359474246033 16.000000000000007
  endloop
endfacet
facet normal 0.0 -1.0 0.0
  outer loop
    vertex -146.30170455223868 29.23359474246033 16.000000000000007
    vertex -134.0017045522387 29.23359474246033 23.000000000000007
    vertex -146.30170455223868 29.23359474246033 23.000000000000007
  endloop
endfacet
facet normal 0.0 0.0 1.0
  outer loop
    vertex -147.05170455223868 28.98359474246033 16.000000000000007
    vertex -146.30170455223868 29.23359474246033 16.000000000000007
    vertex -147.05170455223868 40.183594742460336 16.000000000000007
  endloop
endfacet
facet normal 0.0 0.0 1.0
  outer loop
    vertex -146.30170455223868 29.23359474246033 16.000000000000007
    vertex -147.05170455223868 28.98359474246033 16.000000000000007
    vertex -133.25170455223866 28.98359474246033 16.000000000000007
  endloop
endfacet
facet normal 0.0 0.0 1.0
  outer loop
    vertex -146.30170455223868 29.23359474246033 16.000000000000007
    vertex -133.25170455223866 28.98359474246033 16.000000000000007
    vertex -134.0017045522387 29.23359474246033 16.000000000000007
  endloop
endfacet
facet normal 0.0 0.0 1.0
  outer loop
    vertex -134.0017045522387 29.23359474246033 16.000000000000007
    vertex -133.25170455223866 28.98359474246033 16.000000000000007
    vertex -134.0017045522387 39.933594742460336 16.000000000000007
  endloop
endfacet
facet normal 0.0 0.0 1.0
  outer loop
    vertex -147.05170455223868 40.183594742460336 16.000000000000007
    vertex -146.30170455223868 39.933594742460336 16.000000000000007
    vertex -133.25170455223866 40.183594742460336 16.000000000000007
  endloop
endfacet
facet normal 0.0 0.0 1.0
  outer loop
    vertex -146.30170455223868 39.933594742460336 16.000000000000007
    vertex -147.05170455223868 40.183594742460336 16.000000000000007
    vertex -146.30170455223868 29.23359474246033 16.000000000000007
  endloop
endfacet
facet normal 0.0 0.0 1.0
  outer loop
    vertex -133.25170455223866 40.183594742460336 16.000000000000007
    vertex -146.30170455223868 39.933594742460336 16.000000000000007
    vertex -134.0017045522387 39.933594742460336 16.000000000000007
  endloop
endfacet
facet normal 0.0 0.0 1.0
  outer loop
    vertex -133.25170455223866 40.183594742460336 16.000000000000007
    vertex -134.0017045522387 39.933594742460336 16.000000000000007
    vertex -133.25170455223866 28.98359474246033 16.000000000000007
  endloop
endfacet
facet normal 0.0 1.0 0.0
  outer loop
    vertex -146.30170455223868 39.933594742460336 23.000000000000007
    vertex -134.0017045522387 39.933594742460336 16.000000000000007
    vertex -146.30170455223868 39.933594742460336 16.000000000000007
  endloop
endfacet
facet normal 0.0 1.0 0.0
  outer loop
    vertex -134.0017045522387 39.933594742460336 16.000000000000007
    vertex -146.30170455223868 39.933594742460336 23.000000000000007
    vertex -134.0017045522387 39.933594742460336 23.000000000000007
  endloop
endfacet
facet normal -1.0 0.0 0.0
  outer loop
    vertex -134.75170455223866 39.18359474246032 22.440000000000005
    vertex -134.75170455223866 29.98359474246033 12.999999999999998
    vertex -134.75170455223866 29.98359474246033 22.440000000000005
  endloop
endfacet
facet normal -1.0 0.0 0.0
  outer loop
    vertex -134.75170455223866 29.98359474246033 12.999999999999998
    vertex -134.75170455223866 39.18359474246032 22.440000000000005
    vertex -134.75170455223866 39.18359474246032 12.999999999999998
  endloop
endfacet
facet normal 1.0 0.0 0.0
  outer loop
    vertex -145.55170455223868 39.18359474246032 12.999999999999998
    vertex -145.55170455223868 29.98359474246033 22.440000000000005
    vertex -145.55170455223868 29.98359474246033 12.999999999999998
  endloop
endfacet
facet normal 1.0 0.0 0.0
  outer loop
    vertex -145.55170455223868 29.98359474246033 22.440000000000005
    vertex -145.55170455223868 39.18359474246032 12.999999999999998
    vertex -145.55170455223868 39.18359474246032 22.440000000000005
  endloop
endfacet
facet normal 0.0 0.0 -1.0
  outer loop
    vertex -139.14899373388695 34.52094916188924 22.440000000000005
    vertex -140.0806738958303 33.24564551816455 22.440000000000005
    vertex -140.0806738958303 34.52094916188924 22.440000000000005
  endloop
endfacet
facet normal 0.0 0.0 -1.0
  outer loop
    vertex -139.01199822528372 35.55359086229411 22.440000000000005
    vertex -140.0806738958303 35.302985947061316 22.440000000000005
    vertex -140.1078792665287 35.553590862294115 22.440000000000005
  endloop
endfacet
facet normal 0.0 0.0 -1.0
  outer loop
    vertex -140.0806738958303 35.302985947061316 22.440000000000005
    vertex -139.01199822528372 35.55359086229411 22.440000000000005
    vertex -140.0806738958303 34.90708276512811 22.440000000000005
  endloop
endfacet
facet normal 0.0 0.0 -1.0
  outer loop
    vertex -140.0806738958303 34.90708276512811 22.440000000000005
    vertex -139.01199822528372 35.55359086229411 22.440000000000005
    vertex -139.14899373388695 34.90708276512811 22.440000000000005
  endloop
endfacet
facet normal 0.0 0.0 -1.0
  outer loop
    vertex -139.14899373388695 34.90708276512811 22.440000000000005
    vertex -139.01199822528372 35.55359086229411 22.440000000000005
    vertex -139.14899373388695 34.52094916188924 22.440000000000005
  endloop
endfacet
facet normal 0.0 0.0 -1.0
  outer loop
    vertex -137.59939463849227 35.5001487760087 22.439999999999998
    vertex -137.7336225610631 34.84176773476377 22.440000000000005
    vertex -138.01112841253072 35.00862549665645 22.439999999999998
  endloop
endfacet
facet normal 0.0 0.0 -1.0
  outer loop
    vertex -138.16348402361373 34.874397574085584 22.440000000000005
    vertex -138.174360636721 33.60839301942973 22.440000000000005
    vertex -138.44461541278378 35.20993970465239 22.440000000000005
  endloop
endfacet
facet normal 0.0 0.0 -1.0
  outer loop
    vertex -138.174360636721 33.60839301942973 22.440000000000005
    vertex -138.16348402361373 34.874397574085584 22.440000000000005
    vertex -137.73362256106307 33.60839301942973 22.440000000000005
  endloop
endfacet
facet normal 0.0 0.0 -1.0
  outer loop
    vertex -137.73362256106307 33.60839301942973 22.440000000000005
    vertex -138.16348402361373 34.874397574085584 22.440000000000005
    vertex -138.01112841253072 35.00862549665645 22.439999999999998
  endloop
endfacet
facet normal 0.0 0.0 -1.0
  outer loop
    vertex -137.73362256106307 33.60839301942973 22.440000000000005
    vertex -138.01112841253072 35.00862549665645 22.439999999999998
    vertex -137.7336225610631 34.84176773476377 22.440000000000005
  endloop
endfacet
facet normal 0.0 0.0 -1.0
  outer loop
    vertex -145.55170455223868 39.18359474246032 22.440000000000005
    vertex -143.34994024831008 35.9654630156342 22.440000000000005
    vertex -145.55170455223868 29.98359474246033 22.440000000000005
  endloop
endfacet
facet normal 0.0 0.0 -1.0
  outer loop
    vertex -143.34994024831008 35.9654630156342 22.440000000000005
    vertex -145.55170455223868 39.18359474246032 22.440000000000005
    vertex -134.75170455223866 39.18359474246032 22.440000000000005
  endloop
endfacet
facet normal 0.0 0.0 -1.0
  outer loop
    vertex -143.34994024831008 35.9654630156342 22.440000000000005
    vertex -134.75170455223866 39.18359474246032 22.440000000000005
    vertex -142.66493502943354 36.001718392658475 22.440000000000005
  endloop
endfacet
facet normal 0.0 0.0 -1.0
  outer loop
    vertex -142.66493502943354 36.001718392658475 22.440000000000005
    vertex -134.75170455223866 39.18359474246032 22.440000000000005
    vertex -141.85547146668048 35.965463015634185 22.440000000000005
  endloop
endfacet
facet normal 0.0 0.0 -1.0
  outer loop
    vertex -142.66493502943354 36.001718392658475 22.440000000000005
    vertex -141.85547146668048 35.965463015634185 22.440000000000005
    vertex -142.66493502943354 34.90708276512811 22.440000000000005
  endloop
endfacet
facet normal 0.0 0.0 -1.0
  outer loop
    vertex -141.85547146668048 35.965463015634185 22.440000000000005
    vertex -134.75170455223866 39.18359474246032 22.440000000000005
    vertex -141.2284471751825 36.001718392658475 22.440000000000005
  endloop
endfacet
facet normal 0.0 0.0 -1.0
  outer loop
    vertex -141.2284471751825 36.001718392658475 22.440000000000005
    vertex -134.75170455223866 39.18359474246032 22.440000000000005
    vertex -140.7800428862149 35.96629329144392 22.440000000000005
  endloop
endfacet
facet normal 0.0 0.0 -1.0
  outer loop
    vertex -141.2284471751825 36.001718392658475 22.440000000000005
    vertex -140.7800428862149 35.96629329144392 22.440000000000005
    vertex -141.2284471751825 33.24564551816455 22.440000000000005
  endloop
endfacet
facet normal 0.0 0.0 -1.0
  outer loop
    vertex -140.7800428862149 35.96629329144392 22.440000000000005
    vertex -134.75170455223866 39.18359474246032 22.440000000000005
    vertex -138.96301195251039 35.96629329144392 22.440000000000005
  endloop
endfacet
facet normal 0.0 0.0 -1.0
  outer loop
    vertex -138.96301195251039 35.96629329144392 22.440000000000005
    vertex -134.75170455223866 39.18359474246032 22.440000000000005
    vertex -138.44461541278378 35.20993970465239 22.440000000000005
  endloop
endfacet
facet normal 0.0 0.0 -1.0
  outer loop
    vertex -138.44461541278378 35.20993970465239 22.440000000000005
    vertex -134.75170455223866 39.18359474246032 22.440000000000005
    vertex -137.57401587457528 36.002576344328524 22.440000000000005
  endloop
endfacet
facet normal 0.0 0.0 -1.0
  outer loop
    vertex -137.57401587457528 36.002576344328524 22.440000000000005
    vertex -134.75170455223866 39.18359474246032 22.440000000000005
    vertex -137.13325012305708 35.96629329144392 22.440000000000005
  endloop
endfacet
facet normal 0.0 0.0 -1.0
  outer loop
    vertex -137.13325012305708 35.96629329144392 22.440000000000005
    vertex -134.75170455223866 39.18359474246032 22.440000000000005
    vertex -137.13325012305702 33.60839301942973 22.440000000000005
  endloop
endfacet
facet normal 0.0 0.0 -1.0
  outer loop
    vertex -137.13325012305702 33.60839301942973 22.440000000000005
    vertex -134.75170455223866 39.18359474246032 22.440000000000005
    vertex -136.6925120473991 33.60839301942973 22.440000000000005
  endloop
endfacet
facet normal 0.0 0.0 -1.0
  outer loop
    vertex -136.6925120473991 33.60839301942973 22.440000000000005
    vertex -134.75170455223866 39.18359474246032 22.440000000000005
    vertex -136.6925120473991 33.24564551816455 22.440000000000005
  endloop
endfacet
facet normal 0.0 0.0 -1.0
  outer loop
    vertex -145.55170455223868 29.98359474246033 22.440000000000005
    vertex -143.29373057599224 33.24564551816455 22.440000000000005
    vertex -134.75170455223866 29.98359474246033 22.440000000000005
  endloop
endfacet
facet normal 0.0 0.0 -1.0
  outer loop
    vertex -143.29373057599224 33.24564551816455 22.440000000000005
    vertex -145.55170455223868 29.98359474246033 22.440000000000005
    vertex -143.34994024831008 35.9654630156342 22.440000000000005
  endloop
endfacet
facet normal 0.0 0.0 -1.0
  outer loop
    vertex -143.29373057599224 33.24564551816455 22.440000000000005
    vertex -143.34994024831008 35.9654630156342 22.440000000000005
    vertex -143.29373057599227 35.53571225652489 22.440000000000005
  endloop
endfacet
facet normal 0.0 0.0 -1.0
  outer loop
    vertex -134.75170455223866 29.98359474246033 22.440000000000005
    vertex -143.29373057599224 33.24564551816455 22.440000000000005
    vertex -142.66493502943354 33.24564551816455 22.440000000000005
  endloop
endfacet
facet normal 0.0 0.0 -1.0
  outer loop
    vertex -134.75170455223866 29.98359474246033 22.440000000000005
    vertex -142.66493502943354 33.24564551816455 22.440000000000005
    vertex -141.85547146668048 33.24564551816455 22.440000000000005
  endloop
endfacet
facet normal 0.0 0.0 -1.0
  outer loop
    vertex -141.85547146668048 33.24564551816455 22.440000000000005
    vertex -142.66493502943354 33.24564551816455 22.440000000000005
    vertex -141.85547146668048 34.49438033597831 22.440000000000005
  endloop
endfacet
facet normal 0.0 0.0 -1.0
  outer loop
    vertex -134.75170455223866 29.98359474246033 22.440000000000005
    vertex -141.85547146668048 33.24564551816455 22.440000000000005
    vertex -141.2284471751825 33.24564551816455 22.440000000000005
  endloop
endfacet
facet normal 0.0 0.0 -1.0
  outer loop
    vertex -134.75170455223866 29.98359474246033 22.440000000000005
    vertex -141.2284471751825 33.24564551816455 22.440000000000005
    vertex -140.7165544626319 33.24564551816455 22.440000000000005
  endloop
endfacet
facet normal 0.0 0.0 -1.0
  outer loop
    vertex -140.7165544626319 33.24564551816455 22.440000000000005
    vertex -141.2284471751825 33.24564551816455 22.440000000000005
    vertex -140.7800428862149 35.96629329144392 22.440000000000005
  endloop
endfacet
facet normal 0.0 0.0 -1.0
  outer loop
    vertex -140.7165544626319 33.24564551816455 22.440000000000005
    vertex -140.7800428862149 35.96629329144392 22.440000000000005
    vertex -140.7165544626319 35.53643182889329 22.440000000000005
  endloop
endfacet
facet normal 0.0 0.0 -1.0
  outer loop
    vertex -134.75170455223866 29.98359474246033 22.440000000000005
    vertex -140.7165544626319 33.24564551816455 22.440000000000005
    vertex -140.0806738958303 33.24564551816455 22.440000000000005
  endloop
endfacet
facet normal 0.0 0.0 -1.0
  outer loop
    vertex -134.75170455223866 29.98359474246033 22.440000000000005
    vertex -140.0806738958303 33.24564551816455 22.440000000000005
    vertex -138.174360636721 33.24564551816455 22.440000000000005
  endloop
endfacet
facet normal 0.0 0.0 -1.0
  outer loop
    vertex -138.174360636721 33.24564551816455 22.440000000000005
    vertex -140.0806738958303 33.24564551816455 22.440000000000005
    vertex -139.14899373388695 34.52094916188924 22.440000000000005
  endloop
endfacet
facet normal 0.0 0.0 -1.0
  outer loop
    vertex -138.174360636721 33.24564551816455 22.440000000000005
    vertex -139.14899373388695 34.52094916188924 22.440000000000005
    vertex -139.01199822528372 35.55359086229411 22.440000000000005
  endloop
endfacet
facet normal 0.0 0.0 -1.0
  outer loop
    vertex -138.174360636721 33.24564551816455 22.440000000000005
    vertex -139.01199822528372 35.55359086229411 22.440000000000005
    vertex -138.96301195251039 35.96629329144392 22.440000000000005
  endloop
endfacet
facet normal 0.0 0.0 -1.0
  outer loop
    vertex -138.174360636721 33.24564551816455 22.440000000000005
    vertex -138.96301195251039 35.96629329144392 22.440000000000005
    vertex -138.44461541278378 35.20993970465239 22.440000000000005
  endloop
endfacet
facet normal 0.0 0.0 -1.0
  outer loop
    vertex -138.174360636721 33.24564551816455 22.440000000000005
    vertex -138.44461541278378 35.20993970465239 22.440000000000005
    vertex -138.174360636721 33.60839301942973 22.440000000000005
  endloop
endfacet
facet normal 0.0 0.0 -1.0
  outer loop
    vertex -134.75170455223866 29.98359474246033 22.440000000000005
    vertex -138.174360636721 33.24564551816455 22.440000000000005
    vertex -136.6925120473991 33.24564551816455 22.440000000000005
  endloop
endfacet
facet normal 0.0 0.0 -1.0
  outer loop
    vertex -134.75170455223866 29.98359474246033 22.440000000000005
    vertex -136.6925120473991 33.24564551816455 22.440000000000005
    vertex -134.75170455223866 39.18359474246032 22.440000000000005
  endloop
endfacet
facet normal 0.0 0.0 -1.0
  outer loop
    vertex -141.85547146668048 34.90708276512811 22.440000000000005
    vertex -142.66493502943354 34.90708276512811 22.440000000000005
    vertex -141.85547146668048 35.965463015634185 22.440000000000005
  endloop
endfacet
facet normal 0.0 0.0 -1.0
  outer loop
    vertex -141.85547146668048 34.49438033597831 22.440000000000005
    vertex -142.66493502943354 33.24564551816455 22.440000000000005
    vertex -142.66493502943354 34.49438033597831 22.440000000000005
  endloop
endfacet
facet normal 0.0 1.0 0.0
  outer loop
    vertex -145.55170455223868 29.98359474246033 22.440000000000005
    vertex -134.75170455223866 29.98359474246033 12.999999999999998
    vertex -145.55170455223868 29.98359474246033 12.999999999999998
  endloop
endfacet
facet normal 0.0 1.0 0.0
  outer loop
    vertex -134.75170455223866 29.98359474246033 12.999999999999998
    vertex -145.55170455223868 29.98359474246033 22.440000000000005
    vertex -134.75170455223866 29.98359474246033 22.440000000000005
  endloop
endfacet
facet normal 0.0 -1.0 0.0
  outer loop
    vertex -134.75170455223866 39.18359474246032 22.440000000000005
    vertex -145.55170455223868 39.18359474246032 12.999999999999998
    vertex -134.75170455223866 39.18359474246032 12.999999999999998
  endloop
endfacet
facet normal 0.0 -1.0 0.0
  outer loop
    vertex -145.55170455223868 39.18359474246032 12.999999999999998
    vertex -134.75170455223866 39.18359474246032 22.440000000000005
    vertex -145.55170455223868 39.18359474246032 22.440000000000005
  endloop
endfacet
facet normal 1.0 0.0 0.0
  outer loop
    vertex -141.85547146668048 34.49438033597831 22.440000000000005
    vertex -141.85547146668048 33.24564551816455 23.000000000000007
    vertex -141.85547146668048 33.24564551816455 22.440000000000005
  endloop
endfacet
facet normal 1.0 0.0 0.0
  outer loop
    vertex -141.85547146668048 33.24564551816455 23.000000000000007
    vertex -141.85547146668048 34.49438033597831 22.440000000000005
    vertex -141.85547146668048 34.49438033597831 23.000000000000007
  endloop
endfacet
facet normal 0.0 1.0 0.0
  outer loop
    vertex -141.85547146668048 33.24564551816455 23.000000000000007
    vertex -141.2284471751825 33.24564551816455 22.440000000000005
    vertex -141.85547146668048 33.24564551816455 22.440000000000005
  endloop
endfacet
facet normal 0.0 1.0 0.0
  outer loop
    vertex -141.2284471751825 33.24564551816455 22.440000000000005
    vertex -141.85547146668048 33.24564551816455 23.000000000000007
    vertex -141.2284471751825 33.24564551816455 23.000000000000007
  endloop
endfacet
facet normal 0.0 1.0 0.0
  outer loop
    vertex -142.66493502943354 34.49438033597831 23.000000000000007
    vertex -141.85547146668048 34.49438033597831 22.440000000000005
    vertex -142.66493502943354 34.49438033597831 22.440000000000005
  endloop
endfacet
facet normal 0.0 1.0 0.0
  outer loop
    vertex -141.85547146668048 34.49438033597831 22.440000000000005
    vertex -142.66493502943354 34.49438033597831 23.000000000000007
    vertex -141.85547146668048 34.49438033597831 23.000000000000007
  endloop
endfacet
facet normal -1.0 0.0 0.0
  outer loop
    vertex -142.66493502943354 34.49438033597831 23.000000000000007
    vertex -142.66493502943354 33.24564551816455 22.440000000000005
    vertex -142.66493502943354 33.24564551816455 23.000000000000007
  endloop
endfacet
facet normal -1.0 0.0 0.0
  outer loop
    vertex -142.66493502943354 33.24564551816455 22.440000000000005
    vertex -142.66493502943354 34.49438033597831 23.000000000000007
    vertex -142.66493502943354 34.49438033597831 22.440000000000005
  endloop
endfacet
facet normal 0.0 1.0 0.0
  outer loop
    vertex -143.29373057599224 33.24564551816455 23.000000000000007
    vertex -142.66493502943354 33.24564551816455 22.440000000000005
    vertex -143.29373057599224 33.24564551816455 22.440000000000005
  endloop
endfacet
facet normal 0.0 1.0 0.0
  outer loop
    vertex -142.66493502943354 33.24564551816455 22.440000000000005
    vertex -143.29373057599224 33.24564551816455 23.000000000000007
    vertex -142.66493502943354 33.24564551816455 23.000000000000007
  endloop
endfacet
facet normal 1.0 4.925562098800629e-15 -2.0142617732484808e-14
  outer loop
    vertex -143.29373057599227 35.53571225652489 22.440000000000005
    vertex -143.29373057599224 33.24564551816455 23.000000000000007
    vertex -143.29373057599224 33.24564551816455 22.440000000000005
  endloop
endfacet
facet normal 1.0 4.925562098800629e-15 -2.0142617732484808e-14
  outer loop
    vertex -143.29373057599224 33.24564551816455 23.000000000000007
    vertex -143.29373057599227 35.53571225652489 22.440000000000005
    vertex -143.29373057599224 35.535712256524874 23.000000000000007
  endloop
endfacet
facet normal 0.9915544151345571 0.12969133289147164 -1.670177105243806e-14
  outer loop
    vertex -143.29373057599227 35.53571225652489 22.440000000000005
    vertex -143.34994024831008 35.965463015634185 23.000000000000007
    vertex -143.29373057599224 35.535712256524874 23.000000000000007
  endloop
endfacet
facet normal 0.9915544151345571 0.12969133289147164 -1.670177105243806e-14
  outer loop
    vertex -143.34994024831008 35.965463015634185 23.000000000000007
    vertex -143.29373057599227 35.53571225652489 22.440000000000005
    vertex -143.34994024831008 35.9654630156342 22.440000000000005
  endloop
endfacet
facet normal 0.052853177857260174 -0.998602294004169 -2.011602080977193e-14
  outer loop
    vertex -142.66493502943354 36.001718392658475 23.000000000000007
    vertex -143.34994024831008 35.9654630156342 22.440000000000005
    vertex -142.66493502943354 36.001718392658475 22.440000000000005
  endloop
endfacet
facet normal 0.052853177857260174 -0.998602294004169 -2.011602080977193e-14
  outer loop
    vertex -143.34994024831008 35.9654630156342 22.440000000000005
    vertex -142.66493502943354 36.001718392658475 23.000000000000007
    vertex -143.34994024831008 35.965463015634185 23.000000000000007
  endloop
endfacet
facet normal -1.0 0.0 0.0
  outer loop
    vertex -142.66493502943354 36.001718392658475 23.000000000000007
    vertex -142.66493502943354 34.90708276512811 22.440000000000005
    vertex -142.66493502943354 34.90708276512811 23.000000000000007
  endloop
endfacet
facet normal -1.0 0.0 0.0
  outer loop
    vertex -142.66493502943354 34.90708276512811 22.440000000000005
    vertex -142.66493502943354 36.001718392658475 23.000000000000007
    vertex -142.66493502943354 36.001718392658475 22.440000000000005
  endloop
endfacet
facet normal 0.0 -1.0 0.0
  outer loop
    vertex -141.85547146668048 34.90708276512811 23.000000000000007
    vertex -142.66493502943354 34.90708276512811 22.440000000000005
    vertex -141.85547146668048 34.90708276512811 22.440000000000005
  endloop
endfacet
facet normal 0.0 -1.0 0.0
  outer loop
    vertex -142.66493502943354 34.90708276512811 22.440000000000005
    vertex -141.85547146668048 34.90708276512811 23.000000000000007
    vertex -142.66493502943354 34.90708276512811 23.000000000000007
  endloop
endfacet
facet normal 1.0 0.0 0.0
  outer loop
    vertex -141.85547146668048 35.965463015634185 22.440000000000005
    vertex -141.85547146668048 34.90708276512811 23.000000000000007
    vertex -141.85547146668048 34.90708276512811 22.440000000000005
  endloop
endfacet
facet normal 1.0 0.0 0.0
  outer loop
    vertex -141.85547146668048 34.90708276512811 23.000000000000007
    vertex -141.85547146668048 35.965463015634185 22.440000000000005
    vertex -141.85547146668048 35.965463015634185 23.000000000000007
  endloop
endfacet
facet normal 0.05772491218225243 -0.9983325270237124 0.0
  outer loop
    vertex -141.2284471751825 36.001718392658475 23.000000000000007
    vertex -141.85547146668048 35.965463015634185 22.440000000000005
    vertex -141.2284471751825 36.001718392658475 22.440000000000005
  endloop
endfacet
facet normal 0.05772491218225243 -0.9983325270237124 0.0
  outer loop
    vertex -141.85547146668048 35.965463015634185 22.440000000000005
    vertex -141.2284471751825 36.001718392658475 23.000000000000007
    vertex -141.85547146668048 35.965463015634185 23.000000000000007
  endloop
endfacet
facet normal -1.0 0.0 0.0
  outer loop
    vertex -141.2284471751825 36.001718392658475 23.000000000000007
    vertex -141.2284471751825 33.24564551816455 22.440000000000005
    vertex -141.2284471751825 33.24564551816455 23.000000000000007
  endloop
endfacet
facet normal -1.0 0.0 0.0
  outer loop
    vertex -141.2284471751825 33.24564551816455 22.440000000000005
    vertex -141.2284471751825 36.001718392658475 23.000000000000007
    vertex -141.2284471751825 36.001718392658475 22.440000000000005
  endloop
endfacet
facet normal 0.0 1.0 0.0
  outer loop
    vertex -140.7165544626319 33.24564551816455 23.000000000000007
    vertex -140.0806738958303 33.24564551816455 22.440000000000005
    vertex -140.7165544626319 33.24564551816455 22.440000000000005
  endloop
endfacet
facet normal 0.0 1.0 0.0
  outer loop
    vertex -140.0806738958303 33.24564551816455 22.440000000000005
    vertex -140.7165544626319 33.24564551816455 23.000000000000007
    vertex -140.0806738958303 33.24564551816455 23.000000000000007
  endloop
endfacet
facet normal -1.0 0.0 0.0
  outer loop
    vertex -140.0806738958303 34.52094916188924 23.000000000000007
    vertex -140.0806738958303 33.24564551816455 22.440000000000005
    vertex -140.0806738958303 33.24564551816455 23.000000000000007
  endloop
endfacet
facet normal -1.0 0.0 0.0
  outer loop
    vertex -140.0806738958303 33.24564551816455 22.440000000000005
    vertex -140.0806738958303 34.52094916188924 23.000000000000007
    vertex -140.0806738958303 34.52094916188924 22.440000000000005
  endloop
endfacet
facet normal 0.0 1.0 0.0
  outer loop
    vertex -140.0806738958303 34.52094916188924 23.000000000000007
    vertex -139.14899373388695 34.52094916188924 22.440000000000005
    vertex -140.0806738958303 34.52094916188924 22.440000000000005
  endloop
endfacet
facet normal 0.0 1.0 0.0
  outer loop
    vertex -139.14899373388695 34.52094916188924 22.440000000000005
    vertex -140.0806738958303 34.52094916188924 23.000000000000007
    vertex -139.14899373388695 34.52094916188924 23.000000000000007
  endloop
endfacet
facet normal -1.0 0.0 0.0
  outer loop
    vertex -139.14899373388695 34.90708276512811 23.000000000000007
    vertex -139.14899373388695 34.52094916188924 22.440000000000005
    vertex -139.14899373388695 34.52094916188924 23.000000000000007
  endloop
endfacet
facet normal -1.0 0.0 0.0
  outer loop
    vertex -139.14899373388695 34.52094916188924 22.440000000000005
    vertex -139.14899373388695 34.90708276512811 23.000000000000007
    vertex -139.14899373388695 34.90708276512811 22.440000000000005
  endloop
endfacet
facet normal 0.0 -1.0 0.0
  outer loop
    vertex -139.14899373388695 34.90708276512811 23.000000000000007
    vertex -140.0806738958303 34.90708276512811 22.440000000000005
    vertex -139.14899373388695 34.90708276512811 22.440000000000005
  endloop
endfacet
facet normal 0.0 -1.0 0.0
  outer loop
    vertex -140.0806738958303 34.90708276512811 22.440000000000005
    vertex -139.14899373388695 34.90708276512811 23.000000000000007
    vertex -140.0806738958303 34.90708276512811 23.000000000000007
  endloop
endfacet
facet normal -1.0 0.0 0.0
  outer loop
    vertex -140.0806738958303 35.30298594706131 23.000000000000007
    vertex -140.0806738958303 34.90708276512811 22.440000000000005
    vertex -140.0806738958303 34.90708276512811 23.000000000000007
  endloop
endfacet
facet normal -1.0 0.0 0.0
  outer loop
    vertex -140.0806738958303 34.90708276512811 22.440000000000005
    vertex -140.0806738958303 35.30298594706131 23.000000000000007
    vertex -140.0806738958303 35.302985947061316 22.440000000000005
  endloop
endfacet
facet normal -0.9941590688690751 -0.10792472277181699 -5.446420666713441e-16
  outer loop
    vertex -140.1078792665287 35.553590862294115 23.000000000000007
    vertex -140.0806738958303 35.302985947061316 22.440000000000005
    vertex -140.0806738958303 35.30298594706131 23.000000000000007
  endloop
endfacet
facet normal -0.9941590688690751 -0.10792472277181699 -5.446420666713441e-16
  outer loop
    vertex -140.0806738958303 35.302985947061316 22.440000000000005
    vertex -140.1078792665287 35.553590862294115 23.000000000000007
    vertex -140.1078792665287 35.553590862294115 22.440000000000005
  endloop
endfacet
facet normal 7.719724248567083e-15 1.0 5.035654433121214e-15
  outer loop
    vertex -140.1078792665287 35.553590862294115 23.000000000000007
    vertex -139.01199822528372 35.55359086229411 22.440000000000005
    vertex -140.1078792665287 35.553590862294115 22.440000000000005
  endloop
endfacet
facet normal 7.719724248567083e-15 1.0 5.035654433121214e-15
  outer loop
    vertex -139.01199822528372 35.55359086229411 22.440000000000005
    vertex -140.1078792665287 35.553590862294115 23.000000000000007
    vertex -139.01199822528372 35.5535908622941 23.000000000000007
  endloop
endfacet
facet normal -0.9930291603427923 0.11786893869416573 -5.763178714556756e-14
  outer loop
    vertex -138.96301195251047 35.966293291443904 23.000000000000007
    vertex -139.01199822528372 35.55359086229411 22.440000000000005
    vertex -139.01199822528372 35.5535908622941 23.000000000000007
  endloop
endfacet
facet normal -0.9930291603427923 0.11786893869416573 -5.763178714556756e-14
  outer loop
    vertex -139.01199822528372 35.55359086229411 22.440000000000005
    vertex -138.96301195251047 35.966293291443904 23.000000000000007
    vertex -138.96301195251039 35.96629329144392 22.440000000000005
  endloop
endfacet
facet normal -1.7792264196603068e-31 -1.0 -3.021392659872728e-14
  outer loop
    vertex -138.96301195251047 35.966293291443904 23.000000000000007
    vertex -140.7800428862149 35.96629329144392 22.440000000000005
    vertex -138.96301195251039 35.96629329144392 22.440000000000005
  endloop
endfacet
facet normal -1.7792264196603068e-31 -1.0 -3.021392659872728e-14
  outer loop
    vertex -140.7800428862149 35.96629329144392 22.440000000000005
    vertex -138.96301195251047 35.966293291443904 23.000000000000007
    vertex -140.78004288621491 35.966293291443904 23.000000000000007
  endloop
endfacet
facet normal 0.9892683397932467 0.1461100676979984 2.2135955443130708e-14
  outer loop
    vertex -140.7800428862149 35.96629329144392 22.440000000000005
    vertex -140.7165544626319 35.53643182889329 23.000000000000007
    vertex -140.7165544626319 35.53643182889329 22.440000000000005
  endloop
endfacet
facet normal 0.9892683397932467 0.1461100676979984 2.2135955443130708e-14
  outer loop
    vertex -140.7165544626319 35.53643182889329 23.000000000000007
    vertex -140.7800428862149 35.96629329144392 22.440000000000005
    vertex -140.78004288621491 35.966293291443904 23.000000000000007
  endloop
endfacet
facet normal 1.0 0.0 0.0
  outer loop
    vertex -140.7165544626319 35.53643182889329 22.440000000000005
    vertex -140.7165544626319 33.24564551816455 23.000000000000007
    vertex -140.7165544626319 33.24564551816455 22.440000000000005
  endloop
endfacet
facet normal 1.0 0.0 0.0
  outer loop
    vertex -140.7165544626319 33.24564551816455 23.000000000000007
    vertex -140.7165544626319 35.53643182889329 22.440000000000005
    vertex -140.7165544626319 35.53643182889329 23.000000000000007
  endloop
endfacet
facet normal 0.9798435652057589 -0.1997663328112816 -4.2502413140439944e-14
  outer loop
    vertex -137.7336225610631 34.84176773476377 22.440000000000005
    vertex -137.59939463849224 35.50014877600869 23.000000000000007
    vertex -137.73362256106307 34.841767734763756 23.000000000000007
  endloop
endfacet
facet normal 0.9798435652057589 -0.1997663328112816 -4.2502413140439944e-14
  outer loop
    vertex -137.59939463849224 35.50014877600869 23.000000000000007
    vertex -137.7336225610631 34.84176773476377 22.440000000000005
    vertex -137.59939463849227 35.5001487760087 22.439999999999998
  endloop
endfacet
facet normal -0.7665842223369521 0.6421437767852697 2.3348284650457155e-14
  outer loop
    vertex -137.59939463849224 35.50014877600869 23.000000000000007
    vertex -138.01112841253072 35.00862549665645 22.439999999999998
    vertex -138.01112841253075 35.008625496656386 23.000000000000007
  endloop
endfacet
facet normal -0.7665842223369521 0.6421437767852697 2.3348284650457155e-14
  outer loop
    vertex -138.01112841253072 35.00862549665645 22.439999999999998
    vertex -137.59939463849224 35.50014877600869 23.000000000000007
    vertex -137.59939463849227 35.5001487760087 22.439999999999998
  endloop
endfacet
facet normal -0.6610579506660343 0.750334849158176 1.3141168310089833e-14
  outer loop
    vertex -138.16348402361373 34.874397574085584 22.440000000000005
    vertex -138.01112841253075 35.008625496656386 23.000000000000007
    vertex -138.01112841253072 35.00862549665645 22.439999999999998
  endloop
endfacet
facet normal -0.6610579506660343 0.750334849158176 1.3141168310089833e-14
  outer loop
    vertex -138.01112841253075 35.008625496656386 23.000000000000007
    vertex -138.16348402361373 34.874397574085584 22.440000000000005
    vertex -138.16348402361373 34.874397574085606 23.000000000000007
  endloop
endfacet
facet normal 0.7665187988418838 0.6422218705572054 -4.705082997290623e-14
  outer loop
    vertex -138.44461541278378 35.20993970465239 22.440000000000005
    vertex -138.16348402361373 34.874397574085606 23.000000000000007
    vertex -138.16348402361373 34.874397574085584 22.440000000000005
  endloop
endfacet
facet normal 0.7665187988418838 0.6422218705572054 -4.705082997290623e-14
  outer loop
    vertex -138.16348402361373 34.874397574085606 23.000000000000007
    vertex -138.44461541278378 35.20993970465239 22.440000000000005
    vertex -138.44461541278375 35.20993970465239 23.000000000000007
  endloop
endfacet
facet normal 0.6732225084452538 -0.7394399597821856 -2.3352055815346808e-14
  outer loop
    vertex -137.57401587457525 36.002576344328524 23.000000000000007
    vertex -138.44461541278378 35.20993970465239 22.440000000000005
    vertex -137.57401587457528 36.002576344328524 22.440000000000005
  endloop
endfacet
facet normal 0.6732225084452538 -0.7394399597821856 -2.3352055815346808e-14
  outer loop
    vertex -138.44461541278378 35.20993970465239 22.440000000000005
    vertex -137.57401587457525 36.002576344328524 23.000000000000007
    vertex -138.44461541278375 35.20993970465239 23.000000000000007
  endloop
endfacet
facet normal -0.08204072522322023 -0.9966289778071117 -5.999526360228214e-17
  outer loop
    vertex -137.13325012305702 35.96629329144391 23.000000000000007
    vertex -137.57401587457528 36.002576344328524 22.440000000000005
    vertex -137.13325012305708 35.96629329144392 22.440000000000005
  endloop
endfacet
facet normal -0.08204072522322023 -0.9966289778071117 -5.999526360228214e-17
  outer loop
    vertex -137.57401587457528 36.002576344328524 22.440000000000005
    vertex -137.13325012305702 35.96629329144391 23.000000000000007
    vertex -137.57401587457525 36.002576344328524 23.000000000000007
  endloop
endfacet
facet normal -1.0 -1.9135441925295722e-14 4.028523546496962e-14
  outer loop
    vertex -137.13325012305702 35.96629329144391 23.000000000000007
    vertex -137.13325012305702 33.60839301942973 22.440000000000005
    vertex -137.13325012305702 33.60839301942973 23.000000000000007
  endloop
endfacet
facet normal -1.0 -1.9135441925295722e-14 4.028523546496962e-14
  outer loop
    vertex -137.13325012305702 33.60839301942973 22.440000000000005
    vertex -137.13325012305702 35.96629329144391 23.000000000000007
    vertex -137.13325012305708 35.96629329144392 22.440000000000005
  endloop
endfacet
facet normal 0.0 -1.0 0.0
  outer loop
    vertex -136.6925120473991 33.60839301942973 23.000000000000007
    vertex -137.13325012305702 33.60839301942973 22.440000000000005
    vertex -136.6925120473991 33.60839301942973 22.440000000000005
  endloop
endfacet
facet normal 0.0 -1.0 0.0
  outer loop
    vertex -137.13325012305702 33.60839301942973 22.440000000000005
    vertex -136.6925120473991 33.60839301942973 23.000000000000007
    vertex -137.13325012305702 33.60839301942973 23.000000000000007
  endloop
endfacet
facet normal -1.0 0.0 0.0
  outer loop
    vertex -136.6925120473991 33.60839301942973 23.000000000000007
    vertex -136.6925120473991 33.24564551816455 22.440000000000005
    vertex -136.6925120473991 33.24564551816455 23.000000000000007
  endloop
endfacet
facet normal -1.0 0.0 0.0
  outer loop
    vertex -136.6925120473991 33.24564551816455 22.440000000000005
    vertex -136.6925120473991 33.60839301942973 23.000000000000007
    vertex -136.6925120473991 33.60839301942973 22.440000000000005
  endloop
endfacet
facet normal 0.0 1.0 0.0
  outer loop
    vertex -138.174360636721 33.24564551816455 23.000000000000007
    vertex -136.6925120473991 33.24564551816455 22.440000000000005
    vertex -138.174360636721 33.24564551816455 22.440000000000005
  endloop
endfacet
facet normal 0.0 1.0 0.0
  outer loop
    vertex -136.6925120473991 33.24564551816455 22.440000000000005
    vertex -138.174360636721 33.24564551816455 23.000000000000007
    vertex -136.6925120473991 33.24564551816455 23.000000000000007
  endloop
endfacet
facet normal 1.0 0.0 0.0
  outer loop
    vertex -138.174360636721 33.60839301942973 22.440000000000005
    vertex -138.174360636721 33.24564551816455 23.000000000000007
    vertex -138.174360636721 33.24564551816455 22.440000000000005
  endloop
endfacet
facet normal 1.0 0.0 0.0
  outer loop
    vertex -138.174360636721 33.24564551816455 23.000000000000007
    vertex -138.174360636721 33.60839301942973 22.440000000000005
    vertex -138.174360636721 33.60839301942973 23.000000000000007
  endloop
endfacet
facet normal 0.0 -1.0 0.0
  outer loop
    vertex -137.73362256106304 33.60839301942973 23.000000000000007
    vertex -138.174360636721 33.60839301942973 22.440000000000005
    vertex -137.73362256106307 33.60839301942973 22.440000000000005
  endloop
endfacet
facet normal 0.0 -1.0 0.0
  outer loop
    vertex -138.174360636721 33.60839301942973 22.440000000000005
    vertex -137.73362256106304 33.60839301942973 23.000000000000007
    vertex -138.174360636721 33.60839301942973 23.000000000000007
  endloop
endfacet
facet normal 1.0 1.8291060761913996e-14 -4.028523546496953e-14
  outer loop
    vertex -137.7336225610631 34.84176773476377 22.440000000000005
    vertex -137.73362256106304 33.60839301942973 23.000000000000007
    vertex -137.73362256106307 33.60839301942973 22.440000000000005
  endloop
endfacet
facet normal 1.0 1.8291060761913996e-14 -4.028523546496953e-14
  outer loop
    vertex -137.73362256106304 33.60839301942973 23.000000000000007
    vertex -137.7336225610631 34.84176773476377 22.440000000000005
    vertex -137.73362256106307 34.841767734763756 23.000000000000007
  endloop
endfacet
endsolid RMP_Front
