solid RMP_Front
facet normal 1.0 0.0 0.0
  outer loop
    vertex -103.05643003666951 39.26664861898641 12.999999999999998
    vertex -103.05643003666951 30.066648618986413 22.440000000000005
    vertex -103.05643003666951 30.066648618986413 12.999999999999998
  endloop
endfacet
facet normal 1.0 0.0 0.0
  outer loop
    vertex -103.05643003666951 30.066648618986413 22.440000000000005
    vertex -103.05643003666951 39.26664861898641 12.999999999999998
    vertex -103.05643003666951 39.26664861898641 22.440000000000005
  endloop
endfacet
facet normal -1.0 0.0 0.0
  outer loop
    vertex -113.85643003666951 39.26664861898641 22.440000000000005
    vertex -113.85643003666951 30.066648618986413 12.999999999999998
    vertex -113.85643003666951 30.066648618986413 22.440000000000005
  endloop
endfacet
facet normal -1.0 0.0 0.0
  outer loop
    vertex -113.85643003666951 30.066648618986413 12.999999999999998
    vertex -113.85643003666951 39.26664861898641 22.440000000000005
    vertex -113.85643003666951 39.26664861898641 12.999999999999998
  endloop
endfacet
facet normal 0.0 0.0 1.0
  outer loop
    vertex -110.21481111037079 34.84601906924347 22.440000000000005
    vertex -110.21481111037082 35.90439931974954 22.440000000000005
    vertex -111.02427467312383 34.84601906924347 22.440000000000005
  endloop
endfacet
facet normal 0.0 0.0 1.0
  outer loop
    vertex -110.21481111037079 34.43331664009367 22.440000000000005
    vertex -111.02427467312383 34.43331664009367 22.440000000000005
    vertex -110.21481111037079 33.1845818222799 22.440000000000005
  endloop
endfacet
facet normal 0.0 0.0 1.0
  outer loop
    vertex -111.65307021968253 35.47464856064023 22.440000000000005
    vertex -111.70927989200035 35.90439931974955 22.440000000000005
    vertex -111.65307021968253 33.1845818222799 22.440000000000005
  endloop
endfacet
facet normal 0.0 0.0 1.0
  outer loop
    vertex -107.50833337757726 34.84601906924347 22.440000000000005
    vertex -108.44001353952059 35.24192225117667 22.440000000000005
    vertex -108.44001353952059 34.84601906924347 22.440000000000005
  endloop
endfacet
facet normal 0.0 0.0 1.0
  outer loop
    vertex -106.68153088833132 33.811246327593686 22.440000000000005
    vertex -106.87106901775948 35.33026359733052 22.440000000000005
    vertex -106.87832009316432 33.52920163503294 22.440000000000005
  endloop
endfacet
facet normal 0.0 0.0 1.0
  outer loop
    vertex -106.87106901775948 35.33026359733052 22.440000000000005
    vertex -106.68153088833132 33.811246327593686 22.440000000000005
    vertex -106.44845863061374 35.17245584176372 22.440000000000005
  endloop
endfacet
facet normal 0.0 0.0 1.0
  outer loop
    vertex -106.44845863061374 35.17245584176372 22.440000000000005
    vertex -106.68153088833132 33.811246327593686 22.440000000000005
    vertex -106.45208416831613 34.1014415610198 22.440000000000005
  endloop
endfacet
facet normal 0.0 0.0 1.0
  outer loop
    vertex -106.44845863061374 35.17245584176372 22.440000000000005
    vertex -106.45208416831613 34.1014415610198 22.440000000000005
    vertex -106.22173798284042 34.370783033691865 22.440000000000005
  endloop
endfacet
facet normal 0.0 0.0 1.0
  outer loop
    vertex -106.44845863061374 35.17245584176372 22.440000000000005
    vertex -106.22173798284042 34.370783033691865 22.440000000000005
    vertex -106.35504568305551 35.325278482989674 22.44
  endloop
endfacet
facet normal 0.0 0.0 1.0
  outer loop
    vertex -106.35504568305551 35.325278482989674 22.44
    vertex -106.22173798284042 34.370783033691865 22.440000000000005
    vertex -106.24894335353882 35.442724455756625 22.44
  endloop
endfacet
facet normal 0.0 0.0 1.0
  outer loop
    vertex -106.24894335353882 35.442724455756625 22.44
    vertex -106.22173798284042 34.370783033691865 22.440000000000005
    vertex -106.12742556982172 35.517542684659695 22.440000000000005
  endloop
endfacet
facet normal 0.0 0.0 1.0
  outer loop
    vertex -106.12742556982172 35.517542684659695 22.440000000000005
    vertex -106.22173798284042 34.370783033691865 22.440000000000005
    vertex -106.0240493125469 34.590238768130114 22.44
  endloop
endfacet
facet normal 0.0 0.0 1.0
  outer loop
    vertex -106.12742556982172 35.517542684659695 22.440000000000005
    vertex -106.0240493125469 34.590238768130114 22.44
    vertex -105.9877662596623 35.54248209429407 22.440000000000005
  endloop
endfacet
facet normal 0.0 0.0 1.0
  outer loop
    vertex -105.9877662596623 35.54248209429407 22.440000000000005
    vertex -106.0240493125469 34.590238768130114 22.44
    vertex -105.85717771272401 34.76798698106027 22.44
  endloop
endfacet
facet normal 0.0 0.0 1.0
  outer loop
    vertex -105.9877662596623 35.54248209429407 22.440000000000005
    vertex -105.85717771272401 34.76798698106027 22.44
    vertex -105.85535110594265 35.51073788250256 22.440000000000005
  endloop
endfacet
facet normal 0.0 0.0 1.0
  outer loop
    vertex -105.85535110594265 35.51073788250256 22.440000000000005
    vertex -105.85717771272401 34.76798698106027 22.44
    vertex -105.74652962314913 34.90221490363111 22.440000000000005
  endloop
endfacet
facet normal 0.0 0.0 1.0
  outer loop
    vertex -105.85535110594265 35.51073788250256 22.440000000000005
    vertex -105.74652962314913 34.90221490363111 22.440000000000005
    vertex -105.75378069855398 35.42639569816552 22.440000000000005
  endloop
endfacet
facet normal 0.0 0.0 1.0
  outer loop
    vertex -105.75378069855398 35.42639569816552 22.440000000000005
    vertex -105.74652962314913 34.90221490363111 22.440000000000005
    vertex -105.68939280951048 35.30759706772525 22.44000000000001
  endloop
endfacet
facet normal 0.0 0.0 1.0
  outer loop
    vertex -105.68939280951048 35.30759706772525 22.44000000000001
    vertex -105.74652962314913 34.90221490363111 22.440000000000005
    vertex -105.68576727180805 35.026465678555205 22.440000000000005
  endloop
endfacet
facet normal 0.0 0.0 1.0
  outer loop
    vertex -105.68939280951048 35.30759706772525 22.44000000000001
    vertex -105.68576727180805 35.026465678555205 22.440000000000005
    vertex -105.66672627990519 35.17428244854509 22.440000000000005
  endloop
endfacet
facet normal 0.0 0.0 1.0
  outer loop
    vertex -105.04642722246594 33.547329323545085 22.440000000000005
    vertex -106.09931381469772 33.6888083215208 22.440000000000005
    vertex -106.21086136973314 33.547329323545085 22.440000000000005
  endloop
endfacet
facet normal 0.0 0.0 1.0
  outer loop
    vertex -106.09931381469772 33.6888083215208 22.440000000000005
    vertex -105.04642722246594 33.547329323545085 22.440000000000005
    vertex -105.93970712820985 33.87562037870704 22.440000000000005
  endloop
endfacet
facet normal 0.0 0.0 1.0
  outer loop
    vertex -105.93970712820985 33.87562037870704 22.440000000000005
    vertex -105.04642722246594 33.547329323545085 22.440000000000005
    vertex -105.75469400194467 34.089651644521815 22.440000000000005
  endloop
endfacet
facet normal 0.0 0.0 1.0
  outer loop
    vertex -105.75469400194467 34.089651644521815 22.440000000000005
    vertex -105.04642722246594 33.547329323545085 22.440000000000005
    vertex -105.56695480343757 34.310933985741435 22.44
  endloop
endfacet
facet normal 0.0 0.0 1.0
  outer loop
    vertex -105.56695480343757 34.310933985741435 22.44
    vertex -105.04642722246594 33.547329323545085 22.440000000000005
    vertex -105.39103319728879 34.517700338221196 22.44
  endloop
endfacet
facet normal 0.0 0.0 1.0
  outer loop
    vertex -105.39103319728879 34.517700338221196 22.44
    vertex -105.04642722246594 33.547329323545085 22.440000000000005
    vertex -105.23867758620581 34.7144895430542 22.440000000000005
  endloop
endfacet
facet normal 0.0 0.0 1.0
  outer loop
    vertex -105.23867758620581 34.7144895430542 22.440000000000005
    vertex -105.04642722246594 33.547329323545085 22.440000000000005
    vertex -105.1316688722635 34.92035643007343 22.440000000000005
  endloop
endfacet
facet normal 0.0 0.0 1.0
  outer loop
    vertex -105.1316688722635 34.92035643007343 22.440000000000005
    vertex -105.04642722246594 33.547329323545085 22.440000000000005
    vertex -105.09176028167644 35.154328153251576 22.440000000000005
  endloop
endfacet
facet normal 0.0 0.0 1.0
  outer loop
    vertex -113.85643003666951 30.066648618986413 22.440000000000005
    vertex -111.65307021968253 33.1845818222799 22.440000000000005
    vertex -113.85643003666951 39.26664861898641 22.440000000000005
  endloop
endfacet
facet normal 0.0 0.0 1.0
  outer loop
    vertex -111.65307021968253 33.1845818222799 22.440000000000005
    vertex -113.85643003666951 30.066648618986413 22.440000000000005
    vertex -103.05643003666951 30.066648618986413 22.440000000000005
  endloop
endfacet
facet normal 0.0 0.0 1.0
  outer loop
    vertex -113.85643003666951 39.26664861898641 22.440000000000005
    vertex -111.65307021968253 33.1845818222799 22.440000000000005
    vertex -111.70927989200035 35.90439931974955 22.440000000000005
  endloop
endfacet
facet normal 0.0 0.0 1.0
  outer loop
    vertex -111.65307021968253 33.1845818222799 22.440000000000005
    vertex -103.05643003666951 30.066648618986413 22.440000000000005
    vertex -111.02427467312383 33.1845818222799 22.440000000000005
  endloop
endfacet
facet normal 0.0 0.0 1.0
  outer loop
    vertex -111.02427467312383 33.1845818222799 22.440000000000005
    vertex -103.05643003666951 30.066648618986413 22.440000000000005
    vertex -110.21481111037079 33.1845818222799 22.440000000000005
  endloop
endfacet
facet normal 0.0 0.0 1.0
  outer loop
    vertex -111.02427467312383 33.1845818222799 22.440000000000005
    vertex -110.21481111037079 33.1845818222799 22.440000000000005
    vertex -111.02427467312383 34.43331664009367 22.440000000000005
  endloop
endfacet
facet normal 0.0 0.0 1.0
  outer loop
    vertex -110.21481111037079 33.1845818222799 22.440000000000005
    vertex -103.05643003666951 30.066648618986413 22.440000000000005
    vertex -109.58778681887281 33.1845818222799 22.440000000000005
  endloop
endfacet
facet normal 0.0 0.0 1.0
  outer loop
    vertex -109.58778681887281 33.1845818222799 22.440000000000005
    vertex -103.05643003666951 30.066648618986413 22.440000000000005
    vertex -109.07589410632221 33.1845818222799 22.440000000000005
  endloop
endfacet
facet normal 0.0 0.0 1.0
  outer loop
    vertex -109.58778681887281 33.1845818222799 22.440000000000005
    vertex -109.07589410632221 33.1845818222799 22.440000000000005
    vertex -109.13938252990519 35.90522959555926 22.440000000000005
  endloop
endfacet
facet normal 0.0 0.0 1.0
  outer loop
    vertex -109.07589410632221 33.1845818222799 22.440000000000005
    vertex -103.05643003666951 30.066648618986413 22.440000000000005
    vertex -108.44001353952059 33.1845818222799 22.440000000000005
  endloop
endfacet
facet normal 0.0 0.0 1.0
  outer loop
    vertex -108.44001353952059 33.1845818222799 22.440000000000005
    vertex -103.05643003666951 30.066648618986413 22.440000000000005
    vertex -106.87832009316432 33.1845818222799 22.440000000000005
  endloop
endfacet
facet normal 0.0 0.0 1.0
  outer loop
    vertex -108.44001353952059 33.1845818222799 22.440000000000005
    vertex -106.87832009316432 33.1845818222799 22.440000000000005
    vertex -108.44001353952059 34.4598854660046 22.440000000000005
  endloop
endfacet
facet normal 0.0 0.0 1.0
  outer loop
    vertex -108.44001353952059 34.4598854660046 22.440000000000005
    vertex -106.87832009316432 33.1845818222799 22.440000000000005
    vertex -107.50833337757726 34.4598854660046 22.440000000000005
  endloop
endfacet
facet normal 0.0 0.0 1.0
  outer loop
    vertex -107.50833337757726 34.4598854660046 22.440000000000005
    vertex -106.87832009316432 33.1845818222799 22.440000000000005
    vertex -107.50833337757726 34.84601906924347 22.440000000000005
  endloop
endfacet
facet normal 0.0 0.0 1.0
  outer loop
    vertex -107.50833337757726 34.84601906924347 22.440000000000005
    vertex -106.87832009316432 33.1845818222799 22.440000000000005
    vertex -107.371337868974 35.49252716640946 22.440000000000005
  endloop
endfacet
facet normal 0.0 0.0 1.0
  outer loop
    vertex -107.371337868974 35.49252716640946 22.440000000000005
    vertex -106.87832009316432 33.1845818222799 22.440000000000005
    vertex -107.32235159620073 35.90522959555926 22.440000000000005
  endloop
endfacet
facet normal 0.0 0.0 1.0
  outer loop
    vertex -106.87832009316432 33.1845818222799 22.440000000000005
    vertex -103.05643003666951 30.066648618986413 22.440000000000005
    vertex -105.04642722246594 33.1845818222799 22.440000000000005
  endloop
endfacet
facet normal 0.0 0.0 1.0
  outer loop
    vertex -105.04642722246594 33.1845818222799 22.440000000000005
    vertex -103.05643003666951 30.066648618986413 22.440000000000005
    vertex -105.04642722246594 33.547329323545085 22.440000000000005
  endloop
endfacet
facet normal 0.0 0.0 1.0
  outer loop
    vertex -111.70927989200035 35.90439931974955 22.440000000000005
    vertex -103.05643003666951 39.26664861898641 22.440000000000005
    vertex -113.85643003666951 39.26664861898641 22.440000000000005
  endloop
endfacet
facet normal 0.0 0.0 1.0
  outer loop
    vertex -103.05643003666951 39.26664861898641 22.440000000000005
    vertex -111.70927989200035 35.90439931974955 22.440000000000005
    vertex -111.02427467312384 35.940654696773834 22.440000000000005
  endloop
endfacet
facet normal 0.0 0.0 1.0
  outer loop
    vertex -103.05643003666951 39.26664861898641 22.440000000000005
    vertex -111.02427467312384 35.940654696773834 22.440000000000005
    vertex -110.21481111037082 35.90439931974954 22.440000000000005
  endloop
endfacet
facet normal 0.0 0.0 1.0
  outer loop
    vertex -110.21481111037082 35.90439931974954 22.440000000000005
    vertex -111.02427467312384 35.940654696773834 22.440000000000005
    vertex -111.02427467312383 34.84601906924347 22.440000000000005
  endloop
endfacet
facet normal 0.0 0.0 1.0
  outer loop
    vertex -103.05643003666951 39.26664861898641 22.440000000000005
    vertex -110.21481111037082 35.90439931974954 22.440000000000005
    vertex -109.58778681887284 35.94065469677383 22.440000000000005
  endloop
endfacet
facet normal 0.0 0.0 1.0
  outer loop
    vertex -103.05643003666951 39.26664861898641 22.440000000000005
    vertex -109.58778681887284 35.94065469677383 22.440000000000005
    vertex -109.13938252990519 35.90522959555926 22.440000000000005
  endloop
endfacet
facet normal 0.0 0.0 1.0
  outer loop
    vertex -109.13938252990519 35.90522959555926 22.440000000000005
    vertex -109.58778681887284 35.94065469677383 22.440000000000005
    vertex -109.58778681887281 33.1845818222799 22.440000000000005
  endloop
endfacet
facet normal 0.0 0.0 1.0
  outer loop
    vertex -103.05643003666951 39.26664861898641 22.440000000000005
    vertex -109.13938252990519 35.90522959555926 22.440000000000005
    vertex -107.32235159620073 35.90522959555926 22.440000000000005
  endloop
endfacet
facet normal 0.0 0.0 1.0
  outer loop
    vertex -103.05643003666951 39.26664861898641 22.440000000000005
    vertex -107.32235159620073 35.90522959555926 22.440000000000005
    vertex -106.73594162972809 35.58056407809976 22.440000000000005
  endloop
endfacet
facet normal 0.0 0.0 1.0
  outer loop
    vertex -106.73594162972809 35.58056407809976 22.440000000000005
    vertex -107.32235159620073 35.90522959555926 22.440000000000005
    vertex -106.87106901775948 35.33026359733052 22.440000000000005
  endloop
endfacet
facet normal 0.0 0.0 1.0
  outer loop
    vertex -106.87106901775948 35.33026359733052 22.440000000000005
    vertex -107.32235159620073 35.90522959555926 22.440000000000005
    vertex -106.87832009316432 33.52920163503294 22.440000000000005
  endloop
endfacet
facet normal 0.0 0.0 1.0
  outer loop
    vertex -106.87832009316432 33.52920163503294 22.440000000000005
    vertex -107.32235159620073 35.90522959555926 22.440000000000005
    vertex -106.87832009316432 33.1845818222799 22.440000000000005
  endloop
endfacet
facet normal 0.0 0.0 1.0
  outer loop
    vertex -103.05643003666951 39.26664861898641 22.440000000000005
    vertex -106.73594162972809 35.58056407809976 22.440000000000005
    vertex -106.5391524248951 35.7719149763791 22.440000000000005
  endloop
endfacet
facet normal 0.0 0.0 1.0
  outer loop
    vertex -103.05643003666951 39.26664861898641 22.440000000000005
    vertex -106.5391524248951 35.7719149763791 22.440000000000005
    vertex -106.28068756533034 35.893439679061274 22.440000000000005
  endloop
endfacet
facet normal 0.0 0.0 1.0
  outer loop
    vertex -103.05643003666951 39.26664861898641 22.440000000000005
    vertex -106.28068756533034 35.893439679061274 22.440000000000005
    vertex -105.96056088896393 35.936060503960064 22.440000000000005
  endloop
endfacet
facet normal 0.0 0.0 1.0
  outer loop
    vertex -103.05643003666951 39.26664861898641 22.440000000000005
    vertex -105.96056088896393 35.936060503960064 22.440000000000005
    vertex -105.76512780128677 35.91905714727358 22.440000000000005
  endloop
endfacet
facet normal 0.0 0.0 1.0
  outer loop
    vertex -103.05643003666951 39.26664861898641 22.440000000000005
    vertex -105.76512780128677 35.91905714727358 22.440000000000005
    vertex -105.59236124321491 35.8680470772141 22.440000000000005
  endloop
endfacet
facet normal 0.0 0.0 1.0
  outer loop
    vertex -103.05643003666951 39.26664861898641 22.440000000000005
    vertex -105.59236124321491 35.8680470772141 22.440000000000005
    vertex -105.44339938450415 35.78937844424349 22.440000000000005
  endloop
endfacet
facet normal 0.0 0.0 1.0
  outer loop
    vertex -103.05643003666951 39.26664861898641 22.440000000000005
    vertex -105.44339938450415 35.78937844424349 22.440000000000005
    vertex -105.31938039491025 35.689399398823426 22.440000000000005
  endloop
endfacet
facet normal 0.0 0.0 1.0
  outer loop
    vertex -103.05643003666951 39.26664861898641 22.440000000000005
    vertex -105.31938039491025 35.689399398823426 22.440000000000005
    vertex -105.22121065885891 35.57127882696109 22.44
  endloop
endfacet
facet normal 0.0 0.0 1.0
  outer loop
    vertex -103.05643003666951 39.26664861898641 22.440000000000005
    vertex -105.22121065885891 35.57127882696109 22.44
    vertex -105.14979656077566 35.43818561466353 22.440000000000005
  endloop
endfacet
facet normal 0.0 0.0 1.0
  outer loop
    vertex -103.05643003666951 39.26664861898641 22.440000000000005
    vertex -105.14979656077566 35.43818561466353 22.440000000000005
    vertex -105.10626935145126 35.296931483052944 22.440000000000005
  endloop
endfacet
facet normal 0.0 0.0 1.0
  outer loop
    vertex -103.05643003666951 39.26664861898641 22.440000000000005
    vertex -105.10626935145126 35.296931483052944 22.440000000000005
    vertex -105.09176028167644 35.154328153251576 22.440000000000005
  endloop
endfacet
facet normal 0.0 0.0 1.0
  outer loop
    vertex -103.05643003666951 39.26664861898641 22.440000000000005
    vertex -105.09176028167644 35.154328153251576 22.440000000000005
    vertex -105.04642722246594 33.547329323545085 22.440000000000005
  endloop
endfacet
facet normal 0.0 0.0 1.0
  outer loop
    vertex -103.05643003666951 39.26664861898641 22.440000000000005
    vertex -105.04642722246594 33.547329323545085 22.440000000000005
    vertex -103.05643003666951 30.066648618986413 22.440000000000005
  endloop
endfacet
facet normal 0.0 0.0 1.0
  outer loop
    vertex -108.44001353952059 35.24192225117667 22.440000000000005
    vertex -107.371337868974 35.49252716640946 22.440000000000005
    vertex -108.46721891021899 35.49252716640946 22.440000000000005
  endloop
endfacet
facet normal 0.0 0.0 1.0
  outer loop
    vertex -107.371337868974 35.49252716640946 22.440000000000005
    vertex -108.44001353952059 35.24192225117667 22.440000000000005
    vertex -107.50833337757726 34.84601906924347 22.440000000000005
  endloop
endfacet
facet normal 0.0 0.0 1.0
  outer loop
    vertex -109.07589410632218 35.47536813300865 22.440000000000005
    vertex -109.13938252990519 35.90522959555926 22.440000000000005
    vertex -109.07589410632221 33.1845818222799 22.440000000000005
  endloop
endfacet
facet normal 0.0 -1.0 0.0
  outer loop
    vertex -103.05643003666951 30.066648618986413 22.440000000000005
    vertex -113.85643003666951 30.066648618986413 12.999999999999998
    vertex -103.05643003666951 30.066648618986413 12.999999999999998
  endloop
endfacet
facet normal 0.0 -1.0 0.0
  outer loop
    vertex -113.85643003666951 30.066648618986413 12.999999999999998
    vertex -103.05643003666951 30.066648618986413 22.440000000000005
    vertex -113.85643003666951 30.066648618986413 22.440000000000005
  endloop
endfacet
facet normal 0.0 1.0 0.0
  outer loop
    vertex -113.85643003666951 39.26664861898641 22.440000000000005
    vertex -103.05643003666951 39.26664861898641 12.999999999999998
    vertex -113.85643003666951 39.26664861898641 12.999999999999998
  endloop
endfacet
facet normal 0.0 1.0 0.0
  outer loop
    vertex -103.05643003666951 39.26664861898641 12.999999999999998
    vertex -113.85643003666951 39.26664861898641 22.440000000000005
    vertex -103.05643003666951 39.26664861898641 22.440000000000005
  endloop
endfacet
facet normal 0.0 0.0 -1.0
  outer loop
    vertex -103.05643003666951 39.26664861898641 12.999999999999998
    vertex -113.85643003666951 30.066648618986413 12.999999999999998
    vertex -113.85643003666951 39.26664861898641 12.999999999999998
  endloop
endfacet
facet normal 0.0 0.0 -1.0
  outer loop
    vertex -113.85643003666951 30.066648618986413 12.999999999999998
    vertex -103.05643003666951 39.26664861898641 12.999999999999998
    vertex -103.05643003666951 30.066648618986413 12.999999999999998
  endloop
endfacet
facet normal 0.0 -1.0 0.0
  outer loop
    vertex -105.04642722246594 33.1845818222799 23.0
    vertex -106.87832009316432 33.1845818222799 22.440000000000005
    vertex -105.04642722246594 33.1845818222799 22.440000000000005
  endloop
endfacet
facet normal 0.0 -1.0 0.0
  outer loop
    vertex -106.87832009316432 33.1845818222799 22.440000000000005
    vertex -105.04642722246594 33.1845818222799 23.0
    vertex -106.87832009316432 33.1845818222799 23.0
  endloop
endfacet
facet normal 1.0 0.0 0.0
  outer loop
    vertex -105.04642722246594 33.547329323545085 22.440000000000005
    vertex -105.04642722246594 33.1845818222799 23.0
    vertex -105.04642722246594 33.1845818222799 22.440000000000005
  endloop
endfacet
facet normal 1.0 0.0 0.0
  outer loop
    vertex -105.04642722246594 33.1845818222799 23.0
    vertex -105.04642722246594 33.547329323545085 22.440000000000005
    vertex -105.04642722246594 33.547329323545085 23.0
  endloop
endfacet
facet normal 0.0 0.0 1.0
  outer loop
    vertex -105.04642722246594 33.1845818222799 23.0
    vertex -106.87832009316432 33.52920163503294 23.0
    vertex -106.87832009316432 33.1845818222799 23.0
  endloop
endfacet
facet normal 0.0 0.0 1.0
  outer loop
    vertex -106.87832009316432 33.52920163503294 23.0
    vertex -105.04642722246594 33.1845818222799 23.0
    vertex -106.21086136973314 33.547329323545085 23.0
  endloop
endfacet
facet normal 0.0 0.0 1.0
  outer loop
    vertex -106.87832009316432 33.52920163503294 23.0
    vertex -106.21086136973314 33.547329323545085 23.0
    vertex -106.68153088833132 33.81124632759367 23.0
  endloop
endfacet
facet normal 0.0 0.0 1.0
  outer loop
    vertex -106.68153088833132 33.81124632759367 23.0
    vertex -106.21086136973314 33.547329323545085 23.0
    vertex -106.45208416831613 34.10144156101978 23.0
  endloop
endfacet
facet normal 0.0 0.0 1.0
  outer loop
    vertex -106.45208416831613 34.10144156101978 23.0
    vertex -106.21086136973314 33.547329323545085 23.0
    vertex -106.22173798284042 34.37078303369185 23.0
  endloop
endfacet
facet normal 0.0 0.0 1.0
  outer loop
    vertex -106.21086136973314 33.547329323545085 23.0
    vertex -105.04642722246594 33.1845818222799 23.0
    vertex -105.04642722246594 33.547329323545085 23.0
  endloop
endfacet
facet normal 0.0 0.0 1.0
  outer loop
    vertex -106.21086136973314 33.547329323545085 23.0
    vertex -106.0240493125469 34.59023876813011 23.0
    vertex -106.22173798284042 34.37078303369185 23.0
  endloop
endfacet
facet normal 0.0 0.0 1.0
  outer loop
    vertex -106.0240493125469 34.59023876813011 23.0
    vertex -106.21086136973314 33.547329323545085 23.0
    vertex -106.09931381469772 33.688808321520796 23.0
  endloop
endfacet
facet normal 0.0 0.0 1.0
  outer loop
    vertex -106.0240493125469 34.59023876813011 23.0
    vertex -106.09931381469772 33.688808321520796 23.0
    vertex -105.93970712820988 33.87562037870703 23.0
  endloop
endfacet
facet normal 0.0 0.0 1.0
  outer loop
    vertex -106.0240493125469 34.59023876813011 23.0
    vertex -105.93970712820988 33.87562037870703 23.0
    vertex -105.85717771272404 34.76798698106027 23.0
  endloop
endfacet
facet normal 0.0 0.0 1.0
  outer loop
    vertex -105.85717771272404 34.76798698106027 23.0
    vertex -105.93970712820988 33.87562037870703 23.0
    vertex -105.75469400194467 34.08965164452181 23.0
  endloop
endfacet
facet normal 0.0 0.0 1.0
  outer loop
    vertex -105.85717771272404 34.76798698106027 23.0
    vertex -105.75469400194467 34.08965164452181 23.0
    vertex -105.74652962314913 34.90221490363112 23.0
  endloop
endfacet
facet normal 0.0 0.0 1.0
  outer loop
    vertex -105.74652962314913 34.90221490363112 23.0
    vertex -105.75469400194467 34.08965164452181 23.0
    vertex -105.56695480343758 34.31093398574144 23.0
  endloop
endfacet
facet normal 0.0 0.0 1.0
  outer loop
    vertex -105.74652962314913 34.90221490363112 23.0
    vertex -105.56695480343758 34.31093398574144 23.0
    vertex -105.68576727180805 35.026465678555205 23.0
  endloop
endfacet
facet normal 0.0 0.0 1.0
  outer loop
    vertex -105.68576727180805 35.026465678555205 23.0
    vertex -105.56695480343758 34.31093398574144 23.0
    vertex -105.6667262799052 35.174282448545085 23.0
  endloop
endfacet
facet normal 0.0 0.0 1.0
  outer loop
    vertex -105.6667262799052 35.174282448545085 23.0
    vertex -105.56695480343758 34.31093398574144 23.0
    vertex -105.59236124321491 35.868047077214115 23.0
  endloop
endfacet
facet normal 0.0 0.0 1.0
  outer loop
    vertex -105.59236124321491 35.868047077214115 23.0
    vertex -105.56695480343758 34.31093398574144 23.0
    vertex -105.44339938450415 35.78937844424347 23.0
  endloop
endfacet
facet normal 0.0 0.0 1.0
  outer loop
    vertex -105.44339938450415 35.78937844424347 23.0
    vertex -105.56695480343758 34.31093398574144 23.0
    vertex -105.3910331972888 34.5177003382212 23.0
  endloop
endfacet
facet normal 0.0 0.0 1.0
  outer loop
    vertex -105.44339938450415 35.78937844424347 23.0
    vertex -105.3910331972888 34.5177003382212 23.0
    vertex -105.31938039491025 35.689399398823426 23.0
  endloop
endfacet
facet normal 0.0 0.0 1.0
  outer loop
    vertex -105.31938039491025 35.689399398823426 23.0
    vertex -105.3910331972888 34.5177003382212 23.0
    vertex -105.23867758620581 34.7144895430542 23.0
  endloop
endfacet
facet normal 0.0 0.0 1.0
  outer loop
    vertex -105.31938039491025 35.689399398823426 23.0
    vertex -105.23867758620581 34.7144895430542 23.0
    vertex -105.22121065885891 35.571278826961084 23.0
  endloop
endfacet
facet normal 0.0 0.0 1.0
  outer loop
    vertex -105.22121065885891 35.571278826961084 23.0
    vertex -105.23867758620581 34.7144895430542 23.0
    vertex -105.1316688722635 34.920356430073426 23.0
  endloop
endfacet
facet normal 0.0 0.0 1.0
  outer loop
    vertex -105.22121065885891 35.571278826961084 23.0
    vertex -105.1316688722635 34.920356430073426 23.0
    vertex -105.14979656077566 35.43818561466351 23.0
  endloop
endfacet
facet normal 0.0 0.0 1.0
  outer loop
    vertex -105.14979656077566 35.43818561466351 23.0
    vertex -105.1316688722635 34.920356430073426 23.0
    vertex -105.10626935145126 35.29693148305293 23.0
  endloop
endfacet
facet normal 0.0 0.0 1.0
  outer loop
    vertex -105.10626935145126 35.29693148305293 23.0
    vertex -105.1316688722635 34.920356430073426 23.0
    vertex -105.09176028167644 35.15432815325156 23.0
  endloop
endfacet
facet normal 0.0 0.0 1.0
  outer loop
    vertex -106.4484586306137 35.172455841763714 23.0
    vertex -106.73594162972807 35.58056407809974 23.0
    vertex -106.87106901775945 35.330263597330514 23.0
  endloop
endfacet
facet normal 0.0 0.0 1.0
  outer loop
    vertex -106.73594162972807 35.58056407809974 23.0
    vertex -106.4484586306137 35.172455841763714 23.0
    vertex -106.53915242489506 35.771914976379094 23.0
  endloop
endfacet
facet normal 0.0 0.0 1.0
  outer loop
    vertex -106.53915242489506 35.771914976379094 23.0
    vertex -106.4484586306137 35.172455841763714 23.0
    vertex -106.28068756533031 35.89343967906129 23.0
  endloop
endfacet
facet normal 0.0 0.0 1.0
  outer loop
    vertex -106.28068756533031 35.89343967906129 23.0
    vertex -106.4484586306137 35.172455841763714 23.0
    vertex -106.35504568305551 35.325278482989674 23.0
  endloop
endfacet
facet normal 0.0 0.0 1.0
  outer loop
    vertex -106.28068756533031 35.89343967906129 23.0
    vertex -106.35504568305551 35.325278482989674 23.0
    vertex -106.24894335353882 35.442724455756625 23.0
  endloop
endfacet
facet normal 0.0 0.0 1.0
  outer loop
    vertex -106.28068756533031 35.89343967906129 23.0
    vertex -106.24894335353882 35.442724455756625 23.0
    vertex -105.9605608889639 35.936060503960064 23.0
  endloop
endfacet
facet normal 0.0 0.0 1.0
  outer loop
    vertex -105.9605608889639 35.936060503960064 23.0
    vertex -106.24894335353882 35.442724455756625 23.0
    vertex -106.1274255698217 35.51754268465971 23.0
  endloop
endfacet
facet normal 0.0 0.0 1.0
  outer loop
    vertex -105.9605608889639 35.936060503960064 23.0
    vertex -106.1274255698217 35.51754268465971 23.0
    vertex -105.9877662596623 35.54248209429407 23.0
  endloop
endfacet
facet normal 0.0 0.0 1.0
  outer loop
    vertex -105.9605608889639 35.936060503960064 23.0
    vertex -105.9877662596623 35.54248209429407 23.0
    vertex -105.85535110594265 35.510737882502575 23.0
  endloop
endfacet
facet normal 0.0 0.0 1.0
  outer loop
    vertex -105.9605608889639 35.936060503960064 23.0
    vertex -105.85535110594265 35.510737882502575 23.0
    vertex -105.76512780128677 35.91905714727358 23.0
  endloop
endfacet
facet normal 0.0 0.0 1.0
  outer loop
    vertex -105.76512780128677 35.91905714727358 23.0
    vertex -105.85535110594265 35.510737882502575 23.0
    vertex -105.75378069855398 35.42639569816553 23.0
  endloop
endfacet
facet normal 0.0 0.0 1.0
  outer loop
    vertex -105.76512780128677 35.91905714727358 23.0
    vertex -105.75378069855398 35.42639569816553 23.0
    vertex -105.59236124321491 35.868047077214115 23.0
  endloop
endfacet
facet normal 0.0 0.0 1.0
  outer loop
    vertex -105.59236124321491 35.868047077214115 23.0
    vertex -105.75378069855398 35.42639569816553 23.0
    vertex -105.68939280951045 35.307597067725254 23.0
  endloop
endfacet
facet normal 0.0 0.0 1.0
  outer loop
    vertex -105.59236124321491 35.868047077214115 23.0
    vertex -105.68939280951045 35.307597067725254 23.0
    vertex -105.6667262799052 35.174282448545085 23.0
  endloop
endfacet
facet normal -1.0 0.0 0.0
  outer loop
    vertex -106.87832009316432 33.52920163503294 23.0
    vertex -106.87832009316432 33.1845818222799 22.440000000000005
    vertex -106.87832009316432 33.1845818222799 23.0
  endloop
endfacet
facet normal -1.0 0.0 0.0
  outer loop
    vertex -106.87832009316432 33.1845818222799 22.440000000000005
    vertex -106.87832009316432 33.52920163503294 23.0
    vertex -106.87832009316432 33.52920163503294 22.440000000000005
  endloop
endfacet
facet normal -0.8201080722343502 0.5722086593682919 5.759347631225335e-15
  outer loop
    vertex -106.68153088833132 33.81124632759367 23.0
    vertex -106.87832009316432 33.52920163503294 22.440000000000005
    vertex -106.87832009316432 33.52920163503294 23.0
  endloop
endfacet
facet normal -0.8201080722343502 0.5722086593682919 5.759347631225335e-15
  outer loop
    vertex -106.87832009316432 33.52920163503294 22.440000000000005
    vertex -106.68153088833132 33.81124632759367 23.0
    vertex -106.68153088833132 33.811246327593686 22.440000000000005
  endloop
endfacet
facet normal -0.7844287112938853 0.6202189910812264 1.5597796974280553e-14
  outer loop
    vertex -106.45208416831613 34.10144156101978 23.0
    vertex -106.68153088833132 33.811246327593686 22.440000000000005
    vertex -106.68153088833132 33.81124632759367 23.0
  endloop
endfacet
facet normal -0.7844287112938853 0.6202189910812264 1.5597796974280553e-14
  outer loop
    vertex -106.68153088833132 33.811246327593686 22.440000000000005
    vertex -106.45208416831613 34.10144156101978 23.0
    vertex -106.45208416831613 34.1014415610198 22.440000000000005
  endloop
endfacet
facet normal -0.7599782438443932 0.6499485124863293 1.9643546612723605e-14
  outer loop
    vertex -106.22173798284042 34.37078303369185 23.0
    vertex -106.45208416831613 34.1014415610198 22.440000000000005
    vertex -106.45208416831613 34.10144156101978 23.0
  endloop
endfacet
facet normal -0.7599782438443932 0.6499485124863293 1.9643546612723605e-14
  outer loop
    vertex -106.45208416831613 34.1014415610198 22.440000000000005
    vertex -106.22173798284042 34.37078303369185 23.0
    vertex -106.22173798284042 34.370783033691865 22.440000000000005
  endloop
endfacet
facet normal -0.7429935585048966 0.6692985671732989 1.349238862471335e-14
  outer loop
    vertex -106.0240493125469 34.59023876813011 23.0
    vertex -106.22173798284042 34.370783033691865 22.440000000000005
    vertex -106.22173798284042 34.37078303369185 23.0
  endloop
endfacet
facet normal -0.7429935585048966 0.6692985671732989 1.349238862471335e-14
  outer loop
    vertex -106.22173798284042 34.370783033691865 22.440000000000005
    vertex -106.0240493125469 34.59023876813011 23.0
    vertex -106.0240493125469 34.590238768130114 22.44
  endloop
endfacet
facet normal -0.729060894495342 0.6844488382031575 -1.468633129857231e-14
  outer loop
    vertex -105.85717771272404 34.76798698106027 23.0
    vertex -106.0240493125469 34.590238768130114 22.44
    vertex -106.0240493125469 34.59023876813011 23.0
  endloop
endfacet
facet normal -0.729060894495342 0.6844488382031575 -1.468633129857231e-14
  outer loop
    vertex -106.0240493125469 34.590238768130114 22.44
    vertex -105.85717771272404 34.76798698106027 23.0
    vertex -105.85717771272401 34.76798698106027 22.44
  endloop
endfacet
facet normal -0.7716270408947861 0.636075239071571 -2.5149959613910865e-14
  outer loop
    vertex -105.85717771272404 34.76798698106027 23.0
    vertex -105.74652962314913 34.90221490363111 22.440000000000005
    vertex -105.85717771272401 34.76798698106027 22.44
  endloop
endfacet
facet normal -0.7716270408947861 0.636075239071571 -2.5149959613910865e-14
  outer loop
    vertex -105.74652962314913 34.90221490363111 22.440000000000005
    vertex -105.85717771272404 34.76798698106027 23.0
    vertex -105.74652962314913 34.90221490363112 23.0
  endloop
endfacet
facet normal -0.8983343508476871 0.43931241057710224 -4.424793356785233e-15
  outer loop
    vertex -105.74652962314913 34.90221490363112 23.0
    vertex -105.68576727180805 35.026465678555205 22.440000000000005
    vertex -105.74652962314913 34.90221490363111 22.440000000000005
  endloop
endfacet
facet normal -0.8983343508476871 0.43931241057710224 -4.424793356785233e-15
  outer loop
    vertex -105.68576727180805 35.026465678555205 22.440000000000005
    vertex -105.74652962314913 34.90221490363112 23.0
    vertex -105.68576727180805 35.026465678555205 23.0
  endloop
endfacet
facet normal -0.9918052137580629 0.12775921869799958 -1.9334415129433667e-14
  outer loop
    vertex -105.6667262799052 35.174282448545085 23.0
    vertex -105.68576727180805 35.026465678555205 22.440000000000005
    vertex -105.68576727180805 35.026465678555205 23.0
  endloop
endfacet
facet normal -0.9918052137580629 0.12775921869799958 -1.9334415129433667e-14
  outer loop
    vertex -105.68576727180805 35.026465678555205 22.440000000000005
    vertex -105.6667262799052 35.174282448545085 23.0
    vertex -105.66672627990519 35.17428244854509 22.440000000000005
  endloop
endfacet
facet normal -0.9858521267642055 -0.1676173742620169 -3.302461784544815e-19
  outer loop
    vertex -105.68939280951045 35.307597067725254 23.0
    vertex -105.66672627990519 35.17428244854509 22.440000000000005
    vertex -105.6667262799052 35.174282448545085 23.0
  endloop
endfacet
facet normal -0.9858521267642055 -0.1676173742620169 -3.302461784544815e-19
  outer loop
    vertex -105.66672627990519 35.17428244854509 22.440000000000005
    vertex -105.68939280951045 35.307597067725254 23.0
    vertex -105.68939280951048 35.30759706772525 22.44000000000001
  endloop
endfacet
facet normal -0.8791722108079402 -0.4765041697016711 2.4906454708290208e-14
  outer loop
    vertex -105.68939280951045 35.307597067725254 23.0
    vertex -105.75378069855398 35.42639569816552 22.440000000000005
    vertex -105.68939280951048 35.30759706772525 22.44000000000001
  endloop
endfacet
facet normal -0.8791722108079402 -0.4765041697016711 2.4906454708290208e-14
  outer loop
    vertex -105.75378069855398 35.42639569816552 22.440000000000005
    vertex -105.68939280951045 35.307597067725254 23.0
    vertex -105.75378069855398 35.42639569816553 23.0
  endloop
endfacet
facet normal -0.638843176942843 -0.7693369842101544 1.9369393689379013e-14
  outer loop
    vertex -105.75378069855398 35.42639569816553 23.0
    vertex -105.85535110594265 35.51073788250256 22.440000000000005
    vertex -105.75378069855398 35.42639569816552 22.440000000000005
  endloop
endfacet
facet normal -0.638843176942843 -0.7693369842101544 1.9369393689379013e-14
  outer loop
    vertex -105.85535110594265 35.51073788250256 22.440000000000005
    vertex -105.75378069855398 35.42639569816553 23.0
    vertex -105.85535110594265 35.510737882502575 23.0
  endloop
endfacet
facet normal -0.23312695492392155 -0.9724463084859236 1.9589130022374712e-14
  outer loop
    vertex -105.85535110594265 35.510737882502575 23.0
    vertex -105.9877662596623 35.54248209429407 22.440000000000005
    vertex -105.85535110594265 35.51073788250256 22.440000000000005
  endloop
endfacet
facet normal -0.23312695492392155 -0.9724463084859236 1.9589130022374712e-14
  outer loop
    vertex -105.9877662596623 35.54248209429407 22.440000000000005
    vertex -105.85535110594265 35.510737882502575 23.0
    vertex -105.9877662596623 35.54248209429407 23.0
  endloop
endfacet
facet normal 0.17579232645215795 -0.9844272740840422 1.6285854187153105e-14
  outer loop
    vertex -105.9877662596623 35.54248209429407 23.0
    vertex -106.12742556982172 35.517542684659695 22.440000000000005
    vertex -105.9877662596623 35.54248209429407 22.440000000000005
  endloop
endfacet
facet normal 0.17579232645215795 -0.9844272740840422 1.6285854187153105e-14
  outer loop
    vertex -106.12742556982172 35.517542684659695 22.440000000000005
    vertex -105.9877662596623 35.54248209429407 23.0
    vertex -106.1274255698217 35.51754268465971 23.0
  endloop
endfacet
facet normal 0.5242908312897644 -0.8515392675769496 2.3065836892350138e-15
  outer loop
    vertex -106.12742556982172 35.517542684659695 22.440000000000005
    vertex -106.24894335353882 35.442724455756625 23.0
    vertex -106.24894335353882 35.442724455756625 22.44
  endloop
endfacet
facet normal 0.5242908312897644 -0.8515392675769496 2.3065836892350138e-15
  outer loop
    vertex -106.24894335353882 35.442724455756625 23.0
    vertex -106.12742556982172 35.517542684659695 22.440000000000005
    vertex -106.1274255698217 35.51754268465971 23.0
  endloop
endfacet
facet normal 0.7420331964618652 -0.6703631369254928 0.0
  outer loop
    vertex -106.24894335353882 35.442724455756625 22.44
    vertex -106.35504568305551 35.325278482989674 23.0
    vertex -106.35504568305551 35.325278482989674 22.44
  endloop
endfacet
facet normal 0.7420331964618652 -0.6703631369254928 0.0
  outer loop
    vertex -106.35504568305551 35.325278482989674 23.0
    vertex -106.24894335353882 35.442724455756625 22.44
    vertex -106.24894335353882 35.442724455756625 23.0
  endloop
endfacet
facet normal 0.8532288330588053 -0.5215367277930764 -3.6993321946571855e-14
  outer loop
    vertex -106.44845863061374 35.17245584176372 22.440000000000005
    vertex -106.35504568305551 35.325278482989674 23.0
    vertex -106.4484586306137 35.172455841763714 23.0
  endloop
endfacet
facet normal 0.8532288330588053 -0.5215367277930764 -3.6993321946571855e-14
  outer loop
    vertex -106.35504568305551 35.325278482989674 23.0
    vertex -106.44845863061374 35.17245584176372 22.440000000000005
    vertex -106.35504568305551 35.325278482989674 22.44
  endloop
endfacet
facet normal -0.3498187790800407 -0.9368173897846632 1.1703073015614503e-14
  outer loop
    vertex -106.4484586306137 35.172455841763714 23.0
    vertex -106.87106901775948 35.33026359733052 22.440000000000005
    vertex -106.44845863061374 35.17245584176372 22.440000000000005
  endloop
endfacet
facet normal -0.3498187790800407 -0.9368173897846632 1.1703073015614503e-14
  outer loop
    vertex -106.87106901775948 35.33026359733052 22.440000000000005
    vertex -106.4484586306137 35.172455841763714 23.0
    vertex -106.87106901775945 35.330263597330514 23.0
  endloop
endfacet
facet normal -0.8799566476267018 0.47505399513905455 4.74123126882955e-14
  outer loop
    vertex -106.73594162972807 35.58056407809974 23.0
    vertex -106.87106901775948 35.33026359733052 22.440000000000005
    vertex -106.87106901775945 35.330263597330514 23.0
  endloop
endfacet
facet normal -0.8799566476267018 0.47505399513905455 4.74123126882955e-14
  outer loop
    vertex -106.87106901775948 35.33026359733052 22.440000000000005
    vertex -106.73594162972807 35.58056407809974 23.0
    vertex -106.73594162972809 35.58056407809976 22.440000000000005
  endloop
endfacet
facet normal -0.6971309456284757 0.7169438225182971 4.6126567838024075e-14
  outer loop
    vertex -106.73594162972807 35.58056407809974 23.0
    vertex -106.5391524248951 35.7719149763791 22.440000000000005
    vertex -106.73594162972809 35.58056407809976 22.440000000000005
  endloop
endfacet
facet normal -0.6971309456284757 0.7169438225182971 4.6126567838024075e-14
  outer loop
    vertex -106.5391524248951 35.7719149763791 22.440000000000005
    vertex -106.73594162972807 35.58056407809974 23.0
    vertex -106.53915242489506 35.771914976379094 23.0
  endloop
endfacet
facet normal -0.4254936810863604 0.9049613955056749 1.2581860142248362e-14
  outer loop
    vertex -106.53915242489506 35.771914976379094 23.0
    vertex -106.28068756533034 35.893439679061274 22.440000000000005
    vertex -106.5391524248951 35.7719149763791 22.440000000000005
  endloop
endfacet
facet normal -0.4254936810863604 0.9049613955056749 1.2581860142248362e-14
  outer loop
    vertex -106.28068756533034 35.893439679061274 22.440000000000005
    vertex -106.53915242489506 35.771914976379094 23.0
    vertex -106.28068756533031 35.89343967906129 23.0
  endloop
endfacet
facet normal -0.13197286480546985 0.9912533293538223 -4.663342071573218e-15
  outer loop
    vertex -106.28068756533031 35.89343967906129 23.0
    vertex -105.96056088896393 35.936060503960064 22.440000000000005
    vertex -106.28068756533034 35.893439679061274 22.440000000000005
  endloop
endfacet
facet normal -0.13197286480546985 0.9912533293538223 -4.663342071573218e-15
  outer loop
    vertex -105.96056088896393 35.936060503960064 22.440000000000005
    vertex -106.28068756533031 35.89343967906129 23.0
    vertex -105.9605608889639 35.936060503960064 23.0
  endloop
endfacet
facet normal 0.08667603636131115 0.9962365505845951 -1.7460173700997763e-15
  outer loop
    vertex -105.9605608889639 35.936060503960064 23.0
    vertex -105.76512780128677 35.91905714727358 22.440000000000005
    vertex -105.96056088896393 35.936060503960064 22.440000000000005
  endloop
endfacet
facet normal 0.08667603636131115 0.9962365505845951 -1.7460173700997763e-15
  outer loop
    vertex -105.76512780128677 35.91905714727358 22.440000000000005
    vertex -105.9605608889639 35.936060503960064 23.0
    vertex -105.76512780128677 35.91905714727358 23.0
  endloop
endfacet
facet normal 0.2831695100770025 0.9590698767883132 -1.4486412112581882e-14
  outer loop
    vertex -105.76512780128677 35.91905714727358 23.0
    vertex -105.59236124321491 35.8680470772141 22.440000000000005
    vertex -105.76512780128677 35.91905714727358 22.440000000000005
  endloop
endfacet
facet normal 0.2831695100770025 0.9590698767883132 -1.4486412112581882e-14
  outer loop
    vertex -105.59236124321491 35.8680470772141 22.440000000000005
    vertex -105.76512780128677 35.91905714727358 23.0
    vertex -105.59236124321491 35.868047077214115 23.0
  endloop
endfacet
facet normal 0.4669901641355895 0.884262510005154 4.450103217593685e-15
  outer loop
    vertex -105.59236124321491 35.868047077214115 23.0
    vertex -105.44339938450415 35.78937844424349 22.440000000000005
    vertex -105.59236124321491 35.8680470772141 22.440000000000005
  endloop
endfacet
facet normal 0.4669901641355895 0.884262510005154 4.450103217593685e-15
  outer loop
    vertex -105.44339938450415 35.78937844424349 22.440000000000005
    vertex -105.59236124321491 35.868047077214115 23.0
    vertex -105.44339938450415 35.78937844424347 23.0
  endloop
endfacet
facet normal 0.6276144864764598 0.7785242811659053 1.568273048727955e-14
  outer loop
    vertex -105.44339938450415 35.78937844424347 23.0
    vertex -105.31938039491025 35.689399398823426 22.440000000000005
    vertex -105.44339938450415 35.78937844424349 22.440000000000005
  endloop
endfacet
facet normal 0.6276144864764598 0.7785242811659053 1.568273048727955e-14
  outer loop
    vertex -105.31938039491025 35.689399398823426 22.440000000000005
    vertex -105.44339938450415 35.78937844424347 23.0
    vertex -105.31938039491025 35.689399398823426 23.0
  endloop
endfacet
facet normal 0.7690661899903986 0.6391691446038773 6.432436748373768e-15
  outer loop
    vertex -105.22121065885891 35.57127882696109 22.44
    vertex -105.31938039491025 35.689399398823426 23.0
    vertex -105.22121065885891 35.571278826961084 23.0
  endloop
endfacet
facet normal 0.7690661899903986 0.6391691446038773 6.432436748373768e-15
  outer loop
    vertex -105.31938039491025 35.689399398823426 23.0
    vertex -105.22121065885891 35.57127882696109 22.44
    vertex -105.31938039491025 35.689399398823426 22.440000000000005
  endloop
endfacet
facet normal 0.8811651556273743 0.47280859605995446 1.1904668715857348e-14
  outer loop
    vertex -105.14979656077566 35.43818561466353 22.440000000000005
    vertex -105.22121065885891 35.571278826961084 23.0
    vertex -105.14979656077566 35.43818561466351 23.0
  endloop
endfacet
facet normal 0.8811651556273743 0.47280859605995446 1.1904668715857348e-14
  outer loop
    vertex -105.22121065885891 35.571278826961084 23.0
    vertex -105.14979656077566 35.43818561466353 22.440000000000005
    vertex -105.22121065885891 35.57127882696109 22.44
  endloop
endfacet
facet normal 0.9556564598836067 0.2944838377275273 7.414141663759783e-15
  outer loop
    vertex -105.10626935145126 35.296931483052944 22.440000000000005
    vertex -105.14979656077566 35.43818561466351 23.0
    vertex -105.10626935145126 35.29693148305293 23.0
  endloop
endfacet
facet normal 0.9556564598836067 0.2944838377275273 7.414141663759783e-15
  outer loop
    vertex -105.14979656077566 35.43818561466351 23.0
    vertex -105.10626935145126 35.296931483052944 22.440000000000005
    vertex -105.14979656077566 35.43818561466353 22.440000000000005
  endloop
endfacet
facet normal 0.994863895213231 0.10122168740520543 2.037616439532363e-15
  outer loop
    vertex -105.09176028167644 35.154328153251576 22.440000000000005
    vertex -105.10626935145126 35.29693148305293 23.0
    vertex -105.09176028167644 35.15432815325156 23.0
  endloop
endfacet
facet normal 0.994863895213231 0.10122168740520543 2.037616439532363e-15
  outer loop
    vertex -105.10626935145126 35.29693148305293 23.0
    vertex -105.09176028167644 35.154328153251576 22.440000000000005
    vertex -105.10626935145126 35.296931483052944 22.440000000000005
  endloop
endfacet
facet normal 0.9857628344183922 -0.16814170892261632 -2.538549191293447e-15
  outer loop
    vertex -105.1316688722635 34.92035643007343 22.440000000000005
    vertex -105.09176028167644 35.15432815325156 23.0
    vertex -105.1316688722635 34.920356430073426 23.0
  endloop
endfacet
facet normal 0.9857628344183922 -0.16814170892261632 -2.538549191293447e-15
  outer loop
    vertex -105.09176028167644 35.15432815325156 23.0
    vertex -105.1316688722635 34.92035643007343 22.440000000000005
    vertex -105.09176028167644 35.154328153251576 22.440000000000005
  endloop
endfacet
facet normal 0.8872910039806658 -0.46121001100906517 -2.3274961205744536e-15
  outer loop
    vertex -105.1316688722635 34.92035643007343 22.440000000000005
    vertex -105.23867758620581 34.7144895430542 23.0
    vertex -105.23867758620581 34.7144895430542 22.440000000000005
  endloop
endfacet
facet normal 0.8872910039806658 -0.46121001100906517 -2.3274961205744536e-15
  outer loop
    vertex -105.23867758620581 34.7144895430542 23.0
    vertex -105.1316688722635 34.92035643007343 22.440000000000005
    vertex -105.1316688722635 34.920356430073426 23.0
  endloop
endfacet
facet normal 0.7907184982730818 -0.6121799216641807 1.900423592756358e-14
  outer loop
    vertex -105.23867758620581 34.7144895430542 22.440000000000005
    vertex -105.3910331972888 34.5177003382212 23.0
    vertex -105.39103319728879 34.517700338221196 22.44
  endloop
endfacet
facet normal 0.7907184982730818 -0.6121799216641807 1.900423592756358e-14
  outer loop
    vertex -105.3910331972888 34.5177003382212 23.0
    vertex -105.23867758620581 34.7144895430542 22.440000000000005
    vertex -105.23867758620581 34.7144895430542 23.0
  endloop
endfacet
facet normal 0.7616298452691873 -0.6480123292000189 3.7207132486070624e-14
  outer loop
    vertex -105.39103319728879 34.517700338221196 22.44
    vertex -105.56695480343758 34.31093398574144 23.0
    vertex -105.56695480343757 34.310933985741435 22.44
  endloop
endfacet
facet normal 0.7616298452691873 -0.6480123292000189 3.7207132486070624e-14
  outer loop
    vertex -105.56695480343758 34.31093398574144 23.0
    vertex -105.39103319728879 34.517700338221196 22.44
    vertex -105.3910331972888 34.5177003382212 23.0
  endloop
endfacet
facet normal 0.7625355105869087 -0.64694636183687 1.5359737153495385e-14
  outer loop
    vertex -105.75469400194467 34.089651644521815 22.440000000000005
    vertex -105.56695480343758 34.31093398574144 23.0
    vertex -105.75469400194467 34.08965164452181 23.0
  endloop
endfacet
facet normal 0.7625355105869087 -0.64694636183687 1.5359737153495385e-14
  outer loop
    vertex -105.56695480343758 34.31093398574144 23.0
    vertex -105.75469400194467 34.089651644521815 22.440000000000005
    vertex -105.56695480343757 34.310933985741435 22.44
  endloop
endfacet
facet normal 0.7565292828747416 -0.6539598184544897 8.648360076751693e-15
  outer loop
    vertex -105.93970712820985 33.87562037870704 22.440000000000005
    vertex -105.75469400194467 34.08965164452181 23.0
    vertex -105.93970712820988 33.87562037870703 23.0
  endloop
endfacet
facet normal 0.7565292828747416 -0.6539598184544897 8.648360076751693e-15
  outer loop
    vertex -105.75469400194467 34.08965164452181 23.0
    vertex -105.93970712820985 33.87562037870704 22.440000000000005
    vertex -105.75469400194467 34.089651644521815 22.440000000000005
  endloop
endfacet
facet normal 0.7602971874266007 -0.6495753896132461 8.777507800694195e-15
  outer loop
    vertex -106.09931381469772 33.6888083215208 22.440000000000005
    vertex -105.93970712820988 33.87562037870703 23.0
    vertex -106.09931381469772 33.688808321520796 23.0
  endloop
endfacet
facet normal 0.7602971874266007 -0.6495753896132461 8.777507800694195e-15
  outer loop
    vertex -105.93970712820988 33.87562037870703 23.0
    vertex -106.09931381469772 33.6888083215208 22.440000000000005
    vertex -105.93970712820985 33.87562037870704 22.440000000000005
  endloop
endfacet
facet normal 0.7852777833827684 -0.6191436044452416 -3.1158766939900216e-15
  outer loop
    vertex -106.09931381469772 33.6888083215208 22.440000000000005
    vertex -106.21086136973314 33.547329323545085 23.0
    vertex -106.21086136973314 33.547329323545085 22.440000000000005
  endloop
endfacet
facet normal 0.7852777833827684 -0.6191436044452416 -3.1158766939900216e-15
  outer loop
    vertex -106.21086136973314 33.547329323545085 23.0
    vertex -106.09931381469772 33.6888083215208 22.440000000000005
    vertex -106.09931381469772 33.688808321520796 23.0
  endloop
endfacet
facet normal 0.0 1.0 0.0
  outer loop
    vertex -106.21086136973314 33.547329323545085 23.0
    vertex -105.04642722246594 33.547329323545085 22.440000000000005
    vertex -106.21086136973314 33.547329323545085 22.440000000000005
  endloop
endfacet
facet normal 0.0 1.0 0.0
  outer loop
    vertex -105.04642722246594 33.547329323545085 22.440000000000005
    vertex -106.21086136973314 33.547329323545085 23.0
    vertex -105.04642722246594 33.547329323545085 23.0
  endloop
endfacet
facet normal -0.9915544151345604 -0.12969133289144605 -1.9596855797236775e-15
  outer loop
    vertex -111.70927989200035 35.904399319749544 23.0
    vertex -111.65307021968253 35.47464856064023 22.440000000000005
    vertex -111.65307021968253 35.47464856064023 23.0
  endloop
endfacet
facet normal -0.9915544151345604 -0.12969133289144605 -1.9596855797236775e-15
  outer loop
    vertex -111.65307021968253 35.47464856064023 22.440000000000005
    vertex -111.70927989200035 35.904399319749544 23.0
    vertex -111.70927989200035 35.90439931974955 22.440000000000005
  endloop
endfacet
facet normal -1.0 0.0 0.0
  outer loop
    vertex -111.65307021968253 35.47464856064023 23.0
    vertex -111.65307021968253 33.1845818222799 22.440000000000005
    vertex -111.65307021968253 33.1845818222799 23.0
  endloop
endfacet
facet normal -1.0 0.0 0.0
  outer loop
    vertex -111.65307021968253 33.1845818222799 22.440000000000005
    vertex -111.65307021968253 35.47464856064023 23.0
    vertex -111.65307021968253 35.47464856064023 22.440000000000005
  endloop
endfacet
facet normal 0.0 0.0 1.0
  outer loop
    vertex -111.02427467312383 33.1845818222799 23.0
    vertex -111.65307021968253 35.47464856064023 23.0
    vertex -111.65307021968253 33.1845818222799 23.0
  endloop
endfacet
facet normal 0.0 0.0 1.0
  outer loop
    vertex -109.58778681887281 33.1845818222799 23.0
    vertex -110.21481111037079 34.43331664009367 23.0
    vertex -110.21481111037079 33.1845818222799 23.0
  endloop
endfacet
facet normal 0.0 0.0 1.0
  outer loop
    vertex -110.21481111037079 34.43331664009367 23.0
    vertex -109.58778681887281 33.1845818222799 23.0
    vertex -110.21481111037079 34.84601906924347 23.0
  endloop
endfacet
facet normal 0.0 0.0 1.0
  outer loop
    vertex -110.21481111037079 34.84601906924347 23.0
    vertex -109.58778681887281 33.1845818222799 23.0
    vertex -110.21481111037079 35.904399319749544 23.0
  endloop
endfacet
facet normal 0.0 0.0 1.0
  outer loop
    vertex -110.21481111037079 35.904399319749544 23.0
    vertex -109.58778681887281 33.1845818222799 23.0
    vertex -109.58778681887281 35.940654696773834 23.0
  endloop
endfacet
facet normal 0.0 0.0 1.0
  outer loop
    vertex -110.21481111037079 34.43331664009367 23.0
    vertex -111.02427467312383 34.84601906924347 23.0
    vertex -111.02427467312383 34.43331664009367 23.0
  endloop
endfacet
facet normal 0.0 0.0 1.0
  outer loop
    vertex -111.02427467312383 34.84601906924347 23.0
    vertex -110.21481111037079 34.43331664009367 23.0
    vertex -110.21481111037079 34.84601906924347 23.0
  endloop
endfacet
facet normal 0.0 0.0 1.0
  outer loop
    vertex -111.65307021968253 35.47464856064023 23.0
    vertex -111.02427467312383 35.940654696773834 23.0
    vertex -111.70927989200035 35.904399319749544 23.0
  endloop
endfacet
facet normal 0.0 0.0 1.0
  outer loop
    vertex -111.02427467312383 35.940654696773834 23.0
    vertex -111.65307021968253 35.47464856064023 23.0
    vertex -111.02427467312383 33.1845818222799 23.0
  endloop
endfacet
facet normal 0.0 0.0 1.0
  outer loop
    vertex -111.02427467312383 35.940654696773834 23.0
    vertex -111.02427467312383 33.1845818222799 23.0
    vertex -111.02427467312383 34.43331664009367 23.0
  endloop
endfacet
facet normal 0.0 0.0 1.0
  outer loop
    vertex -111.02427467312383 35.940654696773834 23.0
    vertex -111.02427467312383 34.43331664009367 23.0
    vertex -111.02427467312383 34.84601906924347 23.0
  endloop
endfacet
facet normal -0.05285317785727099 0.9986022940041686 1.1121957340016746e-14
  outer loop
    vertex -111.70927989200035 35.904399319749544 23.0
    vertex -111.02427467312384 35.940654696773834 22.440000000000005
    vertex -111.70927989200035 35.90439931974955 22.440000000000005
  endloop
endfacet
facet normal -0.05285317785727099 0.9986022940041686 1.1121957340016746e-14
  outer loop
    vertex -111.02427467312384 35.940654696773834 22.440000000000005
    vertex -111.70927989200035 35.904399319749544 23.0
    vertex -111.02427467312383 35.940654696773834 23.0
  endloop
endfacet
facet normal -1.0 0.0 0.0
  outer loop
    vertex -110.21481111037079 34.43331664009367 23.0
    vertex -110.21481111037079 33.1845818222799 22.440000000000005
    vertex -110.21481111037079 33.1845818222799 23.0
  endloop
endfacet
facet normal -1.0 0.0 0.0
  outer loop
    vertex -110.21481111037079 33.1845818222799 22.440000000000005
    vertex -110.21481111037079 34.43331664009367 23.0
    vertex -110.21481111037079 34.43331664009367 22.440000000000005
  endloop
endfacet
facet normal 0.0 -1.0 0.0
  outer loop
    vertex -110.21481111037079 34.43331664009367 23.0
    vertex -111.02427467312383 34.43331664009367 22.440000000000005
    vertex -110.21481111037079 34.43331664009367 22.440000000000005
  endloop
endfacet
facet normal 0.0 -1.0 0.0
  outer loop
    vertex -111.02427467312383 34.43331664009367 22.440000000000005
    vertex -110.21481111037079 34.43331664009367 23.0
    vertex -111.02427467312383 34.43331664009367 23.0
  endloop
endfacet
facet normal 1.0 0.0 0.0
  outer loop
    vertex -111.02427467312383 34.43331664009367 22.440000000000005
    vertex -111.02427467312383 33.1845818222799 23.0
    vertex -111.02427467312383 33.1845818222799 22.440000000000005
  endloop
endfacet
facet normal 1.0 0.0 0.0
  outer loop
    vertex -111.02427467312383 33.1845818222799 23.0
    vertex -111.02427467312383 34.43331664009367 22.440000000000005
    vertex -111.02427467312383 34.43331664009367 23.0
  endloop
endfacet
facet normal 0.0 -1.0 0.0
  outer loop
    vertex -111.02427467312383 33.1845818222799 23.0
    vertex -111.65307021968253 33.1845818222799 22.440000000000005
    vertex -111.02427467312383 33.1845818222799 22.440000000000005
  endloop
endfacet
facet normal 0.0 -1.0 0.0
  outer loop
    vertex -111.65307021968253 33.1845818222799 22.440000000000005
    vertex -111.02427467312383 33.1845818222799 23.0
    vertex -111.65307021968253 33.1845818222799 23.0
  endloop
endfacet
facet normal 1.0 1.0304676411492627e-14 -2.0142617732485158e-14
  outer loop
    vertex -111.02427467312384 35.940654696773834 22.440000000000005
    vertex -111.02427467312383 34.84601906924347 23.0
    vertex -111.02427467312383 34.84601906924347 22.440000000000005
  endloop
endfacet
facet normal 1.0 1.0304676411492627e-14 -2.0142617732485158e-14
  outer loop
    vertex -111.02427467312383 34.84601906924347 23.0
    vertex -111.02427467312384 35.940654696773834 22.440000000000005
    vertex -111.02427467312383 35.940654696773834 23.0
  endloop
endfacet
facet normal 0.0 1.0 0.0
  outer loop
    vertex -111.02427467312383 34.84601906924347 23.0
    vertex -110.21481111037079 34.84601906924347 22.440000000000005
    vertex -111.02427467312383 34.84601906924347 22.440000000000005
  endloop
endfacet
facet normal 0.0 1.0 0.0
  outer loop
    vertex -110.21481111037079 34.84601906924347 22.440000000000005
    vertex -111.02427467312383 34.84601906924347 23.0
    vertex -110.21481111037079 34.84601906924347 23.0
  endloop
endfacet
facet normal -1.0 -1.0657668569304872e-14 2.0142617732485215e-14
  outer loop
    vertex -110.21481111037079 35.904399319749544 23.0
    vertex -110.21481111037079 34.84601906924347 22.440000000000005
    vertex -110.21481111037079 34.84601906924347 23.0
  endloop
endfacet
facet normal -1.0 -1.0657668569304872e-14 2.0142617732485215e-14
  outer loop
    vertex -110.21481111037079 34.84601906924347 22.440000000000005
    vertex -110.21481111037079 35.904399319749544 23.0
    vertex -110.21481111037082 35.90439931974954 22.440000000000005
  endloop
endfacet
facet normal -0.05772491218225243 0.9983325270237124 -7.728042214828127e-15
  outer loop
    vertex -110.21481111037079 35.904399319749544 23.0
    vertex -109.58778681887284 35.94065469677383 22.440000000000005
    vertex -110.21481111037082 35.90439931974954 22.440000000000005
  endloop
endfacet
facet normal -0.05772491218225243 0.9983325270237124 -7.728042214828127e-15
  outer loop
    vertex -109.58778681887284 35.94065469677383 22.440000000000005
    vertex -110.21481111037079 35.904399319749544 23.0
    vertex -109.58778681887281 35.940654696773834 23.0
  endloop
endfacet
facet normal 1.0 4.0927313768010605e-15 -2.0142617732485184e-14
  outer loop
    vertex -109.58778681887284 35.94065469677383 22.440000000000005
    vertex -109.58778681887281 33.1845818222799 23.0
    vertex -109.58778681887281 33.1845818222799 22.440000000000005
  endloop
endfacet
facet normal 1.0 4.0927313768010605e-15 -2.0142617732485184e-14
  outer loop
    vertex -109.58778681887281 33.1845818222799 23.0
    vertex -109.58778681887284 35.94065469677383 22.440000000000005
    vertex -109.58778681887281 35.940654696773834 23.0
  endloop
endfacet
facet normal 0.0 -1.0 0.0
  outer loop
    vertex -109.58778681887281 33.1845818222799 23.0
    vertex -110.21481111037079 33.1845818222799 22.440000000000005
    vertex -109.58778681887281 33.1845818222799 22.440000000000005
  endloop
endfacet
facet normal 0.0 -1.0 0.0
  outer loop
    vertex -110.21481111037079 33.1845818222799 22.440000000000005
    vertex -109.58778681887281 33.1845818222799 23.0
    vertex -110.21481111037079 33.1845818222799 23.0
  endloop
endfacet
facet normal 0.0 -1.0 0.0
  outer loop
    vertex -108.44001353952059 33.1845818222799 23.0
    vertex -109.07589410632221 33.1845818222799 22.440000000000005
    vertex -108.44001353952059 33.1845818222799 22.440000000000005
  endloop
endfacet
facet normal 0.0 -1.0 0.0
  outer loop
    vertex -109.07589410632221 33.1845818222799 22.440000000000005
    vertex -108.44001353952059 33.1845818222799 23.0
    vertex -109.07589410632221 33.1845818222799 23.0
  endloop
endfacet
facet normal -1.0 4.9240149015048224e-15 -2.014261773248516e-14
  outer loop
    vertex -109.07589410632221 35.47536813300865 23.0
    vertex -109.07589410632221 33.1845818222799 22.440000000000005
    vertex -109.07589410632221 33.1845818222799 23.0
  endloop
endfacet
facet normal -1.0 4.9240149015048224e-15 -2.014261773248516e-14
  outer loop
    vertex -109.07589410632221 33.1845818222799 22.440000000000005
    vertex -109.07589410632221 35.47536813300865 23.0
    vertex -109.07589410632218 35.47536813300865 22.440000000000005
  endloop
endfacet
facet normal -0.9892683397932424 -0.1461100676980266 -3.985254422824669e-14
  outer loop
    vertex -109.1393825299052 35.90522959555926 23.0
    vertex -109.07589410632218 35.47536813300865 22.440000000000005
    vertex -109.07589410632221 35.47536813300865 23.0
  endloop
endfacet
facet normal -0.9892683397932424 -0.1461100676980266 -3.985254422824669e-14
  outer loop
    vertex -109.07589410632218 35.47536813300865 22.440000000000005
    vertex -109.1393825299052 35.90522959555926 23.0
    vertex -109.13938252990519 35.90522959555926 22.440000000000005
  endloop
endfacet
facet normal 0.0 1.0 0.0
  outer loop
    vertex -109.1393825299052 35.90522959555926 23.0
    vertex -107.32235159620073 35.90522959555926 22.440000000000005
    vertex -109.13938252990519 35.90522959555926 22.440000000000005
  endloop
endfacet
facet normal 0.0 1.0 0.0
  outer loop
    vertex -107.32235159620073 35.90522959555926 22.440000000000005
    vertex -109.1393825299052 35.90522959555926 23.0
    vertex -107.32235159620076 35.90522959555926 23.0
  endloop
endfacet
facet normal 0.9930291603428018 -0.11786893869408704 4.000404838668071e-14
  outer loop
    vertex -107.32235159620073 35.90522959555926 22.440000000000005
    vertex -107.37133786897402 35.49252716640946 23.0
    vertex -107.371337868974 35.49252716640946 22.440000000000005
  endloop
endfacet
facet normal 0.9930291603428018 -0.11786893869408704 4.000404838668071e-14
  outer loop
    vertex -107.37133786897402 35.49252716640946 23.0
    vertex -107.32235159620073 35.90522959555926 22.440000000000005
    vertex -107.32235159620076 35.90522959555926 23.0
  endloop
endfacet
facet normal 0.0 -1.0 0.0
  outer loop
    vertex -107.37133786897402 35.49252716640946 23.0
    vertex -108.46721891021899 35.49252716640946 22.440000000000005
    vertex -107.371337868974 35.49252716640946 22.440000000000005
  endloop
endfacet
facet normal 0.0 -1.0 0.0
  outer loop
    vertex -108.46721891021899 35.49252716640946 22.440000000000005
    vertex -107.37133786897402 35.49252716640946 23.0
    vertex -108.46721891021896 35.49252716640946 23.0
  endloop
endfacet
facet normal 0.9941590688690796 0.10792472277177638 -2.0028020234758194e-14
  outer loop
    vertex -108.46721891021899 35.49252716640946 22.440000000000005
    vertex -108.44001353952059 35.24192225117667 23.0
    vertex -108.44001353952059 35.24192225117667 22.440000000000005
  endloop
endfacet
facet normal 0.9941590688690796 0.10792472277177638 -2.0028020234758194e-14
  outer loop
    vertex -108.44001353952059 35.24192225117667 23.0
    vertex -108.46721891021899 35.49252716640946 22.440000000000005
    vertex -108.46721891021896 35.49252716640946 23.0
  endloop
endfacet
facet normal 1.0 0.0 0.0
  outer loop
    vertex -108.44001353952059 35.24192225117667 22.440000000000005
    vertex -108.44001353952059 34.84601906924347 23.0
    vertex -108.44001353952059 34.84601906924347 22.440000000000005
  endloop
endfacet
facet normal 1.0 0.0 0.0
  outer loop
    vertex -108.44001353952059 34.84601906924347 23.0
    vertex -108.44001353952059 35.24192225117667 22.440000000000005
    vertex -108.44001353952059 35.24192225117667 23.0
  endloop
endfacet
facet normal 0.0 1.0 0.0
  outer loop
    vertex -108.44001353952059 34.84601906924347 23.0
    vertex -107.50833337757726 34.84601906924347 22.440000000000005
    vertex -108.44001353952059 34.84601906924347 22.440000000000005
  endloop
endfacet
facet normal 0.0 1.0 0.0
  outer loop
    vertex -107.50833337757726 34.84601906924347 22.440000000000005
    vertex -108.44001353952059 34.84601906924347 23.0
    vertex -107.50833337757726 34.84601906924347 23.0
  endloop
endfacet
facet normal 1.0 0.0 0.0
  outer loop
    vertex -107.50833337757726 34.84601906924347 22.440000000000005
    vertex -107.50833337757726 34.4598854660046 23.0
    vertex -107.50833337757726 34.4598854660046 22.440000000000005
  endloop
endfacet
facet normal 1.0 0.0 0.0
  outer loop
    vertex -107.50833337757726 34.4598854660046 23.0
    vertex -107.50833337757726 34.84601906924347 22.440000000000005
    vertex -107.50833337757726 34.84601906924347 23.0
  endloop
endfacet
facet normal 0.0 -1.0 0.0
  outer loop
    vertex -107.50833337757726 34.4598854660046 23.0
    vertex -108.44001353952059 34.4598854660046 22.440000000000005
    vertex -107.50833337757726 34.4598854660046 22.440000000000005
  endloop
endfacet
facet normal 0.0 -1.0 0.0
  outer loop
    vertex -108.44001353952059 34.4598854660046 22.440000000000005
    vertex -107.50833337757726 34.4598854660046 23.0
    vertex -108.44001353952059 34.4598854660046 23.0
  endloop
endfacet
facet normal 1.0 0.0 0.0
  outer loop
    vertex -108.44001353952059 34.4598854660046 22.440000000000005
    vertex -108.44001353952059 33.1845818222799 23.0
    vertex -108.44001353952059 33.1845818222799 22.440000000000005
  endloop
endfacet
facet normal 1.0 0.0 0.0
  outer loop
    vertex -108.44001353952059 33.1845818222799 23.0
    vertex -108.44001353952059 34.4598854660046 22.440000000000005
    vertex -108.44001353952059 34.4598854660046 23.0
  endloop
endfacet
facet normal 0.0 0.0 1.0
  outer loop
    vertex -107.50833337757726 34.4598854660046 23.0
    vertex -108.44001353952059 34.84601906924347 23.0
    vertex -108.44001353952059 34.4598854660046 23.0
  endloop
endfacet
facet normal 0.0 0.0 1.0
  outer loop
    vertex -108.44001353952059 34.84601906924347 23.0
    vertex -107.50833337757726 34.4598854660046 23.0
    vertex -107.50833337757726 34.84601906924347 23.0
  endloop
endfacet
facet normal 0.0 0.0 1.0
  outer loop
    vertex -108.44001353952059 33.1845818222799 23.0
    vertex -109.07589410632221 35.47536813300865 23.0
    vertex -109.07589410632221 33.1845818222799 23.0
  endloop
endfacet
facet normal 0.0 0.0 1.0
  outer loop
    vertex -109.07589410632221 35.47536813300865 23.0
    vertex -108.44001353952059 33.1845818222799 23.0
    vertex -108.46721891021896 35.49252716640946 23.0
  endloop
endfacet
facet normal 0.0 0.0 1.0
  outer loop
    vertex -108.46721891021896 35.49252716640946 23.0
    vertex -108.44001353952059 33.1845818222799 23.0
    vertex -108.44001353952059 35.24192225117667 23.0
  endloop
endfacet
facet normal 0.0 0.0 1.0
  outer loop
    vertex -108.44001353952059 35.24192225117667 23.0
    vertex -108.44001353952059 33.1845818222799 23.0
    vertex -108.44001353952059 34.4598854660046 23.0
  endloop
endfacet
facet normal 0.0 0.0 1.0
  outer loop
    vertex -108.44001353952059 35.24192225117667 23.0
    vertex -108.44001353952059 34.4598854660046 23.0
    vertex -108.44001353952059 34.84601906924347 23.0
  endloop
endfacet
facet normal 0.0 0.0 1.0
  outer loop
    vertex -109.07589410632221 35.47536813300865 23.0
    vertex -107.32235159620076 35.90522959555926 23.0
    vertex -109.1393825299052 35.90522959555926 23.0
  endloop
endfacet
facet normal 0.0 0.0 1.0
  outer loop
    vertex -107.32235159620076 35.90522959555926 23.0
    vertex -109.07589410632221 35.47536813300865 23.0
    vertex -108.46721891021896 35.49252716640946 23.0
  endloop
endfacet
facet normal 0.0 0.0 1.0
  outer loop
    vertex -107.32235159620076 35.90522959555926 23.0
    vertex -108.46721891021896 35.49252716640946 23.0
    vertex -107.37133786897402 35.49252716640946 23.0
  endloop
endfacet
endsolid RMP_Front
