solid RMP_Front
facet normal -1.0 0.0 0.0
  outer loop
    vertex -115.35643003666951 40.266648618986416 16.000000000000007
    vertex -115.35643003666951 29.066648618986413 8.000000000000004
    vertex -115.35643003666951 29.066648618986413 16.000000000000007
  endloop
endfacet
facet normal -1.0 0.0 0.0
  outer loop
    vertex -115.35643003666951 29.066648618986413 8.000000000000004
    vertex -115.35643003666951 40.266648618986416 16.000000000000007
    vertex -115.35643003666951 40.266648618986416 8.000000000000004
  endloop
endfacet
facet normal 1.0 0.0 0.0
  outer loop
    vertex -101.55643003666951 40.266648618986416 8.000000000000004
    vertex -101.55643003666951 29.066648618986413 16.000000000000007
    vertex -101.55643003666951 29.066648618986413 8.000000000000004
  endloop
endfacet
facet normal 1.0 0.0 0.0
  outer loop
    vertex -101.55643003666951 29.066648618986413 16.000000000000007
    vertex -101.55643003666951 40.266648618986416 8.000000000000004
    vertex -101.55643003666951 40.266648618986416 16.000000000000007
  endloop
endfacet
facet normal 1.0 0.0 0.0
  outer loop
    vertex -102.30643003666951 40.016648618986416 16.000000000000007
    vertex -102.30643003666951 29.316648618986413 23.000000000000007
    vertex -102.30643003666951 29.316648618986413 16.000000000000007
  endloop
endfacet
facet normal 1.0 0.0 0.0
  outer loop
    vertex -102.30643003666951 29.316648618986413 23.000000000000007
    vertex -102.30643003666951 40.016648618986416 16.000000000000007
    vertex -102.30643003666951 40.016648618986416 23.000000000000007
  endloop
endfacet
facet normal -1.0 0.0 0.0
  outer loop
    vertex -114.6064300366695 40.016648618986416 23.000000000000007
    vertex -114.6064300366695 29.316648618986413 16.000000000000007
    vertex -114.6064300366695 29.316648618986413 23.000000000000007
  endloop
endfacet
facet normal -1.0 0.0 0.0
  outer loop
    vertex -114.6064300366695 29.316648618986413 16.000000000000007
    vertex -114.6064300366695 40.016648618986416 23.000000000000007
    vertex -114.6064300366695 40.016648618986416 16.000000000000007
  endloop
endfacet
facet normal 0.0 -1.0 0.0
  outer loop
    vertex -101.55643003666951 29.066648618986413 16.000000000000007
    vertex -115.35643003666951 29.066648618986413 8.000000000000004
    vertex -101.55643003666951 29.066648618986413 8.000000000000004
  endloop
endfacet
facet normal 0.0 -1.0 0.0
  outer loop
    vertex -115.35643003666951 29.066648618986413 8.000000000000004
    vertex -101.55643003666951 29.066648618986413 16.000000000000007
    vertex -115.35643003666951 29.066648618986413 16.000000000000007
  endloop
endfacet
facet normal 0.0 0.0 -1.0
  outer loop
    vertex -115.35643003666951 40.266648618986416 8.000000000000004
    vertex -113.85643003666951 39.26664861898641 8.000000000000004
    vertex -115.35643003666951 29.066648618986413 8.000000000000004
  endloop
endfacet
facet normal 0.0 0.0 -1.0
  outer loop
    vertex -113.85643003666951 39.26664861898641 8.000000000000004
    vertex -115.35643003666951 40.266648618986416 8.000000000000004
    vertex -101.55643003666951 40.266648618986416 8.000000000000004
  endloop
endfacet
facet normal 0.0 0.0 -1.0
  outer loop
    vertex -113.85643003666951 39.26664861898641 8.000000000000004
    vertex -101.55643003666951 40.266648618986416 8.000000000000004
    vertex -103.05643003666951 39.26664861898641 8.000000000000004
  endloop
endfacet
facet normal 0.0 0.0 -1.0
  outer loop
    vertex -103.05643003666951 39.26664861898641 8.000000000000004
    vertex -101.55643003666951 40.266648618986416 8.000000000000004
    vertex -103.05643003666951 30.066648618986413 8.000000000000004
  endloop
endfacet
facet normal 0.0 0.0 -1.0
  outer loop
    vertex -115.35643003666951 29.066648618986413 8.000000000000004
    vertex -113.85643003666951 30.066648618986413 8.000000000000004
    vertex -101.55643003666951 29.066648618986413 8.000000000000004
  endloop
endfacet
facet normal 0.0 0.0 -1.0
  outer loop
    vertex -113.85643003666951 30.066648618986413 8.000000000000004
    vertex -115.35643003666951 29.066648618986413 8.000000000000004
    vertex -113.85643003666951 39.26664861898641 8.000000000000004
  endloop
endfacet
facet normal 0.0 0.0 -1.0
  outer loop
    vertex -101.55643003666951 29.066648618986413 8.000000000000004
    vertex -113.85643003666951 30.066648618986413 8.000000000000004
    vertex -103.05643003666951 30.066648618986413 8.000000000000004
  endloop
endfacet
facet normal 0.0 0.0 -1.0
  outer loop
    vertex -101.55643003666951 29.066648618986413 8.000000000000004
    vertex -103.05643003666951 30.066648618986413 8.000000000000004
    vertex -101.55643003666951 40.266648618986416 8.000000000000004
  endloop
endfacet
facet normal 0.0 0.0 1.0
  outer loop
    vertex -110.21481111037075 34.84601906924347 23.000000000000007
    vertex -110.21481111037083 35.904399319749544 23.000000000000007
    vertex -111.02427467312383 34.84601906924347 23.000000000000007
  endloop
endfacet
facet normal 0.0 0.0 1.0
  outer loop
    vertex -110.21481111037079 34.43331664009367 23.000000000000007
    vertex -111.02427467312383 34.43331664009367 23.000000000000007
    vertex -110.21481111037079 33.1845818222799 23.000000000000007
  endloop
endfacet
facet normal 0.0 0.0 1.0
  outer loop
    vertex -111.65307021968253 35.47464856064023 23.000000000000007
    vertex -111.70927989200035 35.904399319749544 23.000000000000007
    vertex -111.65307021968253 33.1845818222799 23.000000000000007
  endloop
endfacet
facet normal 0.0 0.0 1.0
  outer loop
    vertex -107.50833337757726 34.84601906924347 23.000000000000007
    vertex -108.44001353952058 35.24192225117667 23.000000000000007
    vertex -108.44001353952059 34.84601906924347 23.000000000000007
  endloop
endfacet
facet normal 0.0 0.0 1.0
  outer loop
    vertex -106.68153088833132 33.811246327593686 23.000000000000007
    vertex -106.87106901775948 35.330263597330536 23.000000000000007
    vertex -106.87832009316432 33.52920163503294 23.000000000000007
  endloop
endfacet
facet normal 0.0 0.0 1.0
  outer loop
    vertex -106.87106901775948 35.330263597330536 23.000000000000007
    vertex -106.68153088833132 33.811246327593686 23.000000000000007
    vertex -106.44845863061373 35.17245584176373 23.000000000000007
  endloop
endfacet
facet normal 0.0 0.0 1.0
  outer loop
    vertex -106.44845863061373 35.17245584176373 23.000000000000007
    vertex -106.68153088833132 33.811246327593686 23.000000000000007
    vertex -106.45208416831613 34.10144156101979 23.000000000000004
  endloop
endfacet
facet normal 0.0 0.0 1.0
  outer loop
    vertex -106.44845863061373 35.17245584176373 23.000000000000007
    vertex -106.45208416831613 34.10144156101979 23.000000000000004
    vertex -106.22173798284042 34.37078303369186 23.000000000000004
  endloop
endfacet
facet normal 0.0 0.0 1.0
  outer loop
    vertex -106.44845863061373 35.17245584176373 23.000000000000007
    vertex -106.22173798284042 34.37078303369186 23.000000000000004
    vertex -106.35504568305551 35.325278482989674 23.000000000000007
  endloop
endfacet
facet normal 0.0 0.0 1.0
  outer loop
    vertex -106.35504568305551 35.325278482989674 23.000000000000007
    vertex -106.22173798284042 34.37078303369186 23.000000000000004
    vertex -106.24894335353882 35.442724455756625 23.000000000000007
  endloop
endfacet
facet normal 0.0 0.0 1.0
  outer loop
    vertex -106.24894335353882 35.442724455756625 23.000000000000007
    vertex -106.22173798284042 34.37078303369186 23.000000000000004
    vertex -106.1274255698217 35.51754268465971 23.000000000000007
  endloop
endfacet
facet normal 0.0 0.0 1.0
  outer loop
    vertex -106.1274255698217 35.51754268465971 23.000000000000007
    vertex -106.22173798284042 34.37078303369186 23.000000000000004
    vertex -106.0240493125469 34.59023876813013 23.000000000000007
  endloop
endfacet
facet normal 0.0 0.0 1.0
  outer loop
    vertex -106.1274255698217 35.51754268465971 23.000000000000007
    vertex -106.0240493125469 34.59023876813013 23.000000000000007
    vertex -105.98776625966232 35.54248209429408 23.000000000000007
  endloop
endfacet
facet normal 0.0 0.0 1.0
  outer loop
    vertex -105.98776625966232 35.54248209429408 23.000000000000007
    vertex -106.0240493125469 34.59023876813013 23.000000000000007
    vertex -105.85717771272404 34.767986981060275 23.000000000000007
  endloop
endfacet
facet normal 0.0 0.0 1.0
  outer loop
    vertex -105.98776625966232 35.54248209429408 23.000000000000007
    vertex -105.85717771272404 34.767986981060275 23.000000000000007
    vertex -105.85535110594267 35.51073788250257 23.000000000000007
  endloop
endfacet
facet normal 0.0 0.0 1.0
  outer loop
    vertex -105.85535110594267 35.51073788250257 23.000000000000007
    vertex -105.85717771272404 34.767986981060275 23.000000000000007
    vertex -105.74652962314913 34.90221490363114 23.000000000000004
  endloop
endfacet
facet normal 0.0 0.0 1.0
  outer loop
    vertex -105.85535110594267 35.51073788250257 23.000000000000007
    vertex -105.74652962314913 34.90221490363114 23.000000000000004
    vertex -105.75378069855398 35.42639569816552 23.000000000000007
  endloop
endfacet
facet normal 0.0 0.0 1.0
  outer loop
    vertex -105.75378069855398 35.42639569816552 23.000000000000007
    vertex -105.74652962314913 34.90221490363114 23.000000000000004
    vertex -105.68939280951045 35.307597067725254 23.000000000000007
  endloop
endfacet
facet normal 0.0 0.0 1.0
  outer loop
    vertex -105.68939280951045 35.307597067725254 23.000000000000007
    vertex -105.74652962314913 34.90221490363114 23.000000000000004
    vertex -105.68576727180805 35.02646567855521 23.000000000000007
  endloop
endfacet
facet normal 0.0 0.0 1.0
  outer loop
    vertex -105.68939280951045 35.307597067725254 23.000000000000007
    vertex -105.68576727180805 35.02646567855521 23.000000000000007
    vertex -105.6667262799052 35.174282448545085 23.000000000000007
  endloop
endfacet
facet normal 0.0 0.0 1.0
  outer loop
    vertex -105.04642722246594 33.547329323545085 23.000000000000007
    vertex -106.09931381469772 33.688808321520796 23.000000000000007
    vertex -106.21086136973314 33.547329323545085 23.000000000000007
  endloop
endfacet
facet normal 0.0 0.0 1.0
  outer loop
    vertex -106.09931381469772 33.688808321520796 23.000000000000007
    vertex -105.04642722246594 33.547329323545085 23.000000000000007
    vertex -105.93970712820988 33.87562037870702 23.000000000000004
  endloop
endfacet
facet normal 0.0 0.0 1.0
  outer loop
    vertex -105.93970712820988 33.87562037870702 23.000000000000004
    vertex -105.04642722246594 33.547329323545085 23.000000000000007
    vertex -105.7546940019447 34.08965164452182 23.000000000000007
  endloop
endfacet
facet normal 0.0 0.0 1.0
  outer loop
    vertex -105.7546940019447 34.08965164452182 23.000000000000007
    vertex -105.04642722246594 33.547329323545085 23.000000000000007
    vertex -105.56695480343761 34.31093398574145 23.000000000000007
  endloop
endfacet
facet normal 0.0 0.0 1.0
  outer loop
    vertex -105.56695480343761 34.31093398574145 23.000000000000007
    vertex -105.04642722246594 33.547329323545085 23.000000000000007
    vertex -105.3910331972888 34.51770033822121 23.000000000000007
  endloop
endfacet
facet normal 0.0 0.0 1.0
  outer loop
    vertex -105.3910331972888 34.51770033822121 23.000000000000007
    vertex -105.04642722246594 33.547329323545085 23.000000000000007
    vertex -105.23867758620578 34.71448954305419 23.000000000000007
  endloop
endfacet
facet normal 0.0 0.0 1.0
  outer loop
    vertex -105.23867758620578 34.71448954305419 23.000000000000007
    vertex -105.04642722246594 33.547329323545085 23.000000000000007
    vertex -105.1316688722635 34.920356430073426 23.000000000000007
  endloop
endfacet
facet normal 0.0 0.0 1.0
  outer loop
    vertex -105.1316688722635 34.920356430073426 23.000000000000007
    vertex -105.04642722246594 33.547329323545085 23.000000000000007
    vertex -105.09176028167644 35.15432815325156 23.000000000000007
  endloop
endfacet
facet normal 0.0 0.0 1.0
  outer loop
    vertex -114.6064300366695 29.316648618986413 23.000000000000007
    vertex -111.65307021968253 33.1845818222799 23.000000000000007
    vertex -114.6064300366695 40.016648618986416 23.000000000000007
  endloop
endfacet
facet normal 0.0 0.0 1.0
  outer loop
    vertex -111.65307021968253 33.1845818222799 23.000000000000007
    vertex -114.6064300366695 29.316648618986413 23.000000000000007
    vertex -102.30643003666951 29.316648618986413 23.000000000000007
  endloop
endfacet
facet normal 0.0 0.0 1.0
  outer loop
    vertex -114.6064300366695 40.016648618986416 23.000000000000007
    vertex -111.65307021968253 33.1845818222799 23.000000000000007
    vertex -111.70927989200035 35.904399319749544 23.000000000000007
  endloop
endfacet
facet normal 0.0 0.0 1.0
  outer loop
    vertex -111.65307021968253 33.1845818222799 23.000000000000007
    vertex -102.30643003666951 29.316648618986413 23.000000000000007
    vertex -111.02427467312383 33.1845818222799 23.000000000000007
  endloop
endfacet
facet normal 0.0 0.0 1.0
  outer loop
    vertex -111.02427467312383 33.1845818222799 23.000000000000007
    vertex -102.30643003666951 29.316648618986413 23.000000000000007
    vertex -110.21481111037079 33.1845818222799 23.000000000000007
  endloop
endfacet
facet normal 0.0 0.0 1.0
  outer loop
    vertex -111.02427467312383 33.1845818222799 23.000000000000007
    vertex -110.21481111037079 33.1845818222799 23.000000000000007
    vertex -111.02427467312383 34.43331664009367 23.000000000000007
  endloop
endfacet
facet normal 0.0 0.0 1.0
  outer loop
    vertex -110.21481111037079 33.1845818222799 23.000000000000007
    vertex -102.30643003666951 29.316648618986413 23.000000000000007
    vertex -109.58778681887279 33.1845818222799 23.000000000000007
  endloop
endfacet
facet normal 0.0 0.0 1.0
  outer loop
    vertex -109.58778681887279 33.1845818222799 23.000000000000007
    vertex -102.30643003666951 29.316648618986413 23.000000000000007
    vertex -109.07589410632221 33.1845818222799 23.000000000000007
  endloop
endfacet
facet normal 0.0 0.0 1.0
  outer loop
    vertex -109.58778681887279 33.1845818222799 23.000000000000007
    vertex -109.07589410632221 33.1845818222799 23.000000000000007
    vertex -109.1393825299052 35.90522959555926 23.000000000000007
  endloop
endfacet
facet normal 0.0 0.0 1.0
  outer loop
    vertex -109.07589410632221 33.1845818222799 23.000000000000007
    vertex -102.30643003666951 29.316648618986413 23.000000000000007
    vertex -108.44001353952059 33.1845818222799 23.000000000000007
  endloop
endfacet
facet normal 0.0 0.0 1.0
  outer loop
    vertex -108.44001353952059 33.1845818222799 23.000000000000007
    vertex -102.30643003666951 29.316648618986413 23.000000000000007
    vertex -108.44001353952059 34.4598854660046 23.000000000000007
  endloop
endfacet
facet normal 0.0 0.0 1.0
  outer loop
    vertex -108.44001353952059 34.4598854660046 23.000000000000007
    vertex -102.30643003666951 29.316648618986413 23.000000000000007
    vertex -106.87832009316432 33.1845818222799 23.000000000000007
  endloop
endfacet
facet normal 0.0 0.0 1.0
  outer loop
    vertex -108.44001353952059 34.4598854660046 23.000000000000007
    vertex -106.87832009316432 33.1845818222799 23.000000000000007
    vertex -107.50833337757726 34.4598854660046 23.000000000000007
  endloop
endfacet
facet normal 0.0 0.0 1.0
  outer loop
    vertex -107.50833337757726 34.4598854660046 23.000000000000007
    vertex -106.87832009316432 33.1845818222799 23.000000000000007
    vertex -107.50833337757726 34.84601906924347 23.000000000000007
  endloop
endfacet
facet normal 0.0 0.0 1.0
  outer loop
    vertex -107.50833337757726 34.84601906924347 23.000000000000007
    vertex -106.87832009316432 33.1845818222799 23.000000000000007
    vertex -107.37133786897402 35.49252716640946 23.000000000000007
  endloop
endfacet
facet normal 0.0 0.0 1.0
  outer loop
    vertex -107.37133786897402 35.49252716640946 23.000000000000007
    vertex -106.87832009316432 33.1845818222799 23.000000000000007
    vertex -107.32235159620076 35.90522959555926 23.000000000000007
  endloop
endfacet
facet normal 0.0 0.0 1.0
  outer loop
    vertex -106.87832009316432 33.1845818222799 23.000000000000007
    vertex -102.30643003666951 29.316648618986413 23.000000000000007
    vertex -105.04642722246594 33.1845818222799 23.000000000000007
  endloop
endfacet
facet normal 0.0 0.0 1.0
  outer loop
    vertex -105.04642722246594 33.1845818222799 23.000000000000007
    vertex -102.30643003666951 29.316648618986413 23.000000000000007
    vertex -105.04642722246594 33.547329323545085 23.000000000000007
  endloop
endfacet
facet normal 0.0 0.0 1.0
  outer loop
    vertex -111.70927989200035 35.904399319749544 23.000000000000007
    vertex -102.30643003666951 40.016648618986416 23.000000000000007
    vertex -114.6064300366695 40.016648618986416 23.000000000000007
  endloop
endfacet
facet normal 0.0 0.0 1.0
  outer loop
    vertex -102.30643003666951 40.016648618986416 23.000000000000007
    vertex -111.70927989200035 35.904399319749544 23.000000000000007
    vertex -111.02427467312384 35.940654696773834 23.000000000000007
  endloop
endfacet
facet normal 0.0 0.0 1.0
  outer loop
    vertex -102.30643003666951 40.016648618986416 23.000000000000007
    vertex -111.02427467312384 35.940654696773834 23.000000000000007
    vertex -110.21481111037083 35.904399319749544 23.000000000000007
  endloop
endfacet
facet normal 0.0 0.0 1.0
  outer loop
    vertex -110.21481111037083 35.904399319749544 23.000000000000007
    vertex -111.02427467312384 35.940654696773834 23.000000000000007
    vertex -111.02427467312383 34.84601906924347 23.000000000000007
  endloop
endfacet
facet normal 0.0 0.0 1.0
  outer loop
    vertex -102.30643003666951 40.016648618986416 23.000000000000007
    vertex -110.21481111037083 35.904399319749544 23.000000000000007
    vertex -109.58778681887286 35.940654696773834 23.000000000000007
  endloop
endfacet
facet normal 0.0 0.0 1.0
  outer loop
    vertex -102.30643003666951 40.016648618986416 23.000000000000007
    vertex -109.58778681887286 35.940654696773834 23.000000000000007
    vertex -109.1393825299052 35.90522959555926 23.000000000000007
  endloop
endfacet
facet normal 0.0 0.0 1.0
  outer loop
    vertex -109.1393825299052 35.90522959555926 23.000000000000007
    vertex -109.58778681887286 35.940654696773834 23.000000000000007
    vertex -109.58778681887279 33.1845818222799 23.000000000000007
  endloop
endfacet
facet normal 0.0 0.0 1.0
  outer loop
    vertex -102.30643003666951 40.016648618986416 23.000000000000007
    vertex -109.1393825299052 35.90522959555926 23.000000000000007
    vertex -107.32235159620076 35.90522959555926 23.000000000000007
  endloop
endfacet
facet normal 0.0 0.0 1.0
  outer loop
    vertex -102.30643003666951 40.016648618986416 23.000000000000007
    vertex -107.32235159620076 35.90522959555926 23.000000000000007
    vertex -106.73594162972809 35.58056407809977 23.000000000000007
  endloop
endfacet
facet normal 0.0 0.0 1.0
  outer loop
    vertex -106.73594162972809 35.58056407809977 23.000000000000007
    vertex -107.32235159620076 35.90522959555926 23.000000000000007
    vertex -106.87106901775948 35.330263597330536 23.000000000000007
  endloop
endfacet
facet normal 0.0 0.0 1.0
  outer loop
    vertex -106.87106901775948 35.330263597330536 23.000000000000007
    vertex -107.32235159620076 35.90522959555926 23.000000000000007
    vertex -106.87832009316432 33.52920163503294 23.000000000000007
  endloop
endfacet
facet normal 0.0 0.0 1.0
  outer loop
    vertex -106.87832009316432 33.52920163503294 23.000000000000007
    vertex -107.32235159620076 35.90522959555926 23.000000000000007
    vertex -106.87832009316432 33.1845818222799 23.000000000000007
  endloop
endfacet
facet normal 0.0 0.0 1.0
  outer loop
    vertex -102.30643003666951 40.016648618986416 23.000000000000007
    vertex -106.73594162972809 35.58056407809977 23.000000000000007
    vertex -106.5391524248951 35.77191497637906 23.000000000000007
  endloop
endfacet
facet normal 0.0 0.0 1.0
  outer loop
    vertex -102.30643003666951 40.016648618986416 23.000000000000007
    vertex -106.5391524248951 35.77191497637906 23.000000000000007
    vertex -106.28068756533034 35.89343967906126 23.000000000000007
  endloop
endfacet
facet normal 0.0 0.0 1.0
  outer loop
    vertex -102.30643003666951 40.016648618986416 23.000000000000007
    vertex -106.28068756533034 35.89343967906126 23.000000000000007
    vertex -105.96056088896394 35.936060503960064 23.000000000000007
  endloop
endfacet
facet normal 0.0 0.0 1.0
  outer loop
    vertex -102.30643003666951 40.016648618986416 23.000000000000007
    vertex -105.96056088896394 35.936060503960064 23.000000000000007
    vertex -105.76512780128681 35.9190571472736 23.000000000000007
  endloop
endfacet
facet normal 0.0 0.0 1.0
  outer loop
    vertex -102.30643003666951 40.016648618986416 23.000000000000007
    vertex -105.76512780128681 35.9190571472736 23.000000000000007
    vertex -105.59236124321495 35.868047077214115 23.000000000000007
  endloop
endfacet
facet normal 0.0 0.0 1.0
  outer loop
    vertex -102.30643003666951 40.016648618986416 23.000000000000007
    vertex -105.59236124321495 35.868047077214115 23.000000000000007
    vertex -105.44339938450419 35.7893784442435 23.000000000000007
  endloop
endfacet
facet normal 0.0 0.0 1.0
  outer loop
    vertex -102.30643003666951 40.016648618986416 23.000000000000007
    vertex -105.44339938450419 35.7893784442435 23.000000000000007
    vertex -105.31938039491023 35.68939939882342 23.000000000000004
  endloop
endfacet
facet normal 0.0 0.0 1.0
  outer loop
    vertex -102.30643003666951 40.016648618986416 23.000000000000007
    vertex -105.31938039491023 35.68939939882342 23.000000000000004
    vertex -105.22121065885891 35.5712788269611 23.000000000000007
  endloop
endfacet
facet normal 0.0 0.0 1.0
  outer loop
    vertex -102.30643003666951 40.016648618986416 23.000000000000007
    vertex -105.22121065885891 35.5712788269611 23.000000000000007
    vertex -105.14979656077566 35.43818561466353 23.000000000000007
  endloop
endfacet
facet normal 0.0 0.0 1.0
  outer loop
    vertex -102.30643003666951 40.016648618986416 23.000000000000007
    vertex -105.14979656077566 35.43818561466353 23.000000000000007
    vertex -105.10626935145126 35.29693148305294 23.000000000000004
  endloop
endfacet
facet normal 0.0 0.0 1.0
  outer loop
    vertex -102.30643003666951 40.016648618986416 23.000000000000007
    vertex -105.10626935145126 35.29693148305294 23.000000000000004
    vertex -105.09176028167644 35.15432815325156 23.000000000000007
  endloop
endfacet
facet normal 0.0 0.0 1.0
  outer loop
    vertex -102.30643003666951 40.016648618986416 23.000000000000007
    vertex -105.09176028167644 35.15432815325156 23.000000000000007
    vertex -105.04642722246594 33.547329323545085 23.000000000000007
  endloop
endfacet
facet normal 0.0 0.0 1.0
  outer loop
    vertex -102.30643003666951 40.016648618986416 23.000000000000007
    vertex -105.04642722246594 33.547329323545085 23.000000000000007
    vertex -102.30643003666951 29.316648618986413 23.000000000000007
  endloop
endfacet
facet normal 0.0 0.0 1.0
  outer loop
    vertex -108.44001353952058 35.24192225117667 23.000000000000007
    vertex -107.37133786897402 35.49252716640946 23.000000000000007
    vertex -108.46721891021896 35.49252716640947 23.000000000000007
  endloop
endfacet
facet normal 0.0 0.0 1.0
  outer loop
    vertex -107.37133786897402 35.49252716640946 23.000000000000007
    vertex -108.44001353952058 35.24192225117667 23.000000000000007
    vertex -107.50833337757726 34.84601906924347 23.000000000000007
  endloop
endfacet
facet normal 0.0 0.0 1.0
  outer loop
    vertex -109.07589410632221 35.47536813300866 23.000000000000007
    vertex -109.1393825299052 35.90522959555926 23.000000000000007
    vertex -109.07589410632221 33.1845818222799 23.000000000000007
  endloop
endfacet
facet normal 0.0 1.0 0.0
  outer loop
    vertex -115.35643003666951 40.266648618986416 16.000000000000007
    vertex -101.55643003666951 40.266648618986416 8.000000000000004
    vertex -115.35643003666951 40.266648618986416 8.000000000000004
  endloop
endfacet
facet normal 0.0 1.0 0.0
  outer loop
    vertex -101.55643003666951 40.266648618986416 8.000000000000004
    vertex -115.35643003666951 40.266648618986416 16.000000000000007
    vertex -101.55643003666951 40.266648618986416 16.000000000000007
  endloop
endfacet
facet normal -1.0 0.0 0.0
  outer loop
    vertex -103.05643003666951 39.26664861898641 12.999999999999998
    vertex -103.05643003666951 30.066648618986413 8.000000000000004
    vertex -103.05643003666951 30.066648618986413 12.999999999999998
  endloop
endfacet
facet normal -1.0 0.0 0.0
  outer loop
    vertex -103.05643003666951 30.066648618986413 8.000000000000004
    vertex -103.05643003666951 39.26664861898641 12.999999999999998
    vertex -103.05643003666951 39.26664861898641 8.000000000000004
  endloop
endfacet
facet normal 0.0 1.0 0.0
  outer loop
    vertex -113.85643003666951 30.066648618986413 12.999999999999998
    vertex -103.05643003666951 30.066648618986413 8.000000000000004
    vertex -113.85643003666951 30.066648618986413 8.000000000000004
  endloop
endfacet
facet normal 0.0 1.0 0.0
  outer loop
    vertex -103.05643003666951 30.066648618986413 8.000000000000004
    vertex -113.85643003666951 30.066648618986413 12.999999999999998
    vertex -103.05643003666951 30.066648618986413 12.999999999999998
  endloop
endfacet
facet normal 1.0 0.0 0.0
  outer loop
    vertex -113.85643003666951 39.26664861898641 8.000000000000004
    vertex -113.85643003666951 30.066648618986413 12.999999999999998
    vertex -113.85643003666951 30.066648618986413 8.000000000000004
  endloop
endfacet
facet normal 1.0 0.0 0.0
  outer loop
    vertex -113.85643003666951 30.066648618986413 12.999999999999998
    vertex -113.85643003666951 39.26664861898641 8.000000000000004
    vertex -113.85643003666951 39.26664861898641 12.999999999999998
  endloop
endfacet
facet normal 0.0 -1.0 0.0
  outer loop
    vertex -103.05643003666951 39.26664861898641 12.999999999999998
    vertex -113.85643003666951 39.26664861898641 8.000000000000004
    vertex -103.05643003666951 39.26664861898641 8.000000000000004
  endloop
endfacet
facet normal 0.0 -1.0 0.0
  outer loop
    vertex -113.85643003666951 39.26664861898641 8.000000000000004
    vertex -103.05643003666951 39.26664861898641 12.999999999999998
    vertex -113.85643003666951 39.26664861898641 12.999999999999998
  endloop
endfacet
facet normal 0.0 -1.0 0.0
  outer loop
    vertex -102.30643003666951 29.316648618986413 23.000000000000007
    vertex -114.6064300366695 29.316648618986413 16.000000000000007
    vertex -102.30643003666951 29.316648618986413 16.000000000000007
  endloop
endfacet
facet normal 0.0 -1.0 0.0
  outer loop
    vertex -114.6064300366695 29.316648618986413 16.000000000000007
    vertex -102.30643003666951 29.316648618986413 23.000000000000007
    vertex -114.6064300366695 29.316648618986413 23.000000000000007
  endloop
endfacet
facet normal 0.0 0.0 1.0
  outer loop
    vertex -115.35643003666951 29.066648618986413 16.000000000000007
    vertex -114.6064300366695 29.316648618986413 16.000000000000007
    vertex -115.35643003666951 40.266648618986416 16.000000000000007
  endloop
endfacet
facet normal 0.0 0.0 1.0
  outer loop
    vertex -114.6064300366695 29.316648618986413 16.000000000000007
    vertex -115.35643003666951 29.066648618986413 16.000000000000007
    vertex -101.55643003666951 29.066648618986413 16.000000000000007
  endloop
endfacet
facet normal 0.0 0.0 1.0
  outer loop
    vertex -114.6064300366695 29.316648618986413 16.000000000000007
    vertex -101.55643003666951 29.066648618986413 16.000000000000007
    vertex -102.30643003666951 29.316648618986413 16.000000000000007
  endloop
endfacet
facet normal 0.0 0.0 1.0
  outer loop
    vertex -102.30643003666951 29.316648618986413 16.000000000000007
    vertex -101.55643003666951 29.066648618986413 16.000000000000007
    vertex -102.30643003666951 40.016648618986416 16.000000000000007
  endloop
endfacet
facet normal 0.0 0.0 1.0
  outer loop
    vertex -115.35643003666951 40.266648618986416 16.000000000000007
    vertex -114.6064300366695 40.016648618986416 16.000000000000007
    vertex -101.55643003666951 40.266648618986416 16.000000000000007
  endloop
endfacet
facet normal 0.0 0.0 1.0
  outer loop
    vertex -114.6064300366695 40.016648618986416 16.000000000000007
    vertex -115.35643003666951 40.266648618986416 16.000000000000007
    vertex -114.6064300366695 29.316648618986413 16.000000000000007
  endloop
endfacet
facet normal 0.0 0.0 1.0
  outer loop
    vertex -101.55643003666951 40.266648618986416 16.000000000000007
    vertex -114.6064300366695 40.016648618986416 16.000000000000007
    vertex -102.30643003666951 40.016648618986416 16.000000000000007
  endloop
endfacet
facet normal 0.0 0.0 1.0
  outer loop
    vertex -101.55643003666951 40.266648618986416 16.000000000000007
    vertex -102.30643003666951 40.016648618986416 16.000000000000007
    vertex -101.55643003666951 29.066648618986413 16.000000000000007
  endloop
endfacet
facet normal 0.0 1.0 0.0
  outer loop
    vertex -114.6064300366695 40.016648618986416 23.000000000000007
    vertex -102.30643003666951 40.016648618986416 16.000000000000007
    vertex -114.6064300366695 40.016648618986416 16.000000000000007
  endloop
endfacet
facet normal 0.0 1.0 0.0
  outer loop
    vertex -102.30643003666951 40.016648618986416 16.000000000000007
    vertex -114.6064300366695 40.016648618986416 23.000000000000007
    vertex -102.30643003666951 40.016648618986416 23.000000000000007
  endloop
endfacet
facet normal -1.0 0.0 0.0
  outer loop
    vertex -103.05643003666951 39.26664861898641 22.440000000000005
    vertex -103.05643003666951 30.066648618986413 12.999999999999998
    vertex -103.05643003666951 30.066648618986413 22.440000000000005
  endloop
endfacet
facet normal -1.0 0.0 0.0
  outer loop
    vertex -103.05643003666951 30.066648618986413 12.999999999999998
    vertex -103.05643003666951 39.26664861898641 22.440000000000005
    vertex -103.05643003666951 39.26664861898641 12.999999999999998
  endloop
endfacet
facet normal 1.0 0.0 0.0
  outer loop
    vertex -113.85643003666951 39.26664861898641 12.999999999999998
    vertex -113.85643003666951 30.066648618986413 22.440000000000005
    vertex -113.85643003666951 30.066648618986413 12.999999999999998
  endloop
endfacet
facet normal 1.0 0.0 0.0
  outer loop
    vertex -113.85643003666951 30.066648618986413 22.440000000000005
    vertex -113.85643003666951 39.26664861898641 12.999999999999998
    vertex -113.85643003666951 39.26664861898641 22.440000000000005
  endloop
endfacet
facet normal 0.0 0.0 -1.0
  outer loop
    vertex -109.07589410632218 35.47536813300865 22.440000000000005
    vertex -109.07589410632221 33.1845818222799 22.440000000000005
    vertex -109.13938252990519 35.90522959555926 22.440000000000005
  endloop
endfacet
facet normal 0.0 0.0 -1.0
  outer loop
    vertex -107.50833337757726 34.4598854660046 22.440000000000005
    vertex -108.44001353952059 33.1845818222799 22.440000000000005
    vertex -108.44001353952059 34.4598854660046 22.440000000000005
  endloop
endfacet
facet normal 0.0 0.0 -1.0
  outer loop
    vertex -107.371337868974 35.49252716640946 22.440000000000005
    vertex -108.44001353952059 35.24192225117667 22.440000000000005
    vertex -108.46721891021899 35.49252716640946 22.440000000000005
  endloop
endfacet
facet normal 0.0 0.0 -1.0
  outer loop
    vertex -108.44001353952059 35.24192225117667 22.440000000000005
    vertex -107.371337868974 35.49252716640946 22.440000000000005
    vertex -108.44001353952059 34.84601906924347 22.440000000000005
  endloop
endfacet
facet normal 0.0 0.0 -1.0
  outer loop
    vertex -108.44001353952059 34.84601906924347 22.440000000000005
    vertex -107.371337868974 35.49252716640946 22.440000000000005
    vertex -107.50833337757726 34.84601906924347 22.440000000000005
  endloop
endfacet
facet normal 0.0 0.0 -1.0
  outer loop
    vertex -107.50833337757726 34.84601906924347 22.440000000000005
    vertex -107.371337868974 35.49252716640946 22.440000000000005
    vertex -107.50833337757726 34.4598854660046 22.440000000000005
  endloop
endfacet
facet normal 0.0 0.0 -1.0
  outer loop
    vertex -110.21481111037079 34.84601906924347 22.440000000000005
    vertex -111.02427467312383 34.84601906924347 22.440000000000005
    vertex -110.21481111037086 35.90439931974954 22.440000000000005
  endloop
endfacet
facet normal 0.0 0.0 -1.0
  outer loop
    vertex -110.21481111037079 34.43331664009367 22.440000000000005
    vertex -111.02427467312383 33.1845818222799 22.440000000000005
    vertex -111.02427467312383 34.43331664009367 22.440000000000005
  endloop
endfacet
facet normal 0.0 0.0 -1.0
  outer loop
    vertex -113.85643003666951 39.26664861898641 22.440000000000005
    vertex -111.70927989200035 35.90439931974956 22.440000000000005
    vertex -113.85643003666951 30.066648618986413 22.440000000000005
  endloop
endfacet
facet normal 0.0 0.0 -1.0
  outer loop
    vertex -111.70927989200035 35.90439931974956 22.440000000000005
    vertex -113.85643003666951 39.26664861898641 22.440000000000005
    vertex -103.05643003666951 39.26664861898641 22.440000000000005
  endloop
endfacet
facet normal 0.0 0.0 -1.0
  outer loop
    vertex -111.70927989200035 35.90439931974956 22.440000000000005
    vertex -103.05643003666951 39.26664861898641 22.440000000000005
    vertex -111.02427467312383 35.940654696773834 22.440000000000005
  endloop
endfacet
facet normal 0.0 0.0 -1.0
  outer loop
    vertex -111.02427467312383 35.940654696773834 22.440000000000005
    vertex -103.05643003666951 39.26664861898641 22.440000000000005
    vertex -110.21481111037086 35.90439931974954 22.440000000000005
  endloop
endfacet
facet normal 0.0 0.0 -1.0
  outer loop
    vertex -111.02427467312383 35.940654696773834 22.440000000000005
    vertex -110.21481111037086 35.90439931974954 22.440000000000005
    vertex -111.02427467312383 34.84601906924347 22.440000000000005
  endloop
endfacet
facet normal 0.0 0.0 -1.0
  outer loop
    vertex -110.21481111037086 35.90439931974954 22.440000000000005
    vertex -103.05643003666951 39.26664861898641 22.440000000000005
    vertex -109.58778681887284 35.94065469677383 22.440000000000005
  endloop
endfacet
facet normal 0.0 0.0 -1.0
  outer loop
    vertex -109.58778681887284 35.94065469677383 22.440000000000005
    vertex -103.05643003666951 39.26664861898641 22.440000000000005
    vertex -109.13938252990519 35.90522959555926 22.440000000000005
  endloop
endfacet
facet normal 0.0 0.0 -1.0
  outer loop
    vertex -109.58778681887284 35.94065469677383 22.440000000000005
    vertex -109.13938252990519 35.90522959555926 22.440000000000005
    vertex -109.58778681887281 33.1845818222799 22.440000000000005
  endloop
endfacet
facet normal 0.0 0.0 -1.0
  outer loop
    vertex -109.13938252990519 35.90522959555926 22.440000000000005
    vertex -103.05643003666951 39.26664861898641 22.440000000000005
    vertex -107.32235159620073 35.90522959555926 22.440000000000005
  endloop
endfacet
facet normal 0.0 0.0 -1.0
  outer loop
    vertex -107.32235159620073 35.90522959555926 22.440000000000005
    vertex -103.05643003666951 39.26664861898641 22.440000000000005
    vertex -106.73594162972812 35.58056407809979 22.440000000000005
  endloop
endfacet
facet normal 0.0 0.0 -1.0
  outer loop
    vertex -107.32235159620073 35.90522959555926 22.440000000000005
    vertex -106.73594162972812 35.58056407809979 22.440000000000005
    vertex -106.87106901775952 35.330263597330536 22.440000000000005
  endloop
endfacet
facet normal 0.0 0.0 -1.0
  outer loop
    vertex -107.32235159620073 35.90522959555926 22.440000000000005
    vertex -106.87106901775952 35.330263597330536 22.440000000000005
    vertex -106.87832009316432 33.52920163503294 22.440000000000005
  endloop
endfacet
facet normal 0.0 0.0 -1.0
  outer loop
    vertex -106.73594162972812 35.58056407809979 22.440000000000005
    vertex -103.05643003666951 39.26664861898641 22.440000000000005
    vertex -106.53915242489512 35.771914976379094 22.440000000000005
  endloop
endfacet
facet normal 0.0 0.0 -1.0
  outer loop
    vertex -106.53915242489512 35.771914976379094 22.440000000000005
    vertex -103.05643003666951 39.26664861898641 22.440000000000005
    vertex -106.28068756533034 35.89343967906128 22.440000000000005
  endloop
endfacet
facet normal 0.0 0.0 -1.0
  outer loop
    vertex -106.28068756533034 35.89343967906128 22.440000000000005
    vertex -103.05643003666951 39.26664861898641 22.440000000000005
    vertex -105.96056088896394 35.936060503960064 22.440000000000005
  endloop
endfacet
facet normal 0.0 0.0 -1.0
  outer loop
    vertex -105.96056088896394 35.936060503960064 22.440000000000005
    vertex -103.05643003666951 39.26664861898641 22.440000000000005
    vertex -105.76512780128681 35.91905714727359 22.440000000000005
  endloop
endfacet
facet normal 0.0 0.0 -1.0
  outer loop
    vertex -105.76512780128681 35.91905714727359 22.440000000000005
    vertex -103.05643003666951 39.26664861898641 22.440000000000005
    vertex -105.59236124321494 35.86804707721413 22.440000000000005
  endloop
endfacet
facet normal 0.0 0.0 -1.0
  outer loop
    vertex -105.59236124321494 35.86804707721413 22.440000000000005
    vertex -103.05643003666951 39.26664861898641 22.440000000000005
    vertex -105.44339938450412 35.789378444243475 22.440000000000005
  endloop
endfacet
facet normal 0.0 0.0 -1.0
  outer loop
    vertex -105.44339938450412 35.789378444243475 22.440000000000005
    vertex -103.05643003666951 39.26664861898641 22.440000000000005
    vertex -105.31938039491023 35.68939939882343 22.440000000000005
  endloop
endfacet
facet normal 0.0 0.0 -1.0
  outer loop
    vertex -105.31938039491023 35.68939939882343 22.440000000000005
    vertex -103.05643003666951 39.26664861898641 22.440000000000005
    vertex -105.22121065885891 35.57127882696111 22.440000000000005
  endloop
endfacet
facet normal 0.0 0.0 -1.0
  outer loop
    vertex -105.22121065885891 35.57127882696111 22.440000000000005
    vertex -103.05643003666951 39.26664861898641 22.440000000000005
    vertex -105.14979656077567 35.438185614663546 22.440000000000005
  endloop
endfacet
facet normal 0.0 0.0 -1.0
  outer loop
    vertex -105.14979656077567 35.438185614663546 22.440000000000005
    vertex -103.05643003666951 39.26664861898641 22.440000000000005
    vertex -105.10626935145126 35.29693148305295 22.440000000000005
  endloop
endfacet
facet normal 0.0 0.0 -1.0
  outer loop
    vertex -105.10626935145126 35.29693148305295 22.440000000000005
    vertex -103.05643003666951 39.26664861898641 22.440000000000005
    vertex -105.09176028167644 35.154328153251576 22.440000000000005
  endloop
endfacet
facet normal 0.0 0.0 -1.0
  outer loop
    vertex -105.09176028167644 35.154328153251576 22.440000000000005
    vertex -103.05643003666951 39.26664861898641 22.440000000000005
    vertex -105.04642722246594 33.547329323545085 22.440000000000005
  endloop
endfacet
facet normal 0.0 0.0 -1.0
  outer loop
    vertex -105.04642722246594 33.547329323545085 22.440000000000005
    vertex -103.05643003666951 39.26664861898641 22.440000000000005
    vertex -105.04642722246594 33.1845818222799 22.440000000000005
  endloop
endfacet
facet normal 0.0 0.0 -1.0
  outer loop
    vertex -113.85643003666951 30.066648618986413 22.440000000000005
    vertex -111.65307021968253 33.1845818222799 22.440000000000005
    vertex -103.05643003666951 30.066648618986413 22.440000000000005
  endloop
endfacet
facet normal 0.0 0.0 -1.0
  outer loop
    vertex -111.65307021968253 33.1845818222799 22.440000000000005
    vertex -113.85643003666951 30.066648618986413 22.440000000000005
    vertex -111.70927989200035 35.90439931974956 22.440000000000005
  endloop
endfacet
facet normal 0.0 0.0 -1.0
  outer loop
    vertex -111.65307021968253 33.1845818222799 22.440000000000005
    vertex -111.70927989200035 35.90439931974956 22.440000000000005
    vertex -111.65307021968253 35.47464856064023 22.440000000000005
  endloop
endfacet
facet normal 0.0 0.0 -1.0
  outer loop
    vertex -103.05643003666951 30.066648618986413 22.440000000000005
    vertex -111.65307021968253 33.1845818222799 22.440000000000005
    vertex -111.02427467312383 33.1845818222799 22.440000000000005
  endloop
endfacet
facet normal 0.0 0.0 -1.0
  outer loop
    vertex -103.05643003666951 30.066648618986413 22.440000000000005
    vertex -111.02427467312383 33.1845818222799 22.440000000000005
    vertex -110.21481111037079 33.1845818222799 22.440000000000005
  endloop
endfacet
facet normal 0.0 0.0 -1.0
  outer loop
    vertex -110.21481111037079 33.1845818222799 22.440000000000005
    vertex -111.02427467312383 33.1845818222799 22.440000000000005
    vertex -110.21481111037079 34.43331664009367 22.440000000000005
  endloop
endfacet
facet normal 0.0 0.0 -1.0
  outer loop
    vertex -103.05643003666951 30.066648618986413 22.440000000000005
    vertex -110.21481111037079 33.1845818222799 22.440000000000005
    vertex -109.58778681887281 33.1845818222799 22.440000000000005
  endloop
endfacet
facet normal 0.0 0.0 -1.0
  outer loop
    vertex -103.05643003666951 30.066648618986413 22.440000000000005
    vertex -109.58778681887281 33.1845818222799 22.440000000000005
    vertex -109.07589410632221 33.1845818222799 22.440000000000005
  endloop
endfacet
facet normal 0.0 0.0 -1.0
  outer loop
    vertex -109.07589410632221 33.1845818222799 22.440000000000005
    vertex -109.58778681887281 33.1845818222799 22.440000000000005
    vertex -109.13938252990519 35.90522959555926 22.440000000000005
  endloop
endfacet
facet normal 0.0 0.0 -1.0
  outer loop
    vertex -103.05643003666951 30.066648618986413 22.440000000000005
    vertex -109.07589410632221 33.1845818222799 22.440000000000005
    vertex -108.44001353952059 33.1845818222799 22.440000000000005
  endloop
endfacet
facet normal 0.0 0.0 -1.0
  outer loop
    vertex -103.05643003666951 30.066648618986413 22.440000000000005
    vertex -108.44001353952059 33.1845818222799 22.440000000000005
    vertex -106.87832009316432 33.1845818222799 22.440000000000005
  endloop
endfacet
facet normal 0.0 0.0 -1.0
  outer loop
    vertex -106.87832009316432 33.1845818222799 22.440000000000005
    vertex -108.44001353952059 33.1845818222799 22.440000000000005
    vertex -107.50833337757726 34.4598854660046 22.440000000000005
  endloop
endfacet
facet normal 0.0 0.0 -1.0
  outer loop
    vertex -106.87832009316432 33.1845818222799 22.440000000000005
    vertex -107.50833337757726 34.4598854660046 22.440000000000005
    vertex -107.371337868974 35.49252716640946 22.440000000000005
  endloop
endfacet
facet normal 0.0 0.0 -1.0
  outer loop
    vertex -106.87832009316432 33.1845818222799 22.440000000000005
    vertex -107.371337868974 35.49252716640946 22.440000000000005
    vertex -107.32235159620073 35.90522959555926 22.440000000000005
  endloop
endfacet
facet normal 0.0 0.0 -1.0
  outer loop
    vertex -106.87832009316432 33.1845818222799 22.440000000000005
    vertex -107.32235159620073 35.90522959555926 22.440000000000005
    vertex -106.87832009316432 33.52920163503294 22.440000000000005
  endloop
endfacet
facet normal 0.0 0.0 -1.0
  outer loop
    vertex -103.05643003666951 30.066648618986413 22.440000000000005
    vertex -106.87832009316432 33.1845818222799 22.440000000000005
    vertex -105.04642722246594 33.1845818222799 22.440000000000005
  endloop
endfacet
facet normal 0.0 0.0 -1.0
  outer loop
    vertex -103.05643003666951 30.066648618986413 22.440000000000005
    vertex -105.04642722246594 33.1845818222799 22.440000000000005
    vertex -103.05643003666951 39.26664861898641 22.440000000000005
  endloop
endfacet
facet normal 0.0 0.0 -1.0
  outer loop
    vertex -106.09931381469772 33.688808321520796 22.440000000000005
    vertex -105.04642722246594 33.547329323545085 22.440000000000005
    vertex -106.21086136973314 33.547329323545085 22.440000000000005
  endloop
endfacet
facet normal 0.0 0.0 -1.0
  outer loop
    vertex -105.04642722246594 33.547329323545085 22.440000000000005
    vertex -106.09931381469772 33.688808321520796 22.440000000000005
    vertex -105.93970712820985 33.87562037870704 22.440000000000005
  endloop
endfacet
facet normal 0.0 0.0 -1.0
  outer loop
    vertex -105.04642722246594 33.547329323545085 22.440000000000005
    vertex -105.93970712820985 33.87562037870704 22.440000000000005
    vertex -105.75469400194467 34.08965164452181 22.440000000000005
  endloop
endfacet
facet normal 0.0 0.0 -1.0
  outer loop
    vertex -105.04642722246594 33.547329323545085 22.440000000000005
    vertex -105.75469400194467 34.08965164452181 22.440000000000005
    vertex -105.56695480343758 34.31093398574145 22.440000000000005
  endloop
endfacet
facet normal 0.0 0.0 -1.0
  outer loop
    vertex -105.04642722246594 33.547329323545085 22.440000000000005
    vertex -105.56695480343758 34.31093398574145 22.440000000000005
    vertex -105.3910331972888 34.5177003382212 22.440000000000005
  endloop
endfacet
facet normal 0.0 0.0 -1.0
  outer loop
    vertex -105.04642722246594 33.547329323545085 22.440000000000005
    vertex -105.3910331972888 34.5177003382212 22.440000000000005
    vertex -105.23867758620581 34.714489543054206 22.440000000000005
  endloop
endfacet
facet normal 0.0 0.0 -1.0
  outer loop
    vertex -105.04642722246594 33.547329323545085 22.440000000000005
    vertex -105.23867758620581 34.714489543054206 22.440000000000005
    vertex -105.1316688722635 34.92035643007343 22.440000000000005
  endloop
endfacet
facet normal 0.0 0.0 -1.0
  outer loop
    vertex -105.04642722246594 33.547329323545085 22.440000000000005
    vertex -105.1316688722635 34.92035643007343 22.440000000000005
    vertex -105.09176028167644 35.154328153251576 22.440000000000005
  endloop
endfacet
facet normal 0.0 0.0 -1.0
  outer loop
    vertex -106.87106901775952 35.330263597330536 22.440000000000005
    vertex -106.68153088833132 33.811246327593686 22.440000000000005
    vertex -106.87832009316432 33.52920163503294 22.440000000000005
  endloop
endfacet
facet normal 0.0 0.0 -1.0
  outer loop
    vertex -106.68153088833132 33.811246327593686 22.440000000000005
    vertex -106.87106901775952 35.330263597330536 22.440000000000005
    vertex -106.44845863061374 35.17245584176372 22.440000000000005
  endloop
endfacet
facet normal 0.0 0.0 -1.0
  outer loop
    vertex -106.68153088833132 33.811246327593686 22.440000000000005
    vertex -106.44845863061374 35.17245584176372 22.440000000000005
    vertex -106.45208416831613 34.1014415610198 22.440000000000005
  endloop
endfacet
facet normal 0.0 0.0 -1.0
  outer loop
    vertex -106.45208416831613 34.1014415610198 22.440000000000005
    vertex -106.44845863061374 35.17245584176372 22.440000000000005
    vertex -106.22173798284042 34.370783033691865 22.440000000000005
  endloop
endfacet
facet normal 0.0 0.0 -1.0
  outer loop
    vertex -106.22173798284042 34.370783033691865 22.440000000000005
    vertex -106.44845863061374 35.17245584176372 22.440000000000005
    vertex -106.35504568305552 35.32527848298969 22.440000000000005
  endloop
endfacet
facet normal 0.0 0.0 -1.0
  outer loop
    vertex -106.22173798284042 34.370783033691865 22.440000000000005
    vertex -106.35504568305552 35.32527848298969 22.440000000000005
    vertex -106.24894335353882 35.442724455756625 22.440000000000005
  endloop
endfacet
facet normal 0.0 0.0 -1.0
  outer loop
    vertex -106.22173798284042 34.370783033691865 22.440000000000005
    vertex -106.24894335353882 35.442724455756625 22.440000000000005
    vertex -106.12742556982172 35.517542684659695 22.440000000000005
  endloop
endfacet
facet normal 0.0 0.0 -1.0
  outer loop
    vertex -106.22173798284042 34.370783033691865 22.440000000000005
    vertex -106.12742556982172 35.517542684659695 22.440000000000005
    vertex -106.02404931254688 34.590238768130114 22.440000000000005
  endloop
endfacet
facet normal 0.0 0.0 -1.0
  outer loop
    vertex -106.02404931254688 34.590238768130114 22.440000000000005
    vertex -106.12742556982172 35.517542684659695 22.440000000000005
    vertex -105.98776625966227 35.54248209429406 22.440000000000005
  endloop
endfacet
facet normal 0.0 0.0 -1.0
  outer loop
    vertex -106.02404931254688 34.590238768130114 22.440000000000005
    vertex -105.98776625966227 35.54248209429406 22.440000000000005
    vertex -105.85717771272401 34.76798698106027 22.440000000000005
  endloop
endfacet
facet normal 0.0 0.0 -1.0
  outer loop
    vertex -105.85717771272401 34.76798698106027 22.440000000000005
    vertex -105.98776625966227 35.54248209429406 22.440000000000005
    vertex -105.85535110594265 35.51073788250256 22.440000000000005
  endloop
endfacet
facet normal 0.0 0.0 -1.0
  outer loop
    vertex -105.85717771272401 34.76798698106027 22.440000000000005
    vertex -105.85535110594265 35.51073788250256 22.440000000000005
    vertex -105.74652962314913 34.90221490363112 22.440000000000005
  endloop
endfacet
facet normal 0.0 0.0 -1.0
  outer loop
    vertex -105.74652962314913 34.90221490363112 22.440000000000005
    vertex -105.85535110594265 35.51073788250256 22.440000000000005
    vertex -105.75378069855398 35.42639569816551 22.440000000000005
  endloop
endfacet
facet normal 0.0 0.0 -1.0
  outer loop
    vertex -105.74652962314913 34.90221490363112 22.440000000000005
    vertex -105.75378069855398 35.42639569816551 22.440000000000005
    vertex -105.68939280951045 35.307597067725254 22.440000000000005
  endloop
endfacet
facet normal 0.0 0.0 -1.0
  outer loop
    vertex -105.74652962314913 34.90221490363112 22.440000000000005
    vertex -105.68939280951045 35.307597067725254 22.440000000000005
    vertex -105.68576727180802 35.02646567855522 22.440000000000005
  endloop
endfacet
facet normal 0.0 0.0 -1.0
  outer loop
    vertex -105.68576727180802 35.02646567855522 22.440000000000005
    vertex -105.68939280951045 35.307597067725254 22.440000000000005
    vertex -105.66672627990519 35.174282448545085 22.440000000000005
  endloop
endfacet
facet normal 0.0 1.0 0.0
  outer loop
    vertex -113.85643003666951 30.066648618986413 22.440000000000005
    vertex -103.05643003666951 30.066648618986413 12.999999999999998
    vertex -113.85643003666951 30.066648618986413 12.999999999999998
  endloop
endfacet
facet normal 0.0 1.0 0.0
  outer loop
    vertex -103.05643003666951 30.066648618986413 12.999999999999998
    vertex -113.85643003666951 30.066648618986413 22.440000000000005
    vertex -103.05643003666951 30.066648618986413 22.440000000000005
  endloop
endfacet
facet normal 0.0 -1.0 0.0
  outer loop
    vertex -103.05643003666951 39.26664861898641 22.440000000000005
    vertex -113.85643003666951 39.26664861898641 12.999999999999998
    vertex -103.05643003666951 39.26664861898641 12.999999999999998
  endloop
endfacet
facet normal 0.0 -1.0 0.0
  outer loop
    vertex -113.85643003666951 39.26664861898641 12.999999999999998
    vertex -103.05643003666951 39.26664861898641 22.440000000000005
    vertex -113.85643003666951 39.26664861898641 22.440000000000005
  endloop
endfacet
facet normal 0.0 1.0 0.0
  outer loop
    vertex -106.87832009316432 33.1845818222799 23.000000000000007
    vertex -105.04642722246594 33.1845818222799 22.440000000000005
    vertex -106.87832009316432 33.1845818222799 22.440000000000005
  endloop
endfacet
facet normal 0.0 1.0 0.0
  outer loop
    vertex -105.04642722246594 33.1845818222799 22.440000000000005
    vertex -106.87832009316432 33.1845818222799 23.000000000000007
    vertex -105.04642722246594 33.1845818222799 23.000000000000007
  endloop
endfacet
facet normal -1.0 0.0 0.0
  outer loop
    vertex -105.04642722246594 33.547329323545085 23.000000000000007
    vertex -105.04642722246594 33.1845818222799 22.440000000000005
    vertex -105.04642722246594 33.1845818222799 23.000000000000007
  endloop
endfacet
facet normal -1.0 0.0 0.0
  outer loop
    vertex -105.04642722246594 33.1845818222799 22.440000000000005
    vertex -105.04642722246594 33.547329323545085 23.000000000000007
    vertex -105.04642722246594 33.547329323545085 22.440000000000005
  endloop
endfacet
facet normal 1.0 0.0 0.0
  outer loop
    vertex -106.87832009316432 33.52920163503294 22.440000000000005
    vertex -106.87832009316432 33.1845818222799 23.000000000000007
    vertex -106.87832009316432 33.1845818222799 22.440000000000005
  endloop
endfacet
facet normal 1.0 0.0 0.0
  outer loop
    vertex -106.87832009316432 33.1845818222799 23.000000000000007
    vertex -106.87832009316432 33.52920163503294 22.440000000000005
    vertex -106.87832009316432 33.52920163503294 23.000000000000007
  endloop
endfacet
facet normal 0.8201080722343554 -0.5722086593682842 0.0
  outer loop
    vertex -106.68153088833132 33.811246327593686 22.440000000000005
    vertex -106.87832009316432 33.52920163503294 23.000000000000007
    vertex -106.87832009316432 33.52920163503294 22.440000000000005
  endloop
endfacet
facet normal 0.8201080722343554 -0.5722086593682842 0.0
  outer loop
    vertex -106.87832009316432 33.52920163503294 23.000000000000007
    vertex -106.68153088833132 33.811246327593686 22.440000000000005
    vertex -106.68153088833132 33.811246327593686 23.000000000000007
  endloop
endfacet
facet normal 0.7844287112938795 -0.6202189910812338 -3.1161674408190857e-15
  outer loop
    vertex -106.45208416831613 34.1014415610198 22.440000000000005
    vertex -106.68153088833132 33.811246327593686 23.000000000000007
    vertex -106.68153088833132 33.811246327593686 22.440000000000005
  endloop
endfacet
facet normal 0.7844287112938795 -0.6202189910812338 -3.1161674408190857e-15
  outer loop
    vertex -106.68153088833132 33.811246327593686 23.000000000000007
    vertex -106.45208416831613 34.1014415610198 22.440000000000005
    vertex -106.45208416831613 34.10144156101979 23.000000000000004
  endloop
endfacet
facet normal 0.7599782438443932 -0.6499485124863293 -6.541808419919771e-15
  outer loop
    vertex -106.45208416831613 34.1014415610198 22.440000000000005
    vertex -106.22173798284042 34.37078303369186 23.000000000000004
    vertex -106.45208416831613 34.10144156101979 23.000000000000004
  endloop
endfacet
facet normal 0.7599782438443932 -0.6499485124863293 -6.541808419919771e-15
  outer loop
    vertex -106.22173798284042 34.37078303369186 23.000000000000004
    vertex -106.45208416831613 34.1014415610198 22.440000000000005
    vertex -106.22173798284042 34.370783033691865 22.440000000000005
  endloop
endfacet
facet normal 0.7429935585048906 -0.6692985671733056 1.834519803432956e-14
  outer loop
    vertex -106.22173798284042 34.370783033691865 22.440000000000005
    vertex -106.0240493125469 34.59023876813013 23.000000000000007
    vertex -106.22173798284042 34.37078303369186 23.000000000000004
  endloop
endfacet
facet normal 0.7429935585048906 -0.6692985671733056 1.834519803432956e-14
  outer loop
    vertex -106.0240493125469 34.59023876813013 23.000000000000007
    vertex -106.22173798284042 34.370783033691865 22.440000000000005
    vertex -106.02404931254688 34.590238768130114 22.440000000000005
  endloop
endfacet
facet normal 0.7290608944953597 -0.6844488382031386 3.970624999693686e-14
  outer loop
    vertex -105.85717771272401 34.76798698106027 22.440000000000005
    vertex -106.0240493125469 34.59023876813013 23.000000000000007
    vertex -106.02404931254688 34.590238768130114 22.440000000000005
  endloop
endfacet
facet normal 0.7290608944953597 -0.6844488382031386 3.970624999693686e-14
  outer loop
    vertex -106.0240493125469 34.59023876813013 23.000000000000007
    vertex -105.85717771272401 34.76798698106027 22.440000000000005
    vertex -105.85717771272404 34.767986981060275 23.000000000000007
  endloop
endfacet
facet normal 0.7716270408948058 -0.6360752390715472 2.8357581990148464e-14
  outer loop
    vertex -105.74652962314913 34.90221490363112 22.440000000000005
    vertex -105.85717771272404 34.767986981060275 23.000000000000007
    vertex -105.85717771272401 34.76798698106027 22.440000000000005
  endloop
endfacet
facet normal 0.7716270408948058 -0.6360752390715472 2.8357581990148464e-14
  outer loop
    vertex -105.85717771272404 34.767986981060275 23.000000000000007
    vertex -105.74652962314913 34.90221490363112 22.440000000000005
    vertex -105.74652962314913 34.90221490363114 23.000000000000004
  endloop
endfacet
facet normal 0.8983343508476471 -0.4393124105771843 2.252176543463059e-14
  outer loop
    vertex -105.68576727180802 35.02646567855522 22.440000000000005
    vertex -105.74652962314913 34.90221490363114 23.000000000000004
    vertex -105.74652962314913 34.90221490363112 22.440000000000005
  endloop
endfacet
facet normal 0.8983343508476471 -0.4393124105771843 2.252176543463059e-14
  outer loop
    vertex -105.74652962314913 34.90221490363114 23.000000000000004
    vertex -105.68576727180802 35.02646567855522 22.440000000000005
    vertex -105.68576727180805 35.02646567855521 23.000000000000007
  endloop
endfacet
facet normal 0.991805213758071 -0.12775921869793713 3.866883025886693e-14
  outer loop
    vertex -105.68576727180802 35.02646567855522 22.440000000000005
    vertex -105.6667262799052 35.174282448545085 23.000000000000007
    vertex -105.68576727180805 35.02646567855521 23.000000000000007
  endloop
endfacet
facet normal 0.991805213758071 -0.12775921869793713 3.866883025886693e-14
  outer loop
    vertex -105.6667262799052 35.174282448545085 23.000000000000007
    vertex -105.68576727180802 35.02646567855522 22.440000000000005
    vertex -105.66672627990519 35.174282448545085 22.440000000000005
  endloop
endfacet
facet normal 0.9858521267642215 0.16761737426192203 1.9856292925167747e-14
  outer loop
    vertex -105.66672627990519 35.174282448545085 22.440000000000005
    vertex -105.68939280951045 35.307597067725254 23.000000000000007
    vertex -105.6667262799052 35.174282448545085 23.000000000000007
  endloop
endfacet
facet normal 0.9858521267642215 0.16761737426192203 1.9856292925167747e-14
  outer loop
    vertex -105.68939280951045 35.307597067725254 23.000000000000007
    vertex -105.66672627990519 35.174282448545085 22.440000000000005
    vertex -105.68939280951045 35.307597067725254 22.440000000000005
  endloop
endfacet
facet normal 0.8791722108078768 0.47650416970178805 -7.197427364499727e-15
  outer loop
    vertex -105.75378069855398 35.42639569816551 22.440000000000005
    vertex -105.68939280951045 35.307597067725254 23.000000000000007
    vertex -105.68939280951045 35.307597067725254 22.440000000000005
  endloop
endfacet
facet normal 0.8791722108078768 0.47650416970178805 -7.197427364499727e-15
  outer loop
    vertex -105.68939280951045 35.307597067725254 23.000000000000007
    vertex -105.75378069855398 35.42639569816551 22.440000000000005
    vertex -105.75378069855398 35.42639569816552 23.000000000000007
  endloop
endfacet
facet normal 0.6388431769428388 0.7693369842101578 -2.628690278699476e-15
  outer loop
    vertex -105.85535110594267 35.51073788250257 23.000000000000007
    vertex -105.75378069855398 35.42639569816551 22.440000000000005
    vertex -105.85535110594265 35.51073788250256 22.440000000000005
  endloop
endfacet
facet normal 0.6388431769428388 0.7693369842101578 -2.628690278699476e-15
  outer loop
    vertex -105.75378069855398 35.42639569816551 22.440000000000005
    vertex -105.85535110594267 35.51073788250257 23.000000000000007
    vertex -105.75378069855398 35.42639569816552 23.000000000000007
  endloop
endfacet
facet normal 0.23312695492394025 0.9724463084859191 -1.529524349066132e-14
  outer loop
    vertex -105.98776625966232 35.54248209429408 23.000000000000007
    vertex -105.85535110594265 35.51073788250256 22.440000000000005
    vertex -105.98776625966227 35.54248209429406 22.440000000000005
  endloop
endfacet
facet normal 0.23312695492394025 0.9724463084859191 -1.529524349066132e-14
  outer loop
    vertex -105.85535110594265 35.51073788250256 22.440000000000005
    vertex -105.98776625966232 35.54248209429408 23.000000000000007
    vertex -105.85535110594267 35.51073788250257 23.000000000000007
  endloop
endfacet
facet normal -0.17579232645215792 0.9844272740840422 -3.328470115046828e-14
  outer loop
    vertex -106.1274255698217 35.51754268465971 23.000000000000007
    vertex -105.98776625966227 35.54248209429406 22.440000000000005
    vertex -106.12742556982172 35.517542684659695 22.440000000000005
  endloop
endfacet
facet normal -0.17579232645215792 0.9844272740840422 -3.328470115046828e-14
  outer loop
    vertex -105.98776625966227 35.54248209429406 22.440000000000005
    vertex -106.1274255698217 35.51754268465971 23.000000000000007
    vertex -105.98776625966232 35.54248209429408 23.000000000000007
  endloop
endfacet
facet normal -0.5242908312897501 0.8515392675769585 1.9846283861340104e-15
  outer loop
    vertex -106.24894335353882 35.442724455756625 23.000000000000007
    vertex -106.12742556982172 35.517542684659695 22.440000000000005
    vertex -106.24894335353882 35.442724455756625 22.440000000000005
  endloop
endfacet
facet normal -0.5242908312897501 0.8515392675769585 1.9846283861340104e-15
  outer loop
    vertex -106.12742556982172 35.517542684659695 22.440000000000005
    vertex -106.24894335353882 35.442724455756625 23.000000000000007
    vertex -106.1274255698217 35.51754268465971 23.000000000000007
  endloop
endfacet
facet normal -0.7420331964618136 0.6703631369255498 2.169960429484667e-14
  outer loop
    vertex -106.24894335353882 35.442724455756625 23.000000000000007
    vertex -106.35504568305552 35.32527848298969 22.440000000000005
    vertex -106.35504568305551 35.325278482989674 23.000000000000007
  endloop
endfacet
facet normal -0.7420331964618136 0.6703631369255498 2.169960429484667e-14
  outer loop
    vertex -106.35504568305552 35.32527848298969 22.440000000000005
    vertex -106.24894335353882 35.442724455756625 23.000000000000007
    vertex -106.24894335353882 35.442724455756625 22.440000000000005
  endloop
endfacet
facet normal -0.8532288330588053 0.5215367277930764 3.699984865620434e-14
  outer loop
    vertex -106.44845863061373 35.17245584176373 23.000000000000007
    vertex -106.35504568305552 35.32527848298969 22.440000000000005
    vertex -106.44845863061374 35.17245584176372 22.440000000000005
  endloop
endfacet
facet normal -0.8532288330588053 0.5215367277930764 3.699984865620434e-14
  outer loop
    vertex -106.35504568305552 35.32527848298969 22.440000000000005
    vertex -106.44845863061373 35.17245584176373 23.000000000000007
    vertex -106.35504568305551 35.325278482989674 23.000000000000007
  endloop
endfacet
facet normal 0.34981877908005177 0.9368173897846591 -2.584039232054564e-14
  outer loop
    vertex -106.87106901775948 35.330263597330536 23.000000000000007
    vertex -106.44845863061374 35.17245584176372 22.440000000000005
    vertex -106.87106901775952 35.330263597330536 22.440000000000005
  endloop
endfacet
facet normal 0.34981877908005177 0.9368173897846591 -2.584039232054564e-14
  outer loop
    vertex -106.44845863061374 35.17245584176372 22.440000000000005
    vertex -106.87106901775948 35.330263597330536 23.000000000000007
    vertex -106.44845863061373 35.17245584176373 23.000000000000007
  endloop
endfacet
facet normal 0.8799566476266896 -0.475053995139077 -6.035070661888731e-14
  outer loop
    vertex -106.73594162972812 35.58056407809979 22.440000000000005
    vertex -106.87106901775948 35.330263597330536 23.000000000000007
    vertex -106.87106901775952 35.330263597330536 22.440000000000005
  endloop
endfacet
facet normal 0.8799566476266896 -0.475053995139077 -6.035070661888731e-14
  outer loop
    vertex -106.87106901775948 35.330263597330536 23.000000000000007
    vertex -106.73594162972812 35.58056407809979 22.440000000000005
    vertex -106.73594162972809 35.58056407809977 23.000000000000007
  endloop
endfacet
facet normal 0.6971309456283806 -0.7169438225183895 -6.058879996415875e-14
  outer loop
    vertex -106.5391524248951 35.77191497637906 23.000000000000007
    vertex -106.73594162972812 35.58056407809979 22.440000000000005
    vertex -106.53915242489512 35.771914976379094 22.440000000000005
  endloop
endfacet
facet normal 0.6971309456283806 -0.7169438225183895 -6.058879996415875e-14
  outer loop
    vertex -106.73594162972812 35.58056407809979 22.440000000000005
    vertex -106.5391524248951 35.77191497637906 23.000000000000007
    vertex -106.73594162972809 35.58056407809977 23.000000000000007
  endloop
endfacet
facet normal 0.4254936810863857 -0.904961395505663 -5.414547485809689e-14
  outer loop
    vertex -106.28068756533034 35.89343967906126 23.000000000000007
    vertex -106.53915242489512 35.771914976379094 22.440000000000005
    vertex -106.28068756533034 35.89343967906128 22.440000000000005
  endloop
endfacet
facet normal 0.4254936810863857 -0.904961395505663 -5.414547485809689e-14
  outer loop
    vertex -106.53915242489512 35.771914976379094 22.440000000000005
    vertex -106.28068756533034 35.89343967906126 23.000000000000007
    vertex -106.5391524248951 35.77191497637906 23.000000000000007
  endloop
endfacet
facet normal 0.13197286480550477 -0.9912533293538177 -1.4975986476870036e-14
  outer loop
    vertex -105.96056088896394 35.936060503960064 23.000000000000007
    vertex -106.28068756533034 35.89343967906128 22.440000000000005
    vertex -105.96056088896394 35.936060503960064 22.440000000000005
  endloop
endfacet
facet normal 0.13197286480550477 -0.9912533293538177 -1.4975986476870036e-14
  outer loop
    vertex -106.28068756533034 35.89343967906128 22.440000000000005
    vertex -105.96056088896394 35.936060503960064 23.000000000000007
    vertex -106.28068756533034 35.89343967906126 23.000000000000007
  endloop
endfacet
facet normal -0.08667603636123056 -0.9962365505846023 1.0033314419590549e-14
  outer loop
    vertex -105.76512780128681 35.9190571472736 23.000000000000007
    vertex -105.96056088896394 35.936060503960064 22.440000000000005
    vertex -105.76512780128681 35.91905714727359 22.440000000000005
  endloop
endfacet
facet normal -0.08667603636123056 -0.9962365505846023 1.0033314419590549e-14
  outer loop
    vertex -105.96056088896394 35.936060503960064 22.440000000000005
    vertex -105.76512780128681 35.9190571472736 23.000000000000007
    vertex -105.96056088896394 35.936060503960064 23.000000000000007
  endloop
endfacet
facet normal -0.2831695100769855 -0.9590698767883183 -1.0530792276671682e-14
  outer loop
    vertex -105.59236124321495 35.868047077214115 23.000000000000007
    vertex -105.76512780128681 35.91905714727359 22.440000000000005
    vertex -105.59236124321494 35.86804707721413 22.440000000000005
  endloop
endfacet
facet normal -0.2831695100769855 -0.9590698767883183 -1.0530792276671682e-14
  outer loop
    vertex -105.76512780128681 35.91905714727359 22.440000000000005
    vertex -105.59236124321495 35.868047077214115 23.000000000000007
    vertex -105.76512780128681 35.9190571472736 23.000000000000007
  endloop
endfacet
facet normal -0.4669901641355604 -0.8842625100051694 -2.426589225101156e-14
  outer loop
    vertex -105.44339938450419 35.7893784442435 23.000000000000007
    vertex -105.59236124321494 35.86804707721413 22.440000000000005
    vertex -105.44339938450412 35.789378444243475 22.440000000000005
  endloop
endfacet
facet normal -0.4669901641355604 -0.8842625100051694 -2.426589225101156e-14
  outer loop
    vertex -105.59236124321494 35.86804707721413 22.440000000000005
    vertex -105.44339938450419 35.7893784442435 23.000000000000007
    vertex -105.59236124321495 35.868047077214115 23.000000000000007
  endloop
endfacet
facet normal -0.6276144864763882 -0.7785242811659632 -2.6166243568905626e-14
  outer loop
    vertex -105.31938039491023 35.68939939882342 23.000000000000004
    vertex -105.44339938450412 35.789378444243475 22.440000000000005
    vertex -105.31938039491023 35.68939939882343 22.440000000000005
  endloop
endfacet
facet normal -0.6276144864763882 -0.7785242811659632 -2.6166243568905626e-14
  outer loop
    vertex -105.44339938450412 35.789378444243475 22.440000000000005
    vertex -105.31938039491023 35.68939939882342 23.000000000000004
    vertex -105.44339938450419 35.7893784442435 23.000000000000007
  endloop
endfacet
facet normal -0.7690661899904258 -0.6391691446038444 -1.2871051465851907e-14
  outer loop
    vertex -105.31938039491023 35.68939939882342 23.000000000000004
    vertex -105.22121065885891 35.57127882696111 22.440000000000005
    vertex -105.22121065885891 35.5712788269611 23.000000000000007
  endloop
endfacet
facet normal -0.7690661899904258 -0.6391691446038444 -1.2871051465851907e-14
  outer loop
    vertex -105.22121065885891 35.57127882696111 22.440000000000005
    vertex -105.31938039491023 35.68939939882342 23.000000000000004
    vertex -105.31938039491023 35.68939939882343 22.440000000000005
  endloop
endfacet
facet normal -0.8811651556274014 -0.47280859605990433 8.226006588797547e-15
  outer loop
    vertex -105.22121065885891 35.5712788269611 23.000000000000007
    vertex -105.14979656077567 35.438185614663546 22.440000000000005
    vertex -105.14979656077566 35.43818561466353 23.000000000000007
  endloop
endfacet
facet normal -0.8811651556274014 -0.47280859605990433 8.226006588797547e-15
  outer loop
    vertex -105.14979656077567 35.438185614663546 22.440000000000005
    vertex -105.22121065885891 35.5712788269611 23.000000000000007
    vertex -105.22121065885891 35.57127882696111 22.440000000000005
  endloop
endfacet
facet normal -0.9556564598835935 -0.29448383772757025 1.3321106964682025e-14
  outer loop
    vertex -105.14979656077566 35.43818561466353 23.000000000000007
    vertex -105.10626935145126 35.29693148305295 22.440000000000005
    vertex -105.10626935145126 35.29693148305294 23.000000000000004
  endloop
endfacet
facet normal -0.9556564598835935 -0.29448383772757025 1.3321106964682025e-14
  outer loop
    vertex -105.10626935145126 35.29693148305295 22.440000000000005
    vertex -105.14979656077566 35.43818561466353 23.000000000000007
    vertex -105.14979656077567 35.438185614663546 22.440000000000005
  endloop
endfacet
facet normal -0.9948638952132315 -0.10122168740520149 -2.0375156923277337e-15
  outer loop
    vertex -105.10626935145126 35.29693148305294 23.000000000000004
    vertex -105.09176028167644 35.154328153251576 22.440000000000005
    vertex -105.09176028167644 35.15432815325156 23.000000000000007
  endloop
endfacet
facet normal -0.9948638952132315 -0.10122168740520149 -2.0375156923277337e-15
  outer loop
    vertex -105.09176028167644 35.154328153251576 22.440000000000005
    vertex -105.10626935145126 35.29693148305294 23.000000000000004
    vertex -105.10626935145126 35.29693148305295 22.440000000000005
  endloop
endfacet
facet normal -0.985762834418392 0.16814170892261632 2.5408931886999154e-15
  outer loop
    vertex -105.09176028167644 35.15432815325156 23.000000000000007
    vertex -105.1316688722635 34.92035643007343 22.440000000000005
    vertex -105.1316688722635 34.920356430073426 23.000000000000007
  endloop
endfacet
facet normal -0.985762834418392 0.16814170892261632 2.5408931886999154e-15
  outer loop
    vertex -105.1316688722635 34.92035643007343 22.440000000000005
    vertex -105.09176028167644 35.15432815325156 23.000000000000007
    vertex -105.09176028167644 35.154328153251576 22.440000000000005
  endloop
endfacet
facet normal -0.8872910039806858 0.46121001100902687 2.4836946262950108e-14
  outer loop
    vertex -105.1316688722635 34.920356430073426 23.000000000000007
    vertex -105.23867758620581 34.714489543054206 22.440000000000005
    vertex -105.23867758620578 34.71448954305419 23.000000000000007
  endloop
endfacet
facet normal -0.8872910039806858 0.46121001100902687 2.4836946262950108e-14
  outer loop
    vertex -105.23867758620581 34.714489543054206 22.440000000000005
    vertex -105.1316688722635 34.920356430073426 23.000000000000007
    vertex -105.1316688722635 34.92035643007343 22.440000000000005
  endloop
endfacet
facet normal -0.7907184982730295 0.6121799216642482 1.900174699151416e-14
  outer loop
    vertex -105.3910331972888 34.51770033822121 23.000000000000007
    vertex -105.23867758620581 34.714489543054206 22.440000000000005
    vertex -105.3910331972888 34.5177003382212 22.440000000000005
  endloop
endfacet
facet normal -0.7907184982730295 0.6121799216642482 1.900174699151416e-14
  outer loop
    vertex -105.23867758620581 34.714489543054206 22.440000000000005
    vertex -105.3910331972888 34.51770033822121 23.000000000000007
    vertex -105.23867758620578 34.71448954305419 23.000000000000007
  endloop
endfacet
facet normal -0.7616298452691624 0.6480123292000483 -1.8603566243034643e-14
  outer loop
    vertex -105.3910331972888 34.51770033822121 23.000000000000007
    vertex -105.56695480343758 34.31093398574145 22.440000000000005
    vertex -105.56695480343761 34.31093398574145 23.000000000000007
  endloop
endfacet
facet normal -0.7616298452691624 0.6480123292000483 -1.8603566243034643e-14
  outer loop
    vertex -105.56695480343758 34.31093398574145 22.440000000000005
    vertex -105.3910331972888 34.51770033822121 23.000000000000007
    vertex -105.3910331972888 34.5177003382212 22.440000000000005
  endloop
endfacet
facet normal -0.7625355105869321 0.6469463618368426 -4.0478969383157174e-14
  outer loop
    vertex -105.7546940019447 34.08965164452182 23.000000000000007
    vertex -105.56695480343758 34.31093398574145 22.440000000000005
    vertex -105.75469400194467 34.08965164452181 22.440000000000005
  endloop
endfacet
facet normal -0.7625355105869321 0.6469463618368426 -4.0478969383157174e-14
  outer loop
    vertex -105.56695480343758 34.31093398574145 22.440000000000005
    vertex -105.7546940019447 34.08965164452182 23.000000000000007
    vertex -105.56695480343761 34.31093398574145 23.000000000000007
  endloop
endfacet
facet normal -0.7565292828747744 0.6539598184544518 -2.7184483913706175e-14
  outer loop
    vertex -105.7546940019447 34.08965164452182 23.000000000000007
    vertex -105.93970712820985 33.87562037870704 22.440000000000005
    vertex -105.93970712820988 33.87562037870702 23.000000000000004
  endloop
endfacet
facet normal -0.7565292828747744 0.6539598184544518 -2.7184483913706175e-14
  outer loop
    vertex -105.93970712820985 33.87562037870704 22.440000000000005
    vertex -105.7546940019447 34.08965164452182 23.000000000000007
    vertex -105.75469400194467 34.08965164452181 22.440000000000005
  endloop
endfacet
facet normal -0.7602971874266007 0.6495753896132461 -2.238219141141829e-15
  outer loop
    vertex -105.93970712820988 33.87562037870702 23.000000000000004
    vertex -106.09931381469772 33.688808321520796 22.440000000000005
    vertex -106.09931381469772 33.688808321520796 23.000000000000007
  endloop
endfacet
facet normal -0.7602971874266007 0.6495753896132461 -2.238219141141829e-15
  outer loop
    vertex -106.09931381469772 33.688808321520796 22.440000000000005
    vertex -105.93970712820988 33.87562037870702 23.000000000000004
    vertex -105.93970712820985 33.87562037870704 22.440000000000005
  endloop
endfacet
facet normal -0.7852777833827624 0.6191436044452492 0.0
  outer loop
    vertex -106.09931381469772 33.688808321520796 23.000000000000007
    vertex -106.21086136973314 33.547329323545085 22.440000000000005
    vertex -106.21086136973314 33.547329323545085 23.000000000000007
  endloop
endfacet
facet normal -0.7852777833827624 0.6191436044452492 0.0
  outer loop
    vertex -106.21086136973314 33.547329323545085 22.440000000000005
    vertex -106.09931381469772 33.688808321520796 23.000000000000007
    vertex -106.09931381469772 33.688808321520796 22.440000000000005
  endloop
endfacet
facet normal 0.0 -1.0 0.0
  outer loop
    vertex -105.04642722246594 33.547329323545085 23.000000000000007
    vertex -106.21086136973314 33.547329323545085 22.440000000000005
    vertex -105.04642722246594 33.547329323545085 22.440000000000005
  endloop
endfacet
facet normal 0.0 -1.0 0.0
  outer loop
    vertex -106.21086136973314 33.547329323545085 22.440000000000005
    vertex -105.04642722246594 33.547329323545085 23.000000000000007
    vertex -106.21086136973314 33.547329323545085 23.000000000000007
  endloop
endfacet
facet normal 0.9915544151345607 0.12969133289144436 1.96346176560584e-15
  outer loop
    vertex -111.65307021968253 35.47464856064023 22.440000000000005
    vertex -111.70927989200035 35.904399319749544 23.000000000000007
    vertex -111.65307021968253 35.47464856064023 23.000000000000007
  endloop
endfacet
facet normal 0.9915544151345607 0.12969133289144436 1.96346176560584e-15
  outer loop
    vertex -111.70927989200035 35.904399319749544 23.000000000000007
    vertex -111.65307021968253 35.47464856064023 22.440000000000005
    vertex -111.70927989200035 35.90439931974956 22.440000000000005
  endloop
endfacet
facet normal 1.0 0.0 0.0
  outer loop
    vertex -111.65307021968253 35.47464856064023 22.440000000000005
    vertex -111.65307021968253 33.1845818222799 23.000000000000007
    vertex -111.65307021968253 33.1845818222799 22.440000000000005
  endloop
endfacet
facet normal 1.0 0.0 0.0
  outer loop
    vertex -111.65307021968253 33.1845818222799 23.000000000000007
    vertex -111.65307021968253 35.47464856064023 22.440000000000005
    vertex -111.65307021968253 35.47464856064023 23.000000000000007
  endloop
endfacet
facet normal 0.05285317785726279 -0.998602294004169 -8.994063469755684e-15
  outer loop
    vertex -111.02427467312384 35.940654696773834 23.000000000000007
    vertex -111.70927989200035 35.90439931974956 22.440000000000005
    vertex -111.02427467312383 35.940654696773834 22.440000000000005
  endloop
endfacet
facet normal 0.05285317785726279 -0.998602294004169 -8.994063469755684e-15
  outer loop
    vertex -111.70927989200035 35.90439931974956 22.440000000000005
    vertex -111.02427467312384 35.940654696773834 23.000000000000007
    vertex -111.70927989200035 35.904399319749544 23.000000000000007
  endloop
endfacet
facet normal 1.0 0.0 0.0
  outer loop
    vertex -110.21481111037079 34.43331664009367 22.440000000000005
    vertex -110.21481111037079 33.1845818222799 23.000000000000007
    vertex -110.21481111037079 33.1845818222799 22.440000000000005
  endloop
endfacet
facet normal 1.0 0.0 0.0
  outer loop
    vertex -110.21481111037079 33.1845818222799 23.000000000000007
    vertex -110.21481111037079 34.43331664009367 22.440000000000005
    vertex -110.21481111037079 34.43331664009367 23.000000000000007
  endloop
endfacet
facet normal 0.0 1.0 0.0
  outer loop
    vertex -111.02427467312383 34.43331664009367 23.000000000000007
    vertex -110.21481111037079 34.43331664009367 22.440000000000005
    vertex -111.02427467312383 34.43331664009367 22.440000000000005
  endloop
endfacet
facet normal 0.0 1.0 0.0
  outer loop
    vertex -110.21481111037079 34.43331664009367 22.440000000000005
    vertex -111.02427467312383 34.43331664009367 23.000000000000007
    vertex -110.21481111037079 34.43331664009367 23.000000000000007
  endloop
endfacet
facet normal -1.0 0.0 0.0
  outer loop
    vertex -111.02427467312383 34.43331664009367 23.000000000000007
    vertex -111.02427467312383 33.1845818222799 22.440000000000005
    vertex -111.02427467312383 33.1845818222799 23.000000000000007
  endloop
endfacet
facet normal -1.0 0.0 0.0
  outer loop
    vertex -111.02427467312383 33.1845818222799 22.440000000000005
    vertex -111.02427467312383 34.43331664009367 23.000000000000007
    vertex -111.02427467312383 34.43331664009367 22.440000000000005
  endloop
endfacet
facet normal 0.0 1.0 0.0
  outer loop
    vertex -111.65307021968253 33.1845818222799 23.000000000000007
    vertex -111.02427467312383 33.1845818222799 22.440000000000005
    vertex -111.65307021968253 33.1845818222799 22.440000000000005
  endloop
endfacet
facet normal 0.0 1.0 0.0
  outer loop
    vertex -111.02427467312383 33.1845818222799 22.440000000000005
    vertex -111.65307021968253 33.1845818222799 23.000000000000007
    vertex -111.02427467312383 33.1845818222799 23.000000000000007
  endloop
endfacet
facet normal -1.0 -1.0304676411492629e-14 -2.014261773248486e-14
  outer loop
    vertex -111.02427467312384 35.940654696773834 23.000000000000007
    vertex -111.02427467312383 34.84601906924347 22.440000000000005
    vertex -111.02427467312383 34.84601906924347 23.000000000000007
  endloop
endfacet
facet normal -1.0 -1.0304676411492629e-14 -2.014261773248486e-14
  outer loop
    vertex -111.02427467312383 34.84601906924347 22.440000000000005
    vertex -111.02427467312384 35.940654696773834 23.000000000000007
    vertex -111.02427467312383 35.940654696773834 22.440000000000005
  endloop
endfacet
facet normal 0.0 -1.0 0.0
  outer loop
    vertex -110.21481111037075 34.84601906924347 23.000000000000007
    vertex -111.02427467312383 34.84601906924347 22.440000000000005
    vertex -110.21481111037079 34.84601906924347 22.440000000000005
  endloop
endfacet
facet normal 0.0 -1.0 0.0
  outer loop
    vertex -111.02427467312383 34.84601906924347 22.440000000000005
    vertex -110.21481111037075 34.84601906924347 23.000000000000007
    vertex -111.02427467312383 34.84601906924347 23.000000000000007
  endloop
endfacet
facet normal 1.0 7.460367998513435e-14 -6.042785319745495e-14
  outer loop
    vertex -110.21481111037086 35.90439931974954 22.440000000000005
    vertex -110.21481111037075 34.84601906924347 23.000000000000007
    vertex -110.21481111037079 34.84601906924347 22.440000000000005
  endloop
endfacet
facet normal 1.0 7.460367998513435e-14 -6.042785319745495e-14
  outer loop
    vertex -110.21481111037075 34.84601906924347 23.000000000000007
    vertex -110.21481111037086 35.90439931974954 22.440000000000005
    vertex -110.21481111037083 35.904399319749544 23.000000000000007
  endloop
endfacet
facet normal 0.05772491218225035 -0.9983325270237124 1.0058512169211623e-14
  outer loop
    vertex -109.58778681887286 35.940654696773834 23.000000000000007
    vertex -110.21481111037086 35.90439931974954 22.440000000000005
    vertex -109.58778681887284 35.94065469677383 22.440000000000005
  endloop
endfacet
facet normal 0.05772491218225035 -0.9983325270237124 1.0058512169211623e-14
  outer loop
    vertex -110.21481111037086 35.90439931974954 22.440000000000005
    vertex -109.58778681887286 35.940654696773834 23.000000000000007
    vertex -110.21481111037083 35.904399319749544 23.000000000000007
  endloop
endfacet
facet normal -1.0 -1.6370925507204267e-14 8.398519226045692e-29
  outer loop
    vertex -109.58778681887286 35.940654696773834 23.000000000000007
    vertex -109.58778681887281 33.1845818222799 22.440000000000005
    vertex -109.58778681887279 33.1845818222799 23.000000000000007
  endloop
endfacet
facet normal -1.0 -1.6370925507204267e-14 8.398519226045692e-29
  outer loop
    vertex -109.58778681887281 33.1845818222799 22.440000000000005
    vertex -109.58778681887286 35.940654696773834 23.000000000000007
    vertex -109.58778681887284 35.94065469677383 22.440000000000005
  endloop
endfacet
facet normal 0.0 1.0 0.0
  outer loop
    vertex -110.21481111037079 33.1845818222799 23.000000000000007
    vertex -109.58778681887281 33.1845818222799 22.440000000000005
    vertex -110.21481111037079 33.1845818222799 22.440000000000005
  endloop
endfacet
facet normal 0.0 1.0 0.0
  outer loop
    vertex -109.58778681887281 33.1845818222799 22.440000000000005
    vertex -110.21481111037079 33.1845818222799 23.000000000000007
    vertex -109.58778681887279 33.1845818222799 23.000000000000007
  endloop
endfacet
facet normal 0.0 1.0 0.0
  outer loop
    vertex -109.07589410632221 33.1845818222799 23.000000000000007
    vertex -108.44001353952059 33.1845818222799 22.440000000000005
    vertex -109.07589410632221 33.1845818222799 22.440000000000005
  endloop
endfacet
facet normal 0.0 1.0 0.0
  outer loop
    vertex -108.44001353952059 33.1845818222799 22.440000000000005
    vertex -109.07589410632221 33.1845818222799 23.000000000000007
    vertex -108.44001353952059 33.1845818222799 23.000000000000007
  endloop
endfacet
facet normal 1.0 -4.924014901504798e-15 2.0142617732484906e-14
  outer loop
    vertex -109.07589410632218 35.47536813300865 22.440000000000005
    vertex -109.07589410632221 33.1845818222799 23.000000000000007
    vertex -109.07589410632221 33.1845818222799 22.440000000000005
  endloop
endfacet
facet normal 1.0 -4.924014901504798e-15 2.0142617732484906e-14
  outer loop
    vertex -109.07589410632221 33.1845818222799 23.000000000000007
    vertex -109.07589410632218 35.47536813300865 22.440000000000005
    vertex -109.07589410632221 35.47536813300866 23.000000000000007
  endloop
endfacet
facet normal 0.9892683397932421 0.14611006769802848 3.838537691777827e-14
  outer loop
    vertex -109.13938252990519 35.90522959555926 22.440000000000005
    vertex -109.07589410632221 35.47536813300866 23.000000000000007
    vertex -109.07589410632218 35.47536813300865 22.440000000000005
  endloop
endfacet
facet normal 0.9892683397932421 0.14611006769802848 3.838537691777827e-14
  outer loop
    vertex -109.07589410632221 35.47536813300866 23.000000000000007
    vertex -109.13938252990519 35.90522959555926 22.440000000000005
    vertex -109.1393825299052 35.90522959555926 23.000000000000007
  endloop
endfacet
facet normal 0.0 -1.0 0.0
  outer loop
    vertex -107.32235159620076 35.90522959555926 23.000000000000007
    vertex -109.13938252990519 35.90522959555926 22.440000000000005
    vertex -107.32235159620073 35.90522959555926 22.440000000000005
  endloop
endfacet
facet normal 0.0 -1.0 0.0
  outer loop
    vertex -109.13938252990519 35.90522959555926 22.440000000000005
    vertex -107.32235159620076 35.90522959555926 23.000000000000007
    vertex -109.1393825299052 35.90522959555926 23.000000000000007
  endloop
endfacet
facet normal -0.9930291603428018 0.11786893869408706 -4.000404838667971e-14
  outer loop
    vertex -107.32235159620076 35.90522959555926 23.000000000000007
    vertex -107.371337868974 35.49252716640946 22.440000000000005
    vertex -107.37133786897402 35.49252716640946 23.000000000000007
  endloop
endfacet
facet normal -0.9930291603428018 0.11786893869408706 -4.000404838667971e-14
  outer loop
    vertex -107.371337868974 35.49252716640946 22.440000000000005
    vertex -107.32235159620076 35.90522959555926 23.000000000000007
    vertex -107.32235159620073 35.90522959555926 22.440000000000005
  endloop
endfacet
facet normal 2.5732414161889744e-15 1.0 -5.035654433121214e-15
  outer loop
    vertex -108.46721891021896 35.49252716640947 23.000000000000007
    vertex -107.371337868974 35.49252716640946 22.440000000000005
    vertex -108.46721891021899 35.49252716640946 22.440000000000005
  endloop
endfacet
facet normal 2.5732414161889744e-15 1.0 -5.035654433121214e-15
  outer loop
    vertex -107.371337868974 35.49252716640946 22.440000000000005
    vertex -108.46721891021896 35.49252716640947 23.000000000000007
    vertex -107.37133786897402 35.49252716640946 23.000000000000007
  endloop
endfacet
facet normal -0.9941590688690747 -0.10792472277182058 4.1135841663370427e-14
  outer loop
    vertex -108.44001353952058 35.24192225117667 23.000000000000007
    vertex -108.46721891021899 35.49252716640946 22.440000000000005
    vertex -108.44001353952059 35.24192225117667 22.440000000000005
  endloop
endfacet
facet normal -0.9941590688690747 -0.10792472277182058 4.1135841663370427e-14
  outer loop
    vertex -108.46721891021899 35.49252716640946 22.440000000000005
    vertex -108.44001353952058 35.24192225117667 23.000000000000007
    vertex -108.46721891021896 35.49252716640947 23.000000000000007
  endloop
endfacet
facet normal -1.0 2.849147580757492e-14 2.014261773248471e-14
  outer loop
    vertex -108.44001353952058 35.24192225117667 23.000000000000007
    vertex -108.44001353952059 34.84601906924347 22.440000000000005
    vertex -108.44001353952059 34.84601906924347 23.000000000000007
  endloop
endfacet
facet normal -1.0 2.849147580757492e-14 2.014261773248471e-14
  outer loop
    vertex -108.44001353952059 34.84601906924347 22.440000000000005
    vertex -108.44001353952058 35.24192225117667 23.000000000000007
    vertex -108.44001353952059 35.24192225117667 22.440000000000005
  endloop
endfacet
facet normal 0.0 -1.0 0.0
  outer loop
    vertex -107.50833337757726 34.84601906924347 23.000000000000007
    vertex -108.44001353952059 34.84601906924347 22.440000000000005
    vertex -107.50833337757726 34.84601906924347 22.440000000000005
  endloop
endfacet
facet normal 0.0 -1.0 0.0
  outer loop
    vertex -108.44001353952059 34.84601906924347 22.440000000000005
    vertex -107.50833337757726 34.84601906924347 23.000000000000007
    vertex -108.44001353952059 34.84601906924347 23.000000000000007
  endloop
endfacet
facet normal -1.0 0.0 0.0
  outer loop
    vertex -107.50833337757726 34.84601906924347 23.000000000000007
    vertex -107.50833337757726 34.4598854660046 22.440000000000005
    vertex -107.50833337757726 34.4598854660046 23.000000000000007
  endloop
endfacet
facet normal -1.0 0.0 0.0
  outer loop
    vertex -107.50833337757726 34.4598854660046 22.440000000000005
    vertex -107.50833337757726 34.84601906924347 23.000000000000007
    vertex -107.50833337757726 34.84601906924347 22.440000000000005
  endloop
endfacet
facet normal 0.0 1.0 0.0
  outer loop
    vertex -108.44001353952059 34.4598854660046 23.000000000000007
    vertex -107.50833337757726 34.4598854660046 22.440000000000005
    vertex -108.44001353952059 34.4598854660046 22.440000000000005
  endloop
endfacet
facet normal 0.0 1.0 0.0
  outer loop
    vertex -107.50833337757726 34.4598854660046 22.440000000000005
    vertex -108.44001353952059 34.4598854660046 23.000000000000007
    vertex -107.50833337757726 34.4598854660046 23.000000000000007
  endloop
endfacet
facet normal -1.0 0.0 0.0
  outer loop
    vertex -108.44001353952059 34.4598854660046 23.000000000000007
    vertex -108.44001353952059 33.1845818222799 22.440000000000005
    vertex -108.44001353952059 33.1845818222799 23.000000000000007
  endloop
endfacet
facet normal -1.0 0.0 0.0
  outer loop
    vertex -108.44001353952059 33.1845818222799 22.440000000000005
    vertex -108.44001353952059 34.4598854660046 23.000000000000007
    vertex -108.44001353952059 34.4598854660046 22.440000000000005
  endloop
endfacet
endsolid RMP_Front
