solid RMP_Front
facet normal 0.7852777833827624 -0.6191436044452492 0.0
  outer loop
    vertex -106.09931381469772 33.688808321520796 23.0
    vertex -106.21086136973314 33.547329323545085 23.14
    vertex -106.21086136973314 33.547329323545085 23.0
  endloop
endfacet
facet normal 0.7852777833827624 -0.6191436044452492 0.0
  outer loop
    vertex -106.21086136973314 33.547329323545085 23.14
    vertex -106.09931381469772 33.688808321520796 23.0
    vertex -106.09931381469772 33.688808321520796 23.14
  endloop
endfacet
facet normal 0.7565292828747221 -0.6539598184545125 0.0
  outer loop
    vertex -105.75469400194467 34.08965164452181 23.0
    vertex -105.93970712820988 33.87562037870703 23.14
    vertex -105.93970712820988 33.87562037870703 23.0
  endloop
endfacet
facet normal 0.7565292828747221 -0.6539598184545125 0.0
  outer loop
    vertex -105.93970712820988 33.87562037870703 23.14
    vertex -105.75469400194467 34.08965164452181 23.0
    vertex -105.75469400194467 34.08965164452181 23.14
  endloop
endfacet
facet normal -1.0 0.0 0.0
  outer loop
    vertex -110.21481111037079 34.43331664009367 23.14
    vertex -110.21481111037079 33.1845818222799 23.0
    vertex -110.21481111037079 33.1845818222799 23.14
  endloop
endfacet
facet normal -1.0 0.0 0.0
  outer loop
    vertex -110.21481111037079 33.1845818222799 23.0
    vertex -110.21481111037079 34.43331664009367 23.14
    vertex -110.21481111037079 34.43331664009367 23.0
  endloop
endfacet
facet normal 0.7602971874266234 -0.6495753896132196 0.0
  outer loop
    vertex -105.93970712820988 33.87562037870703 23.0
    vertex -106.09931381469772 33.688808321520796 23.14
    vertex -106.09931381469772 33.688808321520796 23.0
  endloop
endfacet
facet normal 0.7602971874266234 -0.6495753896132196 0.0
  outer loop
    vertex -106.09931381469772 33.688808321520796 23.14
    vertex -105.93970712820988 33.87562037870703 23.0
    vertex -105.93970712820988 33.87562037870703 23.14
  endloop
endfacet
facet normal 0.762535510586936 -0.6469463618368378 0.0
  outer loop
    vertex -105.56695480343758 34.31093398574144 23.0
    vertex -105.75469400194467 34.08965164452181 23.14
    vertex -105.75469400194467 34.08965164452181 23.0
  endloop
endfacet
facet normal 0.762535510586936 -0.6469463618368378 0.0
  outer loop
    vertex -105.75469400194467 34.08965164452181 23.14
    vertex -105.56695480343758 34.31093398574144 23.0
    vertex -105.56695480343758 34.31093398574144 23.14
  endloop
endfacet
facet normal 0.7907184982730557 -0.6121799216642145 0.0
  outer loop
    vertex -105.23867758620581 34.7144895430542 23.0
    vertex -105.3910331972888 34.5177003382212 23.14
    vertex -105.3910331972888 34.5177003382212 23.0
  endloop
endfacet
facet normal 0.7907184982730557 -0.6121799216642145 0.0
  outer loop
    vertex -105.3910331972888 34.5177003382212 23.14
    vertex -105.23867758620581 34.7144895430542 23.0
    vertex -105.23867758620581 34.7144895430542 23.14
  endloop
endfacet
facet normal 0.8872910039806634 -0.46121001100907 0.0
  outer loop
    vertex -105.1316688722635 34.920356430073426 23.0
    vertex -105.23867758620581 34.7144895430542 23.14
    vertex -105.23867758620581 34.7144895430542 23.0
  endloop
endfacet
facet normal 0.8872910039806634 -0.46121001100907 0.0
  outer loop
    vertex -105.23867758620581 34.7144895430542 23.14
    vertex -105.1316688722635 34.920356430073426 23.0
    vertex -105.1316688722635 34.920356430073426 23.14
  endloop
endfacet
facet normal 0.955656459883605 0.2944838377275327 0.0
  outer loop
    vertex -105.14979656077566 35.43818561466351 23.0
    vertex -105.10626935145126 35.29693148305293 23.14
    vertex -105.10626935145126 35.29693148305293 23.0
  endloop
endfacet
facet normal 0.955656459883605 0.2944838377275327 0.0
  outer loop
    vertex -105.10626935145126 35.29693148305293 23.14
    vertex -105.14979656077566 35.43818561466351 23.0
    vertex -105.14979656077566 35.43818561466351 23.14
  endloop
endfacet
facet normal 0.7690661899904135 0.6391691446038592 0.0
  outer loop
    vertex -105.31938039491025 35.689399398823426 23.0
    vertex -105.22121065885891 35.571278826961084 23.14
    vertex -105.22121065885891 35.571278826961084 23.0
  endloop
endfacet
facet normal 0.7690661899904135 0.6391691446038592 0.0
  outer loop
    vertex -105.22121065885891 35.571278826961084 23.14
    vertex -105.31938039491025 35.689399398823426 23.0
    vertex -105.31938039491025 35.689399398823426 23.14
  endloop
endfacet
facet normal 0.994863895213231 0.10122168740520546 0.0
  outer loop
    vertex -105.10626935145126 35.29693148305293 23.0
    vertex -105.09176028167644 35.15432815325156 23.14
    vertex -105.09176028167644 35.15432815325156 23.0
  endloop
endfacet
facet normal 0.994863895213231 0.10122168740520546 0.0
  outer loop
    vertex -105.09176028167644 35.15432815325156 23.14
    vertex -105.10626935145126 35.29693148305293 23.0
    vertex -105.10626935145126 35.29693148305293 23.14
  endloop
endfacet
facet normal 0.6276144864764168 0.77852428116594 0.0
  outer loop
    vertex -105.44339938450415 35.78937844424347 23.14
    vertex -105.31938039491025 35.689399398823426 23.0
    vertex -105.44339938450415 35.78937844424347 23.0
  endloop
endfacet
facet normal 0.6276144864764168 0.77852428116594 0.0
  outer loop
    vertex -105.31938039491025 35.689399398823426 23.0
    vertex -105.44339938450415 35.78937844424347 23.14
    vertex -105.31938039491025 35.689399398823426 23.14
  endloop
endfacet
facet normal 0.9857628344183916 -0.16814170892261832 0.0
  outer loop
    vertex -105.09176028167644 35.15432815325156 23.0
    vertex -105.1316688722635 34.920356430073426 23.14
    vertex -105.1316688722635 34.920356430073426 23.0
  endloop
endfacet
facet normal 0.9857628344183916 -0.16814170892261832 0.0
  outer loop
    vertex -105.1316688722635 34.920356430073426 23.14
    vertex -105.09176028167644 35.15432815325156 23.0
    vertex -105.09176028167644 35.15432815325156 23.14
  endloop
endfacet
facet normal 0.46699016413568123 0.8842625100051057 0.0
  outer loop
    vertex -105.59236124321491 35.868047077214115 23.14
    vertex -105.44339938450415 35.78937844424347 23.0
    vertex -105.59236124321491 35.868047077214115 23.0
  endloop
endfacet
facet normal 0.46699016413568123 0.8842625100051057 0.0
  outer loop
    vertex -105.44339938450415 35.78937844424347 23.0
    vertex -105.59236124321491 35.868047077214115 23.14
    vertex -105.44339938450415 35.78937844424347 23.14
  endloop
endfacet
facet normal -0.4254936810863847 0.9049613955056636 0.0
  outer loop
    vertex -106.53915242489506 35.771914976379094 23.14
    vertex -106.28068756533031 35.89343967906129 23.0
    vertex -106.53915242489506 35.771914976379094 23.0
  endloop
endfacet
facet normal -0.4254936810863847 0.9049613955056636 0.0
  outer loop
    vertex -106.28068756533031 35.89343967906129 23.0
    vertex -106.53915242489506 35.771914976379094 23.14
    vertex -106.28068756533031 35.89343967906129 23.14
  endloop
endfacet
facet normal -0.6971309456284914 0.7169438225182816 0.0
  outer loop
    vertex -106.73594162972807 35.58056407809974 23.14
    vertex -106.53915242489506 35.771914976379094 23.0
    vertex -106.73594162972807 35.58056407809974 23.0
  endloop
endfacet
facet normal -0.6971309456284914 0.7169438225182816 0.0
  outer loop
    vertex -106.53915242489506 35.771914976379094 23.0
    vertex -106.73594162972807 35.58056407809974 23.14
    vertex -106.53915242489506 35.771914976379094 23.14
  endloop
endfacet
facet normal -0.1319728648054527 0.9912533293538246 0.0
  outer loop
    vertex -106.28068756533031 35.89343967906129 23.14
    vertex -105.9605608889639 35.936060503960064 23.0
    vertex -106.28068756533031 35.89343967906129 23.0
  endloop
endfacet
facet normal -0.1319728648054527 0.9912533293538246 0.0
  outer loop
    vertex -105.9605608889639 35.936060503960064 23.0
    vertex -106.28068756533031 35.89343967906129 23.14
    vertex -105.9605608889639 35.936060503960064 23.14
  endloop
endfacet
facet normal 0.8811651556273784 0.47280859605994674 0.0
  outer loop
    vertex -105.22121065885891 35.571278826961084 23.0
    vertex -105.14979656077566 35.43818561466351 23.14
    vertex -105.14979656077566 35.43818561466351 23.0
  endloop
endfacet
facet normal 0.8811651556273784 0.47280859605994674 0.0
  outer loop
    vertex -105.14979656077566 35.43818561466351 23.14
    vertex -105.22121065885891 35.571278826961084 23.0
    vertex -105.22121065885891 35.571278826961084 23.14
  endloop
endfacet
facet normal 0.08667603636131614 0.9962365505845948 0.0
  outer loop
    vertex -105.9605608889639 35.936060503960064 23.14
    vertex -105.76512780128677 35.91905714727358 23.0
    vertex -105.9605608889639 35.936060503960064 23.0
  endloop
endfacet
facet normal 0.08667603636131614 0.9962365505845948 0.0
  outer loop
    vertex -105.76512780128677 35.91905714727358 23.0
    vertex -105.9605608889639 35.936060503960064 23.14
    vertex -105.76512780128677 35.91905714727358 23.14
  endloop
endfacet
facet normal -0.879956647626695 0.47505399513906693 0.0
  outer loop
    vertex -106.73594162972807 35.58056407809974 23.14
    vertex -106.87106901775945 35.330263597330514 23.0
    vertex -106.87106901775945 35.330263597330514 23.14
  endloop
endfacet
facet normal -0.879956647626695 0.47505399513906693 0.0
  outer loop
    vertex -106.87106901775945 35.330263597330514 23.0
    vertex -106.73594162972807 35.58056407809974 23.14
    vertex -106.73594162972807 35.58056407809974 23.0
  endloop
endfacet
facet normal 0.2831695100769593 0.9590698767883261 0.0
  outer loop
    vertex -105.76512780128677 35.91905714727358 23.14
    vertex -105.59236124321491 35.868047077214115 23.0
    vertex -105.76512780128677 35.91905714727358 23.0
  endloop
endfacet
facet normal 0.2831695100769593 0.9590698767883261 0.0
  outer loop
    vertex -105.59236124321491 35.868047077214115 23.0
    vertex -105.76512780128677 35.91905714727358 23.14
    vertex -105.59236124321491 35.868047077214115 23.14
  endloop
endfacet
facet normal -0.34981877908003256 -0.9368173897846664 0.0
  outer loop
    vertex -106.4484586306137 35.172455841763714 23.14
    vertex -106.87106901775945 35.330263597330514 23.0
    vertex -106.4484586306137 35.172455841763714 23.0
  endloop
endfacet
facet normal -0.34981877908003256 -0.9368173897846664 0.0
  outer loop
    vertex -106.87106901775945 35.330263597330514 23.0
    vertex -106.4484586306137 35.172455841763714 23.14
    vertex -106.87106901775945 35.330263597330514 23.14
  endloop
endfacet
facet normal 0.8532288330588655 -0.5215367277929777 0.0
  outer loop
    vertex -106.35504568305551 35.325278482989674 23.0
    vertex -106.4484586306137 35.172455841763714 23.14
    vertex -106.4484586306137 35.172455841763714 23.0
  endloop
endfacet
facet normal 0.8532288330588655 -0.5215367277929777 0.0
  outer loop
    vertex -106.4484586306137 35.172455841763714 23.14
    vertex -106.35504568305551 35.325278482989674 23.0
    vertex -106.35504568305551 35.325278482989674 23.14
  endloop
endfacet
facet normal 0.7420331964618653 -0.6703631369254929 0.0
  outer loop
    vertex -106.24894335353882 35.442724455756625 23.0
    vertex -106.35504568305551 35.325278482989674 23.14
    vertex -106.35504568305551 35.325278482989674 23.0
  endloop
endfacet
facet normal 0.7420331964618653 -0.6703631369254929 0.0
  outer loop
    vertex -106.35504568305551 35.325278482989674 23.14
    vertex -106.24894335353882 35.442724455756625 23.0
    vertex -106.24894335353882 35.442724455756625 23.14
  endloop
endfacet
facet normal 0.524290831289772 -0.8515392675769449 0.0
  outer loop
    vertex -106.1274255698217 35.51754268465971 23.14
    vertex -106.24894335353882 35.442724455756625 23.0
    vertex -106.1274255698217 35.51754268465971 23.0
  endloop
endfacet
facet normal 0.524290831289772 -0.8515392675769449 0.0
  outer loop
    vertex -106.24894335353882 35.442724455756625 23.0
    vertex -106.1274255698217 35.51754268465971 23.14
    vertex -106.24894335353882 35.442724455756625 23.14
  endloop
endfacet
facet normal 0.7616298452691874 -0.648012329200019 0.0
  outer loop
    vertex -105.3910331972888 34.5177003382212 23.0
    vertex -105.56695480343758 34.31093398574144 23.14
    vertex -105.56695480343758 34.31093398574144 23.0
  endloop
endfacet
facet normal 0.7616298452691874 -0.648012329200019 0.0
  outer loop
    vertex -105.56695480343758 34.31093398574144 23.14
    vertex -105.3910331972888 34.5177003382212 23.0
    vertex -105.3910331972888 34.5177003382212 23.14
  endloop
endfacet
facet normal 0.0 0.0 1.0
  outer loop
    vertex -111.02427467312383 33.1845818222799 23.14
    vertex -111.65307021968253 35.47464856064023 23.14
    vertex -111.65307021968253 33.1845818222799 23.14
  endloop
endfacet
facet normal 0.0 0.0 1.0
  outer loop
    vertex -109.58778681887281 33.1845818222799 23.14
    vertex -110.21481111037079 34.43331664009367 23.14
    vertex -110.21481111037079 33.1845818222799 23.14
  endloop
endfacet
facet normal 0.0 0.0 1.0
  outer loop
    vertex -110.21481111037079 34.43331664009367 23.14
    vertex -109.58778681887281 33.1845818222799 23.14
    vertex -110.21481111037079 34.84601906924347 23.14
  endloop
endfacet
facet normal 0.0 0.0 1.0
  outer loop
    vertex -110.21481111037079 34.84601906924347 23.14
    vertex -109.58778681887281 33.1845818222799 23.14
    vertex -110.21481111037079 35.904399319749544 23.14
  endloop
endfacet
facet normal 0.0 0.0 1.0
  outer loop
    vertex -110.21481111037079 35.904399319749544 23.14
    vertex -109.58778681887281 33.1845818222799 23.14
    vertex -109.58778681887281 35.940654696773834 23.14
  endloop
endfacet
facet normal 0.0 0.0 1.0
  outer loop
    vertex -110.21481111037079 34.43331664009367 23.14
    vertex -111.02427467312383 34.84601906924347 23.14
    vertex -111.02427467312383 34.43331664009367 23.14
  endloop
endfacet
facet normal 0.0 0.0 1.0
  outer loop
    vertex -111.02427467312383 34.84601906924347 23.14
    vertex -110.21481111037079 34.43331664009367 23.14
    vertex -110.21481111037079 34.84601906924347 23.14
  endloop
endfacet
facet normal 0.0 0.0 1.0
  outer loop
    vertex -111.65307021968253 35.47464856064023 23.14
    vertex -111.02427467312383 35.940654696773834 23.14
    vertex -111.70927989200035 35.904399319749544 23.14
  endloop
endfacet
facet normal 0.0 0.0 1.0
  outer loop
    vertex -111.02427467312383 35.940654696773834 23.14
    vertex -111.65307021968253 35.47464856064023 23.14
    vertex -111.02427467312383 33.1845818222799 23.14
  endloop
endfacet
facet normal 0.0 0.0 1.0
  outer loop
    vertex -111.02427467312383 35.940654696773834 23.14
    vertex -111.02427467312383 33.1845818222799 23.14
    vertex -111.02427467312383 34.43331664009367 23.14
  endloop
endfacet
facet normal 0.0 0.0 1.0
  outer loop
    vertex -111.02427467312383 35.940654696773834 23.14
    vertex -111.02427467312383 34.43331664009367 23.14
    vertex -111.02427467312383 34.84601906924347 23.14
  endloop
endfacet
facet normal 0.0 0.0 -1.0
  outer loop
    vertex -106.73594162972807 35.58056407809974 23.0
    vertex -106.4484586306137 35.172455841763714 23.0
    vertex -106.87106901775945 35.330263597330514 23.0
  endloop
endfacet
facet normal 0.0 0.0 -1.0
  outer loop
    vertex -106.4484586306137 35.172455841763714 23.0
    vertex -106.73594162972807 35.58056407809974 23.0
    vertex -106.53915242489506 35.771914976379094 23.0
  endloop
endfacet
facet normal 0.0 0.0 -1.0
  outer loop
    vertex -106.4484586306137 35.172455841763714 23.0
    vertex -106.53915242489506 35.771914976379094 23.0
    vertex -106.28068756533031 35.89343967906129 23.0
  endloop
endfacet
facet normal 0.0 0.0 -1.0
  outer loop
    vertex -106.4484586306137 35.172455841763714 23.0
    vertex -106.28068756533031 35.89343967906129 23.0
    vertex -106.35504568305551 35.325278482989674 23.0
  endloop
endfacet
facet normal 0.0 0.0 -1.0
  outer loop
    vertex -106.35504568305551 35.325278482989674 23.0
    vertex -106.28068756533031 35.89343967906129 23.0
    vertex -106.24894335353882 35.442724455756625 23.0
  endloop
endfacet
facet normal 0.0 0.0 -1.0
  outer loop
    vertex -106.24894335353882 35.442724455756625 23.0
    vertex -106.28068756533031 35.89343967906129 23.0
    vertex -105.9605608889639 35.936060503960064 23.0
  endloop
endfacet
facet normal 0.0 0.0 -1.0
  outer loop
    vertex -106.24894335353882 35.442724455756625 23.0
    vertex -105.9605608889639 35.936060503960064 23.0
    vertex -106.1274255698217 35.51754268465971 23.0
  endloop
endfacet
facet normal 0.0 0.0 -1.0
  outer loop
    vertex -106.1274255698217 35.51754268465971 23.0
    vertex -105.9605608889639 35.936060503960064 23.0
    vertex -105.9877662596623 35.54248209429407 23.0
  endloop
endfacet
facet normal 0.0 0.0 -1.0
  outer loop
    vertex -105.9877662596623 35.54248209429407 23.0
    vertex -105.9605608889639 35.936060503960064 23.0
    vertex -105.85535110594265 35.510737882502575 23.0
  endloop
endfacet
facet normal 0.0 0.0 -1.0
  outer loop
    vertex -105.85535110594265 35.510737882502575 23.0
    vertex -105.9605608889639 35.936060503960064 23.0
    vertex -105.76512780128677 35.91905714727358 23.0
  endloop
endfacet
facet normal 0.0 0.0 -1.0
  outer loop
    vertex -105.85535110594265 35.510737882502575 23.0
    vertex -105.76512780128677 35.91905714727358 23.0
    vertex -105.75378069855398 35.42639569816553 23.0
  endloop
endfacet
facet normal 0.0 0.0 -1.0
  outer loop
    vertex -105.75378069855398 35.42639569816553 23.0
    vertex -105.76512780128677 35.91905714727358 23.0
    vertex -105.59236124321491 35.868047077214115 23.0
  endloop
endfacet
facet normal 0.0 0.0 -1.0
  outer loop
    vertex -105.75378069855398 35.42639569816553 23.0
    vertex -105.59236124321491 35.868047077214115 23.0
    vertex -105.68939280951045 35.307597067725254 23.0
  endloop
endfacet
facet normal 0.0 0.0 -1.0
  outer loop
    vertex -105.68939280951045 35.307597067725254 23.0
    vertex -105.59236124321491 35.868047077214115 23.0
    vertex -105.6667262799052 35.174282448545085 23.0
  endloop
endfacet
facet normal 0.0 0.0 -1.0
  outer loop
    vertex -106.0240493125469 34.59023876813011 23.0
    vertex -106.21086136973314 33.547329323545085 23.0
    vertex -106.22173798284042 34.37078303369185 23.0
  endloop
endfacet
facet normal 0.0 0.0 -1.0
  outer loop
    vertex -106.21086136973314 33.547329323545085 23.0
    vertex -106.0240493125469 34.59023876813011 23.0
    vertex -106.09931381469772 33.688808321520796 23.0
  endloop
endfacet
facet normal 0.0 0.0 -1.0
  outer loop
    vertex -106.09931381469772 33.688808321520796 23.0
    vertex -106.0240493125469 34.59023876813011 23.0
    vertex -105.93970712820988 33.87562037870703 23.0
  endloop
endfacet
facet normal 0.0 0.0 -1.0
  outer loop
    vertex -105.93970712820988 33.87562037870703 23.0
    vertex -106.0240493125469 34.59023876813011 23.0
    vertex -105.85717771272404 34.76798698106027 23.0
  endloop
endfacet
facet normal 0.0 0.0 -1.0
  outer loop
    vertex -105.93970712820988 33.87562037870703 23.0
    vertex -105.85717771272404 34.76798698106027 23.0
    vertex -105.75469400194467 34.08965164452181 23.0
  endloop
endfacet
facet normal 0.0 0.0 -1.0
  outer loop
    vertex -105.75469400194467 34.08965164452181 23.0
    vertex -105.85717771272404 34.76798698106027 23.0
    vertex -105.74652962314913 34.90221490363112 23.0
  endloop
endfacet
facet normal 0.0 0.0 -1.0
  outer loop
    vertex -105.75469400194467 34.08965164452181 23.0
    vertex -105.74652962314913 34.90221490363112 23.0
    vertex -105.56695480343758 34.31093398574144 23.0
  endloop
endfacet
facet normal 0.0 0.0 -1.0
  outer loop
    vertex -105.56695480343758 34.31093398574144 23.0
    vertex -105.74652962314913 34.90221490363112 23.0
    vertex -105.68576727180805 35.026465678555205 23.0
  endloop
endfacet
facet normal 0.0 0.0 -1.0
  outer loop
    vertex -105.56695480343758 34.31093398574144 23.0
    vertex -105.68576727180805 35.026465678555205 23.0
    vertex -105.6667262799052 35.174282448545085 23.0
  endloop
endfacet
facet normal 0.0 0.0 -1.0
  outer loop
    vertex -105.56695480343758 34.31093398574144 23.0
    vertex -105.6667262799052 35.174282448545085 23.0
    vertex -105.59236124321491 35.868047077214115 23.0
  endloop
endfacet
facet normal 0.0 0.0 -1.0
  outer loop
    vertex -105.56695480343758 34.31093398574144 23.0
    vertex -105.59236124321491 35.868047077214115 23.0
    vertex -105.44339938450415 35.78937844424347 23.0
  endloop
endfacet
facet normal 0.0 0.0 -1.0
  outer loop
    vertex -105.56695480343758 34.31093398574144 23.0
    vertex -105.44339938450415 35.78937844424347 23.0
    vertex -105.3910331972888 34.5177003382212 23.0
  endloop
endfacet
facet normal 0.0 0.0 -1.0
  outer loop
    vertex -105.3910331972888 34.5177003382212 23.0
    vertex -105.44339938450415 35.78937844424347 23.0
    vertex -105.31938039491025 35.689399398823426 23.0
  endloop
endfacet
facet normal 0.0 0.0 -1.0
  outer loop
    vertex -105.3910331972888 34.5177003382212 23.0
    vertex -105.31938039491025 35.689399398823426 23.0
    vertex -105.23867758620581 34.7144895430542 23.0
  endloop
endfacet
facet normal 0.0 0.0 -1.0
  outer loop
    vertex -105.23867758620581 34.7144895430542 23.0
    vertex -105.31938039491025 35.689399398823426 23.0
    vertex -105.22121065885891 35.571278826961084 23.0
  endloop
endfacet
facet normal 0.0 0.0 -1.0
  outer loop
    vertex -105.23867758620581 34.7144895430542 23.0
    vertex -105.22121065885891 35.571278826961084 23.0
    vertex -105.1316688722635 34.920356430073426 23.0
  endloop
endfacet
facet normal 0.0 0.0 -1.0
  outer loop
    vertex -105.1316688722635 34.920356430073426 23.0
    vertex -105.22121065885891 35.571278826961084 23.0
    vertex -105.14979656077566 35.43818561466351 23.0
  endloop
endfacet
facet normal 0.0 0.0 -1.0
  outer loop
    vertex -105.1316688722635 34.920356430073426 23.0
    vertex -105.14979656077566 35.43818561466351 23.0
    vertex -105.10626935145126 35.29693148305293 23.0
  endloop
endfacet
facet normal 0.0 0.0 -1.0
  outer loop
    vertex -105.1316688722635 34.920356430073426 23.0
    vertex -105.10626935145126 35.29693148305293 23.0
    vertex -105.09176028167644 35.15432815325156 23.0
  endloop
endfacet
facet normal 0.0 0.0 -1.0
  outer loop
    vertex -106.68153088833132 33.81124632759367 23.0
    vertex -106.87832009316432 33.1845818222799 23.0
    vertex -106.87832009316432 33.52920163503294 23.0
  endloop
endfacet
facet normal 0.0 0.0 -1.0
  outer loop
    vertex -106.87832009316432 33.1845818222799 23.0
    vertex -106.68153088833132 33.81124632759367 23.0
    vertex -106.21086136973314 33.547329323545085 23.0
  endloop
endfacet
facet normal 0.0 0.0 -1.0
  outer loop
    vertex -106.87832009316432 33.1845818222799 23.0
    vertex -106.21086136973314 33.547329323545085 23.0
    vertex -105.04642722246594 33.1845818222799 23.0
  endloop
endfacet
facet normal 0.0 0.0 -1.0
  outer loop
    vertex -106.21086136973314 33.547329323545085 23.0
    vertex -106.68153088833132 33.81124632759367 23.0
    vertex -106.45208416831613 34.10144156101978 23.0
  endloop
endfacet
facet normal 0.0 0.0 -1.0
  outer loop
    vertex -106.21086136973314 33.547329323545085 23.0
    vertex -106.45208416831613 34.10144156101978 23.0
    vertex -106.22173798284042 34.37078303369185 23.0
  endloop
endfacet
facet normal 0.0 0.0 -1.0
  outer loop
    vertex -105.04642722246594 33.1845818222799 23.0
    vertex -106.21086136973314 33.547329323545085 23.0
    vertex -105.04642722246594 33.547329323545085 23.0
  endloop
endfacet
facet normal 0.0 0.0 -1.0
  outer loop
    vertex -107.32235159620076 35.90522959555926 23.0
    vertex -109.07589410632221 35.47536813300865 23.0
    vertex -109.1393825299052 35.90522959555926 23.0
  endloop
endfacet
facet normal 0.0 0.0 -1.0
  outer loop
    vertex -109.07589410632221 35.47536813300865 23.0
    vertex -107.32235159620076 35.90522959555926 23.0
    vertex -108.46721891021896 35.49252716640946 23.0
  endloop
endfacet
facet normal 0.0 0.0 -1.0
  outer loop
    vertex -109.07589410632221 35.47536813300865 23.0
    vertex -108.46721891021896 35.49252716640946 23.0
    vertex -109.07589410632221 33.1845818222799 23.0
  endloop
endfacet
facet normal 0.0 0.0 -1.0
  outer loop
    vertex -108.46721891021896 35.49252716640946 23.0
    vertex -107.32235159620076 35.90522959555926 23.0
    vertex -107.37133786897402 35.49252716640946 23.0
  endloop
endfacet
facet normal 0.0 0.0 -1.0
  outer loop
    vertex -107.50833337757726 34.84601906924347 23.0
    vertex -108.44001353952059 34.4598854660046 23.0
    vertex -108.44001353952059 34.84601906924347 23.0
  endloop
endfacet
facet normal 0.0 0.0 -1.0
  outer loop
    vertex -108.44001353952059 34.4598854660046 23.0
    vertex -107.50833337757726 34.84601906924347 23.0
    vertex -107.50833337757726 34.4598854660046 23.0
  endloop
endfacet
facet normal 0.0 0.0 -1.0
  outer loop
    vertex -108.46721891021896 35.49252716640946 23.0
    vertex -108.44001353952059 33.1845818222799 23.0
    vertex -109.07589410632221 33.1845818222799 23.0
  endloop
endfacet
facet normal 0.0 0.0 -1.0
  outer loop
    vertex -108.44001353952059 33.1845818222799 23.0
    vertex -108.46721891021896 35.49252716640946 23.0
    vertex -108.44001353952059 35.24192225117667 23.0
  endloop
endfacet
facet normal 0.0 0.0 -1.0
  outer loop
    vertex -108.44001353952059 33.1845818222799 23.0
    vertex -108.44001353952059 35.24192225117667 23.0
    vertex -108.44001353952059 34.84601906924347 23.0
  endloop
endfacet
facet normal 0.0 0.0 -1.0
  outer loop
    vertex -108.44001353952059 33.1845818222799 23.0
    vertex -108.44001353952059 34.84601906924347 23.0
    vertex -108.44001353952059 34.4598854660046 23.0
  endloop
endfacet
facet normal 0.0 0.0 -1.0
  outer loop
    vertex -109.58778681887281 35.940654696773834 23.0
    vertex -110.21481111037079 34.84601906924347 23.0
    vertex -110.21481111037079 35.904399319749544 23.0
  endloop
endfacet
facet normal 0.0 0.0 -1.0
  outer loop
    vertex -110.21481111037079 34.84601906924347 23.0
    vertex -109.58778681887281 35.940654696773834 23.0
    vertex -110.21481111037079 34.43331664009367 23.0
  endloop
endfacet
facet normal 0.0 0.0 -1.0
  outer loop
    vertex -110.21481111037079 34.43331664009367 23.0
    vertex -109.58778681887281 35.940654696773834 23.0
    vertex -110.21481111037079 33.1845818222799 23.0
  endloop
endfacet
facet normal 0.0 0.0 -1.0
  outer loop
    vertex -110.21481111037079 33.1845818222799 23.0
    vertex -109.58778681887281 35.940654696773834 23.0
    vertex -109.58778681887281 33.1845818222799 23.0
  endloop
endfacet
facet normal 0.0 0.0 -1.0
  outer loop
    vertex -110.21481111037079 34.84601906924347 23.0
    vertex -111.02427467312383 34.43331664009367 23.0
    vertex -111.02427467312383 34.84601906924347 23.0
  endloop
endfacet
facet normal 0.0 0.0 -1.0
  outer loop
    vertex -111.02427467312383 34.43331664009367 23.0
    vertex -110.21481111037079 34.84601906924347 23.0
    vertex -110.21481111037079 34.43331664009367 23.0
  endloop
endfacet
facet normal 0.0 0.0 -1.0
  outer loop
    vertex -111.02427467312383 35.940654696773834 23.0
    vertex -111.65307021968253 35.47464856064023 23.0
    vertex -111.70927989200035 35.904399319749544 23.0
  endloop
endfacet
facet normal 0.0 0.0 -1.0
  outer loop
    vertex -111.65307021968253 35.47464856064023 23.0
    vertex -111.02427467312383 35.940654696773834 23.0
    vertex -111.65307021968253 33.1845818222799 23.0
  endloop
endfacet
facet normal 0.0 0.0 -1.0
  outer loop
    vertex -111.65307021968253 33.1845818222799 23.0
    vertex -111.02427467312383 35.940654696773834 23.0
    vertex -111.02427467312383 33.1845818222799 23.0
  endloop
endfacet
facet normal 0.0 0.0 -1.0
  outer loop
    vertex -111.02427467312383 33.1845818222799 23.0
    vertex -111.02427467312383 35.940654696773834 23.0
    vertex -111.02427467312383 34.84601906924347 23.0
  endloop
endfacet
facet normal 0.0 0.0 -1.0
  outer loop
    vertex -111.02427467312383 33.1845818222799 23.0
    vertex -111.02427467312383 34.84601906924347 23.0
    vertex -111.02427467312383 34.43331664009367 23.0
  endloop
endfacet
facet normal 0.0 -1.0 0.0
  outer loop
    vertex -105.04642722246594 33.1845818222799 23.14
    vertex -106.87832009316432 33.1845818222799 23.0
    vertex -105.04642722246594 33.1845818222799 23.0
  endloop
endfacet
facet normal 0.0 -1.0 0.0
  outer loop
    vertex -106.87832009316432 33.1845818222799 23.0
    vertex -105.04642722246594 33.1845818222799 23.14
    vertex -106.87832009316432 33.1845818222799 23.14
  endloop
endfacet
facet normal 1.0 0.0 0.0
  outer loop
    vertex -105.04642722246594 33.547329323545085 23.0
    vertex -105.04642722246594 33.1845818222799 23.14
    vertex -105.04642722246594 33.1845818222799 23.0
  endloop
endfacet
facet normal 1.0 0.0 0.0
  outer loop
    vertex -105.04642722246594 33.1845818222799 23.14
    vertex -105.04642722246594 33.547329323545085 23.0
    vertex -105.04642722246594 33.547329323545085 23.14
  endloop
endfacet
facet normal 0.0 1.0 0.0
  outer loop
    vertex -106.21086136973314 33.547329323545085 23.14
    vertex -105.04642722246594 33.547329323545085 23.0
    vertex -106.21086136973314 33.547329323545085 23.0
  endloop
endfacet
facet normal 0.0 1.0 0.0
  outer loop
    vertex -105.04642722246594 33.547329323545085 23.0
    vertex -106.21086136973314 33.547329323545085 23.14
    vertex -105.04642722246594 33.547329323545085 23.14
  endloop
endfacet
facet normal -1.0 0.0 0.0
  outer loop
    vertex -109.07589410632221 35.47536813300865 23.14
    vertex -109.07589410632221 33.1845818222799 23.0
    vertex -109.07589410632221 33.1845818222799 23.14
  endloop
endfacet
facet normal -1.0 0.0 0.0
  outer loop
    vertex -109.07589410632221 33.1845818222799 23.0
    vertex -109.07589410632221 35.47536813300865 23.14
    vertex -109.07589410632221 35.47536813300865 23.0
  endloop
endfacet
facet normal -1.0 0.0 0.0
  outer loop
    vertex -110.21481111037079 35.904399319749544 23.14
    vertex -110.21481111037079 34.84601906924347 23.0
    vertex -110.21481111037079 34.84601906924347 23.14
  endloop
endfacet
facet normal -1.0 0.0 0.0
  outer loop
    vertex -110.21481111037079 34.84601906924347 23.0
    vertex -110.21481111037079 35.904399319749544 23.14
    vertex -110.21481111037079 35.904399319749544 23.0
  endloop
endfacet
facet normal 1.0 0.0 0.0
  outer loop
    vertex -109.58778681887281 35.940654696773834 23.0
    vertex -109.58778681887281 33.1845818222799 23.14
    vertex -109.58778681887281 33.1845818222799 23.0
  endloop
endfacet
facet normal 1.0 0.0 0.0
  outer loop
    vertex -109.58778681887281 33.1845818222799 23.14
    vertex -109.58778681887281 35.940654696773834 23.0
    vertex -109.58778681887281 35.940654696773834 23.14
  endloop
endfacet
facet normal 0.0 1.0 0.0
  outer loop
    vertex -111.02427467312383 34.84601906924347 23.14
    vertex -110.21481111037079 34.84601906924347 23.0
    vertex -111.02427467312383 34.84601906924347 23.0
  endloop
endfacet
facet normal 0.0 1.0 0.0
  outer loop
    vertex -110.21481111037079 34.84601906924347 23.0
    vertex -111.02427467312383 34.84601906924347 23.14
    vertex -110.21481111037079 34.84601906924347 23.14
  endloop
endfacet
facet normal 1.0 0.0 0.0
  outer loop
    vertex -111.02427467312383 35.940654696773834 23.0
    vertex -111.02427467312383 34.84601906924347 23.14
    vertex -111.02427467312383 34.84601906924347 23.0
  endloop
endfacet
facet normal 1.0 0.0 0.0
  outer loop
    vertex -111.02427467312383 34.84601906924347 23.14
    vertex -111.02427467312383 35.940654696773834 23.0
    vertex -111.02427467312383 35.940654696773834 23.14
  endloop
endfacet
facet normal 0.0 -1.0 0.0
  outer loop
    vertex -111.02427467312383 33.1845818222799 23.14
    vertex -111.65307021968253 33.1845818222799 23.0
    vertex -111.02427467312383 33.1845818222799 23.0
  endloop
endfacet
facet normal 0.0 -1.0 0.0
  outer loop
    vertex -111.65307021968253 33.1845818222799 23.0
    vertex -111.02427467312383 33.1845818222799 23.14
    vertex -111.65307021968253 33.1845818222799 23.14
  endloop
endfacet
facet normal 1.0 0.0 0.0
  outer loop
    vertex -111.02427467312383 34.43331664009367 23.0
    vertex -111.02427467312383 33.1845818222799 23.14
    vertex -111.02427467312383 33.1845818222799 23.0
  endloop
endfacet
facet normal 1.0 0.0 0.0
  outer loop
    vertex -111.02427467312383 33.1845818222799 23.14
    vertex -111.02427467312383 34.43331664009367 23.0
    vertex -111.02427467312383 34.43331664009367 23.14
  endloop
endfacet
facet normal 0.0 -1.0 0.0
  outer loop
    vertex -110.21481111037079 34.43331664009367 23.14
    vertex -111.02427467312383 34.43331664009367 23.0
    vertex -110.21481111037079 34.43331664009367 23.0
  endloop
endfacet
facet normal 0.0 -1.0 0.0
  outer loop
    vertex -111.02427467312383 34.43331664009367 23.0
    vertex -110.21481111037079 34.43331664009367 23.14
    vertex -111.02427467312383 34.43331664009367 23.14
  endloop
endfacet
facet normal 0.0 -1.0 0.0
  outer loop
    vertex -109.58778681887281 33.1845818222799 23.14
    vertex -110.21481111037079 33.1845818222799 23.0
    vertex -109.58778681887281 33.1845818222799 23.0
  endloop
endfacet
facet normal 0.0 -1.0 0.0
  outer loop
    vertex -110.21481111037079 33.1845818222799 23.0
    vertex -109.58778681887281 33.1845818222799 23.14
    vertex -110.21481111037079 33.1845818222799 23.14
  endloop
endfacet
facet normal -0.05772491218225242 0.9983325270237124 0.0
  outer loop
    vertex -110.21481111037079 35.904399319749544 23.14
    vertex -109.58778681887281 35.940654696773834 23.0
    vertex -110.21481111037079 35.904399319749544 23.0
  endloop
endfacet
facet normal -0.05772491218225242 0.9983325270237124 0.0
  outer loop
    vertex -109.58778681887281 35.940654696773834 23.0
    vertex -110.21481111037079 35.904399319749544 23.14
    vertex -109.58778681887281 35.940654696773834 23.14
  endloop
endfacet
facet normal -0.9915544151345603 -0.12969133289144688 0.0
  outer loop
    vertex -111.70927989200035 35.904399319749544 23.14
    vertex -111.65307021968253 35.47464856064023 23.0
    vertex -111.65307021968253 35.47464856064023 23.14
  endloop
endfacet
facet normal -0.9915544151345603 -0.12969133289144688 0.0
  outer loop
    vertex -111.65307021968253 35.47464856064023 23.0
    vertex -111.70927989200035 35.904399319749544 23.14
    vertex -111.70927989200035 35.904399319749544 23.0
  endloop
endfacet
facet normal -1.0 0.0 0.0
  outer loop
    vertex -111.65307021968253 35.47464856064023 23.14
    vertex -111.65307021968253 33.1845818222799 23.0
    vertex -111.65307021968253 33.1845818222799 23.14
  endloop
endfacet
facet normal -1.0 0.0 0.0
  outer loop
    vertex -111.65307021968253 33.1845818222799 23.0
    vertex -111.65307021968253 35.47464856064023 23.14
    vertex -111.65307021968253 35.47464856064023 23.0
  endloop
endfacet
facet normal -0.05285317785727831 0.998602294004168 0.0
  outer loop
    vertex -111.70927989200035 35.904399319749544 23.14
    vertex -111.02427467312383 35.940654696773834 23.0
    vertex -111.70927989200035 35.904399319749544 23.0
  endloop
endfacet
facet normal -0.05285317785727831 0.998602294004168 0.0
  outer loop
    vertex -111.02427467312383 35.940654696773834 23.0
    vertex -111.70927989200035 35.904399319749544 23.14
    vertex -111.02427467312383 35.940654696773834 23.14
  endloop
endfacet
facet normal 1.0 0.0 0.0
  outer loop
    vertex -107.50833337757726 34.84601906924347 23.0
    vertex -107.50833337757726 34.4598854660046 23.14
    vertex -107.50833337757726 34.4598854660046 23.0
  endloop
endfacet
facet normal 1.0 0.0 0.0
  outer loop
    vertex -107.50833337757726 34.4598854660046 23.14
    vertex -107.50833337757726 34.84601906924347 23.0
    vertex -107.50833337757726 34.84601906924347 23.14
  endloop
endfacet
facet normal 0.0 0.0 1.0
  outer loop
    vertex -105.04642722246594 33.1845818222799 23.14
    vertex -106.87832009316432 33.52920163503294 23.14
    vertex -106.87832009316432 33.1845818222799 23.14
  endloop
endfacet
facet normal 0.0 0.0 1.0
  outer loop
    vertex -106.87832009316432 33.52920163503294 23.14
    vertex -105.04642722246594 33.1845818222799 23.14
    vertex -106.21086136973314 33.547329323545085 23.14
  endloop
endfacet
facet normal 0.0 0.0 1.0
  outer loop
    vertex -106.87832009316432 33.52920163503294 23.14
    vertex -106.21086136973314 33.547329323545085 23.14
    vertex -106.68153088833132 33.81124632759367 23.14
  endloop
endfacet
facet normal 0.0 0.0 1.0
  outer loop
    vertex -106.68153088833132 33.81124632759367 23.14
    vertex -106.21086136973314 33.547329323545085 23.14
    vertex -106.45208416831613 34.10144156101978 23.14
  endloop
endfacet
facet normal 0.0 0.0 1.0
  outer loop
    vertex -106.45208416831613 34.10144156101978 23.14
    vertex -106.21086136973314 33.547329323545085 23.14
    vertex -106.22173798284042 34.37078303369185 23.14
  endloop
endfacet
facet normal 0.0 0.0 1.0
  outer loop
    vertex -106.21086136973314 33.547329323545085 23.14
    vertex -105.04642722246594 33.1845818222799 23.14
    vertex -105.04642722246594 33.547329323545085 23.14
  endloop
endfacet
facet normal 0.0 0.0 1.0
  outer loop
    vertex -106.21086136973314 33.547329323545085 23.14
    vertex -106.0240493125469 34.59023876813011 23.14
    vertex -106.22173798284042 34.37078303369185 23.14
  endloop
endfacet
facet normal 0.0 0.0 1.0
  outer loop
    vertex -106.0240493125469 34.59023876813011 23.14
    vertex -106.21086136973314 33.547329323545085 23.14
    vertex -106.09931381469772 33.688808321520796 23.14
  endloop
endfacet
facet normal 0.0 0.0 1.0
  outer loop
    vertex -106.0240493125469 34.59023876813011 23.14
    vertex -106.09931381469772 33.688808321520796 23.14
    vertex -105.93970712820988 33.87562037870703 23.14
  endloop
endfacet
facet normal 0.0 0.0 1.0
  outer loop
    vertex -106.0240493125469 34.59023876813011 23.14
    vertex -105.93970712820988 33.87562037870703 23.14
    vertex -105.85717771272404 34.76798698106027 23.14
  endloop
endfacet
facet normal 0.0 0.0 1.0
  outer loop
    vertex -105.85717771272404 34.76798698106027 23.14
    vertex -105.93970712820988 33.87562037870703 23.14
    vertex -105.75469400194467 34.08965164452181 23.14
  endloop
endfacet
facet normal 0.0 0.0 1.0
  outer loop
    vertex -105.85717771272404 34.76798698106027 23.14
    vertex -105.75469400194467 34.08965164452181 23.14
    vertex -105.74652962314913 34.90221490363112 23.14
  endloop
endfacet
facet normal 0.0 0.0 1.0
  outer loop
    vertex -105.74652962314913 34.90221490363112 23.14
    vertex -105.75469400194467 34.08965164452181 23.14
    vertex -105.56695480343758 34.31093398574144 23.14
  endloop
endfacet
facet normal 0.0 0.0 1.0
  outer loop
    vertex -105.74652962314913 34.90221490363112 23.14
    vertex -105.56695480343758 34.31093398574144 23.14
    vertex -105.68576727180805 35.026465678555205 23.14
  endloop
endfacet
facet normal 0.0 0.0 1.0
  outer loop
    vertex -105.68576727180805 35.026465678555205 23.14
    vertex -105.56695480343758 34.31093398574144 23.14
    vertex -105.6667262799052 35.174282448545085 23.14
  endloop
endfacet
facet normal 0.0 0.0 1.0
  outer loop
    vertex -105.6667262799052 35.174282448545085 23.14
    vertex -105.56695480343758 34.31093398574144 23.14
    vertex -105.59236124321491 35.868047077214115 23.14
  endloop
endfacet
facet normal 0.0 0.0 1.0
  outer loop
    vertex -105.59236124321491 35.868047077214115 23.14
    vertex -105.56695480343758 34.31093398574144 23.14
    vertex -105.44339938450415 35.78937844424347 23.14
  endloop
endfacet
facet normal 0.0 0.0 1.0
  outer loop
    vertex -105.44339938450415 35.78937844424347 23.14
    vertex -105.56695480343758 34.31093398574144 23.14
    vertex -105.3910331972888 34.5177003382212 23.14
  endloop
endfacet
facet normal 0.0 0.0 1.0
  outer loop
    vertex -105.44339938450415 35.78937844424347 23.14
    vertex -105.3910331972888 34.5177003382212 23.14
    vertex -105.31938039491025 35.689399398823426 23.14
  endloop
endfacet
facet normal 0.0 0.0 1.0
  outer loop
    vertex -105.31938039491025 35.689399398823426 23.14
    vertex -105.3910331972888 34.5177003382212 23.14
    vertex -105.23867758620581 34.7144895430542 23.14
  endloop
endfacet
facet normal 0.0 0.0 1.0
  outer loop
    vertex -105.31938039491025 35.689399398823426 23.14
    vertex -105.23867758620581 34.7144895430542 23.14
    vertex -105.22121065885891 35.571278826961084 23.14
  endloop
endfacet
facet normal 0.0 0.0 1.0
  outer loop
    vertex -105.22121065885891 35.571278826961084 23.14
    vertex -105.23867758620581 34.7144895430542 23.14
    vertex -105.1316688722635 34.920356430073426 23.14
  endloop
endfacet
facet normal 0.0 0.0 1.0
  outer loop
    vertex -105.22121065885891 35.571278826961084 23.14
    vertex -105.1316688722635 34.920356430073426 23.14
    vertex -105.14979656077566 35.43818561466351 23.14
  endloop
endfacet
facet normal 0.0 0.0 1.0
  outer loop
    vertex -105.14979656077566 35.43818561466351 23.14
    vertex -105.1316688722635 34.920356430073426 23.14
    vertex -105.10626935145126 35.29693148305293 23.14
  endloop
endfacet
facet normal 0.0 0.0 1.0
  outer loop
    vertex -105.10626935145126 35.29693148305293 23.14
    vertex -105.1316688722635 34.920356430073426 23.14
    vertex -105.09176028167644 35.15432815325156 23.14
  endloop
endfacet
facet normal 0.0 0.0 1.0
  outer loop
    vertex -106.4484586306137 35.172455841763714 23.14
    vertex -106.73594162972807 35.58056407809974 23.14
    vertex -106.87106901775945 35.330263597330514 23.14
  endloop
endfacet
facet normal 0.0 0.0 1.0
  outer loop
    vertex -106.73594162972807 35.58056407809974 23.14
    vertex -106.4484586306137 35.172455841763714 23.14
    vertex -106.53915242489506 35.771914976379094 23.14
  endloop
endfacet
facet normal 0.0 0.0 1.0
  outer loop
    vertex -106.53915242489506 35.771914976379094 23.14
    vertex -106.4484586306137 35.172455841763714 23.14
    vertex -106.28068756533031 35.89343967906129 23.14
  endloop
endfacet
facet normal 0.0 0.0 1.0
  outer loop
    vertex -106.28068756533031 35.89343967906129 23.14
    vertex -106.4484586306137 35.172455841763714 23.14
    vertex -106.35504568305551 35.325278482989674 23.14
  endloop
endfacet
facet normal 0.0 0.0 1.0
  outer loop
    vertex -106.28068756533031 35.89343967906129 23.14
    vertex -106.35504568305551 35.325278482989674 23.14
    vertex -106.24894335353882 35.442724455756625 23.14
  endloop
endfacet
facet normal 0.0 0.0 1.0
  outer loop
    vertex -106.28068756533031 35.89343967906129 23.14
    vertex -106.24894335353882 35.442724455756625 23.14
    vertex -105.9605608889639 35.936060503960064 23.14
  endloop
endfacet
facet normal 0.0 0.0 1.0
  outer loop
    vertex -105.9605608889639 35.936060503960064 23.14
    vertex -106.24894335353882 35.442724455756625 23.14
    vertex -106.1274255698217 35.51754268465971 23.14
  endloop
endfacet
facet normal 0.0 0.0 1.0
  outer loop
    vertex -105.9605608889639 35.936060503960064 23.14
    vertex -106.1274255698217 35.51754268465971 23.14
    vertex -105.9877662596623 35.54248209429407 23.14
  endloop
endfacet
facet normal 0.0 0.0 1.0
  outer loop
    vertex -105.9605608889639 35.936060503960064 23.14
    vertex -105.9877662596623 35.54248209429407 23.14
    vertex -105.85535110594265 35.510737882502575 23.14
  endloop
endfacet
facet normal 0.0 0.0 1.0
  outer loop
    vertex -105.9605608889639 35.936060503960064 23.14
    vertex -105.85535110594265 35.510737882502575 23.14
    vertex -105.76512780128677 35.91905714727358 23.14
  endloop
endfacet
facet normal 0.0 0.0 1.0
  outer loop
    vertex -105.76512780128677 35.91905714727358 23.14
    vertex -105.85535110594265 35.510737882502575 23.14
    vertex -105.75378069855398 35.42639569816553 23.14
  endloop
endfacet
facet normal 0.0 0.0 1.0
  outer loop
    vertex -105.76512780128677 35.91905714727358 23.14
    vertex -105.75378069855398 35.42639569816553 23.14
    vertex -105.59236124321491 35.868047077214115 23.14
  endloop
endfacet
facet normal 0.0 0.0 1.0
  outer loop
    vertex -105.59236124321491 35.868047077214115 23.14
    vertex -105.75378069855398 35.42639569816553 23.14
    vertex -105.68939280951045 35.307597067725254 23.14
  endloop
endfacet
facet normal 0.0 0.0 1.0
  outer loop
    vertex -105.59236124321491 35.868047077214115 23.14
    vertex -105.68939280951045 35.307597067725254 23.14
    vertex -105.6667262799052 35.174282448545085 23.14
  endloop
endfacet
facet normal -1.0 0.0 0.0
  outer loop
    vertex -106.87832009316432 33.52920163503294 23.14
    vertex -106.87832009316432 33.1845818222799 23.0
    vertex -106.87832009316432 33.1845818222799 23.14
  endloop
endfacet
facet normal -1.0 0.0 0.0
  outer loop
    vertex -106.87832009316432 33.1845818222799 23.0
    vertex -106.87832009316432 33.52920163503294 23.14
    vertex -106.87832009316432 33.52920163503294 23.0
  endloop
endfacet
facet normal 1.0 0.0 0.0
  outer loop
    vertex -108.44001353952059 34.4598854660046 23.0
    vertex -108.44001353952059 33.1845818222799 23.14
    vertex -108.44001353952059 33.1845818222799 23.0
  endloop
endfacet
facet normal 1.0 0.0 0.0
  outer loop
    vertex -108.44001353952059 33.1845818222799 23.14
    vertex -108.44001353952059 34.4598854660046 23.0
    vertex -108.44001353952059 34.4598854660046 23.14
  endloop
endfacet
facet normal 0.0 -1.0 0.0
  outer loop
    vertex -107.50833337757726 34.4598854660046 23.14
    vertex -108.44001353952059 34.4598854660046 23.0
    vertex -107.50833337757726 34.4598854660046 23.0
  endloop
endfacet
facet normal 0.0 -1.0 0.0
  outer loop
    vertex -108.44001353952059 34.4598854660046 23.0
    vertex -107.50833337757726 34.4598854660046 23.14
    vertex -108.44001353952059 34.4598854660046 23.14
  endloop
endfacet
facet normal 0.0 1.0 0.0
  outer loop
    vertex -108.44001353952059 34.84601906924347 23.14
    vertex -107.50833337757726 34.84601906924347 23.0
    vertex -108.44001353952059 34.84601906924347 23.0
  endloop
endfacet
facet normal 0.0 1.0 0.0
  outer loop
    vertex -107.50833337757726 34.84601906924347 23.0
    vertex -108.44001353952059 34.84601906924347 23.14
    vertex -107.50833337757726 34.84601906924347 23.14
  endloop
endfacet
facet normal 1.0 0.0 0.0
  outer loop
    vertex -108.44001353952059 35.24192225117667 23.0
    vertex -108.44001353952059 34.84601906924347 23.14
    vertex -108.44001353952059 34.84601906924347 23.0
  endloop
endfacet
facet normal 1.0 0.0 0.0
  outer loop
    vertex -108.44001353952059 34.84601906924347 23.14
    vertex -108.44001353952059 35.24192225117667 23.0
    vertex -108.44001353952059 35.24192225117667 23.14
  endloop
endfacet
facet normal 0.0 1.0 0.0
  outer loop
    vertex -109.1393825299052 35.90522959555926 23.14
    vertex -107.32235159620076 35.90522959555926 23.0
    vertex -109.1393825299052 35.90522959555926 23.0
  endloop
endfacet
facet normal 0.0 1.0 0.0
  outer loop
    vertex -107.32235159620076 35.90522959555926 23.0
    vertex -109.1393825299052 35.90522959555926 23.14
    vertex -107.32235159620076 35.90522959555926 23.14
  endloop
endfacet
facet normal 0.0 -1.0 0.0
  outer loop
    vertex -107.37133786897402 35.49252716640946 23.14
    vertex -108.46721891021896 35.49252716640946 23.0
    vertex -107.37133786897402 35.49252716640946 23.0
  endloop
endfacet
facet normal 0.0 -1.0 0.0
  outer loop
    vertex -108.46721891021896 35.49252716640946 23.0
    vertex -107.37133786897402 35.49252716640946 23.14
    vertex -108.46721891021896 35.49252716640946 23.14
  endloop
endfacet
facet normal -0.9892683397932424 -0.1461100676980266 0.0
  outer loop
    vertex -109.1393825299052 35.90522959555926 23.14
    vertex -109.07589410632221 35.47536813300865 23.0
    vertex -109.07589410632221 35.47536813300865 23.14
  endloop
endfacet
facet normal -0.9892683397932424 -0.1461100676980266 0.0
  outer loop
    vertex -109.07589410632221 35.47536813300865 23.0
    vertex -109.1393825299052 35.90522959555926 23.14
    vertex -109.1393825299052 35.90522959555926 23.0
  endloop
endfacet
facet normal 0.0 -1.0 0.0
  outer loop
    vertex -108.44001353952059 33.1845818222799 23.14
    vertex -109.07589410632221 33.1845818222799 23.0
    vertex -108.44001353952059 33.1845818222799 23.0
  endloop
endfacet
facet normal 0.0 -1.0 0.0
  outer loop
    vertex -109.07589410632221 33.1845818222799 23.0
    vertex -108.44001353952059 33.1845818222799 23.14
    vertex -109.07589410632221 33.1845818222799 23.14
  endloop
endfacet
facet normal 0.9941590688690845 0.10792472277173214 0.0
  outer loop
    vertex -108.46721891021896 35.49252716640946 23.0
    vertex -108.44001353952059 35.24192225117667 23.14
    vertex -108.44001353952059 35.24192225117667 23.0
  endloop
endfacet
facet normal 0.9941590688690845 0.10792472277173214 0.0
  outer loop
    vertex -108.44001353952059 35.24192225117667 23.14
    vertex -108.46721891021896 35.49252716640946 23.0
    vertex -108.46721891021896 35.49252716640946 23.14
  endloop
endfacet
facet normal 0.0 0.0 1.0
  outer loop
    vertex -107.50833337757726 34.4598854660046 23.14
    vertex -108.44001353952059 34.84601906924347 23.14
    vertex -108.44001353952059 34.4598854660046 23.14
  endloop
endfacet
facet normal 0.0 0.0 1.0
  outer loop
    vertex -108.44001353952059 34.84601906924347 23.14
    vertex -107.50833337757726 34.4598854660046 23.14
    vertex -107.50833337757726 34.84601906924347 23.14
  endloop
endfacet
facet normal 0.0 0.0 1.0
  outer loop
    vertex -108.44001353952059 33.1845818222799 23.14
    vertex -109.07589410632221 35.47536813300865 23.14
    vertex -109.07589410632221 33.1845818222799 23.14
  endloop
endfacet
facet normal 0.0 0.0 1.0
  outer loop
    vertex -109.07589410632221 35.47536813300865 23.14
    vertex -108.44001353952059 33.1845818222799 23.14
    vertex -108.46721891021896 35.49252716640946 23.14
  endloop
endfacet
facet normal 0.0 0.0 1.0
  outer loop
    vertex -108.46721891021896 35.49252716640946 23.14
    vertex -108.44001353952059 33.1845818222799 23.14
    vertex -108.44001353952059 35.24192225117667 23.14
  endloop
endfacet
facet normal 0.0 0.0 1.0
  outer loop
    vertex -108.44001353952059 35.24192225117667 23.14
    vertex -108.44001353952059 33.1845818222799 23.14
    vertex -108.44001353952059 34.4598854660046 23.14
  endloop
endfacet
facet normal 0.0 0.0 1.0
  outer loop
    vertex -108.44001353952059 35.24192225117667 23.14
    vertex -108.44001353952059 34.4598854660046 23.14
    vertex -108.44001353952059 34.84601906924347 23.14
  endloop
endfacet
facet normal 0.0 0.0 1.0
  outer loop
    vertex -109.07589410632221 35.47536813300865 23.14
    vertex -107.32235159620076 35.90522959555926 23.14
    vertex -109.1393825299052 35.90522959555926 23.14
  endloop
endfacet
facet normal 0.0 0.0 1.0
  outer loop
    vertex -107.32235159620076 35.90522959555926 23.14
    vertex -109.07589410632221 35.47536813300865 23.14
    vertex -108.46721891021896 35.49252716640946 23.14
  endloop
endfacet
facet normal 0.0 0.0 1.0
  outer loop
    vertex -107.32235159620076 35.90522959555926 23.14
    vertex -108.46721891021896 35.49252716640946 23.14
    vertex -107.37133786897402 35.49252716640946 23.14
  endloop
endfacet
facet normal 0.9930291603428016 -0.11786893869408703 0.0
  outer loop
    vertex -107.32235159620076 35.90522959555926 23.0
    vertex -107.37133786897402 35.49252716640946 23.14
    vertex -107.37133786897402 35.49252716640946 23.0
  endloop
endfacet
facet normal 0.9930291603428016 -0.11786893869408703 0.0
  outer loop
    vertex -107.37133786897402 35.49252716640946 23.14
    vertex -107.32235159620076 35.90522959555926 23.0
    vertex -107.32235159620076 35.90522959555926 23.14
  endloop
endfacet
facet normal -0.7844287112938825 0.62021899108123 0.0
  outer loop
    vertex -106.45208416831613 34.10144156101978 23.14
    vertex -106.68153088833132 33.81124632759367 23.0
    vertex -106.68153088833132 33.81124632759367 23.14
  endloop
endfacet
facet normal -0.7844287112938825 0.62021899108123 0.0
  outer loop
    vertex -106.68153088833132 33.81124632759367 23.0
    vertex -106.45208416831613 34.10144156101978 23.14
    vertex -106.45208416831613 34.10144156101978 23.0
  endloop
endfacet
facet normal -0.8201080722343448 0.5722086593682997 0.0
  outer loop
    vertex -106.68153088833132 33.81124632759367 23.14
    vertex -106.87832009316432 33.52920163503294 23.0
    vertex -106.87832009316432 33.52920163503294 23.14
  endloop
endfacet
facet normal -0.8201080722343448 0.5722086593682997 0.0
  outer loop
    vertex -106.87832009316432 33.52920163503294 23.0
    vertex -106.68153088833132 33.81124632759367 23.14
    vertex -106.68153088833132 33.81124632759367 23.0
  endloop
endfacet
facet normal -0.7290608944953759 0.6844488382031213 0.0
  outer loop
    vertex -105.85717771272404 34.76798698106027 23.14
    vertex -106.0240493125469 34.59023876813011 23.0
    vertex -106.0240493125469 34.59023876813011 23.14
  endloop
endfacet
facet normal -0.7290608944953759 0.6844488382031213 0.0
  outer loop
    vertex -106.0240493125469 34.59023876813011 23.0
    vertex -105.85717771272404 34.76798698106027 23.14
    vertex -105.85717771272404 34.76798698106027 23.0
  endloop
endfacet
facet normal -0.759978243844393 0.6499485124863292 0.0
  outer loop
    vertex -106.22173798284042 34.37078303369185 23.14
    vertex -106.45208416831613 34.10144156101978 23.0
    vertex -106.45208416831613 34.10144156101978 23.14
  endloop
endfacet
facet normal -0.759978243844393 0.6499485124863292 0.0
  outer loop
    vertex -106.45208416831613 34.10144156101978 23.0
    vertex -106.22173798284042 34.37078303369185 23.14
    vertex -106.22173798284042 34.37078303369185 23.0
  endloop
endfacet
facet normal -0.9918052137580722 0.12775921869792753 0.0
  outer loop
    vertex -105.6667262799052 35.174282448545085 23.14
    vertex -105.68576727180805 35.026465678555205 23.0
    vertex -105.68576727180805 35.026465678555205 23.14
  endloop
endfacet
facet normal -0.9918052137580722 0.12775921869792753 0.0
  outer loop
    vertex -105.68576727180805 35.026465678555205 23.0
    vertex -105.6667262799052 35.174282448545085 23.14
    vertex -105.6667262799052 35.174282448545085 23.0
  endloop
endfacet
facet normal -0.7716270408947609 0.6360752390716017 0.0
  outer loop
    vertex -105.74652962314913 34.90221490363112 23.14
    vertex -105.85717771272404 34.76798698106027 23.0
    vertex -105.85717771272404 34.76798698106027 23.14
  endloop
endfacet
facet normal -0.7716270408947609 0.6360752390716017 0.0
  outer loop
    vertex -105.85717771272404 34.76798698106027 23.0
    vertex -105.74652962314913 34.90221490363112 23.14
    vertex -105.74652962314913 34.90221490363112 23.0
  endloop
endfacet
facet normal -0.8983343508476794 0.4393124105771185 0.0
  outer loop
    vertex -105.68576727180805 35.026465678555205 23.14
    vertex -105.74652962314913 34.90221490363112 23.0
    vertex -105.74652962314913 34.90221490363112 23.14
  endloop
endfacet
facet normal -0.8983343508476794 0.4393124105771185 0.0
  outer loop
    vertex -105.74652962314913 34.90221490363112 23.0
    vertex -105.68576727180805 35.026465678555205 23.14
    vertex -105.68576727180805 35.026465678555205 23.0
  endloop
endfacet
facet normal -0.7429935585049052 0.6692985671732893 0.0
  outer loop
    vertex -106.0240493125469 34.59023876813011 23.14
    vertex -106.22173798284042 34.37078303369185 23.0
    vertex -106.22173798284042 34.37078303369185 23.14
  endloop
endfacet
facet normal -0.7429935585049052 0.6692985671732893 0.0
  outer loop
    vertex -106.22173798284042 34.37078303369185 23.0
    vertex -106.0240493125469 34.59023876813011 23.14
    vertex -106.0240493125469 34.59023876813011 23.0
  endloop
endfacet
facet normal 0.17579232645213314 -0.9844272740840466 0.0
  outer loop
    vertex -105.9877662596623 35.54248209429407 23.14
    vertex -106.1274255698217 35.51754268465971 23.0
    vertex -105.9877662596623 35.54248209429407 23.0
  endloop
endfacet
facet normal 0.17579232645213314 -0.9844272740840466 0.0
  outer loop
    vertex -106.1274255698217 35.51754268465971 23.0
    vertex -105.9877662596623 35.54248209429407 23.14
    vertex -106.1274255698217 35.51754268465971 23.14
  endloop
endfacet
facet normal -0.2331269549238823 -0.9724463084859329 0.0
  outer loop
    vertex -105.85535110594265 35.510737882502575 23.14
    vertex -105.9877662596623 35.54248209429407 23.0
    vertex -105.85535110594265 35.510737882502575 23.0
  endloop
endfacet
facet normal -0.2331269549238823 -0.9724463084859329 0.0
  outer loop
    vertex -105.9877662596623 35.54248209429407 23.0
    vertex -105.85535110594265 35.510737882502575 23.14
    vertex -105.9877662596623 35.54248209429407 23.14
  endloop
endfacet
facet normal -0.6388431769428556 -0.7693369842101441 0.0
  outer loop
    vertex -105.75378069855398 35.42639569816553 23.14
    vertex -105.85535110594265 35.510737882502575 23.0
    vertex -105.75378069855398 35.42639569816553 23.0
  endloop
endfacet
facet normal -0.6388431769428556 -0.7693369842101441 0.0
  outer loop
    vertex -105.85535110594265 35.510737882502575 23.0
    vertex -105.75378069855398 35.42639569816553 23.14
    vertex -105.85535110594265 35.510737882502575 23.14
  endloop
endfacet
facet normal -0.8791722108079099 -0.47650416970172677 0.0
  outer loop
    vertex -105.75378069855398 35.42639569816553 23.14
    vertex -105.68939280951045 35.307597067725254 23.0
    vertex -105.68939280951045 35.307597067725254 23.14
  endloop
endfacet
facet normal -0.8791722108079099 -0.47650416970172677 0.0
  outer loop
    vertex -105.68939280951045 35.307597067725254 23.0
    vertex -105.75378069855398 35.42639569816553 23.14
    vertex -105.75378069855398 35.42639569816553 23.0
  endloop
endfacet
facet normal -0.9858521267642343 -0.16761737426184786 0.0
  outer loop
    vertex -105.68939280951045 35.307597067725254 23.14
    vertex -105.6667262799052 35.174282448545085 23.0
    vertex -105.6667262799052 35.174282448545085 23.14
  endloop
endfacet
facet normal -0.9858521267642343 -0.16761737426184786 0.0
  outer loop
    vertex -105.6667262799052 35.174282448545085 23.0
    vertex -105.68939280951045 35.307597067725254 23.14
    vertex -105.68939280951045 35.307597067725254 23.0
  endloop
endfacet
endsolid RMP_Front
