solid RMP_Front
facet normal 1.0 0.0 0.0
  outer loop
    vertex -334.2916147329581 14.599999999999858 4.999999999999994
    vertex -334.2916147329581 5.399999999999863 14.44
    vertex -334.2916147329581 5.399999999999863 4.999999999999994
  endloop
endfacet
facet normal 1.0 0.0 0.0
  outer loop
    vertex -334.2916147329581 5.399999999999863 14.44
    vertex -334.2916147329581 14.599999999999858 4.999999999999994
    vertex -334.2916147329581 14.599999999999858 14.44
  endloop
endfacet
facet normal -1.0 0.0 0.0
  outer loop
    vertex -345.0916147329581 14.599999999999858 14.44
    vertex -345.0916147329581 5.399999999999863 4.999999999999994
    vertex -345.0916147329581 5.399999999999863 14.44
  endloop
endfacet
facet normal -1.0 0.0 0.0
  outer loop
    vertex -345.0916147329581 5.399999999999863 4.999999999999994
    vertex -345.0916147329581 14.599999999999858 14.44
    vertex -345.0916147329581 14.599999999999858 4.999999999999994
  endloop
endfacet
facet normal 0.0 0.0 1.0
  outer loop
    vertex -340.02264281545115 9.216354209861462 14.44
    vertex -341.2607501029006 9.455778077523403 14.44
    vertex -341.27525225371033 9.216354209861462 14.44
  endloop
endfacet
facet normal 0.0 0.0 1.0
  outer loop
    vertex -339.4848454976374 9.023757897867537 14.44
    vertex -339.42870847445295 10.65948081110767 14.44
    vertex -339.44344241059287 10.792771213910044 14.44
  endloop
endfacet
facet normal 0.0 0.0 1.0
  outer loop
    vertex -339.42870847445295 10.65948081110767 14.44
    vertex -339.4848454976374 9.023757897867537 14.44
    vertex -339.2345450168683 9.435463996045758 14.44
  endloop
endfacet
facet normal 0.0 0.0 1.0
  outer loop
    vertex -339.42870847445295 10.65948081110767 14.44
    vertex -339.2345450168683 9.435463996045758 14.44
    vertex -339.3845066660332 10.542512246931292 14.44
  endloop
endfacet
facet normal 0.0 0.0 1.0
  outer loop
    vertex -339.3845066660332 10.542512246931292 14.44
    vertex -339.2345450168683 9.435463996045758 14.44
    vertex -339.2285670310382 10.346664021349305 14.44
  endloop
endfacet
facet normal 0.0 0.0 1.0
  outer loop
    vertex -339.2285670310382 10.346664021349305 14.44
    vertex -339.2345450168683 9.435463996045758 14.44
    vertex -339.1184447828096 9.36652342797894 14.44
  endloop
endfacet
facet normal 0.0 0.0 1.0
  outer loop
    vertex -339.2285670310382 10.346664021349305 14.44
    vertex -339.1184447828096 9.36652342797894 14.44
    vertex -339.00826718286004 10.190821251865488 14.44
  endloop
endfacet
facet normal 0.0 0.0 1.0
  outer loop
    vertex -339.00826718286004 10.190821251865488 14.44
    vertex -339.1184447828096 9.36652342797894 14.44
    vertex -338.9760663193732 9.300322770084158 14.44
  endloop
endfacet
facet normal 0.0 0.0 1.0
  outer loop
    vertex -339.00826718286004 10.190821251865488 14.44
    vertex -338.9760663193732 9.300322770084158 14.44
    vertex -338.7544241919694 10.060440273879648 14.44
  endloop
endfacet
facet normal 0.0 0.0 1.0
  outer loop
    vertex -338.7544241919694 10.060440273879648 14.44
    vertex -338.9760663193732 9.300322770084158 14.44
    vertex -338.824624011681 9.251350335241028 14.44
  endloop
endfacet
facet normal 0.0 0.0 1.0
  outer loop
    vertex -338.7544241919694 10.060440273879648 14.44
    vertex -338.824624011681 9.251350335241028 14.44
    vertex -338.67953331393306 9.232295505408006 14.44
  endloop
endfacet
facet normal 0.0 0.0 1.0
  outer loop
    vertex -338.7544241919694 10.060440273879648 14.44
    vertex -338.67953331393306 9.232295505408006 14.44
    vertex -338.57104394146336 9.973275151789572 14.44
  endloop
endfacet
facet normal 0.0 0.0 1.0
  outer loop
    vertex -338.57104394146336 9.973275151789572 14.44
    vertex -338.67953331393306 9.232295505408006 14.44
    vertex -338.5217255583662 9.249482214669147 14.44
  endloop
endfacet
facet normal 0.0 0.0 1.0
  outer loop
    vertex -338.57104394146336 9.973275151789572 14.44
    vertex -338.5217255583662 9.249482214669147 14.44
    vertex -338.40854512757164 9.875842285519358 14.44
  endloop
endfacet
facet normal 0.0 0.0 1.0
  outer loop
    vertex -338.40854512757164 9.875842285519358 14.44
    vertex -338.5217255583662 9.249482214669147 14.44
    vertex -338.3829726326324 9.307380114466728 14.44
  endloop
endfacet
facet normal 0.0 0.0 1.0
  outer loop
    vertex -338.40854512757164 9.875842285519358 14.44
    vertex -338.3829726326324 9.307380114466728 14.44
    vertex -338.2923341900717 9.751563834734931 14.44
  endloop
endfacet
facet normal 0.0 0.0 1.0
  outer loop
    vertex -338.2923341900717 9.751563834734931 14.44
    vertex -338.3829726326324 9.307380114466728 14.44
    vertex -338.28502776294613 9.415039211126636 14.44
  endloop
endfacet
facet normal 0.0 0.0 1.0
  outer loop
    vertex -338.2923341900717 9.751563834734931 14.44
    vertex -338.28502776294613 9.415039211126636 14.44
    vertex -338.24784524460097 9.583308441895868 14.44
  endloop
endfacet
facet normal 0.0 0.0 1.0
  outer loop
    vertex -338.8147714054057 10.715209615352345 14.44
    vertex -338.8191857051274 10.97370215077745 14.44
    vertex -338.85184322030955 10.843085927978862 14.44
  endloop
endfacet
facet normal 0.0 0.0 1.0
  outer loop
    vertex -338.8191857051274 10.97370215077745 14.44
    vertex -338.8147714054057 10.715209615352345 14.44
    vertex -338.73393021739975 11.057131031723742 14.44
  endloop
endfacet
facet normal 0.0 0.0 1.0
  outer loop
    vertex -338.73393021739975 11.057131031723742 14.44
    vertex -338.8147714054057 10.715209615352345 14.44
    vertex -338.71710329432267 10.620115359279458 14.44
  endloop
endfacet
facet normal 0.0 0.0 1.0
  outer loop
    vertex -338.73393021739975 11.057131031723742 14.44
    vertex -338.71710329432267 10.620115359279458 14.44
    vertex -338.6151315869593 11.100665160013278 14.44
  endloop
endfacet
facet normal 0.0 0.0 1.0
  outer loop
    vertex -338.6151315869593 11.100665160013278 14.44
    vertex -338.71710329432267 10.620115359279458 14.44
    vertex -338.5796372960939 10.54418663648087 14.44
  endloop
endfacet
facet normal 0.0 0.0 1.0
  outer loop
    vertex -338.6151315869593 11.100665160013278 14.44
    vertex -338.5796372960939 10.54418663648087 14.44
    vertex -338.4818169677791 11.11336837990194 14.44
  endloop
endfacet
facet normal 0.0 0.0 1.0
  outer loop
    vertex -338.4818169677791 11.11336837990194 14.44
    vertex -338.5796372960939 10.54418663648087 14.44
    vertex -338.42319949561323 10.473668544375661 14.44
  endloop
endfacet
facet normal 0.0 0.0 1.0
  outer loop
    vertex -338.4818169677791 11.11336837990194 14.44
    vertex -338.42319949561323 10.473668544375661 14.44
    vertex -338.3793470949299 11.10430453564587 14.44
  endloop
endfacet
facet normal 0.0 0.0 1.0
  outer loop
    vertex -338.3793470949299 11.10430453564587 14.44
    vertex -338.42319949561323 10.473668544375661 14.44
    vertex -338.1471189509523 10.336659197842238 14.44
  endloop
endfacet
facet normal 0.0 0.0 1.0
  outer loop
    vertex -338.3793470949299 11.10430453564587 14.44
    vertex -338.1471189509523 10.336659197842238 14.44
    vertex -338.2696123087457 11.075286396096269 14.44
  endloop
endfacet
facet normal 0.0 0.0 1.0
  outer loop
    vertex -338.2696123087457 11.075286396096269 14.44
    vertex -338.1471189509523 10.336659197842238 14.44
    vertex -338.14354876497055 11.021775120160113 14.44
  endloop
endfacet
facet normal 0.0 0.0 1.0
  outer loop
    vertex -338.14354876497055 11.021775120160113 14.44
    vertex -338.1471189509523 10.336659197842238 14.44
    vertex -337.8946459151476 10.163491339795662 14.44
  endloop
endfacet
facet normal 0.0 0.0 1.0
  outer loop
    vertex -338.14354876497055 11.021775120160113 14.44
    vertex -337.8946459151476 10.163491339795662 14.44
    vertex -337.9920926193481 10.939231866744134 14.44
  endloop
endfacet
facet normal 0.0 0.0 1.0
  outer loop
    vertex -337.9920926193481 10.939231866744134 14.44
    vertex -337.8946459151476 10.163491339795662 14.44
    vertex -337.72003891236415 11.285788989719782 14.44
  endloop
endfacet
facet normal 0.0 0.0 1.0
  outer loop
    vertex -337.72003891236415 11.285788989719782 14.44
    vertex -337.8946459151476 10.163491339795662 14.44
    vertex -337.79224869143167 10.055437862126155 14.44
  endloop
endfacet
facet normal 0.0 0.0 1.0
  outer loop
    vertex -337.72003891236415 11.285788989719782 14.44
    vertex -337.79224869143167 10.055437862126155 14.44
    vertex -337.7102831716 9.930626651030499 14.44
  endloop
endfacet
facet normal 0.0 0.0 1.0
  outer loop
    vertex -345.0916147329581 5.399999999999863 14.44
    vertex -341.93302442602817 8.803651780711668 14.44
    vertex -345.0916147329581 14.599999999999858 14.44
  endloop
endfacet
facet normal 0.0 0.0 1.0
  outer loop
    vertex -341.93302442602817 8.803651780711668 14.44
    vertex -345.0916147329581 5.399999999999863 14.44
    vertex -334.2916147329581 5.399999999999863 14.44
  endloop
endfacet
facet normal 0.0 0.0 1.0
  outer loop
    vertex -345.0916147329581 14.599999999999858 14.44
    vertex -341.93302442602817 8.803651780711668 14.44
    vertex -341.9529787213217 11.523469278181295 14.44
  endloop
endfacet
facet normal 0.0 0.0 1.0
  outer loop
    vertex -341.93302442602817 8.803651780711668 14.44
    vertex -334.2916147329581 5.399999999999863 14.44
    vertex -340.0716290882245 8.803651780711661 14.44
  endloop
endfacet
facet normal 0.0 0.0 1.0
  outer loop
    vertex -340.0716290882245 8.803651780711661 14.44
    vertex -334.2916147329581 5.399999999999863 14.44
    vertex -340.02264281545115 9.216354209861462 14.44
  endloop
endfacet
facet normal 0.0 0.0 1.0
  outer loop
    vertex -340.02264281545115 9.216354209861462 14.44
    vertex -334.2916147329581 5.399999999999863 14.44
    vertex -339.4848454976374 9.023757897867537 14.44
  endloop
endfacet
facet normal 0.0 0.0 1.0
  outer loop
    vertex -339.4848454976374 9.023757897867537 14.44
    vertex -334.2916147329581 5.399999999999863 14.44
    vertex -339.09759102205555 8.837914495792672 14.44
  endloop
endfacet
facet normal 0.0 0.0 1.0
  outer loop
    vertex -339.09759102205555 8.837914495792672 14.44
    vertex -334.2916147329581 5.399999999999863 14.44
    vertex -338.895588377034 8.789633957457646 14.44
  endloop
endfacet
facet normal 0.0 0.0 1.0
  outer loop
    vertex -338.895588377034 8.789633957457646 14.44
    vertex -334.2916147329581 5.399999999999863 14.44
    vertex -338.67590777623053 8.773540444679277 14.44
  endloop
endfacet
facet normal 0.0 0.0 1.0
  outer loop
    vertex -338.67590777623053 8.773540444679277 14.44
    vertex -334.2916147329581 5.399999999999863 14.44
    vertex -338.4793434377627 8.786904425733171 14.44
  endloop
endfacet
facet normal 0.0 0.0 1.0
  outer loop
    vertex -338.4793434377627 8.786904425733171 14.44
    vertex -334.2916147329581 5.399999999999863 14.44
    vertex -338.2886809765089 8.826996368894866 14.44
  endloop
endfacet
facet normal 0.0 0.0 1.0
  outer loop
    vertex -338.2886809765089 8.826996368894866 14.44
    vertex -334.2916147329581 5.399999999999863 14.44
    vertex -338.1118529859345 8.893366541434082 14.44
  endloop
endfacet
facet normal 0.0 0.0 1.0
  outer loop
    vertex -338.1118529859345 8.893366541434082 14.44
    vertex -334.2916147329581 5.399999999999863 14.44
    vertex -337.9567920595049 8.985565210620594 14.44
  endloop
endfacet
facet normal 0.0 0.0 1.0
  outer loop
    vertex -337.9567920595049 8.985565210620594 14.44
    vertex -334.2916147329581 5.399999999999863 14.44
    vertex -337.8268988685572 9.103813783336966 14.44
  endloop
endfacet
facet normal 0.0 0.0 1.0
  outer loop
    vertex -337.8268988685572 9.103813783336966 14.44
    vertex -334.2916147329581 5.399999999999863 14.44
    vertex -337.7255740844289 9.248333666465712 14.44
  endloop
endfacet
facet normal 0.0 0.0 1.0
  outer loop
    vertex -337.7255740844289 9.248333666465712 14.44
    vertex -334.2916147329581 5.399999999999863 14.44
    vertex -337.66029364889 9.41913177897204 14.44
  endloop
endfacet
facet normal 0.0 0.0 1.0
  outer loop
    vertex -337.66029364889 9.41913177897204 14.44
    vertex -334.2916147329581 5.399999999999863 14.44
    vertex -337.63853350371033 9.616215039820982 14.44
  endloop
endfacet
facet normal 0.0 0.0 1.0
  outer loop
    vertex -341.9529787213217 11.523469278181295 14.44
    vertex -334.2916147329581 14.599999999999858 14.44
    vertex -345.0916147329581 14.599999999999858 14.44
  endloop
endfacet
facet normal 0.0 0.0 1.0
  outer loop
    vertex -334.2916147329581 14.599999999999858 14.44
    vertex -341.9529787213217 11.523469278181295 14.44
    vertex -341.2607501029007 11.559724655205587 14.44
  endloop
endfacet
facet normal 0.0 0.0 1.0
  outer loop
    vertex -334.2916147329581 14.599999999999858 14.44
    vertex -341.2607501029007 11.559724655205587 14.44
    vertex -339.15853326648875 11.357649361050713 14.44
  endloop
endfacet
facet normal 0.0 0.0 1.0
  outer loop
    vertex -339.15853326648875 11.357649361050713 14.44
    vertex -341.2607501029007 11.559724655205587 14.44
    vertex -341.2607501029006 9.455778077523403 14.44
  endloop
endfacet
facet normal 0.0 0.0 1.0
  outer loop
    vertex -339.15853326648875 11.357649361050713 14.44
    vertex -341.2607501029006 9.455778077523403 14.44
    vertex -339.27467501433784 11.249298367882737 14.44
  endloop
endfacet
facet normal 0.0 0.0 1.0
  outer loop
    vertex -339.27467501433784 11.249298367882737 14.44
    vertex -341.2607501029006 9.455778077523403 14.44
    vertex -339.3654103224097 11.11828084510943 14.44
  endloop
endfacet
facet normal 0.0 0.0 1.0
  outer loop
    vertex -339.3654103224097 11.11828084510943 14.44
    vertex -341.2607501029006 9.455778077523403 14.44
    vertex -339.4239343885471 10.965728043521624 14.44
  endloop
endfacet
facet normal 0.0 0.0 1.0
  outer loop
    vertex -339.4239343885471 10.965728043521624 14.44
    vertex -341.2607501029006 9.455778077523403 14.44
    vertex -340.02264281545115 9.216354209861462 14.44
  endloop
endfacet
facet normal 0.0 0.0 1.0
  outer loop
    vertex -339.4239343885471 10.965728043521624 14.44
    vertex -340.02264281545115 9.216354209861462 14.44
    vertex -339.44344241059287 10.792771213910044 14.44
  endloop
endfacet
facet normal 0.0 0.0 1.0
  outer loop
    vertex -339.44344241059287 10.792771213910044 14.44
    vertex -340.02264281545115 9.216354209861462 14.44
    vertex -339.4848454976374 9.023757897867537 14.44
  endloop
endfacet
facet normal 0.0 0.0 1.0
  outer loop
    vertex -334.2916147329581 14.599999999999858 14.44
    vertex -339.15853326648875 11.357649361050713 14.44
    vertex -339.0206244544946 11.442880632400684 14.44
  endloop
endfacet
facet normal 0.0 0.0 1.0
  outer loop
    vertex -334.2916147329581 14.599999999999858 14.44
    vertex -339.0206244544946 11.442880632400684 14.44
    vertex -338.8645879539886 11.504538989719753 14.44
  endloop
endfacet
facet normal 0.0 0.0 1.0
  outer loop
    vertex -334.2916147329581 14.599999999999858 14.44
    vertex -338.8645879539886 11.504538989719753 14.44
    vertex -338.5253510960686 11.55441089002341 14.44
  endloop
endfacet
facet normal 0.0 0.0 1.0
  outer loop
    vertex -334.2916147329581 14.599999999999858 14.44
    vertex -338.5253510960686 11.55441089002341 14.44
    vertex -338.31631878252495 11.537850347102106 14.44
  endloop
endfacet
facet normal 0.0 0.0 1.0
  outer loop
    vertex -334.2916147329581 14.599999999999858 14.44
    vertex -338.31631878252495 11.537850347102106 14.44
    vertex -338.1172566976628 11.488168718338219 14.44
  endloop
endfacet
facet normal 0.0 0.0 1.0
  outer loop
    vertex -334.2916147329581 14.599999999999858 14.44
    vertex -338.1172566976628 11.488168718338219 14.44
    vertex -337.92091376607755 11.404452700341016 14.44
  endloop
endfacet
facet normal 0.0 0.0 1.0
  outer loop
    vertex -334.2916147329581 14.599999999999858 14.44
    vertex -337.92091376607755 11.404452700341016 14.44
    vertex -337.72003891236415 11.285788989719782 14.44
  endloop
endfacet
facet normal 0.0 0.0 1.0
  outer loop
    vertex -334.2916147329581 14.599999999999858 14.44
    vertex -337.72003891236415 11.285788989719782 14.44
    vertex -337.7102831716 9.930626651030499 14.44
  endloop
endfacet
facet normal 0.0 0.0 1.0
  outer loop
    vertex -334.2916147329581 14.599999999999858 14.44
    vertex -337.7102831716 9.930626651030499 14.44
    vertex -337.6564709206827 9.785428709323753 14.44
  endloop
endfacet
facet normal 0.0 0.0 1.0
  outer loop
    vertex -334.2916147329581 14.599999999999858 14.44
    vertex -337.6564709206827 9.785428709323753 14.44
    vertex -337.63853350371033 9.616215039820982 14.44
  endloop
endfacet
facet normal 0.0 0.0 1.0
  outer loop
    vertex -334.2916147329581 14.599999999999858 14.44
    vertex -337.63853350371033 9.616215039820982 14.44
    vertex -334.2916147329581 5.399999999999863 14.44
  endloop
endfacet
facet normal 0.0 0.0 1.0
  outer loop
    vertex -341.93302442602817 8.803651780711668 14.44
    vertex -341.89131690452007 11.093718519071984 14.44
    vertex -341.9529787213217 11.523469278181295 14.44
  endloop
endfacet
facet normal 0.0 0.0 1.0
  outer loop
    vertex -341.89131690452007 11.093718519071984 14.44
    vertex -341.93302442602817 8.803651780711668 14.44
    vertex -341.89131690452 9.22432485763474 14.44
  endloop
endfacet
facet normal 0.0 -1.0 0.0
  outer loop
    vertex -334.2916147329581 5.399999999999863 14.44
    vertex -345.0916147329581 5.399999999999863 4.999999999999994
    vertex -334.2916147329581 5.399999999999863 4.999999999999994
  endloop
endfacet
facet normal 0.0 -1.0 0.0
  outer loop
    vertex -345.0916147329581 5.399999999999863 4.999999999999994
    vertex -334.2916147329581 5.399999999999863 14.44
    vertex -345.0916147329581 5.399999999999863 14.44
  endloop
endfacet
facet normal 0.0 1.0 0.0
  outer loop
    vertex -345.0916147329581 14.599999999999858 14.44
    vertex -334.2916147329581 14.599999999999858 4.999999999999994
    vertex -345.0916147329581 14.599999999999858 4.999999999999994
  endloop
endfacet
facet normal 0.0 1.0 0.0
  outer loop
    vertex -334.2916147329581 14.599999999999858 4.999999999999994
    vertex -345.0916147329581 14.599999999999858 14.44
    vertex -334.2916147329581 14.599999999999858 14.44
  endloop
endfacet
facet normal 0.0 0.0 -1.0
  outer loop
    vertex -334.2916147329581 14.599999999999858 4.999999999999994
    vertex -345.0916147329581 5.399999999999863 4.999999999999994
    vertex -345.0916147329581 14.599999999999858 4.999999999999994
  endloop
endfacet
facet normal 0.0 0.0 -1.0
  outer loop
    vertex -345.0916147329581 5.399999999999863 4.999999999999994
    vertex -334.2916147329581 14.599999999999858 4.999999999999994
    vertex -334.2916147329581 5.399999999999863 4.999999999999994
  endloop
endfacet
facet normal 2.492399514977096e-32 1.0 5.035654433121213e-15
  outer loop
    vertex -341.2752522537103 9.216354209861459 15.000000000000004
    vertex -340.02264281545115 9.216354209861462 14.44
    vertex -341.27525225371033 9.216354209861462 14.44
  endloop
endfacet
facet normal 2.492399514977096e-32 1.0 5.035654433121213e-15
  outer loop
    vertex -340.02264281545115 9.216354209861462 14.44
    vertex -341.2752522537103 9.216354209861459 15.000000000000004
    vertex -340.02264281545115 9.216354209861459 15.000000000000004
  endloop
endfacet
facet normal 0.9930291603427889 -0.11786893869419468 -1.4788480475430688e-16
  outer loop
    vertex -340.02264281545115 9.216354209861462 14.44
    vertex -340.0716290882245 8.803651780711663 15.000000000000004
    vertex -340.0716290882245 8.803651780711661 14.44
  endloop
endfacet
facet normal 0.9930291603427889 -0.11786893869419468 -1.4788480475430688e-16
  outer loop
    vertex -340.0716290882245 8.803651780711663 15.000000000000004
    vertex -340.02264281545115 9.216354209861462 14.44
    vertex -340.02264281545115 9.216354209861459 15.000000000000004
  endloop
endfacet
facet normal -1.8937181326263304e-15 -1.0 -3.7767408248408345e-15
  outer loop
    vertex -340.0716290882245 8.803651780711663 15.000000000000004
    vertex -341.93302442602817 8.803651780711668 14.44
    vertex -340.0716290882245 8.803651780711661 14.44
  endloop
endfacet
facet normal -1.8937181326263304e-15 -1.0 -3.7767408248408345e-15
  outer loop
    vertex -341.93302442602817 8.803651780711668 14.44
    vertex -340.0716290882245 8.803651780711663 15.000000000000004
    vertex -341.9330244260281 8.803651780711663 15.000000000000004
  endloop
endfacet
facet normal -0.9951210997756599 0.09866101956335888 4.0586214682499774e-14
  outer loop
    vertex -341.89131690452 9.22432485763474 15.000000000000004
    vertex -341.93302442602817 8.803651780711668 14.44
    vertex -341.9330244260281 8.803651780711663 15.000000000000004
  endloop
endfacet
facet normal -0.9951210997756599 0.09866101956335888 4.0586214682499774e-14
  outer loop
    vertex -341.93302442602817 8.803651780711668 14.44
    vertex -341.89131690452 9.22432485763474 15.000000000000004
    vertex -341.89131690452 9.22432485763474 14.44
  endloop
endfacet
facet normal -1.0 -1.2067940704922775e-14 4.0285235464969723e-14
  outer loop
    vertex -341.89131690452 11.093718519071986 15.000000000000004
    vertex -341.89131690452 9.22432485763474 14.44
    vertex -341.89131690452 9.22432485763474 15.000000000000004
  endloop
endfacet
facet normal -1.0 -1.2067940704922775e-14 4.0285235464969723e-14
  outer loop
    vertex -341.89131690452 9.22432485763474 14.44
    vertex -341.89131690452 11.093718519071986 15.000000000000004
    vertex -341.89131690452007 11.093718519071984 14.44
  endloop
endfacet
facet normal -0.9898626117958612 -0.14202820061056992 8.028755779525096e-14
  outer loop
    vertex -341.89131690452 11.093718519071986 15.000000000000004
    vertex -341.9529787213217 11.523469278181295 14.44
    vertex -341.89131690452007 11.093718519071984 14.44
  endloop
endfacet
facet normal -0.9898626117958612 -0.14202820061056992 8.028755779525096e-14
  outer loop
    vertex -341.9529787213217 11.523469278181295 14.44
    vertex -341.89131690452 11.093718519071986 15.000000000000004
    vertex -341.95297872132164 11.523469278181299 15.000000000000004
  endloop
endfacet
facet normal -0.052303172101007774 0.9986312523590338 3.393286648785493e-15
  outer loop
    vertex -341.95297872132164 11.523469278181299 15.000000000000004
    vertex -341.2607501029007 11.559724655205587 14.44
    vertex -341.9529787213217 11.523469278181295 14.44
  endloop
endfacet
facet normal -0.052303172101007774 0.9986312523590338 3.393286648785493e-15
  outer loop
    vertex -341.2607501029007 11.559724655205587 14.44
    vertex -341.95297872132164 11.523469278181299 15.000000000000004
    vertex -341.2607501029006 11.559724655205589 15.000000000000004
  endloop
endfacet
facet normal 1.0 3.216773481753913e-14 -1.208557063949092e-13
  outer loop
    vertex -341.2607501029007 11.559724655205587 14.44
    vertex -341.2607501029006 9.455778077523403 15.000000000000004
    vertex -341.2607501029006 9.455778077523403 14.44
  endloop
endfacet
facet normal 1.0 3.216773481753913e-14 -1.208557063949092e-13
  outer loop
    vertex -341.2607501029006 9.455778077523403 15.000000000000004
    vertex -341.2607501029007 11.559724655205587 14.44
    vertex -341.2607501029006 11.559724655205589 15.000000000000004
  endloop
endfacet
facet normal 0.9981706073152793 -0.060460224047275975 -4.0363753986965415e-14
  outer loop
    vertex -341.27525225371033 9.216354209861462 14.44
    vertex -341.2607501029006 9.455778077523403 15.000000000000004
    vertex -341.2752522537103 9.216354209861459 15.000000000000004
  endloop
endfacet
facet normal 0.9981706073152793 -0.060460224047275975 -4.0363753986965415e-14
  outer loop
    vertex -341.2607501029006 9.455778077523403 15.000000000000004
    vertex -341.27525225371033 9.216354209861462 14.44
    vertex -341.2607501029006 9.455778077523403 14.44
  endloop
endfacet
facet normal 0.0 0.0 1.0
  outer loop
    vertex -340.0716290882245 8.803651780711663 15.000000000000004
    vertex -341.89131690452 9.22432485763474 15.000000000000004
    vertex -341.9330244260281 8.803651780711663 15.000000000000004
  endloop
endfacet
facet normal 0.0 0.0 1.0
  outer loop
    vertex -341.89131690452 9.22432485763474 15.000000000000004
    vertex -340.0716290882245 8.803651780711663 15.000000000000004
    vertex -341.2752522537103 9.216354209861459 15.000000000000004
  endloop
endfacet
facet normal 0.0 0.0 1.0
  outer loop
    vertex -341.89131690452 9.22432485763474 15.000000000000004
    vertex -341.2752522537103 9.216354209861459 15.000000000000004
    vertex -341.89131690452 11.093718519071986 15.000000000000004
  endloop
endfacet
facet normal 0.0 0.0 1.0
  outer loop
    vertex -341.2752522537103 9.216354209861459 15.000000000000004
    vertex -340.0716290882245 8.803651780711663 15.000000000000004
    vertex -340.02264281545115 9.216354209861459 15.000000000000004
  endloop
endfacet
facet normal 0.0 0.0 1.0
  outer loop
    vertex -341.89131690452 11.093718519071986 15.000000000000004
    vertex -341.2607501029006 11.559724655205589 15.000000000000004
    vertex -341.95297872132164 11.523469278181299 15.000000000000004
  endloop
endfacet
facet normal 0.0 0.0 1.0
  outer loop
    vertex -341.2607501029006 11.559724655205589 15.000000000000004
    vertex -341.89131690452 11.093718519071986 15.000000000000004
    vertex -341.2752522537103 9.216354209861459 15.000000000000004
  endloop
endfacet
facet normal 0.0 0.0 1.0
  outer loop
    vertex -341.2607501029006 11.559724655205589 15.000000000000004
    vertex -341.2752522537103 9.216354209861459 15.000000000000004
    vertex -341.2607501029006 9.455778077523403 15.000000000000004
  endloop
endfacet
facet normal -0.4785429531620836 -0.8780641445696958 1.5566726523148388e-14
  outer loop
    vertex -337.99209261934794 10.939231866744052 15.000000000000004
    vertex -338.14354876497055 11.021775120160113 14.44
    vertex -337.9920926193481 10.939231866744134 14.44
  endloop
endfacet
facet normal -0.4785429531620836 -0.8780641445696958 1.5566726523148388e-14
  outer loop
    vertex -338.14354876497055 11.021775120160113 14.44
    vertex -337.99209261934794 10.939231866744052 15.000000000000004
    vertex -338.14354876497043 11.021775120160044 15.000000000000004
  endloop
endfacet
facet normal -0.3907340757901837 -0.9205036023918599 -2.6047523965295358e-15
  outer loop
    vertex -338.14354876497043 11.021775120160044 15.000000000000004
    vertex -338.2696123087457 11.075286396096269 14.44
    vertex -338.14354876497055 11.021775120160113 14.44
  endloop
endfacet
facet normal -0.3907340757901837 -0.9205036023918599 -2.6047523965295358e-15
  outer loop
    vertex -338.2696123087457 11.075286396096269 14.44
    vertex -338.14354876497043 11.021775120160044 15.000000000000004
    vertex -338.2696123087457 11.075286396096278 15.000000000000004
  endloop
endfacet
facet normal -0.2556512890433544 -0.9667690615707927 1.2170044430855296e-14
  outer loop
    vertex -338.2696123087457 11.075286396096278 15.000000000000004
    vertex -338.3793470949299 11.10430453564587 14.44
    vertex -338.2696123087457 11.075286396096269 14.44
  endloop
endfacet
facet normal -0.2556512890433544 -0.9667690615707927 1.2170044430855296e-14
  outer loop
    vertex -338.3793470949299 11.10430453564587 14.44
    vertex -338.2696123087457 11.075286396096278 15.000000000000004
    vertex -338.3793470949299 11.104304535645873 15.000000000000004
  endloop
endfacet
facet normal -0.08810973090857953 -0.9961107746225907 8.778801151632252e-15
  outer loop
    vertex -338.3793470949299 11.104304535645873 15.000000000000004
    vertex -338.4818169677791 11.11336837990194 14.44
    vertex -338.3793470949299 11.10430453564587 14.44
  endloop
endfacet
facet normal -0.08810973090857953 -0.9961107746225907 8.778801151632252e-15
  outer loop
    vertex -338.4818169677791 11.11336837990194 14.44
    vertex -338.3793470949299 11.104304535645873 15.000000000000004
    vertex -338.4818169677791 11.113368379901946 15.000000000000004
  endloop
endfacet
facet normal 0.09485785545674011 -0.9954908273098997 4.9499360346526875e-15
  outer loop
    vertex -338.4818169677791 11.113368379901946 15.000000000000004
    vertex -338.6151315869593 11.100665160013278 14.44
    vertex -338.4818169677791 11.11336837990194 14.44
  endloop
endfacet
facet normal 0.09485785545674011 -0.9954908273098997 4.9499360346526875e-15
  outer loop
    vertex -338.6151315869593 11.100665160013278 14.44
    vertex -338.4818169677791 11.113368379901946 15.000000000000004
    vertex -338.61513158695925 11.100665160013282 15.000000000000004
  endloop
endfacet
facet normal 0.3440778943470121 -0.9389411071104122 -1.0202511276456728e-14
  outer loop
    vertex -338.61513158695925 11.100665160013282 15.000000000000004
    vertex -338.73393021739975 11.057131031723742 14.44
    vertex -338.6151315869593 11.100665160013278 14.44
  endloop
endfacet
facet normal 0.3440778943470121 -0.9389411071104122 -1.0202511276456728e-14
  outer loop
    vertex -338.73393021739975 11.057131031723742 14.44
    vertex -338.61513158695925 11.100665160013282 15.000000000000004
    vertex -338.7339302173996 11.057131031723808 15.000000000000004
  endloop
endfacet
facet normal 0.6994088372254498 -0.7147218188994543 -1.2676769366409018e-13
  outer loop
    vertex -338.7339302173996 11.057131031723808 15.000000000000004
    vertex -338.8191857051274 10.97370215077745 14.44
    vertex -338.73393021739975 11.057131031723742 14.44
  endloop
endfacet
facet normal 0.6994088372254498 -0.7147218188994543 -1.2676769366409018e-13
  outer loop
    vertex -338.8191857051274 10.97370215077745 14.44
    vertex -338.7339302173996 11.057131031723808 15.000000000000004
    vertex -338.8191857051273 10.97370215077745 15.000000000000004
  endloop
endfacet
facet normal 0.9701364539863074 -0.24255980839140115 -1.1572043072400606e-13
  outer loop
    vertex -338.8191857051274 10.97370215077745 14.44
    vertex -338.8518432203095 10.84308592797887 15.000000000000004
    vertex -338.85184322030955 10.843085927978862 14.44
  endloop
endfacet
facet normal 0.9701364539863074 -0.24255980839140115 -1.1572043072400606e-13
  outer loop
    vertex -338.8518432203095 10.84308592797887 15.000000000000004
    vertex -338.8191857051274 10.97370215077745 14.44
    vertex -338.8191857051273 10.97370215077745 15.000000000000004
  endloop
endfacet
facet normal 0.9604538793473743 0.2784391237713906 -8.05392641490523e-14
  outer loop
    vertex -338.85184322030955 10.843085927978862 14.44
    vertex -338.8147714054057 10.71520961535235 15.000000000000004
    vertex -338.8147714054057 10.715209615352345 14.44
  endloop
endfacet
facet normal 0.9604538793473743 0.2784391237713906 -8.05392641490523e-14
  outer loop
    vertex -338.8147714054057 10.71520961535235 15.000000000000004
    vertex -338.85184322030955 10.843085927978862 14.44
    vertex -338.8518432203095 10.84308592797887 15.000000000000004
  endloop
endfacet
facet normal 0.6976029698197377 0.7164845403068248 -4.34422003578135e-14
  outer loop
    vertex -338.8147714054057 10.71520961535235 15.000000000000004
    vertex -338.71710329432267 10.620115359279458 14.44
    vertex -338.8147714054057 10.715209615352345 14.44
  endloop
endfacet
facet normal 0.6976029698197377 0.7164845403068248 -4.34422003578135e-14
  outer loop
    vertex -338.71710329432267 10.620115359279458 14.44
    vertex -338.8147714054057 10.71520961535235 15.000000000000004
    vertex -338.71710329432267 10.620115359279476 15.000000000000004
  endloop
endfacet
facet normal 0.4834942542447234 0.8753475344755012 -3.3057589895453253e-14
  outer loop
    vertex -338.71710329432267 10.620115359279476 15.000000000000004
    vertex -338.5796372960939 10.54418663648087 14.44
    vertex -338.71710329432267 10.620115359279458 14.44
  endloop
endfacet
facet normal 0.4834942542447234 0.8753475344755012 -3.3057589895453253e-14
  outer loop
    vertex -338.5796372960939 10.54418663648087 14.44
    vertex -338.71710329432267 10.620115359279476 15.000000000000004
    vertex -338.5796372960939 10.544186636480894 15.000000000000004
  endloop
endfacet
facet normal 0.4109513841188094 0.9116572600987911 -2.7362886925912595e-14
  outer loop
    vertex -338.5796372960939 10.544186636480894 15.000000000000004
    vertex -338.42319949561323 10.473668544375661 14.44
    vertex -338.5796372960939 10.54418663648087 14.44
  endloop
endfacet
facet normal 0.4109513841188094 0.9116572600987911 -2.7362886925912595e-14
  outer loop
    vertex -338.42319949561323 10.473668544375661 14.44
    vertex -338.5796372960939 10.544186636480894 15.000000000000004
    vertex -338.4231994956131 10.47366854437563 15.000000000000004
  endloop
endfacet
facet normal 0.44453566981309545 0.8957611502313677 -2.2154303017408056e-14
  outer loop
    vertex -338.4231994956131 10.47366854437563 15.000000000000004
    vertex -338.1471189509523 10.336659197842238 14.44
    vertex -338.42319949561323 10.473668544375661 14.44
  endloop
endfacet
facet normal 0.44453566981309545 0.8957611502313677 -2.2154303017408056e-14
  outer loop
    vertex -338.1471189509523 10.336659197842238 14.44
    vertex -338.4231994956131 10.47366854437563 15.000000000000004
    vertex -338.14711895095223 10.336659197842229 15.000000000000004
  endloop
endfacet
facet normal 0.5656249744312579 0.8246625905784976 -4.5576197148765614e-14
  outer loop
    vertex -338.14711895095223 10.336659197842229 15.000000000000004
    vertex -337.8946459151476 10.163491339795662 14.44
    vertex -338.1471189509523 10.336659197842238 14.44
  endloop
endfacet
facet normal 0.5656249744312579 0.8246625905784976 -4.5576197148765614e-14
  outer loop
    vertex -337.8946459151476 10.163491339795662 14.44
    vertex -338.14711895095223 10.336659197842229 15.000000000000004
    vertex -337.8946459151475 10.163491339795671 15.000000000000004
  endloop
endfacet
facet normal 0.7258494738548259 0.6878535754829458 6.918267957774942e-15
  outer loop
    vertex -337.79224869143167 10.055437862126155 14.44
    vertex -337.8946459151475 10.163491339795671 15.000000000000004
    vertex -337.7922486914317 10.055437862126135 15.000000000000004
  endloop
endfacet
facet normal 0.7258494738548259 0.6878535754829458 6.918267957774942e-15
  outer loop
    vertex -337.8946459151475 10.163491339795671 15.000000000000004
    vertex -337.79224869143167 10.055437862126155 14.44
    vertex -337.8946459151476 10.163491339795662 14.44
  endloop
endfacet
facet normal 0.8358691931423186 0.5489286765651886 4.887528297374092e-14
  outer loop
    vertex -337.7102831716 9.930626651030499 14.44
    vertex -337.7922486914317 10.055437862126135 15.000000000000004
    vertex -337.7102831716 9.930626651030488 15.000000000000004
  endloop
endfacet
facet normal 0.8358691931423186 0.5489286765651886 4.887528297374092e-14
  outer loop
    vertex -337.7922486914317 10.055437862126135 15.000000000000004
    vertex -337.7102831716 9.930626651030499 14.44
    vertex -337.79224869143167 10.055437862126155 14.44
  endloop
endfacet
facet normal 0.937674628658499 0.347514446850985 2.189742100602408e-15
  outer loop
    vertex -337.7102831716 9.930626651030499 14.44
    vertex -337.6564709206827 9.785428709323757 15.000000000000004
    vertex -337.6564709206827 9.785428709323753 14.44
  endloop
endfacet
facet normal 0.937674628658499 0.347514446850985 2.189742100602408e-15
  outer loop
    vertex -337.6564709206827 9.785428709323757 15.000000000000004
    vertex -337.7102831716 9.930626651030499 14.44
    vertex -337.7102831716 9.930626651030488 15.000000000000004
  endloop
endfacet
facet normal 0.994428430800487 0.10541392704799925 -3.966217407618588e-14
  outer loop
    vertex -337.63853350371033 9.616215039820982 14.44
    vertex -337.6564709206827 9.785428709323757 15.000000000000004
    vertex -337.6385335037103 9.616215039820975 15.000000000000004
  endloop
endfacet
facet normal 0.994428430800487 0.10541392704799925 -3.966217407618588e-14
  outer loop
    vertex -337.6564709206827 9.785428709323757 15.000000000000004
    vertex -337.63853350371033 9.616215039820982 14.44
    vertex -337.6564709206827 9.785428709323753 14.44
  endloop
endfacet
facet normal 0.9939598824000223 -0.10974403026740973 -8.132862420885904e-14
  outer loop
    vertex -337.66029364889 9.41913177897204 14.44
    vertex -337.6385335037103 9.616215039820975 15.000000000000004
    vertex -337.66029364889 9.419131778972035 15.000000000000004
  endloop
endfacet
facet normal 0.9939598824000223 -0.10974403026740973 -8.132862420885904e-14
  outer loop
    vertex -337.6385335037103 9.616215039820975 15.000000000000004
    vertex -337.66029364889 9.41913177897204 14.44
    vertex -337.63853350371033 9.616215039820982 14.44
  endloop
endfacet
facet normal 0.934096935421468 -0.35701948859442095 -3.943167019446818e-14
  outer loop
    vertex -337.7255740844289 9.248333666465712 14.44
    vertex -337.66029364889 9.419131778972035 15.000000000000004
    vertex -337.7255740844289 9.24833366646571 15.000000000000004
  endloop
endfacet
facet normal 0.934096935421468 -0.35701948859442095 -3.943167019446818e-14
  outer loop
    vertex -337.66029364889 9.419131778972035 15.000000000000004
    vertex -337.7255740844289 9.248333666465712 14.44
    vertex -337.66029364889 9.41913177897204 14.44
  endloop
endfacet
facet normal 0.8188035105956638 -0.5740738724556419 -2.6009548432005532e-14
  outer loop
    vertex -337.8268988685572 9.103813783336966 14.44
    vertex -337.7255740844289 9.24833366646571 15.000000000000004
    vertex -337.8268988685572 9.103813783336916 15.000000000000004
  endloop
endfacet
facet normal 0.8188035105956638 -0.5740738724556419 -2.6009548432005532e-14
  outer loop
    vertex -337.7255740844289 9.24833366646571 15.000000000000004
    vertex -337.8268988685572 9.103813783336966 14.44
    vertex -337.7255740844289 9.248333666465712 14.44
  endloop
endfacet
facet normal 0.673183358321002 -0.7394756020854626 -7.552659199343096e-14
  outer loop
    vertex -337.8268988685572 9.103813783336916 15.000000000000004
    vertex -337.9567920595049 8.985565210620594 14.44
    vertex -337.8268988685572 9.103813783336966 14.44
  endloop
endfacet
facet normal 0.673183358321002 -0.7394756020854626 -7.552659199343096e-14
  outer loop
    vertex -337.9567920595049 8.985565210620594 14.44
    vertex -337.8268988685572 9.103813783336916 15.000000000000004
    vertex -337.95679205950483 8.98556521062057 15.000000000000004
  endloop
endfacet
facet normal 0.5110765416121608 -0.8595352049879943 -5.957990396715004e-14
  outer loop
    vertex -337.95679205950483 8.98556521062057 15.000000000000004
    vertex -338.1118529859345 8.893366541434082 14.44
    vertex -337.9567920595049 8.985565210620594 14.44
  endloop
endfacet
facet normal 0.5110765416121608 -0.8595352049879943 -5.957990396715004e-14
  outer loop
    vertex -338.1118529859345 8.893366541434082 14.44
    vertex -337.95679205950483 8.98556521062057 15.000000000000004
    vertex -338.1118529859345 8.893366541434082 15.000000000000004
  endloop
endfacet
facet normal 0.3514004306430573 -0.9362252599368776 -1.7694314058378946e-14
  outer loop
    vertex -338.1118529859345 8.893366541434082 15.000000000000004
    vertex -338.2886809765089 8.826996368894866 14.44
    vertex -338.1118529859345 8.893366541434082 14.44
  endloop
endfacet
facet normal 0.3514004306430573 -0.9362252599368776 -1.7694314058378946e-14
  outer loop
    vertex -338.2886809765089 8.826996368894866 14.44
    vertex -338.1118529859345 8.893366541434082 15.000000000000004
    vertex -338.2886809765089 8.82699636889486 15.000000000000004
  endloop
endfacet
facet normal 0.20577691250596247 -0.9785989282027207 -4.924856804234659e-15
  outer loop
    vertex -338.2886809765089 8.82699636889486 15.000000000000004
    vertex -338.4793434377627 8.786904425733171 14.44
    vertex -338.2886809765089 8.826996368894866 14.44
  endloop
endfacet
facet normal 0.20577691250596247 -0.9785989282027207 -4.924856804234659e-15
  outer loop
    vertex -338.4793434377627 8.786904425733171 14.44
    vertex -338.2886809765089 8.82699636889486 15.000000000000004
    vertex -338.4793434377627 8.78690442573317 15.000000000000004
  endloop
endfacet
facet normal 0.067831232081121 -0.9976968096342482 -3.7674645762437006e-15
  outer loop
    vertex -338.4793434377627 8.78690442573317 15.000000000000004
    vertex -338.67590777623053 8.773540444679277 14.44
    vertex -338.4793434377627 8.786904425733171 14.44
  endloop
endfacet
facet normal 0.067831232081121 -0.9976968096342482 -3.7674645762437006e-15
  outer loop
    vertex -338.67590777623053 8.773540444679277 14.44
    vertex -338.4793434377627 8.78690442573317 15.000000000000004
    vertex -338.67590777623053 8.773540444679274 15.000000000000004
  endloop
endfacet
facet normal -0.07306289292578619 -0.9973273352702788 -2.5502247692120514e-14
  outer loop
    vertex -338.67590777623053 8.773540444679274 15.000000000000004
    vertex -338.895588377034 8.789633957457646 14.44
    vertex -338.67590777623053 8.773540444679277 14.44
  endloop
endfacet
facet normal -0.07306289292578619 -0.9973273352702788 -2.5502247692120514e-14
  outer loop
    vertex -338.895588377034 8.789633957457646 14.44
    vertex -338.67590777623053 8.773540444679274 15.000000000000004
    vertex -338.8955883770339 8.789633957457614 15.000000000000004
  endloop
endfacet
facet normal -0.23246189353840183 -0.9726055048438399 -1.439667495770326e-14
  outer loop
    vertex -338.8955883770339 8.789633957457614 15.000000000000004
    vertex -339.09759102205555 8.837914495792672 14.44
    vertex -338.895588377034 8.789633957457646 14.44
  endloop
endfacet
facet normal -0.23246189353840183 -0.9726055048438399 -1.439667495770326e-14
  outer loop
    vertex -339.09759102205555 8.837914495792672 14.44
    vertex -338.8955883770339 8.789633957457614 15.000000000000004
    vertex -339.09759102205544 8.837914495792633 15.000000000000004
  endloop
endfacet
facet normal -0.43265775328973705 -0.9015582446621389 1.9389477126782957e-14
  outer loop
    vertex -339.09759102205544 8.837914495792633 15.000000000000004
    vertex -339.4848454976374 9.023757897867537 14.44
    vertex -339.09759102205555 8.837914495792672 14.44
  endloop
endfacet
facet normal -0.43265775328973705 -0.9015582446621389 1.9389477126782957e-14
  outer loop
    vertex -339.4848454976374 9.023757897867537 14.44
    vertex -339.09759102205544 8.837914495792633 15.000000000000004
    vertex -339.4848454976374 9.023757897867533 15.000000000000004
  endloop
endfacet
facet normal -0.8544779472744414 0.5194876684019142 1.4512322030884807e-13
  outer loop
    vertex -339.2345450168682 9.43546399604567 15.000000000000004
    vertex -339.4848454976374 9.023757897867537 14.44
    vertex -339.4848454976374 9.023757897867533 15.000000000000004
  endloop
endfacet
facet normal -0.8544779472744414 0.5194876684019142 1.4512322030884807e-13
  outer loop
    vertex -339.4848454976374 9.023757897867537 14.44
    vertex -339.2345450168682 9.43546399604567 15.000000000000004
    vertex -339.2345450168683 9.435463996045758 14.44
  endloop
endfacet
facet normal 0.5105719036154854 0.859835060484544 1.9477096092268938e-14
  outer loop
    vertex -339.2345450168682 9.43546399604567 15.000000000000004
    vertex -339.1184447828096 9.36652342797894 14.44
    vertex -339.2345450168683 9.435463996045758 14.44
  endloop
endfacet
facet normal 0.5105719036154854 0.859835060484544 1.9477096092268938e-14
  outer loop
    vertex -339.1184447828096 9.36652342797894 14.44
    vertex -339.2345450168682 9.43546399604567 15.000000000000004
    vertex -339.1184447828095 9.36652342797887 15.000000000000004
  endloop
endfacet
facet normal 0.4216161649822195 0.9067743983073662 4.4793536507459395e-14
  outer loop
    vertex -339.1184447828095 9.36652342797887 15.000000000000004
    vertex -338.9760663193732 9.300322770084158 14.44
    vertex -339.1184447828096 9.36652342797894 14.44
  endloop
endfacet
facet normal 0.4216161649822195 0.9067743983073662 4.4793536507459395e-14
  outer loop
    vertex -338.9760663193732 9.300322770084158 14.44
    vertex -339.1184447828095 9.36652342797887 15.000000000000004
    vertex -338.9760663193732 9.300322770084133 15.000000000000004
  endloop
endfacet
facet normal 0.30768602340834417 0.9514879457981379 1.994556289868294e-14
  outer loop
    vertex -338.9760663193732 9.300322770084133 15.000000000000004
    vertex -338.824624011681 9.251350335241028 14.44
    vertex -338.9760663193732 9.300322770084158 14.44
  endloop
endfacet
facet normal 0.30768602340834417 0.9514879457981379 1.994556289868294e-14
  outer loop
    vertex -338.824624011681 9.251350335241028 14.44
    vertex -338.9760663193732 9.300322770084133 15.000000000000004
    vertex -338.82462401168095 9.251350335241014 15.000000000000004
  endloop
endfacet
facet normal 0.13021234154498332 0.9914861300640432 -1.698191992496939e-14
  outer loop
    vertex -338.82462401168095 9.251350335241014 15.000000000000004
    vertex -338.67953331393306 9.232295505408006 14.44
    vertex -338.824624011681 9.251350335241028 14.44
  endloop
endfacet
facet normal 0.13021234154498332 0.9914861300640432 -1.698191992496939e-14
  outer loop
    vertex -338.67953331393306 9.232295505408006 14.44
    vertex -338.82462401168095 9.251350335241014 15.000000000000004
    vertex -338.67953331393295 9.23229550540802 15.000000000000004
  endloop
endfacet
facet normal -0.10826894745857245 0.9941216399496657 -4.437895158330277e-15
  outer loop
    vertex -338.67953331393295 9.23229550540802 15.000000000000004
    vertex -338.5217255583662 9.249482214669147 14.44
    vertex -338.67953331393306 9.232295505408006 14.44
  endloop
endfacet
facet normal -0.10826894745857245 0.9941216399496657 -4.437895158330277e-15
  outer loop
    vertex -338.5217255583662 9.249482214669147 14.44
    vertex -338.67953331393295 9.23229550540802 15.000000000000004
    vertex -338.52172555836614 9.249482214669152 15.000000000000004
  endloop
endfacet
facet normal -0.3850924126718108 0.9228780166970085 2.986568431661438e-14
  outer loop
    vertex -338.52172555836614 9.249482214669152 15.000000000000004
    vertex -338.3829726326324 9.307380114466728 14.44
    vertex -338.5217255583662 9.249482214669147 14.44
  endloop
endfacet
facet normal -0.3850924126718108 0.9228780166970085 2.986568431661438e-14
  outer loop
    vertex -338.3829726326324 9.307380114466728 14.44
    vertex -338.52172555836614 9.249482214669152 15.000000000000004
    vertex -338.38297263263235 9.307380114466724 15.000000000000004
  endloop
endfacet
facet normal -0.7396905020281128 0.672947220225627 -1.693323281329221e-15
  outer loop
    vertex -338.28502776294613 9.415039211126643 15.000000000000004
    vertex -338.3829726326324 9.307380114466728 14.44
    vertex -338.38297263263235 9.307380114466724 15.000000000000004
  endloop
endfacet
facet normal -0.7396905020281128 0.672947220225627 -1.693323281329221e-15
  outer loop
    vertex -338.3829726326324 9.307380114466728 14.44
    vertex -338.28502776294613 9.415039211126643 15.000000000000004
    vertex -338.28502776294613 9.415039211126636 14.44
  endloop
endfacet
facet normal -0.9764452139063882 0.21576548435583498 -8.111735669547127e-14
  outer loop
    vertex -338.28502776294613 9.415039211126643 15.000000000000004
    vertex -338.24784524460097 9.583308441895868 14.44
    vertex -338.28502776294613 9.415039211126636 14.44
  endloop
endfacet
facet normal -0.9764452139063882 0.21576548435583498 -8.111735669547127e-14
  outer loop
    vertex -338.24784524460097 9.583308441895868 14.44
    vertex -338.28502776294613 9.415039211126643 15.000000000000004
    vertex -338.247845244601 9.583308441895873 15.000000000000004
  endloop
endfacet
facet normal -0.9667751897239077 -0.25562811374006256 3.5386656767727246e-15
  outer loop
    vertex -338.247845244601 9.583308441895873 15.000000000000004
    vertex -338.2923341900717 9.751563834734931 14.44
    vertex -338.24784524460097 9.583308441895868 14.44
  endloop
endfacet
facet normal -0.9667751897239077 -0.25562811374006256 3.5386656767727246e-15
  outer loop
    vertex -338.2923341900717 9.751563834734931 14.44
    vertex -338.247845244601 9.583308441895873 15.000000000000004
    vertex -338.29233419007164 9.751563834734942 15.000000000000004
  endloop
endfacet
facet normal -0.7304166791278366 -0.6830018117485949 3.285944058841262e-14
  outer loop
    vertex -338.29233419007164 9.751563834734942 15.000000000000004
    vertex -338.40854512757164 9.875842285519358 14.44
    vertex -338.2923341900717 9.751563834734931 14.44
  endloop
endfacet
facet normal -0.7304166791278366 -0.6830018117485949 3.285944058841262e-14
  outer loop
    vertex -338.40854512757164 9.875842285519358 14.44
    vertex -338.29233419007164 9.751563834734942 15.000000000000004
    vertex -338.40854512757164 9.875842285519354 15.000000000000004
  endloop
endfacet
facet normal -0.5142379623310881 -0.8576475488786582 1.6194574057182588e-14
  outer loop
    vertex -338.40854512757164 9.875842285519354 15.000000000000004
    vertex -338.57104394146336 9.973275151789572 14.44
    vertex -338.40854512757164 9.875842285519358 14.44
  endloop
endfacet
facet normal -0.5142379623310881 -0.8576475488786582 1.6194574057182588e-14
  outer loop
    vertex -338.57104394146336 9.973275151789572 14.44
    vertex -338.40854512757164 9.875842285519354 15.000000000000004
    vertex -338.57104394146336 9.973275151789599 15.000000000000004
  endloop
endfacet
facet normal -0.42929590857008854 -0.9031638959153441 4.547743687111873e-14
  outer loop
    vertex -338.57104394146336 9.973275151789599 15.000000000000004
    vertex -338.7544241919694 10.060440273879648 14.44
    vertex -338.57104394146336 9.973275151789572 14.44
  endloop
endfacet
facet normal -0.42929590857008854 -0.9031638959153441 4.547743687111873e-14
  outer loop
    vertex -338.7544241919694 10.060440273879648 14.44
    vertex -338.57104394146336 9.973275151789599 15.000000000000004
    vertex -338.7544241919694 10.060440273879678 15.000000000000004
  endloop
endfacet
facet normal -0.45688557678007025 -0.8895254744695862 2.3022985487793837e-14
  outer loop
    vertex -338.7544241919694 10.060440273879678 15.000000000000004
    vertex -339.00826718286004 10.190821251865488 14.44
    vertex -338.7544241919694 10.060440273879648 14.44
  endloop
endfacet
facet normal -0.45688557678007025 -0.8895254744695862 2.3022985487793837e-14
  outer loop
    vertex -339.00826718286004 10.190821251865488 14.44
    vertex -338.7544241919694 10.060440273879678 15.000000000000004
    vertex -339.0082671828601 10.190821251865508 15.000000000000004
  endloop
endfacet
facet normal -0.5775164062245328 -0.8163790789464784 -6.454454504231193e-16
  outer loop
    vertex -339.0082671828601 10.190821251865508 15.000000000000004
    vertex -339.2285670310382 10.346664021349305 14.44
    vertex -339.00826718286004 10.190821251865488 14.44
  endloop
endfacet
facet normal -0.5775164062245328 -0.8163790789464784 -6.454454504231193e-16
  outer loop
    vertex -339.2285670310382 10.346664021349305 14.44
    vertex -339.0082671828601 10.190821251865508 15.000000000000004
    vertex -339.2285670310382 10.346664021349314 15.000000000000004
  endloop
endfacet
facet normal -0.7823065807050523 -0.6228935814290991 8.622729732796762e-15
  outer loop
    vertex -339.2285670310382 10.346664021349314 15.000000000000004
    vertex -339.3845066660332 10.542512246931292 14.44
    vertex -339.2285670310382 10.346664021349305 14.44
  endloop
endfacet
facet normal -0.7823065807050523 -0.6228935814290991 8.622729732796762e-15
  outer loop
    vertex -339.3845066660332 10.542512246931292 14.44
    vertex -339.2285670310382 10.346664021349314 15.000000000000004
    vertex -339.3845066660332 10.542512246931297 15.000000000000004
  endloop
endfacet
facet normal -0.9354359093454588 -0.3534963359174104 -2.4639766656487e-18
  outer loop
    vertex -339.3845066660332 10.542512246931297 15.000000000000004
    vertex -339.42870847445295 10.65948081110767 14.44
    vertex -339.3845066660332 10.542512246931292 14.44
  endloop
endfacet
facet normal -0.9354359093454588 -0.3534963359174104 -2.4639766656487e-18
  outer loop
    vertex -339.42870847445295 10.65948081110767 14.44
    vertex -339.3845066660332 10.542512246931297 15.000000000000004
    vertex -339.42870847445295 10.659480811107665 15.000000000000004
  endloop
endfacet
facet normal -0.9939458677067137 -0.10987088817675049 -5.536975561325036e-16
  outer loop
    vertex -339.44344241059287 10.792771213910044 15.000000000000004
    vertex -339.42870847445295 10.65948081110767 14.44
    vertex -339.42870847445295 10.659480811107665 15.000000000000004
  endloop
endfacet
facet normal -0.9939458677067137 -0.10987088817675049 -5.536975561325036e-16
  outer loop
    vertex -339.42870847445295 10.65948081110767 14.44
    vertex -339.44344241059287 10.792771213910044 15.000000000000004
    vertex -339.44344241059287 10.792771213910044 14.44
  endloop
endfacet
facet normal -0.9936991195913703 0.1120805947670504 -4.087789714426753e-14
  outer loop
    vertex -339.4239343885471 10.965728043521631 15.000000000000004
    vertex -339.44344241059287 10.792771213910044 14.44
    vertex -339.44344241059287 10.792771213910044 15.000000000000004
  endloop
endfacet
facet normal -0.9936991195913703 0.1120805947670504 -4.087789714426753e-14
  outer loop
    vertex -339.44344241059287 10.792771213910044 14.44
    vertex -339.4239343885471 10.965728043521631 15.000000000000004
    vertex -339.4239343885471 10.965728043521624 14.44
  endloop
endfacet
facet normal -0.933653031452521 0.3581787498715101 -7.973306358155946e-14
  outer loop
    vertex -339.4239343885471 10.965728043521631 15.000000000000004
    vertex -339.3654103224097 11.11828084510943 14.44
    vertex -339.4239343885471 10.965728043521624 14.44
  endloop
endfacet
facet normal -0.933653031452521 0.3581787498715101 -7.973306358155946e-14
  outer loop
    vertex -339.3654103224097 11.11828084510943 14.44
    vertex -339.4239343885471 10.965728043521631 15.000000000000004
    vertex -339.3654103224097 11.118280845109435 15.000000000000004
  endloop
endfacet
facet normal -0.8221015312387808 0.5693409104700379 7.891097690754119e-15
  outer loop
    vertex -339.3654103224097 11.118280845109435 15.000000000000004
    vertex -339.27467501433784 11.249298367882737 14.44
    vertex -339.3654103224097 11.11828084510943 14.44
  endloop
endfacet
facet normal -0.8221015312387808 0.5693409104700379 7.891097690754119e-15
  outer loop
    vertex -339.27467501433784 11.249298367882737 14.44
    vertex -339.3654103224097 11.118280845109435 15.000000000000004
    vertex -339.27467501433784 11.249298367882716 15.000000000000004
  endloop
endfacet
facet normal -0.6821568220436112 0.7312059013296878 1.1176230782182417e-13
  outer loop
    vertex -339.27467501433784 11.249298367882716 15.000000000000004
    vertex -339.15853326648875 11.357649361050713 14.44
    vertex -339.27467501433784 11.249298367882737 14.44
  endloop
endfacet
facet normal -0.6821568220436112 0.7312059013296878 1.1176230782182417e-13
  outer loop
    vertex -339.15853326648875 11.357649361050713 14.44
    vertex -339.27467501433784 11.249298367882716 15.000000000000004
    vertex -339.15853326648863 11.357649361050731 15.000000000000004
  endloop
endfacet
facet normal -0.5257263728520679 0.8506537373619235 3.057242236066237e-14
  outer loop
    vertex -339.15853326648863 11.357649361050731 15.000000000000004
    vertex -339.0206244544946 11.442880632400684 14.44
    vertex -339.15853326648875 11.357649361050713 14.44
  endloop
endfacet
facet normal -0.5257263728520679 0.8506537373619235 3.057242236066237e-14
  outer loop
    vertex -339.0206244544946 11.442880632400684 14.44
    vertex -339.15853326648863 11.357649361050731 15.000000000000004
    vertex -339.0206244544947 11.442880632400682 15.000000000000004
  endloop
endfacet
facet normal -0.36750171091015477 0.9300228451377468 -3.195551590680655e-14
  outer loop
    vertex -339.0206244544947 11.442880632400682 15.000000000000004
    vertex -338.8645879539886 11.504538989719753 14.44
    vertex -339.0206244544946 11.442880632400684 14.44
  endloop
endfacet
facet normal -0.36750171091015477 0.9300228451377468 -3.195551590680655e-14
  outer loop
    vertex -338.8645879539886 11.504538989719753 14.44
    vertex -339.0206244544947 11.442880632400682 15.000000000000004
    vertex -338.86458795398863 11.50453898971976 15.000000000000004
  endloop
endfacet
facet normal -0.14544867777989404 0.9893657979393065 1.2488157133258001e-15
  outer loop
    vertex -338.86458795398863 11.50453898971976 15.000000000000004
    vertex -338.5253510960686 11.55441089002341 14.44
    vertex -338.8645879539886 11.504538989719753 14.44
  endloop
endfacet
facet normal -0.14544867777989404 0.9893657979393065 1.2488157133258001e-15
  outer loop
    vertex -338.5253510960686 11.55441089002341 14.44
    vertex -338.86458795398863 11.50453898971976 15.000000000000004
    vertex -338.5253510960686 11.554410890023403 15.000000000000004
  endloop
endfacet
facet normal 0.07897733287754817 0.996876412044918 3.0062849815300414e-15
  outer loop
    vertex -338.5253510960686 11.554410890023403 15.000000000000004
    vertex -338.31631878252495 11.537850347102106 14.44
    vertex -338.5253510960686 11.55441089002341 14.44
  endloop
endfacet
facet normal 0.07897733287754817 0.996876412044918 3.0062849815300414e-15
  outer loop
    vertex -338.31631878252495 11.537850347102106 14.44
    vertex -338.5253510960686 11.554410890023403 15.000000000000004
    vertex -338.31631878252483 11.537850347102099 15.000000000000004
  endloop
endfacet
facet normal 0.24215076262406127 0.9702386346464388 1.104244045231776e-14
  outer loop
    vertex -338.31631878252483 11.537850347102099 15.000000000000004
    vertex -338.1172566976628 11.488168718338219 14.44
    vertex -338.31631878252495 11.537850347102106 14.44
  endloop
endfacet
facet normal 0.24215076262406127 0.9702386346464388 1.104244045231776e-14
  outer loop
    vertex -338.1172566976628 11.488168718338219 14.44
    vertex -338.31631878252483 11.537850347102099 15.000000000000004
    vertex -338.11725669766275 11.48816871833818 15.000000000000004
  endloop
endfacet
facet normal 0.39221288757791156 0.9198744755768564 2.6709209502078514e-14
  outer loop
    vertex -338.11725669766275 11.48816871833818 15.000000000000004
    vertex -337.92091376607755 11.404452700341016 14.44
    vertex -338.1172566976628 11.488168718338219 14.44
  endloop
endfacet
facet normal 0.39221288757791156 0.9198744755768564 2.6709209502078514e-14
  outer loop
    vertex -337.92091376607755 11.404452700341016 14.44
    vertex -338.11725669766275 11.48816871833818 15.000000000000004
    vertex -337.92091376607743 11.404452700340965 15.000000000000004
  endloop
endfacet
facet normal 0.5086179042674646 0.8609923504065365 1.5389275456576052e-14
  outer loop
    vertex -337.92091376607743 11.404452700340965 15.000000000000004
    vertex -337.72003891236415 11.285788989719782 14.44
    vertex -337.92091376607755 11.404452700341016 14.44
  endloop
endfacet
facet normal 0.5086179042674646 0.8609923504065365 1.5389275456576052e-14
  outer loop
    vertex -337.72003891236415 11.285788989719782 14.44
    vertex -337.92091376607743 11.404452700340965 15.000000000000004
    vertex -337.72003891236415 11.285788989719759 15.000000000000004
  endloop
endfacet
facet normal 0.7865841944119973 -0.617483040334898 -1.842690056955644e-13
  outer loop
    vertex -337.9920926193481 10.939231866744134 14.44
    vertex -337.72003891236415 11.285788989719759 15.000000000000004
    vertex -337.99209261934794 10.939231866744052 15.000000000000004
  endloop
endfacet
facet normal 0.7865841944119973 -0.617483040334898 -1.842690056955644e-13
  outer loop
    vertex -337.72003891236415 11.285788989719759 15.000000000000004
    vertex -337.9920926193481 10.939231866744134 14.44
    vertex -337.72003891236415 11.285788989719782 14.44
  endloop
endfacet
facet normal 0.0 0.0 1.0
  outer loop
    vertex -339.09759102205544 8.837914495792633 15.000000000000004
    vertex -339.2345450168682 9.43546399604567 15.000000000000004
    vertex -339.4848454976374 9.023757897867533 15.000000000000004
  endloop
endfacet
facet normal 0.0 0.0 1.0
  outer loop
    vertex -339.2345450168682 9.43546399604567 15.000000000000004
    vertex -339.09759102205544 8.837914495792633 15.000000000000004
    vertex -339.1184447828095 9.36652342797887 15.000000000000004
  endloop
endfacet
facet normal 0.0 0.0 1.0
  outer loop
    vertex -339.1184447828095 9.36652342797887 15.000000000000004
    vertex -339.09759102205544 8.837914495792633 15.000000000000004
    vertex -338.9760663193732 9.300322770084133 15.000000000000004
  endloop
endfacet
facet normal 0.0 0.0 1.0
  outer loop
    vertex -338.9760663193732 9.300322770084133 15.000000000000004
    vertex -339.09759102205544 8.837914495792633 15.000000000000004
    vertex -338.8955883770339 8.789633957457614 15.000000000000004
  endloop
endfacet
facet normal 0.0 0.0 1.0
  outer loop
    vertex -338.9760663193732 9.300322770084133 15.000000000000004
    vertex -338.8955883770339 8.789633957457614 15.000000000000004
    vertex -338.82462401168095 9.251350335241014 15.000000000000004
  endloop
endfacet
facet normal 0.0 0.0 1.0
  outer loop
    vertex -338.82462401168095 9.251350335241014 15.000000000000004
    vertex -338.8955883770339 8.789633957457614 15.000000000000004
    vertex -338.67590777623053 8.773540444679274 15.000000000000004
  endloop
endfacet
facet normal 0.0 0.0 1.0
  outer loop
    vertex -338.82462401168095 9.251350335241014 15.000000000000004
    vertex -338.67590777623053 8.773540444679274 15.000000000000004
    vertex -338.67953331393295 9.23229550540802 15.000000000000004
  endloop
endfacet
facet normal 0.0 0.0 1.0
  outer loop
    vertex -338.67953331393295 9.23229550540802 15.000000000000004
    vertex -338.67590777623053 8.773540444679274 15.000000000000004
    vertex -338.52172555836614 9.249482214669152 15.000000000000004
  endloop
endfacet
facet normal 0.0 0.0 1.0
  outer loop
    vertex -338.52172555836614 9.249482214669152 15.000000000000004
    vertex -338.67590777623053 8.773540444679274 15.000000000000004
    vertex -338.4793434377627 8.78690442573317 15.000000000000004
  endloop
endfacet
facet normal 0.0 0.0 1.0
  outer loop
    vertex -338.52172555836614 9.249482214669152 15.000000000000004
    vertex -338.4793434377627 8.78690442573317 15.000000000000004
    vertex -338.38297263263235 9.307380114466724 15.000000000000004
  endloop
endfacet
facet normal 0.0 0.0 1.0
  outer loop
    vertex -338.38297263263235 9.307380114466724 15.000000000000004
    vertex -338.4793434377627 8.78690442573317 15.000000000000004
    vertex -338.2886809765089 8.82699636889486 15.000000000000004
  endloop
endfacet
facet normal 0.0 0.0 1.0
  outer loop
    vertex -338.38297263263235 9.307380114466724 15.000000000000004
    vertex -338.2886809765089 8.82699636889486 15.000000000000004
    vertex -338.28502776294613 9.415039211126643 15.000000000000004
  endloop
endfacet
facet normal 0.0 0.0 1.0
  outer loop
    vertex -338.28502776294613 9.415039211126643 15.000000000000004
    vertex -338.2886809765089 8.82699636889486 15.000000000000004
    vertex -338.1118529859345 8.893366541434082 15.000000000000004
  endloop
endfacet
facet normal 0.0 0.0 1.0
  outer loop
    vertex -338.28502776294613 9.415039211126643 15.000000000000004
    vertex -338.1118529859345 8.893366541434082 15.000000000000004
    vertex -338.247845244601 9.583308441895873 15.000000000000004
  endloop
endfacet
facet normal 0.0 0.0 1.0
  outer loop
    vertex -338.247845244601 9.583308441895873 15.000000000000004
    vertex -338.1118529859345 8.893366541434082 15.000000000000004
    vertex -338.14711895095223 10.336659197842229 15.000000000000004
  endloop
endfacet
facet normal 0.0 0.0 1.0
  outer loop
    vertex -338.14711895095223 10.336659197842229 15.000000000000004
    vertex -338.1118529859345 8.893366541434082 15.000000000000004
    vertex -337.8946459151475 10.163491339795671 15.000000000000004
  endloop
endfacet
facet normal 0.0 0.0 1.0
  outer loop
    vertex -337.8946459151475 10.163491339795671 15.000000000000004
    vertex -338.1118529859345 8.893366541434082 15.000000000000004
    vertex -337.95679205950483 8.98556521062057 15.000000000000004
  endloop
endfacet
facet normal 0.0 0.0 1.0
  outer loop
    vertex -337.8946459151475 10.163491339795671 15.000000000000004
    vertex -337.95679205950483 8.98556521062057 15.000000000000004
    vertex -337.8268988685572 9.103813783336916 15.000000000000004
  endloop
endfacet
facet normal 0.0 0.0 1.0
  outer loop
    vertex -337.8946459151475 10.163491339795671 15.000000000000004
    vertex -337.8268988685572 9.103813783336916 15.000000000000004
    vertex -337.7922486914317 10.055437862126135 15.000000000000004
  endloop
endfacet
facet normal 0.0 0.0 1.0
  outer loop
    vertex -337.7922486914317 10.055437862126135 15.000000000000004
    vertex -337.8268988685572 9.103813783336916 15.000000000000004
    vertex -337.7255740844289 9.24833366646571 15.000000000000004
  endloop
endfacet
facet normal 0.0 0.0 1.0
  outer loop
    vertex -337.7922486914317 10.055437862126135 15.000000000000004
    vertex -337.7255740844289 9.24833366646571 15.000000000000004
    vertex -337.7102831716 9.930626651030488 15.000000000000004
  endloop
endfacet
facet normal 0.0 0.0 1.0
  outer loop
    vertex -337.7102831716 9.930626651030488 15.000000000000004
    vertex -337.7255740844289 9.24833366646571 15.000000000000004
    vertex -337.66029364889 9.419131778972035 15.000000000000004
  endloop
endfacet
facet normal 0.0 0.0 1.0
  outer loop
    vertex -337.7102831716 9.930626651030488 15.000000000000004
    vertex -337.66029364889 9.419131778972035 15.000000000000004
    vertex -337.6564709206827 9.785428709323757 15.000000000000004
  endloop
endfacet
facet normal 0.0 0.0 1.0
  outer loop
    vertex -337.6564709206827 9.785428709323757 15.000000000000004
    vertex -337.66029364889 9.419131778972035 15.000000000000004
    vertex -337.6385335037103 9.616215039820975 15.000000000000004
  endloop
endfacet
facet normal 0.0 0.0 1.0
  outer loop
    vertex -339.42870847445295 10.659480811107665 15.000000000000004
    vertex -339.4239343885471 10.965728043521631 15.000000000000004
    vertex -339.44344241059287 10.792771213910044 15.000000000000004
  endloop
endfacet
facet normal 0.0 0.0 1.0
  outer loop
    vertex -339.4239343885471 10.965728043521631 15.000000000000004
    vertex -339.42870847445295 10.659480811107665 15.000000000000004
    vertex -339.3845066660332 10.542512246931297 15.000000000000004
  endloop
endfacet
facet normal 0.0 0.0 1.0
  outer loop
    vertex -339.4239343885471 10.965728043521631 15.000000000000004
    vertex -339.3845066660332 10.542512246931297 15.000000000000004
    vertex -339.3654103224097 11.118280845109435 15.000000000000004
  endloop
endfacet
facet normal 0.0 0.0 1.0
  outer loop
    vertex -339.3654103224097 11.118280845109435 15.000000000000004
    vertex -339.3845066660332 10.542512246931297 15.000000000000004
    vertex -339.2285670310382 10.346664021349314 15.000000000000004
  endloop
endfacet
facet normal 0.0 0.0 1.0
  outer loop
    vertex -339.3654103224097 11.118280845109435 15.000000000000004
    vertex -339.2285670310382 10.346664021349314 15.000000000000004
    vertex -339.27467501433784 11.249298367882716 15.000000000000004
  endloop
endfacet
facet normal 0.0 0.0 1.0
  outer loop
    vertex -339.27467501433784 11.249298367882716 15.000000000000004
    vertex -339.2285670310382 10.346664021349314 15.000000000000004
    vertex -339.15853326648863 11.357649361050731 15.000000000000004
  endloop
endfacet
facet normal 0.0 0.0 1.0
  outer loop
    vertex -339.15853326648863 11.357649361050731 15.000000000000004
    vertex -339.2285670310382 10.346664021349314 15.000000000000004
    vertex -339.0082671828601 10.190821251865508 15.000000000000004
  endloop
endfacet
facet normal 0.0 0.0 1.0
  outer loop
    vertex -339.15853326648863 11.357649361050731 15.000000000000004
    vertex -339.0082671828601 10.190821251865508 15.000000000000004
    vertex -339.0206244544947 11.442880632400682 15.000000000000004
  endloop
endfacet
facet normal 0.0 0.0 1.0
  outer loop
    vertex -339.0206244544947 11.442880632400682 15.000000000000004
    vertex -339.0082671828601 10.190821251865508 15.000000000000004
    vertex -338.86458795398863 11.50453898971976 15.000000000000004
  endloop
endfacet
facet normal 0.0 0.0 1.0
  outer loop
    vertex -338.86458795398863 11.50453898971976 15.000000000000004
    vertex -339.0082671828601 10.190821251865508 15.000000000000004
    vertex -338.8518432203095 10.84308592797887 15.000000000000004
  endloop
endfacet
facet normal 0.0 0.0 1.0
  outer loop
    vertex -338.8518432203095 10.84308592797887 15.000000000000004
    vertex -339.0082671828601 10.190821251865508 15.000000000000004
    vertex -338.7544241919694 10.060440273879678 15.000000000000004
  endloop
endfacet
facet normal 0.0 0.0 1.0
  outer loop
    vertex -338.8518432203095 10.84308592797887 15.000000000000004
    vertex -338.7544241919694 10.060440273879678 15.000000000000004
    vertex -338.8147714054057 10.71520961535235 15.000000000000004
  endloop
endfacet
facet normal 0.0 0.0 1.0
  outer loop
    vertex -338.8147714054057 10.71520961535235 15.000000000000004
    vertex -338.7544241919694 10.060440273879678 15.000000000000004
    vertex -338.71710329432267 10.620115359279476 15.000000000000004
  endloop
endfacet
facet normal 0.0 0.0 1.0
  outer loop
    vertex -338.71710329432267 10.620115359279476 15.000000000000004
    vertex -338.7544241919694 10.060440273879678 15.000000000000004
    vertex -338.57104394146336 9.973275151789599 15.000000000000004
  endloop
endfacet
facet normal 0.0 0.0 1.0
  outer loop
    vertex -338.71710329432267 10.620115359279476 15.000000000000004
    vertex -338.57104394146336 9.973275151789599 15.000000000000004
    vertex -338.5796372960939 10.544186636480894 15.000000000000004
  endloop
endfacet
facet normal 0.0 0.0 1.0
  outer loop
    vertex -338.5796372960939 10.544186636480894 15.000000000000004
    vertex -338.57104394146336 9.973275151789599 15.000000000000004
    vertex -338.4231994956131 10.47366854437563 15.000000000000004
  endloop
endfacet
facet normal 0.0 0.0 1.0
  outer loop
    vertex -338.4231994956131 10.47366854437563 15.000000000000004
    vertex -338.57104394146336 9.973275151789599 15.000000000000004
    vertex -338.40854512757164 9.875842285519354 15.000000000000004
  endloop
endfacet
facet normal 0.0 0.0 1.0
  outer loop
    vertex -338.4231994956131 10.47366854437563 15.000000000000004
    vertex -338.40854512757164 9.875842285519354 15.000000000000004
    vertex -338.14711895095223 10.336659197842229 15.000000000000004
  endloop
endfacet
facet normal 0.0 0.0 1.0
  outer loop
    vertex -338.14711895095223 10.336659197842229 15.000000000000004
    vertex -338.40854512757164 9.875842285519354 15.000000000000004
    vertex -338.29233419007164 9.751563834734942 15.000000000000004
  endloop
endfacet
facet normal 0.0 0.0 1.0
  outer loop
    vertex -338.14711895095223 10.336659197842229 15.000000000000004
    vertex -338.29233419007164 9.751563834734942 15.000000000000004
    vertex -338.247845244601 9.583308441895873 15.000000000000004
  endloop
endfacet
facet normal 0.0 0.0 1.0
  outer loop
    vertex -338.86458795398863 11.50453898971976 15.000000000000004
    vertex -338.8191857051273 10.97370215077745 15.000000000000004
    vertex -338.5253510960686 11.554410890023403 15.000000000000004
  endloop
endfacet
facet normal 0.0 0.0 1.0
  outer loop
    vertex -338.8191857051273 10.97370215077745 15.000000000000004
    vertex -338.86458795398863 11.50453898971976 15.000000000000004
    vertex -338.8518432203095 10.84308592797887 15.000000000000004
  endloop
endfacet
facet normal 0.0 0.0 1.0
  outer loop
    vertex -338.5253510960686 11.554410890023403 15.000000000000004
    vertex -338.8191857051273 10.97370215077745 15.000000000000004
    vertex -338.7339302173996 11.057131031723808 15.000000000000004
  endloop
endfacet
facet normal 0.0 0.0 1.0
  outer loop
    vertex -338.5253510960686 11.554410890023403 15.000000000000004
    vertex -338.7339302173996 11.057131031723808 15.000000000000004
    vertex -338.61513158695925 11.100665160013282 15.000000000000004
  endloop
endfacet
facet normal 0.0 0.0 1.0
  outer loop
    vertex -338.5253510960686 11.554410890023403 15.000000000000004
    vertex -338.61513158695925 11.100665160013282 15.000000000000004
    vertex -338.4818169677791 11.113368379901946 15.000000000000004
  endloop
endfacet
facet normal 0.0 0.0 1.0
  outer loop
    vertex -338.5253510960686 11.554410890023403 15.000000000000004
    vertex -338.4818169677791 11.113368379901946 15.000000000000004
    vertex -338.31631878252483 11.537850347102099 15.000000000000004
  endloop
endfacet
facet normal 0.0 0.0 1.0
  outer loop
    vertex -338.31631878252483 11.537850347102099 15.000000000000004
    vertex -338.4818169677791 11.113368379901946 15.000000000000004
    vertex -338.3793470949299 11.104304535645873 15.000000000000004
  endloop
endfacet
facet normal 0.0 0.0 1.0
  outer loop
    vertex -338.31631878252483 11.537850347102099 15.000000000000004
    vertex -338.3793470949299 11.104304535645873 15.000000000000004
    vertex -338.2696123087457 11.075286396096278 15.000000000000004
  endloop
endfacet
facet normal 0.0 0.0 1.0
  outer loop
    vertex -338.31631878252483 11.537850347102099 15.000000000000004
    vertex -338.2696123087457 11.075286396096278 15.000000000000004
    vertex -338.11725669766275 11.48816871833818 15.000000000000004
  endloop
endfacet
facet normal 0.0 0.0 1.0
  outer loop
    vertex -338.11725669766275 11.48816871833818 15.000000000000004
    vertex -338.2696123087457 11.075286396096278 15.000000000000004
    vertex -338.14354876497043 11.021775120160044 15.000000000000004
  endloop
endfacet
facet normal 0.0 0.0 1.0
  outer loop
    vertex -338.11725669766275 11.48816871833818 15.000000000000004
    vertex -338.14354876497043 11.021775120160044 15.000000000000004
    vertex -337.99209261934794 10.939231866744052 15.000000000000004
  endloop
endfacet
facet normal 0.0 0.0 1.0
  outer loop
    vertex -338.11725669766275 11.48816871833818 15.000000000000004
    vertex -337.99209261934794 10.939231866744052 15.000000000000004
    vertex -337.92091376607743 11.404452700340965 15.000000000000004
  endloop
endfacet
facet normal 0.0 0.0 1.0
  outer loop
    vertex -337.92091376607743 11.404452700340965 15.000000000000004
    vertex -337.99209261934794 10.939231866744052 15.000000000000004
    vertex -337.72003891236415 11.285788989719759 15.000000000000004
  endloop
endfacet
endsolid RMP_Front
