solid RMP_Front
facet normal -1.0 0.0 0.0
  outer loop
    vertex -346.5916147329581 15.599999999999866 8.000000000000004
    vertex -346.5916147329581 4.3999999999998645 0.0
    vertex -346.5916147329581 4.3999999999998645 8.000000000000004
  endloop
endfacet
facet normal -1.0 0.0 0.0
  outer loop
    vertex -346.5916147329581 4.3999999999998645 0.0
    vertex -346.5916147329581 15.599999999999866 8.000000000000004
    vertex -346.5916147329581 15.599999999999866 0.0
  endloop
endfacet
facet normal 1.0 0.0 0.0
  outer loop
    vertex -332.79161473295807 15.599999999999866 0.0
    vertex -332.79161473295807 4.3999999999998645 8.000000000000004
    vertex -332.79161473295807 4.3999999999998645 0.0
  endloop
endfacet
facet normal 1.0 0.0 0.0
  outer loop
    vertex -332.79161473295807 4.3999999999998645 8.000000000000004
    vertex -332.79161473295807 15.599999999999866 0.0
    vertex -332.79161473295807 15.599999999999866 8.000000000000004
  endloop
endfacet
facet normal 1.0 0.0 0.0
  outer loop
    vertex -333.54161473295807 15.349999999999868 8.000000000000004
    vertex -333.54161473295807 4.649999999999864 15.000000000000004
    vertex -333.54161473295807 4.649999999999864 8.000000000000004
  endloop
endfacet
facet normal 1.0 0.0 0.0
  outer loop
    vertex -333.54161473295807 4.649999999999864 15.000000000000004
    vertex -333.54161473295807 15.349999999999868 8.000000000000004
    vertex -333.54161473295807 15.349999999999868 15.000000000000004
  endloop
endfacet
facet normal -1.0 0.0 0.0
  outer loop
    vertex -345.8416147329581 15.349999999999868 15.000000000000004
    vertex -345.8416147329581 4.649999999999864 8.000000000000004
    vertex -345.8416147329581 4.649999999999864 15.000000000000004
  endloop
endfacet
facet normal -1.0 0.0 0.0
  outer loop
    vertex -345.8416147329581 4.649999999999864 8.000000000000004
    vertex -345.8416147329581 15.349999999999868 15.000000000000004
    vertex -345.8416147329581 15.349999999999868 8.000000000000004
  endloop
endfacet
facet normal 0.0 -1.0 0.0
  outer loop
    vertex -332.79161473295807 4.3999999999998645 8.000000000000004
    vertex -346.5916147329581 4.3999999999998645 0.0
    vertex -332.79161473295807 4.3999999999998645 0.0
  endloop
endfacet
facet normal 0.0 -1.0 0.0
  outer loop
    vertex -346.5916147329581 4.3999999999998645 0.0
    vertex -332.79161473295807 4.3999999999998645 8.000000000000004
    vertex -346.5916147329581 4.3999999999998645 8.000000000000004
  endloop
endfacet
facet normal 0.0 0.0 -1.0
  outer loop
    vertex -346.5916147329581 15.599999999999866 0.0
    vertex -345.0916147329581 14.599999999999858 0.0
    vertex -346.5916147329581 4.3999999999998645 0.0
  endloop
endfacet
facet normal 0.0 0.0 -1.0
  outer loop
    vertex -345.0916147329581 14.599999999999858 0.0
    vertex -346.5916147329581 15.599999999999866 0.0
    vertex -332.79161473295807 15.599999999999866 0.0
  endloop
endfacet
facet normal 0.0 0.0 -1.0
  outer loop
    vertex -345.0916147329581 14.599999999999858 0.0
    vertex -332.79161473295807 15.599999999999866 0.0
    vertex -334.2916147329581 14.599999999999858 0.0
  endloop
endfacet
facet normal 0.0 0.0 -1.0
  outer loop
    vertex -334.2916147329581 14.599999999999858 0.0
    vertex -332.79161473295807 15.599999999999866 0.0
    vertex -334.2916147329581 5.399999999999863 0.0
  endloop
endfacet
facet normal 0.0 0.0 -1.0
  outer loop
    vertex -346.5916147329581 4.3999999999998645 0.0
    vertex -345.0916147329581 5.399999999999863 0.0
    vertex -332.79161473295807 4.3999999999998645 0.0
  endloop
endfacet
facet normal 0.0 0.0 -1.0
  outer loop
    vertex -345.0916147329581 5.399999999999863 0.0
    vertex -346.5916147329581 4.3999999999998645 0.0
    vertex -345.0916147329581 14.599999999999858 0.0
  endloop
endfacet
facet normal 0.0 0.0 -1.0
  outer loop
    vertex -332.79161473295807 4.3999999999998645 0.0
    vertex -345.0916147329581 5.399999999999863 0.0
    vertex -334.2916147329581 5.399999999999863 0.0
  endloop
endfacet
facet normal 0.0 0.0 -1.0
  outer loop
    vertex -332.79161473295807 4.3999999999998645 0.0
    vertex -334.2916147329581 5.399999999999863 0.0
    vertex -332.79161473295807 15.599999999999866 0.0
  endloop
endfacet
facet normal 0.0 0.0 1.0
  outer loop
    vertex -340.02264281545115 9.216354209861459 15.000000000000004
    vertex -341.2607501029006 9.455778077523403 15.000000000000004
    vertex -341.2752522537103 9.216354209861459 15.000000000000004
  endloop
endfacet
facet normal 0.0 0.0 1.0
  outer loop
    vertex -339.4848454976374 9.023757897867505 15.000000000000004
    vertex -339.42870847445295 10.659480811107672 15.000000000000004
    vertex -339.44344241059287 10.792771213910047 15.000000000000004
  endloop
endfacet
facet normal 0.0 0.0 1.0
  outer loop
    vertex -339.42870847445295 10.659480811107672 15.000000000000004
    vertex -339.4848454976374 9.023757897867505 15.000000000000004
    vertex -339.2345450168683 9.435463996045735 15.000000000000004
  endloop
endfacet
facet normal 0.0 0.0 1.0
  outer loop
    vertex -339.42870847445295 10.659480811107672 15.000000000000004
    vertex -339.2345450168683 9.435463996045735 15.000000000000004
    vertex -339.3845066660332 10.54251224693129 15.000000000000004
  endloop
endfacet
facet normal 0.0 0.0 1.0
  outer loop
    vertex -339.3845066660332 10.54251224693129 15.000000000000004
    vertex -339.2345450168683 9.435463996045735 15.000000000000004
    vertex -339.2285670310382 10.346664021349328 15.000000000000004
  endloop
endfacet
facet normal 0.0 0.0 1.0
  outer loop
    vertex -339.2285670310382 10.346664021349328 15.000000000000004
    vertex -339.2345450168683 9.435463996045735 15.000000000000004
    vertex -339.11844478280966 9.366523427978963 15.000000000000004
  endloop
endfacet
facet normal 0.0 0.0 1.0
  outer loop
    vertex -339.2285670310382 10.346664021349328 15.000000000000004
    vertex -339.11844478280966 9.366523427978963 15.000000000000004
    vertex -339.00826718286015 10.19082125186551 15.000000000000004
  endloop
endfacet
facet normal 0.0 0.0 1.0
  outer loop
    vertex -339.00826718286015 10.19082125186551 15.000000000000004
    vertex -339.11844478280966 9.366523427978963 15.000000000000004
    vertex -338.9760663193734 9.30032277008418 15.000000000000004
  endloop
endfacet
facet normal 0.0 0.0 1.0
  outer loop
    vertex -339.00826718286015 10.19082125186551 15.000000000000004
    vertex -338.9760663193734 9.30032277008418 15.000000000000004
    vertex -338.7544241919695 10.060440273879736 15.000000000000007
  endloop
endfacet
facet normal 0.0 0.0 1.0
  outer loop
    vertex -338.7544241919695 10.060440273879736 15.000000000000007
    vertex -338.9760663193734 9.30032277008418 15.000000000000004
    vertex -338.82462401168107 9.251350335241034 15.000000000000004
  endloop
endfacet
facet normal 0.0 0.0 1.0
  outer loop
    vertex -338.7544241919695 10.060440273879736 15.000000000000007
    vertex -338.82462401168107 9.251350335241034 15.000000000000004
    vertex -338.6795333139331 9.232295505408 15.000000000000004
  endloop
endfacet
facet normal 0.0 0.0 1.0
  outer loop
    vertex -338.7544241919695 10.060440273879736 15.000000000000007
    vertex -338.6795333139331 9.232295505408 15.000000000000004
    vertex -338.57104394146336 9.973275151789572 15.000000000000004
  endloop
endfacet
facet normal 0.0 0.0 1.0
  outer loop
    vertex -338.57104394146336 9.973275151789572 15.000000000000004
    vertex -338.6795333139331 9.232295505408 15.000000000000004
    vertex -338.5217255583663 9.249482214669136 15.000000000000004
  endloop
endfacet
facet normal 0.0 0.0 1.0
  outer loop
    vertex -338.57104394146336 9.973275151789572 15.000000000000004
    vertex -338.5217255583663 9.249482214669136 15.000000000000004
    vertex -338.4085451275717 9.875842285519356 15.000000000000004
  endloop
endfacet
facet normal 0.0 0.0 1.0
  outer loop
    vertex -338.4085451275717 9.875842285519356 15.000000000000004
    vertex -338.5217255583663 9.249482214669136 15.000000000000004
    vertex -338.3829726326324 9.307380114466751 15.000000000000004
  endloop
endfacet
facet normal 0.0 0.0 1.0
  outer loop
    vertex -338.4085451275717 9.875842285519356 15.000000000000004
    vertex -338.3829726326324 9.307380114466751 15.000000000000004
    vertex -338.29233419007164 9.751563834734927 15.000000000000004
  endloop
endfacet
facet normal 0.0 0.0 1.0
  outer loop
    vertex -338.29233419007164 9.751563834734927 15.000000000000004
    vertex -338.3829726326324 9.307380114466751 15.000000000000004
    vertex -338.2850277629462 9.41503921112665 15.000000000000004
  endloop
endfacet
facet normal 0.0 0.0 1.0
  outer loop
    vertex -338.29233419007164 9.751563834734927 15.000000000000004
    vertex -338.2850277629462 9.41503921112665 15.000000000000004
    vertex -338.247845244601 9.583308441895882 15.000000000000004
  endloop
endfacet
facet normal 0.0 0.0 1.0
  outer loop
    vertex -338.8147714054056 10.715209615352334 15.000000000000004
    vertex -338.8191857051273 10.973702150777457 15.000000000000004
    vertex -338.8518432203095 10.843085927978871 15.000000000000004
  endloop
endfacet
facet normal 0.0 0.0 1.0
  outer loop
    vertex -338.8191857051273 10.973702150777457 15.000000000000004
    vertex -338.8147714054056 10.715209615352334 15.000000000000004
    vertex -338.73393021739963 11.057131031723765 15.000000000000004
  endloop
endfacet
facet normal 0.0 0.0 1.0
  outer loop
    vertex -338.73393021739963 11.057131031723765 15.000000000000004
    vertex -338.8147714054056 10.715209615352334 15.000000000000004
    vertex -338.71710329432267 10.62011535927948 15.000000000000004
  endloop
endfacet
facet normal 0.0 0.0 1.0
  outer loop
    vertex -338.73393021739963 11.057131031723765 15.000000000000004
    vertex -338.71710329432267 10.62011535927948 15.000000000000004
    vertex -338.6151315869594 11.100665160013268 15.000000000000004
  endloop
endfacet
facet normal 0.0 0.0 1.0
  outer loop
    vertex -338.6151315869594 11.100665160013268 15.000000000000004
    vertex -338.71710329432267 10.62011535927948 15.000000000000004
    vertex -338.5796372960939 10.54418663648087 15.000000000000004
  endloop
endfacet
facet normal 0.0 0.0 1.0
  outer loop
    vertex -338.6151315869594 11.100665160013268 15.000000000000004
    vertex -338.5796372960939 10.54418663648087 15.000000000000004
    vertex -338.4818169677792 11.113368379901935 15.000000000000004
  endloop
endfacet
facet normal 0.0 0.0 1.0
  outer loop
    vertex -338.4818169677792 11.113368379901935 15.000000000000004
    vertex -338.5796372960939 10.54418663648087 15.000000000000004
    vertex -338.4231994956133 10.47366854437573 15.000000000000004
  endloop
endfacet
facet normal 0.0 0.0 1.0
  outer loop
    vertex -338.4818169677792 11.113368379901935 15.000000000000004
    vertex -338.4231994956133 10.47366854437573 15.000000000000004
    vertex -338.3793470949301 11.104304535645914 15.000000000000004
  endloop
endfacet
facet normal 0.0 0.0 1.0
  outer loop
    vertex -338.3793470949301 11.104304535645914 15.000000000000004
    vertex -338.4231994956133 10.47366854437573 15.000000000000004
    vertex -338.1471189509523 10.336659197842328 15.000000000000004
  endloop
endfacet
facet normal 0.0 0.0 1.0
  outer loop
    vertex -338.3793470949301 11.104304535645914 15.000000000000004
    vertex -338.1471189509523 10.336659197842328 15.000000000000004
    vertex -338.2696123087459 11.075286396096336 15.000000000000004
  endloop
endfacet
facet normal 0.0 0.0 1.0
  outer loop
    vertex -338.2696123087459 11.075286396096336 15.000000000000004
    vertex -338.1471189509523 10.336659197842328 15.000000000000004
    vertex -338.1435487649705 11.021775120160092 15.000000000000004
  endloop
endfacet
facet normal 0.0 0.0 1.0
  outer loop
    vertex -338.1435487649705 11.021775120160092 15.000000000000004
    vertex -338.1471189509523 10.336659197842328 15.000000000000004
    vertex -337.8946459151476 10.163491339795646 15.000000000000004
  endloop
endfacet
facet normal 0.0 0.0 1.0
  outer loop
    vertex -338.1435487649705 11.021775120160092 15.000000000000004
    vertex -337.8946459151476 10.163491339795646 15.000000000000004
    vertex -337.9920926193481 10.939231866744155 15.000000000000004
  endloop
endfacet
facet normal 0.0 0.0 1.0
  outer loop
    vertex -337.9920926193481 10.939231866744155 15.000000000000004
    vertex -337.8946459151476 10.163491339795646 15.000000000000004
    vertex -337.7200389123641 11.285788989719721 15.000000000000004
  endloop
endfacet
facet normal 0.0 0.0 1.0
  outer loop
    vertex -337.7200389123641 11.285788989719721 15.000000000000004
    vertex -337.8946459151476 10.163491339795646 15.000000000000004
    vertex -337.7922486914317 10.05543786212614 15.000000000000004
  endloop
endfacet
facet normal 0.0 0.0 1.0
  outer loop
    vertex -337.7200389123641 11.285788989719721 15.000000000000004
    vertex -337.7922486914317 10.05543786212614 15.000000000000004
    vertex -337.7102831716 9.930626651030474 15.000000000000004
  endloop
endfacet
facet normal 0.0 0.0 1.0
  outer loop
    vertex -345.8416147329581 4.649999999999864 15.000000000000004
    vertex -341.93302442602817 8.80365178071167 15.000000000000004
    vertex -345.8416147329581 15.349999999999868 15.000000000000004
  endloop
endfacet
facet normal 0.0 0.0 1.0
  outer loop
    vertex -341.93302442602817 8.80365178071167 15.000000000000004
    vertex -345.8416147329581 4.649999999999864 15.000000000000004
    vertex -333.54161473295807 4.649999999999864 15.000000000000004
  endloop
endfacet
facet normal 0.0 0.0 1.0
  outer loop
    vertex -345.8416147329581 15.349999999999868 15.000000000000004
    vertex -341.93302442602817 8.80365178071167 15.000000000000004
    vertex -341.9529787213217 11.523469278181299 15.000000000000004
  endloop
endfacet
facet normal 0.0 0.0 1.0
  outer loop
    vertex -341.93302442602817 8.80365178071167 15.000000000000004
    vertex -333.54161473295807 4.649999999999864 15.000000000000004
    vertex -340.0716290882245 8.803651780711665 15.000000000000004
  endloop
endfacet
facet normal 0.0 0.0 1.0
  outer loop
    vertex -340.0716290882245 8.803651780711665 15.000000000000004
    vertex -333.54161473295807 4.649999999999864 15.000000000000004
    vertex -340.02264281545115 9.216354209861459 15.000000000000004
  endloop
endfacet
facet normal 0.0 0.0 1.0
  outer loop
    vertex -340.02264281545115 9.216354209861459 15.000000000000004
    vertex -333.54161473295807 4.649999999999864 15.000000000000004
    vertex -339.4848454976374 9.023757897867505 15.000000000000004
  endloop
endfacet
facet normal 0.0 0.0 1.0
  outer loop
    vertex -339.4848454976374 9.023757897867505 15.000000000000004
    vertex -333.54161473295807 4.649999999999864 15.000000000000004
    vertex -339.0975910220556 8.837914495792694 15.000000000000004
  endloop
endfacet
facet normal 0.0 0.0 1.0
  outer loop
    vertex -339.0975910220556 8.837914495792694 15.000000000000004
    vertex -333.54161473295807 4.649999999999864 15.000000000000004
    vertex -338.8955883770341 8.789633957457657 15.000000000000004
  endloop
endfacet
facet normal 0.0 0.0 1.0
  outer loop
    vertex -338.8955883770341 8.789633957457657 15.000000000000004
    vertex -333.54161473295807 4.649999999999864 15.000000000000004
    vertex -338.6759077762306 8.773540444679272 15.000000000000004
  endloop
endfacet
facet normal 0.0 0.0 1.0
  outer loop
    vertex -338.6759077762306 8.773540444679272 15.000000000000004
    vertex -333.54161473295807 4.649999999999864 15.000000000000004
    vertex -338.47934343776274 8.78690442573315 15.000000000000004
  endloop
endfacet
facet normal 0.0 0.0 1.0
  outer loop
    vertex -338.47934343776274 8.78690442573315 15.000000000000004
    vertex -333.54161473295807 4.649999999999864 15.000000000000004
    vertex -338.28868097650894 8.826996368894843 15.0
  endloop
endfacet
facet normal 0.0 0.0 1.0
  outer loop
    vertex -338.28868097650894 8.826996368894843 15.0
    vertex -333.54161473295807 4.649999999999864 15.000000000000004
    vertex -338.1118529859345 8.893366541434082 15.0
  endloop
endfacet
facet normal 0.0 0.0 1.0
  outer loop
    vertex -338.1118529859345 8.893366541434082 15.0
    vertex -333.54161473295807 4.649999999999864 15.000000000000004
    vertex -337.9567920595048 8.985565210620639 15.000000000000004
  endloop
endfacet
facet normal 0.0 0.0 1.0
  outer loop
    vertex -337.9567920595048 8.985565210620639 15.000000000000004
    vertex -333.54161473295807 4.649999999999864 15.000000000000004
    vertex -337.8268988685571 9.103813783336891 15.000000000000004
  endloop
endfacet
facet normal 0.0 0.0 1.0
  outer loop
    vertex -337.8268988685571 9.103813783336891 15.000000000000004
    vertex -333.54161473295807 4.649999999999864 15.000000000000004
    vertex -337.7255740844289 9.24833366646568 15.000000000000004
  endloop
endfacet
facet normal 0.0 0.0 1.0
  outer loop
    vertex -337.7255740844289 9.24833366646568 15.000000000000004
    vertex -333.54161473295807 4.649999999999864 15.000000000000004
    vertex -337.66029364889005 9.419131778972048 15.000000000000004
  endloop
endfacet
facet normal 0.0 0.0 1.0
  outer loop
    vertex -337.66029364889005 9.419131778972048 15.000000000000004
    vertex -333.54161473295807 4.649999999999864 15.000000000000004
    vertex -337.6385335037103 9.616215039820977 15.000000000000004
  endloop
endfacet
facet normal 0.0 0.0 1.0
  outer loop
    vertex -341.9529787213217 11.523469278181299 15.000000000000004
    vertex -333.54161473295807 15.349999999999868 15.000000000000004
    vertex -345.8416147329581 15.349999999999868 15.000000000000004
  endloop
endfacet
facet normal 0.0 0.0 1.0
  outer loop
    vertex -333.54161473295807 15.349999999999868 15.000000000000004
    vertex -341.9529787213217 11.523469278181299 15.000000000000004
    vertex -341.26075010290066 11.559724655205589 15.000000000000004
  endloop
endfacet
facet normal 0.0 0.0 1.0
  outer loop
    vertex -333.54161473295807 15.349999999999868 15.000000000000004
    vertex -341.26075010290066 11.559724655205589 15.000000000000004
    vertex -339.15853326648875 11.357649361050669 15.000000000000004
  endloop
endfacet
facet normal 0.0 0.0 1.0
  outer loop
    vertex -339.15853326648875 11.357649361050669 15.000000000000004
    vertex -341.26075010290066 11.559724655205589 15.000000000000004
    vertex -341.2607501029006 9.455778077523403 15.000000000000004
  endloop
endfacet
facet normal 0.0 0.0 1.0
  outer loop
    vertex -339.15853326648875 11.357649361050669 15.000000000000004
    vertex -341.2607501029006 9.455778077523403 15.000000000000004
    vertex -339.27467501433784 11.24929836788272 15.000000000000004
  endloop
endfacet
facet normal 0.0 0.0 1.0
  outer loop
    vertex -339.27467501433784 11.24929836788272 15.000000000000004
    vertex -341.2607501029006 9.455778077523403 15.000000000000004
    vertex -339.3654103224097 11.118280845109442 15.000000000000004
  endloop
endfacet
facet normal 0.0 0.0 1.0
  outer loop
    vertex -339.3654103224097 11.118280845109442 15.000000000000004
    vertex -341.2607501029006 9.455778077523403 15.000000000000004
    vertex -339.4239343885471 10.965728043521638 15.000000000000004
  endloop
endfacet
facet normal 0.0 0.0 1.0
  outer loop
    vertex -339.4239343885471 10.965728043521638 15.000000000000004
    vertex -341.2607501029006 9.455778077523403 15.000000000000004
    vertex -340.02264281545115 9.216354209861459 15.000000000000004
  endloop
endfacet
facet normal 0.0 0.0 1.0
  outer loop
    vertex -339.4239343885471 10.965728043521638 15.000000000000004
    vertex -340.02264281545115 9.216354209861459 15.000000000000004
    vertex -339.44344241059287 10.792771213910047 15.000000000000004
  endloop
endfacet
facet normal 0.0 0.0 1.0
  outer loop
    vertex -339.44344241059287 10.792771213910047 15.000000000000004
    vertex -340.02264281545115 9.216354209861459 15.000000000000004
    vertex -339.4848454976374 9.023757897867505 15.000000000000004
  endloop
endfacet
facet normal 0.0 0.0 1.0
  outer loop
    vertex -333.54161473295807 15.349999999999868 15.000000000000004
    vertex -339.15853326648875 11.357649361050669 15.000000000000004
    vertex -339.02062445449485 11.442880632400593 15.000000000000004
  endloop
endfacet
facet normal 0.0 0.0 1.0
  outer loop
    vertex -333.54161473295807 15.349999999999868 15.000000000000004
    vertex -339.02062445449485 11.442880632400593 15.000000000000004
    vertex -338.8645879539887 11.504538989719732 15.000000000000004
  endloop
endfacet
facet normal 0.0 0.0 1.0
  outer loop
    vertex -333.54161473295807 15.349999999999868 15.000000000000004
    vertex -338.8645879539887 11.504538989719732 15.000000000000004
    vertex -338.52535109606856 11.554410890023414 15.000000000000004
  endloop
endfacet
facet normal 0.0 0.0 1.0
  outer loop
    vertex -333.54161473295807 15.349999999999868 15.000000000000004
    vertex -338.52535109606856 11.554410890023414 15.000000000000004
    vertex -338.3163187825249 11.537850347102108 15.000000000000004
  endloop
endfacet
facet normal 0.0 0.0 1.0
  outer loop
    vertex -333.54161473295807 15.349999999999868 15.000000000000004
    vertex -338.3163187825249 11.537850347102108 15.000000000000004
    vertex -338.1172566976628 11.488168718338198 15.000000000000004
  endloop
endfacet
facet normal 0.0 0.0 1.0
  outer loop
    vertex -333.54161473295807 15.349999999999868 15.000000000000004
    vertex -338.1172566976628 11.488168718338198 15.000000000000004
    vertex -337.9209137660775 11.40445270034097 15.000000000000004
  endloop
endfacet
facet normal 0.0 0.0 1.0
  outer loop
    vertex -333.54161473295807 15.349999999999868 15.000000000000004
    vertex -337.9209137660775 11.40445270034097 15.000000000000004
    vertex -337.7200389123641 11.285788989719721 15.000000000000004
  endloop
endfacet
facet normal 0.0 0.0 1.0
  outer loop
    vertex -333.54161473295807 15.349999999999868 15.000000000000004
    vertex -337.7200389123641 11.285788989719721 15.000000000000004
    vertex -337.7102831716 9.930626651030474 15.000000000000004
  endloop
endfacet
facet normal 0.0 0.0 1.0
  outer loop
    vertex -333.54161473295807 15.349999999999868 15.000000000000004
    vertex -337.7102831716 9.930626651030474 15.000000000000004
    vertex -337.6564709206827 9.785428709323764 15.000000000000004
  endloop
endfacet
facet normal 0.0 0.0 1.0
  outer loop
    vertex -333.54161473295807 15.349999999999868 15.000000000000004
    vertex -337.6564709206827 9.785428709323764 15.000000000000004
    vertex -337.6385335037103 9.616215039820977 15.000000000000004
  endloop
endfacet
facet normal 0.0 0.0 1.0
  outer loop
    vertex -333.54161473295807 15.349999999999868 15.000000000000004
    vertex -337.6385335037103 9.616215039820977 15.000000000000004
    vertex -333.54161473295807 4.649999999999864 15.000000000000004
  endloop
endfacet
facet normal 0.0 0.0 1.0
  outer loop
    vertex -341.93302442602817 8.80365178071167 15.000000000000004
    vertex -341.89131690452007 11.093718519071984 15.000000000000004
    vertex -341.9529787213217 11.523469278181299 15.000000000000004
  endloop
endfacet
facet normal 0.0 0.0 1.0
  outer loop
    vertex -341.89131690452007 11.093718519071984 15.000000000000004
    vertex -341.93302442602817 8.80365178071167 15.000000000000004
    vertex -341.89131690451995 9.22432485763474 15.000000000000004
  endloop
endfacet
facet normal 0.0 1.0 0.0
  outer loop
    vertex -346.5916147329581 15.599999999999866 8.000000000000004
    vertex -332.79161473295807 15.599999999999866 0.0
    vertex -346.5916147329581 15.599999999999866 0.0
  endloop
endfacet
facet normal 0.0 1.0 0.0
  outer loop
    vertex -332.79161473295807 15.599999999999866 0.0
    vertex -346.5916147329581 15.599999999999866 8.000000000000004
    vertex -332.79161473295807 15.599999999999866 8.000000000000004
  endloop
endfacet
facet normal -1.0 0.0 0.0
  outer loop
    vertex -334.2916147329581 14.599999999999858 4.999999999999994
    vertex -334.2916147329581 5.399999999999863 0.0
    vertex -334.2916147329581 5.399999999999863 4.999999999999994
  endloop
endfacet
facet normal -1.0 0.0 0.0
  outer loop
    vertex -334.2916147329581 5.399999999999863 0.0
    vertex -334.2916147329581 14.599999999999858 4.999999999999994
    vertex -334.2916147329581 14.599999999999858 0.0
  endloop
endfacet
facet normal 0.0 1.0 0.0
  outer loop
    vertex -345.0916147329581 5.399999999999863 4.999999999999994
    vertex -334.2916147329581 5.399999999999863 0.0
    vertex -345.0916147329581 5.399999999999863 0.0
  endloop
endfacet
facet normal 0.0 1.0 0.0
  outer loop
    vertex -334.2916147329581 5.399999999999863 0.0
    vertex -345.0916147329581 5.399999999999863 4.999999999999994
    vertex -334.2916147329581 5.399999999999863 4.999999999999994
  endloop
endfacet
facet normal 1.0 0.0 0.0
  outer loop
    vertex -345.0916147329581 14.599999999999858 0.0
    vertex -345.0916147329581 5.399999999999863 4.999999999999994
    vertex -345.0916147329581 5.399999999999863 0.0
  endloop
endfacet
facet normal 1.0 0.0 0.0
  outer loop
    vertex -345.0916147329581 5.399999999999863 4.999999999999994
    vertex -345.0916147329581 14.599999999999858 0.0
    vertex -345.0916147329581 14.599999999999858 4.999999999999994
  endloop
endfacet
facet normal 0.0 -1.0 0.0
  outer loop
    vertex -334.2916147329581 14.599999999999858 4.999999999999994
    vertex -345.0916147329581 14.599999999999858 0.0
    vertex -334.2916147329581 14.599999999999858 0.0
  endloop
endfacet
facet normal 0.0 -1.0 0.0
  outer loop
    vertex -345.0916147329581 14.599999999999858 0.0
    vertex -334.2916147329581 14.599999999999858 4.999999999999994
    vertex -345.0916147329581 14.599999999999858 4.999999999999994
  endloop
endfacet
facet normal 0.0 -1.0 0.0
  outer loop
    vertex -333.54161473295807 4.649999999999864 15.000000000000004
    vertex -345.8416147329581 4.649999999999864 8.000000000000004
    vertex -333.54161473295807 4.649999999999864 8.000000000000004
  endloop
endfacet
facet normal 0.0 -1.0 0.0
  outer loop
    vertex -345.8416147329581 4.649999999999864 8.000000000000004
    vertex -333.54161473295807 4.649999999999864 15.000000000000004
    vertex -345.8416147329581 4.649999999999864 15.000000000000004
  endloop
endfacet
facet normal 0.0 0.0 1.0
  outer loop
    vertex -346.5916147329581 4.3999999999998645 8.000000000000004
    vertex -345.8416147329581 4.649999999999864 8.000000000000004
    vertex -346.5916147329581 15.599999999999866 8.000000000000004
  endloop
endfacet
facet normal 0.0 0.0 1.0
  outer loop
    vertex -345.8416147329581 4.649999999999864 8.000000000000004
    vertex -346.5916147329581 4.3999999999998645 8.000000000000004
    vertex -332.79161473295807 4.3999999999998645 8.000000000000004
  endloop
endfacet
facet normal 0.0 0.0 1.0
  outer loop
    vertex -345.8416147329581 4.649999999999864 8.000000000000004
    vertex -332.79161473295807 4.3999999999998645 8.000000000000004
    vertex -333.54161473295807 4.649999999999864 8.000000000000004
  endloop
endfacet
facet normal 0.0 0.0 1.0
  outer loop
    vertex -333.54161473295807 4.649999999999864 8.000000000000004
    vertex -332.79161473295807 4.3999999999998645 8.000000000000004
    vertex -333.54161473295807 15.349999999999868 8.000000000000004
  endloop
endfacet
facet normal 0.0 0.0 1.0
  outer loop
    vertex -346.5916147329581 15.599999999999866 8.000000000000004
    vertex -345.8416147329581 15.349999999999868 8.000000000000004
    vertex -332.79161473295807 15.599999999999866 8.000000000000004
  endloop
endfacet
facet normal 0.0 0.0 1.0
  outer loop
    vertex -345.8416147329581 15.349999999999868 8.000000000000004
    vertex -346.5916147329581 15.599999999999866 8.000000000000004
    vertex -345.8416147329581 4.649999999999864 8.000000000000004
  endloop
endfacet
facet normal 0.0 0.0 1.0
  outer loop
    vertex -332.79161473295807 15.599999999999866 8.000000000000004
    vertex -345.8416147329581 15.349999999999868 8.000000000000004
    vertex -333.54161473295807 15.349999999999868 8.000000000000004
  endloop
endfacet
facet normal 0.0 0.0 1.0
  outer loop
    vertex -332.79161473295807 15.599999999999866 8.000000000000004
    vertex -333.54161473295807 15.349999999999868 8.000000000000004
    vertex -332.79161473295807 4.3999999999998645 8.000000000000004
  endloop
endfacet
facet normal 0.0 1.0 0.0
  outer loop
    vertex -345.8416147329581 15.349999999999868 15.000000000000004
    vertex -333.54161473295807 15.349999999999868 8.000000000000004
    vertex -345.8416147329581 15.349999999999868 8.000000000000004
  endloop
endfacet
facet normal 0.0 1.0 0.0
  outer loop
    vertex -333.54161473295807 15.349999999999868 8.000000000000004
    vertex -345.8416147329581 15.349999999999868 15.000000000000004
    vertex -333.54161473295807 15.349999999999868 15.000000000000004
  endloop
endfacet
facet normal -1.0 0.0 0.0
  outer loop
    vertex -334.2916147329581 14.599999999999858 14.44
    vertex -334.2916147329581 5.399999999999863 4.999999999999994
    vertex -334.2916147329581 5.399999999999863 14.44
  endloop
endfacet
facet normal -1.0 0.0 0.0
  outer loop
    vertex -334.2916147329581 5.399999999999863 4.999999999999994
    vertex -334.2916147329581 14.599999999999858 14.44
    vertex -334.2916147329581 14.599999999999858 4.999999999999994
  endloop
endfacet
facet normal 1.0 0.0 0.0
  outer loop
    vertex -345.0916147329581 14.599999999999858 4.999999999999994
    vertex -345.0916147329581 5.399999999999863 14.44
    vertex -345.0916147329581 5.399999999999863 4.999999999999994
  endloop
endfacet
facet normal 1.0 0.0 0.0
  outer loop
    vertex -345.0916147329581 5.399999999999863 14.44
    vertex -345.0916147329581 14.599999999999858 4.999999999999994
    vertex -345.0916147329581 14.599999999999858 14.44
  endloop
endfacet
facet normal 0.0 0.0 -1.0
  outer loop
    vertex -340.02264281545115 9.216354209861462 14.44
    vertex -341.27525225371033 9.216354209861462 14.44
    vertex -341.26075010290066 9.455778077523403 14.44
  endloop
endfacet
facet normal 0.0 0.0 -1.0
  outer loop
    vertex -341.89131690452 11.093718519071984 14.44
    vertex -341.93302442602817 8.803651780711665 14.44
    vertex -341.9529787213218 11.523469278181285 14.44
  endloop
endfacet
facet normal 0.0 0.0 -1.0
  outer loop
    vertex -341.93302442602817 8.803651780711665 14.44
    vertex -341.89131690452 11.093718519071984 14.44
    vertex -341.89131690451995 9.22432485763474 14.44
  endloop
endfacet
facet normal 0.0 0.0 -1.0
  outer loop
    vertex -345.0916147329581 14.599999999999858 14.44
    vertex -341.9529787213218 11.523469278181285 14.44
    vertex -345.0916147329581 5.399999999999863 14.44
  endloop
endfacet
facet normal 0.0 0.0 -1.0
  outer loop
    vertex -341.9529787213218 11.523469278181285 14.44
    vertex -345.0916147329581 14.599999999999858 14.44
    vertex -334.2916147329581 14.599999999999858 14.44
  endloop
endfacet
facet normal 0.0 0.0 -1.0
  outer loop
    vertex -341.9529787213218 11.523469278181285 14.44
    vertex -334.2916147329581 14.599999999999858 14.44
    vertex -341.2607501029009 11.559724655205573 14.44
  endloop
endfacet
facet normal 0.0 0.0 -1.0
  outer loop
    vertex -341.2607501029009 11.559724655205573 14.44
    vertex -334.2916147329581 14.599999999999858 14.44
    vertex -339.15853326648886 11.357649361050623 14.44
  endloop
endfacet
facet normal 0.0 0.0 -1.0
  outer loop
    vertex -341.2607501029009 11.559724655205573 14.44
    vertex -339.15853326648886 11.357649361050623 14.44
    vertex -341.26075010290066 9.455778077523403 14.44
  endloop
endfacet
facet normal 0.0 0.0 -1.0
  outer loop
    vertex -341.26075010290066 9.455778077523403 14.44
    vertex -339.15853326648886 11.357649361050623 14.44
    vertex -339.27467501433784 11.249298367882691 14.44
  endloop
endfacet
facet normal 0.0 0.0 -1.0
  outer loop
    vertex -341.26075010290066 9.455778077523403 14.44
    vertex -339.27467501433784 11.249298367882691 14.44
    vertex -339.3654103224097 11.118280845109437 14.44
  endloop
endfacet
facet normal 0.0 0.0 -1.0
  outer loop
    vertex -341.26075010290066 9.455778077523403 14.44
    vertex -339.3654103224097 11.118280845109437 14.44
    vertex -339.4239343885471 10.965728043521631 14.44
  endloop
endfacet
facet normal 0.0 0.0 -1.0
  outer loop
    vertex -341.26075010290066 9.455778077523403 14.44
    vertex -339.4239343885471 10.965728043521631 14.44
    vertex -340.02264281545115 9.216354209861462 14.44
  endloop
endfacet
facet normal 0.0 0.0 -1.0
  outer loop
    vertex -340.02264281545115 9.216354209861462 14.44
    vertex -339.4239343885471 10.965728043521631 14.44
    vertex -339.44344241059287 10.792771213910047 14.44
  endloop
endfacet
facet normal 0.0 0.0 -1.0
  outer loop
    vertex -340.02264281545115 9.216354209861462 14.44
    vertex -339.44344241059287 10.792771213910047 14.44
    vertex -339.4848454976375 9.023757897867556 14.44
  endloop
endfacet
facet normal 0.0 0.0 -1.0
  outer loop
    vertex -339.15853326648886 11.357649361050623 14.44
    vertex -334.2916147329581 14.599999999999858 14.44
    vertex -339.0206244544948 11.44288063240064 14.44
  endloop
endfacet
facet normal 0.0 0.0 -1.0
  outer loop
    vertex -339.0206244544948 11.44288063240064 14.44
    vertex -334.2916147329581 14.599999999999858 14.44
    vertex -338.8645879539886 11.504538989719753 14.44
  endloop
endfacet
facet normal 0.0 0.0 -1.0
  outer loop
    vertex -338.8645879539886 11.504538989719753 14.44
    vertex -334.2916147329581 14.599999999999858 14.44
    vertex -338.5253510960687 11.554410890023414 14.44
  endloop
endfacet
facet normal 0.0 0.0 -1.0
  outer loop
    vertex -338.5253510960687 11.554410890023414 14.44
    vertex -334.2916147329581 14.599999999999858 14.44
    vertex -338.316318782525 11.537850347102113 14.44
  endloop
endfacet
facet normal 0.0 0.0 -1.0
  outer loop
    vertex -338.316318782525 11.537850347102113 14.44
    vertex -334.2916147329581 14.599999999999858 14.44
    vertex -338.1172566976628 11.488168718338242 14.44
  endloop
endfacet
facet normal 0.0 0.0 -1.0
  outer loop
    vertex -338.1172566976628 11.488168718338242 14.44
    vertex -334.2916147329581 14.599999999999858 14.44
    vertex -337.9209137660776 11.404452700341038 14.44
  endloop
endfacet
facet normal 0.0 0.0 -1.0
  outer loop
    vertex -337.9209137660776 11.404452700341038 14.44
    vertex -334.2916147329581 14.599999999999858 14.44
    vertex -337.72003891236426 11.28578898971985 14.44
  endloop
endfacet
facet normal 0.0 0.0 -1.0
  outer loop
    vertex -337.72003891236426 11.28578898971985 14.44
    vertex -334.2916147329581 14.599999999999858 14.44
    vertex -337.7102831716 9.930626651030499 14.44
  endloop
endfacet
facet normal 0.0 0.0 -1.0
  outer loop
    vertex -337.7102831716 9.930626651030499 14.44
    vertex -334.2916147329581 14.599999999999858 14.44
    vertex -337.6564709206827 9.785428709323751 14.44
  endloop
endfacet
facet normal 0.0 0.0 -1.0
  outer loop
    vertex -337.6564709206827 9.785428709323751 14.44
    vertex -334.2916147329581 14.599999999999858 14.44
    vertex -337.6385335037103 9.61621503982099 14.44
  endloop
endfacet
facet normal 0.0 0.0 -1.0
  outer loop
    vertex -345.0916147329581 5.399999999999863 14.44
    vertex -341.93302442602817 8.803651780711665 14.44
    vertex -334.2916147329581 5.399999999999863 14.44
  endloop
endfacet
facet normal 0.0 0.0 -1.0
  outer loop
    vertex -341.93302442602817 8.803651780711665 14.44
    vertex -345.0916147329581 5.399999999999863 14.44
    vertex -341.9529787213218 11.523469278181285 14.44
  endloop
endfacet
facet normal 0.0 0.0 -1.0
  outer loop
    vertex -334.2916147329581 5.399999999999863 14.44
    vertex -341.93302442602817 8.803651780711665 14.44
    vertex -340.0716290882245 8.803651780711663 14.44
  endloop
endfacet
facet normal 0.0 0.0 -1.0
  outer loop
    vertex -334.2916147329581 5.399999999999863 14.44
    vertex -340.0716290882245 8.803651780711663 14.44
    vertex -340.02264281545115 9.216354209861462 14.44
  endloop
endfacet
facet normal 0.0 0.0 -1.0
  outer loop
    vertex -334.2916147329581 5.399999999999863 14.44
    vertex -340.02264281545115 9.216354209861462 14.44
    vertex -339.4848454976375 9.023757897867556 14.44
  endloop
endfacet
facet normal 0.0 0.0 -1.0
  outer loop
    vertex -334.2916147329581 5.399999999999863 14.44
    vertex -339.4848454976375 9.023757897867556 14.44
    vertex -339.09759102205567 8.837914495792717 14.44
  endloop
endfacet
facet normal 0.0 0.0 -1.0
  outer loop
    vertex -334.2916147329581 5.399999999999863 14.44
    vertex -339.09759102205567 8.837914495792717 14.44
    vertex -338.89558837703413 8.78963395745769 14.44
  endloop
endfacet
facet normal 0.0 0.0 -1.0
  outer loop
    vertex -334.2916147329581 5.399999999999863 14.44
    vertex -338.89558837703413 8.78963395745769 14.44
    vertex -338.67590777623064 8.773540444679272 14.44
  endloop
endfacet
facet normal 0.0 0.0 -1.0
  outer loop
    vertex -334.2916147329581 5.399999999999863 14.44
    vertex -338.67590777623064 8.773540444679272 14.44
    vertex -338.4793434377628 8.786904425733166 14.44
  endloop
endfacet
facet normal 0.0 0.0 -1.0
  outer loop
    vertex -334.2916147329581 5.399999999999863 14.44
    vertex -338.4793434377628 8.786904425733166 14.44
    vertex -338.28868097650894 8.826996368894866 14.44
  endloop
endfacet
facet normal 0.0 0.0 -1.0
  outer loop
    vertex -334.2916147329581 5.399999999999863 14.44
    vertex -338.28868097650894 8.826996368894866 14.44
    vertex -338.11185298593455 8.893366541434082 14.44
  endloop
endfacet
facet normal 0.0 0.0 -1.0
  outer loop
    vertex -334.2916147329581 5.399999999999863 14.44
    vertex -338.11185298593455 8.893366541434082 14.44
    vertex -337.9567920595049 8.985565210620571 14.44
  endloop
endfacet
facet normal 0.0 0.0 -1.0
  outer loop
    vertex -334.2916147329581 5.399999999999863 14.44
    vertex -337.9567920595049 8.985565210620571 14.44
    vertex -337.8268988685571 9.10381378333701 14.44
  endloop
endfacet
facet normal 0.0 0.0 -1.0
  outer loop
    vertex -334.2916147329581 5.399999999999863 14.44
    vertex -337.8268988685571 9.10381378333701 14.44
    vertex -337.7255740844289 9.248333666465706 14.44
  endloop
endfacet
facet normal 0.0 0.0 -1.0
  outer loop
    vertex -334.2916147329581 5.399999999999863 14.44
    vertex -337.7255740844289 9.248333666465706 14.44
    vertex -337.66029364889 9.419131778972027 14.44
  endloop
endfacet
facet normal 0.0 0.0 -1.0
  outer loop
    vertex -334.2916147329581 5.399999999999863 14.44
    vertex -337.66029364889 9.419131778972027 14.44
    vertex -337.6385335037103 9.61621503982099 14.44
  endloop
endfacet
facet normal 0.0 0.0 -1.0
  outer loop
    vertex -334.2916147329581 5.399999999999863 14.44
    vertex -337.6385335037103 9.61621503982099 14.44
    vertex -334.2916147329581 14.599999999999858 14.44
  endloop
endfacet
facet normal 0.0 0.0 -1.0
  outer loop
    vertex -338.81918570512744 10.973702150777362 14.44
    vertex -338.8147714054057 10.715209615352341 14.44
    vertex -338.85184322030955 10.843085927978859 14.44
  endloop
endfacet
facet normal 0.0 0.0 -1.0
  outer loop
    vertex -338.8147714054057 10.715209615352341 14.44
    vertex -338.81918570512744 10.973702150777362 14.44
    vertex -338.73393021739975 11.057131031723696 14.44
  endloop
endfacet
facet normal 0.0 0.0 -1.0
  outer loop
    vertex -338.8147714054057 10.715209615352341 14.44
    vertex -338.73393021739975 11.057131031723696 14.44
    vertex -338.71710329432267 10.620115359279435 14.44
  endloop
endfacet
facet normal 0.0 0.0 -1.0
  outer loop
    vertex -338.71710329432267 10.620115359279435 14.44
    vertex -338.73393021739975 11.057131031723696 14.44
    vertex -338.6151315869595 11.100665160013268 14.44
  endloop
endfacet
facet normal 0.0 0.0 -1.0
  outer loop
    vertex -338.71710329432267 10.620115359279435 14.44
    vertex -338.6151315869595 11.100665160013268 14.44
    vertex -338.5796372960939 10.544186636480847 14.44
  endloop
endfacet
facet normal 0.0 0.0 -1.0
  outer loop
    vertex -338.5796372960939 10.544186636480847 14.44
    vertex -338.6151315869595 11.100665160013268 14.44
    vertex -338.4818169677791 11.11336837990194 14.44
  endloop
endfacet
facet normal 0.0 0.0 -1.0
  outer loop
    vertex -338.5796372960939 10.544186636480847 14.44
    vertex -338.4818169677791 11.11336837990194 14.44
    vertex -338.4231994956133 10.473668544375661 14.44
  endloop
endfacet
facet normal 0.0 0.0 -1.0
  outer loop
    vertex -338.4231994956133 10.473668544375661 14.44
    vertex -338.4818169677791 11.11336837990194 14.44
    vertex -338.3793470949299 11.104304535645863 14.44
  endloop
endfacet
facet normal 0.0 0.0 -1.0
  outer loop
    vertex -338.4231994956133 10.473668544375661 14.44
    vertex -338.3793470949299 11.104304535645863 14.44
    vertex -338.1471189509524 10.336659197842305 14.44
  endloop
endfacet
facet normal 0.0 0.0 -1.0
  outer loop
    vertex -338.1471189509524 10.336659197842305 14.44
    vertex -338.3793470949299 11.104304535645863 14.44
    vertex -338.2696123087458 11.075286396096303 14.44
  endloop
endfacet
facet normal 0.0 0.0 -1.0
  outer loop
    vertex -338.1471189509524 10.336659197842305 14.44
    vertex -338.2696123087458 11.075286396096303 14.44
    vertex -338.1435487649707 11.021775120160159 14.44
  endloop
endfacet
facet normal 0.0 0.0 -1.0
  outer loop
    vertex -338.1471189509524 10.336659197842305 14.44
    vertex -338.1435487649707 11.021775120160159 14.44
    vertex -337.89464591514775 10.163491339795753 14.44
  endloop
endfacet
facet normal 0.0 0.0 -1.0
  outer loop
    vertex -337.89464591514775 10.163491339795753 14.44
    vertex -338.1435487649707 11.021775120160159 14.44
    vertex -337.99209261934806 10.939231866744079 14.44
  endloop
endfacet
facet normal 0.0 0.0 -1.0
  outer loop
    vertex -337.89464591514775 10.163491339795753 14.44
    vertex -337.99209261934806 10.939231866744079 14.44
    vertex -337.72003891236426 11.28578898971985 14.44
  endloop
endfacet
facet normal 0.0 0.0 -1.0
  outer loop
    vertex -337.89464591514775 10.163491339795753 14.44
    vertex -337.72003891236426 11.28578898971985 14.44
    vertex -337.7922486914317 10.055437862126126 14.44
  endloop
endfacet
facet normal 0.0 0.0 -1.0
  outer loop
    vertex -337.7922486914317 10.055437862126126 14.44
    vertex -337.72003891236426 11.28578898971985 14.44
    vertex -337.7102831716 9.930626651030499 14.44
  endloop
endfacet
facet normal 0.0 0.0 -1.0
  outer loop
    vertex -339.4848454976375 9.023757897867556 14.44
    vertex -339.42870847445295 10.659480811107674 14.44
    vertex -339.2345450168683 9.435463996045737 14.44
  endloop
endfacet
facet normal 0.0 0.0 -1.0
  outer loop
    vertex -339.42870847445295 10.659480811107674 14.44
    vertex -339.4848454976375 9.023757897867556 14.44
    vertex -339.44344241059287 10.792771213910047 14.44
  endloop
endfacet
facet normal 0.0 0.0 -1.0
  outer loop
    vertex -339.2345450168683 9.435463996045737 14.44
    vertex -339.42870847445295 10.659480811107674 14.44
    vertex -339.3845066660332 10.542512246931299 14.44
  endloop
endfacet
facet normal 0.0 0.0 -1.0
  outer loop
    vertex -339.2345450168683 9.435463996045737 14.44
    vertex -339.3845066660332 10.542512246931299 14.44
    vertex -339.2285670310382 10.346664021349328 14.44
  endloop
endfacet
facet normal 0.0 0.0 -1.0
  outer loop
    vertex -339.2345450168683 9.435463996045737 14.44
    vertex -339.2285670310382 10.346664021349328 14.44
    vertex -339.1184447828097 9.366523427979054 14.44
  endloop
endfacet
facet normal 0.0 0.0 -1.0
  outer loop
    vertex -339.1184447828097 9.366523427979054 14.44
    vertex -339.2285670310382 10.346664021349328 14.44
    vertex -339.00826718286015 10.19082125186551 14.44
  endloop
endfacet
facet normal 0.0 0.0 -1.0
  outer loop
    vertex -339.1184447828097 9.366523427979054 14.44
    vertex -339.00826718286015 10.19082125186551 14.44
    vertex -338.9760663193733 9.30032277008418 14.44
  endloop
endfacet
facet normal 0.0 0.0 -1.0
  outer loop
    vertex -338.9760663193733 9.30032277008418 14.44
    vertex -339.00826718286015 10.19082125186551 14.44
    vertex -338.7544241919695 10.060440273879715 14.44
  endloop
endfacet
facet normal 0.0 0.0 -1.0
  outer loop
    vertex -338.9760663193733 9.30032277008418 14.44
    vertex -338.7544241919695 10.060440273879715 14.44
    vertex -338.82462401168107 9.251350335241028 14.44
  endloop
endfacet
facet normal 0.0 0.0 -1.0
  outer loop
    vertex -338.82462401168107 9.251350335241028 14.44
    vertex -338.7544241919695 10.060440273879715 14.44
    vertex -338.67953331393306 9.232295505408016 14.44
  endloop
endfacet
facet normal 0.0 0.0 -1.0
  outer loop
    vertex -338.67953331393306 9.232295505408016 14.44
    vertex -338.7544241919695 10.060440273879715 14.44
    vertex -338.57104394146336 9.97327515178955 14.44
  endloop
endfacet
facet normal 0.0 0.0 -1.0
  outer loop
    vertex -338.67953331393306 9.232295505408016 14.44
    vertex -338.57104394146336 9.97327515178955 14.44
    vertex -338.52172555836626 9.249482214669102 14.44
  endloop
endfacet
facet normal 0.0 0.0 -1.0
  outer loop
    vertex -338.52172555836626 9.249482214669102 14.44
    vertex -338.57104394146336 9.97327515178955 14.44
    vertex -338.4085451275717 9.875842285519335 14.44
  endloop
endfacet
facet normal 0.0 0.0 -1.0
  outer loop
    vertex -338.52172555836626 9.249482214669102 14.44
    vertex -338.4085451275717 9.875842285519335 14.44
    vertex -338.3829726326324 9.307380114466683 14.44
  endloop
endfacet
facet normal 0.0 0.0 -1.0
  outer loop
    vertex -338.3829726326324 9.307380114466683 14.44
    vertex -338.4085451275717 9.875842285519335 14.44
    vertex -338.29233419007164 9.75156383473495 14.44
  endloop
endfacet
facet normal 0.0 0.0 -1.0
  outer loop
    vertex -338.3829726326324 9.307380114466683 14.44
    vertex -338.29233419007164 9.75156383473495 14.44
    vertex -338.28502776294613 9.415039211126665 14.44
  endloop
endfacet
facet normal 0.0 0.0 -1.0
  outer loop
    vertex -338.28502776294613 9.415039211126665 14.44
    vertex -338.29233419007164 9.75156383473495 14.44
    vertex -338.24784524460097 9.583308441895877 14.44
  endloop
endfacet
facet normal 0.0 1.0 0.0
  outer loop
    vertex -345.0916147329581 5.399999999999863 14.44
    vertex -334.2916147329581 5.399999999999863 4.999999999999994
    vertex -345.0916147329581 5.399999999999863 4.999999999999994
  endloop
endfacet
facet normal 0.0 1.0 0.0
  outer loop
    vertex -334.2916147329581 5.399999999999863 4.999999999999994
    vertex -345.0916147329581 5.399999999999863 14.44
    vertex -334.2916147329581 5.399999999999863 14.44
  endloop
endfacet
facet normal 0.0 -1.0 0.0
  outer loop
    vertex -334.2916147329581 14.599999999999858 14.44
    vertex -345.0916147329581 14.599999999999858 4.999999999999994
    vertex -334.2916147329581 14.599999999999858 4.999999999999994
  endloop
endfacet
facet normal 0.0 -1.0 0.0
  outer loop
    vertex -345.0916147329581 14.599999999999858 4.999999999999994
    vertex -334.2916147329581 14.599999999999858 14.44
    vertex -345.0916147329581 14.599999999999858 14.44
  endloop
endfacet
facet normal -2.492399514977096e-32 -1.0 -5.035654433121213e-15
  outer loop
    vertex -340.02264281545115 9.216354209861459 15.000000000000004
    vertex -341.27525225371033 9.216354209861462 14.44
    vertex -340.02264281545115 9.216354209861462 14.44
  endloop
endfacet
facet normal -2.492399514977096e-32 -1.0 -5.035654433121213e-15
  outer loop
    vertex -341.27525225371033 9.216354209861462 14.44
    vertex -340.02264281545115 9.216354209861459 15.000000000000004
    vertex -341.2752522537103 9.216354209861459 15.000000000000004
  endloop
endfacet
facet normal -0.9930291603427889 0.11786893869419512 1.4788480475430742e-16
  outer loop
    vertex -340.0716290882245 8.803651780711665 15.000000000000004
    vertex -340.02264281545115 9.216354209861462 14.44
    vertex -340.0716290882245 8.803651780711663 14.44
  endloop
endfacet
facet normal -0.9930291603427889 0.11786893869419512 1.4788480475430742e-16
  outer loop
    vertex -340.02264281545115 9.216354209861462 14.44
    vertex -340.0716290882245 8.803651780711665 15.000000000000004
    vertex -340.02264281545115 9.216354209861459 15.000000000000004
  endloop
endfacet
facet normal 2.272461759151542e-15 1.0 -5.035654433121214e-15
  outer loop
    vertex -341.93302442602817 8.80365178071167 15.000000000000004
    vertex -340.0716290882245 8.803651780711663 14.44
    vertex -341.93302442602817 8.803651780711665 14.44
  endloop
endfacet
facet normal 2.272461759151542e-15 1.0 -5.035654433121214e-15
  outer loop
    vertex -340.0716290882245 8.803651780711663 14.44
    vertex -341.93302442602817 8.80365178071167 15.000000000000004
    vertex -340.0716290882245 8.803651780711665 15.000000000000004
  endloop
endfacet
facet normal 0.995121099775644 -0.09866101956351789 3.7410729156272085e-16
  outer loop
    vertex -341.89131690451995 9.22432485763474 14.44
    vertex -341.93302442602817 8.80365178071167 15.000000000000004
    vertex -341.93302442602817 8.803651780711665 14.44
  endloop
endfacet
facet normal 0.995121099775644 -0.09866101956351789 3.7410729156272085e-16
  outer loop
    vertex -341.93302442602817 8.80365178071167 15.000000000000004
    vertex -341.89131690451995 9.22432485763474 14.44
    vertex -341.89131690451995 9.22432485763474 15.000000000000004
  endloop
endfacet
facet normal 1.0 3.620382211476836e-14 4.0285235464969755e-14
  outer loop
    vertex -341.89131690452 11.093718519071984 14.44
    vertex -341.89131690451995 9.22432485763474 15.000000000000004
    vertex -341.89131690451995 9.22432485763474 14.44
  endloop
endfacet
facet normal 1.0 3.620382211476836e-14 4.0285235464969755e-14
  outer loop
    vertex -341.89131690451995 9.22432485763474 15.000000000000004
    vertex -341.89131690452 11.093718519071984 14.44
    vertex -341.89131690452007 11.093718519071984 15.000000000000004
  endloop
endfacet
facet normal 0.9898626117958317 0.14202820061077515 -8.117853946309246e-14
  outer loop
    vertex -341.9529787213218 11.523469278181285 14.44
    vertex -341.89131690452007 11.093718519071984 15.000000000000004
    vertex -341.89131690452 11.093718519071984 14.44
  endloop
endfacet
facet normal 0.9898626117958317 0.14202820061077515 -8.117853946309246e-14
  outer loop
    vertex -341.89131690452007 11.093718519071984 15.000000000000004
    vertex -341.9529787213218 11.523469278181285 14.44
    vertex -341.9529787213217 11.523469278181299 15.000000000000004
  endloop
endfacet
facet normal 0.05230317210100678 -0.998631252359034 9.541587062582238e-15
  outer loop
    vertex -341.26075010290066 11.559724655205589 15.000000000000004
    vertex -341.9529787213218 11.523469278181285 14.44
    vertex -341.2607501029009 11.559724655205573 14.44
  endloop
endfacet
facet normal 0.05230317210100678 -0.998631252359034 9.541587062582238e-15
  outer loop
    vertex -341.9529787213218 11.523469278181285 14.44
    vertex -341.26075010290066 11.559724655205589 15.000000000000004
    vertex -341.9529787213217 11.523469278181299 15.000000000000004
  endloop
endfacet
facet normal -1.0 -6.433546963507834e-14 2.4171141278981926e-13
  outer loop
    vertex -341.26075010290066 11.559724655205589 15.000000000000004
    vertex -341.26075010290066 9.455778077523403 14.44
    vertex -341.2607501029006 9.455778077523403 15.000000000000004
  endloop
endfacet
facet normal -1.0 -6.433546963507834e-14 2.4171141278981926e-13
  outer loop
    vertex -341.26075010290066 9.455778077523403 14.44
    vertex -341.26075010290066 11.559724655205589 15.000000000000004
    vertex -341.2607501029009 11.559724655205573 14.44
  endloop
endfacet
facet normal -0.9981706073152848 0.060460224047182265 8.057405519094455e-14
  outer loop
    vertex -341.2607501029006 9.455778077523403 15.000000000000004
    vertex -341.27525225371033 9.216354209861462 14.44
    vertex -341.2752522537103 9.216354209861459 15.000000000000004
  endloop
endfacet
facet normal -0.9981706073152848 0.060460224047182265 8.057405519094455e-14
  outer loop
    vertex -341.27525225371033 9.216354209861462 14.44
    vertex -341.2607501029006 9.455778077523403 15.000000000000004
    vertex -341.26075010290066 9.455778077523403 14.44
  endloop
endfacet
facet normal 0.4785429531619616 0.8780641445697625 -6.557527406116256e-14
  outer loop
    vertex -338.1435487649705 11.021775120160092 15.000000000000004
    vertex -337.99209261934806 10.939231866744079 14.44
    vertex -338.1435487649707 11.021775120160159 14.44
  endloop
endfacet
facet normal 0.4785429531619616 0.8780641445697625 -6.557527406116256e-14
  outer loop
    vertex -337.99209261934806 10.939231866744079 14.44
    vertex -338.1435487649705 11.021775120160092 15.000000000000004
    vertex -337.9920926193481 10.939231866744155 15.000000000000004
  endloop
endfacet
facet normal 0.39073407579017927 0.9205036023918616 -1.9411916518424795e-14
  outer loop
    vertex -338.2696123087459 11.075286396096336 15.000000000000004
    vertex -338.1435487649707 11.021775120160159 14.44
    vertex -338.2696123087458 11.075286396096303 14.44
  endloop
endfacet
facet normal 0.39073407579017927 0.9205036023918616 -1.9411916518424795e-14
  outer loop
    vertex -338.1435487649707 11.021775120160159 14.44
    vertex -338.2696123087459 11.075286396096336 15.000000000000004
    vertex -338.1435487649705 11.021775120160092 15.000000000000004
  endloop
endfacet
facet normal 0.2556512890432696 0.9667690615708153 -2.1528353104662655e-14
  outer loop
    vertex -338.3793470949301 11.104304535645914 15.000000000000004
    vertex -338.2696123087458 11.075286396096303 14.44
    vertex -338.3793470949299 11.104304535645863 14.44
  endloop
endfacet
facet normal 0.2556512890432696 0.9667690615708153 -2.1528353104662655e-14
  outer loop
    vertex -338.2696123087458 11.075286396096303 14.44
    vertex -338.3793470949301 11.104304535645914 15.000000000000004
    vertex -338.2696123087459 11.075286396096336 15.000000000000004
  endloop
endfacet
facet normal 0.08810973090835511 0.9961107746226106 -1.8831257672704726e-14
  outer loop
    vertex -338.4818169677792 11.113368379901935 15.000000000000004
    vertex -338.3793470949299 11.104304535645863 14.44
    vertex -338.4818169677791 11.11336837990194 14.44
  endloop
endfacet
facet normal 0.08810973090835511 0.9961107746226106 -1.8831257672704726e-14
  outer loop
    vertex -338.3793470949299 11.104304535645863 14.44
    vertex -338.4818169677792 11.113368379901935 15.000000000000004
    vertex -338.3793470949301 11.104304535645914 15.000000000000004
  endloop
endfacet
facet normal -0.09485785545673386 0.9954908273099001 1.1916689637053813e-15
  outer loop
    vertex -338.6151315869594 11.100665160013268 15.000000000000004
    vertex -338.4818169677791 11.11336837990194 14.44
    vertex -338.6151315869595 11.100665160013268 14.44
  endloop
endfacet
facet normal -0.09485785545673386 0.9954908273099001 1.1916689637053813e-15
  outer loop
    vertex -338.4818169677791 11.11336837990194 14.44
    vertex -338.6151315869594 11.100665160013268 15.000000000000004
    vertex -338.4818169677792 11.113368379901935 15.000000000000004
  endloop
endfacet
facet normal -0.34407789434751623 0.9389411071102274 -1.2891131058588577e-15
  outer loop
    vertex -338.73393021739963 11.057131031723765 15.000000000000004
    vertex -338.6151315869595 11.100665160013268 14.44
    vertex -338.73393021739975 11.057131031723696 14.44
  endloop
endfacet
facet normal -0.34407789434751623 0.9389411071102274 -1.2891131058588577e-15
  outer loop
    vertex -338.6151315869595 11.100665160013268 14.44
    vertex -338.73393021739963 11.057131031723765 15.000000000000004
    vertex -338.6151315869594 11.100665160013268 15.000000000000004
  endloop
endfacet
facet normal -0.6994088372254408 0.7147218188994632 6.467917341450006e-14
  outer loop
    vertex -338.8191857051273 10.973702150777457 15.000000000000004
    vertex -338.73393021739975 11.057131031723696 14.44
    vertex -338.81918570512744 10.973702150777362 14.44
  endloop
endfacet
facet normal -0.6994088372254408 0.7147218188994632 6.467917341450006e-14
  outer loop
    vertex -338.73393021739975 11.057131031723696 14.44
    vertex -338.8191857051273 10.973702150777457 15.000000000000004
    vertex -338.73393021739963 11.057131031723765 15.000000000000004
  endloop
endfacet
facet normal -0.970136453986329 0.24255980839131486 1.334248436262007e-13
  outer loop
    vertex -338.8518432203095 10.843085927978871 15.000000000000004
    vertex -338.81918570512744 10.973702150777362 14.44
    vertex -338.85184322030955 10.843085927978859 14.44
  endloop
endfacet
facet normal -0.970136453986329 0.24255980839131486 1.334248436262007e-13
  outer loop
    vertex -338.81918570512744 10.973702150777362 14.44
    vertex -338.8518432203095 10.843085927978871 15.000000000000004
    vertex -338.8191857051273 10.973702150777457 15.000000000000004
  endloop
endfacet
facet normal -0.9604538793473337 -0.2784391237715298 1.16429905557274e-13
  outer loop
    vertex -338.8518432203095 10.843085927978871 15.000000000000004
    vertex -338.8147714054057 10.715209615352341 14.44
    vertex -338.8147714054056 10.715209615352334 15.000000000000004
  endloop
endfacet
facet normal -0.9604538793473337 -0.2784391237715298 1.16429905557274e-13
  outer loop
    vertex -338.8147714054057 10.715209615352341 14.44
    vertex -338.8518432203095 10.843085927978871 15.000000000000004
    vertex -338.85184322030955 10.843085927978859 14.44
  endloop
endfacet
facet normal -0.6976029698198178 -0.7164845403067469 7.965305448192824e-14
  outer loop
    vertex -338.71710329432267 10.62011535927948 15.000000000000004
    vertex -338.8147714054057 10.715209615352341 14.44
    vertex -338.71710329432267 10.620115359279435 14.44
  endloop
endfacet
facet normal -0.6976029698198178 -0.7164845403067469 7.965305448192824e-14
  outer loop
    vertex -338.8147714054057 10.715209615352341 14.44
    vertex -338.71710329432267 10.62011535927948 15.000000000000004
    vertex -338.8147714054056 10.715209615352334 15.000000000000004
  endloop
endfacet
facet normal -0.48349425424479225 -0.8753475344754632 5.289336412027904e-14
  outer loop
    vertex -338.5796372960939 10.54418663648087 15.000000000000004
    vertex -338.71710329432267 10.620115359279435 14.44
    vertex -338.5796372960939 10.544186636480847 14.44
  endloop
endfacet
facet normal -0.48349425424479225 -0.8753475344754632 5.289336412027904e-14
  outer loop
    vertex -338.71710329432267 10.620115359279435 14.44
    vertex -338.5796372960939 10.54418663648087 15.000000000000004
    vertex -338.71710329432267 10.62011535927948 15.000000000000004
  endloop
endfacet
facet normal -0.4109513841186547 -0.9116572600988609 7.345198429514989e-14
  outer loop
    vertex -338.4231994956133 10.47366854437573 15.000000000000004
    vertex -338.5796372960939 10.544186636480847 14.44
    vertex -338.4231994956133 10.473668544375661 14.44
  endloop
endfacet
facet normal -0.4109513841186547 -0.9116572600988609 7.345198429514989e-14
  outer loop
    vertex -338.5796372960939 10.544186636480847 14.44
    vertex -338.4231994956133 10.47366854437573 15.000000000000004
    vertex -338.5796372960939 10.54418663648087 15.000000000000004
  endloop
endfacet
facet normal -0.44453566981303644 -0.8957611502313969 1.0797801798118751e-13
  outer loop
    vertex -338.1471189509523 10.336659197842328 15.000000000000004
    vertex -338.4231994956133 10.473668544375661 14.44
    vertex -338.1471189509524 10.336659197842305 14.44
  endloop
endfacet
facet normal -0.44453566981303644 -0.8957611502313969 1.0797801798118751e-13
  outer loop
    vertex -338.4231994956133 10.473668544375661 14.44
    vertex -338.1471189509523 10.336659197842328 15.000000000000004
    vertex -338.4231994956133 10.47366854437573 15.000000000000004
  endloop
endfacet
facet normal -0.5656249744313707 -0.8246625905784203 7.444165592008602e-14
  outer loop
    vertex -337.8946459151476 10.163491339795646 15.000000000000004
    vertex -338.1471189509524 10.336659197842305 14.44
    vertex -337.89464591514775 10.163491339795753 14.44
  endloop
endfacet
facet normal -0.5656249744313707 -0.8246625905784203 7.444165592008602e-14
  outer loop
    vertex -338.1471189509524 10.336659197842305 14.44
    vertex -337.8946459151476 10.163491339795646 15.000000000000004
    vertex -338.1471189509523 10.336659197842328 15.000000000000004
  endloop
endfacet
facet normal -0.7258494738546621 -0.6878535754831187 5.981198775117513e-14
  outer loop
    vertex -337.7922486914317 10.05543786212614 15.000000000000004
    vertex -337.89464591514775 10.163491339795753 14.44
    vertex -337.7922486914317 10.055437862126126 14.44
  endloop
endfacet
facet normal -0.7258494738546621 -0.6878535754831187 5.981198775117513e-14
  outer loop
    vertex -337.89464591514775 10.163491339795753 14.44
    vertex -337.7922486914317 10.05543786212614 15.000000000000004
    vertex -337.8946459151476 10.163491339795646 15.000000000000004
  endloop
endfacet
facet normal -0.8358691931422422 -0.5489286765653049 -4.840142175773775e-15
  outer loop
    vertex -337.7922486914317 10.05543786212614 15.000000000000004
    vertex -337.7102831716 9.930626651030499 14.44
    vertex -337.7102831716 9.930626651030474 15.000000000000004
  endloop
endfacet
facet normal -0.8358691931422422 -0.5489286765653049 -4.840142175773775e-15
  outer loop
    vertex -337.7102831716 9.930626651030499 14.44
    vertex -337.7922486914317 10.05543786212614 15.000000000000004
    vertex -337.7922486914317 10.055437862126126 14.44
  endloop
endfacet
facet normal -0.9376746286584914 -0.3475144468510058 -3.9386290437828855e-15
  outer loop
    vertex -337.6564709206827 9.785428709323764 15.000000000000004
    vertex -337.7102831716 9.930626651030499 14.44
    vertex -337.6564709206827 9.785428709323751 14.44
  endloop
endfacet
facet normal -0.9376746286584914 -0.3475144468510058 -3.9386290437828855e-15
  outer loop
    vertex -337.7102831716 9.930626651030499 14.44
    vertex -337.6564709206827 9.785428709323764 15.000000000000004
    vertex -337.7102831716 9.930626651030474 15.000000000000004
  endloop
endfacet
facet normal -0.994428430800473 -0.10541392704813164 -2.659856685702289e-16
  outer loop
    vertex -337.6564709206827 9.785428709323764 15.000000000000004
    vertex -337.6385335037103 9.61621503982099 14.44
    vertex -337.6385335037103 9.616215039820977 15.000000000000004
  endloop
endfacet
facet normal -0.994428430800473 -0.10541392704813164 -2.659856685702289e-16
  outer loop
    vertex -337.6385335037103 9.61621503982099 14.44
    vertex -337.6564709206827 9.785428709323764 15.000000000000004
    vertex -337.6564709206827 9.785428709323751 14.44
  endloop
endfacet
facet normal -0.9939598823999977 0.10974403026763141 -8.077633090604521e-14
  outer loop
    vertex -337.66029364889005 9.419131778972048 15.000000000000004
    vertex -337.6385335037103 9.61621503982099 14.44
    vertex -337.66029364889 9.419131778972027 14.44
  endloop
endfacet
facet normal -0.9939598823999977 0.10974403026763141 -8.077633090604521e-14
  outer loop
    vertex -337.6385335037103 9.61621503982099 14.44
    vertex -337.66029364889005 9.419131778972048 15.000000000000004
    vertex -337.6385335037103 9.616215039820977 15.000000000000004
  endloop
endfacet
facet normal -0.9340969354215621 0.35701948859417476 -3.583324987391667e-14
  outer loop
    vertex -337.66029364889005 9.419131778972048 15.000000000000004
    vertex -337.7255740844289 9.248333666465706 14.44
    vertex -337.7255740844289 9.24833366646568 15.000000000000004
  endloop
endfacet
facet normal -0.9340969354215621 0.35701948859417476 -3.583324987391667e-14
  outer loop
    vertex -337.7255740844289 9.248333666465706 14.44
    vertex -337.66029364889005 9.419131778972048 15.000000000000004
    vertex -337.66029364889 9.419131778972027 14.44
  endloop
endfacet
facet normal -0.8188035105956699 0.5740738724556333 1.0743157386542845e-13
  outer loop
    vertex -337.7255740844289 9.24833366646568 15.000000000000004
    vertex -337.8268988685571 9.10381378333701 14.44
    vertex -337.8268988685571 9.103813783336891 15.000000000000004
  endloop
endfacet
facet normal -0.8188035105956699 0.5740738724556333 1.0743157386542845e-13
  outer loop
    vertex -337.8268988685571 9.10381378333701 14.44
    vertex -337.7255740844289 9.24833366646568 15.000000000000004
    vertex -337.7255740844289 9.248333666465706 14.44
  endloop
endfacet
facet normal -0.6731833583208346 0.7394756020856151 1.1487336238955684e-13
  outer loop
    vertex -337.9567920595048 8.985565210620639 15.000000000000004
    vertex -337.8268988685571 9.10381378333701 14.44
    vertex -337.9567920595049 8.985565210620571 14.44
  endloop
endfacet
facet normal -0.6731833583208346 0.7394756020856151 1.1487336238955684e-13
  outer loop
    vertex -337.8268988685571 9.10381378333701 14.44
    vertex -337.9567920595048 8.985565210620639 15.000000000000004
    vertex -337.8268988685571 9.103813783336891 15.000000000000004
  endloop
endfacet
facet normal -0.5110765416121462 0.859535204988003 3.04063461336651e-14
  outer loop
    vertex -338.1118529859345 8.893366541434082 15.0
    vertex -337.9567920595049 8.985565210620571 14.44
    vertex -338.11185298593455 8.893366541434082 14.44
  endloop
endfacet
facet normal -0.5110765416121462 0.859535204988003 3.04063461336651e-14
  outer loop
    vertex -337.9567920595049 8.985565210620571 14.44
    vertex -338.1118529859345 8.893366541434082 15.0
    vertex -337.9567920595048 8.985565210620639 15.000000000000004
  endloop
endfacet
facet normal -0.3514004306430998 0.9362252599368616 3.3016831385474234e-14
  outer loop
    vertex -338.28868097650894 8.826996368894843 15.0
    vertex -338.11185298593455 8.893366541434082 14.44
    vertex -338.28868097650894 8.826996368894866 14.44
  endloop
endfacet
facet normal -0.3514004306430998 0.9362252599368616 3.3016831385474234e-14
  outer loop
    vertex -338.11185298593455 8.893366541434082 14.44
    vertex -338.28868097650894 8.826996368894843 15.0
    vertex -338.1118529859345 8.893366541434082 15.0
  endloop
endfacet
facet normal -0.20577691250595995 0.9785989282027211 4.278436669738159e-14
  outer loop
    vertex -338.47934343776274 8.78690442573315 15.000000000000004
    vertex -338.28868097650894 8.826996368894866 14.44
    vertex -338.4793434377628 8.786904425733166 14.44
  endloop
endfacet
facet normal -0.20577691250595995 0.9785989282027211 4.278436669738159e-14
  outer loop
    vertex -338.28868097650894 8.826996368894866 14.44
    vertex -338.47934343776274 8.78690442573315 15.000000000000004
    vertex -338.28868097650894 8.826996368894843 15.0
  endloop
endfacet
facet normal -0.06783123208107471 0.9976968096342513 2.0538083378830042e-14
  outer loop
    vertex -338.6759077762306 8.773540444679272 15.000000000000004
    vertex -338.4793434377628 8.786904425733166 14.44
    vertex -338.67590777623064 8.773540444679272 14.44
  endloop
endfacet
facet normal -0.06783123208107471 0.9976968096342513 2.0538083378830042e-14
  outer loop
    vertex -338.4793434377628 8.786904425733166 14.44
    vertex -338.6759077762306 8.773540444679272 15.000000000000004
    vertex -338.47934343776274 8.78690442573315 15.000000000000004
  endloop
endfacet
facet normal 0.07306289292598346 0.9973273352702644 2.1302149005843117e-14
  outer loop
    vertex -338.8955883770341 8.789633957457657 15.000000000000004
    vertex -338.67590777623064 8.773540444679272 14.44
    vertex -338.89558837703413 8.78963395745769 14.44
  endloop
endfacet
facet normal 0.07306289292598346 0.9973273352702644 2.1302149005843117e-14
  outer loop
    vertex -338.67590777623064 8.773540444679272 14.44
    vertex -338.8955883770341 8.789633957457657 15.000000000000004
    vertex -338.6759077762306 8.773540444679272 15.000000000000004
  endloop
endfacet
facet normal 0.23246189353841581 0.9726055048438366 1.1522055711316352e-14
  outer loop
    vertex -339.0975910220556 8.837914495792694 15.000000000000004
    vertex -338.89558837703413 8.78963395745769 14.44
    vertex -339.09759102205567 8.837914495792717 14.44
  endloop
endfacet
facet normal 0.23246189353841581 0.9726055048438366 1.1522055711316352e-14
  outer loop
    vertex -338.89558837703413 8.78963395745769 14.44
    vertex -339.0975910220556 8.837914495792694 15.000000000000004
    vertex -338.8955883770341 8.789633957457657 15.000000000000004
  endloop
endfacet
facet normal 0.43265775328975065 0.9015582446621325 7.858529542786256e-15
  outer loop
    vertex -339.4848454976374 9.023757897867505 15.000000000000004
    vertex -339.09759102205567 8.837914495792717 14.44
    vertex -339.4848454976375 9.023757897867556 14.44
  endloop
endfacet
facet normal 0.43265775328975065 0.9015582446621325 7.858529542786256e-15
  outer loop
    vertex -339.09759102205567 8.837914495792717 14.44
    vertex -339.4848454976374 9.023757897867505 15.000000000000004
    vertex -339.0975910220556 8.837914495792694 15.000000000000004
  endloop
endfacet
facet normal 0.8544779472744568 -0.5194876684018888 -5.993173863932696e-14
  outer loop
    vertex -339.4848454976375 9.023757897867556 14.44
    vertex -339.2345450168683 9.435463996045735 15.000000000000004
    vertex -339.4848454976374 9.023757897867505 15.000000000000004
  endloop
endfacet
facet normal 0.8544779472744568 -0.5194876684018888 -5.993173863932696e-14
  outer loop
    vertex -339.2345450168683 9.435463996045735 15.000000000000004
    vertex -339.4848454976375 9.023757897867556 14.44
    vertex -339.2345450168683 9.435463996045737 14.44
  endloop
endfacet
facet normal -0.5105719036154083 -0.8598350604845898 -3.0303625480896586e-14
  outer loop
    vertex -339.11844478280966 9.366523427978963 15.000000000000004
    vertex -339.2345450168683 9.435463996045737 14.44
    vertex -339.1184447828097 9.366523427979054 14.44
  endloop
endfacet
facet normal -0.5105719036154083 -0.8598350604845898 -3.0303625480896586e-14
  outer loop
    vertex -339.2345450168683 9.435463996045737 14.44
    vertex -339.11844478280966 9.366523427978963 15.000000000000004
    vertex -339.2345450168683 9.435463996045735 15.000000000000004
  endloop
endfacet
facet normal -0.42161616498246773 -0.9067743983072506 -7.305585607342193e-14
  outer loop
    vertex -338.9760663193734 9.30032277008418 15.000000000000004
    vertex -339.1184447828097 9.366523427979054 14.44
    vertex -338.9760663193733 9.30032277008418 14.44
  endloop
endfacet
facet normal -0.42161616498246773 -0.9067743983072506 -7.305585607342193e-14
  outer loop
    vertex -339.1184447828097 9.366523427979054 14.44
    vertex -338.9760663193734 9.30032277008418 15.000000000000004
    vertex -339.11844478280966 9.366523427978963 15.000000000000004
  endloop
endfacet
facet normal -0.3076860234084925 -0.9514879457980898 -7.600138494617803e-15
  outer loop
    vertex -338.82462401168107 9.251350335241034 15.000000000000004
    vertex -338.9760663193733 9.30032277008418 14.44
    vertex -338.82462401168107 9.251350335241028 14.44
  endloop
endfacet
facet normal -0.3076860234084925 -0.9514879457980898 -7.600138494617803e-15
  outer loop
    vertex -338.9760663193733 9.30032277008418 14.44
    vertex -338.82462401168107 9.251350335241034 15.000000000000004
    vertex -338.9760663193734 9.30032277008418 15.000000000000004
  endloop
endfacet
facet normal -0.13021234154505346 -0.991486130064034 -9.982792795098691e-15
  outer loop
    vertex -338.6795333139331 9.232295505408 15.000000000000004
    vertex -338.82462401168107 9.251350335241028 14.44
    vertex -338.67953331393306 9.232295505408016 14.44
  endloop
endfacet
facet normal -0.13021234154505346 -0.991486130064034 -9.982792795098691e-15
  outer loop
    vertex -338.82462401168107 9.251350335241028 14.44
    vertex -338.6795333139331 9.232295505408 15.000000000000004
    vertex -338.82462401168107 9.251350335241034 15.000000000000004
  endloop
endfacet
facet normal 0.10826894745842096 -0.9941216399496823 2.373852541589451e-14
  outer loop
    vertex -338.5217255583663 9.249482214669136 15.000000000000004
    vertex -338.67953331393306 9.232295505408016 14.44
    vertex -338.52172555836626 9.249482214669102 14.44
  endloop
endfacet
facet normal 0.10826894745842096 -0.9941216399496823 2.373852541589451e-14
  outer loop
    vertex -338.67953331393306 9.232295505408016 14.44
    vertex -338.5217255583663 9.249482214669136 15.000000000000004
    vertex -338.6795333139331 9.232295505408 15.000000000000004
  endloop
endfacet
facet normal 0.385092412671828 -0.9228780166970013 8.365134648938079e-14
  outer loop
    vertex -338.3829726326324 9.307380114466751 15.000000000000004
    vertex -338.52172555836626 9.249482214669102 14.44
    vertex -338.3829726326324 9.307380114466683 14.44
  endloop
endfacet
facet normal 0.385092412671828 -0.9228780166970013 8.365134648938079e-14
  outer loop
    vertex -338.52172555836626 9.249482214669102 14.44
    vertex -338.3829726326324 9.307380114466751 15.000000000000004
    vertex -338.5217255583663 9.249482214669136 15.000000000000004
  endloop
endfacet
facet normal 0.7396905020281982 -0.6729472202255331 3.3045602540062864e-14
  outer loop
    vertex -338.28502776294613 9.415039211126665 14.44
    vertex -338.3829726326324 9.307380114466751 15.000000000000004
    vertex -338.3829726326324 9.307380114466683 14.44
  endloop
endfacet
facet normal 0.7396905020281982 -0.6729472202255331 3.3045602540062864e-14
  outer loop
    vertex -338.3829726326324 9.307380114466751 15.000000000000004
    vertex -338.28502776294613 9.415039211126665 14.44
    vertex -338.2850277629462 9.41503921112665 15.000000000000004
  endloop
endfacet
facet normal 0.9764452139063579 -0.21576548435597187 1.166483273154295e-13
  outer loop
    vertex -338.28502776294613 9.415039211126665 14.44
    vertex -338.247845244601 9.583308441895882 15.000000000000004
    vertex -338.2850277629462 9.41503921112665 15.000000000000004
  endloop
endfacet
facet normal 0.9764452139063579 -0.21576548435597187 1.166483273154295e-13
  outer loop
    vertex -338.247845244601 9.583308441895882 15.000000000000004
    vertex -338.28502776294613 9.415039211126665 14.44
    vertex -338.24784524460097 9.583308441895877 14.44
  endloop
endfacet
facet normal 0.9667751897239696 0.2556281137398282 8.208006417558041e-14
  outer loop
    vertex -338.29233419007164 9.75156383473495 14.44
    vertex -338.247845244601 9.583308441895882 15.000000000000004
    vertex -338.24784524460097 9.583308441895877 14.44
  endloop
endfacet
facet normal 0.9667751897239696 0.2556281137398282 8.208006417558041e-14
  outer loop
    vertex -338.247845244601 9.583308441895882 15.000000000000004
    vertex -338.29233419007164 9.75156383473495 14.44
    vertex -338.29233419007164 9.751563834734927 15.000000000000004
  endloop
endfacet
facet normal 0.7304166791276016 0.6830018117488463 8.616920867094974e-16
  outer loop
    vertex -338.29233419007164 9.75156383473495 14.44
    vertex -338.4085451275717 9.875842285519356 15.000000000000004
    vertex -338.29233419007164 9.751563834734927 15.000000000000004
  endloop
endfacet
facet normal 0.7304166791276016 0.6830018117488463 8.616920867094974e-16
  outer loop
    vertex -338.4085451275717 9.875842285519356 15.000000000000004
    vertex -338.29233419007164 9.75156383473495 14.44
    vertex -338.4085451275717 9.875842285519335 14.44
  endloop
endfacet
facet normal 0.514237962331141 0.8576475488786264 -3.4553207106132114e-14
  outer loop
    vertex -338.57104394146336 9.973275151789572 15.000000000000004
    vertex -338.4085451275717 9.875842285519335 14.44
    vertex -338.57104394146336 9.97327515178955 14.44
  endloop
endfacet
facet normal 0.514237962331141 0.8576475488786264 -3.4553207106132114e-14
  outer loop
    vertex -338.4085451275717 9.875842285519335 14.44
    vertex -338.57104394146336 9.973275151789572 15.000000000000004
    vertex -338.4085451275717 9.875842285519356 15.000000000000004
  endloop
endfacet
facet normal 0.42929590857026734 0.9031638959152589 -3.6386429952604526e-14
  outer loop
    vertex -338.7544241919695 10.060440273879736 15.000000000000007
    vertex -338.57104394146336 9.97327515178955 14.44
    vertex -338.7544241919695 10.060440273879715 14.44
  endloop
endfacet
facet normal 0.42929590857026734 0.9031638959152589 -3.6386429952604526e-14
  outer loop
    vertex -338.57104394146336 9.97327515178955 14.44
    vertex -338.7544241919695 10.060440273879736 15.000000000000007
    vertex -338.57104394146336 9.973275151789572 15.000000000000004
  endloop
endfacet
facet normal 0.4568855767799597 0.8895254744696431 -1.7920215564627957e-14
  outer loop
    vertex -339.00826718286015 10.19082125186551 15.000000000000004
    vertex -338.7544241919695 10.060440273879715 14.44
    vertex -339.00826718286015 10.19082125186551 14.44
  endloop
endfacet
facet normal 0.4568855767799597 0.8895254744696431 -1.7920215564627957e-14
  outer loop
    vertex -338.7544241919695 10.060440273879715 14.44
    vertex -339.00826718286015 10.19082125186551 15.000000000000004
    vertex -338.7544241919695 10.060440273879736 15.000000000000007
  endloop
endfacet
facet normal 0.5775164062246685 0.8163790789463823 0.0
  outer loop
    vertex -339.2285670310382 10.346664021349328 15.000000000000004
    vertex -339.00826718286015 10.19082125186551 14.44
    vertex -339.2285670310382 10.346664021349328 14.44
  endloop
endfacet
facet normal 0.5775164062246685 0.8163790789463823 0.0
  outer loop
    vertex -339.00826718286015 10.19082125186551 14.44
    vertex -339.2285670310382 10.346664021349328 15.000000000000004
    vertex -339.00826718286015 10.19082125186551 15.000000000000004
  endloop
endfacet
facet normal 0.7823065807050228 0.6228935814291362 4.706464768556015e-15
  outer loop
    vertex -339.3845066660332 10.542512246931299 14.44
    vertex -339.2285670310382 10.346664021349328 15.000000000000004
    vertex -339.2285670310382 10.346664021349328 14.44
  endloop
endfacet
facet normal 0.7823065807050228 0.6228935814291362 4.706464768556015e-15
  outer loop
    vertex -339.2285670310382 10.346664021349328 15.000000000000004
    vertex -339.3845066660332 10.542512246931299 14.44
    vertex -339.3845066660332 10.54251224693129 15.000000000000004
  endloop
endfacet
facet normal 0.9354359093454645 0.3534963359173955 3.56291025852787e-15
  outer loop
    vertex -339.3845066660332 10.542512246931299 14.44
    vertex -339.42870847445295 10.659480811107672 15.000000000000004
    vertex -339.3845066660332 10.54251224693129 15.000000000000004
  endloop
endfacet
facet normal 0.9354359093454645 0.3534963359173955 3.56291025852787e-15
  outer loop
    vertex -339.42870847445295 10.659480811107672 15.000000000000004
    vertex -339.3845066660332 10.542512246931299 14.44
    vertex -339.42870847445295 10.659480811107674 14.44
  endloop
endfacet
facet normal 0.9939458677067137 0.10987088817675168 2.7646586136076893e-16
  outer loop
    vertex -339.42870847445295 10.659480811107674 14.44
    vertex -339.44344241059287 10.792771213910047 15.000000000000004
    vertex -339.42870847445295 10.659480811107672 15.000000000000004
  endloop
endfacet
facet normal 0.9939458677067137 0.10987088817675168 2.7646586136076893e-16
  outer loop
    vertex -339.44344241059287 10.792771213910047 15.000000000000004
    vertex -339.42870847445295 10.659480811107674 14.44
    vertex -339.44344241059287 10.792771213910047 14.44
  endloop
endfacet
facet normal 0.9936991195913705 -0.11208059476704903 4.073727471178025e-14
  outer loop
    vertex -339.4239343885471 10.965728043521631 14.44
    vertex -339.44344241059287 10.792771213910047 15.000000000000004
    vertex -339.44344241059287 10.792771213910047 14.44
  endloop
endfacet
facet normal 0.9936991195913705 -0.11208059476704903 4.073727471178025e-14
  outer loop
    vertex -339.44344241059287 10.792771213910047 15.000000000000004
    vertex -339.4239343885471 10.965728043521631 14.44
    vertex -339.4239343885471 10.965728043521638 15.000000000000004
  endloop
endfacet
facet normal 0.933653031452521 -0.3581787498715101 7.883428235762197e-14
  outer loop
    vertex -339.3654103224097 11.118280845109437 14.44
    vertex -339.4239343885471 10.965728043521638 15.000000000000004
    vertex -339.4239343885471 10.965728043521631 14.44
  endloop
endfacet
facet normal 0.933653031452521 -0.3581787498715101 7.883428235762197e-14
  outer loop
    vertex -339.4239343885471 10.965728043521638 15.000000000000004
    vertex -339.3654103224097 11.118280845109437 14.44
    vertex -339.3654103224097 11.118280845109442 15.000000000000004
  endloop
endfacet
facet normal 0.8221015312386601 -0.5693409104702122 4.960617757672817e-14
  outer loop
    vertex -339.27467501433784 11.249298367882691 14.44
    vertex -339.3654103224097 11.118280845109442 15.000000000000004
    vertex -339.3654103224097 11.118280845109437 14.44
  endloop
endfacet
facet normal 0.8221015312386601 -0.5693409104702122 4.960617757672817e-14
  outer loop
    vertex -339.3654103224097 11.118280845109442 15.000000000000004
    vertex -339.27467501433784 11.249298367882691 14.44
    vertex -339.27467501433784 11.24929836788272 15.000000000000004
  endloop
endfacet
facet normal 0.6821568220438463 -0.7312059013294684 -7.092735813984943e-15
  outer loop
    vertex -339.15853326648875 11.357649361050669 15.000000000000004
    vertex -339.27467501433784 11.249298367882691 14.44
    vertex -339.15853326648886 11.357649361050623 14.44
  endloop
endfacet
facet normal 0.6821568220438463 -0.7312059013294684 -7.092735813984943e-15
  outer loop
    vertex -339.27467501433784 11.249298367882691 14.44
    vertex -339.15853326648875 11.357649361050669 15.000000000000004
    vertex -339.27467501433784 11.24929836788272 15.000000000000004
  endloop
endfacet
facet normal 0.5257263728522397 -0.8506537373618175 0.0
  outer loop
    vertex -339.02062445449485 11.442880632400593 15.000000000000004
    vertex -339.15853326648886 11.357649361050623 14.44
    vertex -339.0206244544948 11.44288063240064 14.44
  endloop
endfacet
facet normal 0.5257263728522397 -0.8506537373618175 0.0
  outer loop
    vertex -339.15853326648886 11.357649361050623 14.44
    vertex -339.02062445449485 11.442880632400593 15.000000000000004
    vertex -339.15853326648875 11.357649361050669 15.000000000000004
  endloop
endfacet
facet normal 0.3675017109101479 -0.9300228451377495 3.0205215964456903e-15
  outer loop
    vertex -338.8645879539887 11.504538989719732 15.000000000000004
    vertex -339.0206244544948 11.44288063240064 14.44
    vertex -338.8645879539886 11.504538989719753 14.44
  endloop
endfacet
facet normal 0.3675017109101479 -0.9300228451377495 3.0205215964456903e-15
  outer loop
    vertex -339.0206244544948 11.44288063240064 14.44
    vertex -338.8645879539887 11.504538989719732 15.000000000000004
    vertex -339.02062445449485 11.442880632400593 15.000000000000004
  endloop
endfacet
facet normal 0.14544867777994294 -0.9893657979392992 -2.578984686136354e-14
  outer loop
    vertex -338.52535109606856 11.554410890023414 15.000000000000004
    vertex -338.8645879539886 11.504538989719753 14.44
    vertex -338.5253510960687 11.554410890023414 14.44
  endloop
endfacet
facet normal 0.14544867777994294 -0.9893657979392992 -2.578984686136354e-14
  outer loop
    vertex -338.8645879539886 11.504538989719753 14.44
    vertex -338.52535109606856 11.554410890023414 15.000000000000004
    vertex -338.8645879539887 11.504538989719732 15.000000000000004
  endloop
endfacet
facet normal -0.07897733287755175 -0.9968764120449177 1.0887918710488367e-14
  outer loop
    vertex -338.3163187825249 11.537850347102108 15.000000000000004
    vertex -338.5253510960687 11.554410890023414 14.44
    vertex -338.316318782525 11.537850347102113 14.44
  endloop
endfacet
facet normal -0.07897733287755175 -0.9968764120449177 1.0887918710488367e-14
  outer loop
    vertex -338.5253510960687 11.554410890023414 14.44
    vertex -338.3163187825249 11.537850347102108 15.000000000000004
    vertex -338.52535109606856 11.554410890023414 15.000000000000004
  endloop
endfacet
facet normal -0.24215076262401278 -0.9702386346464509 -1.4707909231580534e-14
  outer loop
    vertex -338.1172566976628 11.488168718338198 15.000000000000004
    vertex -338.316318782525 11.537850347102113 14.44
    vertex -338.1172566976628 11.488168718338242 14.44
  endloop
endfacet
facet normal -0.24215076262401278 -0.9702386346464509 -1.4707909231580534e-14
  outer loop
    vertex -338.316318782525 11.537850347102113 14.44
    vertex -338.1172566976628 11.488168718338198 15.000000000000004
    vertex -338.3163187825249 11.537850347102108 15.000000000000004
  endloop
endfacet
facet normal -0.3922128875779338 -0.9198744755768469 -4.5238379127721345e-14
  outer loop
    vertex -337.9209137660775 11.40445270034097 15.000000000000004
    vertex -338.1172566976628 11.488168718338242 14.44
    vertex -337.9209137660776 11.404452700341038 14.44
  endloop
endfacet
facet normal -0.3922128875779338 -0.9198744755768469 -4.5238379127721345e-14
  outer loop
    vertex -338.1172566976628 11.488168718338242 14.44
    vertex -337.9209137660775 11.40445270034097 15.000000000000004
    vertex -338.1172566976628 11.488168718338198 15.000000000000004
  endloop
endfacet
facet normal -0.50861790426746 -0.8609923504065392 -2.6644255340929327e-14
  outer loop
    vertex -337.7200389123641 11.285788989719721 15.000000000000004
    vertex -337.9209137660776 11.404452700341038 14.44
    vertex -337.72003891236426 11.28578898971985 14.44
  endloop
endfacet
facet normal -0.50861790426746 -0.8609923504065392 -2.6644255340929327e-14
  outer loop
    vertex -337.9209137660776 11.404452700341038 14.44
    vertex -337.7200389123641 11.285788989719721 15.000000000000004
    vertex -337.9209137660775 11.40445270034097 15.000000000000004
  endloop
endfacet
facet normal -0.7865841944120143 0.6174830403348763 1.2227835394966117e-13
  outer loop
    vertex -337.9920926193481 10.939231866744155 15.000000000000004
    vertex -337.72003891236426 11.28578898971985 14.44
    vertex -337.99209261934806 10.939231866744079 14.44
  endloop
endfacet
facet normal -0.7865841944120143 0.6174830403348763 1.2227835394966117e-13
  outer loop
    vertex -337.72003891236426 11.28578898971985 14.44
    vertex -337.9920926193481 10.939231866744155 15.000000000000004
    vertex -337.7200389123641 11.285788989719721 15.000000000000004
  endloop
endfacet
endsolid RMP_Front
