solid RMP_Front
facet normal -0.23246189353841357 -0.9726055048438372 -1.938649266344789e-30
  outer loop
    vertex -338.8955883770339 8.789633957457614 15.140000000000004
    vertex -339.09759102205544 8.837914495792633 15.000000000000004
    vertex -338.8955883770339 8.789633957457614 15.000000000000004
  endloop
endfacet
facet normal -0.23246189353841357 -0.9726055048438372 -1.938649266344789e-30
  outer loop
    vertex -339.09759102205544 8.837914495792633 15.000000000000004
    vertex -338.8955883770339 8.789633957457614 15.140000000000004
    vertex -339.09759102205544 8.837914495792633 15.140000000000004
  endloop
endfacet
facet normal -0.07306289292574061 -0.9973273352702822 -1.91520114750623e-30
  outer loop
    vertex -338.67590777623053 8.773540444679272 15.140000000000004
    vertex -338.8955883770339 8.789633957457614 15.000000000000004
    vertex -338.67590777623053 8.773540444679272 15.000000000000004
  endloop
endfacet
facet normal -0.07306289292574061 -0.9973273352702822 -1.91520114750623e-30
  outer loop
    vertex -338.8955883770339 8.789633957457614 15.000000000000004
    vertex -338.67590777623053 8.773540444679272 15.140000000000004
    vertex -338.8955883770339 8.789633957457614 15.140000000000004
  endloop
endfacet
facet normal -0.05230317210100033 0.9986312523590343 0.0
  outer loop
    vertex -341.95297872132164 11.5234692781813 15.140000000000004
    vertex -341.2607501029006 11.559724655205587 15.000000000000004
    vertex -341.95297872132164 11.5234692781813 15.000000000000004
  endloop
endfacet
facet normal -0.05230317210100033 0.9986312523590343 0.0
  outer loop
    vertex -341.2607501029006 11.559724655205587 15.000000000000004
    vertex -341.95297872132164 11.5234692781813 15.140000000000004
    vertex -341.2607501029006 11.559724655205587 15.140000000000004
  endloop
endfacet
facet normal -0.9667751897239737 -0.2556281137398132 -9.079727072531092e-31
  outer loop
    vertex -338.29233419007164 9.751563834734943 15.140000000000004
    vertex -338.247845244601 9.583308441895872 15.000000000000004
    vertex -338.247845244601 9.583308441895872 15.140000000000004
  endloop
endfacet
facet normal -0.9667751897239737 -0.2556281137398132 -9.079727072531092e-31
  outer loop
    vertex -338.247845244601 9.583308441895872 15.000000000000004
    vertex -338.29233419007164 9.751563834734943 15.140000000000004
    vertex -338.29233419007164 9.751563834734943 15.000000000000004
  endloop
endfacet
facet normal 0.30768602340827456 0.9514879457981603 1.931870987521086e-30
  outer loop
    vertex -338.9760663193732 9.300322770084133 15.140000000000004
    vertex -338.82462401168095 9.251350335241014 15.000000000000004
    vertex -338.9760663193732 9.300322770084133 15.000000000000004
  endloop
endfacet
facet normal 0.30768602340827456 0.9514879457981603 1.931870987521086e-30
  outer loop
    vertex -338.82462401168095 9.251350335241014 15.000000000000004
    vertex -338.9760663193732 9.300322770084133 15.140000000000004
    vertex -338.82462401168095 9.251350335241014 15.140000000000004
  endloop
endfacet
facet normal 0.998170607315285 -0.06046022404718192 0.0
  outer loop
    vertex -341.2607501029006 9.455778077523405 15.000000000000004
    vertex -341.2752522537103 9.21635420986146 15.140000000000004
    vertex -341.2752522537103 9.21635420986146 15.000000000000004
  endloop
endfacet
facet normal 0.998170607315285 -0.06046022404718192 0.0
  outer loop
    vertex -341.2752522537103 9.21635420986146 15.140000000000004
    vertex -341.2607501029006 9.455778077523405 15.000000000000004
    vertex -341.2607501029006 9.455778077523405 15.140000000000004
  endloop
endfacet
facet normal 0.0 -1.0 0.0
  outer loop
    vertex -340.0716290882245 8.803651780711663 15.140000000000004
    vertex -341.9330244260281 8.803651780711663 15.000000000000004
    vertex -340.0716290882245 8.803651780711663 15.000000000000004
  endloop
endfacet
facet normal 0.0 -1.0 0.0
  outer loop
    vertex -341.9330244260281 8.803651780711663 15.000000000000004
    vertex -340.0716290882245 8.803651780711663 15.140000000000004
    vertex -341.9330244260281 8.803651780711663 15.140000000000004
  endloop
endfacet
facet normal -0.3850924126717749 0.9228780166970235 1.5730736054006165e-30
  outer loop
    vertex -338.52172555836614 9.24948221466915 15.140000000000004
    vertex -338.38297263263235 9.30738011446672 15.000000000000004
    vertex -338.52172555836614 9.24948221466915 15.000000000000004
  endloop
endfacet
facet normal -0.3850924126717749 0.9228780166970235 1.5730736054006165e-30
  outer loop
    vertex -338.38297263263235 9.30738011446672 15.000000000000004
    vertex -338.52172555836614 9.24948221466915 15.140000000000004
    vertex -338.38297263263235 9.30738011446672 15.140000000000004
  endloop
endfacet
facet normal -0.8544779472743577 0.5194876684020516 6.049304814538052e-31
  outer loop
    vertex -339.2345450168682 9.435463996045671 15.140000000000004
    vertex -339.4848454976374 9.023757897867531 15.000000000000004
    vertex -339.4848454976374 9.023757897867531 15.140000000000004
  endloop
endfacet
facet normal -0.8544779472743577 0.5194876684020516 6.049304814538052e-31
  outer loop
    vertex -339.4848454976374 9.023757897867531 15.000000000000004
    vertex -339.2345450168682 9.435463996045671 15.140000000000004
    vertex -339.2345450168682 9.435463996045671 15.000000000000004
  endloop
endfacet
facet normal -0.9764452139063872 0.21576548435583928 -2.2186605706039244e-32
  outer loop
    vertex -338.247845244601 9.583308441895872 15.140000000000004
    vertex -338.28502776294613 9.415039211126643 15.000000000000004
    vertex -338.28502776294613 9.415039211126643 15.140000000000004
  endloop
endfacet
facet normal -0.9764452139063872 0.21576548435583928 -2.2186605706039244e-32
  outer loop
    vertex -338.28502776294613 9.415039211126643 15.000000000000004
    vertex -338.247845244601 9.583308441895872 15.140000000000004
    vertex -338.247845244601 9.583308441895872 15.000000000000004
  endloop
endfacet
facet normal -0.10826894745854386 0.9941216399496688 1.829373878627096e-30
  outer loop
    vertex -338.67953331393295 9.23229550540802 15.140000000000004
    vertex -338.52172555836614 9.24948221466915 15.000000000000004
    vertex -338.67953331393295 9.23229550540802 15.000000000000004
  endloop
endfacet
facet normal -0.10826894745854386 0.9941216399496688 1.829373878627096e-30
  outer loop
    vertex -338.52172555836614 9.24948221466915 15.000000000000004
    vertex -338.67953331393295 9.23229550540802 15.140000000000004
    vertex -338.52172555836614 9.24948221466915 15.140000000000004
  endloop
endfacet
facet normal 0.13021234154486397 0.9914861300640587 1.9293144981860145e-30
  outer loop
    vertex -338.82462401168095 9.251350335241014 15.140000000000004
    vertex -338.67953331393295 9.23229550540802 15.000000000000004
    vertex -338.82462401168095 9.251350335241014 15.000000000000004
  endloop
endfacet
facet normal 0.13021234154486397 0.9914861300640587 1.9293144981860145e-30
  outer loop
    vertex -338.67953331393295 9.23229550540802 15.000000000000004
    vertex -338.82462401168095 9.251350335241014 15.140000000000004
    vertex -338.67953331393295 9.23229550540802 15.140000000000004
  endloop
endfacet
facet normal 0.5105719036155395 0.8598350604845119 1.8480777768570157e-30
  outer loop
    vertex -339.2345450168682 9.435463996045671 15.140000000000004
    vertex -339.1184447828095 9.366523427978866 15.000000000000004
    vertex -339.2345450168682 9.435463996045671 15.000000000000004
  endloop
endfacet
facet normal 0.5105719036155395 0.8598350604845119 1.8480777768570157e-30
  outer loop
    vertex -339.1184447828095 9.366523427978866 15.000000000000004
    vertex -339.2345450168682 9.435463996045671 15.140000000000004
    vertex -339.1184447828095 9.366523427978866 15.140000000000004
  endloop
endfacet
facet normal 0.0 0.0 1.0
  outer loop
    vertex -340.0716290882245 8.803651780711663 15.140000000000004
    vertex -341.89131690452 9.224324857634741 15.140000000000004
    vertex -341.9330244260281 8.803651780711663 15.140000000000004
  endloop
endfacet
facet normal 0.0 0.0 1.0
  outer loop
    vertex -341.89131690452 9.224324857634741 15.140000000000004
    vertex -340.0716290882245 8.803651780711663 15.140000000000004
    vertex -341.2752522537103 9.21635420986146 15.140000000000004
  endloop
endfacet
facet normal 0.0 0.0 1.0
  outer loop
    vertex -341.89131690452 9.224324857634741 15.140000000000004
    vertex -341.2752522537103 9.21635420986146 15.140000000000004
    vertex -341.89131690452 11.093718519071984 15.140000000000004
  endloop
endfacet
facet normal 0.0 0.0 1.0
  outer loop
    vertex -341.2752522537103 9.21635420986146 15.140000000000004
    vertex -340.0716290882245 8.803651780711663 15.140000000000004
    vertex -340.02264281545115 9.21635420986146 15.140000000000004
  endloop
endfacet
facet normal 0.0 0.0 1.0
  outer loop
    vertex -341.89131690452 11.093718519071984 15.140000000000004
    vertex -341.2607501029006 11.559724655205587 15.140000000000004
    vertex -341.95297872132164 11.5234692781813 15.140000000000004
  endloop
endfacet
facet normal 0.0 0.0 1.0
  outer loop
    vertex -341.2607501029006 11.559724655205587 15.140000000000004
    vertex -341.89131690452 11.093718519071984 15.140000000000004
    vertex -341.2752522537103 9.21635420986146 15.140000000000004
  endloop
endfacet
facet normal 0.0 0.0 1.0
  outer loop
    vertex -341.2607501029006 11.559724655205587 15.140000000000004
    vertex -341.2752522537103 9.21635420986146 15.140000000000004
    vertex -341.2607501029006 9.455778077523405 15.140000000000004
  endloop
endfacet
facet normal -0.9898626117958615 -0.14202820061056834 0.0
  outer loop
    vertex -341.95297872132164 11.5234692781813 15.140000000000004
    vertex -341.89131690452 11.093718519071984 15.000000000000004
    vertex -341.89131690452 11.093718519071984 15.140000000000004
  endloop
endfacet
facet normal -0.9898626117958615 -0.14202820061056834 0.0
  outer loop
    vertex -341.89131690452 11.093718519071984 15.000000000000004
    vertex -341.95297872132164 11.5234692781813 15.140000000000004
    vertex -341.95297872132164 11.5234692781813 15.000000000000004
  endloop
endfacet
facet normal -1.0 0.0 0.0
  outer loop
    vertex -341.89131690452 11.093718519071984 15.140000000000004
    vertex -341.89131690452 9.224324857634741 15.000000000000004
    vertex -341.89131690452 9.224324857634741 15.140000000000004
  endloop
endfacet
facet normal -1.0 0.0 0.0
  outer loop
    vertex -341.89131690452 9.224324857634741 15.000000000000004
    vertex -341.89131690452 11.093718519071984 15.140000000000004
    vertex -341.89131690452 11.093718519071984 15.000000000000004
  endloop
endfacet
facet normal -0.9951210997756651 0.098661019563305 0.0
  outer loop
    vertex -341.89131690452 9.224324857634741 15.140000000000004
    vertex -341.9330244260281 8.803651780711663 15.000000000000004
    vertex -341.9330244260281 8.803651780711663 15.140000000000004
  endloop
endfacet
facet normal -0.9951210997756651 0.098661019563305 0.0
  outer loop
    vertex -341.9330244260281 8.803651780711663 15.000000000000004
    vertex -341.89131690452 9.224324857634741 15.140000000000004
    vertex -341.89131690452 9.224324857634741 15.000000000000004
  endloop
endfacet
facet normal -0.7396905020282977 0.6729472202254237 9.451773702793772e-31
  outer loop
    vertex -338.28502776294613 9.415039211126643 15.140000000000004
    vertex -338.38297263263235 9.30738011446672 15.000000000000004
    vertex -338.38297263263235 9.30738011446672 15.140000000000004
  endloop
endfacet
facet normal -0.7396905020282977 0.6729472202254237 9.451773702793772e-31
  outer loop
    vertex -338.38297263263235 9.30738011446672 15.000000000000004
    vertex -338.28502776294613 9.415039211126643 15.140000000000004
    vertex -338.28502776294613 9.415039211126643 15.000000000000004
  endloop
endfacet
facet normal 0.0 1.0 0.0
  outer loop
    vertex -341.2752522537103 9.21635420986146 15.140000000000004
    vertex -340.02264281545115 9.21635420986146 15.000000000000004
    vertex -341.2752522537103 9.21635420986146 15.000000000000004
  endloop
endfacet
facet normal 0.0 1.0 0.0
  outer loop
    vertex -340.02264281545115 9.21635420986146 15.000000000000004
    vertex -341.2752522537103 9.21635420986146 15.140000000000004
    vertex -340.02264281545115 9.21635420986146 15.140000000000004
  endloop
endfacet
facet normal 0.4216161649821854 0.9067743983073819 1.8975692260520606e-30
  outer loop
    vertex -339.1184447828095 9.366523427978866 15.140000000000004
    vertex -338.9760663193732 9.300322770084133 15.000000000000004
    vertex -339.1184447828095 9.366523427978866 15.000000000000004
  endloop
endfacet
facet normal 0.4216161649821854 0.9067743983073819 1.8975692260520606e-30
  outer loop
    vertex -338.9760663193732 9.300322770084133 15.000000000000004
    vertex -339.1184447828095 9.366523427978866 15.140000000000004
    vertex -338.9760663193732 9.300322770084133 15.140000000000004
  endloop
endfacet
facet normal 0.9930291603427889 -0.1178689386941949 0.0
  outer loop
    vertex -340.02264281545115 9.21635420986146 15.000000000000004
    vertex -340.0716290882245 8.803651780711663 15.140000000000004
    vertex -340.0716290882245 8.803651780711663 15.000000000000004
  endloop
endfacet
facet normal 0.9930291603427889 -0.1178689386941949 0.0
  outer loop
    vertex -340.0716290882245 8.803651780711663 15.140000000000004
    vertex -340.02264281545115 9.21635420986146 15.000000000000004
    vertex -340.02264281545115 9.21635420986146 15.140000000000004
  endloop
endfacet
facet normal -0.43265775328970363 -0.901558244662155 -1.8925781866442032e-30
  outer loop
    vertex -339.09759102205544 8.837914495792633 15.140000000000004
    vertex -339.4848454976374 9.023757897867531 15.000000000000004
    vertex -339.09759102205544 8.837914495792633 15.000000000000004
  endloop
endfacet
facet normal -0.43265775328970363 -0.901558244662155 -1.8925781866442032e-30
  outer loop
    vertex -339.4848454976374 9.023757897867531 15.000000000000004
    vertex -339.09759102205544 8.837914495792633 15.140000000000004
    vertex -339.4848454976374 9.023757897867531 15.140000000000004
  endloop
endfacet
facet normal 1.0 0.0 0.0
  outer loop
    vertex -341.2607501029006 11.559724655205587 15.000000000000004
    vertex -341.2607501029006 9.455778077523405 15.140000000000004
    vertex -341.2607501029006 9.455778077523405 15.000000000000004
  endloop
endfacet
facet normal 1.0 0.0 0.0
  outer loop
    vertex -341.2607501029006 9.455778077523405 15.140000000000004
    vertex -341.2607501029006 11.559724655205587 15.000000000000004
    vertex -341.2607501029006 11.559724655205587 15.140000000000004
  endloop
endfacet
facet normal 0.06783123208113168 -0.9976968096342475 -1.8539142182974295e-30
  outer loop
    vertex -338.4793434377627 8.78690442573317 15.140000000000004
    vertex -338.67590777623053 8.773540444679272 15.000000000000004
    vertex -338.4793434377627 8.78690442573317 15.000000000000004
  endloop
endfacet
facet normal 0.06783123208113168 -0.9976968096342475 -1.8539142182974295e-30
  outer loop
    vertex -338.67590777623053 8.773540444679272 15.000000000000004
    vertex -338.4793434377627 8.78690442573317 15.140000000000004
    vertex -338.67590777623053 8.773540444679272 15.140000000000004
  endloop
endfacet
facet normal -0.5142379623311456 -0.8576475488786237 -1.8455603614670367e-30
  outer loop
    vertex -338.40854512757164 9.875842285519356 15.140000000000004
    vertex -338.57104394146336 9.973275151789599 15.000000000000004
    vertex -338.40854512757164 9.875842285519356 15.000000000000004
  endloop
endfacet
facet normal -0.5142379623311456 -0.8576475488786237 -1.8455603614670367e-30
  outer loop
    vertex -338.57104394146336 9.973275151789599 15.000000000000004
    vertex -338.40854512757164 9.875842285519356 15.140000000000004
    vertex -338.57104394146336 9.973275151789599 15.140000000000004
  endloop
endfacet
facet normal -0.7304166791277512 -0.6830018117486863 -1.610915996674513e-30
  outer loop
    vertex -338.40854512757164 9.875842285519356 15.140000000000004
    vertex -338.29233419007164 9.751563834734943 15.000000000000004
    vertex -338.29233419007164 9.751563834734943 15.140000000000004
  endloop
endfacet
facet normal -0.7304166791277512 -0.6830018117486863 -1.610915996674513e-30
  outer loop
    vertex -338.29233419007164 9.751563834734943 15.000000000000004
    vertex -338.40854512757164 9.875842285519356 15.140000000000004
    vertex -338.40854512757164 9.875842285519356 15.000000000000004
  endloop
endfacet
facet normal -4.399369765013081e-31 -1.8881043491981696e-30 1.0
  outer loop
    vertex -339.09759102205544 8.837914495792633 15.140000000000004
    vertex -339.2345450168682 9.435463996045671 15.140000000000004
    vertex -339.4848454976374 9.023757897867531 15.140000000000004
  endloop
endfacet
facet normal -4.399369765013081e-31 -1.8881043491981696e-30 1.0
  outer loop
    vertex -339.2345450168682 9.435463996045671 15.140000000000004
    vertex -339.09759102205544 8.837914495792633 15.140000000000004
    vertex -339.1184447828095 9.366523427978866 15.140000000000004
  endloop
endfacet
facet normal -4.399369765013081e-31 -1.8881043491981696e-30 1.0
  outer loop
    vertex -339.1184447828095 9.366523427978866 15.140000000000004
    vertex -339.09759102205544 8.837914495792633 15.140000000000004
    vertex -338.9760663193732 9.300322770084133 15.140000000000004
  endloop
endfacet
facet normal -4.399369765013081e-31 -1.8881043491981696e-30 1.0
  outer loop
    vertex -338.9760663193732 9.300322770084133 15.140000000000004
    vertex -339.09759102205544 8.837914495792633 15.140000000000004
    vertex -338.8955883770339 8.789633957457614 15.140000000000004
  endloop
endfacet
facet normal -4.399369765013081e-31 -1.8881043491981696e-30 1.0
  outer loop
    vertex -338.9760663193732 9.300322770084133 15.140000000000004
    vertex -338.8955883770339 8.789633957457614 15.140000000000004
    vertex -338.82462401168095 9.251350335241014 15.140000000000004
  endloop
endfacet
facet normal -4.399369765013081e-31 -1.8881043491981696e-30 1.0
  outer loop
    vertex -338.82462401168095 9.251350335241014 15.140000000000004
    vertex -338.8955883770339 8.789633957457614 15.140000000000004
    vertex -338.67590777623053 8.773540444679272 15.140000000000004
  endloop
endfacet
facet normal -4.399369765013081e-31 -1.8881043491981696e-30 1.0
  outer loop
    vertex -338.82462401168095 9.251350335241014 15.140000000000004
    vertex -338.67590777623053 8.773540444679272 15.140000000000004
    vertex -338.67953331393295 9.23229550540802 15.140000000000004
  endloop
endfacet
facet normal -4.399369765013081e-31 -1.8881043491981696e-30 1.0
  outer loop
    vertex -338.67953331393295 9.23229550540802 15.140000000000004
    vertex -338.67590777623053 8.773540444679272 15.140000000000004
    vertex -338.52172555836614 9.24948221466915 15.140000000000004
  endloop
endfacet
facet normal -4.399369765013081e-31 -1.8881043491981696e-30 1.0
  outer loop
    vertex -338.52172555836614 9.24948221466915 15.140000000000004
    vertex -338.67590777623053 8.773540444679272 15.140000000000004
    vertex -338.4793434377627 8.78690442573317 15.140000000000004
  endloop
endfacet
facet normal -4.399369765013081e-31 -1.8881043491981696e-30 1.0
  outer loop
    vertex -338.52172555836614 9.24948221466915 15.140000000000004
    vertex -338.4793434377627 8.78690442573317 15.140000000000004
    vertex -338.38297263263235 9.30738011446672 15.140000000000004
  endloop
endfacet
facet normal -4.399369765013081e-31 -1.8881043491981696e-30 1.0
  outer loop
    vertex -338.38297263263235 9.30738011446672 15.140000000000004
    vertex -338.4793434377627 8.78690442573317 15.140000000000004
    vertex -338.2886809765089 8.82699636889486 15.140000000000004
  endloop
endfacet
facet normal -4.399369765013081e-31 -1.8881043491981696e-30 1.0
  outer loop
    vertex -338.38297263263235 9.30738011446672 15.140000000000004
    vertex -338.2886809765089 8.82699636889486 15.140000000000004
    vertex -338.28502776294613 9.415039211126643 15.140000000000004
  endloop
endfacet
facet normal -4.399369765013081e-31 -1.8881043491981696e-30 1.0
  outer loop
    vertex -338.28502776294613 9.415039211126643 15.140000000000004
    vertex -338.2886809765089 8.82699636889486 15.140000000000004
    vertex -338.1118529859345 8.89336654143408 15.140000000000004
  endloop
endfacet
facet normal -4.399369765013081e-31 -1.8881043491981696e-30 1.0
  outer loop
    vertex -338.28502776294613 9.415039211126643 15.140000000000004
    vertex -338.1118529859345 8.89336654143408 15.140000000000004
    vertex -338.247845244601 9.583308441895872 15.140000000000004
  endloop
endfacet
facet normal -4.399369765013081e-31 -1.8881043491981696e-30 1.0
  outer loop
    vertex -338.247845244601 9.583308441895872 15.140000000000004
    vertex -338.1118529859345 8.89336654143408 15.140000000000004
    vertex -338.14711895095223 10.33665919784223 15.140000000000004
  endloop
endfacet
facet normal -4.399369765013081e-31 -1.8881043491981696e-30 1.0
  outer loop
    vertex -338.14711895095223 10.33665919784223 15.140000000000004
    vertex -338.1118529859345 8.89336654143408 15.140000000000004
    vertex -337.8946459151475 10.163491339795673 15.140000000000004
  endloop
endfacet
facet normal -4.399369765013081e-31 -1.8881043491981696e-30 1.0
  outer loop
    vertex -337.8946459151475 10.163491339795673 15.140000000000004
    vertex -338.1118529859345 8.89336654143408 15.140000000000004
    vertex -337.95679205950483 8.98556521062057 15.140000000000004
  endloop
endfacet
facet normal -4.399369765013081e-31 -1.8881043491981696e-30 1.0
  outer loop
    vertex -337.8946459151475 10.163491339795673 15.140000000000004
    vertex -337.95679205950483 8.98556521062057 15.140000000000004
    vertex -337.8268988685572 9.103813783336912 15.140000000000004
  endloop
endfacet
facet normal -4.399369765013081e-31 -1.8881043491981696e-30 1.0
  outer loop
    vertex -337.8946459151475 10.163491339795673 15.140000000000004
    vertex -337.8268988685572 9.103813783336912 15.140000000000004
    vertex -337.7922486914317 10.055437862126134 15.140000000000004
  endloop
endfacet
facet normal -4.399369765013081e-31 -1.8881043491981696e-30 1.0
  outer loop
    vertex -337.7922486914317 10.055437862126134 15.140000000000004
    vertex -337.8268988685572 9.103813783336912 15.140000000000004
    vertex -337.7255740844289 9.248333666465712 15.140000000000004
  endloop
endfacet
facet normal -4.399369765013081e-31 -1.8881043491981696e-30 1.0
  outer loop
    vertex -337.7922486914317 10.055437862126134 15.140000000000004
    vertex -337.7255740844289 9.248333666465712 15.140000000000004
    vertex -337.7102831716 9.930626651030485 15.140000000000004
  endloop
endfacet
facet normal -4.399369765013081e-31 -1.8881043491981696e-30 1.0
  outer loop
    vertex -337.7102831716 9.930626651030485 15.140000000000004
    vertex -337.7255740844289 9.248333666465712 15.140000000000004
    vertex -337.66029364889 9.419131778972034 15.140000000000004
  endloop
endfacet
facet normal -4.399369765013081e-31 -1.8881043491981696e-30 1.0
  outer loop
    vertex -337.7102831716 9.930626651030485 15.140000000000004
    vertex -337.66029364889 9.419131778972034 15.140000000000004
    vertex -337.6564709206827 9.785428709323757 15.140000000000004
  endloop
endfacet
facet normal -4.399369765013081e-31 -1.8881043491981696e-30 1.0
  outer loop
    vertex -337.6564709206827 9.785428709323757 15.140000000000004
    vertex -337.66029364889 9.419131778972034 15.140000000000004
    vertex -337.6385335037103 9.616215039820974 15.140000000000004
  endloop
endfacet
facet normal -4.399369765013081e-31 -1.8881043491981696e-30 1.0
  outer loop
    vertex -339.42870847445295 10.659480811107663 15.140000000000004
    vertex -339.4239343885471 10.965728043521633 15.140000000000004
    vertex -339.44344241059287 10.792771213910044 15.140000000000004
  endloop
endfacet
facet normal -4.399369765013081e-31 -1.8881043491981696e-30 1.0
  outer loop
    vertex -339.4239343885471 10.965728043521633 15.140000000000004
    vertex -339.42870847445295 10.659480811107663 15.140000000000004
    vertex -339.3845066660332 10.542512246931295 15.140000000000004
  endloop
endfacet
facet normal -4.399369765013081e-31 -1.8881043491981696e-30 1.0
  outer loop
    vertex -339.4239343885471 10.965728043521633 15.140000000000004
    vertex -339.3845066660332 10.542512246931295 15.140000000000004
    vertex -339.3654103224097 11.118280845109432 15.140000000000004
  endloop
endfacet
facet normal -4.399369765013081e-31 -1.8881043491981696e-30 1.0
  outer loop
    vertex -339.3654103224097 11.118280845109432 15.140000000000004
    vertex -339.3845066660332 10.542512246931295 15.140000000000004
    vertex -339.2285670310382 10.346664021349316 15.140000000000004
  endloop
endfacet
facet normal -4.399369765013081e-31 -1.8881043491981696e-30 1.0
  outer loop
    vertex -339.3654103224097 11.118280845109432 15.140000000000004
    vertex -339.2285670310382 10.346664021349316 15.140000000000004
    vertex -339.27467501433784 11.249298367882712 15.140000000000004
  endloop
endfacet
facet normal -4.399369765013081e-31 -1.8881043491981696e-30 1.0
  outer loop
    vertex -339.27467501433784 11.249298367882712 15.140000000000004
    vertex -339.2285670310382 10.346664021349316 15.140000000000004
    vertex -339.15853326648863 11.35764936105073 15.140000000000004
  endloop
endfacet
facet normal -4.399369765013081e-31 -1.8881043491981696e-30 1.0
  outer loop
    vertex -339.15853326648863 11.35764936105073 15.140000000000004
    vertex -339.2285670310382 10.346664021349316 15.140000000000004
    vertex -339.0082671828601 10.190821251865508 15.140000000000004
  endloop
endfacet
facet normal -4.399369765013081e-31 -1.8881043491981696e-30 1.0
  outer loop
    vertex -339.15853326648863 11.35764936105073 15.140000000000004
    vertex -339.0082671828601 10.190821251865508 15.140000000000004
    vertex -339.0206244544947 11.442880632400682 15.140000000000004
  endloop
endfacet
facet normal -4.399369765013081e-31 -1.8881043491981696e-30 1.0
  outer loop
    vertex -339.0206244544947 11.442880632400682 15.140000000000004
    vertex -339.0082671828601 10.190821251865508 15.140000000000004
    vertex -338.86458795398863 11.504538989719759 15.140000000000004
  endloop
endfacet
facet normal -4.399369765013081e-31 -1.8881043491981696e-30 1.0
  outer loop
    vertex -338.86458795398863 11.504538989719759 15.140000000000004
    vertex -339.0082671828601 10.190821251865508 15.140000000000004
    vertex -338.8518432203095 10.84308592797887 15.140000000000004
  endloop
endfacet
facet normal -4.399369765013081e-31 -1.8881043491981696e-30 1.0
  outer loop
    vertex -338.8518432203095 10.84308592797887 15.140000000000004
    vertex -339.0082671828601 10.190821251865508 15.140000000000004
    vertex -338.7544241919694 10.06044027387968 15.140000000000004
  endloop
endfacet
facet normal -4.399369765013081e-31 -1.8881043491981696e-30 1.0
  outer loop
    vertex -338.8518432203095 10.84308592797887 15.140000000000004
    vertex -338.7544241919694 10.06044027387968 15.140000000000004
    vertex -338.8147714054057 10.715209615352348 15.140000000000004
  endloop
endfacet
facet normal -4.399369765013081e-31 -1.8881043491981696e-30 1.0
  outer loop
    vertex -338.8147714054057 10.715209615352348 15.140000000000004
    vertex -338.7544241919694 10.06044027387968 15.140000000000004
    vertex -338.71710329432267 10.620115359279472 15.140000000000004
  endloop
endfacet
facet normal -4.399369765013081e-31 -1.8881043491981696e-30 1.0
  outer loop
    vertex -338.71710329432267 10.620115359279472 15.140000000000004
    vertex -338.7544241919694 10.06044027387968 15.140000000000004
    vertex -338.57104394146336 9.973275151789599 15.140000000000004
  endloop
endfacet
facet normal -4.399369765013081e-31 -1.8881043491981696e-30 1.0
  outer loop
    vertex -338.71710329432267 10.620115359279472 15.140000000000004
    vertex -338.57104394146336 9.973275151789599 15.140000000000004
    vertex -338.5796372960939 10.544186636480891 15.140000000000004
  endloop
endfacet
facet normal -4.399369765013081e-31 -1.8881043491981696e-30 1.0
  outer loop
    vertex -338.5796372960939 10.544186636480891 15.140000000000004
    vertex -338.57104394146336 9.973275151789599 15.140000000000004
    vertex -338.4231994956131 10.473668544375633 15.140000000000004
  endloop
endfacet
facet normal -4.399369765013081e-31 -1.8881043491981696e-30 1.0
  outer loop
    vertex -338.4231994956131 10.473668544375633 15.140000000000004
    vertex -338.57104394146336 9.973275151789599 15.140000000000004
    vertex -338.40854512757164 9.875842285519356 15.140000000000004
  endloop
endfacet
facet normal -4.399369765013081e-31 -1.8881043491981696e-30 1.0
  outer loop
    vertex -338.4231994956131 10.473668544375633 15.140000000000004
    vertex -338.40854512757164 9.875842285519356 15.140000000000004
    vertex -338.14711895095223 10.33665919784223 15.140000000000004
  endloop
endfacet
facet normal -4.399369765013081e-31 -1.8881043491981696e-30 1.0
  outer loop
    vertex -338.14711895095223 10.33665919784223 15.140000000000004
    vertex -338.40854512757164 9.875842285519356 15.140000000000004
    vertex -338.29233419007164 9.751563834734943 15.140000000000004
  endloop
endfacet
facet normal -4.399369765013081e-31 -1.8881043491981696e-30 1.0
  outer loop
    vertex -338.14711895095223 10.33665919784223 15.140000000000004
    vertex -338.29233419007164 9.751563834734943 15.140000000000004
    vertex -338.247845244601 9.583308441895872 15.140000000000004
  endloop
endfacet
facet normal -4.399369765013081e-31 -1.8881043491981696e-30 1.0
  outer loop
    vertex -338.86458795398863 11.504538989719759 15.140000000000004
    vertex -338.8191857051273 10.97370215077745 15.140000000000004
    vertex -338.5253510960686 11.554410890023401 15.140000000000004
  endloop
endfacet
facet normal -4.399369765013081e-31 -1.8881043491981696e-30 1.0
  outer loop
    vertex -338.8191857051273 10.97370215077745 15.140000000000004
    vertex -338.86458795398863 11.504538989719759 15.140000000000004
    vertex -338.8518432203095 10.84308592797887 15.140000000000004
  endloop
endfacet
facet normal -4.399369765013081e-31 -1.8881043491981696e-30 1.0
  outer loop
    vertex -338.5253510960686 11.554410890023401 15.140000000000004
    vertex -338.8191857051273 10.97370215077745 15.140000000000004
    vertex -338.7339302173996 11.057131031723808 15.140000000000004
  endloop
endfacet
facet normal -4.399369765013081e-31 -1.8881043491981696e-30 1.0
  outer loop
    vertex -338.5253510960686 11.554410890023401 15.140000000000004
    vertex -338.7339302173996 11.057131031723808 15.140000000000004
    vertex -338.61513158695925 11.100665160013282 15.140000000000004
  endloop
endfacet
facet normal -4.399369765013081e-31 -1.8881043491981696e-30 1.0
  outer loop
    vertex -338.5253510960686 11.554410890023401 15.140000000000004
    vertex -338.61513158695925 11.100665160013282 15.140000000000004
    vertex -338.4818169677791 11.113368379901946 15.140000000000004
  endloop
endfacet
facet normal -4.399369765013081e-31 -1.8881043491981696e-30 1.0
  outer loop
    vertex -338.5253510960686 11.554410890023401 15.140000000000004
    vertex -338.4818169677791 11.113368379901946 15.140000000000004
    vertex -338.31631878252483 11.537850347102095 15.140000000000004
  endloop
endfacet
facet normal -4.399369765013081e-31 -1.8881043491981696e-30 1.0
  outer loop
    vertex -338.31631878252483 11.537850347102095 15.140000000000004
    vertex -338.4818169677791 11.113368379901946 15.140000000000004
    vertex -338.3793470949299 11.104304535645873 15.140000000000004
  endloop
endfacet
facet normal -4.399369765013081e-31 -1.8881043491981696e-30 1.0
  outer loop
    vertex -338.31631878252483 11.537850347102095 15.140000000000004
    vertex -338.3793470949299 11.104304535645873 15.140000000000004
    vertex -338.2696123087457 11.075286396096278 15.140000000000004
  endloop
endfacet
facet normal -4.399369765013081e-31 -1.8881043491981696e-30 1.0
  outer loop
    vertex -338.31631878252483 11.537850347102095 15.140000000000004
    vertex -338.2696123087457 11.075286396096278 15.140000000000004
    vertex -338.11725669766275 11.488168718338178 15.140000000000004
  endloop
endfacet
facet normal -4.399369765013081e-31 -1.8881043491981696e-30 1.0
  outer loop
    vertex -338.11725669766275 11.488168718338178 15.140000000000004
    vertex -338.2696123087457 11.075286396096278 15.140000000000004
    vertex -338.14354876497043 11.021775120160045 15.140000000000004
  endloop
endfacet
facet normal -4.399369765013081e-31 -1.8881043491981696e-30 1.0
  outer loop
    vertex -338.11725669766275 11.488168718338178 15.140000000000004
    vertex -338.14354876497043 11.021775120160045 15.140000000000004
    vertex -337.99209261934794 10.939231866744052 15.140000000000004
  endloop
endfacet
facet normal -4.399369765013081e-31 -1.8881043491981696e-30 1.0
  outer loop
    vertex -338.11725669766275 11.488168718338178 15.140000000000004
    vertex -337.99209261934794 10.939231866744052 15.140000000000004
    vertex -337.92091376607743 11.404452700340963 15.140000000000004
  endloop
endfacet
facet normal -4.399369765013081e-31 -1.8881043491981696e-30 1.0
  outer loop
    vertex -337.92091376607743 11.404452700340963 15.140000000000004
    vertex -337.99209261934794 10.939231866744052 15.140000000000004
    vertex -337.72003891236415 11.285788989719757 15.140000000000004
  endloop
endfacet
facet normal 0.07897733287753969 0.9968764120449186 1.91695173823336e-30
  outer loop
    vertex -338.5253510960686 11.554410890023401 15.140000000000004
    vertex -338.31631878252483 11.537850347102095 15.000000000000004
    vertex -338.5253510960686 11.554410890023401 15.000000000000004
  endloop
endfacet
facet normal 0.07897733287753969 0.9968764120449186 1.91695173823336e-30
  outer loop
    vertex -338.31631878252483 11.537850347102095 15.000000000000004
    vertex -338.5253510960686 11.554410890023401 15.140000000000004
    vertex -338.31631878252483 11.537850347102095 15.140000000000004
  endloop
endfacet
facet normal -0.14544867777985296 0.9893657979393125 1.8040376144985518e-30
  outer loop
    vertex -338.86458795398863 11.504538989719759 15.140000000000004
    vertex -338.5253510960686 11.554410890023401 15.000000000000004
    vertex -338.86458795398863 11.504538989719759 15.000000000000004
  endloop
endfacet
facet normal -0.14544867777985296 0.9893657979393125 1.8040376144985518e-30
  outer loop
    vertex -338.5253510960686 11.554410890023401 15.000000000000004
    vertex -338.86458795398863 11.504538989719759 15.140000000000004
    vertex -338.5253510960686 11.554410890023401 15.140000000000004
  endloop
endfacet
facet normal -0.36750171091016204 0.9300228451377439 1.5943025872013555e-30
  outer loop
    vertex -339.0206244544947 11.442880632400682 15.140000000000004
    vertex -338.86458795398863 11.504538989719759 15.000000000000004
    vertex -339.0206244544947 11.442880632400682 15.000000000000004
  endloop
endfacet
facet normal -0.36750171091016204 0.9300228451377439 1.5943025872013555e-30
  outer loop
    vertex -338.86458795398863 11.504538989719759 15.000000000000004
    vertex -339.0206244544947 11.442880632400682 15.140000000000004
    vertex -338.86458795398863 11.504538989719759 15.140000000000004
  endloop
endfacet
facet normal 0.242150762624155 0.9702386346464152 1.938442860202347e-30
  outer loop
    vertex -338.31631878252483 11.537850347102095 15.140000000000004
    vertex -338.11725669766275 11.488168718338178 15.000000000000004
    vertex -338.31631878252483 11.537850347102095 15.000000000000004
  endloop
endfacet
facet normal 0.242150762624155 0.9702386346464152 1.938442860202347e-30
  outer loop
    vertex -338.11725669766275 11.488168718338178 15.000000000000004
    vertex -338.31631878252483 11.537850347102095 15.140000000000004
    vertex -338.11725669766275 11.488168718338178 15.140000000000004
  endloop
endfacet
facet normal -0.6821568220435359 0.731205901329758 1.0804870326705098e-30
  outer loop
    vertex -339.27467501433784 11.249298367882712 15.140000000000004
    vertex -339.15853326648863 11.35764936105073 15.000000000000004
    vertex -339.27467501433784 11.249298367882712 15.000000000000004
  endloop
endfacet
facet normal -0.6821568220435359 0.731205901329758 1.0804870326705098e-30
  outer loop
    vertex -339.15853326648863 11.35764936105073 15.000000000000004
    vertex -339.27467501433784 11.249298367882712 15.140000000000004
    vertex -339.15853326648863 11.35764936105073 15.140000000000004
  endloop
endfacet
facet normal -0.9336530314525165 0.3581787498715217 2.6553036366428257e-31
  outer loop
    vertex -339.3654103224097 11.118280845109432 15.140000000000004
    vertex -339.4239343885471 10.965728043521633 15.000000000000004
    vertex -339.4239343885471 10.965728043521633 15.140000000000004
  endloop
endfacet
facet normal -0.9336530314525165 0.3581787498715217 2.6553036366428257e-31
  outer loop
    vertex -339.4239343885471 10.965728043521633 15.000000000000004
    vertex -339.3654103224097 11.118280845109432 15.140000000000004
    vertex -339.3654103224097 11.118280845109432 15.000000000000004
  endloop
endfacet
facet normal -0.993699119591385 0.11208059476691878 -2.2554512778490878e-31
  outer loop
    vertex -339.4239343885471 10.965728043521633 15.140000000000004
    vertex -339.44344241059287 10.792771213910044 15.000000000000004
    vertex -339.44344241059287 10.792771213910044 15.140000000000004
  endloop
endfacet
facet normal -0.993699119591385 0.11208059476691878 -2.2554512778490878e-31
  outer loop
    vertex -339.44344241059287 10.792771213910044 15.000000000000004
    vertex -339.4239343885471 10.965728043521633 15.140000000000004
    vertex -339.4239343885471 10.965728043521633 15.000000000000004
  endloop
endfacet
facet normal -0.7823065807050422 -0.6228935814291114 -1.5202536719963825e-30
  outer loop
    vertex -339.3845066660332 10.542512246931295 15.140000000000004
    vertex -339.2285670310382 10.346664021349316 15.000000000000004
    vertex -339.2285670310382 10.346664021349316 15.140000000000004
  endloop
endfacet
facet normal -0.7823065807050422 -0.6228935814291114 -1.5202536719963825e-30
  outer loop
    vertex -339.2285670310382 10.346664021349316 15.000000000000004
    vertex -339.3845066660332 10.542512246931295 15.140000000000004
    vertex -339.3845066660332 10.542512246931295 15.000000000000004
  endloop
endfacet
facet normal -0.4292959085700998 -0.9031638959153386 -1.8941308239572253e-30
  outer loop
    vertex -338.57104394146336 9.973275151789599 15.140000000000004
    vertex -338.7544241919694 10.06044027387968 15.000000000000004
    vertex -338.57104394146336 9.973275151789599 15.000000000000004
  endloop
endfacet
facet normal -0.4292959085700998 -0.9031638959153386 -1.8941308239572253e-30
  outer loop
    vertex -338.7544241919694 10.06044027387968 15.000000000000004
    vertex -338.57104394146336 9.973275151789599 15.140000000000004
    vertex -338.7544241919694 10.06044027387968 15.140000000000004
  endloop
endfacet
facet normal -0.8221015312386212 0.5693409104702686 7.13302187205145e-31
  outer loop
    vertex -339.27467501433784 11.249298367882712 15.140000000000004
    vertex -339.3654103224097 11.118280845109432 15.000000000000004
    vertex -339.3654103224097 11.118280845109432 15.140000000000004
  endloop
endfacet
facet normal -0.8221015312386212 0.5693409104702686 7.13302187205145e-31
  outer loop
    vertex -339.3654103224097 11.118280845109432 15.000000000000004
    vertex -339.27467501433784 11.249298367882712 15.140000000000004
    vertex -339.27467501433784 11.249298367882712 15.000000000000004
  endloop
endfacet
facet normal -0.9939458677067142 -0.10987088817674709 -6.4472124166164305e-31
  outer loop
    vertex -339.44344241059287 10.792771213910044 15.140000000000004
    vertex -339.42870847445295 10.659480811107663 15.000000000000004
    vertex -339.42870847445295 10.659480811107663 15.140000000000004
  endloop
endfacet
facet normal -0.9939458677067142 -0.10987088817674709 -6.4472124166164305e-31
  outer loop
    vertex -339.42870847445295 10.659480811107663 15.000000000000004
    vertex -339.44344241059287 10.792771213910044 15.140000000000004
    vertex -339.44344241059287 10.792771213910044 15.000000000000004
  endloop
endfacet
facet normal 0.7865841944121201 -0.6174830403347418 -8.198249417587494e-31
  outer loop
    vertex -337.72003891236415 11.285788989719757 15.000000000000004
    vertex -337.99209261934794 10.939231866744052 15.140000000000004
    vertex -337.99209261934794 10.939231866744052 15.000000000000004
  endloop
endfacet
facet normal 0.7865841944121201 -0.6174830403347418 -8.198249417587494e-31
  outer loop
    vertex -337.99209261934794 10.939231866744052 15.140000000000004
    vertex -337.72003891236415 11.285788989719757 15.000000000000004
    vertex -337.72003891236415 11.285788989719757 15.140000000000004
  endloop
endfacet
facet normal 0.39221288757789574 0.9198744755768631 1.9093679499589275e-30
  outer loop
    vertex -338.11725669766275 11.488168718338178 15.140000000000004
    vertex -337.92091376607743 11.404452700340963 15.000000000000004
    vertex -338.11725669766275 11.488168718338178 15.000000000000004
  endloop
endfacet
facet normal 0.39221288757789574 0.9198744755768631 1.9093679499589275e-30
  outer loop
    vertex -337.92091376607743 11.404452700340963 15.000000000000004
    vertex -338.11725669766275 11.488168718338178 15.140000000000004
    vertex -337.92091376607743 11.404452700340963 15.140000000000004
  endloop
endfacet
facet normal -0.5775164062245618 -0.8163790789464579 -1.7954797111875378e-30
  outer loop
    vertex -339.0082671828601 10.190821251865508 15.140000000000004
    vertex -339.2285670310382 10.346664021349316 15.000000000000004
    vertex -339.0082671828601 10.190821251865508 15.000000000000004
  endloop
endfacet
facet normal -0.5775164062245618 -0.8163790789464579 -1.7954797111875378e-30
  outer loop
    vertex -339.2285670310382 10.346664021349316 15.000000000000004
    vertex -339.0082671828601 10.190821251865508 15.140000000000004
    vertex -339.2285670310382 10.346664021349316 15.140000000000004
  endloop
endfacet
facet normal 0.5086179042675044 0.8609923504065131 1.8494032244267693e-30
  outer loop
    vertex -337.92091376607743 11.404452700340963 15.140000000000004
    vertex -337.72003891236415 11.285788989719757 15.000000000000004
    vertex -337.92091376607743 11.404452700340963 15.000000000000004
  endloop
endfacet
facet normal 0.5086179042675044 0.8609923504065131 1.8494032244267693e-30
  outer loop
    vertex -337.72003891236415 11.285788989719757 15.000000000000004
    vertex -337.92091376607743 11.404452700340963 15.140000000000004
    vertex -337.72003891236415 11.285788989719757 15.140000000000004
  endloop
endfacet
facet normal -0.5257263728522885 0.8506537373617873 1.3748365502348329e-30
  outer loop
    vertex -339.15853326648863 11.35764936105073 15.140000000000004
    vertex -339.0206244544947 11.442880632400682 15.000000000000004
    vertex -339.15853326648863 11.35764936105073 15.000000000000004
  endloop
endfacet
facet normal -0.5257263728522885 0.8506537373617873 1.3748365502348329e-30
  outer loop
    vertex -339.0206244544947 11.442880632400682 15.000000000000004
    vertex -339.15853326648863 11.35764936105073 15.140000000000004
    vertex -339.0206244544947 11.442880632400682 15.140000000000004
  endloop
endfacet
facet normal -0.4785429531620539 -0.8780641445697122 -1.8684054701771647e-30
  outer loop
    vertex -337.99209261934794 10.939231866744052 15.140000000000004
    vertex -338.14354876497043 11.021775120160045 15.000000000000004
    vertex -337.99209261934794 10.939231866744052 15.000000000000004
  endloop
endfacet
facet normal -0.4785429531620539 -0.8780641445697122 -1.8684054701771647e-30
  outer loop
    vertex -338.14354876497043 11.021775120160045 15.000000000000004
    vertex -337.99209261934794 10.939231866744052 15.140000000000004
    vertex -338.14354876497043 11.021775120160045 15.140000000000004
  endloop
endfacet
facet normal -0.9354359093454546 -0.3534963359174216 -1.078970814939492e-30
  outer loop
    vertex -339.42870847445295 10.659480811107663 15.140000000000004
    vertex -339.3845066660332 10.542512246931295 15.000000000000004
    vertex -339.3845066660332 10.542512246931295 15.140000000000004
  endloop
endfacet
facet normal -0.9354359093454546 -0.3534963359174216 -1.078970814939492e-30
  outer loop
    vertex -339.3845066660332 10.542512246931295 15.000000000000004
    vertex -339.42870847445295 10.659480811107663 15.140000000000004
    vertex -339.42870847445295 10.659480811107663 15.000000000000004
  endloop
endfacet
facet normal -0.45688557678002056 -0.8895254744696118 -1.880517776324298e-30
  outer loop
    vertex -338.7544241919694 10.06044027387968 15.140000000000004
    vertex -339.0082671828601 10.190821251865508 15.000000000000004
    vertex -338.7544241919694 10.06044027387968 15.000000000000004
  endloop
endfacet
facet normal -0.45688557678002056 -0.8895254744696118 -1.880517776324298e-30
  outer loop
    vertex -339.0082671828601 10.190821251865508 15.000000000000004
    vertex -338.7544241919694 10.06044027387968 15.140000000000004
    vertex -339.0082671828601 10.190821251865508 15.140000000000004
  endloop
endfacet
facet normal 4.399369765013081e-31 1.8881043491981696e-30 -1.0
  outer loop
    vertex -338.86458795398863 11.504538989719759 15.000000000000004
    vertex -338.8191857051273 10.97370215077745 15.000000000000004
    vertex -338.8518432203095 10.84308592797887 15.000000000000004
  endloop
endfacet
facet normal 4.399369765013081e-31 1.8881043491981696e-30 -1.0
  outer loop
    vertex -338.8191857051273 10.97370215077745 15.000000000000004
    vertex -338.86458795398863 11.504538989719759 15.000000000000004
    vertex -338.5253510960686 11.554410890023401 15.000000000000004
  endloop
endfacet
facet normal 4.399369765013081e-31 1.8881043491981696e-30 -1.0
  outer loop
    vertex -338.8191857051273 10.97370215077745 15.000000000000004
    vertex -338.5253510960686 11.554410890023401 15.000000000000004
    vertex -338.7339302173996 11.057131031723808 15.000000000000004
  endloop
endfacet
facet normal 4.399369765013081e-31 1.8881043491981696e-30 -1.0
  outer loop
    vertex -338.7339302173996 11.057131031723808 15.000000000000004
    vertex -338.5253510960686 11.554410890023401 15.000000000000004
    vertex -338.61513158695925 11.100665160013282 15.000000000000004
  endloop
endfacet
facet normal 4.399369765013081e-31 1.8881043491981696e-30 -1.0
  outer loop
    vertex -338.61513158695925 11.100665160013282 15.000000000000004
    vertex -338.5253510960686 11.554410890023401 15.000000000000004
    vertex -338.4818169677791 11.113368379901946 15.000000000000004
  endloop
endfacet
facet normal 4.399369765013081e-31 1.8881043491981696e-30 -1.0
  outer loop
    vertex -338.4818169677791 11.113368379901946 15.000000000000004
    vertex -338.5253510960686 11.554410890023401 15.000000000000004
    vertex -338.31631878252483 11.537850347102095 15.000000000000004
  endloop
endfacet
facet normal 4.399369765013081e-31 1.8881043491981696e-30 -1.0
  outer loop
    vertex -338.4818169677791 11.113368379901946 15.000000000000004
    vertex -338.31631878252483 11.537850347102095 15.000000000000004
    vertex -338.3793470949299 11.104304535645873 15.000000000000004
  endloop
endfacet
facet normal 4.399369765013081e-31 1.8881043491981696e-30 -1.0
  outer loop
    vertex -338.3793470949299 11.104304535645873 15.000000000000004
    vertex -338.31631878252483 11.537850347102095 15.000000000000004
    vertex -338.2696123087457 11.075286396096278 15.000000000000004
  endloop
endfacet
facet normal 4.399369765013081e-31 1.8881043491981696e-30 -1.0
  outer loop
    vertex -338.2696123087457 11.075286396096278 15.000000000000004
    vertex -338.31631878252483 11.537850347102095 15.000000000000004
    vertex -338.11725669766275 11.488168718338178 15.000000000000004
  endloop
endfacet
facet normal 4.399369765013081e-31 1.8881043491981696e-30 -1.0
  outer loop
    vertex -338.2696123087457 11.075286396096278 15.000000000000004
    vertex -338.11725669766275 11.488168718338178 15.000000000000004
    vertex -338.14354876497043 11.021775120160045 15.000000000000004
  endloop
endfacet
facet normal 4.399369765013081e-31 1.8881043491981696e-30 -1.0
  outer loop
    vertex -338.14354876497043 11.021775120160045 15.000000000000004
    vertex -338.11725669766275 11.488168718338178 15.000000000000004
    vertex -337.99209261934794 10.939231866744052 15.000000000000004
  endloop
endfacet
facet normal 4.399369765013081e-31 1.8881043491981696e-30 -1.0
  outer loop
    vertex -337.99209261934794 10.939231866744052 15.000000000000004
    vertex -338.11725669766275 11.488168718338178 15.000000000000004
    vertex -337.92091376607743 11.404452700340963 15.000000000000004
  endloop
endfacet
facet normal 4.399369765013081e-31 1.8881043491981696e-30 -1.0
  outer loop
    vertex -337.99209261934794 10.939231866744052 15.000000000000004
    vertex -337.92091376607743 11.404452700340963 15.000000000000004
    vertex -337.72003891236415 11.285788989719757 15.000000000000004
  endloop
endfacet
facet normal 4.399369765013081e-31 1.8881043491981696e-30 -1.0
  outer loop
    vertex -339.4239343885471 10.965728043521633 15.000000000000004
    vertex -339.42870847445295 10.659480811107663 15.000000000000004
    vertex -339.44344241059287 10.792771213910044 15.000000000000004
  endloop
endfacet
facet normal 4.399369765013081e-31 1.8881043491981696e-30 -1.0
  outer loop
    vertex -339.42870847445295 10.659480811107663 15.000000000000004
    vertex -339.4239343885471 10.965728043521633 15.000000000000004
    vertex -339.3845066660332 10.542512246931295 15.000000000000004
  endloop
endfacet
facet normal 4.399369765013081e-31 1.8881043491981696e-30 -1.0
  outer loop
    vertex -339.3845066660332 10.542512246931295 15.000000000000004
    vertex -339.4239343885471 10.965728043521633 15.000000000000004
    vertex -339.3654103224097 11.118280845109432 15.000000000000004
  endloop
endfacet
facet normal 4.399369765013081e-31 1.8881043491981696e-30 -1.0
  outer loop
    vertex -339.3845066660332 10.542512246931295 15.000000000000004
    vertex -339.3654103224097 11.118280845109432 15.000000000000004
    vertex -339.2285670310382 10.346664021349316 15.000000000000004
  endloop
endfacet
facet normal 4.399369765013081e-31 1.8881043491981696e-30 -1.0
  outer loop
    vertex -339.2285670310382 10.346664021349316 15.000000000000004
    vertex -339.3654103224097 11.118280845109432 15.000000000000004
    vertex -339.27467501433784 11.249298367882712 15.000000000000004
  endloop
endfacet
facet normal 4.399369765013081e-31 1.8881043491981696e-30 -1.0
  outer loop
    vertex -339.2285670310382 10.346664021349316 15.000000000000004
    vertex -339.27467501433784 11.249298367882712 15.000000000000004
    vertex -339.15853326648863 11.35764936105073 15.000000000000004
  endloop
endfacet
facet normal 4.399369765013081e-31 1.8881043491981696e-30 -1.0
  outer loop
    vertex -339.2285670310382 10.346664021349316 15.000000000000004
    vertex -339.15853326648863 11.35764936105073 15.000000000000004
    vertex -339.0082671828601 10.190821251865508 15.000000000000004
  endloop
endfacet
facet normal 4.399369765013081e-31 1.8881043491981696e-30 -1.0
  outer loop
    vertex -339.0082671828601 10.190821251865508 15.000000000000004
    vertex -339.15853326648863 11.35764936105073 15.000000000000004
    vertex -339.0206244544947 11.442880632400682 15.000000000000004
  endloop
endfacet
facet normal 4.399369765013081e-31 1.8881043491981696e-30 -1.0
  outer loop
    vertex -339.0082671828601 10.190821251865508 15.000000000000004
    vertex -339.0206244544947 11.442880632400682 15.000000000000004
    vertex -338.86458795398863 11.504538989719759 15.000000000000004
  endloop
endfacet
facet normal 4.399369765013081e-31 1.8881043491981696e-30 -1.0
  outer loop
    vertex -339.0082671828601 10.190821251865508 15.000000000000004
    vertex -338.86458795398863 11.504538989719759 15.000000000000004
    vertex -338.8518432203095 10.84308592797887 15.000000000000004
  endloop
endfacet
facet normal 4.399369765013081e-31 1.8881043491981696e-30 -1.0
  outer loop
    vertex -339.0082671828601 10.190821251865508 15.000000000000004
    vertex -338.8518432203095 10.84308592797887 15.000000000000004
    vertex -338.7544241919694 10.06044027387968 15.000000000000004
  endloop
endfacet
facet normal 4.399369765013081e-31 1.8881043491981696e-30 -1.0
  outer loop
    vertex -338.7544241919694 10.06044027387968 15.000000000000004
    vertex -338.8518432203095 10.84308592797887 15.000000000000004
    vertex -338.8147714054057 10.715209615352348 15.000000000000004
  endloop
endfacet
facet normal 4.399369765013081e-31 1.8881043491981696e-30 -1.0
  outer loop
    vertex -338.7544241919694 10.06044027387968 15.000000000000004
    vertex -338.8147714054057 10.715209615352348 15.000000000000004
    vertex -338.71710329432267 10.620115359279472 15.000000000000004
  endloop
endfacet
facet normal 4.399369765013081e-31 1.8881043491981696e-30 -1.0
  outer loop
    vertex -338.7544241919694 10.06044027387968 15.000000000000004
    vertex -338.71710329432267 10.620115359279472 15.000000000000004
    vertex -338.57104394146336 9.973275151789599 15.000000000000004
  endloop
endfacet
facet normal 4.399369765013081e-31 1.8881043491981696e-30 -1.0
  outer loop
    vertex -338.57104394146336 9.973275151789599 15.000000000000004
    vertex -338.71710329432267 10.620115359279472 15.000000000000004
    vertex -338.5796372960939 10.544186636480891 15.000000000000004
  endloop
endfacet
facet normal 4.399369765013081e-31 1.8881043491981696e-30 -1.0
  outer loop
    vertex -338.57104394146336 9.973275151789599 15.000000000000004
    vertex -338.5796372960939 10.544186636480891 15.000000000000004
    vertex -338.4231994956131 10.473668544375633 15.000000000000004
  endloop
endfacet
facet normal 4.399369765013081e-31 1.8881043491981696e-30 -1.0
  outer loop
    vertex -338.57104394146336 9.973275151789599 15.000000000000004
    vertex -338.4231994956131 10.473668544375633 15.000000000000004
    vertex -338.40854512757164 9.875842285519356 15.000000000000004
  endloop
endfacet
facet normal 4.399369765013081e-31 1.8881043491981696e-30 -1.0
  outer loop
    vertex -338.40854512757164 9.875842285519356 15.000000000000004
    vertex -338.4231994956131 10.473668544375633 15.000000000000004
    vertex -338.14711895095223 10.33665919784223 15.000000000000004
  endloop
endfacet
facet normal 4.399369765013081e-31 1.8881043491981696e-30 -1.0
  outer loop
    vertex -338.40854512757164 9.875842285519356 15.000000000000004
    vertex -338.14711895095223 10.33665919784223 15.000000000000004
    vertex -338.29233419007164 9.751563834734943 15.000000000000004
  endloop
endfacet
facet normal 4.399369765013081e-31 1.8881043491981696e-30 -1.0
  outer loop
    vertex -338.29233419007164 9.751563834734943 15.000000000000004
    vertex -338.14711895095223 10.33665919784223 15.000000000000004
    vertex -338.247845244601 9.583308441895872 15.000000000000004
  endloop
endfacet
facet normal 4.399369765013081e-31 1.8881043491981696e-30 -1.0
  outer loop
    vertex -339.2345450168682 9.435463996045671 15.000000000000004
    vertex -339.09759102205544 8.837914495792633 15.000000000000004
    vertex -339.4848454976374 9.023757897867531 15.000000000000004
  endloop
endfacet
facet normal 4.399369765013081e-31 1.8881043491981696e-30 -1.0
  outer loop
    vertex -339.09759102205544 8.837914495792633 15.000000000000004
    vertex -339.2345450168682 9.435463996045671 15.000000000000004
    vertex -339.1184447828095 9.366523427978866 15.000000000000004
  endloop
endfacet
facet normal 4.399369765013081e-31 1.8881043491981696e-30 -1.0
  outer loop
    vertex -339.09759102205544 8.837914495792633 15.000000000000004
    vertex -339.1184447828095 9.366523427978866 15.000000000000004
    vertex -338.9760663193732 9.300322770084133 15.000000000000004
  endloop
endfacet
facet normal 4.399369765013081e-31 1.8881043491981696e-30 -1.0
  outer loop
    vertex -339.09759102205544 8.837914495792633 15.000000000000004
    vertex -338.9760663193732 9.300322770084133 15.000000000000004
    vertex -338.8955883770339 8.789633957457614 15.000000000000004
  endloop
endfacet
facet normal 4.399369765013081e-31 1.8881043491981696e-30 -1.0
  outer loop
    vertex -338.8955883770339 8.789633957457614 15.000000000000004
    vertex -338.9760663193732 9.300322770084133 15.000000000000004
    vertex -338.82462401168095 9.251350335241014 15.000000000000004
  endloop
endfacet
facet normal 4.399369765013081e-31 1.8881043491981696e-30 -1.0
  outer loop
    vertex -338.8955883770339 8.789633957457614 15.000000000000004
    vertex -338.82462401168095 9.251350335241014 15.000000000000004
    vertex -338.67590777623053 8.773540444679272 15.000000000000004
  endloop
endfacet
facet normal 4.399369765013081e-31 1.8881043491981696e-30 -1.0
  outer loop
    vertex -338.67590777623053 8.773540444679272 15.000000000000004
    vertex -338.82462401168095 9.251350335241014 15.000000000000004
    vertex -338.67953331393295 9.23229550540802 15.000000000000004
  endloop
endfacet
facet normal 4.399369765013081e-31 1.8881043491981696e-30 -1.0
  outer loop
    vertex -338.67590777623053 8.773540444679272 15.000000000000004
    vertex -338.67953331393295 9.23229550540802 15.000000000000004
    vertex -338.52172555836614 9.24948221466915 15.000000000000004
  endloop
endfacet
facet normal 4.399369765013081e-31 1.8881043491981696e-30 -1.0
  outer loop
    vertex -338.67590777623053 8.773540444679272 15.000000000000004
    vertex -338.52172555836614 9.24948221466915 15.000000000000004
    vertex -338.4793434377627 8.78690442573317 15.000000000000004
  endloop
endfacet
facet normal 4.399369765013081e-31 1.8881043491981696e-30 -1.0
  outer loop
    vertex -338.4793434377627 8.78690442573317 15.000000000000004
    vertex -338.52172555836614 9.24948221466915 15.000000000000004
    vertex -338.38297263263235 9.30738011446672 15.000000000000004
  endloop
endfacet
facet normal 4.399369765013081e-31 1.8881043491981696e-30 -1.0
  outer loop
    vertex -338.4793434377627 8.78690442573317 15.000000000000004
    vertex -338.38297263263235 9.30738011446672 15.000000000000004
    vertex -338.2886809765089 8.82699636889486 15.000000000000004
  endloop
endfacet
facet normal 4.399369765013081e-31 1.8881043491981696e-30 -1.0
  outer loop
    vertex -338.2886809765089 8.82699636889486 15.000000000000004
    vertex -338.38297263263235 9.30738011446672 15.000000000000004
    vertex -338.28502776294613 9.415039211126643 15.000000000000004
  endloop
endfacet
facet normal 4.399369765013081e-31 1.8881043491981696e-30 -1.0
  outer loop
    vertex -338.2886809765089 8.82699636889486 15.000000000000004
    vertex -338.28502776294613 9.415039211126643 15.000000000000004
    vertex -338.1118529859345 8.89336654143408 15.000000000000004
  endloop
endfacet
facet normal 4.399369765013081e-31 1.8881043491981696e-30 -1.0
  outer loop
    vertex -338.1118529859345 8.89336654143408 15.000000000000004
    vertex -338.28502776294613 9.415039211126643 15.000000000000004
    vertex -338.247845244601 9.583308441895872 15.000000000000004
  endloop
endfacet
facet normal 4.399369765013081e-31 1.8881043491981696e-30 -1.0
  outer loop
    vertex -338.1118529859345 8.89336654143408 15.000000000000004
    vertex -338.247845244601 9.583308441895872 15.000000000000004
    vertex -338.14711895095223 10.33665919784223 15.000000000000004
  endloop
endfacet
facet normal 4.399369765013081e-31 1.8881043491981696e-30 -1.0
  outer loop
    vertex -338.1118529859345 8.89336654143408 15.000000000000004
    vertex -338.14711895095223 10.33665919784223 15.000000000000004
    vertex -337.8946459151475 10.163491339795673 15.000000000000004
  endloop
endfacet
facet normal 4.399369765013081e-31 1.8881043491981696e-30 -1.0
  outer loop
    vertex -338.1118529859345 8.89336654143408 15.000000000000004
    vertex -337.8946459151475 10.163491339795673 15.000000000000004
    vertex -337.95679205950483 8.98556521062057 15.000000000000004
  endloop
endfacet
facet normal 4.399369765013081e-31 1.8881043491981696e-30 -1.0
  outer loop
    vertex -337.95679205950483 8.98556521062057 15.000000000000004
    vertex -337.8946459151475 10.163491339795673 15.000000000000004
    vertex -337.8268988685572 9.103813783336912 15.000000000000004
  endloop
endfacet
facet normal 4.399369765013081e-31 1.8881043491981696e-30 -1.0
  outer loop
    vertex -337.8268988685572 9.103813783336912 15.000000000000004
    vertex -337.8946459151475 10.163491339795673 15.000000000000004
    vertex -337.7922486914317 10.055437862126134 15.000000000000004
  endloop
endfacet
facet normal 4.399369765013081e-31 1.8881043491981696e-30 -1.0
  outer loop
    vertex -337.8268988685572 9.103813783336912 15.000000000000004
    vertex -337.7922486914317 10.055437862126134 15.000000000000004
    vertex -337.7255740844289 9.248333666465712 15.000000000000004
  endloop
endfacet
facet normal 4.399369765013081e-31 1.8881043491981696e-30 -1.0
  outer loop
    vertex -337.7255740844289 9.248333666465712 15.000000000000004
    vertex -337.7922486914317 10.055437862126134 15.000000000000004
    vertex -337.7102831716 9.930626651030485 15.000000000000004
  endloop
endfacet
facet normal 4.399369765013081e-31 1.8881043491981696e-30 -1.0
  outer loop
    vertex -337.7255740844289 9.248333666465712 15.000000000000004
    vertex -337.7102831716 9.930626651030485 15.000000000000004
    vertex -337.66029364889 9.419131778972034 15.000000000000004
  endloop
endfacet
facet normal 4.399369765013081e-31 1.8881043491981696e-30 -1.0
  outer loop
    vertex -337.66029364889 9.419131778972034 15.000000000000004
    vertex -337.7102831716 9.930626651030485 15.000000000000004
    vertex -337.6564709206827 9.785428709323757 15.000000000000004
  endloop
endfacet
facet normal 4.399369765013081e-31 1.8881043491981696e-30 -1.0
  outer loop
    vertex -337.66029364889 9.419131778972034 15.000000000000004
    vertex -337.6564709206827 9.785428709323757 15.000000000000004
    vertex -337.6385335037103 9.616215039820974 15.000000000000004
  endloop
endfacet
facet normal 0.0 0.0 -1.0
  outer loop
    vertex -341.2607501029006 11.559724655205587 15.000000000000004
    vertex -341.89131690452 11.093718519071984 15.000000000000004
    vertex -341.95297872132164 11.5234692781813 15.000000000000004
  endloop
endfacet
facet normal 0.0 0.0 -1.0
  outer loop
    vertex -341.89131690452 11.093718519071984 15.000000000000004
    vertex -341.2607501029006 11.559724655205587 15.000000000000004
    vertex -341.89131690452 9.224324857634741 15.000000000000004
  endloop
endfacet
facet normal 0.0 0.0 -1.0
  outer loop
    vertex -341.89131690452 9.224324857634741 15.000000000000004
    vertex -341.2607501029006 11.559724655205587 15.000000000000004
    vertex -341.2752522537103 9.21635420986146 15.000000000000004
  endloop
endfacet
facet normal 0.0 0.0 -1.0
  outer loop
    vertex -341.2752522537103 9.21635420986146 15.000000000000004
    vertex -341.2607501029006 11.559724655205587 15.000000000000004
    vertex -341.2607501029006 9.455778077523405 15.000000000000004
  endloop
endfacet
facet normal 0.0 0.0 -1.0
  outer loop
    vertex -341.89131690452 9.224324857634741 15.000000000000004
    vertex -340.0716290882245 8.803651780711663 15.000000000000004
    vertex -341.9330244260281 8.803651780711663 15.000000000000004
  endloop
endfacet
facet normal 0.0 0.0 -1.0
  outer loop
    vertex -340.0716290882245 8.803651780711663 15.000000000000004
    vertex -341.89131690452 9.224324857634741 15.000000000000004
    vertex -341.2752522537103 9.21635420986146 15.000000000000004
  endloop
endfacet
facet normal 0.0 0.0 -1.0
  outer loop
    vertex -340.0716290882245 8.803651780711663 15.000000000000004
    vertex -341.2752522537103 9.21635420986146 15.000000000000004
    vertex -340.02264281545115 9.21635420986146 15.000000000000004
  endloop
endfacet
facet normal 0.9939598824000221 -0.1097440302674101 2.3007152458022896e-31
  outer loop
    vertex -337.6385335037103 9.616215039820974 15.000000000000004
    vertex -337.66029364889 9.419131778972034 15.140000000000004
    vertex -337.66029364889 9.419131778972034 15.000000000000004
  endloop
endfacet
facet normal 0.9939598824000221 -0.1097440302674101 2.3007152458022896e-31
  outer loop
    vertex -337.66029364889 9.419131778972034 15.140000000000004
    vertex -337.6385335037103 9.616215039820974 15.000000000000004
    vertex -337.6385335037103 9.616215039820974 15.140000000000004
  endloop
endfacet
facet normal -0.2556512890433312 -0.9667690615707989 -1.9378313249624434e-30
  outer loop
    vertex -338.2696123087457 11.075286396096278 15.140000000000004
    vertex -338.3793470949299 11.104304535645873 15.000000000000004
    vertex -338.2696123087457 11.075286396096278 15.000000000000004
  endloop
endfacet
facet normal -0.2556512890433312 -0.9667690615707989 -1.9378313249624434e-30
  outer loop
    vertex -338.3793470949299 11.104304535645873 15.000000000000004
    vertex -338.2696123087457 11.075286396096278 15.140000000000004
    vertex -338.3793470949299 11.104304535645873 15.140000000000004
  endloop
endfacet
facet normal 0.8188035105957164 -0.5740738724555668 -7.2368943454425475e-31
  outer loop
    vertex -337.7255740844289 9.248333666465712 15.000000000000004
    vertex -337.8268988685572 9.103813783336912 15.140000000000004
    vertex -337.8268988685572 9.103813783336912 15.000000000000004
  endloop
endfacet
facet normal 0.8188035105957164 -0.5740738724555668 -7.2368943454425475e-31
  outer loop
    vertex -337.8268988685572 9.103813783336912 15.140000000000004
    vertex -337.7255740844289 9.248333666465712 15.000000000000004
    vertex -337.7255740844289 9.248333666465712 15.140000000000004
  endloop
endfacet
facet normal 0.725849473855031 0.6878535754827294 1.6180673504033e-30
  outer loop
    vertex -337.8946459151475 10.163491339795673 15.000000000000004
    vertex -337.7922486914317 10.055437862126134 15.140000000000004
    vertex -337.7922486914317 10.055437862126134 15.000000000000004
  endloop
endfacet
facet normal 0.725849473855031 0.6878535754827294 1.6180673504033e-30
  outer loop
    vertex -337.7922486914317 10.055437862126134 15.140000000000004
    vertex -337.8946459151475 10.163491339795673 15.000000000000004
    vertex -337.8946459151475 10.163491339795673 15.140000000000004
  endloop
endfacet
facet normal 0.9944284308004737 0.10541392704812558 6.365183313189251e-31
  outer loop
    vertex -337.6564709206827 9.785428709323757 15.000000000000004
    vertex -337.6385335037103 9.616215039820974 15.140000000000004
    vertex -337.6385335037103 9.616215039820974 15.000000000000004
  endloop
endfacet
facet normal 0.9944284308004737 0.10541392704812558 6.365183313189251e-31
  outer loop
    vertex -337.6385335037103 9.616215039820974 15.140000000000004
    vertex -337.6564709206827 9.785428709323757 15.000000000000004
    vertex -337.6564709206827 9.785428709323757 15.140000000000004
  endloop
endfacet
facet normal 0.5656249744312393 0.8246625905785105 1.8058883649772245e-30
  outer loop
    vertex -338.14711895095223 10.33665919784223 15.140000000000004
    vertex -337.8946459151475 10.163491339795673 15.000000000000004
    vertex -338.14711895095223 10.33665919784223 15.000000000000004
  endloop
endfacet
facet normal 0.5656249744312393 0.8246625905785105 1.8058883649772245e-30
  outer loop
    vertex -337.8946459151475 10.163491339795673 15.000000000000004
    vertex -338.14711895095223 10.33665919784223 15.140000000000004
    vertex -337.8946459151475 10.163491339795673 15.140000000000004
  endloop
endfacet
facet normal 0.6994088372254087 -0.7147218188994945 -1.04177356554372e-30
  outer loop
    vertex -338.7339302173996 11.057131031723808 15.140000000000004
    vertex -338.8191857051273 10.97370215077745 15.000000000000004
    vertex -338.7339302173996 11.057131031723808 15.000000000000004
  endloop
endfacet
facet normal 0.6994088372254087 -0.7147218188994945 -1.04177356554372e-30
  outer loop
    vertex -338.8191857051273 10.97370215077745 15.000000000000004
    vertex -338.7339302173996 11.057131031723808 15.140000000000004
    vertex -338.8191857051273 10.97370215077745 15.140000000000004
  endloop
endfacet
facet normal 0.9340969354214229 -0.3570194885945389 -2.631462676354167e-31
  outer loop
    vertex -337.66029364889 9.419131778972034 15.000000000000004
    vertex -337.7255740844289 9.248333666465712 15.140000000000004
    vertex -337.7255740844289 9.248333666465712 15.000000000000004
  endloop
endfacet
facet normal 0.9340969354214229 -0.3570194885945389 -2.631462676354167e-31
  outer loop
    vertex -337.7255740844289 9.248333666465712 15.140000000000004
    vertex -337.66029364889 9.419131778972034 15.000000000000004
    vertex -337.66029364889 9.419131778972034 15.140000000000004
  endloop
endfacet
facet normal 0.09485785545675077 -0.9954908273098986 -1.8378590825036624e-30
  outer loop
    vertex -338.4818169677791 11.113368379901946 15.140000000000004
    vertex -338.61513158695925 11.100665160013282 15.000000000000004
    vertex -338.4818169677791 11.113368379901946 15.000000000000004
  endloop
endfacet
facet normal 0.09485785545675077 -0.9954908273098986 -1.8378590825036624e-30
  outer loop
    vertex -338.61513158695925 11.100665160013282 15.000000000000004
    vertex -338.4818169677791 11.113368379901946 15.140000000000004
    vertex -338.61513158695925 11.100665160013282 15.140000000000004
  endloop
endfacet
facet normal 0.41095138411882354 0.9116572600987848 1.9020967471888653e-30
  outer loop
    vertex -338.5796372960939 10.544186636480891 15.140000000000004
    vertex -338.4231994956131 10.473668544375633 15.000000000000004
    vertex -338.5796372960939 10.544186636480891 15.000000000000004
  endloop
endfacet
facet normal 0.41095138411882354 0.9116572600987848 1.9020967471888653e-30
  outer loop
    vertex -338.4231994956131 10.473668544375633 15.000000000000004
    vertex -338.5796372960939 10.544186636480891 15.140000000000004
    vertex -338.4231994956131 10.473668544375633 15.140000000000004
  endloop
endfacet
facet normal 0.9376746286584907 0.34751444685100724 1.0686612795825861e-30
  outer loop
    vertex -337.7102831716 9.930626651030485 15.000000000000004
    vertex -337.6564709206827 9.785428709323757 15.140000000000004
    vertex -337.6564709206827 9.785428709323757 15.000000000000004
  endloop
endfacet
facet normal 0.9376746286584907 0.34751444685100724 1.0686612795825861e-30
  outer loop
    vertex -337.6564709206827 9.785428709323757 15.140000000000004
    vertex -337.7102831716 9.930626651030485 15.000000000000004
    vertex -337.7102831716 9.930626651030485 15.140000000000004
  endloop
endfacet
facet normal 0.9604538793473754 0.2784391237713862 9.482612963287182e-31
  outer loop
    vertex -338.8518432203095 10.84308592797887 15.000000000000004
    vertex -338.8147714054057 10.715209615352348 15.140000000000004
    vertex -338.8147714054057 10.715209615352348 15.000000000000004
  endloop
endfacet
facet normal 0.9604538793473754 0.2784391237713862 9.482612963287182e-31
  outer loop
    vertex -338.8147714054057 10.715209615352348 15.140000000000004
    vertex -338.8518432203095 10.84308592797887 15.000000000000004
    vertex -338.8518432203095 10.84308592797887 15.140000000000004
  endloop
endfacet
facet normal 0.6731833583210176 -0.7394756020854484 -1.1000488491327248e-30
  outer loop
    vertex -337.8268988685572 9.103813783336912 15.140000000000004
    vertex -337.95679205950483 8.98556521062057 15.000000000000004
    vertex -337.8268988685572 9.103813783336912 15.000000000000004
  endloop
endfacet
facet normal 0.6731833583210176 -0.7394756020854484 -1.1000488491327248e-30
  outer loop
    vertex -337.95679205950483 8.98556521062057 15.000000000000004
    vertex -337.8268988685572 9.103813783336912 15.140000000000004
    vertex -337.95679205950483 8.98556521062057 15.140000000000004
  endloop
endfacet
facet normal 0.4445356698130952 0.8957611502313677 1.8868582021191573e-30
  outer loop
    vertex -338.4231994956131 10.473668544375633 15.140000000000004
    vertex -338.14711895095223 10.33665919784223 15.000000000000004
    vertex -338.4231994956131 10.473668544375633 15.000000000000004
  endloop
endfacet
facet normal 0.4445356698130952 0.8957611502313677 1.8868582021191573e-30
  outer loop
    vertex -338.14711895095223 10.33665919784223 15.000000000000004
    vertex -338.4231994956131 10.473668544375633 15.140000000000004
    vertex -338.14711895095223 10.33665919784223 15.140000000000004
  endloop
endfacet
facet normal 0.20577691250595556 -0.9785989282027221 -1.7571680197385825e-30
  outer loop
    vertex -338.2886809765089 8.82699636889486 15.140000000000004
    vertex -338.4793434377627 8.78690442573317 15.000000000000004
    vertex -338.2886809765089 8.82699636889486 15.000000000000004
  endloop
endfacet
facet normal 0.20577691250595556 -0.9785989282027221 -1.7571680197385825e-30
  outer loop
    vertex -338.4793434377627 8.78690442573317 15.000000000000004
    vertex -338.2886809765089 8.82699636889486 15.140000000000004
    vertex -338.4793434377627 8.78690442573317 15.140000000000004
  endloop
endfacet
facet normal 0.3514004306430213 -0.9362252599368911 -1.6130969421176824e-30
  outer loop
    vertex -338.1118529859345 8.89336654143408 15.140000000000004
    vertex -338.2886809765089 8.82699636889486 15.000000000000004
    vertex -338.1118529859345 8.89336654143408 15.000000000000004
  endloop
endfacet
facet normal 0.3514004306430213 -0.9362252599368911 -1.6130969421176824e-30
  outer loop
    vertex -338.2886809765089 8.82699636889486 15.000000000000004
    vertex -338.1118529859345 8.89336654143408 15.140000000000004
    vertex -338.2886809765089 8.82699636889486 15.140000000000004
  endloop
endfacet
facet normal 0.5110765416121175 -0.8595352049880199 -1.398050690349241e-30
  outer loop
    vertex -337.95679205950483 8.98556521062057 15.140000000000004
    vertex -338.1118529859345 8.89336654143408 15.000000000000004
    vertex -337.95679205950483 8.98556521062057 15.000000000000004
  endloop
endfacet
facet normal 0.5110765416121175 -0.8595352049880199 -1.398050690349241e-30
  outer loop
    vertex -338.1118529859345 8.89336654143408 15.000000000000004
    vertex -337.95679205950483 8.98556521062057 15.140000000000004
    vertex -338.1118529859345 8.89336654143408 15.140000000000004
  endloop
endfacet
facet normal 0.4834942542447097 0.875347534475509 1.8654544872712752e-30
  outer loop
    vertex -338.71710329432267 10.620115359279472 15.140000000000004
    vertex -338.5796372960939 10.544186636480891 15.000000000000004
    vertex -338.71710329432267 10.620115359279472 15.000000000000004
  endloop
endfacet
facet normal 0.4834942542447097 0.875347534475509 1.8654544872712752e-30
  outer loop
    vertex -338.5796372960939 10.544186636480891 15.000000000000004
    vertex -338.71710329432267 10.620115359279472 15.140000000000004
    vertex -338.5796372960939 10.544186636480891 15.140000000000004
  endloop
endfacet
facet normal 0.8358691931422435 0.5489286765653028 1.40416438720413e-30
  outer loop
    vertex -337.7922486914317 10.055437862126134 15.000000000000004
    vertex -337.7102831716 9.930626651030485 15.140000000000004
    vertex -337.7102831716 9.930626651030485 15.000000000000004
  endloop
endfacet
facet normal 0.8358691931422435 0.5489286765653028 1.40416438720413e-30
  outer loop
    vertex -337.7102831716 9.930626651030485 15.140000000000004
    vertex -337.7922486914317 10.055437862126134 15.000000000000004
    vertex -337.7922486914317 10.055437862126134 15.140000000000004
  endloop
endfacet
facet normal 0.3440778943469687 -0.938941107110428 -1.6214461994562014e-30
  outer loop
    vertex -338.61513158695925 11.100665160013282 15.140000000000004
    vertex -338.7339302173996 11.057131031723808 15.000000000000004
    vertex -338.61513158695925 11.100665160013282 15.000000000000004
  endloop
endfacet
facet normal 0.3440778943469687 -0.938941107110428 -1.6214461994562014e-30
  outer loop
    vertex -338.7339302173996 11.057131031723808 15.000000000000004
    vertex -338.61513158695925 11.100665160013282 15.140000000000004
    vertex -338.7339302173996 11.057131031723808 15.140000000000004
  endloop
endfacet
facet normal 0.9701364539862658 -0.2425598083915674 -3.117933080437487e-32
  outer loop
    vertex -338.8191857051273 10.97370215077745 15.000000000000004
    vertex -338.8518432203095 10.84308592797887 15.140000000000004
    vertex -338.8518432203095 10.84308592797887 15.000000000000004
  endloop
endfacet
facet normal 0.9701364539862658 -0.2425598083915674 -3.117933080437487e-32
  outer loop
    vertex -338.8518432203095 10.84308592797887 15.140000000000004
    vertex -338.8191857051273 10.97370215077745 15.000000000000004
    vertex -338.8191857051273 10.97370215077745 15.140000000000004
  endloop
endfacet
facet normal -0.39073407579024577 -0.9205036023918334 -1.909905223047797e-30
  outer loop
    vertex -338.14354876497043 11.021775120160045 15.140000000000004
    vertex -338.2696123087457 11.075286396096278 15.000000000000004
    vertex -338.14354876497043 11.021775120160045 15.000000000000004
  endloop
endfacet
facet normal -0.39073407579024577 -0.9205036023918334 -1.909905223047797e-30
  outer loop
    vertex -338.2696123087457 11.075286396096278 15.000000000000004
    vertex -338.14354876497043 11.021775120160045 15.140000000000004
    vertex -338.2696123087457 11.075286396096278 15.140000000000004
  endloop
endfacet
facet normal 0.6976029698198019 0.7164845403067625 1.6596989180273063e-30
  outer loop
    vertex -338.8147714054057 10.715209615352348 15.140000000000004
    vertex -338.71710329432267 10.620115359279472 15.000000000000004
    vertex -338.8147714054057 10.715209615352348 15.000000000000004
  endloop
endfacet
facet normal 0.6976029698198019 0.7164845403067625 1.6596989180273063e-30
  outer loop
    vertex -338.71710329432267 10.620115359279472 15.000000000000004
    vertex -338.8147714054057 10.715209615352348 15.140000000000004
    vertex -338.71710329432267 10.620115359279472 15.140000000000004
  endloop
endfacet
facet normal -0.08810973090857273 -0.9961107746225913 -1.919523814464334e-30
  outer loop
    vertex -338.3793470949299 11.104304535645873 15.140000000000004
    vertex -338.4818169677791 11.113368379901946 15.000000000000004
    vertex -338.3793470949299 11.104304535645873 15.000000000000004
  endloop
endfacet
facet normal -0.08810973090857273 -0.9961107746225913 -1.919523814464334e-30
  outer loop
    vertex -338.4818169677791 11.113368379901946 15.000000000000004
    vertex -338.3793470949299 11.104304535645873 15.140000000000004
    vertex -338.4818169677791 11.113368379901946 15.140000000000004
  endloop
endfacet
endsolid RMP_Front
