solid RMP_Front
facet normal -1.0 0.0 0.0
  outer loop
    vertex -214.91486046405768 15.599999999999918 8.000000000000004
    vertex -214.91486046405768 4.399999999999916 0.0
    vertex -214.91486046405768 4.399999999999916 8.000000000000004
  endloop
endfacet
facet normal -1.0 0.0 0.0
  outer loop
    vertex -214.91486046405768 4.399999999999916 0.0
    vertex -214.91486046405768 15.599999999999918 8.000000000000004
    vertex -214.91486046405768 15.599999999999918 0.0
  endloop
endfacet
facet normal 1.0 0.0 0.0
  outer loop
    vertex -201.11486046405767 15.599999999999918 0.0
    vertex -201.11486046405767 4.399999999999916 8.000000000000004
    vertex -201.11486046405767 4.399999999999916 0.0
  endloop
endfacet
facet normal 1.0 0.0 0.0
  outer loop
    vertex -201.11486046405767 4.399999999999916 8.000000000000004
    vertex -201.11486046405767 15.599999999999918 0.0
    vertex -201.11486046405767 15.599999999999918 8.000000000000004
  endloop
endfacet
facet normal 1.0 0.0 0.0
  outer loop
    vertex -201.86486046405767 15.349999999999918 8.000000000000004
    vertex -201.86486046405767 4.649999999999915 15.000000000000004
    vertex -201.86486046405767 4.649999999999915 8.000000000000004
  endloop
endfacet
facet normal 1.0 0.0 0.0
  outer loop
    vertex -201.86486046405767 4.649999999999915 15.000000000000004
    vertex -201.86486046405767 15.349999999999918 8.000000000000004
    vertex -201.86486046405767 15.349999999999918 15.000000000000004
  endloop
endfacet
facet normal -1.0 0.0 0.0
  outer loop
    vertex -214.16486046405765 15.349999999999918 15.000000000000004
    vertex -214.16486046405765 4.649999999999915 8.000000000000004
    vertex -214.16486046405765 4.649999999999915 15.000000000000004
  endloop
endfacet
facet normal -1.0 0.0 0.0
  outer loop
    vertex -214.16486046405765 4.649999999999915 8.000000000000004
    vertex -214.16486046405765 15.349999999999918 15.000000000000004
    vertex -214.16486046405765 15.349999999999918 8.000000000000004
  endloop
endfacet
facet normal 0.0 -1.0 0.0
  outer loop
    vertex -201.11486046405767 4.399999999999916 8.000000000000004
    vertex -214.91486046405768 4.399999999999916 0.0
    vertex -201.11486046405767 4.399999999999916 0.0
  endloop
endfacet
facet normal 0.0 -1.0 0.0
  outer loop
    vertex -214.91486046405768 4.399999999999916 0.0
    vertex -201.11486046405767 4.399999999999916 8.000000000000004
    vertex -214.91486046405768 4.399999999999916 8.000000000000004
  endloop
endfacet
facet normal 0.0 0.0 -1.0
  outer loop
    vertex -214.91486046405768 15.599999999999918 0.0
    vertex -213.41486046405768 14.599999999999909 0.0
    vertex -214.91486046405768 4.399999999999916 0.0
  endloop
endfacet
facet normal 0.0 0.0 -1.0
  outer loop
    vertex -213.41486046405768 14.599999999999909 0.0
    vertex -214.91486046405768 15.599999999999918 0.0
    vertex -201.11486046405767 15.599999999999918 0.0
  endloop
endfacet
facet normal 0.0 0.0 -1.0
  outer loop
    vertex -213.41486046405768 14.599999999999909 0.0
    vertex -201.11486046405767 15.599999999999918 0.0
    vertex -202.61486046405767 14.599999999999909 0.0
  endloop
endfacet
facet normal 0.0 0.0 -1.0
  outer loop
    vertex -202.61486046405767 14.599999999999909 0.0
    vertex -201.11486046405767 15.599999999999918 0.0
    vertex -202.61486046405767 5.399999999999914 0.0
  endloop
endfacet
facet normal 0.0 0.0 -1.0
  outer loop
    vertex -214.91486046405768 4.399999999999916 0.0
    vertex -213.41486046405768 5.399999999999914 0.0
    vertex -201.11486046405767 4.399999999999916 0.0
  endloop
endfacet
facet normal 0.0 0.0 -1.0
  outer loop
    vertex -213.41486046405768 5.399999999999914 0.0
    vertex -214.91486046405768 4.399999999999916 0.0
    vertex -213.41486046405768 14.599999999999909 0.0
  endloop
endfacet
facet normal 0.0 0.0 -1.0
  outer loop
    vertex -201.11486046405767 4.399999999999916 0.0
    vertex -213.41486046405768 5.399999999999914 0.0
    vertex -202.61486046405767 5.399999999999914 0.0
  endloop
endfacet
facet normal 0.0 0.0 -1.0
  outer loop
    vertex -201.11486046405767 4.399999999999916 0.0
    vertex -202.61486046405767 5.399999999999914 0.0
    vertex -201.11486046405767 15.599999999999918 0.0
  endloop
endfacet
facet normal 0.0 0.0 1.0
  outer loop
    vertex -210.91996965075128 11.225386901781294 15.000000000000004
    vertex -210.14189051360555 10.013793088522185 15.000000000000004
    vertex -210.14189051360557 11.189103848896671 15.000000000000004
  endloop
endfacet
facet normal 0.0 0.0 1.0
  outer loop
    vertex -210.14189051360555 10.013793088522185 15.000000000000004
    vertex -210.91996965075128 11.225386901781294 15.000000000000004
    vertex -210.0530233261055 9.556726255273201 15.000000000000004
  endloop
endfacet
facet normal 0.0 0.0 1.0
  outer loop
    vertex -214.16486046405765 4.649999999999915 15.000000000000004
    vertex -211.45137384483024 8.469314027287364 15.000000000000004
    vertex -214.16486046405765 15.349999999999918 15.000000000000004
  endloop
endfacet
facet normal 0.0 0.0 1.0
  outer loop
    vertex -211.45137384483024 8.469314027287364 15.000000000000004
    vertex -214.16486046405765 4.649999999999915 15.000000000000004
    vertex -201.86486046405767 4.649999999999915 15.000000000000004
  endloop
endfacet
facet normal 0.0 0.0 1.0
  outer loop
    vertex -214.16486046405765 15.349999999999918 15.000000000000004
    vertex -211.45137384483024 8.469314027287364 15.000000000000004
    vertex -211.5112367307108 11.189131524756995 15.000000000000004
  endloop
endfacet
facet normal 0.0 0.0 1.0
  outer loop
    vertex -211.45137384483024 8.469314027287364 15.000000000000004
    vertex -201.86486046405767 4.649999999999915 15.000000000000004
    vertex -210.86555890935452 8.469314027287364 15.000000000000004
  endloop
endfacet
facet normal 0.0 0.0 1.0
  outer loop
    vertex -210.86555890935452 8.469314027287364 15.000000000000004
    vertex -201.86486046405767 4.649999999999915 15.000000000000004
    vertex -210.0820553035853 8.469314027287366 15.000000000000004
  endloop
endfacet
facet normal 0.0 0.0 1.0
  outer loop
    vertex -210.86555890935452 8.469314027287364 15.000000000000004
    vertex -210.0820553035853 8.469314027287366 15.000000000000004
    vertex -210.86555890935452 9.646451394443234 15.000000000000004
  endloop
endfacet
facet normal 0.0 0.0 1.0
  outer loop
    vertex -210.0820553035853 8.469314027287366 15.000000000000004
    vertex -201.86486046405767 4.649999999999915 15.000000000000004
    vertex -209.55790218491123 8.46931402728736 15.000000000000004
  endloop
endfacet
facet normal 0.0 0.0 1.0
  outer loop
    vertex -209.55790218491123 8.46931402728736 15.000000000000004
    vertex -201.86486046405767 4.649999999999915 15.000000000000004
    vertex -209.2383290257513 8.469314027287364 15.000000000000004
  endloop
endfacet
facet normal 0.0 0.0 1.0
  outer loop
    vertex -209.2383290257513 8.469314027287364 15.000000000000004
    vertex -201.86486046405767 4.649999999999915 15.000000000000004
    vertex -208.65912862089303 8.46931402728737 15.000000000000004
  endloop
endfacet
facet normal 0.0 0.0 1.0
  outer loop
    vertex -208.65912862089303 8.46931402728737 15.000000000000004
    vertex -201.86486046405767 4.649999999999915 15.000000000000004
    vertex -207.6670043800023 8.469314027287362 15.000000000000004
  endloop
endfacet
facet normal 0.0 0.0 1.0
  outer loop
    vertex -208.65912862089303 8.46931402728737 15.000000000000004
    vertex -207.6670043800023 8.469314027287362 15.000000000000004
    vertex -208.4759421014092 9.243352488825826 15.000000000000004
  endloop
endfacet
facet normal 0.0 0.0 1.0
  outer loop
    vertex -208.4759421014092 9.243352488825826 15.000000000000004
    vertex -207.6670043800023 8.469314027287362 15.000000000000004
    vertex -207.8556430439699 9.243352488825831 15.000000000000004
  endloop
endfacet
facet normal 0.0 0.0 1.0
  outer loop
    vertex -207.6670043800023 8.469314027287362 15.000000000000004
    vertex -201.86486046405767 4.649999999999915 15.000000000000004
    vertex -207.06123514923308 8.469314027287364 15.000000000000004
  endloop
endfacet
facet normal 0.0 0.0 1.0
  outer loop
    vertex -207.06123514923308 8.469314027287364 15.000000000000004
    vertex -201.86486046405767 4.649999999999915 15.000000000000004
    vertex -206.0852182590509 8.470005923795462 15.000000000000004
  endloop
endfacet
facet normal 0.0 0.0 1.0
  outer loop
    vertex -207.06123514923308 8.469314027287364 15.000000000000004
    vertex -206.0852182590509 8.470005923795462 15.000000000000004
    vertex -206.94352971527553 11.189131524757 15.000000000000004
  endloop
endfacet
facet normal 0.0 0.0 1.0
  outer loop
    vertex -206.0852182590509 8.470005923795462 15.000000000000004
    vertex -201.86486046405767 4.649999999999915 15.000000000000004
    vertex -205.44645940277564 8.439202691254978 15.000000000000004
  endloop
endfacet
facet normal 0.0 0.0 1.0
  outer loop
    vertex -205.44645940277564 8.439202691254978 15.000000000000004
    vertex -201.86486046405767 4.649999999999915 15.000000000000004
    vertex -205.39564652322096 8.832559694038384 15.000000000000004
  endloop
endfacet
facet normal 0.0 0.0 1.0
  outer loop
    vertex -205.39564652322096 8.832559694038384 15.000000000000004
    vertex -201.86486046405767 4.649999999999915 15.000000000000004
    vertex -204.64621190151044 11.190404614331898 15.000000000000004
  endloop
endfacet
facet normal 0.0 0.0 1.0
  outer loop
    vertex -211.5112367307108 11.189131524756995 15.000000000000004
    vertex -201.86486046405767 15.349999999999918 15.000000000000004
    vertex -214.16486046405765 15.349999999999918 15.000000000000004
  endloop
endfacet
facet normal 0.0 0.0 1.0
  outer loop
    vertex -201.86486046405767 15.349999999999918 15.000000000000004
    vertex -211.5112367307108 11.189131524756995 15.000000000000004
    vertex -210.91996965075128 11.225386901781294 15.000000000000004
  endloop
endfacet
facet normal 0.0 0.0 1.0
  outer loop
    vertex -201.86486046405767 15.349999999999918 15.000000000000004
    vertex -210.91996965075128 11.225386901781294 15.000000000000004
    vertex -210.14189051360557 11.189103848896671 15.000000000000004
  endloop
endfacet
facet normal 0.0 0.0 1.0
  outer loop
    vertex -201.86486046405767 15.349999999999918 15.000000000000004
    vertex -210.14189051360557 11.189103848896671 15.000000000000004
    vertex -209.55790218491126 11.225386901781285 15.000000000000004
  endloop
endfacet
facet normal 0.0 0.0 1.0
  outer loop
    vertex -201.86486046405767 15.349999999999918 15.000000000000004
    vertex -209.55790218491126 11.225386901781285 15.000000000000004
    vertex -208.52896904978982 11.189131524756997 15.000000000000004
  endloop
endfacet
facet normal 0.0 0.0 1.0
  outer loop
    vertex -208.52896904978982 11.189131524756997 15.000000000000004
    vertex -209.55790218491126 11.225386901781285 15.000000000000004
    vertex -209.55790218491123 8.46931402728736 15.000000000000004
  endloop
endfacet
facet normal 0.0 0.0 1.0
  outer loop
    vertex -208.52896904978982 11.189131524756997 15.000000000000004
    vertex -209.55790218491123 8.46931402728736 15.000000000000004
    vertex -209.2383290257513 8.469314027287364 15.000000000000004
  endloop
endfacet
facet normal 0.0 0.0 1.0
  outer loop
    vertex -208.52896904978982 11.189131524756997 15.000000000000004
    vertex -209.2383290257513 8.469314027287364 15.000000000000004
    vertex -208.59428408015415 10.797462749453365 15.000000000000004
  endloop
endfacet
facet normal 0.0 0.0 1.0
  outer loop
    vertex -201.86486046405767 15.349999999999918 15.000000000000004
    vertex -208.52896904978982 11.189131524756997 15.000000000000004
    vertex -207.84316123096383 11.225386901781286 15.000000000000004
  endloop
endfacet
facet normal 0.0 0.0 1.0
  outer loop
    vertex -201.86486046405767 15.349999999999918 15.000000000000004
    vertex -207.84316123096383 11.225386901781286 15.000000000000004
    vertex -206.94352971527553 11.189131524757 15.000000000000004
  endloop
endfacet
facet normal 0.0 0.0 1.0
  outer loop
    vertex -206.94352971527553 11.189131524757 15.000000000000004
    vertex -207.84316123096383 11.225386901781286 15.000000000000004
    vertex -207.06123514923308 8.469314027287364 15.000000000000004
  endloop
endfacet
facet normal 0.0 0.0 1.0
  outer loop
    vertex -201.86486046405767 15.349999999999918 15.000000000000004
    vertex -206.94352971527553 11.189131524757 15.000000000000004
    vertex -206.3590155452351 11.22538690178129 15.000000000000004
  endloop
endfacet
facet normal 0.0 0.0 1.0
  outer loop
    vertex -201.86486046405767 15.349999999999918 15.000000000000004
    vertex -206.3590155452351 11.22538690178129 15.000000000000004
    vertex -205.22718356142943 11.190404614331898 15.000000000000004
  endloop
endfacet
facet normal 0.0 0.0 1.0
  outer loop
    vertex -205.22718356142943 11.190404614331898 15.000000000000004
    vertex -206.3590155452351 11.22538690178129 15.000000000000004
    vertex -205.9000944293444 9.738944119645664 15.000000000000004
  endloop
endfacet
facet normal 0.0 0.0 1.0
  outer loop
    vertex -205.22718356142943 11.190404614331898 15.000000000000004
    vertex -205.9000944293444 9.738944119645664 15.000000000000004
    vertex -205.6769993192736 9.739386933410856 15.000000000000004
  endloop
endfacet
facet normal 0.0 0.0 1.0
  outer loop
    vertex -205.6769993192736 9.739386933410856 15.000000000000004
    vertex -205.9000944293444 9.738944119645664 15.000000000000004
    vertex -205.80394849057924 8.941325825111253 15.000000000000004
  endloop
endfacet
facet normal 0.0 0.0 1.0
  outer loop
    vertex -201.86486046405767 15.349999999999918 15.000000000000004
    vertex -205.22718356142943 11.190404614331898 15.000000000000004
    vertex -204.64621190151044 11.190404614331898 15.000000000000004
  endloop
endfacet
facet normal 0.0 0.0 1.0
  outer loop
    vertex -201.86486046405767 15.349999999999918 15.000000000000004
    vertex -204.64621190151044 11.190404614331898 15.000000000000004
    vertex -201.86486046405767 4.649999999999915 15.000000000000004
  endloop
endfacet
facet normal 0.0 0.0 1.0
  outer loop
    vertex -210.0820553035853 8.469314027287366 15.000000000000004
    vertex -210.95987824133837 10.192385415192216 15.000000000000004
    vertex -210.86555890935452 9.646451394443234 15.000000000000004
  endloop
endfacet
facet normal 0.0 0.0 1.0
  outer loop
    vertex -211.45137384483024 10.759380765647688 15.000000000000004
    vertex -211.5112367307108 11.189131524756995 15.000000000000004
    vertex -211.45137384483024 8.469314027287364 15.000000000000004
  endloop
endfacet
facet normal 0.0 1.0 0.0
  outer loop
    vertex -214.91486046405768 15.599999999999918 8.000000000000004
    vertex -201.11486046405767 15.599999999999918 0.0
    vertex -214.91486046405768 15.599999999999918 0.0
  endloop
endfacet
facet normal 0.0 1.0 0.0
  outer loop
    vertex -201.11486046405767 15.599999999999918 0.0
    vertex -214.91486046405768 15.599999999999918 8.000000000000004
    vertex -201.11486046405767 15.599999999999918 8.000000000000004
  endloop
endfacet
facet normal -1.0 -1.2260723837164777e-15 -2.255973186038321e-15
  outer loop
    vertex -202.6148604640577 14.599999999999909 4.999999999999994
    vertex -202.61486046405767 5.399999999999914 0.0
    vertex -202.61486046405767 5.399999999999914 4.999999999999994
  endloop
endfacet
facet normal -1.0 -1.2260723837164777e-15 -2.255973186038321e-15
  outer loop
    vertex -202.61486046405767 5.399999999999914 0.0
    vertex -202.6148604640577 14.599999999999909 4.999999999999994
    vertex -202.61486046405767 14.599999999999909 0.0
  endloop
endfacet
facet normal 0.0 1.0 0.0
  outer loop
    vertex -213.41486046405768 5.399999999999914 4.999999999999994
    vertex -202.61486046405767 5.399999999999914 0.0
    vertex -213.41486046405768 5.399999999999914 0.0
  endloop
endfacet
facet normal 0.0 1.0 0.0
  outer loop
    vertex -202.61486046405767 5.399999999999914 0.0
    vertex -213.41486046405768 5.399999999999914 4.999999999999994
    vertex -202.61486046405767 5.399999999999914 4.999999999999994
  endloop
endfacet
facet normal 1.0 0.0 0.0
  outer loop
    vertex -213.41486046405768 14.599999999999909 0.0
    vertex -213.41486046405768 5.399999999999914 4.999999999999994
    vertex -213.41486046405768 5.399999999999914 0.0
  endloop
endfacet
facet normal 1.0 0.0 0.0
  outer loop
    vertex -213.41486046405768 5.399999999999914 4.999999999999994
    vertex -213.41486046405768 14.599999999999909 0.0
    vertex -213.41486046405768 14.599999999999909 4.999999999999994
  endloop
endfacet
facet normal 0.0 -1.0 0.0
  outer loop
    vertex -202.6148604640577 14.599999999999909 4.999999999999994
    vertex -213.41486046405768 14.599999999999909 0.0
    vertex -202.61486046405767 14.599999999999909 0.0
  endloop
endfacet
facet normal 0.0 -1.0 0.0
  outer loop
    vertex -213.41486046405768 14.599999999999909 0.0
    vertex -202.6148604640577 14.599999999999909 4.999999999999994
    vertex -213.41486046405768 14.599999999999909 4.999999999999994
  endloop
endfacet
facet normal 0.0 -1.0 0.0
  outer loop
    vertex -201.86486046405767 4.649999999999915 15.000000000000004
    vertex -214.16486046405765 4.649999999999915 8.000000000000004
    vertex -201.86486046405767 4.649999999999915 8.000000000000004
  endloop
endfacet
facet normal 0.0 -1.0 0.0
  outer loop
    vertex -214.16486046405765 4.649999999999915 8.000000000000004
    vertex -201.86486046405767 4.649999999999915 15.000000000000004
    vertex -214.16486046405765 4.649999999999915 15.000000000000004
  endloop
endfacet
facet normal 0.0 0.0 1.0
  outer loop
    vertex -214.91486046405768 4.399999999999916 8.000000000000004
    vertex -214.16486046405765 4.649999999999915 8.000000000000004
    vertex -214.91486046405768 15.599999999999918 8.000000000000004
  endloop
endfacet
facet normal 0.0 0.0 1.0
  outer loop
    vertex -214.16486046405765 4.649999999999915 8.000000000000004
    vertex -214.91486046405768 4.399999999999916 8.000000000000004
    vertex -201.11486046405767 4.399999999999916 8.000000000000004
  endloop
endfacet
facet normal 0.0 0.0 1.0
  outer loop
    vertex -214.16486046405765 4.649999999999915 8.000000000000004
    vertex -201.11486046405767 4.399999999999916 8.000000000000004
    vertex -201.86486046405767 4.649999999999915 8.000000000000004
  endloop
endfacet
facet normal 0.0 0.0 1.0
  outer loop
    vertex -201.86486046405767 4.649999999999915 8.000000000000004
    vertex -201.11486046405767 4.399999999999916 8.000000000000004
    vertex -201.86486046405767 15.349999999999918 8.000000000000004
  endloop
endfacet
facet normal 0.0 0.0 1.0
  outer loop
    vertex -214.91486046405768 15.599999999999918 8.000000000000004
    vertex -214.16486046405765 15.349999999999918 8.000000000000004
    vertex -201.11486046405767 15.599999999999918 8.000000000000004
  endloop
endfacet
facet normal 0.0 0.0 1.0
  outer loop
    vertex -214.16486046405765 15.349999999999918 8.000000000000004
    vertex -214.91486046405768 15.599999999999918 8.000000000000004
    vertex -214.16486046405765 4.649999999999915 8.000000000000004
  endloop
endfacet
facet normal 0.0 0.0 1.0
  outer loop
    vertex -201.11486046405767 15.599999999999918 8.000000000000004
    vertex -214.16486046405765 15.349999999999918 8.000000000000004
    vertex -201.86486046405767 15.349999999999918 8.000000000000004
  endloop
endfacet
facet normal 0.0 0.0 1.0
  outer loop
    vertex -201.11486046405767 15.599999999999918 8.000000000000004
    vertex -201.86486046405767 15.349999999999918 8.000000000000004
    vertex -201.11486046405767 4.399999999999916 8.000000000000004
  endloop
endfacet
facet normal 0.0 1.0 0.0
  outer loop
    vertex -214.16486046405765 15.349999999999918 15.000000000000004
    vertex -201.86486046405767 15.349999999999918 8.000000000000004
    vertex -214.16486046405765 15.349999999999918 8.000000000000004
  endloop
endfacet
facet normal 0.0 1.0 0.0
  outer loop
    vertex -201.86486046405767 15.349999999999918 8.000000000000004
    vertex -214.16486046405765 15.349999999999918 15.000000000000004
    vertex -201.86486046405767 15.349999999999918 15.000000000000004
  endloop
endfacet
facet normal 0.0 0.0 1.0
  outer loop
    vertex -207.96263791998206 9.64011362242907 15.000000000000004
    vertex -208.23289269604484 10.26412124515174 15.000000000000004
    vertex -208.36891954953674 9.640113622429064 15.000000000000004
  endloop
endfacet
facet normal 0.0 0.0 1.0
  outer loop
    vertex -208.23289269604484 10.26412124515174 15.000000000000004
    vertex -207.96263791998206 9.64011362242907 15.000000000000004
    vertex -208.0932403048505 10.26412124515174 15.000000000000004
  endloop
endfacet
facet normal 0.0 0.0 1.0
  outer loop
    vertex -208.23289269604484 10.26412124515174 15.000000000000004
    vertex -208.0932403048505 10.26412124515174 15.000000000000004
    vertex -208.16215319705697 10.882704399250931 15.000000000000004
  endloop
endfacet
facet normal -1.0 -1.2260723837164777e-15 1.1949010519270743e-15
  outer loop
    vertex -202.61486046405767 14.599999999999909 14.44
    vertex -202.61486046405767 5.399999999999914 4.999999999999994
    vertex -202.61486046405767 5.399999999999914 14.44
  endloop
endfacet
facet normal -1.0 -1.2260723837164777e-15 1.1949010519270743e-15
  outer loop
    vertex -202.61486046405767 5.399999999999914 4.999999999999994
    vertex -202.61486046405767 14.599999999999909 14.44
    vertex -202.6148604640577 14.599999999999909 4.999999999999994
  endloop
endfacet
facet normal 1.0 0.0 0.0
  outer loop
    vertex -213.41486046405768 14.599999999999909 4.999999999999994
    vertex -213.41486046405768 5.399999999999914 14.44
    vertex -213.41486046405768 5.399999999999914 4.999999999999994
  endloop
endfacet
facet normal 1.0 0.0 0.0
  outer loop
    vertex -213.41486046405768 5.399999999999914 14.44
    vertex -213.41486046405768 14.599999999999909 4.999999999999994
    vertex -213.41486046405768 14.599999999999909 14.44
  endloop
endfacet
facet normal 0.0 0.0 -1.0
  outer loop
    vertex -213.41486046405768 14.599999999999909 14.44
    vertex -211.5112367307108 11.189131524756997 14.44
    vertex -213.41486046405768 5.399999999999914 14.44
  endloop
endfacet
facet normal 0.0 0.0 -1.0
  outer loop
    vertex -211.5112367307108 11.189131524756997 14.44
    vertex -213.41486046405768 14.599999999999909 14.44
    vertex -202.61486046405767 14.599999999999909 14.44
  endloop
endfacet
facet normal 0.0 0.0 -1.0
  outer loop
    vertex -211.5112367307108 11.189131524756997 14.44
    vertex -202.61486046405767 14.599999999999909 14.44
    vertex -210.91996965075128 11.225386901781295 14.44
  endloop
endfacet
facet normal 0.0 0.0 -1.0
  outer loop
    vertex -210.91996965075128 11.225386901781295 14.44
    vertex -202.61486046405767 14.599999999999909 14.44
    vertex -210.14189051360566 11.189103848896668 14.44
  endloop
endfacet
facet normal 0.0 0.0 -1.0
  outer loop
    vertex -210.14189051360566 11.189103848896668 14.44
    vertex -202.61486046405767 14.599999999999909 14.44
    vertex -209.5579021849113 11.225386901781285 14.44
  endloop
endfacet
facet normal 0.0 0.0 -1.0
  outer loop
    vertex -209.5579021849113 11.225386901781285 14.44
    vertex -202.61486046405767 14.599999999999909 14.44
    vertex -208.52896904978982 11.189131524756997 14.44
  endloop
endfacet
facet normal 0.0 0.0 -1.0
  outer loop
    vertex -209.5579021849113 11.225386901781285 14.44
    vertex -208.52896904978982 11.189131524756997 14.44
    vertex -209.55790218491123 8.469314027287366 14.44
  endloop
endfacet
facet normal 0.0 0.0 -1.0
  outer loop
    vertex -209.55790218491123 8.469314027287366 14.44
    vertex -208.52896904978982 11.189131524756997 14.44
    vertex -209.2383290257513 8.469314027287364 14.44
  endloop
endfacet
facet normal 0.0 0.0 -1.0
  outer loop
    vertex -209.2383290257513 8.469314027287364 14.44
    vertex -208.52896904978982 11.189131524756997 14.44
    vertex -208.5942840801542 10.797462749453366 14.44
  endloop
endfacet
facet normal 0.0 0.0 -1.0
  outer loop
    vertex -208.52896904978982 11.189131524756997 14.44
    vertex -202.61486046405767 14.599999999999909 14.44
    vertex -207.84316123096383 11.225386901781286 14.44
  endloop
endfacet
facet normal 0.0 0.0 -1.0
  outer loop
    vertex -207.84316123096383 11.225386901781286 14.44
    vertex -202.61486046405767 14.599999999999909 14.44
    vertex -206.94352971527553 11.189131524757002 14.44
  endloop
endfacet
facet normal 0.0 0.0 -1.0
  outer loop
    vertex -207.84316123096383 11.225386901781286 14.44
    vertex -206.94352971527553 11.189131524757002 14.44
    vertex -207.06123514923308 8.469314027287366 14.44
  endloop
endfacet
facet normal 0.0 0.0 -1.0
  outer loop
    vertex -206.94352971527553 11.189131524757002 14.44
    vertex -202.61486046405767 14.599999999999909 14.44
    vertex -206.3590155452351 11.225386901781294 14.44
  endloop
endfacet
facet normal 0.0 0.0 -1.0
  outer loop
    vertex -206.3590155452351 11.225386901781294 14.44
    vertex -202.61486046405767 14.599999999999909 14.44
    vertex -205.22718356142943 11.190404614331898 14.44
  endloop
endfacet
facet normal 0.0 0.0 -1.0
  outer loop
    vertex -206.3590155452351 11.225386901781294 14.44
    vertex -205.22718356142943 11.190404614331898 14.44
    vertex -205.9000944293444 9.738944119645664 14.440000000000003
  endloop
endfacet
facet normal 0.0 0.0 -1.0
  outer loop
    vertex -205.9000944293444 9.738944119645664 14.440000000000003
    vertex -205.22718356142943 11.190404614331898 14.44
    vertex -205.6769993192736 9.739386933410858 14.44
  endloop
endfacet
facet normal 0.0 0.0 -1.0
  outer loop
    vertex -205.9000944293444 9.738944119645664 14.440000000000003
    vertex -205.6769993192736 9.739386933410858 14.44
    vertex -205.80394849057924 8.941325825111266 14.44
  endloop
endfacet
facet normal 0.0 0.0 -1.0
  outer loop
    vertex -205.22718356142943 11.190404614331898 14.44
    vertex -202.61486046405767 14.599999999999909 14.44
    vertex -204.64621190151044 11.190404614331895 14.44
  endloop
endfacet
facet normal 0.0 0.0 -1.0
  outer loop
    vertex -213.41486046405768 5.399999999999914 14.44
    vertex -211.45137384483024 8.469314027287364 14.44
    vertex -202.61486046405767 5.399999999999914 14.44
  endloop
endfacet
facet normal 0.0 0.0 -1.0
  outer loop
    vertex -211.45137384483024 8.469314027287364 14.44
    vertex -213.41486046405768 5.399999999999914 14.44
    vertex -211.5112367307108 11.189131524756997 14.44
  endloop
endfacet
facet normal 0.0 0.0 -1.0
  outer loop
    vertex -211.45137384483024 8.469314027287364 14.44
    vertex -211.5112367307108 11.189131524756997 14.44
    vertex -211.45137384483024 10.759380765647684 14.44
  endloop
endfacet
facet normal 0.0 0.0 -1.0
  outer loop
    vertex -202.61486046405767 5.399999999999914 14.44
    vertex -211.45137384483024 8.469314027287364 14.44
    vertex -210.86555890935452 8.469314027287364 14.44
  endloop
endfacet
facet normal 0.0 0.0 -1.0
  outer loop
    vertex -202.61486046405767 5.399999999999914 14.44
    vertex -210.86555890935452 8.469314027287364 14.44
    vertex -210.08205530358526 8.469314027287371 14.44
  endloop
endfacet
facet normal 0.0 0.0 -1.0
  outer loop
    vertex -202.61486046405767 5.399999999999914 14.44
    vertex -210.08205530358526 8.469314027287371 14.44
    vertex -209.55790218491123 8.469314027287366 14.44
  endloop
endfacet
facet normal 0.0 0.0 -1.0
  outer loop
    vertex -202.61486046405767 5.399999999999914 14.44
    vertex -209.55790218491123 8.469314027287366 14.44
    vertex -209.2383290257513 8.469314027287364 14.44
  endloop
endfacet
facet normal 0.0 0.0 -1.0
  outer loop
    vertex -202.61486046405767 5.399999999999914 14.44
    vertex -209.2383290257513 8.469314027287364 14.44
    vertex -208.65912862089297 8.469314027287359 14.44
  endloop
endfacet
facet normal 0.0 0.0 -1.0
  outer loop
    vertex -202.61486046405767 5.399999999999914 14.44
    vertex -208.65912862089297 8.469314027287359 14.44
    vertex -207.66700438000234 8.469314027287364 14.44
  endloop
endfacet
facet normal 0.0 0.0 -1.0
  outer loop
    vertex -207.66700438000234 8.469314027287364 14.44
    vertex -208.65912862089297 8.469314027287359 14.44
    vertex -208.47594210140915 9.243352488825815 14.44
  endloop
endfacet
facet normal 0.0 0.0 -1.0
  outer loop
    vertex -207.66700438000234 8.469314027287364 14.44
    vertex -208.47594210140915 9.243352488825815 14.44
    vertex -207.85564304396996 9.243352488825819 14.44
  endloop
endfacet
facet normal 0.0 0.0 -1.0
  outer loop
    vertex -202.61486046405767 5.399999999999914 14.44
    vertex -207.66700438000234 8.469314027287364 14.44
    vertex -207.06123514923308 8.469314027287366 14.44
  endloop
endfacet
facet normal 0.0 0.0 -1.0
  outer loop
    vertex -202.61486046405767 5.399999999999914 14.44
    vertex -207.06123514923308 8.469314027287366 14.44
    vertex -206.08521825905092 8.470005923795464 14.44
  endloop
endfacet
facet normal 0.0 0.0 -1.0
  outer loop
    vertex -206.08521825905092 8.470005923795464 14.44
    vertex -207.06123514923308 8.469314027287366 14.44
    vertex -206.94352971527553 11.189131524757002 14.44
  endloop
endfacet
facet normal 0.0 0.0 -1.0
  outer loop
    vertex -202.61486046405767 5.399999999999914 14.44
    vertex -206.08521825905092 8.470005923795464 14.44
    vertex -205.4464594027757 8.439202691254978 14.44
  endloop
endfacet
facet normal 0.0 0.0 -1.0
  outer loop
    vertex -202.61486046405767 5.399999999999914 14.44
    vertex -205.4464594027757 8.439202691254978 14.44
    vertex -205.3956465232209 8.832559694038377 14.44
  endloop
endfacet
facet normal 0.0 0.0 -1.0
  outer loop
    vertex -202.61486046405767 5.399999999999914 14.44
    vertex -205.3956465232209 8.832559694038377 14.44
    vertex -204.64621190151044 11.190404614331895 14.44
  endloop
endfacet
facet normal 0.0 0.0 -1.0
  outer loop
    vertex -202.61486046405767 5.399999999999914 14.44
    vertex -204.64621190151044 11.190404614331895 14.44
    vertex -202.61486046405767 14.599999999999909 14.44
  endloop
endfacet
facet normal 0.0 0.0 -1.0
  outer loop
    vertex -210.91996965075128 11.225386901781295 14.44
    vertex -210.14189051360557 10.01379308852218 14.44
    vertex -210.05302332610555 9.556726255273198 14.44
  endloop
endfacet
facet normal 0.0 0.0 -1.0
  outer loop
    vertex -210.14189051360557 10.01379308852218 14.44
    vertex -210.91996965075128 11.225386901781295 14.44
    vertex -210.14189051360566 11.189103848896668 14.44
  endloop
endfacet
facet normal 0.0 0.0 -1.0
  outer loop
    vertex -210.08205530358526 8.469314027287371 14.44
    vertex -210.86555890935463 9.646451394443222 14.44
    vertex -210.95987824133843 10.19238541519221 14.44
  endloop
endfacet
facet normal 0.0 0.0 -1.0
  outer loop
    vertex -210.86555890935463 9.646451394443222 14.44
    vertex -210.08205530358526 8.469314027287371 14.44
    vertex -210.86555890935452 8.469314027287364 14.44
  endloop
endfacet
facet normal 0.0 1.0 0.0
  outer loop
    vertex -213.41486046405768 5.399999999999914 14.44
    vertex -202.61486046405767 5.399999999999914 4.999999999999994
    vertex -213.41486046405768 5.399999999999914 4.999999999999994
  endloop
endfacet
facet normal 0.0 1.0 0.0
  outer loop
    vertex -202.61486046405767 5.399999999999914 4.999999999999994
    vertex -213.41486046405768 5.399999999999914 14.44
    vertex -202.61486046405767 5.399999999999914 14.44
  endloop
endfacet
facet normal 0.0 -1.0 0.0
  outer loop
    vertex -202.61486046405767 14.599999999999909 14.44
    vertex -213.41486046405768 14.599999999999909 4.999999999999994
    vertex -202.6148604640577 14.599999999999909 4.999999999999994
  endloop
endfacet
facet normal 0.0 -1.0 0.0
  outer loop
    vertex -213.41486046405768 14.599999999999909 4.999999999999994
    vertex -202.61486046405767 14.599999999999909 14.44
    vertex -213.41486046405768 14.599999999999909 14.44
  endloop
endfacet
facet normal 0.0 0.0 -1.0
  outer loop
    vertex -208.23289269604484 10.264121245151738 14.44
    vertex -207.96263791998206 9.64011362242907 14.44
    vertex -208.36891954953674 9.640113622429064 14.44
  endloop
endfacet
facet normal 0.0 0.0 -1.0
  outer loop
    vertex -207.96263791998206 9.64011362242907 14.44
    vertex -208.23289269604484 10.264121245151738 14.44
    vertex -208.0932403048505 10.264121245151742 14.44
  endloop
endfacet
facet normal 0.0 0.0 -1.0
  outer loop
    vertex -208.0932403048505 10.264121245151742 14.44
    vertex -208.23289269604484 10.264121245151738 14.44
    vertex -208.16215319705697 10.882704399250931 14.44
  endloop
endfacet
facet normal -0.9770549630280813 0.212987321740509 -2.7316386537744404e-16
  outer loop
    vertex -208.23289269604484 10.26412124515174 15.000000000000004
    vertex -208.36891954953674 9.640113622429064 14.44
    vertex -208.36891954953674 9.640113622429064 15.000000000000004
  endloop
endfacet
facet normal -0.9770549630280813 0.212987321740509 -2.7316386537744404e-16
  outer loop
    vertex -208.36891954953674 9.640113622429064 14.44
    vertex -208.23289269604484 10.26412124515174 15.000000000000004
    vertex -208.23289269604484 10.264121245151738 14.44
  endloop
endfacet
facet normal -0.9935246467856303 0.1136167955431268 -1.3938205975425778e-16
  outer loop
    vertex -208.23289269604484 10.26412124515174 15.000000000000004
    vertex -208.16215319705697 10.882704399250931 14.44
    vertex -208.23289269604484 10.264121245151738 14.44
  endloop
endfacet
facet normal -0.9935246467856303 0.1136167955431268 -1.3938205975425778e-16
  outer loop
    vertex -208.16215319705697 10.882704399250931 14.44
    vertex -208.23289269604484 10.26412124515174 15.000000000000004
    vertex -208.16215319705697 10.882704399250931 15.000000000000004
  endloop
endfacet
facet normal 1.0411373333463818e-14 -1.0 0.0
  outer loop
    vertex -207.96263791998206 9.64011362242907 15.000000000000004
    vertex -208.36891954953674 9.640113622429064 14.44
    vertex -207.96263791998206 9.64011362242907 14.44
  endloop
endfacet
facet normal 1.0411373333463818e-14 -1.0 0.0
  outer loop
    vertex -208.36891954953674 9.640113622429064 14.44
    vertex -207.96263791998206 9.64011362242907 15.000000000000004
    vertex -208.36891954953674 9.640113622429064 15.000000000000004
  endloop
endfacet
facet normal 0.9638016619259561 -0.2666202476721621 -3.921367083790064e-14
  outer loop
    vertex -208.5942840801542 10.797462749453366 14.44
    vertex -209.2383290257513 8.469314027287364 15.000000000000004
    vertex -209.2383290257513 8.469314027287364 14.44
  endloop
endfacet
facet normal 0.9638016619259561 -0.2666202476721621 -3.921367083790064e-14
  outer loop
    vertex -209.2383290257513 8.469314027287364 15.000000000000004
    vertex -208.5942840801542 10.797462749453366 14.44
    vertex -208.59428408015415 10.797462749453365 15.000000000000004
  endloop
endfacet
facet normal 0.9863788496551642 -0.16448940681075772 -3.99505427332427e-14
  outer loop
    vertex -208.5942840801542 10.797462749453366 14.44
    vertex -208.52896904978982 11.189131524756997 15.000000000000004
    vertex -208.59428408015415 10.797462749453365 15.000000000000004
  endloop
endfacet
facet normal 0.9863788496551642 -0.16448940681075772 -3.99505427332427e-14
  outer loop
    vertex -208.52896904978982 11.189131524756997 15.000000000000004
    vertex -208.5942840801542 10.797462749453366 14.44
    vertex -208.52896904978982 11.189131524756997 14.44
  endloop
endfacet
facet normal 0.05279149633996606 -0.9986055567210647 0.0
  outer loop
    vertex -207.84316123096383 11.225386901781286 15.000000000000004
    vertex -208.52896904978982 11.189131524756997 14.44
    vertex -207.84316123096383 11.225386901781286 14.44
  endloop
endfacet
facet normal 0.05279149633996606 -0.9986055567210647 0.0
  outer loop
    vertex -208.52896904978982 11.189131524756997 14.44
    vertex -207.84316123096383 11.225386901781286 15.000000000000004
    vertex -208.52896904978982 11.189131524756997 15.000000000000004
  endloop
endfacet
facet normal -0.962031568074609 -0.27293820184779727 -3.6527271176425573e-16
  outer loop
    vertex -207.84316123096383 11.225386901781286 15.000000000000004
    vertex -207.06123514923308 8.469314027287366 14.44
    vertex -207.06123514923308 8.469314027287364 15.000000000000004
  endloop
endfacet
facet normal -0.962031568074609 -0.27293820184779727 -3.6527271176425573e-16
  outer loop
    vertex -207.06123514923308 8.469314027287366 14.44
    vertex -207.84316123096383 11.225386901781286 15.000000000000004
    vertex -207.84316123096383 11.225386901781286 14.44
  endloop
endfacet
facet normal -3.4913870736306908e-15 1.0 3.776740824841051e-15
  outer loop
    vertex -207.6670043800023 8.469314027287362 15.000000000000004
    vertex -207.06123514923308 8.469314027287366 14.44
    vertex -207.66700438000234 8.469314027287364 14.44
  endloop
endfacet
facet normal -3.4913870736306908e-15 1.0 3.776740824841051e-15
  outer loop
    vertex -207.06123514923308 8.469314027287366 14.44
    vertex -207.6670043800023 8.469314027287362 15.000000000000004
    vertex -207.06123514923308 8.469314027287364 15.000000000000004
  endloop
endfacet
facet normal 0.971564013481904 0.23677704218723353 -8.038474637477638e-14
  outer loop
    vertex -207.66700438000234 8.469314027287364 14.44
    vertex -207.8556430439699 9.243352488825831 15.000000000000004
    vertex -207.6670043800023 8.469314027287362 15.000000000000004
  endloop
endfacet
facet normal 0.971564013481904 0.23677704218723353 -8.038474637477638e-14
  outer loop
    vertex -207.8556430439699 9.243352488825831 15.000000000000004
    vertex -207.66700438000234 8.469314027287364 14.44
    vertex -207.85564304396996 9.243352488825819 14.44
  endloop
endfacet
facet normal -6.819210303630569e-15 1.0 -2.0142617732484855e-14
  outer loop
    vertex -208.4759421014092 9.243352488825826 15.000000000000004
    vertex -207.85564304396996 9.243352488825819 14.44
    vertex -208.47594210140915 9.243352488825815 14.44
  endloop
endfacet
facet normal -6.819210303630569e-15 1.0 -2.0142617732484855e-14
  outer loop
    vertex -207.85564304396996 9.243352488825819 14.44
    vertex -208.4759421014092 9.243352488825826 15.000000000000004
    vertex -207.8556430439699 9.243352488825831 15.000000000000004
  endloop
endfacet
facet normal -0.9731192884861065 0.23030165083275883 -8.246887510060945e-14
  outer loop
    vertex -208.65912862089303 8.46931402728737 15.000000000000004
    vertex -208.47594210140915 9.243352488825815 14.44
    vertex -208.65912862089297 8.469314027287359 14.44
  endloop
endfacet
facet normal -0.9731192884861065 0.23030165083275883 -8.246887510060945e-14
  outer loop
    vertex -208.47594210140915 9.243352488825815 14.44
    vertex -208.65912862089303 8.46931402728737 15.000000000000004
    vertex -208.4759421014092 9.243352488825826 15.000000000000004
  endloop
endfacet
facet normal -1.2171808146599042e-15 1.0 -8.812395257962172e-15
  outer loop
    vertex -209.2383290257513 8.469314027287364 15.000000000000004
    vertex -208.65912862089297 8.469314027287359 14.44
    vertex -209.2383290257513 8.469314027287364 14.44
  endloop
endfacet
facet normal -1.2171808146599042e-15 1.0 -8.812395257962172e-15
  outer loop
    vertex -208.65912862089297 8.469314027287359 14.44
    vertex -209.2383290257513 8.469314027287364 15.000000000000004
    vertex -208.65912862089303 8.46931402728737 15.000000000000004
  endloop
endfacet
facet normal 0.9787918398489451 0.2048573509667565 2.513135438915725e-16
  outer loop
    vertex -208.0932403048505 10.264121245151742 14.44
    vertex -207.96263791998206 9.64011362242907 15.000000000000004
    vertex -207.96263791998206 9.64011362242907 14.44
  endloop
endfacet
facet normal 0.9787918398489451 0.2048573509667565 2.513135438915725e-16
  outer loop
    vertex -207.96263791998206 9.64011362242907 15.000000000000004
    vertex -208.0932403048505 10.264121245151742 14.44
    vertex -208.0932403048505 10.26412124515174 15.000000000000004
  endloop
endfacet
facet normal 0.9938516993871246 0.11071946362462447 1.3582769009735858e-16
  outer loop
    vertex -208.0932403048505 10.264121245151742 14.44
    vertex -208.16215319705697 10.882704399250931 15.000000000000004
    vertex -208.0932403048505 10.26412124515174 15.000000000000004
  endloop
endfacet
facet normal 0.9938516993871246 0.11071946362462447 1.3582769009735858e-16
  outer loop
    vertex -208.16215319705697 10.882704399250931 15.000000000000004
    vertex -208.0932403048505 10.264121245151742 14.44
    vertex -208.16215319705697 10.882704399250931 14.44
  endloop
endfacet
facet normal 0.9536188912405303 0.30101662789484174 -3.725173797442672e-14
  outer loop
    vertex -206.08521825905092 8.470005923795464 14.44
    vertex -206.94352971527553 11.189131524757 15.000000000000004
    vertex -206.0852182590509 8.470005923795462 15.000000000000004
  endloop
endfacet
facet normal 0.9536188912405303 0.30101662789484174 -3.725173797442672e-14
  outer loop
    vertex -206.94352971527553 11.189131524757 15.000000000000004
    vertex -206.08521825905092 8.470005923795464 14.44
    vertex -206.94352971527553 11.189131524757002 14.44
  endloop
endfacet
facet normal 0.04816759553608761 0.9988392677204236 -1.3651414787272239e-15
  outer loop
    vertex -206.0852182590509 8.470005923795462 15.000000000000004
    vertex -205.4464594027757 8.439202691254978 14.44
    vertex -206.08521825905092 8.470005923795464 14.44
  endloop
endfacet
facet normal 0.04816759553608761 0.9988392677204236 -1.3651414787272239e-15
  outer loop
    vertex -205.4464594027757 8.439202691254978 14.44
    vertex -206.0852182590509 8.470005923795462 15.000000000000004
    vertex -205.44645940277564 8.439202691254978 15.000000000000004
  endloop
endfacet
facet normal 0.06190754138472241 -0.9980818885841476 -5.02986288451701e-15
  outer loop
    vertex -206.3590155452351 11.22538690178129 15.000000000000004
    vertex -206.94352971527553 11.189131524757002 14.44
    vertex -206.3590155452351 11.225386901781294 14.44
  endloop
endfacet
facet normal 0.06190754138472241 -0.9980818885841476 -5.02986288451701e-15
  outer loop
    vertex -206.94352971527553 11.189131524757002 14.44
    vertex -206.3590155452351 11.22538690178129 15.000000000000004
    vertex -206.94352971527553 11.189131524757 15.000000000000004
  endloop
endfacet
facet normal -0.9530178499651957 0.30291414236993963 -4.1462511694213806e-14
  outer loop
    vertex -205.39564652322096 8.832559694038384 15.000000000000004
    vertex -204.64621190151044 11.190404614331895 14.44
    vertex -205.3956465232209 8.832559694038377 14.44
  endloop
endfacet
facet normal -0.9530178499651957 0.30291414236993963 -4.1462511694213806e-14
  outer loop
    vertex -204.64621190151044 11.190404614331895 14.44
    vertex -205.39564652322096 8.832559694038384 15.000000000000004
    vertex -204.64621190151044 11.190404614331898 15.000000000000004
  endloop
endfacet
facet normal -0.9917595727289094 0.12811303563873266 -6.499788112961739e-16
  outer loop
    vertex -205.39564652322096 8.832559694038384 15.000000000000004
    vertex -205.4464594027757 8.439202691254978 14.44
    vertex -205.44645940277564 8.439202691254978 15.000000000000004
  endloop
endfacet
facet normal -0.9917595727289094 0.12811303563873266 -6.499788112961739e-16
  outer loop
    vertex -205.4464594027757 8.439202691254978 14.44
    vertex -205.39564652322096 8.832559694038384 15.000000000000004
    vertex -205.3956465232209 8.832559694038377 14.44
  endloop
endfacet
facet normal -0.9554977752194914 -0.2949983077080312 -7.263783583318647e-16
  outer loop
    vertex -206.3590155452351 11.22538690178129 15.000000000000004
    vertex -205.9000944293444 9.738944119645664 14.440000000000003
    vertex -205.9000944293444 9.738944119645664 15.000000000000004
  endloop
endfacet
facet normal -0.9554977752194914 -0.2949983077080312 -7.263783583318647e-16
  outer loop
    vertex -205.9000944293444 9.738944119645664 14.440000000000003
    vertex -206.3590155452351 11.22538690178129 15.000000000000004
    vertex -206.3590155452351 11.225386901781294 14.44
  endloop
endfacet
facet normal -0.9928131245271163 -0.11967497552414585 -1.2098368683264426e-15
  outer loop
    vertex -205.9000944293444 9.738944119645664 15.000000000000004
    vertex -205.80394849057924 8.941325825111266 14.44
    vertex -205.80394849057924 8.941325825111253 15.000000000000004
  endloop
endfacet
facet normal -0.9928131245271163 -0.11967497552414585 -1.2098368683264426e-15
  outer loop
    vertex -205.80394849057924 8.941325825111266 14.44
    vertex -205.9000944293444 9.738944119645664 15.000000000000004
    vertex -205.9000944293444 9.738944119645664 14.440000000000003
  endloop
endfacet
facet normal 0.9875832047614522 -0.15709682897213248 -1.9797826731440796e-15
  outer loop
    vertex -205.80394849057924 8.941325825111266 14.44
    vertex -205.6769993192736 9.739386933410856 15.000000000000004
    vertex -205.80394849057924 8.941325825111253 15.000000000000004
  endloop
endfacet
facet normal 0.9875832047614522 -0.15709682897213248 -1.9797826731440796e-15
  outer loop
    vertex -205.6769993192736 9.739386933410856 15.000000000000004
    vertex -205.80394849057924 8.941325825111266 14.44
    vertex -205.6769993192736 9.739386933410858 14.44
  endloop
endfacet
facet normal 0.9551572746498065 -0.2960989373225687 -7.595149757479936e-16
  outer loop
    vertex -205.6769993192736 9.739386933410858 14.44
    vertex -205.22718356142943 11.190404614331898 15.000000000000004
    vertex -205.6769993192736 9.739386933410856 15.000000000000004
  endloop
endfacet
facet normal 0.9551572746498065 -0.2960989373225687 -7.595149757479936e-16
  outer loop
    vertex -205.22718356142943 11.190404614331898 15.000000000000004
    vertex -205.6769993192736 9.739386933410858 14.44
    vertex -205.22718356142943 11.190404614331898 14.44
  endloop
endfacet
facet normal -3.640409692627368e-15 -1.0 3.77674082484091e-15
  outer loop
    vertex -204.64621190151044 11.190404614331898 15.000000000000004
    vertex -205.22718356142943 11.190404614331898 14.44
    vertex -204.64621190151044 11.190404614331895 14.44
  endloop
endfacet
facet normal -3.640409692627368e-15 -1.0 3.77674082484091e-15
  outer loop
    vertex -205.22718356142943 11.190404614331898 14.44
    vertex -204.64621190151044 11.190404614331898 15.000000000000004
    vertex -205.22718356142943 11.190404614331898 15.000000000000004
  endloop
endfacet
facet normal 0.8910328344149292 0.4539388593131207 -5.568801065995966e-16
  outer loop
    vertex -210.08205530358526 8.469314027287371 14.44
    vertex -210.95987824133837 10.192385415192216 15.000000000000004
    vertex -210.0820553035853 8.469314027287366 15.000000000000004
  endloop
endfacet
facet normal 0.8910328344149292 0.4539388593131207 -5.568801065995966e-16
  outer loop
    vertex -210.95987824133837 10.192385415192216 15.000000000000004
    vertex -210.08205530358526 8.469314027287371 14.44
    vertex -210.95987824133843 10.19238541519221 14.44
  endloop
endfacet
facet normal -0.9854017968268185 -0.17024482021629164 1.218800504903003e-13
  outer loop
    vertex -210.86555890935452 9.646451394443234 15.000000000000004
    vertex -210.95987824133843 10.19238541519221 14.44
    vertex -210.86555890935463 9.646451394443222 14.44
  endloop
endfacet
facet normal -0.9854017968268185 -0.17024482021629164 1.218800504903003e-13
  outer loop
    vertex -210.95987824133843 10.19238541519221 14.44
    vertex -210.86555890935452 9.646451394443234 15.000000000000004
    vertex -210.95987824133837 10.192385415192216 15.000000000000004
  endloop
endfacet
facet normal -1.0 -3.83298202738915e-14 8.05704709299398e-14
  outer loop
    vertex -210.86555890935452 9.646451394443234 15.000000000000004
    vertex -210.86555890935452 8.469314027287364 14.44
    vertex -210.86555890935452 8.469314027287364 15.000000000000004
  endloop
endfacet
facet normal -1.0 -3.83298202738915e-14 8.05704709299398e-14
  outer loop
    vertex -210.86555890935452 8.469314027287364 14.44
    vertex -210.86555890935452 9.646451394443234 15.000000000000004
    vertex -210.86555890935463 9.646451394443222 14.44
  endloop
endfacet
facet normal 0.0 1.0 0.0
  outer loop
    vertex -211.45137384483024 8.469314027287364 15.000000000000004
    vertex -210.86555890935452 8.469314027287364 14.44
    vertex -211.45137384483024 8.469314027287364 14.44
  endloop
endfacet
facet normal 0.0 1.0 0.0
  outer loop
    vertex -210.86555890935452 8.469314027287364 14.44
    vertex -211.45137384483024 8.469314027287364 15.000000000000004
    vertex -210.86555890935452 8.469314027287364 15.000000000000004
  endloop
endfacet
facet normal 1.0 0.0 0.0
  outer loop
    vertex -211.45137384483024 10.759380765647684 14.44
    vertex -211.45137384483024 8.469314027287364 15.000000000000004
    vertex -211.45137384483024 8.469314027287364 14.44
  endloop
endfacet
facet normal 1.0 0.0 0.0
  outer loop
    vertex -211.45137384483024 8.469314027287364 15.000000000000004
    vertex -211.45137384483024 10.759380765647684 14.44
    vertex -211.45137384483024 10.759380765647688 15.000000000000004
  endloop
endfacet
facet normal 0.990437149452294 0.13796468020770525 -3.84662264555855e-18
  outer loop
    vertex -211.5112367307108 11.189131524756997 14.44
    vertex -211.45137384483024 10.759380765647688 15.000000000000004
    vertex -211.45137384483024 10.759380765647684 14.44
  endloop
endfacet
facet normal 0.990437149452294 0.13796468020770525 -3.84662264555855e-18
  outer loop
    vertex -211.45137384483024 10.759380765647688 15.000000000000004
    vertex -211.5112367307108 11.189131524756997 14.44
    vertex -211.5112367307108 11.189131524756995 15.000000000000004
  endloop
endfacet
facet normal 0.06120315399770581 -0.9981253297761424 -5.02312457142678e-15
  outer loop
    vertex -210.91996965075128 11.225386901781294 15.000000000000004
    vertex -211.5112367307108 11.189131524756997 14.44
    vertex -210.91996965075128 11.225386901781295 14.44
  endloop
endfacet
facet normal 0.06120315399770581 -0.9981253297761424 -5.02312457142678e-15
  outer loop
    vertex -211.5112367307108 11.189131524756997 14.44
    vertex -210.91996965075128 11.225386901781294 15.000000000000004
    vertex -211.5112367307108 11.189131524756995 15.000000000000004
  endloop
endfacet
facet normal -0.8873815693773687 -0.4610357364991983 3.629198690884689e-14
  outer loop
    vertex -210.0530233261055 9.556726255273201 15.000000000000004
    vertex -210.91996965075128 11.225386901781295 14.44
    vertex -210.05302332610555 9.556726255273198 14.44
  endloop
endfacet
facet normal -0.8873815693773687 -0.4610357364991983 3.629198690884689e-14
  outer loop
    vertex -210.91996965075128 11.225386901781295 14.44
    vertex -210.0530233261055 9.556726255273201 15.000000000000004
    vertex -210.91996965075128 11.225386901781294 15.000000000000004
  endloop
endfacet
facet normal 0.9816181736477785 0.19085534093757991 -8.076491929827142e-14
  outer loop
    vertex -210.14189051360557 10.01379308852218 14.44
    vertex -210.0530233261055 9.556726255273201 15.000000000000004
    vertex -210.05302332610555 9.556726255273198 14.44
  endloop
endfacet
facet normal 0.9816181736477785 0.19085534093757991 -8.076491929827142e-14
  outer loop
    vertex -210.0530233261055 9.556726255273201 15.000000000000004
    vertex -210.14189051360557 10.01379308852218 14.44
    vertex -210.14189051360555 10.013793088522185 15.000000000000004
  endloop
endfacet
facet normal 1.0 5.758408572689754e-14 -1.2085570639490956e-13
  outer loop
    vertex -210.14189051360566 11.189103848896668 14.44
    vertex -210.14189051360555 10.013793088522185 15.000000000000004
    vertex -210.14189051360557 10.01379308852218 14.44
  endloop
endfacet
facet normal 1.0 5.758408572689754e-14 -1.2085570639490956e-13
  outer loop
    vertex -210.14189051360555 10.013793088522185 15.000000000000004
    vertex -210.14189051360566 11.189103848896668 14.44
    vertex -210.14189051360557 11.189103848896671 15.000000000000004
  endloop
endfacet
facet normal 0.06201018918536654 -0.9980755164000342 -4.974763010641938e-15
  outer loop
    vertex -209.55790218491126 11.225386901781285 15.000000000000004
    vertex -210.14189051360566 11.189103848896668 14.44
    vertex -209.5579021849113 11.225386901781285 14.44
  endloop
endfacet
facet normal 0.06201018918536654 -0.9980755164000342 -4.974763010641938e-15
  outer loop
    vertex -210.14189051360566 11.189103848896668 14.44
    vertex -209.55790218491126 11.225386901781285 15.000000000000004
    vertex -210.14189051360557 11.189103848896671 15.000000000000004
  endloop
endfacet
facet normal -1.0 -2.455638826080641e-14 4.028523546496959e-14
  outer loop
    vertex -209.55790218491126 11.225386901781285 15.000000000000004
    vertex -209.55790218491123 8.469314027287366 14.44
    vertex -209.55790218491123 8.46931402728736 15.000000000000004
  endloop
endfacet
facet normal -1.0 -2.455638826080641e-14 4.028523546496959e-14
  outer loop
    vertex -209.55790218491123 8.469314027287366 14.44
    vertex -209.55790218491126 11.225386901781285 15.000000000000004
    vertex -209.5579021849113 11.225386901781285 14.44
  endloop
endfacet
facet normal 1.0760086631484631e-14 1.0 1.007130886624286e-14
  outer loop
    vertex -210.0820553035853 8.469314027287366 15.000000000000004
    vertex -209.55790218491123 8.469314027287366 14.44
    vertex -210.08205530358526 8.469314027287371 14.44
  endloop
endfacet
facet normal 1.0760086631484631e-14 1.0 1.007130886624286e-14
  outer loop
    vertex -209.55790218491123 8.469314027287366 14.44
    vertex -210.0820553035853 8.469314027287366 15.000000000000004
    vertex -209.55790218491123 8.46931402728736 15.000000000000004
  endloop
endfacet
endsolid RMP_Front
