solid RMP_Front
facet normal 0.9928131245271163 0.11967497552414438 0.0
  outer loop
    vertex -205.9000944293444 9.738944119645666 15.000000000000004
    vertex -205.80394849057924 8.941325825111251 15.140000000000004
    vertex -205.80394849057924 8.941325825111251 15.000000000000004
  endloop
endfacet
facet normal 0.9928131245271163 0.11967497552414438 0.0
  outer loop
    vertex -205.80394849057924 8.941325825111251 15.140000000000004
    vertex -205.9000944293444 9.738944119645666 15.000000000000004
    vertex -205.9000944293444 9.738944119645666 15.140000000000004
  endloop
endfacet
facet normal 0.9554977752194913 0.29499830770803165 0.0
  outer loop
    vertex -206.3590155452351 11.22538690178129 15.000000000000004
    vertex -205.9000944293444 9.738944119645666 15.140000000000004
    vertex -205.9000944293444 9.738944119645666 15.000000000000004
  endloop
endfacet
facet normal 0.9554977752194913 0.29499830770803165 0.0
  outer loop
    vertex -205.9000944293444 9.738944119645666 15.140000000000004
    vertex -206.3590155452351 11.22538690178129 15.000000000000004
    vertex -206.3590155452351 11.22538690178129 15.140000000000004
  endloop
endfacet
facet normal 0.9917595727289239 -0.12811303563862123 0.0
  outer loop
    vertex -205.3956465232209 8.832559694038377 15.000000000000004
    vertex -205.44645940277562 8.439202691254975 15.140000000000004
    vertex -205.44645940277562 8.439202691254975 15.000000000000004
  endloop
endfacet
facet normal 0.9917595727289239 -0.12811303563862123 0.0
  outer loop
    vertex -205.44645940277562 8.439202691254975 15.140000000000004
    vertex -205.3956465232209 8.832559694038377 15.000000000000004
    vertex -205.3956465232209 8.832559694038377 15.140000000000004
  endloop
endfacet
facet normal -0.04816759553608642 -0.9988392677204238 0.0
  outer loop
    vertex -205.44645940277562 8.439202691254975 15.140000000000004
    vertex -206.0852182590509 8.47000592379546 15.000000000000004
    vertex -205.44645940277562 8.439202691254975 15.000000000000004
  endloop
endfacet
facet normal -0.04816759553608642 -0.9988392677204238 0.0
  outer loop
    vertex -206.0852182590509 8.47000592379546 15.000000000000004
    vertex -205.44645940277562 8.439202691254975 15.140000000000004
    vertex -206.0852182590509 8.47000592379546 15.140000000000004
  endloop
endfacet
facet normal -0.9551572746498153 0.2960989373225397 0.0
  outer loop
    vertex -205.22718356142943 11.1904046143319 15.140000000000004
    vertex -205.67699931927356 9.739386933410849 15.000000000000004
    vertex -205.67699931927356 9.739386933410849 15.140000000000004
  endloop
endfacet
facet normal -0.9551572746498153 0.2960989373225397 0.0
  outer loop
    vertex -205.67699931927356 9.739386933410849 15.000000000000004
    vertex -205.22718356142943 11.1904046143319 15.140000000000004
    vertex -205.22718356142943 11.1904046143319 15.000000000000004
  endloop
endfacet
facet normal -0.06190754138471286 0.9980818885841483 0.0
  outer loop
    vertex -206.9435297152756 11.189131524757002 15.140000000000004
    vertex -206.3590155452351 11.22538690178129 15.000000000000004
    vertex -206.9435297152756 11.189131524757002 15.000000000000004
  endloop
endfacet
facet normal -0.06190754138471286 0.9980818885841483 0.0
  outer loop
    vertex -206.3590155452351 11.22538690178129 15.000000000000004
    vertex -206.9435297152756 11.189131524757002 15.140000000000004
    vertex -206.3590155452351 11.22538690178129 15.140000000000004
  endloop
endfacet
facet normal -0.9536188912405236 -0.30101662789486294 0.0
  outer loop
    vertex -206.9435297152756 11.189131524757002 15.140000000000004
    vertex -206.0852182590509 8.47000592379546 15.000000000000004
    vertex -206.0852182590509 8.47000592379546 15.140000000000004
  endloop
endfacet
facet normal -0.9536188912405236 -0.30101662789486294 0.0
  outer loop
    vertex -206.0852182590509 8.47000592379546 15.000000000000004
    vertex -206.9435297152756 11.189131524757002 15.140000000000004
    vertex -206.9435297152756 11.189131524757002 15.000000000000004
  endloop
endfacet
facet normal -0.9875832047614437 0.15709682897218694 0.0
  outer loop
    vertex -205.67699931927356 9.739386933410849 15.140000000000004
    vertex -205.80394849057924 8.941325825111251 15.000000000000004
    vertex -205.80394849057924 8.941325825111251 15.140000000000004
  endloop
endfacet
facet normal -0.9875832047614437 0.15709682897218694 0.0
  outer loop
    vertex -205.80394849057924 8.941325825111251 15.000000000000004
    vertex -205.67699931927356 9.739386933410849 15.140000000000004
    vertex -205.67699931927356 9.739386933410849 15.000000000000004
  endloop
endfacet
facet normal 0.9530178499651984 -0.30291414236993036 0.0
  outer loop
    vertex -204.64621190151044 11.1904046143319 15.000000000000004
    vertex -205.3956465232209 8.832559694038377 15.140000000000004
    vertex -205.3956465232209 8.832559694038377 15.000000000000004
  endloop
endfacet
facet normal 0.9530178499651984 -0.30291414236993036 0.0
  outer loop
    vertex -205.3956465232209 8.832559694038377 15.140000000000004
    vertex -204.64621190151044 11.1904046143319 15.000000000000004
    vertex -204.64621190151044 11.1904046143319 15.140000000000004
  endloop
endfacet
facet normal 0.0 0.0 1.0
  outer loop
    vertex -206.0852182590509 8.47000592379546 15.140000000000004
    vertex -206.3590155452351 11.22538690178129 15.140000000000004
    vertex -206.9435297152756 11.189131524757002 15.140000000000004
  endloop
endfacet
facet normal 0.0 0.0 1.0
  outer loop
    vertex -206.3590155452351 11.22538690178129 15.140000000000004
    vertex -206.0852182590509 8.47000592379546 15.140000000000004
    vertex -205.9000944293444 9.738944119645666 15.140000000000004
  endloop
endfacet
facet normal 0.0 0.0 1.0
  outer loop
    vertex -205.9000944293444 9.738944119645666 15.140000000000004
    vertex -206.0852182590509 8.47000592379546 15.140000000000004
    vertex -205.80394849057924 8.941325825111251 15.140000000000004
  endloop
endfacet
facet normal 0.0 0.0 1.0
  outer loop
    vertex -205.80394849057924 8.941325825111251 15.140000000000004
    vertex -206.0852182590509 8.47000592379546 15.140000000000004
    vertex -205.44645940277562 8.439202691254975 15.140000000000004
  endloop
endfacet
facet normal 0.0 0.0 1.0
  outer loop
    vertex -205.80394849057924 8.941325825111251 15.140000000000004
    vertex -205.44645940277562 8.439202691254975 15.140000000000004
    vertex -205.67699931927356 9.739386933410849 15.140000000000004
  endloop
endfacet
facet normal 0.0 0.0 1.0
  outer loop
    vertex -205.67699931927356 9.739386933410849 15.140000000000004
    vertex -205.44645940277562 8.439202691254975 15.140000000000004
    vertex -205.22718356142943 11.1904046143319 15.140000000000004
  endloop
endfacet
facet normal 0.0 0.0 1.0
  outer loop
    vertex -205.22718356142943 11.1904046143319 15.140000000000004
    vertex -205.44645940277562 8.439202691254975 15.140000000000004
    vertex -205.3956465232209 8.832559694038377 15.140000000000004
  endloop
endfacet
facet normal 0.0 0.0 1.0
  outer loop
    vertex -205.22718356142943 11.1904046143319 15.140000000000004
    vertex -205.3956465232209 8.832559694038377 15.140000000000004
    vertex -204.64621190151044 11.1904046143319 15.140000000000004
  endloop
endfacet
facet normal 0.977054963028081 -0.2129873217405092 0.0
  outer loop
    vertex -208.23289269604484 10.264121245151735 15.000000000000004
    vertex -208.36891954953674 9.640113622429062 15.140000000000004
    vertex -208.36891954953674 9.640113622429062 15.000000000000004
  endloop
endfacet
facet normal 0.977054963028081 -0.2129873217405092 0.0
  outer loop
    vertex -208.36891954953674 9.640113622429062 15.140000000000004
    vertex -208.23289269604484 10.264121245151735 15.000000000000004
    vertex -208.23289269604484 10.264121245151735 15.140000000000004
  endloop
endfacet
facet normal 0.0 1.0 0.0
  outer loop
    vertex -205.22718356142943 11.1904046143319 15.140000000000004
    vertex -204.64621190151044 11.1904046143319 15.000000000000004
    vertex -205.22718356142943 11.1904046143319 15.000000000000004
  endloop
endfacet
facet normal 0.0 1.0 0.0
  outer loop
    vertex -204.64621190151044 11.1904046143319 15.000000000000004
    vertex -205.22718356142943 11.1904046143319 15.140000000000004
    vertex -204.64621190151044 11.1904046143319 15.140000000000004
  endloop
endfacet
facet normal -0.9787918398489454 -0.2048573509667558 0.0
  outer loop
    vertex -208.0932403048505 10.264121245151735 15.140000000000004
    vertex -207.96263791998206 9.640113622429062 15.000000000000004
    vertex -207.96263791998206 9.640113622429062 15.140000000000004
  endloop
endfacet
facet normal -0.9787918398489454 -0.2048573509667558 0.0
  outer loop
    vertex -207.96263791998206 9.640113622429062 15.000000000000004
    vertex -208.0932403048505 10.264121245151735 15.140000000000004
    vertex -208.0932403048505 10.264121245151735 15.000000000000004
  endloop
endfacet
facet normal -0.9938516993871247 -0.11071946362462409 0.0
  outer loop
    vertex -208.16215319705697 10.882704399250928 15.140000000000004
    vertex -208.0932403048505 10.264121245151735 15.000000000000004
    vertex -208.0932403048505 10.264121245151735 15.140000000000004
  endloop
endfacet
facet normal -0.9938516993871247 -0.11071946362462409 0.0
  outer loop
    vertex -208.0932403048505 10.264121245151735 15.000000000000004
    vertex -208.16215319705697 10.882704399250928 15.140000000000004
    vertex -208.16215319705697 10.882704399250928 15.000000000000004
  endloop
endfacet
facet normal 0.0 1.0 0.0
  outer loop
    vertex -208.36891954953674 9.640113622429062 15.140000000000004
    vertex -207.96263791998206 9.640113622429062 15.000000000000004
    vertex -208.36891954953674 9.640113622429062 15.000000000000004
  endloop
endfacet
facet normal 0.0 1.0 0.0
  outer loop
    vertex -207.96263791998206 9.640113622429062 15.000000000000004
    vertex -208.36891954953674 9.640113622429062 15.140000000000004
    vertex -207.96263791998206 9.640113622429062 15.140000000000004
  endloop
endfacet
facet normal -0.9638016619259536 0.26662024767217146 0.0
  outer loop
    vertex -208.59428408015415 10.79746274945336 15.140000000000004
    vertex -209.2383290257513 8.469314027287364 15.000000000000004
    vertex -209.2383290257513 8.469314027287364 15.140000000000004
  endloop
endfacet
facet normal -0.9638016619259536 0.26662024767217146 0.0
  outer loop
    vertex -209.2383290257513 8.469314027287364 15.000000000000004
    vertex -208.59428408015415 10.79746274945336 15.140000000000004
    vertex -208.59428408015415 10.79746274945336 15.000000000000004
  endloop
endfacet
facet normal 0.0 -1.0 0.0
  outer loop
    vertex -208.65912862089303 8.469314027287364 15.140000000000004
    vertex -209.2383290257513 8.469314027287364 15.000000000000004
    vertex -208.65912862089303 8.469314027287364 15.000000000000004
  endloop
endfacet
facet normal 0.0 -1.0 0.0
  outer loop
    vertex -209.2383290257513 8.469314027287364 15.000000000000004
    vertex -208.65912862089303 8.469314027287364 15.140000000000004
    vertex -209.2383290257513 8.469314027287364 15.140000000000004
  endloop
endfacet
facet normal 0.9731192884861068 -0.23030165083275722 0.0
  outer loop
    vertex -208.4759421014092 9.243352488825826 15.000000000000004
    vertex -208.65912862089303 8.469314027287364 15.140000000000004
    vertex -208.65912862089303 8.469314027287364 15.000000000000004
  endloop
endfacet
facet normal 0.9731192884861068 -0.23030165083275722 0.0
  outer loop
    vertex -208.65912862089303 8.469314027287364 15.140000000000004
    vertex -208.4759421014092 9.243352488825826 15.000000000000004
    vertex -208.4759421014092 9.243352488825826 15.140000000000004
  endloop
endfacet
facet normal 0.0 0.0 1.0
  outer loop
    vertex -207.8556430439699 9.243352488825826 15.140000000000004
    vertex -208.36891954953674 9.640113622429062 15.140000000000004
    vertex -208.4759421014092 9.243352488825826 15.140000000000004
  endloop
endfacet
facet normal 0.0 0.0 1.0
  outer loop
    vertex -208.36891954953674 9.640113622429062 15.140000000000004
    vertex -207.8556430439699 9.243352488825826 15.140000000000004
    vertex -207.96263791998206 9.640113622429062 15.140000000000004
  endloop
endfacet
facet normal 0.0 0.0 1.0
  outer loop
    vertex -208.65912862089303 8.469314027287364 15.140000000000004
    vertex -208.59428408015415 10.79746274945336 15.140000000000004
    vertex -209.2383290257513 8.469314027287364 15.140000000000004
  endloop
endfacet
facet normal 0.0 0.0 1.0
  outer loop
    vertex -208.59428408015415 10.79746274945336 15.140000000000004
    vertex -208.65912862089303 8.469314027287364 15.140000000000004
    vertex -208.4759421014092 9.243352488825826 15.140000000000004
  endloop
endfacet
facet normal 0.0 0.0 1.0
  outer loop
    vertex -208.59428408015415 10.79746274945336 15.140000000000004
    vertex -208.4759421014092 9.243352488825826 15.140000000000004
    vertex -208.52896904978977 11.189131524757002 15.140000000000004
  endloop
endfacet
facet normal 0.0 0.0 1.0
  outer loop
    vertex -208.52896904978977 11.189131524757002 15.140000000000004
    vertex -208.4759421014092 9.243352488825826 15.140000000000004
    vertex -208.16215319705697 10.882704399250928 15.140000000000004
  endloop
endfacet
facet normal 0.0 0.0 1.0
  outer loop
    vertex -208.52896904978977 11.189131524757002 15.140000000000004
    vertex -208.16215319705697 10.882704399250928 15.140000000000004
    vertex -207.84316123096383 11.22538690178129 15.140000000000004
  endloop
endfacet
facet normal 0.0 0.0 1.0
  outer loop
    vertex -208.16215319705697 10.882704399250928 15.140000000000004
    vertex -208.4759421014092 9.243352488825826 15.140000000000004
    vertex -208.36891954953674 9.640113622429062 15.140000000000004
  endloop
endfacet
facet normal 0.0 0.0 1.0
  outer loop
    vertex -208.16215319705697 10.882704399250928 15.140000000000004
    vertex -208.36891954953674 9.640113622429062 15.140000000000004
    vertex -208.23289269604484 10.264121245151735 15.140000000000004
  endloop
endfacet
facet normal 0.0 0.0 1.0
  outer loop
    vertex -207.84316123096383 11.22538690178129 15.140000000000004
    vertex -208.16215319705697 10.882704399250928 15.140000000000004
    vertex -208.0932403048505 10.264121245151735 15.140000000000004
  endloop
endfacet
facet normal 0.0 0.0 1.0
  outer loop
    vertex -207.84316123096383 11.22538690178129 15.140000000000004
    vertex -208.0932403048505 10.264121245151735 15.140000000000004
    vertex -207.96263791998206 9.640113622429062 15.140000000000004
  endloop
endfacet
facet normal 0.0 0.0 1.0
  outer loop
    vertex -207.84316123096383 11.22538690178129 15.140000000000004
    vertex -207.96263791998206 9.640113622429062 15.140000000000004
    vertex -207.8556430439699 9.243352488825826 15.140000000000004
  endloop
endfacet
facet normal 0.0 0.0 1.0
  outer loop
    vertex -207.84316123096383 11.22538690178129 15.140000000000004
    vertex -207.8556430439699 9.243352488825826 15.140000000000004
    vertex -207.6670043800023 8.469314027287364 15.140000000000004
  endloop
endfacet
facet normal 0.0 0.0 1.0
  outer loop
    vertex -207.84316123096383 11.22538690178129 15.140000000000004
    vertex -207.6670043800023 8.469314027287364 15.140000000000004
    vertex -207.06123514923308 8.469314027287364 15.140000000000004
  endloop
endfacet
facet normal 0.0 -1.0 0.0
  outer loop
    vertex -207.8556430439699 9.243352488825826 15.140000000000004
    vertex -208.4759421014092 9.243352488825826 15.000000000000004
    vertex -207.8556430439699 9.243352488825826 15.000000000000004
  endloop
endfacet
facet normal 0.0 -1.0 0.0
  outer loop
    vertex -208.4759421014092 9.243352488825826 15.000000000000004
    vertex -207.8556430439699 9.243352488825826 15.140000000000004
    vertex -208.4759421014092 9.243352488825826 15.140000000000004
  endloop
endfacet
facet normal -1.0 0.0 0.0
  outer loop
    vertex -210.14189051360555 11.189103848896677 15.140000000000004
    vertex -210.14189051360555 10.013793088522183 15.000000000000004
    vertex -210.14189051360555 10.013793088522183 15.140000000000004
  endloop
endfacet
facet normal -1.0 0.0 0.0
  outer loop
    vertex -210.14189051360555 10.013793088522183 15.000000000000004
    vertex -210.14189051360555 11.189103848896677 15.140000000000004
    vertex -210.14189051360555 11.189103848896677 15.000000000000004
  endloop
endfacet
facet normal -0.9816181736477971 -0.19085534093748402 0.0
  outer loop
    vertex -210.14189051360555 10.013793088522183 15.140000000000004
    vertex -210.05302332610555 9.556726255273194 15.000000000000004
    vertex -210.05302332610555 9.556726255273194 15.140000000000004
  endloop
endfacet
facet normal -0.9816181736477971 -0.19085534093748402 0.0
  outer loop
    vertex -210.05302332610555 9.556726255273194 15.000000000000004
    vertex -210.14189051360555 10.013793088522183 15.140000000000004
    vertex -210.14189051360555 10.013793088522183 15.000000000000004
  endloop
endfacet
facet normal -0.971564013481904 -0.23677704218723333 0.0
  outer loop
    vertex -207.8556430439699 9.243352488825826 15.140000000000004
    vertex -207.6670043800023 8.469314027287364 15.000000000000004
    vertex -207.6670043800023 8.469314027287364 15.140000000000004
  endloop
endfacet
facet normal -0.971564013481904 -0.23677704218723333 0.0
  outer loop
    vertex -207.6670043800023 8.469314027287364 15.000000000000004
    vertex -207.8556430439699 9.243352488825826 15.140000000000004
    vertex -207.8556430439699 9.243352488825826 15.000000000000004
  endloop
endfacet
facet normal -0.8910328344149496 -0.45393885931308064 0.0
  outer loop
    vertex -210.95987824133834 10.192385415192222 15.140000000000004
    vertex -210.0820553035853 8.469314027287364 15.000000000000004
    vertex -210.0820553035853 8.469314027287364 15.140000000000004
  endloop
endfacet
facet normal -0.8910328344149496 -0.45393885931308064 0.0
  outer loop
    vertex -210.0820553035853 8.469314027287364 15.000000000000004
    vertex -210.95987824133834 10.192385415192222 15.140000000000004
    vertex -210.95987824133834 10.192385415192222 15.000000000000004
  endloop
endfacet
facet normal 0.0 -1.0 0.0
  outer loop
    vertex -207.06123514923308 8.469314027287364 15.140000000000004
    vertex -207.6670043800023 8.469314027287364 15.000000000000004
    vertex -207.06123514923308 8.469314027287364 15.000000000000004
  endloop
endfacet
facet normal 0.0 -1.0 0.0
  outer loop
    vertex -207.6670043800023 8.469314027287364 15.000000000000004
    vertex -207.06123514923308 8.469314027287364 15.140000000000004
    vertex -207.6670043800023 8.469314027287364 15.140000000000004
  endloop
endfacet
facet normal 0.9935246467856302 -0.11361679554312668 0.0
  outer loop
    vertex -208.16215319705697 10.882704399250928 15.000000000000004
    vertex -208.23289269604484 10.264121245151735 15.140000000000004
    vertex -208.23289269604484 10.264121245151735 15.000000000000004
  endloop
endfacet
facet normal 0.9935246467856302 -0.11361679554312668 0.0
  outer loop
    vertex -208.23289269604484 10.264121245151735 15.140000000000004
    vertex -208.16215319705697 10.882704399250928 15.000000000000004
    vertex -208.16215319705697 10.882704399250928 15.140000000000004
  endloop
endfacet
facet normal 0.0 0.0 1.0
  outer loop
    vertex -210.86555890935452 8.469314027287364 15.140000000000004
    vertex -211.45137384483024 10.759380765647686 15.140000000000004
    vertex -211.45137384483024 8.469314027287364 15.140000000000004
  endloop
endfacet
facet normal 0.0 0.0 1.0
  outer loop
    vertex -211.45137384483024 10.759380765647686 15.140000000000004
    vertex -210.86555890935452 8.469314027287364 15.140000000000004
    vertex -210.95987824133834 10.192385415192222 15.140000000000004
  endloop
endfacet
facet normal 0.0 0.0 1.0
  outer loop
    vertex -210.95987824133834 10.192385415192222 15.140000000000004
    vertex -210.86555890935452 8.469314027287364 15.140000000000004
    vertex -210.86555890935452 9.646451394443236 15.140000000000004
  endloop
endfacet
facet normal 0.0 0.0 1.0
  outer loop
    vertex -211.45137384483024 10.759380765647686 15.140000000000004
    vertex -210.9199696507513 11.22538690178129 15.140000000000004
    vertex -211.5112367307108 11.189131524757002 15.140000000000004
  endloop
endfacet
facet normal 0.0 0.0 1.0
  outer loop
    vertex -210.9199696507513 11.22538690178129 15.140000000000004
    vertex -211.45137384483024 10.759380765647686 15.140000000000004
    vertex -210.95987824133834 10.192385415192222 15.140000000000004
  endloop
endfacet
facet normal 0.0 0.0 1.0
  outer loop
    vertex -210.9199696507513 11.22538690178129 15.140000000000004
    vertex -210.95987824133834 10.192385415192222 15.140000000000004
    vertex -210.0820553035853 8.469314027287364 15.140000000000004
  endloop
endfacet
facet normal 0.0 0.0 1.0
  outer loop
    vertex -210.9199696507513 11.22538690178129 15.140000000000004
    vertex -210.0820553035853 8.469314027287364 15.140000000000004
    vertex -210.05302332610555 9.556726255273194 15.140000000000004
  endloop
endfacet
facet normal 0.0 0.0 1.0
  outer loop
    vertex -210.05302332610555 9.556726255273194 15.140000000000004
    vertex -210.0820553035853 8.469314027287364 15.140000000000004
    vertex -209.55790218491123 8.469314027287364 15.140000000000004
  endloop
endfacet
facet normal 0.0 0.0 1.0
  outer loop
    vertex -210.05302332610555 9.556726255273194 15.140000000000004
    vertex -210.14189051360555 11.189103848896677 15.140000000000004
    vertex -210.14189051360555 10.013793088522183 15.140000000000004
  endloop
endfacet
facet normal 0.0 0.0 1.0
  outer loop
    vertex -210.14189051360555 11.189103848896677 15.140000000000004
    vertex -210.05302332610555 9.556726255273194 15.140000000000004
    vertex -209.55790218491123 11.22538690178129 15.140000000000004
  endloop
endfacet
facet normal 0.0 0.0 1.0
  outer loop
    vertex -209.55790218491123 11.22538690178129 15.140000000000004
    vertex -210.05302332610555 9.556726255273194 15.140000000000004
    vertex -209.55790218491123 8.469314027287364 15.140000000000004
  endloop
endfacet
facet normal -0.05279149633996749 0.9986055567210647 0.0
  outer loop
    vertex -208.52896904978977 11.189131524757002 15.140000000000004
    vertex -207.84316123096383 11.22538690178129 15.000000000000004
    vertex -208.52896904978977 11.189131524757002 15.000000000000004
  endloop
endfacet
facet normal -0.05279149633996749 0.9986055567210647 0.0
  outer loop
    vertex -207.84316123096383 11.22538690178129 15.000000000000004
    vertex -208.52896904978977 11.189131524757002 15.140000000000004
    vertex -207.84316123096383 11.22538690178129 15.140000000000004
  endloop
endfacet
facet normal -0.986378849655156 0.1644894068108081 0.0
  outer loop
    vertex -208.52896904978977 11.189131524757002 15.140000000000004
    vertex -208.59428408015415 10.79746274945336 15.000000000000004
    vertex -208.59428408015415 10.79746274945336 15.140000000000004
  endloop
endfacet
facet normal -0.986378849655156 0.1644894068108081 0.0
  outer loop
    vertex -208.59428408015415 10.79746274945336 15.000000000000004
    vertex -208.52896904978977 11.189131524757002 15.140000000000004
    vertex -208.52896904978977 11.189131524757002 15.000000000000004
  endloop
endfacet
facet normal 0.0 -1.0 0.0
  outer loop
    vertex -209.55790218491123 8.469314027287364 15.140000000000004
    vertex -210.0820553035853 8.469314027287364 15.000000000000004
    vertex -209.55790218491123 8.469314027287364 15.000000000000004
  endloop
endfacet
facet normal 0.0 -1.0 0.0
  outer loop
    vertex -210.0820553035853 8.469314027287364 15.000000000000004
    vertex -209.55790218491123 8.469314027287364 15.140000000000004
    vertex -210.0820553035853 8.469314027287364 15.140000000000004
  endloop
endfacet
facet normal 1.0 0.0 0.0
  outer loop
    vertex -209.55790218491123 11.22538690178129 15.000000000000004
    vertex -209.55790218491123 8.469314027287364 15.140000000000004
    vertex -209.55790218491123 8.469314027287364 15.000000000000004
  endloop
endfacet
facet normal 1.0 0.0 0.0
  outer loop
    vertex -209.55790218491123 8.469314027287364 15.140000000000004
    vertex -209.55790218491123 11.22538690178129 15.000000000000004
    vertex -209.55790218491123 11.22538690178129 15.140000000000004
  endloop
endfacet
facet normal -0.062010189185366514 0.9980755164000342 0.0
  outer loop
    vertex -210.14189051360555 11.189103848896677 15.140000000000004
    vertex -209.55790218491123 11.22538690178129 15.000000000000004
    vertex -210.14189051360555 11.189103848896677 15.000000000000004
  endloop
endfacet
facet normal -0.062010189185366514 0.9980755164000342 0.0
  outer loop
    vertex -209.55790218491123 11.22538690178129 15.000000000000004
    vertex -210.14189051360555 11.189103848896677 15.140000000000004
    vertex -209.55790218491123 11.22538690178129 15.140000000000004
  endloop
endfacet
facet normal 0.9620315680746092 0.2729382018477967 0.0
  outer loop
    vertex -207.84316123096383 11.22538690178129 15.000000000000004
    vertex -207.06123514923308 8.469314027287364 15.140000000000004
    vertex -207.06123514923308 8.469314027287364 15.000000000000004
  endloop
endfacet
facet normal 0.9620315680746092 0.2729382018477967 0.0
  outer loop
    vertex -207.06123514923308 8.469314027287364 15.140000000000004
    vertex -207.84316123096383 11.22538690178129 15.000000000000004
    vertex -207.84316123096383 11.22538690178129 15.140000000000004
  endloop
endfacet
facet normal -0.0612031539976915 0.9981253297761434 0.0
  outer loop
    vertex -211.5112367307108 11.189131524757002 15.140000000000004
    vertex -210.9199696507513 11.22538690178129 15.000000000000004
    vertex -211.5112367307108 11.189131524757002 15.000000000000004
  endloop
endfacet
facet normal -0.0612031539976915 0.9981253297761434 0.0
  outer loop
    vertex -210.9199696507513 11.22538690178129 15.000000000000004
    vertex -211.5112367307108 11.189131524757002 15.140000000000004
    vertex -210.9199696507513 11.22538690178129 15.140000000000004
  endloop
endfacet
facet normal 0.0 0.0 -1.0
  outer loop
    vertex -206.3590155452351 11.22538690178129 15.000000000000004
    vertex -206.0852182590509 8.47000592379546 15.000000000000004
    vertex -206.9435297152756 11.189131524757002 15.000000000000004
  endloop
endfacet
facet normal 0.0 0.0 -1.0
  outer loop
    vertex -206.0852182590509 8.47000592379546 15.000000000000004
    vertex -206.3590155452351 11.22538690178129 15.000000000000004
    vertex -205.9000944293444 9.738944119645666 15.000000000000004
  endloop
endfacet
facet normal 0.0 0.0 -1.0
  outer loop
    vertex -206.0852182590509 8.47000592379546 15.000000000000004
    vertex -205.9000944293444 9.738944119645666 15.000000000000004
    vertex -205.80394849057924 8.941325825111251 15.000000000000004
  endloop
endfacet
facet normal 0.0 0.0 -1.0
  outer loop
    vertex -206.0852182590509 8.47000592379546 15.000000000000004
    vertex -205.80394849057924 8.941325825111251 15.000000000000004
    vertex -205.44645940277562 8.439202691254975 15.000000000000004
  endloop
endfacet
facet normal 0.0 0.0 -1.0
  outer loop
    vertex -205.44645940277562 8.439202691254975 15.000000000000004
    vertex -205.80394849057924 8.941325825111251 15.000000000000004
    vertex -205.67699931927356 9.739386933410849 15.000000000000004
  endloop
endfacet
facet normal 0.0 0.0 -1.0
  outer loop
    vertex -205.44645940277562 8.439202691254975 15.000000000000004
    vertex -205.67699931927356 9.739386933410849 15.000000000000004
    vertex -205.22718356142943 11.1904046143319 15.000000000000004
  endloop
endfacet
facet normal 0.0 0.0 -1.0
  outer loop
    vertex -205.44645940277562 8.439202691254975 15.000000000000004
    vertex -205.22718356142943 11.1904046143319 15.000000000000004
    vertex -205.3956465232209 8.832559694038377 15.000000000000004
  endloop
endfacet
facet normal 0.0 0.0 -1.0
  outer loop
    vertex -205.3956465232209 8.832559694038377 15.000000000000004
    vertex -205.22718356142943 11.1904046143319 15.000000000000004
    vertex -204.64621190151044 11.1904046143319 15.000000000000004
  endloop
endfacet
facet normal -0.9904371494522943 -0.13796468020770303 0.0
  outer loop
    vertex -211.5112367307108 11.189131524757002 15.140000000000004
    vertex -211.45137384483024 10.759380765647686 15.000000000000004
    vertex -211.45137384483024 10.759380765647686 15.140000000000004
  endloop
endfacet
facet normal -0.9904371494522943 -0.13796468020770303 0.0
  outer loop
    vertex -211.45137384483024 10.759380765647686 15.000000000000004
    vertex -211.5112367307108 11.189131524757002 15.140000000000004
    vertex -211.5112367307108 11.189131524757002 15.000000000000004
  endloop
endfacet
facet normal -1.0 0.0 0.0
  outer loop
    vertex -211.45137384483024 10.759380765647686 15.140000000000004
    vertex -211.45137384483024 8.469314027287364 15.000000000000004
    vertex -211.45137384483024 8.469314027287364 15.140000000000004
  endloop
endfacet
facet normal -1.0 0.0 0.0
  outer loop
    vertex -211.45137384483024 8.469314027287364 15.000000000000004
    vertex -211.45137384483024 10.759380765647686 15.140000000000004
    vertex -211.45137384483024 10.759380765647686 15.000000000000004
  endloop
endfacet
facet normal 0.0 -1.0 0.0
  outer loop
    vertex -210.86555890935452 8.469314027287364 15.140000000000004
    vertex -211.45137384483024 8.469314027287364 15.000000000000004
    vertex -210.86555890935452 8.469314027287364 15.000000000000004
  endloop
endfacet
facet normal 0.0 -1.0 0.0
  outer loop
    vertex -211.45137384483024 8.469314027287364 15.000000000000004
    vertex -210.86555890935452 8.469314027287364 15.140000000000004
    vertex -211.45137384483024 8.469314027287364 15.140000000000004
  endloop
endfacet
facet normal 1.0 0.0 0.0
  outer loop
    vertex -210.86555890935452 9.646451394443236 15.000000000000004
    vertex -210.86555890935452 8.469314027287364 15.140000000000004
    vertex -210.86555890935452 8.469314027287364 15.000000000000004
  endloop
endfacet
facet normal 1.0 0.0 0.0
  outer loop
    vertex -210.86555890935452 8.469314027287364 15.140000000000004
    vertex -210.86555890935452 9.646451394443236 15.000000000000004
    vertex -210.86555890935452 9.646451394443236 15.140000000000004
  endloop
endfacet
facet normal 0.0 0.0 -1.0
  outer loop
    vertex -209.55790218491123 11.22538690178129 15.000000000000004
    vertex -210.14189051360555 10.013793088522183 15.000000000000004
    vertex -210.14189051360555 11.189103848896677 15.000000000000004
  endloop
endfacet
facet normal 0.0 0.0 -1.0
  outer loop
    vertex -210.14189051360555 10.013793088522183 15.000000000000004
    vertex -209.55790218491123 11.22538690178129 15.000000000000004
    vertex -210.05302332610555 9.556726255273194 15.000000000000004
  endloop
endfacet
facet normal 0.0 0.0 -1.0
  outer loop
    vertex -210.9199696507513 11.22538690178129 15.000000000000004
    vertex -211.45137384483024 10.759380765647686 15.000000000000004
    vertex -211.5112367307108 11.189131524757002 15.000000000000004
  endloop
endfacet
facet normal 0.0 0.0 -1.0
  outer loop
    vertex -211.45137384483024 10.759380765647686 15.000000000000004
    vertex -210.9199696507513 11.22538690178129 15.000000000000004
    vertex -211.45137384483024 8.469314027287364 15.000000000000004
  endloop
endfacet
facet normal 0.0 0.0 -1.0
  outer loop
    vertex -211.45137384483024 8.469314027287364 15.000000000000004
    vertex -210.9199696507513 11.22538690178129 15.000000000000004
    vertex -210.95987824133834 10.192385415192222 15.000000000000004
  endloop
endfacet
facet normal 0.0 0.0 -1.0
  outer loop
    vertex -210.95987824133834 10.192385415192222 15.000000000000004
    vertex -210.9199696507513 11.22538690178129 15.000000000000004
    vertex -210.0820553035853 8.469314027287364 15.000000000000004
  endloop
endfacet
facet normal 0.0 0.0 -1.0
  outer loop
    vertex -210.0820553035853 8.469314027287364 15.000000000000004
    vertex -210.9199696507513 11.22538690178129 15.000000000000004
    vertex -210.05302332610555 9.556726255273194 15.000000000000004
  endloop
endfacet
facet normal 0.0 0.0 -1.0
  outer loop
    vertex -210.0820553035853 8.469314027287364 15.000000000000004
    vertex -210.05302332610555 9.556726255273194 15.000000000000004
    vertex -209.55790218491123 8.469314027287364 15.000000000000004
  endloop
endfacet
facet normal 0.0 0.0 -1.0
  outer loop
    vertex -209.55790218491123 8.469314027287364 15.000000000000004
    vertex -210.05302332610555 9.556726255273194 15.000000000000004
    vertex -209.55790218491123 11.22538690178129 15.000000000000004
  endloop
endfacet
facet normal 0.0 0.0 -1.0
  outer loop
    vertex -210.95987824133834 10.192385415192222 15.000000000000004
    vertex -210.86555890935452 8.469314027287364 15.000000000000004
    vertex -211.45137384483024 8.469314027287364 15.000000000000004
  endloop
endfacet
facet normal 0.0 0.0 -1.0
  outer loop
    vertex -210.86555890935452 8.469314027287364 15.000000000000004
    vertex -210.95987824133834 10.192385415192222 15.000000000000004
    vertex -210.86555890935452 9.646451394443236 15.000000000000004
  endloop
endfacet
facet normal 0.9854017968268255 0.17024482021625148 0.0
  outer loop
    vertex -210.95987824133834 10.192385415192222 15.000000000000004
    vertex -210.86555890935452 9.646451394443236 15.140000000000004
    vertex -210.86555890935452 9.646451394443236 15.000000000000004
  endloop
endfacet
facet normal 0.9854017968268255 0.17024482021625148 0.0
  outer loop
    vertex -210.86555890935452 9.646451394443236 15.140000000000004
    vertex -210.95987824133834 10.192385415192222 15.000000000000004
    vertex -210.95987824133834 10.192385415192222 15.140000000000004
  endloop
endfacet
facet normal 0.887381569377364 0.46103573649920726 0.0
  outer loop
    vertex -210.9199696507513 11.22538690178129 15.000000000000004
    vertex -210.05302332610555 9.556726255273194 15.140000000000004
    vertex -210.05302332610555 9.556726255273194 15.000000000000004
  endloop
endfacet
facet normal 0.887381569377364 0.46103573649920726 0.0
  outer loop
    vertex -210.05302332610555 9.556726255273194 15.140000000000004
    vertex -210.9199696507513 11.22538690178129 15.000000000000004
    vertex -210.9199696507513 11.22538690178129 15.140000000000004
  endloop
endfacet
facet normal 0.0 0.0 -1.0
  outer loop
    vertex -208.59428408015415 10.79746274945336 15.000000000000004
    vertex -208.65912862089303 8.469314027287364 15.000000000000004
    vertex -209.2383290257513 8.469314027287364 15.000000000000004
  endloop
endfacet
facet normal 0.0 0.0 -1.0
  outer loop
    vertex -208.65912862089303 8.469314027287364 15.000000000000004
    vertex -208.59428408015415 10.79746274945336 15.000000000000004
    vertex -208.4759421014092 9.243352488825826 15.000000000000004
  endloop
endfacet
facet normal 0.0 0.0 -1.0
  outer loop
    vertex -208.4759421014092 9.243352488825826 15.000000000000004
    vertex -208.59428408015415 10.79746274945336 15.000000000000004
    vertex -208.52896904978977 11.189131524757002 15.000000000000004
  endloop
endfacet
facet normal 0.0 0.0 -1.0
  outer loop
    vertex -208.4759421014092 9.243352488825826 15.000000000000004
    vertex -208.52896904978977 11.189131524757002 15.000000000000004
    vertex -208.16215319705697 10.882704399250928 15.000000000000004
  endloop
endfacet
facet normal 0.0 0.0 -1.0
  outer loop
    vertex -208.16215319705697 10.882704399250928 15.000000000000004
    vertex -208.52896904978977 11.189131524757002 15.000000000000004
    vertex -207.84316123096383 11.22538690178129 15.000000000000004
  endloop
endfacet
facet normal 0.0 0.0 -1.0
  outer loop
    vertex -208.4759421014092 9.243352488825826 15.000000000000004
    vertex -208.16215319705697 10.882704399250928 15.000000000000004
    vertex -208.36891954953674 9.640113622429062 15.000000000000004
  endloop
endfacet
facet normal 0.0 0.0 -1.0
  outer loop
    vertex -208.36891954953674 9.640113622429062 15.000000000000004
    vertex -208.16215319705697 10.882704399250928 15.000000000000004
    vertex -208.23289269604484 10.264121245151735 15.000000000000004
  endloop
endfacet
facet normal 0.0 0.0 -1.0
  outer loop
    vertex -208.16215319705697 10.882704399250928 15.000000000000004
    vertex -207.84316123096383 11.22538690178129 15.000000000000004
    vertex -208.0932403048505 10.264121245151735 15.000000000000004
  endloop
endfacet
facet normal 0.0 0.0 -1.0
  outer loop
    vertex -208.0932403048505 10.264121245151735 15.000000000000004
    vertex -207.84316123096383 11.22538690178129 15.000000000000004
    vertex -207.96263791998206 9.640113622429062 15.000000000000004
  endloop
endfacet
facet normal 0.0 0.0 -1.0
  outer loop
    vertex -207.96263791998206 9.640113622429062 15.000000000000004
    vertex -207.84316123096383 11.22538690178129 15.000000000000004
    vertex -207.8556430439699 9.243352488825826 15.000000000000004
  endloop
endfacet
facet normal 0.0 0.0 -1.0
  outer loop
    vertex -207.8556430439699 9.243352488825826 15.000000000000004
    vertex -207.84316123096383 11.22538690178129 15.000000000000004
    vertex -207.6670043800023 8.469314027287364 15.000000000000004
  endloop
endfacet
facet normal 0.0 0.0 -1.0
  outer loop
    vertex -207.6670043800023 8.469314027287364 15.000000000000004
    vertex -207.84316123096383 11.22538690178129 15.000000000000004
    vertex -207.06123514923308 8.469314027287364 15.000000000000004
  endloop
endfacet
facet normal 0.0 0.0 -1.0
  outer loop
    vertex -208.36891954953674 9.640113622429062 15.000000000000004
    vertex -207.8556430439699 9.243352488825826 15.000000000000004
    vertex -208.4759421014092 9.243352488825826 15.000000000000004
  endloop
endfacet
facet normal 0.0 0.0 -1.0
  outer loop
    vertex -207.8556430439699 9.243352488825826 15.000000000000004
    vertex -208.36891954953674 9.640113622429062 15.000000000000004
    vertex -207.96263791998206 9.640113622429062 15.000000000000004
  endloop
endfacet
endsolid RMP_Front
