solid RMP_Front
facet normal 1.0 0.0 0.0
  outer loop
    vertex -202.6148604640577 14.599999999999909 4.999999999999994
    vertex -202.6148604640577 5.399999999999914 14.44
    vertex -202.6148604640577 5.399999999999914 4.999999999999994
  endloop
endfacet
facet normal 1.0 0.0 0.0
  outer loop
    vertex -202.6148604640577 5.399999999999914 14.44
    vertex -202.6148604640577 14.599999999999909 4.999999999999994
    vertex -202.6148604640577 14.599999999999909 14.44
  endloop
endfacet
facet normal -1.0 0.0 0.0
  outer loop
    vertex -213.41486046405768 14.599999999999909 14.44
    vertex -213.41486046405768 5.399999999999914 4.999999999999994
    vertex -213.41486046405768 5.399999999999914 14.44
  endloop
endfacet
facet normal -1.0 0.0 0.0
  outer loop
    vertex -213.41486046405768 5.399999999999914 4.999999999999994
    vertex -213.41486046405768 14.599999999999909 14.44
    vertex -213.41486046405768 14.599999999999909 4.999999999999994
  endloop
endfacet
facet normal 0.0 0.0 1.0
  outer loop
    vertex -210.9199696507513 11.225386901781299 14.44
    vertex -210.14189051360557 10.013793088522176 14.44
    vertex -210.14189051360563 11.189103848896673 14.44
  endloop
endfacet
facet normal 0.0 0.0 1.0
  outer loop
    vertex -210.14189051360557 10.013793088522176 14.44
    vertex -210.9199696507513 11.225386901781299 14.44
    vertex -210.05302332610555 9.556726255273192 14.44
  endloop
endfacet
facet normal 0.0 0.0 1.0
  outer loop
    vertex -213.41486046405768 5.399999999999914 14.44
    vertex -211.45137384483024 8.469314027287364 14.44
    vertex -213.41486046405768 14.599999999999909 14.44
  endloop
endfacet
facet normal 0.0 0.0 1.0
  outer loop
    vertex -211.45137384483024 8.469314027287364 14.44
    vertex -213.41486046405768 5.399999999999914 14.44
    vertex -202.6148604640577 5.399999999999914 14.44
  endloop
endfacet
facet normal 0.0 0.0 1.0
  outer loop
    vertex -213.41486046405768 14.599999999999909 14.44
    vertex -211.45137384483024 8.469314027287364 14.44
    vertex -211.5112367307108 11.189131524756997 14.44
  endloop
endfacet
facet normal 0.0 0.0 1.0
  outer loop
    vertex -211.45137384483024 8.469314027287364 14.44
    vertex -202.6148604640577 5.399999999999914 14.44
    vertex -210.86555890935452 8.469314027287364 14.44
  endloop
endfacet
facet normal 0.0 0.0 1.0
  outer loop
    vertex -210.86555890935452 8.469314027287364 14.44
    vertex -202.6148604640577 5.399999999999914 14.44
    vertex -210.08205530358526 8.469314027287375 14.44
  endloop
endfacet
facet normal 0.0 0.0 1.0
  outer loop
    vertex -210.08205530358526 8.469314027287375 14.44
    vertex -202.6148604640577 5.399999999999914 14.44
    vertex -209.55790218491123 8.469314027287364 14.44
  endloop
endfacet
facet normal 0.0 0.0 1.0
  outer loop
    vertex -209.55790218491123 8.469314027287364 14.44
    vertex -202.6148604640577 5.399999999999914 14.44
    vertex -209.2383290257513 8.469314027287364 14.44
  endloop
endfacet
facet normal 0.0 0.0 1.0
  outer loop
    vertex -209.2383290257513 8.469314027287364 14.44
    vertex -202.6148604640577 5.399999999999914 14.44
    vertex -208.65912862089303 8.469314027287364 14.44
  endloop
endfacet
facet normal 0.0 0.0 1.0
  outer loop
    vertex -208.65912862089303 8.469314027287364 14.44
    vertex -202.6148604640577 5.399999999999914 14.44
    vertex -207.66700438000234 8.469314027287359 14.44
  endloop
endfacet
facet normal 0.0 0.0 1.0
  outer loop
    vertex -208.65912862089303 8.469314027287364 14.44
    vertex -207.66700438000234 8.469314027287359 14.44
    vertex -208.47594210140915 9.243352488825815 14.44
  endloop
endfacet
facet normal 0.0 0.0 1.0
  outer loop
    vertex -208.47594210140915 9.243352488825815 14.44
    vertex -207.66700438000234 8.469314027287359 14.44
    vertex -207.85564304396996 9.243352488825822 14.44
  endloop
endfacet
facet normal 0.0 0.0 1.0
  outer loop
    vertex -207.66700438000234 8.469314027287359 14.44
    vertex -202.6148604640577 5.399999999999914 14.44
    vertex -207.06123514923308 8.469314027287366 14.44
  endloop
endfacet
facet normal 0.0 0.0 1.0
  outer loop
    vertex -207.06123514923308 8.469314027287366 14.44
    vertex -202.6148604640577 5.399999999999914 14.44
    vertex -206.08521825905092 8.470005923795464 14.44
  endloop
endfacet
facet normal 0.0 0.0 1.0
  outer loop
    vertex -207.06123514923308 8.469314027287366 14.44
    vertex -206.08521825905092 8.470005923795464 14.44
    vertex -206.9435297152756 11.189131524757002 14.44
  endloop
endfacet
facet normal 0.0 0.0 1.0
  outer loop
    vertex -206.08521825905092 8.470005923795464 14.44
    vertex -202.6148604640577 5.399999999999914 14.44
    vertex -205.44645940277564 8.439202691254978 14.44
  endloop
endfacet
facet normal 0.0 0.0 1.0
  outer loop
    vertex -205.44645940277564 8.439202691254978 14.44
    vertex -202.6148604640577 5.399999999999914 14.44
    vertex -205.39564652322096 8.832559694038387 14.44
  endloop
endfacet
facet normal 0.0 0.0 1.0
  outer loop
    vertex -205.39564652322096 8.832559694038387 14.44
    vertex -202.6148604640577 5.399999999999914 14.44
    vertex -204.64621190151044 11.190404614331898 14.44
  endloop
endfacet
facet normal 0.0 0.0 1.0
  outer loop
    vertex -211.5112367307108 11.189131524756997 14.44
    vertex -202.6148604640577 14.599999999999909 14.44
    vertex -213.41486046405768 14.599999999999909 14.44
  endloop
endfacet
facet normal 0.0 0.0 1.0
  outer loop
    vertex -202.6148604640577 14.599999999999909 14.44
    vertex -211.5112367307108 11.189131524756997 14.44
    vertex -210.9199696507513 11.225386901781299 14.44
  endloop
endfacet
facet normal 0.0 0.0 1.0
  outer loop
    vertex -202.6148604640577 14.599999999999909 14.44
    vertex -210.9199696507513 11.225386901781299 14.44
    vertex -210.14189051360563 11.189103848896673 14.44
  endloop
endfacet
facet normal 0.0 0.0 1.0
  outer loop
    vertex -202.6148604640577 14.599999999999909 14.44
    vertex -210.14189051360563 11.189103848896673 14.44
    vertex -209.55790218491126 11.225386901781286 14.44
  endloop
endfacet
facet normal 0.0 0.0 1.0
  outer loop
    vertex -202.6148604640577 14.599999999999909 14.44
    vertex -209.55790218491126 11.225386901781286 14.44
    vertex -208.52896904978977 11.189131524757004 14.44
  endloop
endfacet
facet normal 0.0 0.0 1.0
  outer loop
    vertex -208.52896904978977 11.189131524757004 14.44
    vertex -209.55790218491126 11.225386901781286 14.44
    vertex -209.55790218491123 8.469314027287364 14.44
  endloop
endfacet
facet normal 0.0 0.0 1.0
  outer loop
    vertex -208.52896904978977 11.189131524757004 14.44
    vertex -209.55790218491123 8.469314027287364 14.44
    vertex -209.2383290257513 8.469314027287364 14.44
  endloop
endfacet
facet normal 0.0 0.0 1.0
  outer loop
    vertex -208.52896904978977 11.189131524757004 14.44
    vertex -209.2383290257513 8.469314027287364 14.44
    vertex -208.59428408015415 10.79746274945336 14.44
  endloop
endfacet
facet normal 0.0 0.0 1.0
  outer loop
    vertex -202.6148604640577 14.599999999999909 14.44
    vertex -208.52896904978977 11.189131524757004 14.44
    vertex -207.84316123096383 11.225386901781286 14.44
  endloop
endfacet
facet normal 0.0 0.0 1.0
  outer loop
    vertex -202.6148604640577 14.599999999999909 14.44
    vertex -207.84316123096383 11.225386901781286 14.44
    vertex -206.9435297152756 11.189131524757002 14.44
  endloop
endfacet
facet normal 0.0 0.0 1.0
  outer loop
    vertex -206.9435297152756 11.189131524757002 14.44
    vertex -207.84316123096383 11.225386901781286 14.44
    vertex -207.06123514923308 8.469314027287366 14.44
  endloop
endfacet
facet normal 0.0 0.0 1.0
  outer loop
    vertex -202.6148604640577 14.599999999999909 14.44
    vertex -206.9435297152756 11.189131524757002 14.44
    vertex -206.3590155452351 11.225386901781297 14.44
  endloop
endfacet
facet normal 0.0 0.0 1.0
  outer loop
    vertex -202.6148604640577 14.599999999999909 14.44
    vertex -206.3590155452351 11.225386901781297 14.44
    vertex -205.22718356142943 11.190404614331898 14.44
  endloop
endfacet
facet normal 0.0 0.0 1.0
  outer loop
    vertex -205.22718356142943 11.190404614331898 14.44
    vertex -206.3590155452351 11.225386901781297 14.44
    vertex -205.9000944293444 9.738944119645662 14.44
  endloop
endfacet
facet normal 0.0 0.0 1.0
  outer loop
    vertex -205.22718356142943 11.190404614331898 14.44
    vertex -205.9000944293444 9.738944119645662 14.44
    vertex -205.6769993192736 9.739386933410856 14.44
  endloop
endfacet
facet normal 0.0 0.0 1.0
  outer loop
    vertex -205.6769993192736 9.739386933410856 14.44
    vertex -205.9000944293444 9.738944119645662 14.44
    vertex -205.80394849057922 8.941325825111255 14.44
  endloop
endfacet
facet normal 0.0 0.0 1.0
  outer loop
    vertex -202.6148604640577 14.599999999999909 14.44
    vertex -205.22718356142943 11.190404614331898 14.44
    vertex -204.64621190151044 11.190404614331898 14.44
  endloop
endfacet
facet normal 0.0 0.0 1.0
  outer loop
    vertex -202.6148604640577 14.599999999999909 14.44
    vertex -204.64621190151044 11.190404614331898 14.44
    vertex -202.6148604640577 5.399999999999914 14.44
  endloop
endfacet
facet normal 0.0 0.0 1.0
  outer loop
    vertex -210.86555890935458 9.646451394443227 14.44
    vertex -210.08205530358526 8.469314027287375 14.44
    vertex -210.95987824133837 10.192385415192215 14.44
  endloop
endfacet
facet normal 0.0 0.0 1.0
  outer loop
    vertex -210.08205530358526 8.469314027287375 14.44
    vertex -210.86555890935458 9.646451394443227 14.44
    vertex -210.86555890935452 8.469314027287364 14.44
  endloop
endfacet
facet normal 0.0 0.0 1.0
  outer loop
    vertex -211.45137384483024 10.759380765647684 14.44
    vertex -211.5112367307108 11.189131524756997 14.44
    vertex -211.45137384483024 8.469314027287364 14.44
  endloop
endfacet
facet normal 0.0 -1.0 0.0
  outer loop
    vertex -202.6148604640577 5.399999999999914 14.44
    vertex -213.41486046405768 5.399999999999914 4.999999999999994
    vertex -202.6148604640577 5.399999999999914 4.999999999999994
  endloop
endfacet
facet normal 0.0 -1.0 0.0
  outer loop
    vertex -213.41486046405768 5.399999999999914 4.999999999999994
    vertex -202.6148604640577 5.399999999999914 14.44
    vertex -213.41486046405768 5.399999999999914 14.44
  endloop
endfacet
facet normal 0.0 1.0 0.0
  outer loop
    vertex -213.41486046405768 14.599999999999909 14.44
    vertex -202.6148604640577 14.599999999999909 4.999999999999994
    vertex -213.41486046405768 14.599999999999909 4.999999999999994
  endloop
endfacet
facet normal 0.0 1.0 0.0
  outer loop
    vertex -202.6148604640577 14.599999999999909 4.999999999999994
    vertex -213.41486046405768 14.599999999999909 14.44
    vertex -202.6148604640577 14.599999999999909 14.44
  endloop
endfacet
facet normal 0.0 0.0 -1.0
  outer loop
    vertex -202.6148604640577 14.599999999999909 4.999999999999994
    vertex -213.41486046405768 5.399999999999914 4.999999999999994
    vertex -213.41486046405768 14.599999999999909 4.999999999999994
  endloop
endfacet
facet normal 0.0 0.0 -1.0
  outer loop
    vertex -213.41486046405768 5.399999999999914 4.999999999999994
    vertex -202.6148604640577 14.599999999999909 4.999999999999994
    vertex -202.6148604640577 5.399999999999914 4.999999999999994
  endloop
endfacet
facet normal 0.0 0.0 1.0
  outer loop
    vertex -207.96263791998206 9.640113622429064 14.44
    vertex -208.23289269604484 10.264121245151738 14.44
    vertex -208.36891954953674 9.640113622429064 14.44
  endloop
endfacet
facet normal 0.0 0.0 1.0
  outer loop
    vertex -208.23289269604484 10.264121245151738 14.44
    vertex -207.96263791998206 9.640113622429064 14.44
    vertex -208.0932403048505 10.264121245151737 14.44
  endloop
endfacet
facet normal 0.0 0.0 1.0
  outer loop
    vertex -208.23289269604484 10.264121245151738 14.44
    vertex -208.0932403048505 10.264121245151737 14.44
    vertex -208.16215319705697 10.882704399250931 14.44
  endloop
endfacet
facet normal 0.9770549630280809 -0.21298732174050966 -5.344510409558705e-16
  outer loop
    vertex -208.23289269604484 10.264121245151738 14.44
    vertex -208.36891954953674 9.640113622429064 15.000000000000004
    vertex -208.36891954953674 9.640113622429064 14.44
  endloop
endfacet
facet normal 0.9770549630280809 -0.21298732174050966 -5.344510409558705e-16
  outer loop
    vertex -208.36891954953674 9.640113622429064 15.000000000000004
    vertex -208.23289269604484 10.264121245151738 14.44
    vertex -208.23289269604484 10.264121245151735 15.000000000000004
  endloop
endfacet
facet normal 0.9935246467856303 -0.11361679554312683 -7.159169432832334e-16
  outer loop
    vertex -208.23289269604484 10.264121245151738 14.44
    vertex -208.16215319705697 10.882704399250926 15.000000000000004
    vertex -208.23289269604484 10.264121245151735 15.000000000000004
  endloop
endfacet
facet normal 0.9935246467856303 -0.11361679554312683 -7.159169432832334e-16
  outer loop
    vertex -208.16215319705697 10.882704399250926 15.000000000000004
    vertex -208.23289269604484 10.264121245151738 14.44
    vertex -208.16215319705697 10.882704399250931 14.44
  endloop
endfacet
facet normal 0.0 0.0 1.0
  outer loop
    vertex -207.8556430439699 9.243352488825826 15.000000000000004
    vertex -208.36891954953674 9.640113622429064 15.000000000000004
    vertex -208.4759421014092 9.243352488825826 15.000000000000004
  endloop
endfacet
facet normal 0.0 0.0 1.0
  outer loop
    vertex -208.36891954953674 9.640113622429064 15.000000000000004
    vertex -207.8556430439699 9.243352488825826 15.000000000000004
    vertex -207.96263791998206 9.640113622429064 15.000000000000004
  endloop
endfacet
facet normal 0.0 0.0 1.0
  outer loop
    vertex -208.65912862089303 8.469314027287364 15.000000000000004
    vertex -208.59428408015415 10.797462749453356 15.000000000000004
    vertex -209.2383290257513 8.469314027287364 15.000000000000004
  endloop
endfacet
facet normal 0.0 0.0 1.0
  outer loop
    vertex -208.59428408015415 10.797462749453356 15.000000000000004
    vertex -208.65912862089303 8.469314027287364 15.000000000000004
    vertex -208.4759421014092 9.243352488825826 15.000000000000004
  endloop
endfacet
facet normal 0.0 0.0 1.0
  outer loop
    vertex -208.59428408015415 10.797462749453356 15.000000000000004
    vertex -208.4759421014092 9.243352488825826 15.000000000000004
    vertex -208.52896904978977 11.189131524757 15.000000000000004
  endloop
endfacet
facet normal 0.0 0.0 1.0
  outer loop
    vertex -208.52896904978977 11.189131524757 15.000000000000004
    vertex -208.4759421014092 9.243352488825826 15.000000000000004
    vertex -208.16215319705697 10.882704399250926 15.000000000000004
  endloop
endfacet
facet normal 0.0 0.0 1.0
  outer loop
    vertex -208.52896904978977 11.189131524757 15.000000000000004
    vertex -208.16215319705697 10.882704399250926 15.000000000000004
    vertex -207.84316123096383 11.22538690178129 15.000000000000004
  endloop
endfacet
facet normal 0.0 0.0 1.0
  outer loop
    vertex -208.16215319705697 10.882704399250926 15.000000000000004
    vertex -208.4759421014092 9.243352488825826 15.000000000000004
    vertex -208.36891954953674 9.640113622429064 15.000000000000004
  endloop
endfacet
facet normal 0.0 0.0 1.0
  outer loop
    vertex -208.16215319705697 10.882704399250926 15.000000000000004
    vertex -208.36891954953674 9.640113622429064 15.000000000000004
    vertex -208.23289269604484 10.264121245151735 15.000000000000004
  endloop
endfacet
facet normal 0.0 0.0 1.0
  outer loop
    vertex -207.84316123096383 11.22538690178129 15.000000000000004
    vertex -208.16215319705697 10.882704399250926 15.000000000000004
    vertex -208.0932403048505 10.264121245151735 15.000000000000004
  endloop
endfacet
facet normal 0.0 0.0 1.0
  outer loop
    vertex -207.84316123096383 11.22538690178129 15.000000000000004
    vertex -208.0932403048505 10.264121245151735 15.000000000000004
    vertex -207.96263791998206 9.640113622429064 15.000000000000004
  endloop
endfacet
facet normal 0.0 0.0 1.0
  outer loop
    vertex -207.84316123096383 11.22538690178129 15.000000000000004
    vertex -207.96263791998206 9.640113622429064 15.000000000000004
    vertex -207.8556430439699 9.243352488825826 15.000000000000004
  endloop
endfacet
facet normal 0.0 0.0 1.0
  outer loop
    vertex -207.84316123096383 11.22538690178129 15.000000000000004
    vertex -207.8556430439699 9.243352488825826 15.000000000000004
    vertex -207.6670043800023 8.469314027287364 15.000000000000004
  endloop
endfacet
facet normal 0.0 0.0 1.0
  outer loop
    vertex -207.84316123096383 11.22538690178129 15.000000000000004
    vertex -207.6670043800023 8.469314027287364 15.000000000000004
    vertex -207.06123514923308 8.469314027287364 15.000000000000004
  endloop
endfacet
facet normal 0.0 1.0 0.0
  outer loop
    vertex -208.36891954953674 9.640113622429064 15.000000000000004
    vertex -207.96263791998206 9.640113622429064 14.44
    vertex -208.36891954953674 9.640113622429064 14.44
  endloop
endfacet
facet normal 0.0 1.0 0.0
  outer loop
    vertex -207.96263791998206 9.640113622429064 14.44
    vertex -208.36891954953674 9.640113622429064 15.000000000000004
    vertex -207.96263791998206 9.640113622429064 15.000000000000004
  endloop
endfacet
facet normal -0.9638016619259536 0.2666202476721716 6.541652422969736e-16
  outer loop
    vertex -208.59428408015415 10.797462749453356 15.000000000000004
    vertex -209.2383290257513 8.469314027287364 14.44
    vertex -209.2383290257513 8.469314027287364 15.000000000000004
  endloop
endfacet
facet normal -0.9638016619259536 0.2666202476721716 6.541652422969736e-16
  outer loop
    vertex -209.2383290257513 8.469314027287364 14.44
    vertex -208.59428408015415 10.797462749453356 15.000000000000004
    vertex -208.59428408015415 10.79746274945336 14.44
  endloop
endfacet
facet normal -0.986378849655156 0.16448940681080781 1.0364731091343446e-15
  outer loop
    vertex -208.52896904978977 11.189131524757 15.000000000000004
    vertex -208.59428408015415 10.79746274945336 14.44
    vertex -208.59428408015415 10.797462749453356 15.000000000000004
  endloop
endfacet
facet normal -0.986378849655156 0.16448940681080781 1.0364731091343446e-15
  outer loop
    vertex -208.59428408015415 10.79746274945336 14.44
    vertex -208.52896904978977 11.189131524757 15.000000000000004
    vertex -208.52896904978977 11.189131524757004 14.44
  endloop
endfacet
facet normal -0.05279149633996542 0.9986055567210647 0.0
  outer loop
    vertex -208.52896904978977 11.189131524757 15.000000000000004
    vertex -207.84316123096383 11.225386901781286 14.44
    vertex -208.52896904978977 11.189131524757004 14.44
  endloop
endfacet
facet normal -0.05279149633996542 0.9986055567210647 0.0
  outer loop
    vertex -207.84316123096383 11.225386901781286 14.44
    vertex -208.52896904978977 11.189131524757 15.000000000000004
    vertex -207.84316123096383 11.22538690178129 15.000000000000004
  endloop
endfacet
facet normal 0.9620315680746092 0.27293820184779705 -3.0439392647021287e-16
  outer loop
    vertex -207.06123514923308 8.469314027287366 14.44
    vertex -207.84316123096383 11.22538690178129 15.000000000000004
    vertex -207.06123514923308 8.469314027287364 15.000000000000004
  endloop
endfacet
facet normal 0.9620315680746092 0.27293820184779705 -3.0439392647021287e-16
  outer loop
    vertex -207.84316123096383 11.22538690178129 15.000000000000004
    vertex -207.06123514923308 8.469314027287366 14.44
    vertex -207.84316123096383 11.225386901781286 14.44
  endloop
endfacet
facet normal 5.81897845605144e-15 -1.0 1.2589136082800692e-15
  outer loop
    vertex -207.06123514923308 8.469314027287364 15.000000000000004
    vertex -207.66700438000234 8.469314027287359 14.44
    vertex -207.06123514923308 8.469314027287366 14.44
  endloop
endfacet
facet normal 5.81897845605144e-15 -1.0 1.2589136082800692e-15
  outer loop
    vertex -207.66700438000234 8.469314027287359 14.44
    vertex -207.06123514923308 8.469314027287364 15.000000000000004
    vertex -207.6670043800023 8.469314027287364 15.000000000000004
  endloop
endfacet
facet normal -0.971564013481904 -0.23677704218723333 8.00810713412206e-14
  outer loop
    vertex -207.6670043800023 8.469314027287364 15.000000000000004
    vertex -207.85564304396996 9.243352488825822 14.44
    vertex -207.66700438000234 8.469314027287359 14.44
  endloop
endfacet
facet normal -0.971564013481904 -0.23677704218723333 8.00810713412206e-14
  outer loop
    vertex -207.85564304396996 9.243352488825822 14.44
    vertex -207.6670043800023 8.469314027287364 15.000000000000004
    vertex -207.8556430439699 9.243352488825826 15.000000000000004
  endloop
endfacet
facet normal 5.682675253024923e-15 -1.0 1.3848049691083338e-14
  outer loop
    vertex -207.8556430439699 9.243352488825826 15.000000000000004
    vertex -208.47594210140915 9.243352488825815 14.44
    vertex -207.85564304396996 9.243352488825822 14.44
  endloop
endfacet
facet normal 5.682675253024923e-15 -1.0 1.3848049691083338e-14
  outer loop
    vertex -208.47594210140915 9.243352488825815 14.44
    vertex -207.8556430439699 9.243352488825826 15.000000000000004
    vertex -208.4759421014092 9.243352488825826 15.000000000000004
  endloop
endfacet
facet normal 0.9731192884861002 -0.23030165083278575 4.151696548382395e-14
  outer loop
    vertex -208.47594210140915 9.243352488825815 14.44
    vertex -208.65912862089303 8.469314027287364 15.000000000000004
    vertex -208.65912862089303 8.469314027287364 14.44
  endloop
endfacet
facet normal 0.9731192884861002 -0.23030165083278575 4.151696548382395e-14
  outer loop
    vertex -208.65912862089303 8.469314027287364 15.000000000000004
    vertex -208.47594210140915 9.243352488825815 14.44
    vertex -208.4759421014092 9.243352488825826 15.000000000000004
  endloop
endfacet
facet normal 0.0 -1.0 0.0
  outer loop
    vertex -208.65912862089303 8.469314027287364 15.000000000000004
    vertex -209.2383290257513 8.469314027287364 14.44
    vertex -208.65912862089303 8.469314027287364 14.44
  endloop
endfacet
facet normal 0.0 -1.0 0.0
  outer loop
    vertex -209.2383290257513 8.469314027287364 14.44
    vertex -208.65912862089303 8.469314027287364 15.000000000000004
    vertex -209.2383290257513 8.469314027287364 15.000000000000004
  endloop
endfacet
facet normal -0.9787918398489451 -0.2048573509667565 -2.513135438915725e-16
  outer loop
    vertex -208.0932403048505 10.264121245151735 15.000000000000004
    vertex -207.96263791998206 9.640113622429064 14.44
    vertex -207.96263791998206 9.640113622429064 15.000000000000004
  endloop
endfacet
facet normal -0.9787918398489451 -0.2048573509667565 -2.513135438915725e-16
  outer loop
    vertex -207.96263791998206 9.640113622429064 14.44
    vertex -208.0932403048505 10.264121245151735 15.000000000000004
    vertex -208.0932403048505 10.264121245151737 14.44
  endloop
endfacet
facet normal -0.9938516993871246 -0.11071946362462408 -5.618327181299813e-16
  outer loop
    vertex -208.16215319705697 10.882704399250926 15.000000000000004
    vertex -208.0932403048505 10.264121245151737 14.44
    vertex -208.0932403048505 10.264121245151735 15.000000000000004
  endloop
endfacet
facet normal -0.9938516993871246 -0.11071946362462408 -5.618327181299813e-16
  outer loop
    vertex -208.0932403048505 10.264121245151737 14.44
    vertex -208.16215319705697 10.882704399250926 15.000000000000004
    vertex -208.16215319705697 10.882704399250931 14.44
  endloop
endfacet
facet normal -0.9536188912405259 -0.30101662789485617 3.7251737974426475e-14
  outer loop
    vertex -206.9435297152756 11.189131524757 15.000000000000004
    vertex -206.08521825905092 8.470005923795464 14.44
    vertex -206.0852182590509 8.47000592379546 15.000000000000004
  endloop
endfacet
facet normal -0.9536188912405259 -0.30101662789485617 3.7251737974426475e-14
  outer loop
    vertex -206.08521825905092 8.470005923795464 14.44
    vertex -206.9435297152756 11.189131524757 15.000000000000004
    vertex -206.9435297152756 11.189131524757002 14.44
  endloop
endfacet
facet normal -0.04816759553608641 -0.9988392677204236 -1.15169838069165e-15
  outer loop
    vertex -205.44645940277562 8.439202691254975 15.000000000000004
    vertex -206.08521825905092 8.470005923795464 14.44
    vertex -205.44645940277564 8.439202691254978 14.44
  endloop
endfacet
facet normal -0.04816759553608641 -0.9988392677204236 -1.15169838069165e-15
  outer loop
    vertex -206.08521825905092 8.470005923795464 14.44
    vertex -205.44645940277562 8.439202691254975 15.000000000000004
    vertex -206.0852182590509 8.47000592379546 15.000000000000004
  endloop
endfacet
facet normal 0.0 0.0 1.0
  outer loop
    vertex -206.0852182590509 8.47000592379546 15.000000000000004
    vertex -206.3590155452351 11.22538690178129 15.000000000000004
    vertex -206.9435297152756 11.189131524757 15.000000000000004
  endloop
endfacet
facet normal 0.0 0.0 1.0
  outer loop
    vertex -206.3590155452351 11.22538690178129 15.000000000000004
    vertex -206.0852182590509 8.47000592379546 15.000000000000004
    vertex -205.9000944293444 9.738944119645662 15.000000000000004
  endloop
endfacet
facet normal 0.0 0.0 1.0
  outer loop
    vertex -205.9000944293444 9.738944119645662 15.000000000000004
    vertex -206.0852182590509 8.47000592379546 15.000000000000004
    vertex -205.80394849057924 8.941325825111251 15.000000000000004
  endloop
endfacet
facet normal 0.0 0.0 1.0
  outer loop
    vertex -205.80394849057924 8.941325825111251 15.000000000000004
    vertex -206.0852182590509 8.47000592379546 15.000000000000004
    vertex -205.44645940277562 8.439202691254975 15.000000000000004
  endloop
endfacet
facet normal 0.0 0.0 1.0
  outer loop
    vertex -205.80394849057924 8.941325825111251 15.000000000000004
    vertex -205.44645940277562 8.439202691254975 15.000000000000004
    vertex -205.67699931927356 9.739386933410845 15.000000000000004
  endloop
endfacet
facet normal 0.0 0.0 1.0
  outer loop
    vertex -205.67699931927356 9.739386933410845 15.000000000000004
    vertex -205.44645940277562 8.439202691254975 15.000000000000004
    vertex -205.22718356142943 11.190404614331898 15.000000000000004
  endloop
endfacet
facet normal 0.0 0.0 1.0
  outer loop
    vertex -205.22718356142943 11.190404614331898 15.000000000000004
    vertex -205.44645940277562 8.439202691254975 15.000000000000004
    vertex -205.3956465232209 8.832559694038377 15.000000000000004
  endloop
endfacet
facet normal 0.0 0.0 1.0
  outer loop
    vertex -205.22718356142943 11.190404614331898 15.000000000000004
    vertex -205.3956465232209 8.832559694038377 15.000000000000004
    vertex -204.64621190151044 11.190404614331898 15.000000000000004
  endloop
endfacet
facet normal -0.06190754138472244 0.9980818885841476 7.537837393325285e-15
  outer loop
    vertex -206.9435297152756 11.189131524757 15.000000000000004
    vertex -206.3590155452351 11.225386901781297 14.44
    vertex -206.9435297152756 11.189131524757002 14.44
  endloop
endfacet
facet normal -0.06190754138472244 0.9980818885841476 7.537837393325285e-15
  outer loop
    vertex -206.3590155452351 11.225386901781297 14.44
    vertex -206.9435297152756 11.189131524757 15.000000000000004
    vertex -206.3590155452351 11.22538690178129 15.000000000000004
  endloop
endfacet
facet normal 0.9530178499651957 -0.3029141423699394 -4.1462511694213806e-14
  outer loop
    vertex -205.39564652322096 8.832559694038387 14.44
    vertex -204.64621190151044 11.190404614331898 15.000000000000004
    vertex -205.3956465232209 8.832559694038377 15.000000000000004
  endloop
endfacet
facet normal 0.9530178499651957 -0.3029141423699394 -4.1462511694213806e-14
  outer loop
    vertex -204.64621190151044 11.190404614331898 15.000000000000004
    vertex -205.39564652322096 8.832559694038387 14.44
    vertex -204.64621190151044 11.190404614331898 14.44
  endloop
endfacet
facet normal 0.9917595727289239 -0.12811303563861984 -8.152723927370888e-14
  outer loop
    vertex -205.44645940277564 8.439202691254978 14.44
    vertex -205.3956465232209 8.832559694038377 15.000000000000004
    vertex -205.44645940277562 8.439202691254975 15.000000000000004
  endloop
endfacet
facet normal 0.9917595727289239 -0.12811303563861984 -8.152723927370888e-14
  outer loop
    vertex -205.3956465232209 8.832559694038377 15.000000000000004
    vertex -205.44645940277564 8.439202691254978 14.44
    vertex -205.39564652322096 8.832559694038387 14.44
  endloop
endfacet
facet normal 0.9554977752194916 0.2949983077080305 1.8423799909042497e-15
  outer loop
    vertex -206.3590155452351 11.225386901781297 14.44
    vertex -205.9000944293444 9.738944119645662 15.000000000000004
    vertex -205.9000944293444 9.738944119645662 14.44
  endloop
endfacet
facet normal 0.9554977752194916 0.2949983077080305 1.8423799909042497e-15
  outer loop
    vertex -205.9000944293444 9.738944119645662 15.000000000000004
    vertex -206.3590155452351 11.225386901781297 14.44
    vertex -206.3590155452351 11.22538690178129 15.000000000000004
  endloop
endfacet
facet normal 0.9928131245271129 0.11967497552417279 4.045259447164238e-14
  outer loop
    vertex -205.80394849057922 8.941325825111255 14.44
    vertex -205.9000944293444 9.738944119645662 15.000000000000004
    vertex -205.80394849057924 8.941325825111251 15.000000000000004
  endloop
endfacet
facet normal 0.9928131245271129 0.11967497552417279 4.045259447164238e-14
  outer loop
    vertex -205.9000944293444 9.738944119645662 15.000000000000004
    vertex -205.80394849057922 8.941325825111255 14.44
    vertex -205.9000944293444 9.738944119645662 14.44
  endloop
endfacet
facet normal -0.9875832047614522 0.15709682897213248 1.9728989187040127e-15
  outer loop
    vertex -205.67699931927356 9.739386933410845 15.000000000000004
    vertex -205.80394849057922 8.941325825111255 14.44
    vertex -205.80394849057924 8.941325825111251 15.000000000000004
  endloop
endfacet
facet normal -0.9875832047614522 0.15709682897213248 1.9728989187040127e-15
  outer loop
    vertex -205.80394849057922 8.941325825111255 14.44
    vertex -205.67699931927356 9.739386933410845 15.000000000000004
    vertex -205.6769993192736 9.739386933410856 14.44
  endloop
endfacet
facet normal -0.9551572746498109 0.29609893732255393 4.109048217814116e-14
  outer loop
    vertex -205.22718356142943 11.190404614331898 15.000000000000004
    vertex -205.6769993192736 9.739386933410856 14.44
    vertex -205.67699931927356 9.739386933410845 15.000000000000004
  endloop
endfacet
facet normal -0.9551572746498109 0.29609893732255393 4.109048217814116e-14
  outer loop
    vertex -205.6769993192736 9.739386933410856 14.44
    vertex -205.22718356142943 11.190404614331898 15.000000000000004
    vertex -205.22718356142943 11.190404614331898 14.44
  endloop
endfacet
facet normal 0.0 1.0 0.0
  outer loop
    vertex -205.22718356142943 11.190404614331898 15.000000000000004
    vertex -204.64621190151044 11.190404614331898 14.44
    vertex -205.22718356142943 11.190404614331898 14.44
  endloop
endfacet
facet normal 0.0 1.0 0.0
  outer loop
    vertex -204.64621190151044 11.190404614331898 14.44
    vertex -205.22718356142943 11.190404614331898 15.000000000000004
    vertex -204.64621190151044 11.190404614331898 15.000000000000004
  endloop
endfacet
facet normal -0.8910328344149392 -0.45393885931310113 -1.7709519366595643e-15
  outer loop
    vertex -210.95987824133834 10.192385415192222 15.000000000000004
    vertex -210.08205530358526 8.469314027287375 14.44
    vertex -210.0820553035853 8.469314027287364 15.000000000000004
  endloop
endfacet
facet normal -0.8910328344149392 -0.45393885931310113 -1.7709519366595643e-15
  outer loop
    vertex -210.08205530358526 8.469314027287375 14.44
    vertex -210.95987824133834 10.192385415192222 15.000000000000004
    vertex -210.95987824133837 10.192385415192215 14.44
  endloop
endfacet
facet normal 0.9854017968268256 0.17024482021625104 -8.154590837428035e-14
  outer loop
    vertex -210.95987824133837 10.192385415192215 14.44
    vertex -210.86555890935452 9.646451394443234 15.000000000000004
    vertex -210.86555890935458 9.646451394443227 14.44
  endloop
endfacet
facet normal 0.9854017968268256 0.17024482021625104 -8.154590837428035e-14
  outer loop
    vertex -210.86555890935452 9.646451394443234 15.000000000000004
    vertex -210.95987824133837 10.192385415192215 14.44
    vertex -210.95987824133834 10.192385415192222 15.000000000000004
  endloop
endfacet
facet normal 1.0 1.9164910136945755e-14 -4.028523546496983e-14
  outer loop
    vertex -210.86555890935458 9.646451394443227 14.44
    vertex -210.86555890935452 8.469314027287364 15.000000000000004
    vertex -210.86555890935452 8.469314027287364 14.44
  endloop
endfacet
facet normal 1.0 1.9164910136945755e-14 -4.028523546496983e-14
  outer loop
    vertex -210.86555890935452 8.469314027287364 15.000000000000004
    vertex -210.86555890935458 9.646451394443227 14.44
    vertex -210.86555890935452 9.646451394443234 15.000000000000004
  endloop
endfacet
facet normal 0.0 -1.0 0.0
  outer loop
    vertex -210.86555890935452 8.469314027287364 15.000000000000004
    vertex -211.45137384483024 8.469314027287364 14.44
    vertex -210.86555890935452 8.469314027287364 14.44
  endloop
endfacet
facet normal 0.0 -1.0 0.0
  outer loop
    vertex -211.45137384483024 8.469314027287364 14.44
    vertex -210.86555890935452 8.469314027287364 15.000000000000004
    vertex -211.45137384483024 8.469314027287364 15.000000000000004
  endloop
endfacet
facet normal -1.0 0.0 0.0
  outer loop
    vertex -211.45137384483024 10.759380765647688 15.000000000000004
    vertex -211.45137384483024 8.469314027287364 14.44
    vertex -211.45137384483024 8.469314027287364 15.000000000000004
  endloop
endfacet
facet normal -1.0 0.0 0.0
  outer loop
    vertex -211.45137384483024 8.469314027287364 14.44
    vertex -211.45137384483024 10.759380765647688 15.000000000000004
    vertex -211.45137384483024 10.759380765647684 14.44
  endloop
endfacet
facet normal -0.9904371494522941 -0.1379646802077044 6.923920762005348e-16
  outer loop
    vertex -211.45137384483024 10.759380765647688 15.000000000000004
    vertex -211.5112367307108 11.189131524756997 14.44
    vertex -211.45137384483024 10.759380765647684 14.44
  endloop
endfacet
facet normal -0.9904371494522941 -0.1379646802077044 6.923920762005348e-16
  outer loop
    vertex -211.5112367307108 11.189131524756997 14.44
    vertex -211.45137384483024 10.759380765647688 15.000000000000004
    vertex -211.5112367307108 11.189131524757 15.000000000000004
  endloop
endfacet
facet normal -0.061203153997705734 0.9981253297761424 5.026603189551038e-15
  outer loop
    vertex -211.5112367307108 11.189131524757 15.000000000000004
    vertex -210.9199696507513 11.225386901781299 14.44
    vertex -211.5112367307108 11.189131524756997 14.44
  endloop
endfacet
facet normal -0.061203153997705734 0.9981253297761424 5.026603189551038e-15
  outer loop
    vertex -210.9199696507513 11.225386901781299 14.44
    vertex -211.5112367307108 11.189131524757 15.000000000000004
    vertex -210.9199696507513 11.22538690178129 15.000000000000004
  endloop
endfacet
facet normal 0.8873815693773647 0.4610357364992062 2.9307657177272906e-15
  outer loop
    vertex -210.9199696507513 11.225386901781299 14.44
    vertex -210.05302332610555 9.556726255273194 15.000000000000004
    vertex -210.05302332610555 9.556726255273192 14.44
  endloop
endfacet
facet normal 0.8873815693773647 0.4610357364992062 2.9307657177272906e-15
  outer loop
    vertex -210.05302332610555 9.556726255273194 15.000000000000004
    vertex -210.9199696507513 11.225386901781299 14.44
    vertex -210.9199696507513 11.22538690178129 15.000000000000004
  endloop
endfacet
facet normal -0.9816181736477877 -0.1908553409375321 4.0750388309566926e-14
  outer loop
    vertex -210.05302332610555 9.556726255273194 15.000000000000004
    vertex -210.14189051360557 10.013793088522176 14.44
    vertex -210.05302332610555 9.556726255273192 14.44
  endloop
endfacet
facet normal -0.9816181736477877 -0.1908553409375321 4.0750388309566926e-14
  outer loop
    vertex -210.14189051360557 10.013793088522176 14.44
    vertex -210.05302332610555 9.556726255273194 15.000000000000004
    vertex -210.14189051360555 10.013793088522181 15.000000000000004
  endloop
endfacet
facet normal -1.0 -1.9194695242299055e-14 1.2085570639490925e-13
  outer loop
    vertex -210.14189051360555 10.013793088522181 15.000000000000004
    vertex -210.14189051360563 11.189103848896673 14.44
    vertex -210.14189051360557 10.013793088522176 14.44
  endloop
endfacet
facet normal -1.0 -1.9194695242299055e-14 1.2085570639490925e-13
  outer loop
    vertex -210.14189051360563 11.189103848896673 14.44
    vertex -210.14189051360555 10.013793088522181 15.000000000000004
    vertex -210.14189051360555 11.189103848896675 15.000000000000004
  endloop
endfacet
facet normal -0.06201018918536534 0.9980755164000344 3.72252298449025e-15
  outer loop
    vertex -210.14189051360555 11.189103848896675 15.000000000000004
    vertex -209.55790218491126 11.225386901781286 14.44
    vertex -210.14189051360563 11.189103848896673 14.44
  endloop
endfacet
facet normal -0.06201018918536534 0.9980755164000344 3.72252298449025e-15
  outer loop
    vertex -209.55790218491126 11.225386901781286 14.44
    vertex -210.14189051360555 11.189103848896675 15.000000000000004
    vertex -209.55790218491123 11.22538690178129 15.000000000000004
  endloop
endfacet
facet normal 1.0 8.185462753602124e-15 -4.028523546496973e-14
  outer loop
    vertex -209.55790218491126 11.225386901781286 14.44
    vertex -209.55790218491123 8.469314027287364 15.000000000000004
    vertex -209.55790218491123 8.469314027287364 14.44
  endloop
endfacet
facet normal 1.0 8.185462753602124e-15 -4.028523546496973e-14
  outer loop
    vertex -209.55790218491123 8.469314027287364 15.000000000000004
    vertex -209.55790218491126 11.225386901781286 14.44
    vertex -209.55790218491123 11.22538690178129 15.000000000000004
  endloop
endfacet
facet normal -1.0760086631484168e-14 -1.0 -1.007130886624286e-14
  outer loop
    vertex -209.55790218491123 8.469314027287364 15.000000000000004
    vertex -210.08205530358526 8.469314027287375 14.44
    vertex -209.55790218491123 8.469314027287364 14.44
  endloop
endfacet
facet normal -1.0760086631484168e-14 -1.0 -1.007130886624286e-14
  outer loop
    vertex -210.08205530358526 8.469314027287375 14.44
    vertex -209.55790218491123 8.469314027287364 15.000000000000004
    vertex -210.0820553035853 8.469314027287364 15.000000000000004
  endloop
endfacet
facet normal 0.0 0.0 1.0
  outer loop
    vertex -210.86555890935452 8.469314027287364 15.000000000000004
    vertex -211.45137384483024 10.759380765647688 15.000000000000004
    vertex -211.45137384483024 8.469314027287364 15.000000000000004
  endloop
endfacet
facet normal 0.0 0.0 1.0
  outer loop
    vertex -211.45137384483024 10.759380765647688 15.000000000000004
    vertex -210.86555890935452 8.469314027287364 15.000000000000004
    vertex -210.95987824133834 10.192385415192222 15.000000000000004
  endloop
endfacet
facet normal 0.0 0.0 1.0
  outer loop
    vertex -210.95987824133834 10.192385415192222 15.000000000000004
    vertex -210.86555890935452 8.469314027287364 15.000000000000004
    vertex -210.86555890935452 9.646451394443234 15.000000000000004
  endloop
endfacet
facet normal 0.0 0.0 1.0
  outer loop
    vertex -211.45137384483024 10.759380765647688 15.000000000000004
    vertex -210.9199696507513 11.22538690178129 15.000000000000004
    vertex -211.5112367307108 11.189131524757 15.000000000000004
  endloop
endfacet
facet normal 0.0 0.0 1.0
  outer loop
    vertex -210.9199696507513 11.22538690178129 15.000000000000004
    vertex -211.45137384483024 10.759380765647688 15.000000000000004
    vertex -210.95987824133834 10.192385415192222 15.000000000000004
  endloop
endfacet
facet normal 0.0 0.0 1.0
  outer loop
    vertex -210.9199696507513 11.22538690178129 15.000000000000004
    vertex -210.95987824133834 10.192385415192222 15.000000000000004
    vertex -210.0820553035853 8.469314027287364 15.000000000000004
  endloop
endfacet
facet normal 0.0 0.0 1.0
  outer loop
    vertex -210.9199696507513 11.22538690178129 15.000000000000004
    vertex -210.0820553035853 8.469314027287364 15.000000000000004
    vertex -210.05302332610555 9.556726255273194 15.000000000000004
  endloop
endfacet
facet normal 0.0 0.0 1.0
  outer loop
    vertex -210.05302332610555 9.556726255273194 15.000000000000004
    vertex -210.0820553035853 8.469314027287364 15.000000000000004
    vertex -209.55790218491123 8.469314027287364 15.000000000000004
  endloop
endfacet
facet normal 0.0 0.0 1.0
  outer loop
    vertex -210.05302332610555 9.556726255273194 15.000000000000004
    vertex -210.14189051360555 11.189103848896675 15.000000000000004
    vertex -210.14189051360555 10.013793088522181 15.000000000000004
  endloop
endfacet
facet normal 0.0 0.0 1.0
  outer loop
    vertex -210.14189051360555 11.189103848896675 15.000000000000004
    vertex -210.05302332610555 9.556726255273194 15.000000000000004
    vertex -209.55790218491123 11.22538690178129 15.000000000000004
  endloop
endfacet
facet normal 0.0 0.0 1.0
  outer loop
    vertex -209.55790218491123 11.22538690178129 15.000000000000004
    vertex -210.05302332610555 9.556726255273194 15.000000000000004
    vertex -209.55790218491123 8.469314027287364 15.000000000000004
  endloop
endfacet
endsolid RMP_Front
