solid RMP_Front
facet normal 0.6610579506661245 -0.7503348491580967 0.0
  outer loop
    vertex -137.06024730477722 1.4975048320970283 23.14000000000001
    vertex -137.2126029158602 1.36327690952618 23.00000000000001
    vertex -137.06024730477722 1.4975048320970283 23.00000000000001
  endloop
endfacet
facet normal 0.6610579506661245 -0.7503348491580967 0.0
  outer loop
    vertex -137.2126029158602 1.36327690952618 23.00000000000001
    vertex -137.06024730477722 1.4975048320970283 23.14000000000001
    vertex -137.2126029158602 1.36327690952618 23.14000000000001
  endloop
endfacet
facet normal -0.7665187988418612 -0.6422218705572325 0.0
  outer loop
    vertex -137.49373430503024 1.6988190400929812 23.14000000000001
    vertex -137.2126029158602 1.36327690952618 23.00000000000001
    vertex -137.2126029158602 1.36327690952618 23.14000000000001
  endloop
endfacet
facet normal -0.7665187988418612 -0.6422218705572325 0.0
  outer loop
    vertex -137.2126029158602 1.36327690952618 23.00000000000001
    vertex -137.49373430503024 1.6988190400929812 23.14000000000001
    vertex -137.49373430503024 1.6988190400929812 23.00000000000001
  endloop
endfacet
facet normal 0.7665842223369265 -0.6421437767853005 0.0
  outer loop
    vertex -136.64851353073874 1.9890281114492545 23.00000000000001
    vertex -137.06024730477722 1.4975048320970283 23.14000000000001
    vertex -137.06024730477722 1.4975048320970283 23.00000000000001
  endloop
endfacet
facet normal 0.7665842223369265 -0.6421437767853005 0.0
  outer loop
    vertex -137.06024730477722 1.4975048320970283 23.14000000000001
    vertex -136.64851353073874 1.9890281114492545 23.00000000000001
    vertex -136.64851353073874 1.9890281114492545 23.14000000000001
  endloop
endfacet
facet normal -0.6732225084452446 0.739439959782194 0.0
  outer loop
    vertex -137.49373430503024 1.6988190400929812 23.14000000000001
    vertex -136.62313476682175 2.4914556797690928 23.00000000000001
    vertex -137.49373430503024 1.6988190400929812 23.00000000000001
  endloop
endfacet
facet normal -0.6732225084452446 0.739439959782194 0.0
  outer loop
    vertex -136.62313476682175 2.4914556797690928 23.00000000000001
    vertex -137.49373430503024 1.6988190400929812 23.14000000000001
    vertex -136.62313476682175 2.4914556797690928 23.14000000000001
  endloop
endfacet
facet normal 0.0 0.0 -1.0
  outer loop
    vertex -136.64851353073874 1.9890281114492545 23.00000000000001
    vertex -136.7827414533096 0.09727235487030704 23.00000000000001
    vertex -136.7827414533096 1.330647070204315 23.00000000000001
  endloop
endfacet
facet normal 0.0 0.0 -1.0
  outer loop
    vertex -136.62313476682175 2.4914556797690928 23.00000000000001
    vertex -137.2126029158602 1.36327690952618 23.00000000000001
    vertex -137.49373430503024 1.6988190400929812 23.00000000000001
  endloop
endfacet
facet normal 0.0 0.0 -1.0
  outer loop
    vertex -137.2126029158602 1.36327690952618 23.00000000000001
    vertex -136.62313476682175 2.4914556797690928 23.00000000000001
    vertex -137.06024730477722 1.4975048320970283 23.00000000000001
  endloop
endfacet
facet normal 0.0 0.0 -1.0
  outer loop
    vertex -137.06024730477722 1.4975048320970283 23.00000000000001
    vertex -136.62313476682175 2.4914556797690928 23.00000000000001
    vertex -136.64851353073874 1.9890281114492545 23.00000000000001
  endloop
endfacet
facet normal 0.0 0.0 -1.0
  outer loop
    vertex -136.7827414533096 0.09727235487030704 23.00000000000001
    vertex -137.2234795289675 -0.2654751463948727 23.00000000000001
    vertex -137.2234795289675 0.09727235487030704 23.00000000000001
  endloop
endfacet
facet normal 0.0 0.0 -1.0
  outer loop
    vertex -137.2234795289675 -0.2654751463948727 23.00000000000001
    vertex -136.7827414533096 0.09727235487030704 23.00000000000001
    vertex -135.74163093964563 -0.2654751463948727 23.00000000000001
  endloop
endfacet
facet normal 0.0 0.0 -1.0
  outer loop
    vertex -135.74163093964563 -0.2654751463948727 23.00000000000001
    vertex -136.7827414533096 0.09727235487030704 23.00000000000001
    vertex -136.1823690153035 0.09727235487030704 23.00000000000001
  endloop
endfacet
facet normal 0.0 0.0 -1.0
  outer loop
    vertex -136.1823690153035 0.09727235487030704 23.00000000000001
    vertex -136.7827414533096 0.09727235487030704 23.00000000000001
    vertex -136.64851353073874 1.9890281114492545 23.00000000000001
  endloop
endfacet
facet normal 0.0 0.0 -1.0
  outer loop
    vertex -136.1823690153035 0.09727235487030704 23.00000000000001
    vertex -136.64851353073874 1.9890281114492545 23.00000000000001
    vertex -136.62313476682175 2.4914556797690928 23.00000000000001
  endloop
endfacet
facet normal 0.0 0.0 -1.0
  outer loop
    vertex -136.1823690153035 0.09727235487030704 23.00000000000001
    vertex -136.62313476682175 2.4914556797690928 23.00000000000001
    vertex -136.1823690153035 2.455172626884479 23.00000000000001
  endloop
endfacet
facet normal 0.0 0.0 -1.0
  outer loop
    vertex -135.74163093964563 -0.2654751463948727 23.00000000000001
    vertex -136.1823690153035 0.09727235487030704 23.00000000000001
    vertex -135.74163093964563 0.09727235487030704 23.00000000000001
  endloop
endfacet
facet normal 0.0 0.0 -1.0
  outer loop
    vertex -144.2327786180363 2.4905977280990528 23.00000000000001
    vertex -143.9589813318521 -0.26478324988677715 23.00000000000001
    vertex -144.8172927880768 2.4543423510747626 23.00000000000001
  endloop
endfacet
facet normal 0.0 0.0 -1.0
  outer loop
    vertex -143.9589813318521 -0.26478324988677715 23.00000000000001
    vertex -144.2327786180363 2.4905977280990528 23.00000000000001
    vertex -143.77385750214563 1.0041549459634251 23.00000000000001
  endloop
endfacet
facet normal 0.0 0.0 -1.0
  outer loop
    vertex -143.9589813318521 -0.26478324988677715 23.00000000000001
    vertex -143.77385750214563 1.0041549459634251 23.00000000000001
    vertex -143.67771156338043 0.20653665142901317 23.00000000000001
  endloop
endfacet
facet normal 0.0 0.0 -1.0
  outer loop
    vertex -143.9589813318521 -0.26478324988677715 23.00000000000001
    vertex -143.67771156338043 0.20653665142901317 23.00000000000001
    vertex -143.3202224755768 -0.2955864824272626 23.00000000000001
  endloop
endfacet
facet normal 0.0 0.0 -1.0
  outer loop
    vertex -143.3202224755768 -0.2955864824272626 23.00000000000001
    vertex -143.67771156338043 0.20653665142901317 23.00000000000001
    vertex -143.55076239207477 1.0045977597286084 23.00000000000001
  endloop
endfacet
facet normal 0.0 0.0 -1.0
  outer loop
    vertex -143.3202224755768 -0.2955864824272626 23.00000000000001
    vertex -143.55076239207477 1.0045977597286084 23.00000000000001
    vertex -143.10094663423064 2.455615440649662 23.00000000000001
  endloop
endfacet
facet normal 0.0 0.0 -1.0
  outer loop
    vertex -143.3202224755768 -0.2955864824272626 23.00000000000001
    vertex -143.10094663423064 2.455615440649662 23.00000000000001
    vertex -143.26940959602214 0.0977705203561374 23.00000000000001
  endloop
endfacet
facet normal 0.0 0.0 -1.0
  outer loop
    vertex -143.26940959602214 0.0977705203561374 23.00000000000001
    vertex -143.10094663423064 2.455615440649662 23.00000000000001
    vertex -142.5199749743116 2.455615440649662 23.00000000000001
  endloop
endfacet
facet normal 0.0 0.0 -1.0
  outer loop
    vertex -138.01213084475694 2.455172626884479 23.00000000000001
    vertex -139.7656733548784 2.025311164333871 23.00000000000001
    vertex -139.8291617784614 2.455172626884479 23.00000000000001
  endloop
endfacet
facet normal 0.0 0.0 -1.0
  outer loop
    vertex -139.7656733548784 2.025311164333871 23.00000000000001
    vertex -138.01213084475694 2.455172626884479 23.00000000000001
    vertex -139.1569981587752 2.0424701977346804 23.00000000000001
  endloop
endfacet
facet normal 0.0 0.0 -1.0
  outer loop
    vertex -139.7656733548784 2.025311164333871 23.00000000000001
    vertex -139.1569981587752 2.0424701977346804 23.00000000000001
    vertex -139.7656733548784 -0.2654751463948727 23.00000000000001
  endloop
endfacet
facet normal 0.0 0.0 -1.0
  outer loop
    vertex -139.1569981587752 2.0424701977346804 23.00000000000001
    vertex -138.01213084475694 2.455172626884479 23.00000000000001
    vertex -138.06111711753024 2.0424701977346804 23.00000000000001
  endloop
endfacet
facet normal 0.0 0.0 -1.0
  outer loop
    vertex -138.19811262613348 1.3959621005686897 23.00000000000001
    vertex -139.1297927880768 1.0098284973298213 23.00000000000001
    vertex -139.1297927880768 1.3959621005686897 23.00000000000001
  endloop
endfacet
facet normal 0.0 0.0 -1.0
  outer loop
    vertex -139.1297927880768 1.0098284973298213 23.00000000000001
    vertex -138.19811262613348 1.3959621005686897 23.00000000000001
    vertex -138.19811262613348 1.0098284973298213 23.00000000000001
  endloop
endfacet
facet normal 0.0 0.0 -1.0
  outer loop
    vertex -139.1569981587752 2.0424701977346804 23.00000000000001
    vertex -139.1297927880768 -0.2654751463948727 23.00000000000001
    vertex -139.7656733548784 -0.2654751463948727 23.00000000000001
  endloop
endfacet
facet normal 0.0 0.0 -1.0
  outer loop
    vertex -139.1297927880768 -0.2654751463948727 23.00000000000001
    vertex -139.1569981587752 2.0424701977346804 23.00000000000001
    vertex -139.1297927880768 1.7918652825018888 23.00000000000001
  endloop
endfacet
facet normal 0.0 0.0 -1.0
  outer loop
    vertex -139.1297927880768 -0.2654751463948727 23.00000000000001
    vertex -139.1297927880768 1.7918652825018888 23.00000000000001
    vertex -139.1297927880768 1.3959621005686897 23.00000000000001
  endloop
endfacet
facet normal 0.0 0.0 -1.0
  outer loop
    vertex -139.1297927880768 -0.2654751463948727 23.00000000000001
    vertex -139.1297927880768 1.3959621005686897 23.00000000000001
    vertex -139.1297927880768 1.0098284973298213 23.00000000000001
  endloop
endfacet
facet normal 0.0 0.0 -1.0
  outer loop
    vertex -140.277566067429 2.4905977280990528 23.00000000000001
    vertex -140.90459035892698 1.3959621005686897 23.00000000000001
    vertex -140.90459035892698 2.4543423510747626 23.00000000000001
  endloop
endfacet
facet normal 0.0 0.0 -1.0
  outer loop
    vertex -140.90459035892698 1.3959621005686897 23.00000000000001
    vertex -140.277566067429 2.4905977280990528 23.00000000000001
    vertex -140.90459035892698 0.983259671418891 23.00000000000001
  endloop
endfacet
facet normal 0.0 0.0 -1.0
  outer loop
    vertex -140.90459035892698 0.983259671418891 23.00000000000001
    vertex -140.277566067429 2.4905977280990528 23.00000000000001
    vertex -140.90459035892698 -0.2654751463948727 23.00000000000001
  endloop
endfacet
facet normal 0.0 0.0 -1.0
  outer loop
    vertex -140.90459035892698 -0.2654751463948727 23.00000000000001
    vertex -140.277566067429 2.4905977280990528 23.00000000000001
    vertex -140.277566067429 -0.2654751463948727 23.00000000000001
  endloop
endfacet
facet normal 0.0 0.0 -1.0
  outer loop
    vertex -140.90459035892698 1.3959621005686897 23.00000000000001
    vertex -141.71405392168003 0.983259671418891 23.00000000000001
    vertex -141.71405392168003 1.3959621005686897 23.00000000000001
  endloop
endfacet
facet normal 0.0 0.0 -1.0
  outer loop
    vertex -141.71405392168003 0.983259671418891 23.00000000000001
    vertex -140.90459035892698 1.3959621005686897 23.00000000000001
    vertex -140.90459035892698 0.983259671418891 23.00000000000001
  endloop
endfacet
facet normal 0.0 0.0 -1.0
  outer loop
    vertex -141.71405392168003 2.4905977280990528 23.00000000000001
    vertex -142.3428494682387 2.024591591965449 23.00000000000001
    vertex -142.39905914055655 2.4543423510747626 23.00000000000001
  endloop
endfacet
facet normal 0.0 0.0 -1.0
  outer loop
    vertex -142.3428494682387 2.024591591965449 23.00000000000001
    vertex -141.71405392168003 2.4905977280990528 23.00000000000001
    vertex -142.3428494682387 -0.2654751463948727 23.00000000000001
  endloop
endfacet
facet normal 0.0 0.0 -1.0
  outer loop
    vertex -142.3428494682387 -0.2654751463948727 23.00000000000001
    vertex -141.71405392168003 2.4905977280990528 23.00000000000001
    vertex -141.71405392168003 -0.2654751463948727 23.00000000000001
  endloop
endfacet
facet normal 0.0 0.0 -1.0
  outer loop
    vertex -141.71405392168003 -0.2654751463948727 23.00000000000001
    vertex -141.71405392168003 2.4905977280990528 23.00000000000001
    vertex -141.71405392168003 1.3959621005686897 23.00000000000001
  endloop
endfacet
facet normal 0.0 0.0 -1.0
  outer loop
    vertex -141.71405392168003 -0.2654751463948727 23.00000000000001
    vertex -141.71405392168003 1.3959621005686897 23.00000000000001
    vertex -141.71405392168003 0.983259671418891 23.00000000000001
  endloop
endfacet
facet normal 0.0 0.0 1.0
  outer loop
    vertex -141.71405392168003 -0.2654751463948727 23.14000000000001
    vertex -142.3428494682387 2.024591591965449 23.14000000000001
    vertex -142.3428494682387 -0.2654751463948727 23.14000000000001
  endloop
endfacet
facet normal 0.0 0.0 1.0
  outer loop
    vertex -140.277566067429 -0.2654751463948727 23.14000000000001
    vertex -140.90459035892698 0.983259671418891 23.14000000000001
    vertex -140.90459035892698 -0.2654751463948727 23.14000000000001
  endloop
endfacet
facet normal 0.0 0.0 1.0
  outer loop
    vertex -140.90459035892698 0.983259671418891 23.14000000000001
    vertex -140.277566067429 -0.2654751463948727 23.14000000000001
    vertex -140.90459035892698 1.3959621005686897 23.14000000000001
  endloop
endfacet
facet normal 0.0 0.0 1.0
  outer loop
    vertex -140.90459035892698 1.3959621005686897 23.14000000000001
    vertex -140.277566067429 -0.2654751463948727 23.14000000000001
    vertex -140.90459035892698 2.4543423510747626 23.14000000000001
  endloop
endfacet
facet normal 0.0 0.0 1.0
  outer loop
    vertex -140.90459035892698 2.4543423510747626 23.14000000000001
    vertex -140.277566067429 -0.2654751463948727 23.14000000000001
    vertex -140.277566067429 2.4905977280990528 23.14000000000001
  endloop
endfacet
facet normal 0.0 0.0 1.0
  outer loop
    vertex -140.90459035892698 0.983259671418891 23.14000000000001
    vertex -141.71405392168003 1.3959621005686897 23.14000000000001
    vertex -141.71405392168003 0.983259671418891 23.14000000000001
  endloop
endfacet
facet normal 0.0 0.0 1.0
  outer loop
    vertex -141.71405392168003 1.3959621005686897 23.14000000000001
    vertex -140.90459035892698 0.983259671418891 23.14000000000001
    vertex -140.90459035892698 1.3959621005686897 23.14000000000001
  endloop
endfacet
facet normal 0.0 0.0 1.0
  outer loop
    vertex -142.3428494682387 2.024591591965449 23.14000000000001
    vertex -141.71405392168003 2.4905977280990528 23.14000000000001
    vertex -142.39905914055655 2.4543423510747626 23.14000000000001
  endloop
endfacet
facet normal 0.0 0.0 1.0
  outer loop
    vertex -141.71405392168003 2.4905977280990528 23.14000000000001
    vertex -142.3428494682387 2.024591591965449 23.14000000000001
    vertex -141.71405392168003 -0.2654751463948727 23.14000000000001
  endloop
endfacet
facet normal 0.0 0.0 1.0
  outer loop
    vertex -141.71405392168003 2.4905977280990528 23.14000000000001
    vertex -141.71405392168003 -0.2654751463948727 23.14000000000001
    vertex -141.71405392168003 0.983259671418891 23.14000000000001
  endloop
endfacet
facet normal 0.0 0.0 1.0
  outer loop
    vertex -141.71405392168003 2.4905977280990528 23.14000000000001
    vertex -141.71405392168003 0.983259671418891 23.14000000000001
    vertex -141.71405392168003 1.3959621005686897 23.14000000000001
  endloop
endfacet
facet normal -1.0 0.0 0.0
  outer loop
    vertex -140.90459035892698 0.983259671418891 23.14000000000001
    vertex -140.90459035892698 -0.2654751463948727 23.00000000000001
    vertex -140.90459035892698 -0.2654751463948727 23.14000000000001
  endloop
endfacet
facet normal -1.0 0.0 0.0
  outer loop
    vertex -140.90459035892698 -0.2654751463948727 23.00000000000001
    vertex -140.90459035892698 0.983259671418891 23.14000000000001
    vertex -140.90459035892698 0.983259671418891 23.00000000000001
  endloop
endfacet
facet normal 0.0 0.0 1.0
  outer loop
    vertex -143.9589813318521 -0.26478324988677715 23.14000000000001
    vertex -144.2327786180363 2.4905977280990528 23.14000000000001
    vertex -144.8172927880768 2.4543423510747626 23.14000000000001
  endloop
endfacet
facet normal 0.0 0.0 1.0
  outer loop
    vertex -144.2327786180363 2.4905977280990528 23.14000000000001
    vertex -143.9589813318521 -0.26478324988677715 23.14000000000001
    vertex -143.77385750214563 1.0041549459634251 23.14000000000001
  endloop
endfacet
facet normal 0.0 0.0 1.0
  outer loop
    vertex -143.77385750214563 1.0041549459634251 23.14000000000001
    vertex -143.9589813318521 -0.26478324988677715 23.14000000000001
    vertex -143.67771156338043 0.20653665142901317 23.14000000000001
  endloop
endfacet
facet normal 0.0 0.0 1.0
  outer loop
    vertex -143.67771156338043 0.20653665142901317 23.14000000000001
    vertex -143.9589813318521 -0.26478324988677715 23.14000000000001
    vertex -143.3202224755768 -0.2955864824272626 23.14000000000001
  endloop
endfacet
facet normal 0.0 0.0 1.0
  outer loop
    vertex -143.67771156338043 0.20653665142901317 23.14000000000001
    vertex -143.3202224755768 -0.2955864824272626 23.14000000000001
    vertex -143.55076239207477 1.0045977597286084 23.14000000000001
  endloop
endfacet
facet normal 0.0 0.0 1.0
  outer loop
    vertex -143.55076239207477 1.0045977597286084 23.14000000000001
    vertex -143.3202224755768 -0.2955864824272626 23.14000000000001
    vertex -143.10094663423064 2.455615440649662 23.14000000000001
  endloop
endfacet
facet normal 0.0 0.0 1.0
  outer loop
    vertex -143.10094663423064 2.455615440649662 23.14000000000001
    vertex -143.3202224755768 -0.2955864824272626 23.14000000000001
    vertex -143.26940959602214 0.0977705203561374 23.14000000000001
  endloop
endfacet
facet normal 0.0 0.0 1.0
  outer loop
    vertex -143.10094663423064 2.455615440649662 23.14000000000001
    vertex -143.26940959602214 0.0977705203561374 23.14000000000001
    vertex -142.5199749743116 2.455615440649662 23.14000000000001
  endloop
endfacet
facet normal 0.0 -1.0 0.0
  outer loop
    vertex -140.277566067429 -0.2654751463948727 23.14000000000001
    vertex -140.90459035892698 -0.2654751463948727 23.00000000000001
    vertex -140.277566067429 -0.2654751463948727 23.00000000000001
  endloop
endfacet
facet normal 0.0 -1.0 0.0
  outer loop
    vertex -140.90459035892698 -0.2654751463948727 23.00000000000001
    vertex -140.277566067429 -0.2654751463948727 23.14000000000001
    vertex -140.90459035892698 -0.2654751463948727 23.14000000000001
  endloop
endfacet
facet normal 1.0 0.0 0.0
  outer loop
    vertex -140.277566067429 2.4905977280990528 23.00000000000001
    vertex -140.277566067429 -0.2654751463948727 23.14000000000001
    vertex -140.277566067429 -0.2654751463948727 23.00000000000001
  endloop
endfacet
facet normal 1.0 0.0 0.0
  outer loop
    vertex -140.277566067429 -0.2654751463948727 23.14000000000001
    vertex -140.277566067429 2.4905977280990528 23.00000000000001
    vertex -140.277566067429 2.4905977280990528 23.14000000000001
  endloop
endfacet
facet normal -0.057724912182247935 0.9983325270237126 0.0
  outer loop
    vertex -140.90459035892698 2.4543423510747626 23.14000000000001
    vertex -140.277566067429 2.4905977280990528 23.00000000000001
    vertex -140.90459035892698 2.4543423510747626 23.00000000000001
  endloop
endfacet
facet normal -0.057724912182247935 0.9983325270237126 0.0
  outer loop
    vertex -140.277566067429 2.4905977280990528 23.00000000000001
    vertex -140.90459035892698 2.4543423510747626 23.14000000000001
    vertex -140.277566067429 2.4905977280990528 23.14000000000001
  endloop
endfacet
facet normal -1.0 0.0 0.0
  outer loop
    vertex -140.90459035892698 2.4543423510747626 23.14000000000001
    vertex -140.90459035892698 1.3959621005686897 23.00000000000001
    vertex -140.90459035892698 1.3959621005686897 23.14000000000001
  endloop
endfacet
facet normal -1.0 0.0 0.0
  outer loop
    vertex -140.90459035892698 1.3959621005686897 23.00000000000001
    vertex -140.90459035892698 2.4543423510747626 23.14000000000001
    vertex -140.90459035892698 2.4543423510747626 23.00000000000001
  endloop
endfacet
facet normal 0.0 1.0 0.0
  outer loop
    vertex -141.71405392168003 1.3959621005686897 23.14000000000001
    vertex -140.90459035892698 1.3959621005686897 23.00000000000001
    vertex -141.71405392168003 1.3959621005686897 23.00000000000001
  endloop
endfacet
facet normal 0.0 1.0 0.0
  outer loop
    vertex -140.90459035892698 1.3959621005686897 23.00000000000001
    vertex -141.71405392168003 1.3959621005686897 23.14000000000001
    vertex -140.90459035892698 1.3959621005686897 23.14000000000001
  endloop
endfacet
facet normal 1.0 0.0 0.0
  outer loop
    vertex -141.71405392168003 2.4905977280990528 23.00000000000001
    vertex -141.71405392168003 1.3959621005686897 23.14000000000001
    vertex -141.71405392168003 1.3959621005686897 23.00000000000001
  endloop
endfacet
facet normal 1.0 0.0 0.0
  outer loop
    vertex -141.71405392168003 1.3959621005686897 23.14000000000001
    vertex -141.71405392168003 2.4905977280990528 23.00000000000001
    vertex -141.71405392168003 2.4905977280990528 23.14000000000001
  endloop
endfacet
facet normal -0.05285317785727596 0.9986022940041683 0.0
  outer loop
    vertex -142.39905914055655 2.4543423510747626 23.14000000000001
    vertex -141.71405392168003 2.4905977280990528 23.00000000000001
    vertex -142.39905914055655 2.4543423510747626 23.00000000000001
  endloop
endfacet
facet normal -0.05285317785727596 0.9986022940041683 0.0
  outer loop
    vertex -141.71405392168003 2.4905977280990528 23.00000000000001
    vertex -142.39905914055655 2.4543423510747626 23.14000000000001
    vertex -141.71405392168003 2.4905977280990528 23.14000000000001
  endloop
endfacet
facet normal -0.9915544151345604 -0.12969133289144605 0.0
  outer loop
    vertex -142.39905914055655 2.4543423510747626 23.14000000000001
    vertex -142.3428494682387 2.024591591965449 23.00000000000001
    vertex -142.3428494682387 2.024591591965449 23.14000000000001
  endloop
endfacet
facet normal -0.9915544151345604 -0.12969133289144605 0.0
  outer loop
    vertex -142.3428494682387 2.024591591965449 23.00000000000001
    vertex -142.39905914055655 2.4543423510747626 23.14000000000001
    vertex -142.39905914055655 2.4543423510747626 23.00000000000001
  endloop
endfacet
facet normal -1.0 0.0 0.0
  outer loop
    vertex -142.3428494682387 2.024591591965449 23.14000000000001
    vertex -142.3428494682387 -0.2654751463948727 23.00000000000001
    vertex -142.3428494682387 -0.2654751463948727 23.14000000000001
  endloop
endfacet
facet normal -1.0 0.0 0.0
  outer loop
    vertex -142.3428494682387 -0.2654751463948727 23.00000000000001
    vertex -142.3428494682387 2.024591591965449 23.14000000000001
    vertex -142.3428494682387 2.024591591965449 23.00000000000001
  endloop
endfacet
facet normal -1.0 0.0 0.0
  outer loop
    vertex -139.7656733548784 2.025311164333871 23.14000000000001
    vertex -139.7656733548784 -0.2654751463948727 23.00000000000001
    vertex -139.7656733548784 -0.2654751463948727 23.14000000000001
  endloop
endfacet
facet normal -1.0 0.0 0.0
  outer loop
    vertex -139.7656733548784 -0.2654751463948727 23.00000000000001
    vertex -139.7656733548784 2.025311164333871 23.14000000000001
    vertex -139.7656733548784 2.025311164333871 23.00000000000001
  endloop
endfacet
facet normal 0.0 1.0 0.0
  outer loop
    vertex -139.8291617784614 2.455172626884479 23.14000000000001
    vertex -138.01213084475694 2.455172626884479 23.00000000000001
    vertex -139.8291617784614 2.455172626884479 23.00000000000001
  endloop
endfacet
facet normal 0.0 1.0 0.0
  outer loop
    vertex -138.01213084475694 2.455172626884479 23.00000000000001
    vertex -139.8291617784614 2.455172626884479 23.14000000000001
    vertex -138.01213084475694 2.455172626884479 23.14000000000001
  endloop
endfacet
facet normal -0.9892683397932422 -0.14611006769802753 0.0
  outer loop
    vertex -139.8291617784614 2.455172626884479 23.14000000000001
    vertex -139.7656733548784 2.025311164333871 23.00000000000001
    vertex -139.7656733548784 2.025311164333871 23.14000000000001
  endloop
endfacet
facet normal -0.9892683397932422 -0.14611006769802753 0.0
  outer loop
    vertex -139.7656733548784 2.025311164333871 23.00000000000001
    vertex -139.8291617784614 2.455172626884479 23.14000000000001
    vertex -139.8291617784614 2.455172626884479 23.00000000000001
  endloop
endfacet
facet normal 0.0 1.0 0.0
  outer loop
    vertex -137.2234795289675 0.09727235487030704 23.14000000000001
    vertex -136.7827414533096 0.09727235487030704 23.00000000000001
    vertex -137.2234795289675 0.09727235487030704 23.00000000000001
  endloop
endfacet
facet normal 0.0 1.0 0.0
  outer loop
    vertex -136.7827414533096 0.09727235487030704 23.00000000000001
    vertex -137.2234795289675 0.09727235487030704 23.14000000000001
    vertex -136.7827414533096 0.09727235487030704 23.14000000000001
  endloop
endfacet
facet normal 1.0 0.0 0.0
  outer loop
    vertex -135.74163093964563 0.09727235487030704 23.00000000000001
    vertex -135.74163093964563 -0.2654751463948727 23.14000000000001
    vertex -135.74163093964563 -0.2654751463948727 23.00000000000001
  endloop
endfacet
facet normal 1.0 0.0 0.0
  outer loop
    vertex -135.74163093964563 -0.2654751463948727 23.14000000000001
    vertex -135.74163093964563 0.09727235487030704 23.00000000000001
    vertex -135.74163093964563 0.09727235487030704 23.14000000000001
  endloop
endfacet
facet normal 1.0 0.0 0.0
  outer loop
    vertex -136.1823690153035 2.455172626884479 23.00000000000001
    vertex -136.1823690153035 0.09727235487030704 23.14000000000001
    vertex -136.1823690153035 0.09727235487030704 23.00000000000001
  endloop
endfacet
facet normal 1.0 0.0 0.0
  outer loop
    vertex -136.1823690153035 0.09727235487030704 23.14000000000001
    vertex -136.1823690153035 2.455172626884479 23.00000000000001
    vertex -136.1823690153035 2.455172626884479 23.14000000000001
  endloop
endfacet
facet normal 0.08204072522322027 0.9966289778071116 0.0
  outer loop
    vertex -136.62313476682175 2.4914556797690928 23.14000000000001
    vertex -136.1823690153035 2.455172626884479 23.00000000000001
    vertex -136.62313476682175 2.4914556797690928 23.00000000000001
  endloop
endfacet
facet normal 0.08204072522322027 0.9966289778071116 0.0
  outer loop
    vertex -136.1823690153035 2.455172626884479 23.00000000000001
    vertex -136.62313476682175 2.4914556797690928 23.14000000000001
    vertex -136.1823690153035 2.455172626884479 23.14000000000001
  endloop
endfacet
facet normal 0.9530178499651932 -0.30291414236994674 0.0
  outer loop
    vertex -142.5199749743116 2.455615440649662 23.00000000000001
    vertex -143.26940959602214 0.0977705203561374 23.14000000000001
    vertex -143.26940959602214 0.0977705203561374 23.00000000000001
  endloop
endfacet
facet normal 0.9530178499651932 -0.30291414236994674 0.0
  outer loop
    vertex -143.26940959602214 0.0977705203561374 23.14000000000001
    vertex -142.5199749743116 2.455615440649662 23.00000000000001
    vertex -142.5199749743116 2.455615440649662 23.14000000000001
  endloop
endfacet
facet normal 0.9928131245271098 0.11967497552420019 0.0
  outer loop
    vertex -143.77385750214563 1.0041549459634251 23.00000000000001
    vertex -143.67771156338043 0.20653665142901317 23.14000000000001
    vertex -143.67771156338043 0.20653665142901317 23.00000000000001
  endloop
endfacet
facet normal 0.9928131245271098 0.11967497552420019 0.0
  outer loop
    vertex -143.67771156338043 0.20653665142901317 23.14000000000001
    vertex -143.77385750214563 1.0041549459634251 23.00000000000001
    vertex -143.77385750214563 1.0041549459634251 23.14000000000001
  endloop
endfacet
facet normal 0.0 -1.0 0.0
  outer loop
    vertex -141.71405392168003 -0.2654751463948727 23.14000000000001
    vertex -142.3428494682387 -0.2654751463948727 23.00000000000001
    vertex -141.71405392168003 -0.2654751463948727 23.00000000000001
  endloop
endfacet
facet normal 0.0 -1.0 0.0
  outer loop
    vertex -142.3428494682387 -0.2654751463948727 23.00000000000001
    vertex -141.71405392168003 -0.2654751463948727 23.14000000000001
    vertex -142.3428494682387 -0.2654751463948727 23.14000000000001
  endloop
endfacet
facet normal 0.0 -1.0 0.0
  outer loop
    vertex -139.1297927880768 -0.2654751463948727 23.14000000000001
    vertex -139.7656733548784 -0.2654751463948727 23.00000000000001
    vertex -139.1297927880768 -0.2654751463948727 23.00000000000001
  endloop
endfacet
facet normal 0.0 -1.0 0.0
  outer loop
    vertex -139.7656733548784 -0.2654751463948727 23.00000000000001
    vertex -139.1297927880768 -0.2654751463948727 23.14000000000001
    vertex -139.7656733548784 -0.2654751463948727 23.14000000000001
  endloop
endfacet
facet normal -0.9551572746498155 0.2960989373225392 0.0
  outer loop
    vertex -143.10094663423064 2.455615440649662 23.14000000000001
    vertex -143.55076239207477 1.0045977597286084 23.00000000000001
    vertex -143.55076239207477 1.0045977597286084 23.14000000000001
  endloop
endfacet
facet normal -0.9551572746498155 0.2960989373225392 0.0
  outer loop
    vertex -143.55076239207477 1.0045977597286084 23.00000000000001
    vertex -143.10094663423064 2.455615440649662 23.14000000000001
    vertex -143.10094663423064 2.455615440649662 23.00000000000001
  endloop
endfacet
facet normal 0.0 1.0 0.0
  outer loop
    vertex -136.1823690153035 0.09727235487030704 23.14000000000001
    vertex -135.74163093964563 0.09727235487030704 23.00000000000001
    vertex -136.1823690153035 0.09727235487030704 23.00000000000001
  endloop
endfacet
facet normal 0.0 1.0 0.0
  outer loop
    vertex -135.74163093964563 0.09727235487030704 23.00000000000001
    vertex -136.1823690153035 0.09727235487030704 23.14000000000001
    vertex -135.74163093964563 0.09727235487030704 23.14000000000001
  endloop
endfacet
facet normal 0.0 1.0 0.0
  outer loop
    vertex -143.10094663423064 2.455615440649662 23.14000000000001
    vertex -142.5199749743116 2.455615440649662 23.00000000000001
    vertex -143.10094663423064 2.455615440649662 23.00000000000001
  endloop
endfacet
facet normal 0.0 1.0 0.0
  outer loop
    vertex -142.5199749743116 2.455615440649662 23.00000000000001
    vertex -143.10094663423064 2.455615440649662 23.14000000000001
    vertex -142.5199749743116 2.455615440649662 23.14000000000001
  endloop
endfacet
facet normal -0.04816759553608301 -0.9988392677204238 0.0
  outer loop
    vertex -143.3202224755768 -0.2955864824272626 23.14000000000001
    vertex -143.9589813318521 -0.26478324988677715 23.00000000000001
    vertex -143.3202224755768 -0.2955864824272626 23.00000000000001
  endloop
endfacet
facet normal -0.04816759553608301 -0.9988392677204238 0.0
  outer loop
    vertex -143.9589813318521 -0.26478324988677715 23.00000000000001
    vertex -143.3202224755768 -0.2955864824272626 23.14000000000001
    vertex -143.9589813318521 -0.26478324988677715 23.14000000000001
  endloop
endfacet
facet normal 0.0 1.0 0.0
  outer loop
    vertex -139.1297927880768 1.3959621005686897 23.14000000000001
    vertex -138.19811262613348 1.3959621005686897 23.00000000000001
    vertex -139.1297927880768 1.3959621005686897 23.00000000000001
  endloop
endfacet
facet normal 0.0 1.0 0.0
  outer loop
    vertex -138.19811262613348 1.3959621005686897 23.00000000000001
    vertex -139.1297927880768 1.3959621005686897 23.14000000000001
    vertex -138.19811262613348 1.3959621005686897 23.14000000000001
  endloop
endfacet
facet normal -0.061907541384712904 0.9980818885841484 0.0
  outer loop
    vertex -144.8172927880768 2.4543423510747626 23.14000000000001
    vertex -144.2327786180363 2.4905977280990528 23.00000000000001
    vertex -144.8172927880768 2.4543423510747626 23.00000000000001
  endloop
endfacet
facet normal -0.061907541384712904 0.9980818885841484 0.0
  outer loop
    vertex -144.2327786180363 2.4905977280990528 23.00000000000001
    vertex -144.8172927880768 2.4543423510747626 23.14000000000001
    vertex -144.2327786180363 2.4905977280990528 23.14000000000001
  endloop
endfacet
facet normal 0.9554977752194997 0.29499830770800467 0.0
  outer loop
    vertex -144.2327786180363 2.4905977280990528 23.00000000000001
    vertex -143.77385750214563 1.0041549459634251 23.14000000000001
    vertex -143.77385750214563 1.0041549459634251 23.00000000000001
  endloop
endfacet
facet normal 0.9554977752194997 0.29499830770800467 0.0
  outer loop
    vertex -143.77385750214563 1.0041549459634251 23.14000000000001
    vertex -144.2327786180363 2.4905977280990528 23.00000000000001
    vertex -144.2327786180363 2.4905977280990528 23.14000000000001
  endloop
endfacet
facet normal 0.9917595727289381 -0.12811303563850976 0.0
  outer loop
    vertex -143.26940959602214 0.0977705203561374 23.00000000000001
    vertex -143.3202224755768 -0.2955864824272626 23.14000000000001
    vertex -143.3202224755768 -0.2955864824272626 23.00000000000001
  endloop
endfacet
facet normal 0.9917595727289381 -0.12811303563850976 0.0
  outer loop
    vertex -143.3202224755768 -0.2955864824272626 23.14000000000001
    vertex -143.26940959602214 0.0977705203561374 23.00000000000001
    vertex -143.26940959602214 0.0977705203561374 23.14000000000001
  endloop
endfacet
facet normal 0.0 0.0 1.0
  outer loop
    vertex -138.19811262613348 1.0098284973298213 23.14000000000001
    vertex -139.1297927880768 1.3959621005686897 23.14000000000001
    vertex -139.1297927880768 1.0098284973298213 23.14000000000001
  endloop
endfacet
facet normal 0.0 0.0 1.0
  outer loop
    vertex -139.1297927880768 1.3959621005686897 23.14000000000001
    vertex -138.19811262613348 1.0098284973298213 23.14000000000001
    vertex -138.19811262613348 1.3959621005686897 23.14000000000001
  endloop
endfacet
facet normal 0.0 0.0 1.0
  outer loop
    vertex -139.1297927880768 -0.2654751463948727 23.14000000000001
    vertex -139.7656733548784 2.025311164333871 23.14000000000001
    vertex -139.7656733548784 -0.2654751463948727 23.14000000000001
  endloop
endfacet
facet normal 0.0 0.0 1.0
  outer loop
    vertex -139.7656733548784 2.025311164333871 23.14000000000001
    vertex -139.1297927880768 -0.2654751463948727 23.14000000000001
    vertex -139.1569981587752 2.0424701977346804 23.14000000000001
  endloop
endfacet
facet normal 0.0 0.0 1.0
  outer loop
    vertex -139.1569981587752 2.0424701977346804 23.14000000000001
    vertex -139.1297927880768 -0.2654751463948727 23.14000000000001
    vertex -139.1297927880768 1.7918652825018888 23.14000000000001
  endloop
endfacet
facet normal 0.0 0.0 1.0
  outer loop
    vertex -139.1297927880768 1.7918652825018888 23.14000000000001
    vertex -139.1297927880768 -0.2654751463948727 23.14000000000001
    vertex -139.1297927880768 1.0098284973298213 23.14000000000001
  endloop
endfacet
facet normal 0.0 0.0 1.0
  outer loop
    vertex -139.1297927880768 1.7918652825018888 23.14000000000001
    vertex -139.1297927880768 1.0098284973298213 23.14000000000001
    vertex -139.1297927880768 1.3959621005686897 23.14000000000001
  endloop
endfacet
facet normal 0.0 0.0 1.0
  outer loop
    vertex -139.7656733548784 2.025311164333871 23.14000000000001
    vertex -138.01213084475694 2.455172626884479 23.14000000000001
    vertex -139.8291617784614 2.455172626884479 23.14000000000001
  endloop
endfacet
facet normal 0.0 0.0 1.0
  outer loop
    vertex -138.01213084475694 2.455172626884479 23.14000000000001
    vertex -139.7656733548784 2.025311164333871 23.14000000000001
    vertex -139.1569981587752 2.0424701977346804 23.14000000000001
  endloop
endfacet
facet normal 0.0 0.0 1.0
  outer loop
    vertex -138.01213084475694 2.455172626884479 23.14000000000001
    vertex -139.1569981587752 2.0424701977346804 23.14000000000001
    vertex -138.06111711753024 2.0424701977346804 23.14000000000001
  endloop
endfacet
facet normal -0.9536188912405236 -0.3010166278948633 0.0
  outer loop
    vertex -144.8172927880768 2.4543423510747626 23.14000000000001
    vertex -143.9589813318521 -0.26478324988677715 23.00000000000001
    vertex -143.9589813318521 -0.26478324988677715 23.14000000000001
  endloop
endfacet
facet normal -0.9536188912405236 -0.3010166278948633 0.0
  outer loop
    vertex -143.9589813318521 -0.26478324988677715 23.00000000000001
    vertex -144.8172927880768 2.4543423510747626 23.14000000000001
    vertex -144.8172927880768 2.4543423510747626 23.00000000000001
  endloop
endfacet
facet normal 1.0 0.0 0.0
  outer loop
    vertex -141.71405392168003 0.983259671418891 23.00000000000001
    vertex -141.71405392168003 -0.2654751463948727 23.14000000000001
    vertex -141.71405392168003 -0.2654751463948727 23.00000000000001
  endloop
endfacet
facet normal 1.0 0.0 0.0
  outer loop
    vertex -141.71405392168003 -0.2654751463948727 23.14000000000001
    vertex -141.71405392168003 0.983259671418891 23.00000000000001
    vertex -141.71405392168003 0.983259671418891 23.14000000000001
  endloop
endfacet
facet normal -1.0 0.0 0.0
  outer loop
    vertex -137.2234795289675 0.09727235487030704 23.14000000000001
    vertex -137.2234795289675 -0.2654751463948727 23.00000000000001
    vertex -137.2234795289675 -0.2654751463948727 23.14000000000001
  endloop
endfacet
facet normal -1.0 0.0 0.0
  outer loop
    vertex -137.2234795289675 -0.2654751463948727 23.00000000000001
    vertex -137.2234795289675 0.09727235487030704 23.14000000000001
    vertex -137.2234795289675 0.09727235487030704 23.00000000000001
  endloop
endfacet
facet normal -0.9798435652057524 0.199766332811313 0.0
  outer loop
    vertex -136.64851353073874 1.9890281114492545 23.14000000000001
    vertex -136.7827414533096 1.330647070204315 23.00000000000001
    vertex -136.7827414533096 1.330647070204315 23.14000000000001
  endloop
endfacet
facet normal -0.9798435652057524 0.199766332811313 0.0
  outer loop
    vertex -136.7827414533096 1.330647070204315 23.00000000000001
    vertex -136.64851353073874 1.9890281114492545 23.14000000000001
    vertex -136.64851353073874 1.9890281114492545 23.00000000000001
  endloop
endfacet
facet normal 0.0 0.0 1.0
  outer loop
    vertex -137.2126029158602 1.36327690952618 23.14000000000001
    vertex -136.62313476682175 2.4914556797690928 23.14000000000001
    vertex -137.49373430503024 1.6988190400929812 23.14000000000001
  endloop
endfacet
facet normal 0.0 0.0 1.0
  outer loop
    vertex -136.62313476682175 2.4914556797690928 23.14000000000001
    vertex -137.2126029158602 1.36327690952618 23.14000000000001
    vertex -137.06024730477722 1.4975048320970283 23.14000000000001
  endloop
endfacet
facet normal 0.0 0.0 1.0
  outer loop
    vertex -136.62313476682175 2.4914556797690928 23.14000000000001
    vertex -137.06024730477722 1.4975048320970283 23.14000000000001
    vertex -136.64851353073874 1.9890281114492545 23.14000000000001
  endloop
endfacet
facet normal 0.0 0.0 1.0
  outer loop
    vertex -135.74163093964563 -0.2654751463948727 23.14000000000001
    vertex -137.2234795289675 0.09727235487030704 23.14000000000001
    vertex -137.2234795289675 -0.2654751463948727 23.14000000000001
  endloop
endfacet
facet normal 0.0 0.0 1.0
  outer loop
    vertex -137.2234795289675 0.09727235487030704 23.14000000000001
    vertex -135.74163093964563 -0.2654751463948727 23.14000000000001
    vertex -136.7827414533096 0.09727235487030704 23.14000000000001
  endloop
endfacet
facet normal 0.0 0.0 1.0
  outer loop
    vertex -136.7827414533096 0.09727235487030704 23.14000000000001
    vertex -135.74163093964563 -0.2654751463948727 23.14000000000001
    vertex -136.1823690153035 0.09727235487030704 23.14000000000001
  endloop
endfacet
facet normal 0.0 0.0 1.0
  outer loop
    vertex -136.7827414533096 0.09727235487030704 23.14000000000001
    vertex -136.1823690153035 0.09727235487030704 23.14000000000001
    vertex -136.7827414533096 1.330647070204315 23.14000000000001
  endloop
endfacet
facet normal 0.0 0.0 1.0
  outer loop
    vertex -136.7827414533096 1.330647070204315 23.14000000000001
    vertex -136.1823690153035 0.09727235487030704 23.14000000000001
    vertex -136.64851353073874 1.9890281114492545 23.14000000000001
  endloop
endfacet
facet normal 0.0 0.0 1.0
  outer loop
    vertex -136.64851353073874 1.9890281114492545 23.14000000000001
    vertex -136.1823690153035 0.09727235487030704 23.14000000000001
    vertex -136.62313476682175 2.4914556797690928 23.14000000000001
  endloop
endfacet
facet normal 0.0 0.0 1.0
  outer loop
    vertex -136.1823690153035 0.09727235487030704 23.14000000000001
    vertex -135.74163093964563 -0.2654751463948727 23.14000000000001
    vertex -135.74163093964563 0.09727235487030704 23.14000000000001
  endloop
endfacet
facet normal 0.0 0.0 1.0
  outer loop
    vertex -136.1823690153035 2.455172626884479 23.14000000000001
    vertex -136.62313476682175 2.4914556797690928 23.14000000000001
    vertex -136.1823690153035 0.09727235487030704 23.14000000000001
  endloop
endfacet
facet normal 1.0 0.0 0.0
  outer loop
    vertex -139.1297927880768 1.0098284973298213 23.00000000000001
    vertex -139.1297927880768 -0.2654751463948727 23.14000000000001
    vertex -139.1297927880768 -0.2654751463948727 23.00000000000001
  endloop
endfacet
facet normal 1.0 0.0 0.0
  outer loop
    vertex -139.1297927880768 -0.2654751463948727 23.14000000000001
    vertex -139.1297927880768 1.0098284973298213 23.00000000000001
    vertex -139.1297927880768 1.0098284973298213 23.14000000000001
  endloop
endfacet
facet normal 1.0 0.0 0.0
  outer loop
    vertex -138.19811262613348 1.3959621005686897 23.00000000000001
    vertex -138.19811262613348 1.0098284973298213 23.14000000000001
    vertex -138.19811262613348 1.0098284973298213 23.00000000000001
  endloop
endfacet
facet normal 1.0 0.0 0.0
  outer loop
    vertex -138.19811262613348 1.0098284973298213 23.14000000000001
    vertex -138.19811262613348 1.3959621005686897 23.00000000000001
    vertex -138.19811262613348 1.3959621005686897 23.14000000000001
  endloop
endfacet
facet normal 0.0 -1.0 0.0
  outer loop
    vertex -140.90459035892698 0.983259671418891 23.14000000000001
    vertex -141.71405392168003 0.983259671418891 23.00000000000001
    vertex -140.90459035892698 0.983259671418891 23.00000000000001
  endloop
endfacet
facet normal 0.0 -1.0 0.0
  outer loop
    vertex -141.71405392168003 0.983259671418891 23.00000000000001
    vertex -140.90459035892698 0.983259671418891 23.14000000000001
    vertex -141.71405392168003 0.983259671418891 23.14000000000001
  endloop
endfacet
facet normal 1.0 0.0 0.0
  outer loop
    vertex -139.1297927880768 1.7918652825018888 23.00000000000001
    vertex -139.1297927880768 1.3959621005686897 23.14000000000001
    vertex -139.1297927880768 1.3959621005686897 23.00000000000001
  endloop
endfacet
facet normal 1.0 0.0 0.0
  outer loop
    vertex -139.1297927880768 1.3959621005686897 23.14000000000001
    vertex -139.1297927880768 1.7918652825018888 23.00000000000001
    vertex -139.1297927880768 1.7918652825018888 23.14000000000001
  endloop
endfacet
facet normal 0.9941590688690747 0.10792472277182179 0.0
  outer loop
    vertex -139.1569981587752 2.0424701977346804 23.00000000000001
    vertex -139.1297927880768 1.7918652825018888 23.14000000000001
    vertex -139.1297927880768 1.7918652825018888 23.00000000000001
  endloop
endfacet
facet normal 0.9941590688690747 0.10792472277182179 0.0
  outer loop
    vertex -139.1297927880768 1.7918652825018888 23.14000000000001
    vertex -139.1569981587752 2.0424701977346804 23.00000000000001
    vertex -139.1569981587752 2.0424701977346804 23.14000000000001
  endloop
endfacet
facet normal -1.0 0.0 0.0
  outer loop
    vertex -136.7827414533096 1.330647070204315 23.14000000000001
    vertex -136.7827414533096 0.09727235487030704 23.00000000000001
    vertex -136.7827414533096 0.09727235487030704 23.14000000000001
  endloop
endfacet
facet normal -1.0 0.0 0.0
  outer loop
    vertex -136.7827414533096 0.09727235487030704 23.00000000000001
    vertex -136.7827414533096 1.330647070204315 23.14000000000001
    vertex -136.7827414533096 1.330647070204315 23.00000000000001
  endloop
endfacet
facet normal -0.9875832047614523 0.15709682897213303 0.0
  outer loop
    vertex -143.55076239207477 1.0045977597286084 23.14000000000001
    vertex -143.67771156338043 0.20653665142901317 23.00000000000001
    vertex -143.67771156338043 0.20653665142901317 23.14000000000001
  endloop
endfacet
facet normal -0.9875832047614523 0.15709682897213303 0.0
  outer loop
    vertex -143.67771156338043 0.20653665142901317 23.00000000000001
    vertex -143.55076239207477 1.0045977597286084 23.14000000000001
    vertex -143.55076239207477 1.0045977597286084 23.00000000000001
  endloop
endfacet
facet normal 0.0 -1.0 0.0
  outer loop
    vertex -135.74163093964563 -0.2654751463948727 23.14000000000001
    vertex -137.2234795289675 -0.2654751463948727 23.00000000000001
    vertex -135.74163093964563 -0.2654751463948727 23.00000000000001
  endloop
endfacet
facet normal 0.0 -1.0 0.0
  outer loop
    vertex -137.2234795289675 -0.2654751463948727 23.00000000000001
    vertex -135.74163093964563 -0.2654751463948727 23.14000000000001
    vertex -137.2234795289675 -0.2654751463948727 23.14000000000001
  endloop
endfacet
facet normal 0.0 -1.0 0.0
  outer loop
    vertex -138.06111711753024 2.0424701977346804 23.14000000000001
    vertex -139.1569981587752 2.0424701977346804 23.00000000000001
    vertex -138.06111711753024 2.0424701977346804 23.00000000000001
  endloop
endfacet
facet normal 0.0 -1.0 0.0
  outer loop
    vertex -139.1569981587752 2.0424701977346804 23.00000000000001
    vertex -138.06111711753024 2.0424701977346804 23.14000000000001
    vertex -139.1569981587752 2.0424701977346804 23.14000000000001
  endloop
endfacet
facet normal 0.9930291603427952 -0.11786893869414138 0.0
  outer loop
    vertex -138.01213084475694 2.455172626884479 23.00000000000001
    vertex -138.06111711753024 2.0424701977346804 23.14000000000001
    vertex -138.06111711753024 2.0424701977346804 23.00000000000001
  endloop
endfacet
facet normal 0.9930291603427952 -0.11786893869414138 0.0
  outer loop
    vertex -138.06111711753024 2.0424701977346804 23.14000000000001
    vertex -138.01213084475694 2.455172626884479 23.00000000000001
    vertex -138.01213084475694 2.455172626884479 23.14000000000001
  endloop
endfacet
facet normal 0.0 -1.0 0.0
  outer loop
    vertex -138.19811262613348 1.0098284973298213 23.14000000000001
    vertex -139.1297927880768 1.0098284973298213 23.00000000000001
    vertex -138.19811262613348 1.0098284973298213 23.00000000000001
  endloop
endfacet
facet normal 0.0 -1.0 0.0
  outer loop
    vertex -139.1297927880768 1.0098284973298213 23.00000000000001
    vertex -138.19811262613348 1.0098284973298213 23.14000000000001
    vertex -139.1297927880768 1.0098284973298213 23.14000000000001
  endloop
endfacet
endsolid RMP_Front
