solid RMP_Front
facet normal -1.0 0.0 0.0
  outer loop
    vertex -147.05170455223868 6.717204979128786 16.000000000000007
    vertex -147.05170455223868 -4.482795020871216 8.000000000000004
    vertex -147.05170455223868 -4.482795020871216 16.000000000000007
  endloop
endfacet
facet normal -1.0 0.0 0.0
  outer loop
    vertex -147.05170455223868 -4.482795020871216 8.000000000000004
    vertex -147.05170455223868 6.717204979128786 16.000000000000007
    vertex -147.05170455223868 6.717204979128786 8.000000000000004
  endloop
endfacet
facet normal 1.0 0.0 0.0
  outer loop
    vertex -133.25170455223866 6.717204979128786 8.000000000000004
    vertex -133.25170455223866 -4.482795020871216 16.000000000000007
    vertex -133.25170455223866 -4.482795020871216 8.000000000000004
  endloop
endfacet
facet normal 1.0 0.0 0.0
  outer loop
    vertex -133.25170455223866 -4.482795020871216 16.000000000000007
    vertex -133.25170455223866 6.717204979128786 8.000000000000004
    vertex -133.25170455223866 6.717204979128786 16.000000000000007
  endloop
endfacet
facet normal 1.0 0.0 0.0
  outer loop
    vertex -134.0017045522387 6.467204979128786 16.000000000000007
    vertex -134.0017045522387 -4.232795020871217 23.000000000000007
    vertex -134.0017045522387 -4.232795020871217 16.000000000000007
  endloop
endfacet
facet normal 1.0 0.0 0.0
  outer loop
    vertex -134.0017045522387 -4.232795020871217 23.000000000000007
    vertex -134.0017045522387 6.467204979128786 16.000000000000007
    vertex -134.0017045522387 6.467204979128786 23.000000000000007
  endloop
endfacet
facet normal -1.0 0.0 0.0
  outer loop
    vertex -146.30170455223868 6.467204979128786 23.000000000000007
    vertex -146.30170455223868 -4.232795020871217 16.000000000000007
    vertex -146.30170455223868 -4.232795020871217 23.000000000000007
  endloop
endfacet
facet normal -1.0 0.0 0.0
  outer loop
    vertex -146.30170455223868 -4.232795020871217 16.000000000000007
    vertex -146.30170455223868 6.467204979128786 23.000000000000007
    vertex -146.30170455223868 6.467204979128786 16.000000000000007
  endloop
endfacet
facet normal 0.0 -1.0 0.0
  outer loop
    vertex -133.25170455223866 -4.482795020871216 16.000000000000007
    vertex -147.05170455223868 -4.482795020871216 8.000000000000004
    vertex -133.25170455223866 -4.482795020871216 8.000000000000004
  endloop
endfacet
facet normal 0.0 -1.0 0.0
  outer loop
    vertex -147.05170455223868 -4.482795020871216 8.000000000000004
    vertex -133.25170455223866 -4.482795020871216 16.000000000000007
    vertex -147.05170455223868 -4.482795020871216 16.000000000000007
  endloop
endfacet
facet normal 0.0 0.0 -1.0
  outer loop
    vertex -147.05170455223868 6.717204979128786 8.000000000000004
    vertex -145.55170455223868 5.717204979128776 8.000000000000004
    vertex -147.05170455223868 -4.482795020871216 8.000000000000004
  endloop
endfacet
facet normal 0.0 0.0 -1.0
  outer loop
    vertex -145.55170455223868 5.717204979128776 8.000000000000004
    vertex -147.05170455223868 6.717204979128786 8.000000000000004
    vertex -133.25170455223866 6.717204979128786 8.000000000000004
  endloop
endfacet
facet normal 0.0 0.0 -1.0
  outer loop
    vertex -145.55170455223868 5.717204979128776 8.000000000000004
    vertex -133.25170455223866 6.717204979128786 8.000000000000004
    vertex -134.75170455223866 5.717204979128776 8.000000000000004
  endloop
endfacet
facet normal 0.0 0.0 -1.0
  outer loop
    vertex -134.75170455223866 5.717204979128776 8.000000000000004
    vertex -133.25170455223866 6.717204979128786 8.000000000000004
    vertex -134.75170455223866 -3.482795020871218 8.000000000000004
  endloop
endfacet
facet normal 0.0 0.0 -1.0
  outer loop
    vertex -147.05170455223868 -4.482795020871216 8.000000000000004
    vertex -145.55170455223868 -3.482795020871218 8.000000000000004
    vertex -133.25170455223866 -4.482795020871216 8.000000000000004
  endloop
endfacet
facet normal 0.0 0.0 -1.0
  outer loop
    vertex -145.55170455223868 -3.482795020871218 8.000000000000004
    vertex -147.05170455223868 -4.482795020871216 8.000000000000004
    vertex -145.55170455223868 5.717204979128776 8.000000000000004
  endloop
endfacet
facet normal 0.0 0.0 -1.0
  outer loop
    vertex -133.25170455223866 -4.482795020871216 8.000000000000004
    vertex -145.55170455223868 -3.482795020871218 8.000000000000004
    vertex -134.75170455223866 -3.482795020871218 8.000000000000004
  endloop
endfacet
facet normal 0.0 0.0 -1.0
  outer loop
    vertex -133.25170455223866 -4.482795020871216 8.000000000000004
    vertex -134.75170455223866 -3.482795020871218 8.000000000000004
    vertex -133.25170455223866 6.717204979128786 8.000000000000004
  endloop
endfacet
facet normal 0.0 0.0 1.0
  outer loop
    vertex -140.90459035892698 0.9832596714188889 23.000000000000007
    vertex -141.71405392168003 0.9832596714188889 23.000000000000007
    vertex -140.90459035892698 -0.2654751463948748 23.000000000000007
  endloop
endfacet
facet normal 0.0 0.0 1.0
  outer loop
    vertex -142.3428494682387 2.024591591965447 23.000000000000007
    vertex -142.39905914055657 2.4543423510747577 23.000000000000007
    vertex -142.3428494682387 -0.2654751463948748 23.000000000000007
  endloop
endfacet
facet normal 0.0 0.0 1.0
  outer loop
    vertex -138.19811262613348 1.3959621005686877 23.000000000000007
    vertex -139.1297927880768 1.7918652825018866 23.000000000000007
    vertex -139.1297927880768 1.3959621005686877 23.000000000000007
  endloop
endfacet
facet normal 0.0 0.0 1.0
  outer loop
    vertex -135.74163093964563 0.09727235487030493 23.000000000000007
    vertex -136.1823690153035 2.455172626884477 23.000000000000007
    vertex -136.1823690153035 0.09727235487030493 23.000000000000007
  endloop
endfacet
facet normal 0.0 0.0 1.0
  outer loop
    vertex -146.30170455223868 -4.232795020871217 23.000000000000007
    vertex -143.9589813318521 -0.2647832498867807 23.000000000000007
    vertex -146.30170455223868 6.467204979128786 23.000000000000007
  endloop
endfacet
facet normal 0.0 0.0 1.0
  outer loop
    vertex -143.9589813318521 -0.2647832498867807 23.000000000000007
    vertex -146.30170455223868 -4.232795020871217 23.000000000000007
    vertex -134.0017045522387 -4.232795020871217 23.000000000000007
  endloop
endfacet
facet normal 0.0 0.0 1.0
  outer loop
    vertex -146.30170455223868 6.467204979128786 23.000000000000007
    vertex -143.9589813318521 -0.2647832498867807 23.000000000000007
    vertex -144.8172927880768 2.454342351074759 23.000000000000007
  endloop
endfacet
facet normal 0.0 0.0 1.0
  outer loop
    vertex -143.9589813318521 -0.2647832498867807 23.000000000000007
    vertex -134.0017045522387 -4.232795020871217 23.000000000000007
    vertex -143.3202224755768 -0.29558648242726615 23.000000000000007
  endloop
endfacet
facet normal 0.0 0.0 1.0
  outer loop
    vertex -143.3202224755768 -0.29558648242726615 23.000000000000007
    vertex -134.0017045522387 -4.232795020871217 23.000000000000007
    vertex -143.26940959602214 0.09777052035613387 23.000000000000007
  endloop
endfacet
facet normal 0.0 0.0 1.0
  outer loop
    vertex -143.26940959602214 0.09777052035613387 23.000000000000007
    vertex -134.0017045522387 -4.232795020871217 23.000000000000007
    vertex -142.3428494682387 -0.2654751463948748 23.000000000000007
  endloop
endfacet
facet normal 0.0 0.0 1.0
  outer loop
    vertex -143.26940959602214 0.09777052035613387 23.000000000000007
    vertex -142.3428494682387 -0.2654751463948748 23.000000000000007
    vertex -142.5199749743116 2.4556154406496584 23.000000000000007
  endloop
endfacet
facet normal 0.0 0.0 1.0
  outer loop
    vertex -142.5199749743116 2.4556154406496584 23.000000000000007
    vertex -142.3428494682387 -0.2654751463948748 23.000000000000007
    vertex -142.39905914055657 2.4543423510747577 23.000000000000007
  endloop
endfacet
facet normal 0.0 0.0 1.0
  outer loop
    vertex -142.3428494682387 -0.2654751463948748 23.000000000000007
    vertex -134.0017045522387 -4.232795020871217 23.000000000000007
    vertex -141.71405392168003 -0.2654751463948748 23.000000000000007
  endloop
endfacet
facet normal 0.0 0.0 1.0
  outer loop
    vertex -141.71405392168003 -0.2654751463948748 23.000000000000007
    vertex -134.0017045522387 -4.232795020871217 23.000000000000007
    vertex -140.90459035892698 -0.2654751463948748 23.000000000000007
  endloop
endfacet
facet normal 0.0 0.0 1.0
  outer loop
    vertex -141.71405392168003 -0.2654751463948748 23.000000000000007
    vertex -140.90459035892698 -0.2654751463948748 23.000000000000007
    vertex -141.71405392168003 0.9832596714188889 23.000000000000007
  endloop
endfacet
facet normal 0.0 0.0 1.0
  outer loop
    vertex -140.90459035892698 -0.2654751463948748 23.000000000000007
    vertex -134.0017045522387 -4.232795020871217 23.000000000000007
    vertex -140.277566067429 -0.2654751463948748 23.000000000000007
  endloop
endfacet
facet normal 0.0 0.0 1.0
  outer loop
    vertex -140.277566067429 -0.2654751463948748 23.000000000000007
    vertex -134.0017045522387 -4.232795020871217 23.000000000000007
    vertex -139.7656733548784 -0.2654751463948748 23.000000000000007
  endloop
endfacet
facet normal 0.0 0.0 1.0
  outer loop
    vertex -140.277566067429 -0.2654751463948748 23.000000000000007
    vertex -139.7656733548784 -0.2654751463948748 23.000000000000007
    vertex -140.277566067429 2.4905977280990506 23.000000000000007
  endloop
endfacet
facet normal 0.0 0.0 1.0
  outer loop
    vertex -140.277566067429 2.4905977280990506 23.000000000000007
    vertex -139.7656733548784 -0.2654751463948748 23.000000000000007
    vertex -139.8291617784614 2.455172626884477 23.000000000000007
  endloop
endfacet
facet normal 0.0 0.0 1.0
  outer loop
    vertex -139.7656733548784 -0.2654751463948748 23.000000000000007
    vertex -134.0017045522387 -4.232795020871217 23.000000000000007
    vertex -139.1297927880768 -0.2654751463948748 23.000000000000007
  endloop
endfacet
facet normal 0.0 0.0 1.0
  outer loop
    vertex -139.1297927880768 -0.2654751463948748 23.000000000000007
    vertex -134.0017045522387 -4.232795020871217 23.000000000000007
    vertex -139.1297927880768 1.0098284973298193 23.000000000000007
  endloop
endfacet
facet normal 0.0 0.0 1.0
  outer loop
    vertex -139.1297927880768 1.0098284973298193 23.000000000000007
    vertex -134.0017045522387 -4.232795020871217 23.000000000000007
    vertex -137.2234795289675 -0.2654751463948748 23.000000000000007
  endloop
endfacet
facet normal 0.0 0.0 1.0
  outer loop
    vertex -139.1297927880768 1.0098284973298193 23.000000000000007
    vertex -137.2234795289675 -0.2654751463948748 23.000000000000007
    vertex -138.19811262613348 1.0098284973298193 23.000000000000007
  endloop
endfacet
facet normal 0.0 0.0 1.0
  outer loop
    vertex -138.19811262613348 1.0098284973298193 23.000000000000007
    vertex -137.2234795289675 -0.2654751463948748 23.000000000000007
    vertex -138.19811262613348 1.3959621005686877 23.000000000000007
  endloop
endfacet
facet normal 0.0 0.0 1.0
  outer loop
    vertex -138.19811262613348 1.3959621005686877 23.000000000000007
    vertex -137.2234795289675 -0.2654751463948748 23.000000000000007
    vertex -138.06111711753024 2.042470197734678 23.000000000000007
  endloop
endfacet
facet normal 0.0 0.0 1.0
  outer loop
    vertex -138.06111711753024 2.042470197734678 23.000000000000007
    vertex -137.2234795289675 -0.2654751463948748 23.000000000000007
    vertex -138.01213084475694 2.455172626884477 23.000000000000007
  endloop
endfacet
facet normal 0.0 0.0 1.0
  outer loop
    vertex -138.01213084475694 2.455172626884477 23.000000000000007
    vertex -137.2234795289675 -0.2654751463948748 23.000000000000007
    vertex -137.49373430503024 1.6988190400929806 23.000000000000007
  endloop
endfacet
facet normal 0.0 0.0 1.0
  outer loop
    vertex -137.2234795289675 -0.2654751463948748 23.000000000000007
    vertex -134.0017045522387 -4.232795020871217 23.000000000000007
    vertex -135.74163093964563 -0.2654751463948748 23.000000000000007
  endloop
endfacet
facet normal 0.0 0.0 1.0
  outer loop
    vertex -135.74163093964563 -0.2654751463948748 23.000000000000007
    vertex -134.0017045522387 -4.232795020871217 23.000000000000007
    vertex -135.74163093964563 0.09727235487030493 23.000000000000007
  endloop
endfacet
facet normal 0.0 0.0 1.0
  outer loop
    vertex -144.8172927880768 2.454342351074759 23.000000000000007
    vertex -134.0017045522387 6.467204979128786 23.000000000000007
    vertex -146.30170455223868 6.467204979128786 23.000000000000007
  endloop
endfacet
facet normal 0.0 0.0 1.0
  outer loop
    vertex -134.0017045522387 6.467204979128786 23.000000000000007
    vertex -144.8172927880768 2.454342351074759 23.000000000000007
    vertex -144.2327786180363 2.490597728099052 23.000000000000007
  endloop
endfacet
facet normal 0.0 0.0 1.0
  outer loop
    vertex -134.0017045522387 6.467204979128786 23.000000000000007
    vertex -144.2327786180363 2.490597728099052 23.000000000000007
    vertex -143.10094663423064 2.45561544064966 23.000000000000007
  endloop
endfacet
facet normal 0.0 0.0 1.0
  outer loop
    vertex -143.10094663423064 2.45561544064966 23.000000000000007
    vertex -144.2327786180363 2.490597728099052 23.000000000000007
    vertex -143.77385750214563 1.0041549459634245 23.000000000000007
  endloop
endfacet
facet normal 0.0 0.0 1.0
  outer loop
    vertex -143.10094663423064 2.45561544064966 23.000000000000007
    vertex -143.77385750214563 1.0041549459634245 23.000000000000007
    vertex -143.55076239207474 1.0045977597286049 23.000000000000007
  endloop
endfacet
facet normal 0.0 0.0 1.0
  outer loop
    vertex -143.55076239207474 1.0045977597286049 23.000000000000007
    vertex -143.77385750214563 1.0041549459634245 23.000000000000007
    vertex -143.6777115633804 0.20653665142900893 23.000000000000007
  endloop
endfacet
facet normal 0.0 0.0 1.0
  outer loop
    vertex -134.0017045522387 6.467204979128786 23.000000000000007
    vertex -143.10094663423064 2.45561544064966 23.000000000000007
    vertex -142.5199749743116 2.4556154406496584 23.000000000000007
  endloop
endfacet
facet normal 0.0 0.0 1.0
  outer loop
    vertex -134.0017045522387 6.467204979128786 23.000000000000007
    vertex -142.5199749743116 2.4556154406496584 23.000000000000007
    vertex -142.39905914055657 2.4543423510747577 23.000000000000007
  endloop
endfacet
facet normal 0.0 0.0 1.0
  outer loop
    vertex -134.0017045522387 6.467204979128786 23.000000000000007
    vertex -142.39905914055657 2.4543423510747577 23.000000000000007
    vertex -141.71405392168006 2.4905977280990492 23.000000000000007
  endloop
endfacet
facet normal 0.0 0.0 1.0
  outer loop
    vertex -134.0017045522387 6.467204979128786 23.000000000000007
    vertex -141.71405392168006 2.4905977280990492 23.000000000000007
    vertex -140.90459035892698 2.4543423510747604 23.000000000000007
  endloop
endfacet
facet normal 0.0 0.0 1.0
  outer loop
    vertex -140.90459035892698 2.4543423510747604 23.000000000000007
    vertex -141.71405392168006 2.4905977280990492 23.000000000000007
    vertex -141.71405392168003 1.3959621005686877 23.000000000000007
  endloop
endfacet
facet normal 0.0 0.0 1.0
  outer loop
    vertex -140.90459035892698 2.4543423510747604 23.000000000000007
    vertex -141.71405392168003 1.3959621005686877 23.000000000000007
    vertex -140.90459035892698 1.3959621005686877 23.000000000000007
  endloop
endfacet
facet normal 0.0 0.0 1.0
  outer loop
    vertex -134.0017045522387 6.467204979128786 23.000000000000007
    vertex -140.90459035892698 2.4543423510747604 23.000000000000007
    vertex -140.277566067429 2.4905977280990506 23.000000000000007
  endloop
endfacet
facet normal 0.0 0.0 1.0
  outer loop
    vertex -134.0017045522387 6.467204979128786 23.000000000000007
    vertex -140.277566067429 2.4905977280990506 23.000000000000007
    vertex -139.8291617784614 2.455172626884477 23.000000000000007
  endloop
endfacet
facet normal 0.0 0.0 1.0
  outer loop
    vertex -134.0017045522387 6.467204979128786 23.000000000000007
    vertex -139.8291617784614 2.455172626884477 23.000000000000007
    vertex -138.01213084475694 2.455172626884477 23.000000000000007
  endloop
endfacet
facet normal 0.0 0.0 1.0
  outer loop
    vertex -134.0017045522387 6.467204979128786 23.000000000000007
    vertex -138.01213084475694 2.455172626884477 23.000000000000007
    vertex -137.49373430503024 1.6988190400929806 23.000000000000007
  endloop
endfacet
facet normal 0.0 0.0 1.0
  outer loop
    vertex -134.0017045522387 6.467204979128786 23.000000000000007
    vertex -137.49373430503024 1.6988190400929806 23.000000000000007
    vertex -136.62313476682175 2.491455679769086 23.000000000000007
  endloop
endfacet
facet normal 0.0 0.0 1.0
  outer loop
    vertex -134.0017045522387 6.467204979128786 23.000000000000007
    vertex -136.62313476682175 2.491455679769086 23.000000000000007
    vertex -136.1823690153035 2.455172626884477 23.000000000000007
  endloop
endfacet
facet normal 0.0 0.0 1.0
  outer loop
    vertex -134.0017045522387 6.467204979128786 23.000000000000007
    vertex -136.1823690153035 2.455172626884477 23.000000000000007
    vertex -135.74163093964563 0.09727235487030493 23.000000000000007
  endloop
endfacet
facet normal 0.0 0.0 1.0
  outer loop
    vertex -134.0017045522387 6.467204979128786 23.000000000000007
    vertex -135.74163093964563 0.09727235487030493 23.000000000000007
    vertex -134.0017045522387 -4.232795020871217 23.000000000000007
  endloop
endfacet
facet normal 0.0 0.0 1.0
  outer loop
    vertex -137.49373430503024 1.6988190400929806 23.000000000000007
    vertex -137.2234795289675 0.09727235487030493 23.000000000000007
    vertex -137.2126029158602 1.3632769095261774 23.000000000000004
  endloop
endfacet
facet normal 0.0 0.0 1.0
  outer loop
    vertex -137.2234795289675 0.09727235487030493 23.000000000000007
    vertex -137.49373430503024 1.6988190400929806 23.000000000000007
    vertex -137.2234795289675 -0.2654751463948748 23.000000000000007
  endloop
endfacet
facet normal 0.0 0.0 1.0
  outer loop
    vertex -137.2126029158602 1.3632769095261774 23.000000000000004
    vertex -137.2234795289675 0.09727235487030493 23.000000000000007
    vertex -136.7827414533096 0.09727235487030493 23.000000000000007
  endloop
endfacet
facet normal 0.0 0.0 1.0
  outer loop
    vertex -137.2126029158602 1.3632769095261774 23.000000000000004
    vertex -136.7827414533096 0.09727235487030493 23.000000000000007
    vertex -137.06024730477722 1.4975048320970248 23.000000000000007
  endloop
endfacet
facet normal 0.0 0.0 1.0
  outer loop
    vertex -137.06024730477722 1.4975048320970248 23.000000000000007
    vertex -136.7827414533096 0.09727235487030493 23.000000000000007
    vertex -136.78274145330957 1.3306470702043092 23.000000000000007
  endloop
endfacet
facet normal 0.0 0.0 1.0
  outer loop
    vertex -137.06024730477722 1.4975048320970248 23.000000000000007
    vertex -136.78274145330957 1.3306470702043092 23.000000000000007
    vertex -136.6485135307387 1.989028111449248 23.000000000000007
  endloop
endfacet
facet normal 0.0 0.0 1.0
  outer loop
    vertex -139.1297927880768 1.7918652825018866 23.000000000000007
    vertex -138.06111711753024 2.042470197734678 23.000000000000007
    vertex -139.1569981587752 2.042470197734678 23.000000000000007
  endloop
endfacet
facet normal 0.0 0.0 1.0
  outer loop
    vertex -138.06111711753024 2.042470197734678 23.000000000000007
    vertex -139.1297927880768 1.7918652825018866 23.000000000000007
    vertex -138.19811262613348 1.3959621005686877 23.000000000000007
  endloop
endfacet
facet normal 0.0 0.0 1.0
  outer loop
    vertex -139.7656733548784 2.0253111643338686 23.000000000000007
    vertex -139.8291617784614 2.455172626884477 23.000000000000007
    vertex -139.7656733548784 -0.2654751463948748 23.000000000000007
  endloop
endfacet
facet normal 0.0 1.0 0.0
  outer loop
    vertex -147.05170455223868 6.717204979128786 16.000000000000007
    vertex -133.25170455223866 6.717204979128786 8.000000000000004
    vertex -147.05170455223868 6.717204979128786 8.000000000000004
  endloop
endfacet
facet normal 0.0 1.0 0.0
  outer loop
    vertex -133.25170455223866 6.717204979128786 8.000000000000004
    vertex -147.05170455223868 6.717204979128786 16.000000000000007
    vertex -133.25170455223866 6.717204979128786 16.000000000000007
  endloop
endfacet
facet normal -1.0 0.0 0.0
  outer loop
    vertex -134.75170455223866 5.717204979128776 12.999999999999998
    vertex -134.75170455223866 -3.482795020871218 8.000000000000004
    vertex -134.75170455223866 -3.482795020871218 12.999999999999998
  endloop
endfacet
facet normal -1.0 0.0 0.0
  outer loop
    vertex -134.75170455223866 -3.482795020871218 8.000000000000004
    vertex -134.75170455223866 5.717204979128776 12.999999999999998
    vertex -134.75170455223866 5.717204979128776 8.000000000000004
  endloop
endfacet
facet normal 0.0 1.0 0.0
  outer loop
    vertex -145.55170455223868 -3.482795020871218 12.999999999999998
    vertex -134.75170455223866 -3.482795020871218 8.000000000000004
    vertex -145.55170455223868 -3.482795020871218 8.000000000000004
  endloop
endfacet
facet normal 0.0 1.0 0.0
  outer loop
    vertex -134.75170455223866 -3.482795020871218 8.000000000000004
    vertex -145.55170455223868 -3.482795020871218 12.999999999999998
    vertex -134.75170455223866 -3.482795020871218 12.999999999999998
  endloop
endfacet
facet normal 1.0 0.0 0.0
  outer loop
    vertex -145.55170455223868 5.717204979128776 8.000000000000004
    vertex -145.55170455223868 -3.482795020871218 12.999999999999998
    vertex -145.55170455223868 -3.482795020871218 8.000000000000004
  endloop
endfacet
facet normal 1.0 0.0 0.0
  outer loop
    vertex -145.55170455223868 -3.482795020871218 12.999999999999998
    vertex -145.55170455223868 5.717204979128776 8.000000000000004
    vertex -145.55170455223868 5.717204979128776 12.999999999999998
  endloop
endfacet
facet normal 0.0 -1.0 0.0
  outer loop
    vertex -134.75170455223866 5.717204979128776 12.999999999999998
    vertex -145.55170455223868 5.717204979128776 8.000000000000004
    vertex -134.75170455223866 5.717204979128776 8.000000000000004
  endloop
endfacet
facet normal 0.0 -1.0 0.0
  outer loop
    vertex -145.55170455223868 5.717204979128776 8.000000000000004
    vertex -134.75170455223866 5.717204979128776 12.999999999999998
    vertex -145.55170455223868 5.717204979128776 12.999999999999998
  endloop
endfacet
facet normal 0.0 -1.0 0.0
  outer loop
    vertex -134.0017045522387 -4.232795020871217 23.000000000000007
    vertex -146.30170455223868 -4.232795020871217 16.000000000000007
    vertex -134.0017045522387 -4.232795020871217 16.000000000000007
  endloop
endfacet
facet normal 0.0 -1.0 0.0
  outer loop
    vertex -146.30170455223868 -4.232795020871217 16.000000000000007
    vertex -134.0017045522387 -4.232795020871217 23.000000000000007
    vertex -146.30170455223868 -4.232795020871217 23.000000000000007
  endloop
endfacet
facet normal 0.0 0.0 1.0
  outer loop
    vertex -147.05170455223868 -4.482795020871216 16.000000000000007
    vertex -146.30170455223868 -4.232795020871217 16.000000000000007
    vertex -147.05170455223868 6.717204979128786 16.000000000000007
  endloop
endfacet
facet normal 0.0 0.0 1.0
  outer loop
    vertex -146.30170455223868 -4.232795020871217 16.000000000000007
    vertex -147.05170455223868 -4.482795020871216 16.000000000000007
    vertex -133.25170455223866 -4.482795020871216 16.000000000000007
  endloop
endfacet
facet normal 0.0 0.0 1.0
  outer loop
    vertex -146.30170455223868 -4.232795020871217 16.000000000000007
    vertex -133.25170455223866 -4.482795020871216 16.000000000000007
    vertex -134.0017045522387 -4.232795020871217 16.000000000000007
  endloop
endfacet
facet normal 0.0 0.0 1.0
  outer loop
    vertex -134.0017045522387 -4.232795020871217 16.000000000000007
    vertex -133.25170455223866 -4.482795020871216 16.000000000000007
    vertex -134.0017045522387 6.467204979128786 16.000000000000007
  endloop
endfacet
facet normal 0.0 0.0 1.0
  outer loop
    vertex -147.05170455223868 6.717204979128786 16.000000000000007
    vertex -146.30170455223868 6.467204979128786 16.000000000000007
    vertex -133.25170455223866 6.717204979128786 16.000000000000007
  endloop
endfacet
facet normal 0.0 0.0 1.0
  outer loop
    vertex -146.30170455223868 6.467204979128786 16.000000000000007
    vertex -147.05170455223868 6.717204979128786 16.000000000000007
    vertex -146.30170455223868 -4.232795020871217 16.000000000000007
  endloop
endfacet
facet normal 0.0 0.0 1.0
  outer loop
    vertex -133.25170455223866 6.717204979128786 16.000000000000007
    vertex -146.30170455223868 6.467204979128786 16.000000000000007
    vertex -134.0017045522387 6.467204979128786 16.000000000000007
  endloop
endfacet
facet normal 0.0 0.0 1.0
  outer loop
    vertex -133.25170455223866 6.717204979128786 16.000000000000007
    vertex -134.0017045522387 6.467204979128786 16.000000000000007
    vertex -133.25170455223866 -4.482795020871216 16.000000000000007
  endloop
endfacet
facet normal 0.0 1.0 0.0
  outer loop
    vertex -146.30170455223868 6.467204979128786 23.000000000000007
    vertex -134.0017045522387 6.467204979128786 16.000000000000007
    vertex -146.30170455223868 6.467204979128786 16.000000000000007
  endloop
endfacet
facet normal 0.0 1.0 0.0
  outer loop
    vertex -134.0017045522387 6.467204979128786 16.000000000000007
    vertex -146.30170455223868 6.467204979128786 23.000000000000007
    vertex -134.0017045522387 6.467204979128786 23.000000000000007
  endloop
endfacet
facet normal -1.0 0.0 0.0
  outer loop
    vertex -134.75170455223866 5.717204979128776 22.440000000000005
    vertex -134.75170455223866 -3.482795020871218 12.999999999999998
    vertex -134.75170455223866 -3.482795020871218 22.440000000000005
  endloop
endfacet
facet normal -1.0 0.0 0.0
  outer loop
    vertex -134.75170455223866 -3.482795020871218 12.999999999999998
    vertex -134.75170455223866 5.717204979128776 22.440000000000005
    vertex -134.75170455223866 5.717204979128776 12.999999999999998
  endloop
endfacet
facet normal 1.0 0.0 0.0
  outer loop
    vertex -145.55170455223868 5.717204979128776 12.999999999999998
    vertex -145.55170455223868 -3.482795020871218 22.440000000000005
    vertex -145.55170455223868 -3.482795020871218 12.999999999999998
  endloop
endfacet
facet normal 1.0 0.0 0.0
  outer loop
    vertex -145.55170455223868 -3.482795020871218 22.440000000000005
    vertex -145.55170455223868 5.717204979128776 12.999999999999998
    vertex -145.55170455223868 5.717204979128776 22.440000000000005
  endloop
endfacet
facet normal 0.0 0.0 -1.0
  outer loop
    vertex -140.90459035892698 0.9832596714188904 22.440000000000005
    vertex -141.71405392168003 -0.2654751463948748 22.440000000000005
    vertex -141.71405392168003 0.9832596714188904 22.440000000000005
  endloop
endfacet
facet normal 0.0 0.0 -1.0
  outer loop
    vertex -138.19811262613348 1.0098284973298222 22.440000000000005
    vertex -139.1297927880768 -0.2654751463948748 22.440000000000005
    vertex -139.1297927880768 1.0098284973298222 22.440000000000005
  endloop
endfacet
facet normal 0.0 0.0 -1.0
  outer loop
    vertex -138.06111711753022 2.0424701977346795 22.440000000000005
    vertex -139.1297927880768 1.791865282501888 22.440000000000005
    vertex -139.15699815877517 2.042470197734682 22.440000000000005
  endloop
endfacet
facet normal 0.0 0.0 -1.0
  outer loop
    vertex -139.1297927880768 1.791865282501888 22.440000000000005
    vertex -138.06111711753022 2.0424701977346795 22.440000000000005
    vertex -139.1297927880768 1.3959621005686877 22.440000000000005
  endloop
endfacet
facet normal 0.0 0.0 -1.0
  outer loop
    vertex -139.1297927880768 1.3959621005686877 22.440000000000005
    vertex -138.06111711753022 2.0424701977346795 22.440000000000005
    vertex -138.19811262613348 1.3959621005686877 22.440000000000005
  endloop
endfacet
facet normal 0.0 0.0 -1.0
  outer loop
    vertex -138.19811262613348 1.3959621005686877 22.440000000000005
    vertex -138.06111711753022 2.0424701977346795 22.440000000000005
    vertex -138.19811262613348 1.0098284973298222 22.440000000000005
  endloop
endfacet
facet normal 0.0 0.0 -1.0
  outer loop
    vertex -137.21260291586023 1.3632769095261625 22.440000000000005
    vertex -137.2234795289675 0.09727235487030775 22.440000000000005
    vertex -137.49373430503027 1.6988190400929355 22.440000000000005
  endloop
endfacet
facet normal 0.0 0.0 -1.0
  outer loop
    vertex -137.2234795289675 0.09727235487030775 22.440000000000005
    vertex -137.21260291586023 1.3632769095261625 22.440000000000005
    vertex -136.7827414533096 0.09727235487030775 22.440000000000005
  endloop
endfacet
facet normal 0.0 0.0 -1.0
  outer loop
    vertex -136.7827414533096 0.09727235487030775 22.440000000000005
    vertex -137.21260291586023 1.3632769095261625 22.440000000000005
    vertex -137.06024730477725 1.4975048320970021 22.440000000000005
  endloop
endfacet
facet normal 0.0 0.0 -1.0
  outer loop
    vertex -136.7827414533096 0.09727235487030775 22.440000000000005
    vertex -137.06024730477725 1.4975048320970021 22.440000000000005
    vertex -136.78274145330957 1.330647070204315 22.440000000000005
  endloop
endfacet
facet normal 0.0 0.0 -1.0
  outer loop
    vertex -136.78274145330957 1.330647070204315 22.440000000000005
    vertex -137.06024730477725 1.4975048320970021 22.440000000000005
    vertex -136.64851353073874 1.9890281114492552 22.440000000000005
  endloop
endfacet
facet normal 0.0 0.0 -1.0
  outer loop
    vertex -145.55170455223868 5.717204979128776 22.440000000000005
    vertex -144.81729278807674 2.454342351074779 22.440000000000005
    vertex -145.55170455223868 -3.482795020871218 22.440000000000005
  endloop
endfacet
facet normal 0.0 0.0 -1.0
  outer loop
    vertex -144.81729278807674 2.454342351074779 22.440000000000005
    vertex -145.55170455223868 5.717204979128776 22.440000000000005
    vertex -134.75170455223866 5.717204979128776 22.440000000000005
  endloop
endfacet
facet normal 0.0 0.0 -1.0
  outer loop
    vertex -144.81729278807674 2.454342351074779 22.440000000000005
    vertex -134.75170455223866 5.717204979128776 22.440000000000005
    vertex -144.23277861803632 2.490597728099052 22.440000000000005
  endloop
endfacet
facet normal 0.0 0.0 -1.0
  outer loop
    vertex -144.23277861803632 2.490597728099052 22.440000000000005
    vertex -134.75170455223866 5.717204979128776 22.440000000000005
    vertex -143.1009466342306 2.45561544064965 22.440000000000005
  endloop
endfacet
facet normal 0.0 0.0 -1.0
  outer loop
    vertex -144.23277861803632 2.490597728099052 22.440000000000005
    vertex -143.1009466342306 2.45561544064965 22.440000000000005
    vertex -143.77385750214563 1.0041549459634238 22.440000000000005
  endloop
endfacet
facet normal 0.0 0.0 -1.0
  outer loop
    vertex -143.77385750214563 1.0041549459634238 22.440000000000005
    vertex -143.1009466342306 2.45561544064965 22.440000000000005
    vertex -143.55076239207474 1.0045977597285964 22.440000000000005
  endloop
endfacet
facet normal 0.0 0.0 -1.0
  outer loop
    vertex -143.77385750214563 1.0041549459634238 22.440000000000005
    vertex -143.55076239207474 1.0045977597285964 22.440000000000005
    vertex -143.67771156338046 0.20653665142901528 22.440000000000005
  endloop
endfacet
facet normal 0.0 0.0 -1.0
  outer loop
    vertex -143.1009466342306 2.45561544064965 22.440000000000005
    vertex -134.75170455223866 5.717204979128776 22.440000000000005
    vertex -142.5199749743116 2.4556154406496558 22.440000000000005
  endloop
endfacet
facet normal 0.0 0.0 -1.0
  outer loop
    vertex -142.5199749743116 2.4556154406496558 22.440000000000005
    vertex -134.75170455223866 5.717204979128776 22.440000000000005
    vertex -142.39905914055657 2.4543423510747564 22.440000000000005
  endloop
endfacet
facet normal 0.0 0.0 -1.0
  outer loop
    vertex -142.39905914055657 2.4543423510747564 22.440000000000005
    vertex -134.75170455223866 5.717204979128776 22.440000000000005
    vertex -141.71405392168003 2.490597728099052 22.440000000000005
  endloop
endfacet
facet normal 0.0 0.0 -1.0
  outer loop
    vertex -141.71405392168003 2.490597728099052 22.440000000000005
    vertex -134.75170455223866 5.717204979128776 22.440000000000005
    vertex -140.90459035892698 2.4543423510747604 22.440000000000005
  endloop
endfacet
facet normal 0.0 0.0 -1.0
  outer loop
    vertex -141.71405392168003 2.490597728099052 22.440000000000005
    vertex -140.90459035892698 2.4543423510747604 22.440000000000005
    vertex -141.71405392168003 1.3959621005686877 22.440000000000005
  endloop
endfacet
facet normal 0.0 0.0 -1.0
  outer loop
    vertex -140.90459035892698 2.4543423510747604 22.440000000000005
    vertex -134.75170455223866 5.717204979128776 22.440000000000005
    vertex -140.277566067429 2.490597728099052 22.440000000000005
  endloop
endfacet
facet normal 0.0 0.0 -1.0
  outer loop
    vertex -140.277566067429 2.490597728099052 22.440000000000005
    vertex -134.75170455223866 5.717204979128776 22.440000000000005
    vertex -139.8291617784614 2.4551726268844756 22.440000000000005
  endloop
endfacet
facet normal 0.0 0.0 -1.0
  outer loop
    vertex -140.277566067429 2.490597728099052 22.440000000000005
    vertex -139.8291617784614 2.4551726268844756 22.440000000000005
    vertex -140.277566067429 -0.2654751463948748 22.440000000000005
  endloop
endfacet
facet normal 0.0 0.0 -1.0
  outer loop
    vertex -139.8291617784614 2.4551726268844756 22.440000000000005
    vertex -134.75170455223866 5.717204979128776 22.440000000000005
    vertex -138.01213084475694 2.4551726268844756 22.440000000000005
  endloop
endfacet
facet normal 0.0 0.0 -1.0
  outer loop
    vertex -138.01213084475694 2.4551726268844756 22.440000000000005
    vertex -134.75170455223866 5.717204979128776 22.440000000000005
    vertex -137.49373430503027 1.6988190400929355 22.440000000000005
  endloop
endfacet
facet normal 0.0 0.0 -1.0
  outer loop
    vertex -137.49373430503027 1.6988190400929355 22.440000000000005
    vertex -134.75170455223866 5.717204979128776 22.440000000000005
    vertex -136.62313476682178 2.4914556797690848 22.440000000000005
  endloop
endfacet
facet normal 0.0 0.0 -1.0
  outer loop
    vertex -136.62313476682178 2.4914556797690848 22.440000000000005
    vertex -134.75170455223866 5.717204979128776 22.440000000000005
    vertex -136.18236901530358 2.455172626884481 22.440000000000005
  endloop
endfacet
facet normal 0.0 0.0 -1.0
  outer loop
    vertex -136.18236901530358 2.455172626884481 22.440000000000005
    vertex -134.75170455223866 5.717204979128776 22.440000000000005
    vertex -136.18236901530352 0.09727235487030775 22.440000000000005
  endloop
endfacet
facet normal 0.0 0.0 -1.0
  outer loop
    vertex -136.18236901530352 0.09727235487030775 22.440000000000005
    vertex -134.75170455223866 5.717204979128776 22.440000000000005
    vertex -135.74163093964563 0.09727235487030775 22.440000000000005
  endloop
endfacet
facet normal 0.0 0.0 -1.0
  outer loop
    vertex -135.74163093964563 0.09727235487030775 22.440000000000005
    vertex -134.75170455223866 5.717204979128776 22.440000000000005
    vertex -135.74163093964563 -0.2654751463948748 22.440000000000005
  endloop
endfacet
facet normal 0.0 0.0 -1.0
  outer loop
    vertex -145.55170455223868 -3.482795020871218 22.440000000000005
    vertex -143.9589813318521 -0.26478324988677365 22.440000000000005
    vertex -134.75170455223866 -3.482795020871218 22.440000000000005
  endloop
endfacet
facet normal 0.0 0.0 -1.0
  outer loop
    vertex -143.9589813318521 -0.26478324988677365 22.440000000000005
    vertex -145.55170455223868 -3.482795020871218 22.440000000000005
    vertex -144.81729278807674 2.454342351074779 22.440000000000005
  endloop
endfacet
facet normal 0.0 0.0 -1.0
  outer loop
    vertex -134.75170455223866 -3.482795020871218 22.440000000000005
    vertex -143.9589813318521 -0.26478324988677365 22.440000000000005
    vertex -143.3202224755768 -0.29558648242726543 22.440000000000005
  endloop
endfacet
facet normal 0.0 0.0 -1.0
  outer loop
    vertex -134.75170455223866 -3.482795020871218 22.440000000000005
    vertex -143.3202224755768 -0.29558648242726543 22.440000000000005
    vertex -143.26940959602214 0.09777052035613104 22.440000000000005
  endloop
endfacet
facet normal 0.0 0.0 -1.0
  outer loop
    vertex -134.75170455223866 -3.482795020871218 22.440000000000005
    vertex -143.26940959602214 0.09777052035613104 22.440000000000005
    vertex -142.3428494682387 -0.2654751463948748 22.440000000000005
  endloop
endfacet
facet normal 0.0 0.0 -1.0
  outer loop
    vertex -142.3428494682387 -0.2654751463948748 22.440000000000005
    vertex -143.26940959602214 0.09777052035613104 22.440000000000005
    vertex -142.5199749743116 2.4556154406496558 22.440000000000005
  endloop
endfacet
facet normal 0.0 0.0 -1.0
  outer loop
    vertex -142.3428494682387 -0.2654751463948748 22.440000000000005
    vertex -142.5199749743116 2.4556154406496558 22.440000000000005
    vertex -142.39905914055657 2.4543423510747564 22.440000000000005
  endloop
endfacet
facet normal 0.0 0.0 -1.0
  outer loop
    vertex -142.3428494682387 -0.2654751463948748 22.440000000000005
    vertex -142.39905914055657 2.4543423510747564 22.440000000000005
    vertex -142.3428494682387 2.0245915919654482 22.440000000000005
  endloop
endfacet
facet normal 0.0 0.0 -1.0
  outer loop
    vertex -134.75170455223866 -3.482795020871218 22.440000000000005
    vertex -142.3428494682387 -0.2654751463948748 22.440000000000005
    vertex -141.71405392168003 -0.2654751463948748 22.440000000000005
  endloop
endfacet
facet normal 0.0 0.0 -1.0
  outer loop
    vertex -134.75170455223866 -3.482795020871218 22.440000000000005
    vertex -141.71405392168003 -0.2654751463948748 22.440000000000005
    vertex -140.90459035892698 -0.2654751463948748 22.440000000000005
  endloop
endfacet
facet normal 0.0 0.0 -1.0
  outer loop
    vertex -140.90459035892698 -0.2654751463948748 22.440000000000005
    vertex -141.71405392168003 -0.2654751463948748 22.440000000000005
    vertex -140.90459035892698 0.9832596714188904 22.440000000000005
  endloop
endfacet
facet normal 0.0 0.0 -1.0
  outer loop
    vertex -134.75170455223866 -3.482795020871218 22.440000000000005
    vertex -140.90459035892698 -0.2654751463948748 22.440000000000005
    vertex -140.277566067429 -0.2654751463948748 22.440000000000005
  endloop
endfacet
facet normal 0.0 0.0 -1.0
  outer loop
    vertex -134.75170455223866 -3.482795020871218 22.440000000000005
    vertex -140.277566067429 -0.2654751463948748 22.440000000000005
    vertex -139.7656733548784 -0.2654751463948748 22.440000000000005
  endloop
endfacet
facet normal 0.0 0.0 -1.0
  outer loop
    vertex -139.7656733548784 -0.2654751463948748 22.440000000000005
    vertex -140.277566067429 -0.2654751463948748 22.440000000000005
    vertex -139.8291617784614 2.4551726268844756 22.440000000000005
  endloop
endfacet
facet normal 0.0 0.0 -1.0
  outer loop
    vertex -139.7656733548784 -0.2654751463948748 22.440000000000005
    vertex -139.8291617784614 2.4551726268844756 22.440000000000005
    vertex -139.7656733548784 2.0253111643338673 22.440000000000005
  endloop
endfacet
facet normal 0.0 0.0 -1.0
  outer loop
    vertex -134.75170455223866 -3.482795020871218 22.440000000000005
    vertex -139.7656733548784 -0.2654751463948748 22.440000000000005
    vertex -139.1297927880768 -0.2654751463948748 22.440000000000005
  endloop
endfacet
facet normal 0.0 0.0 -1.0
  outer loop
    vertex -134.75170455223866 -3.482795020871218 22.440000000000005
    vertex -139.1297927880768 -0.2654751463948748 22.440000000000005
    vertex -137.2234795289675 -0.2654751463948748 22.440000000000005
  endloop
endfacet
facet normal 0.0 0.0 -1.0
  outer loop
    vertex -137.2234795289675 -0.2654751463948748 22.440000000000005
    vertex -139.1297927880768 -0.2654751463948748 22.440000000000005
    vertex -138.19811262613348 1.0098284973298222 22.440000000000005
  endloop
endfacet
facet normal 0.0 0.0 -1.0
  outer loop
    vertex -137.2234795289675 -0.2654751463948748 22.440000000000005
    vertex -138.19811262613348 1.0098284973298222 22.440000000000005
    vertex -138.06111711753022 2.0424701977346795 22.440000000000005
  endloop
endfacet
facet normal 0.0 0.0 -1.0
  outer loop
    vertex -137.2234795289675 -0.2654751463948748 22.440000000000005
    vertex -138.06111711753022 2.0424701977346795 22.440000000000005
    vertex -138.01213084475694 2.4551726268844756 22.440000000000005
  endloop
endfacet
facet normal 0.0 0.0 -1.0
  outer loop
    vertex -137.2234795289675 -0.2654751463948748 22.440000000000005
    vertex -138.01213084475694 2.4551726268844756 22.440000000000005
    vertex -137.49373430503027 1.6988190400929355 22.440000000000005
  endloop
endfacet
facet normal 0.0 0.0 -1.0
  outer loop
    vertex -137.2234795289675 -0.2654751463948748 22.440000000000005
    vertex -137.49373430503027 1.6988190400929355 22.440000000000005
    vertex -137.2234795289675 0.09727235487030775 22.440000000000005
  endloop
endfacet
facet normal 0.0 0.0 -1.0
  outer loop
    vertex -134.75170455223866 -3.482795020871218 22.440000000000005
    vertex -137.2234795289675 -0.2654751463948748 22.440000000000005
    vertex -135.74163093964563 -0.2654751463948748 22.440000000000005
  endloop
endfacet
facet normal 0.0 0.0 -1.0
  outer loop
    vertex -134.75170455223866 -3.482795020871218 22.440000000000005
    vertex -135.74163093964563 -0.2654751463948748 22.440000000000005
    vertex -134.75170455223866 5.717204979128776 22.440000000000005
  endloop
endfacet
facet normal 0.0 0.0 -1.0
  outer loop
    vertex -140.90459035892698 1.3959621005686877 22.440000000000005
    vertex -141.71405392168003 1.3959621005686877 22.440000000000005
    vertex -140.90459035892698 2.4543423510747604 22.440000000000005
  endloop
endfacet
facet normal 0.0 1.0 0.0
  outer loop
    vertex -145.55170455223868 -3.482795020871218 22.440000000000005
    vertex -134.75170455223866 -3.482795020871218 12.999999999999998
    vertex -145.55170455223868 -3.482795020871218 12.999999999999998
  endloop
endfacet
facet normal 0.0 1.0 0.0
  outer loop
    vertex -134.75170455223866 -3.482795020871218 12.999999999999998
    vertex -145.55170455223868 -3.482795020871218 22.440000000000005
    vertex -134.75170455223866 -3.482795020871218 22.440000000000005
  endloop
endfacet
facet normal 0.0 -1.0 0.0
  outer loop
    vertex -134.75170455223866 5.717204979128776 22.440000000000005
    vertex -145.55170455223868 5.717204979128776 12.999999999999998
    vertex -134.75170455223866 5.717204979128776 12.999999999999998
  endloop
endfacet
facet normal 0.0 -1.0 0.0
  outer loop
    vertex -145.55170455223868 5.717204979128776 12.999999999999998
    vertex -134.75170455223866 5.717204979128776 22.440000000000005
    vertex -145.55170455223868 5.717204979128776 22.440000000000005
  endloop
endfacet
facet normal 0.0 -1.0 0.0
  outer loop
    vertex -135.74163093964563 0.09727235487030775 22.860000000000007
    vertex -136.18236901530352 0.09727235487030775 22.440000000000005
    vertex -135.74163093964563 0.09727235487030775 22.440000000000005
  endloop
endfacet
facet normal 0.0 -1.0 0.0
  outer loop
    vertex -136.18236901530352 0.09727235487030775 22.440000000000005
    vertex -135.74163093964563 0.09727235487030775 22.860000000000007
    vertex -136.1823690153035 0.09727235487030775 22.860000000000007
  endloop
endfacet
facet normal -1.0 -9.567720962647905e-15 1.0742729457325253e-13
  outer loop
    vertex -136.1823690153035 2.4551726268844782 22.860000000000007
    vertex -136.18236901530352 0.09727235487030775 22.440000000000005
    vertex -136.1823690153035 0.09727235487030775 22.860000000000007
  endloop
endfacet
facet normal -1.0 -9.567720962647905e-15 1.0742729457325253e-13
  outer loop
    vertex -136.18236901530352 0.09727235487030775 22.440000000000005
    vertex -136.1823690153035 2.4551726268844782 22.860000000000007
    vertex -136.18236901530358 2.455172626884481 22.440000000000005
  endloop
endfacet
facet normal -1.0 0.0 0.0
  outer loop
    vertex -135.74163093964563 0.09727235487030775 22.860000000000007
    vertex -135.74163093964563 -0.2654751463948748 22.440000000000005
    vertex -135.74163093964563 -0.2654751463948748 22.860000000000007
  endloop
endfacet
facet normal -1.0 0.0 0.0
  outer loop
    vertex -135.74163093964563 -0.2654751463948748 22.440000000000005
    vertex -135.74163093964563 0.09727235487030775 22.860000000000007
    vertex -135.74163093964563 0.09727235487030775 22.440000000000005
  endloop
endfacet
facet normal 0.9798435652057559 -0.1997663328112968 2.6479780831191945e-14
  outer loop
    vertex -136.64851353073874 1.9890281114492552 22.440000000000005
    vertex -136.7827414533096 1.3306470702043156 22.860000000000007
    vertex -136.78274145330957 1.330647070204315 22.440000000000005
  endloop
endfacet
facet normal 0.9798435652057559 -0.1997663328112968 2.6479780831191945e-14
  outer loop
    vertex -136.7827414533096 1.3306470702043156 22.860000000000007
    vertex -136.64851353073874 1.9890281114492552 22.440000000000005
    vertex -136.64851353073874 1.9890281114492552 22.860000000000007
  endloop
endfacet
facet normal -0.7665842223369178 0.6421437767853106 2.1232009630795857e-14
  outer loop
    vertex -137.06024730477722 1.4975048320970283 22.860000000000007
    vertex -136.64851353073874 1.9890281114492552 22.440000000000005
    vertex -137.06024730477725 1.4975048320970021 22.440000000000005
  endloop
endfacet
facet normal -0.7665842223369178 0.6421437767853106 2.1232009630795857e-14
  outer loop
    vertex -136.64851353073874 1.9890281114492552 22.440000000000005
    vertex -137.06024730477722 1.4975048320970283 22.860000000000007
    vertex -136.64851353073874 1.9890281114492552 22.860000000000007
  endloop
endfacet
facet normal -0.6610579506661156 0.7503348491581044 3.3866806110695883e-14
  outer loop
    vertex -137.2126029158602 1.363276909526178 22.860000000000007
    vertex -137.06024730477725 1.4975048320970021 22.440000000000005
    vertex -137.21260291586023 1.3632769095261625 22.440000000000005
  endloop
endfacet
facet normal -0.6610579506661156 0.7503348491581044 3.3866806110695883e-14
  outer loop
    vertex -137.06024730477725 1.4975048320970021 22.440000000000005
    vertex -137.2126029158602 1.363276909526178 22.860000000000007
    vertex -137.06024730477722 1.4975048320970283 22.860000000000007
  endloop
endfacet
facet normal 0.7665187988418481 0.642221870557248 -1.2815566725609516e-13
  outer loop
    vertex -137.49373430503027 1.6988190400929355 22.440000000000005
    vertex -137.2126029158602 1.363276909526178 22.860000000000007
    vertex -137.21260291586023 1.3632769095261625 22.440000000000005
  endloop
endfacet
facet normal 0.7665187988418481 0.642221870557248 -1.2815566725609516e-13
  outer loop
    vertex -137.2126029158602 1.363276909526178 22.860000000000007
    vertex -137.49373430503027 1.6988190400929355 22.440000000000005
    vertex -137.49373430503024 1.69881904009298 22.860000000000007
  endloop
endfacet
facet normal 0.673222508445254 -0.7394399597821855 -2.5797316655159384e-14
  outer loop
    vertex -136.62313476682175 2.491455679769093 22.860000000000007
    vertex -137.49373430503027 1.6988190400929355 22.440000000000005
    vertex -136.62313476682178 2.4914556797690848 22.440000000000005
  endloop
endfacet
facet normal 0.673222508445254 -0.7394399597821855 -2.5797316655159384e-14
  outer loop
    vertex -137.49373430503027 1.6988190400929355 22.440000000000005
    vertex -136.62313476682175 2.491455679769093 22.860000000000007
    vertex -137.49373430503024 1.69881904009298 22.860000000000007
  endloop
endfacet
facet normal -0.08204072522321287 -0.9966289778071123 1.7710706772935583e-14
  outer loop
    vertex -136.1823690153035 2.4551726268844782 22.860000000000007
    vertex -136.62313476682178 2.4914556797690848 22.440000000000005
    vertex -136.18236901530358 2.455172626884481 22.440000000000005
  endloop
endfacet
facet normal -0.08204072522321287 -0.9966289778071123 1.7710706772935583e-14
  outer loop
    vertex -136.62313476682178 2.4914556797690848 22.440000000000005
    vertex -136.1823690153035 2.4551726268844782 22.860000000000007
    vertex -136.62313476682175 2.491455679769093 22.860000000000007
  endloop
endfacet
facet normal 0.0 1.0 0.0
  outer loop
    vertex -137.2234795289675 -0.2654751463948748 22.860000000000007
    vertex -135.74163093964563 -0.2654751463948748 22.440000000000005
    vertex -137.2234795289675 -0.2654751463948748 22.440000000000005
  endloop
endfacet
facet normal 0.0 1.0 0.0
  outer loop
    vertex -135.74163093964563 -0.2654751463948748 22.440000000000005
    vertex -137.2234795289675 -0.2654751463948748 22.860000000000007
    vertex -135.74163093964563 -0.2654751463948748 22.860000000000007
  endloop
endfacet
facet normal 1.0 0.0 0.0
  outer loop
    vertex -137.2234795289675 0.09727235487030775 22.440000000000005
    vertex -137.2234795289675 -0.2654751463948748 22.860000000000007
    vertex -137.2234795289675 -0.2654751463948748 22.440000000000005
  endloop
endfacet
facet normal 1.0 0.0 0.0
  outer loop
    vertex -137.2234795289675 -0.2654751463948748 22.860000000000007
    vertex -137.2234795289675 0.09727235487030775 22.440000000000005
    vertex -137.2234795289675 0.09727235487030775 22.860000000000007
  endloop
endfacet
facet normal 0.0 -1.0 0.0
  outer loop
    vertex -136.7827414533096 0.09727235487030775 22.860000000000007
    vertex -137.2234795289675 0.09727235487030775 22.440000000000005
    vertex -136.7827414533096 0.09727235487030775 22.440000000000005
  endloop
endfacet
facet normal 0.0 -1.0 0.0
  outer loop
    vertex -137.2234795289675 0.09727235487030775 22.440000000000005
    vertex -136.7827414533096 0.09727235487030775 22.860000000000007
    vertex -137.2234795289675 0.09727235487030775 22.860000000000007
  endloop
endfacet
facet normal 1.0 -9.145530380957186e-15 2.6856823643313152e-14
  outer loop
    vertex -136.78274145330957 1.330647070204315 22.440000000000005
    vertex -136.7827414533096 0.09727235487030775 22.860000000000007
    vertex -136.7827414533096 0.09727235487030775 22.440000000000005
  endloop
endfacet
facet normal 1.0 -9.145530380957186e-15 2.6856823643313152e-14
  outer loop
    vertex -136.7827414533096 0.09727235487030775 22.860000000000007
    vertex -136.78274145330957 1.330647070204315 22.440000000000005
    vertex -136.7827414533096 1.3306470702043156 22.860000000000007
  endloop
endfacet
facet normal -0.9530178499651919 0.30291414236995096 -2.94466103559606e-14
  outer loop
    vertex -143.26940959602214 0.0977705203561374 22.860000000000007
    vertex -142.5199749743116 2.4556154406496558 22.440000000000005
    vertex -143.26940959602214 0.09777052035613104 22.440000000000005
  endloop
endfacet
facet normal -0.9530178499651919 0.30291414236995096 -2.94466103559606e-14
  outer loop
    vertex -142.5199749743116 2.4556154406496558 22.440000000000005
    vertex -143.26940959602214 0.0977705203561374 22.860000000000007
    vertex -142.5199749743116 2.45561544064966 22.860000000000007
  endloop
endfacet
facet normal -0.9917595727289381 0.1281130356385102 -1.289075927771858e-15
  outer loop
    vertex -143.3202224755768 -0.2955864824272633 22.860000000000007
    vertex -143.26940959602214 0.09777052035613104 22.440000000000005
    vertex -143.3202224755768 -0.29558648242726543 22.440000000000005
  endloop
endfacet
facet normal -0.9917595727289381 0.1281130356385102 -1.289075927771858e-15
  outer loop
    vertex -143.26940959602214 0.09777052035613104 22.440000000000005
    vertex -143.3202224755768 -0.2955864824272633 22.860000000000007
    vertex -143.26940959602214 0.0977705203561374 22.860000000000007
  endloop
endfacet
facet normal 0.04816759553608853 0.9988392677204236 1.677119660433352e-15
  outer loop
    vertex -143.9589813318521 -0.26478324988677715 22.860000000000007
    vertex -143.3202224755768 -0.29558648242726543 22.440000000000005
    vertex -143.9589813318521 -0.26478324988677365 22.440000000000005
  endloop
endfacet
facet normal 0.04816759553608853 0.9988392677204236 1.677119660433352e-15
  outer loop
    vertex -143.3202224755768 -0.29558648242726543 22.440000000000005
    vertex -143.9589813318521 -0.26478324988677715 22.860000000000007
    vertex -143.3202224755768 -0.2955864824272633 22.860000000000007
  endloop
endfacet
facet normal 0.9536188912405271 0.3010166278948518 8.416316296620642e-14
  outer loop
    vertex -143.9589813318521 -0.26478324988677365 22.440000000000005
    vertex -144.8172927880768 2.4543423510747617 22.860000000000007
    vertex -143.9589813318521 -0.26478324988677715 22.860000000000007
  endloop
endfacet
facet normal 0.9536188912405271 0.3010166278948518 8.416316296620642e-14
  outer loop
    vertex -144.8172927880768 2.4543423510747617 22.860000000000007
    vertex -143.9589813318521 -0.26478324988677365 22.440000000000005
    vertex -144.81729278807674 2.454342351074779 22.440000000000005
  endloop
endfacet
facet normal 0.061907541384703293 -0.9980818885841489 -1.6777687384049455e-14
  outer loop
    vertex -144.2327786180363 2.490597728099052 22.860000000000007
    vertex -144.81729278807674 2.454342351074779 22.440000000000005
    vertex -144.23277861803632 2.490597728099052 22.440000000000005
  endloop
endfacet
facet normal 0.061907541384703293 -0.9980818885841489 -1.6777687384049455e-14
  outer loop
    vertex -144.81729278807674 2.454342351074779 22.440000000000005
    vertex -144.2327786180363 2.490597728099052 22.860000000000007
    vertex -144.8172927880768 2.4543423510747617 22.860000000000007
  endloop
endfacet
facet normal -0.9554977752194975 -0.29499830770801133 2.616669129040717e-14
  outer loop
    vertex -143.77385750214563 1.0041549459634251 22.860000000000007
    vertex -144.23277861803632 2.490597728099052 22.440000000000005
    vertex -143.77385750214563 1.0041549459634238 22.440000000000005
  endloop
endfacet
facet normal -0.9554977752194975 -0.29499830770801133 2.616669129040717e-14
  outer loop
    vertex -144.23277861803632 2.490597728099052 22.440000000000005
    vertex -143.77385750214563 1.0041549459634251 22.860000000000007
    vertex -144.2327786180363 2.490597728099052 22.860000000000007
  endloop
endfacet
facet normal -0.9928131245271113 -0.11967497552418649 2.6363124959766314e-14
  outer loop
    vertex -143.77385750214563 1.0041549459634251 22.860000000000007
    vertex -143.67771156338046 0.20653665142901528 22.440000000000005
    vertex -143.67771156338043 0.20653665142901176 22.860000000000007
  endloop
endfacet
facet normal -0.9928131245271113 -0.11967497552418649 2.6363124959766314e-14
  outer loop
    vertex -143.67771156338046 0.20653665142901528 22.440000000000005
    vertex -143.77385750214563 1.0041549459634251 22.860000000000007
    vertex -143.77385750214563 1.0041549459634238 22.440000000000005
  endloop
endfacet
facet normal 0.9875832047614477 -0.1570968289721616 1.308174981664767e-15
  outer loop
    vertex -143.67771156338046 0.20653665142901528 22.440000000000005
    vertex -143.55076239207477 1.0045977597286069 22.860000000000007
    vertex -143.67771156338043 0.20653665142901176 22.860000000000007
  endloop
endfacet
facet normal 0.9875832047614477 -0.1570968289721616 1.308174981664767e-15
  outer loop
    vertex -143.55076239207477 1.0045977597286069 22.860000000000007
    vertex -143.67771156338046 0.20653665142901528 22.440000000000005
    vertex -143.55076239207474 1.0045977597285964 22.440000000000005
  endloop
endfacet
facet normal 0.9551572746498156 -0.2960989373225392 5.854168310739747e-14
  outer loop
    vertex -143.1009466342306 2.45561544064965 22.440000000000005
    vertex -143.55076239207477 1.0045977597286069 22.860000000000007
    vertex -143.55076239207474 1.0045977597285964 22.440000000000005
  endloop
endfacet
facet normal 0.9551572746498156 -0.2960989373225392 5.854168310739747e-14
  outer loop
    vertex -143.55076239207477 1.0045977597286069 22.860000000000007
    vertex -143.1009466342306 2.45561544064965 22.440000000000005
    vertex -143.10094663423064 2.45561544064966 22.860000000000007
  endloop
endfacet
facet normal 4.853879590169447e-15 -1.0 1.6785514777070972e-14
  outer loop
    vertex -142.5199749743116 2.45561544064966 22.860000000000007
    vertex -143.1009466342306 2.45561544064965 22.440000000000005
    vertex -142.5199749743116 2.4556154406496558 22.440000000000005
  endloop
endfacet
facet normal 4.853879590169447e-15 -1.0 1.6785514777070972e-14
  outer loop
    vertex -143.1009466342306 2.45561544064965 22.440000000000005
    vertex -142.5199749743116 2.45561544064966 22.860000000000007
    vertex -143.10094663423064 2.45561544064966 22.860000000000007
  endloop
endfacet
facet normal 1.0 0.0 0.0
  outer loop
    vertex -140.90459035892698 0.9832596714188904 22.440000000000005
    vertex -140.90459035892698 -0.2654751463948748 22.860000000000007
    vertex -140.90459035892698 -0.2654751463948748 22.440000000000005
  endloop
endfacet
facet normal 1.0 0.0 0.0
  outer loop
    vertex -140.90459035892698 -0.2654751463948748 22.860000000000007
    vertex -140.90459035892698 0.9832596714188904 22.440000000000005
    vertex -140.90459035892698 0.9832596714188904 22.860000000000007
  endloop
endfacet
facet normal 0.0 1.0 0.0
  outer loop
    vertex -141.71405392168003 0.9832596714188904 22.860000000000007
    vertex -140.90459035892698 0.9832596714188904 22.440000000000005
    vertex -141.71405392168003 0.9832596714188904 22.440000000000005
  endloop
endfacet
facet normal 0.0 1.0 0.0
  outer loop
    vertex -140.90459035892698 0.9832596714188904 22.440000000000005
    vertex -141.71405392168003 0.9832596714188904 22.860000000000007
    vertex -140.90459035892698 0.9832596714188904 22.860000000000007
  endloop
endfacet
facet normal -1.0 0.0 0.0
  outer loop
    vertex -141.71405392168003 0.9832596714188904 22.860000000000007
    vertex -141.71405392168003 -0.2654751463948748 22.440000000000005
    vertex -141.71405392168003 -0.2654751463948748 22.860000000000007
  endloop
endfacet
facet normal -1.0 0.0 0.0
  outer loop
    vertex -141.71405392168003 -0.2654751463948748 22.440000000000005
    vertex -141.71405392168003 0.9832596714188904 22.860000000000007
    vertex -141.71405392168003 0.9832596714188904 22.440000000000005
  endloop
endfacet
facet normal 0.0 1.0 0.0
  outer loop
    vertex -142.3428494682387 -0.2654751463948748 22.860000000000007
    vertex -141.71405392168003 -0.2654751463948748 22.440000000000005
    vertex -142.3428494682387 -0.2654751463948748 22.440000000000005
  endloop
endfacet
facet normal 0.0 1.0 0.0
  outer loop
    vertex -141.71405392168003 -0.2654751463948748 22.440000000000005
    vertex -142.3428494682387 -0.2654751463948748 22.860000000000007
    vertex -141.71405392168003 -0.2654751463948748 22.860000000000007
  endloop
endfacet
facet normal 1.0 0.0 0.0
  outer loop
    vertex -142.3428494682387 2.0245915919654482 22.440000000000005
    vertex -142.3428494682387 -0.2654751463948748 22.860000000000007
    vertex -142.3428494682387 -0.2654751463948748 22.440000000000005
  endloop
endfacet
facet normal 1.0 0.0 0.0
  outer loop
    vertex -142.3428494682387 -0.2654751463948748 22.860000000000007
    vertex -142.3428494682387 2.0245915919654482 22.440000000000005
    vertex -142.3428494682387 2.0245915919654496 22.860000000000007
  endloop
endfacet
facet normal 0.9915544151345569 0.1296913328914727 -2.7724883746388216e-14
  outer loop
    vertex -142.39905914055657 2.4543423510747564 22.440000000000005
    vertex -142.3428494682387 2.0245915919654496 22.860000000000007
    vertex -142.3428494682387 2.0245915919654482 22.440000000000005
  endloop
endfacet
facet normal 0.9915544151345569 0.1296913328914727 -2.7724883746388216e-14
  outer loop
    vertex -142.3428494682387 2.0245915919654496 22.860000000000007
    vertex -142.39905914055657 2.4543423510747564 22.440000000000005
    vertex -142.39905914055655 2.4543423510747617 22.860000000000007
  endloop
endfacet
facet normal 0.052853177857279186 -0.9986022940041681 5.283887688930328e-15
  outer loop
    vertex -141.71405392168003 2.490597728099052 22.860000000000007
    vertex -142.39905914055657 2.4543423510747564 22.440000000000005
    vertex -141.71405392168003 2.490597728099052 22.440000000000005
  endloop
endfacet
facet normal 0.052853177857279186 -0.9986022940041681 5.283887688930328e-15
  outer loop
    vertex -142.39905914055657 2.4543423510747564 22.440000000000005
    vertex -141.71405392168003 2.490597728099052 22.860000000000007
    vertex -142.39905914055655 2.4543423510747617 22.860000000000007
  endloop
endfacet
facet normal -1.0 0.0 0.0
  outer loop
    vertex -141.71405392168003 2.490597728099052 22.860000000000007
    vertex -141.71405392168003 1.3959621005686877 22.440000000000005
    vertex -141.71405392168003 1.3959621005686877 22.860000000000007
  endloop
endfacet
facet normal -1.0 0.0 0.0
  outer loop
    vertex -141.71405392168003 1.3959621005686877 22.440000000000005
    vertex -141.71405392168003 2.490597728099052 22.860000000000007
    vertex -141.71405392168003 2.490597728099052 22.440000000000005
  endloop
endfacet
facet normal 0.0 -1.0 0.0
  outer loop
    vertex -140.90459035892698 1.3959621005686877 22.860000000000007
    vertex -141.71405392168003 1.3959621005686877 22.440000000000005
    vertex -140.90459035892698 1.3959621005686877 22.440000000000005
  endloop
endfacet
facet normal 0.0 -1.0 0.0
  outer loop
    vertex -141.71405392168003 1.3959621005686877 22.440000000000005
    vertex -140.90459035892698 1.3959621005686877 22.860000000000007
    vertex -141.71405392168003 1.3959621005686877 22.860000000000007
  endloop
endfacet
facet normal 1.0 0.0 0.0
  outer loop
    vertex -140.90459035892698 2.4543423510747604 22.440000000000005
    vertex -140.90459035892698 1.3959621005686877 22.860000000000007
    vertex -140.90459035892698 1.3959621005686877 22.440000000000005
  endloop
endfacet
facet normal 1.0 0.0 0.0
  outer loop
    vertex -140.90459035892698 1.3959621005686877 22.860000000000007
    vertex -140.90459035892698 2.4543423510747604 22.440000000000005
    vertex -140.90459035892698 2.4543423510747617 22.860000000000007
  endloop
endfacet
facet normal 0.057724912182249066 -0.9983325270237127 1.6762688080363141e-15
  outer loop
    vertex -140.277566067429 2.490597728099052 22.860000000000007
    vertex -140.90459035892698 2.4543423510747604 22.440000000000005
    vertex -140.277566067429 2.490597728099052 22.440000000000005
  endloop
endfacet
facet normal 0.057724912182249066 -0.9983325270237127 1.6762688080363141e-15
  outer loop
    vertex -140.90459035892698 2.4543423510747604 22.440000000000005
    vertex -140.277566067429 2.490597728099052 22.860000000000007
    vertex -140.90459035892698 2.4543423510747617 22.860000000000007
  endloop
endfacet
facet normal -1.0 0.0 0.0
  outer loop
    vertex -140.277566067429 2.490597728099052 22.860000000000007
    vertex -140.277566067429 -0.2654751463948748 22.440000000000005
    vertex -140.277566067429 -0.2654751463948748 22.860000000000007
  endloop
endfacet
facet normal -1.0 0.0 0.0
  outer loop
    vertex -140.277566067429 -0.2654751463948748 22.440000000000005
    vertex -140.277566067429 2.490597728099052 22.860000000000007
    vertex -140.277566067429 2.490597728099052 22.440000000000005
  endloop
endfacet
facet normal 0.0 1.0 0.0
  outer loop
    vertex -140.90459035892698 -0.2654751463948748 22.860000000000007
    vertex -140.277566067429 -0.2654751463948748 22.440000000000005
    vertex -140.90459035892698 -0.2654751463948748 22.440000000000005
  endloop
endfacet
facet normal 0.0 1.0 0.0
  outer loop
    vertex -140.277566067429 -0.2654751463948748 22.440000000000005
    vertex -140.90459035892698 -0.2654751463948748 22.860000000000007
    vertex -140.277566067429 -0.2654751463948748 22.860000000000007
  endloop
endfacet
facet normal 0.0 1.0 0.0
  outer loop
    vertex -139.7656733548784 -0.2654751463948748 22.860000000000007
    vertex -139.1297927880768 -0.2654751463948748 22.440000000000005
    vertex -139.7656733548784 -0.2654751463948748 22.440000000000005
  endloop
endfacet
facet normal 0.0 1.0 0.0
  outer loop
    vertex -139.1297927880768 -0.2654751463948748 22.440000000000005
    vertex -139.7656733548784 -0.2654751463948748 22.860000000000007
    vertex -139.1297927880768 -0.2654751463948748 22.860000000000007
  endloop
endfacet
facet normal 1.0 0.0 0.0
  outer loop
    vertex -139.7656733548784 2.0253111643338673 22.440000000000005
    vertex -139.7656733548784 -0.2654751463948748 22.860000000000007
    vertex -139.7656733548784 -0.2654751463948748 22.440000000000005
  endloop
endfacet
facet normal 1.0 0.0 0.0
  outer loop
    vertex -139.7656733548784 -0.2654751463948748 22.860000000000007
    vertex -139.7656733548784 2.0253111643338673 22.440000000000005
    vertex -139.7656733548784 2.0253111643338704 22.860000000000007
  endloop
endfacet
facet normal 0.9892683397932385 0.14611006769805293 -2.754111336265313e-14
  outer loop
    vertex -139.8291617784614 2.4551726268844756 22.440000000000005
    vertex -139.7656733548784 2.0253111643338704 22.860000000000007
    vertex -139.7656733548784 2.0253111643338673 22.440000000000005
  endloop
endfacet
facet normal 0.9892683397932385 0.14611006769805293 -2.754111336265313e-14
  outer loop
    vertex -139.7656733548784 2.0253111643338704 22.860000000000007
    vertex -139.8291617784614 2.4551726268844756 22.440000000000005
    vertex -139.8291617784614 2.4551726268844782 22.860000000000007
  endloop
endfacet
facet normal 7.112425410724961e-32 -1.0 6.714205910828286e-15
  outer loop
    vertex -138.01213084475694 2.4551726268844782 22.860000000000007
    vertex -139.8291617784614 2.4551726268844756 22.440000000000005
    vertex -138.01213084475694 2.4551726268844756 22.440000000000005
  endloop
endfacet
facet normal 7.112425410724961e-32 -1.0 6.714205910828286e-15
  outer loop
    vertex -139.8291617784614 2.4551726268844756 22.440000000000005
    vertex -138.01213084475694 2.4551726268844782 22.860000000000007
    vertex -139.8291617784614 2.4551726268844782 22.860000000000007
  endloop
endfacet
facet normal -0.9930291603427952 0.11786893869414174 -5.37406263191804e-14
  outer loop
    vertex -138.01213084475694 2.4551726268844782 22.860000000000007
    vertex -138.06111711753022 2.0424701977346795 22.440000000000005
    vertex -138.06111711753024 2.0424701977346795 22.860000000000007
  endloop
endfacet
facet normal -0.9930291603427952 0.11786893869414174 -5.37406263191804e-14
  outer loop
    vertex -138.06111711753022 2.0424701977346795 22.440000000000005
    vertex -138.01213084475694 2.4551726268844782 22.860000000000007
    vertex -138.01213084475694 2.4551726268844756 22.440000000000005
  endloop
endfacet
facet normal 1.28662070809454e-15 1.0 3.3571029554142115e-15
  outer loop
    vertex -139.1569981587752 2.0424701977346795 22.860000000000007
    vertex -138.06111711753022 2.0424701977346795 22.440000000000005
    vertex -139.15699815877517 2.042470197734682 22.440000000000005
  endloop
endfacet
facet normal 1.28662070809454e-15 1.0 3.3571029554142115e-15
  outer loop
    vertex -138.06111711753022 2.0424701977346795 22.440000000000005
    vertex -139.1569981587752 2.0424701977346795 22.860000000000007
    vertex -138.06111711753024 2.0424701977346795 22.860000000000007
  endloop
endfacet
facet normal -0.9941590688690796 -0.10792472277177666 -2.7239236742739964e-14
  outer loop
    vertex -139.1569981587752 2.0424701977346795 22.860000000000007
    vertex -139.1297927880768 1.791865282501888 22.440000000000005
    vertex -139.1297927880768 1.7918652825018866 22.860000000000007
  endloop
endfacet
facet normal -0.9941590688690796 -0.10792472277177666 -2.7239236742739964e-14
  outer loop
    vertex -139.1297927880768 1.791865282501888 22.440000000000005
    vertex -139.1569981587752 2.0424701977346795 22.860000000000007
    vertex -139.15699815877517 2.042470197734682 22.440000000000005
  endloop
endfacet
facet normal -1.0 0.0 0.0
  outer loop
    vertex -139.1297927880768 1.7918652825018866 22.860000000000007
    vertex -139.1297927880768 1.3959621005686877 22.440000000000005
    vertex -139.1297927880768 1.3959621005686877 22.860000000000007
  endloop
endfacet
facet normal -1.0 0.0 0.0
  outer loop
    vertex -139.1297927880768 1.3959621005686877 22.440000000000005
    vertex -139.1297927880768 1.7918652825018866 22.860000000000007
    vertex -139.1297927880768 1.791865282501888 22.440000000000005
  endloop
endfacet
facet normal 0.0 -1.0 0.0
  outer loop
    vertex -138.19811262613348 1.3959621005686877 22.860000000000007
    vertex -139.1297927880768 1.3959621005686877 22.440000000000005
    vertex -138.19811262613348 1.3959621005686877 22.440000000000005
  endloop
endfacet
facet normal 0.0 -1.0 0.0
  outer loop
    vertex -139.1297927880768 1.3959621005686877 22.440000000000005
    vertex -138.19811262613348 1.3959621005686877 22.860000000000007
    vertex -139.1297927880768 1.3959621005686877 22.860000000000007
  endloop
endfacet
facet normal -1.0 0.0 0.0
  outer loop
    vertex -138.19811262613348 1.3959621005686877 22.860000000000007
    vertex -138.19811262613348 1.0098284973298222 22.440000000000005
    vertex -138.19811262613348 1.0098284973298222 22.860000000000007
  endloop
endfacet
facet normal -1.0 0.0 0.0
  outer loop
    vertex -138.19811262613348 1.0098284973298222 22.440000000000005
    vertex -138.19811262613348 1.3959621005686877 22.860000000000007
    vertex -138.19811262613348 1.3959621005686877 22.440000000000005
  endloop
endfacet
facet normal 0.0 1.0 0.0
  outer loop
    vertex -139.1297927880768 1.0098284973298222 22.860000000000007
    vertex -138.19811262613348 1.0098284973298222 22.440000000000005
    vertex -139.1297927880768 1.0098284973298222 22.440000000000005
  endloop
endfacet
facet normal 0.0 1.0 0.0
  outer loop
    vertex -138.19811262613348 1.0098284973298222 22.440000000000005
    vertex -139.1297927880768 1.0098284973298222 22.860000000000007
    vertex -138.19811262613348 1.0098284973298222 22.860000000000007
  endloop
endfacet
facet normal -1.0 0.0 0.0
  outer loop
    vertex -139.1297927880768 1.0098284973298222 22.860000000000007
    vertex -139.1297927880768 -0.2654751463948748 22.440000000000005
    vertex -139.1297927880768 -0.2654751463948748 22.860000000000007
  endloop
endfacet
facet normal -1.0 0.0 0.0
  outer loop
    vertex -139.1297927880768 -0.2654751463948748 22.440000000000005
    vertex -139.1297927880768 1.0098284973298222 22.860000000000007
    vertex -139.1297927880768 1.0098284973298222 22.440000000000005
  endloop
endfacet
facet normal -0.6610579506661268 0.7503348491580947 1.182246603102036e-14
  outer loop
    vertex -137.2126029158602 1.3632769095261774 23.000000000000004
    vertex -137.06024730477722 1.4975048320970283 22.860000000000007
    vertex -137.2126029158602 1.363276909526178 22.860000000000007
  endloop
endfacet
facet normal -0.6610579506661268 0.7503348491580947 1.182246603102036e-14
  outer loop
    vertex -137.06024730477722 1.4975048320970283 22.860000000000007
    vertex -137.2126029158602 1.3632769095261774 23.000000000000004
    vertex -137.06024730477722 1.4975048320970248 23.000000000000007
  endloop
endfacet
facet normal -0.7665842223369174 0.6421437767853114 8.444191473327878e-14
  outer loop
    vertex -136.6485135307387 1.989028111449248 23.000000000000007
    vertex -137.06024730477722 1.4975048320970283 22.860000000000007
    vertex -137.06024730477722 1.4975048320970248 23.000000000000007
  endloop
endfacet
facet normal -0.7665842223369174 0.6421437767853114 8.444191473327878e-14
  outer loop
    vertex -137.06024730477722 1.4975048320970283 22.860000000000007
    vertex -136.6485135307387 1.989028111449248 23.000000000000007
    vertex -136.64851353073874 1.9890281114492552 22.860000000000007
  endloop
endfacet
facet normal 0.7665187988418625 0.6422218705572307 4.0531765386646794e-16
  outer loop
    vertex -137.2126029158602 1.363276909526178 22.860000000000007
    vertex -137.49373430503024 1.6988190400929806 23.000000000000007
    vertex -137.2126029158602 1.3632769095261774 23.000000000000004
  endloop
endfacet
facet normal 0.7665187988418625 0.6422218705572307 4.0531765386646794e-16
  outer loop
    vertex -137.49373430503024 1.6988190400929806 23.000000000000007
    vertex -137.2126029158602 1.363276909526178 22.860000000000007
    vertex -137.49373430503024 1.69881904009298 22.860000000000007
  endloop
endfacet
facet normal 0.9798435652057524 -0.19976633281131304 -1.668612554613644e-13
  outer loop
    vertex -136.7827414533096 1.3306470702043156 22.860000000000007
    vertex -136.6485135307387 1.989028111449248 23.000000000000007
    vertex -136.78274145330957 1.3306470702043092 23.000000000000007
  endloop
endfacet
facet normal 0.9798435652057524 -0.19976633281131304 -1.668612554613644e-13
  outer loop
    vertex -136.6485135307387 1.989028111449248 23.000000000000007
    vertex -136.7827414533096 1.3306470702043156 22.860000000000007
    vertex -136.64851353073874 1.9890281114492552 22.860000000000007
  endloop
endfacet
facet normal 0.6732225084452437 -0.7394399597821948 -1.682305018848452e-14
  outer loop
    vertex -136.62313476682175 2.491455679769086 23.000000000000007
    vertex -137.49373430503024 1.69881904009298 22.860000000000007
    vertex -136.62313476682175 2.491455679769093 22.860000000000007
  endloop
endfacet
facet normal 0.6732225084452437 -0.7394399597821948 -1.682305018848452e-14
  outer loop
    vertex -137.49373430503024 1.69881904009298 22.860000000000007
    vertex -136.62313476682175 2.491455679769086 23.000000000000007
    vertex -137.49373430503024 1.6988190400929806 23.000000000000007
  endloop
endfacet
facet normal -0.08204072522321502 -0.9966289778071121 -2.350183670101459e-14
  outer loop
    vertex -136.1823690153035 2.455172626884477 23.000000000000007
    vertex -136.62313476682175 2.491455679769093 22.860000000000007
    vertex -136.1823690153035 2.4551726268844782 22.860000000000007
  endloop
endfacet
facet normal -0.08204072522321502 -0.9966289778071121 -2.350183670101459e-14
  outer loop
    vertex -136.62313476682175 2.491455679769093 22.860000000000007
    vertex -136.1823690153035 2.455172626884477 23.000000000000007
    vertex -136.62313476682175 2.491455679769086 23.000000000000007
  endloop
endfacet
facet normal -1.0 4.783860481323953e-15 8.05704709299395e-14
  outer loop
    vertex -136.1823690153035 2.455172626884477 23.000000000000007
    vertex -136.1823690153035 0.09727235487030775 22.860000000000007
    vertex -136.1823690153035 0.09727235487030493 23.000000000000007
  endloop
endfacet
facet normal -1.0 4.783860481323953e-15 8.05704709299395e-14
  outer loop
    vertex -136.1823690153035 0.09727235487030775 22.860000000000007
    vertex -136.1823690153035 2.455172626884477 23.000000000000007
    vertex -136.1823690153035 2.4551726268844782 22.860000000000007
  endloop
endfacet
facet normal 0.0 -1.0 -2.0142617732484852e-14
  outer loop
    vertex -135.74163093964563 0.09727235487030493 23.000000000000007
    vertex -136.1823690153035 0.09727235487030775 22.860000000000007
    vertex -135.74163093964563 0.09727235487030775 22.860000000000007
  endloop
endfacet
facet normal 0.0 -1.0 -2.0142617732484852e-14
  outer loop
    vertex -136.1823690153035 0.09727235487030775 22.860000000000007
    vertex -135.74163093964563 0.09727235487030493 23.000000000000007
    vertex -136.1823690153035 0.09727235487030493 23.000000000000007
  endloop
endfacet
facet normal -1.0 0.0 0.0
  outer loop
    vertex -135.74163093964563 0.09727235487030493 23.000000000000007
    vertex -135.74163093964563 -0.2654751463948748 22.860000000000007
    vertex -135.74163093964563 -0.2654751463948748 23.000000000000007
  endloop
endfacet
facet normal -1.0 0.0 0.0
  outer loop
    vertex -135.74163093964563 -0.2654751463948748 22.860000000000007
    vertex -135.74163093964563 0.09727235487030493 23.000000000000007
    vertex -135.74163093964563 0.09727235487030775 22.860000000000007
  endloop
endfacet
facet normal 0.0 1.0 0.0
  outer loop
    vertex -137.2234795289675 -0.2654751463948748 23.000000000000007
    vertex -135.74163093964563 -0.2654751463948748 22.860000000000007
    vertex -137.2234795289675 -0.2654751463948748 22.860000000000007
  endloop
endfacet
facet normal 0.0 1.0 0.0
  outer loop
    vertex -135.74163093964563 -0.2654751463948748 22.860000000000007
    vertex -137.2234795289675 -0.2654751463948748 23.000000000000007
    vertex -135.74163093964563 -0.2654751463948748 23.000000000000007
  endloop
endfacet
facet normal 1.0 0.0 0.0
  outer loop
    vertex -137.2234795289675 0.09727235487030775 22.860000000000007
    vertex -137.2234795289675 -0.2654751463948748 23.000000000000007
    vertex -137.2234795289675 -0.2654751463948748 22.860000000000007
  endloop
endfacet
facet normal 1.0 0.0 0.0
  outer loop
    vertex -137.2234795289675 -0.2654751463948748 23.000000000000007
    vertex -137.2234795289675 0.09727235487030775 22.860000000000007
    vertex -137.2234795289675 0.09727235487030493 23.000000000000007
  endloop
endfacet
facet normal -2.266639728663174e-31 -1.0 -2.0142617732484855e-14
  outer loop
    vertex -136.7827414533096 0.09727235487030493 23.000000000000007
    vertex -137.2234795289675 0.09727235487030775 22.860000000000007
    vertex -136.7827414533096 0.09727235487030775 22.860000000000007
  endloop
endfacet
facet normal -2.266639728663174e-31 -1.0 -2.0142617732484855e-14
  outer loop
    vertex -137.2234795289675 0.09727235487030775 22.860000000000007
    vertex -136.7827414533096 0.09727235487030493 23.000000000000007
    vertex -137.2234795289675 0.09727235487030493 23.000000000000007
  endloop
endfacet
facet normal 1.0 -9.145530380957187e-15 -8.057047092993971e-14
  outer loop
    vertex -136.7827414533096 0.09727235487030775 22.860000000000007
    vertex -136.78274145330957 1.3306470702043092 23.000000000000007
    vertex -136.7827414533096 0.09727235487030493 23.000000000000007
  endloop
endfacet
facet normal 1.0 -9.145530380957187e-15 -8.057047092993971e-14
  outer loop
    vertex -136.78274145330957 1.3306470702043092 23.000000000000007
    vertex -136.7827414533096 0.09727235487030775 22.860000000000007
    vertex -136.7827414533096 1.3306470702043156 22.860000000000007
  endloop
endfacet
facet normal -0.9530178499651932 0.30291414236994685 6.486231357348246e-15
  outer loop
    vertex -142.5199749743116 2.4556154406496584 23.000000000000007
    vertex -143.26940959602214 0.0977705203561374 22.860000000000007
    vertex -143.26940959602214 0.09777052035613387 23.000000000000007
  endloop
endfacet
facet normal -0.9530178499651932 0.30291414236994685 6.486231357348246e-15
  outer loop
    vertex -143.26940959602214 0.0977705203561374 22.860000000000007
    vertex -142.5199749743116 2.4556154406496584 23.000000000000007
    vertex -142.5199749743116 2.45561544064966 22.860000000000007
  endloop
endfacet
facet normal -0.9917595727289383 0.1281130356385097 2.986147561747359e-15
  outer loop
    vertex -143.26940959602214 0.09777052035613387 23.000000000000007
    vertex -143.3202224755768 -0.2955864824272633 22.860000000000007
    vertex -143.3202224755768 -0.29558648242726615 23.000000000000007
  endloop
endfacet
facet normal -0.9917595727289383 0.1281130356385097 2.986147561747359e-15
  outer loop
    vertex -143.3202224755768 -0.2955864824272633 22.860000000000007
    vertex -143.26940959602214 0.09777052035613387 23.000000000000007
    vertex -143.26940959602214 0.0977705203561374 22.860000000000007
  endloop
endfacet
facet normal 0.04816759553608358 0.9988392677204239 2.2641115415850885e-14
  outer loop
    vertex -143.9589813318521 -0.2647832498867807 23.000000000000007
    vertex -143.3202224755768 -0.2955864824272633 22.860000000000007
    vertex -143.9589813318521 -0.26478324988677715 22.860000000000007
  endloop
endfacet
facet normal 0.04816759553608358 0.9988392677204239 2.2641115415850885e-14
  outer loop
    vertex -143.3202224755768 -0.2955864824272633 22.860000000000007
    vertex -143.9589813318521 -0.2647832498867807 23.000000000000007
    vertex -143.3202224755768 -0.29558648242726615 23.000000000000007
  endloop
endfacet
facet normal 0.9536188912405237 0.30101662789486333 6.714166992925091e-15
  outer loop
    vertex -143.9589813318521 -0.26478324988677715 22.860000000000007
    vertex -144.8172927880768 2.454342351074759 23.000000000000007
    vertex -143.9589813318521 -0.2647832498867807 23.000000000000007
  endloop
endfacet
facet normal 0.9536188912405237 0.30101662789486333 6.714166992925091e-15
  outer loop
    vertex -144.8172927880768 2.454342351074759 23.000000000000007
    vertex -143.9589813318521 -0.26478324988677715 22.860000000000007
    vertex -144.8172927880768 2.4543423510747617 22.860000000000007
  endloop
endfacet
facet normal 0.06190754138471526 -0.998081888584148 -7.541315860051309e-15
  outer loop
    vertex -144.2327786180363 2.490597728099052 23.000000000000007
    vertex -144.8172927880768 2.4543423510747617 22.860000000000007
    vertex -144.2327786180363 2.490597728099052 22.860000000000007
  endloop
endfacet
facet normal 0.06190754138471526 -0.998081888584148 -7.541315860051309e-15
  outer loop
    vertex -144.8172927880768 2.4543423510747617 22.860000000000007
    vertex -144.2327786180363 2.490597728099052 23.000000000000007
    vertex -144.8172927880768 2.454342351074759 23.000000000000007
  endloop
endfacet
facet normal -0.9554977752194996 -0.2949983077080047 -3.9479571233657554e-16
  outer loop
    vertex -144.2327786180363 2.490597728099052 23.000000000000007
    vertex -143.77385750214563 1.0041549459634251 22.860000000000007
    vertex -143.77385750214563 1.0041549459634245 23.000000000000007
  endloop
endfacet
facet normal -0.9554977752194996 -0.2949983077080047 -3.9479571233657554e-16
  outer loop
    vertex -143.77385750214563 1.0041549459634251 22.860000000000007
    vertex -144.2327786180363 2.490597728099052 23.000000000000007
    vertex -144.2327786180363 2.490597728099052 22.860000000000007
  endloop
endfacet
facet normal -0.992813124527108 -0.11967497552421363 7.852947029683554e-14
  outer loop
    vertex -143.77385750214563 1.0041549459634245 23.000000000000007
    vertex -143.67771156338043 0.20653665142901176 22.860000000000007
    vertex -143.6777115633804 0.20653665142900893 23.000000000000007
  endloop
endfacet
facet normal -0.992813124527108 -0.11967497552421363 7.852947029683554e-14
  outer loop
    vertex -143.67771156338043 0.20653665142901176 22.860000000000007
    vertex -143.77385750214563 1.0041549459634245 23.000000000000007
    vertex -143.77385750214563 1.0041549459634251 22.860000000000007
  endloop
endfacet
facet normal 0.9875832047614522 -0.157096828972133 -1.6209579636308068e-13
  outer loop
    vertex -143.67771156338043 0.20653665142901176 22.860000000000007
    vertex -143.55076239207474 1.0045977597286049 23.000000000000007
    vertex -143.6777115633804 0.20653665142900893 23.000000000000007
  endloop
endfacet
facet normal 0.9875832047614522 -0.157096828972133 -1.6209579636308068e-13
  outer loop
    vertex -143.55076239207474 1.0045977597286049 23.000000000000007
    vertex -143.67771156338043 0.20653665142901176 22.860000000000007
    vertex -143.55076239207477 1.0045977597286069 22.860000000000007
  endloop
endfacet
facet normal 0.9551572746498176 -0.2960989373225324 -7.95263902427743e-14
  outer loop
    vertex -143.55076239207477 1.0045977597286069 22.860000000000007
    vertex -143.10094663423064 2.45561544064966 23.000000000000007
    vertex -143.55076239207474 1.0045977597286049 23.000000000000007
  endloop
endfacet
facet normal 0.9551572746498176 -0.2960989373225324 -7.95263902427743e-14
  outer loop
    vertex -143.10094663423064 2.45561544064966 23.000000000000007
    vertex -143.55076239207477 1.0045977597286069 22.860000000000007
    vertex -143.10094663423064 2.45561544064966 22.860000000000007
  endloop
endfacet
facet normal -1.8202048463135427e-15 -1.0 -7.55348164968182e-15
  outer loop
    vertex -142.5199749743116 2.4556154406496584 23.000000000000007
    vertex -143.10094663423064 2.45561544064966 22.860000000000007
    vertex -142.5199749743116 2.45561544064966 22.860000000000007
  endloop
endfacet
facet normal -1.8202048463135427e-15 -1.0 -7.55348164968182e-15
  outer loop
    vertex -143.10094663423064 2.45561544064966 22.860000000000007
    vertex -142.5199749743116 2.4556154406496584 23.000000000000007
    vertex -143.10094663423064 2.45561544064966 23.000000000000007
  endloop
endfacet
facet normal 0.0 1.0 0.0
  outer loop
    vertex -139.7656733548784 -0.2654751463948748 23.000000000000007
    vertex -139.1297927880768 -0.2654751463948748 22.860000000000007
    vertex -139.7656733548784 -0.2654751463948748 22.860000000000007
  endloop
endfacet
facet normal 0.0 1.0 0.0
  outer loop
    vertex -139.1297927880768 -0.2654751463948748 22.860000000000007
    vertex -139.7656733548784 -0.2654751463948748 23.000000000000007
    vertex -139.1297927880768 -0.2654751463948748 23.000000000000007
  endloop
endfacet
facet normal 1.0 0.0 0.0
  outer loop
    vertex -139.7656733548784 2.0253111643338704 22.860000000000007
    vertex -139.7656733548784 -0.2654751463948748 23.000000000000007
    vertex -139.7656733548784 -0.2654751463948748 22.860000000000007
  endloop
endfacet
facet normal 1.0 0.0 0.0
  outer loop
    vertex -139.7656733548784 -0.2654751463948748 23.000000000000007
    vertex -139.7656733548784 2.0253111643338704 22.860000000000007
    vertex -139.7656733548784 2.0253111643338686 23.000000000000007
  endloop
endfacet
facet normal 0.9892683397932424 0.14611006769802762 1.6620801793366036e-15
  outer loop
    vertex -139.7656733548784 2.0253111643338704 22.860000000000007
    vertex -139.8291617784614 2.455172626884477 23.000000000000007
    vertex -139.7656733548784 2.0253111643338686 23.000000000000007
  endloop
endfacet
facet normal 0.9892683397932424 0.14611006769802762 1.6620801793366036e-15
  outer loop
    vertex -139.8291617784614 2.455172626884477 23.000000000000007
    vertex -139.7656733548784 2.0253111643338704 22.860000000000007
    vertex -139.8291617784614 2.4551726268844782 22.860000000000007
  endloop
endfacet
facet normal 9.699774609776202e-17 -1.0 -1.1330222474522729e-14
  outer loop
    vertex -138.01213084475694 2.455172626884477 23.000000000000007
    vertex -139.8291617784614 2.4551726268844782 22.860000000000007
    vertex -138.01213084475694 2.4551726268844782 22.860000000000007
  endloop
endfacet
facet normal 9.699774609776202e-17 -1.0 -1.1330222474522729e-14
  outer loop
    vertex -139.8291617784614 2.4551726268844782 22.860000000000007
    vertex -138.01213084475694 2.455172626884477 23.000000000000007
    vertex -139.8291617784614 2.455172626884477 23.000000000000007
  endloop
endfacet
facet normal -0.9930291603427952 0.11786893869414139 1.2100671828226318e-15
  outer loop
    vertex -138.01213084475694 2.455172626884477 23.000000000000007
    vertex -138.06111711753024 2.0424701977346795 22.860000000000007
    vertex -138.06111711753024 2.042470197734678 23.000000000000007
  endloop
endfacet
facet normal -0.9930291603427952 0.11786893869414139 1.2100671828226318e-15
  outer loop
    vertex -138.06111711753024 2.0424701977346795 22.860000000000007
    vertex -138.01213084475694 2.455172626884477 23.000000000000007
    vertex -138.01213084475694 2.4551726268844782 22.860000000000007
  endloop
endfacet
facet normal 0.0 1.0 1.007130886624243e-14
  outer loop
    vertex -139.1569981587752 2.042470197734678 23.000000000000007
    vertex -138.06111711753024 2.0424701977346795 22.860000000000007
    vertex -139.1569981587752 2.0424701977346795 22.860000000000007
  endloop
endfacet
facet normal 0.0 1.0 1.007130886624243e-14
  outer loop
    vertex -138.06111711753024 2.0424701977346795 22.860000000000007
    vertex -139.1569981587752 2.042470197734678 23.000000000000007
    vertex -138.06111711753024 2.042470197734678 23.000000000000007
  endloop
endfacet
facet normal -0.9941590688690747 -0.10792472277182148 -5.416329944862658e-16
  outer loop
    vertex -139.1569981587752 2.042470197734678 23.000000000000007
    vertex -139.1297927880768 1.7918652825018866 22.860000000000007
    vertex -139.1297927880768 1.7918652825018866 23.000000000000007
  endloop
endfacet
facet normal -0.9941590688690747 -0.10792472277182148 -5.416329944862658e-16
  outer loop
    vertex -139.1297927880768 1.7918652825018866 22.860000000000007
    vertex -139.1569981587752 2.042470197734678 23.000000000000007
    vertex -139.1569981587752 2.0424701977346795 22.860000000000007
  endloop
endfacet
facet normal -1.0 0.0 0.0
  outer loop
    vertex -139.1297927880768 1.7918652825018866 23.000000000000007
    vertex -139.1297927880768 1.3959621005686877 22.860000000000007
    vertex -139.1297927880768 1.3959621005686877 23.000000000000007
  endloop
endfacet
facet normal -1.0 0.0 0.0
  outer loop
    vertex -139.1297927880768 1.3959621005686877 22.860000000000007
    vertex -139.1297927880768 1.7918652825018866 23.000000000000007
    vertex -139.1297927880768 1.7918652825018866 22.860000000000007
  endloop
endfacet
facet normal 0.0 -1.0 0.0
  outer loop
    vertex -138.19811262613348 1.3959621005686877 23.000000000000007
    vertex -139.1297927880768 1.3959621005686877 22.860000000000007
    vertex -138.19811262613348 1.3959621005686877 22.860000000000007
  endloop
endfacet
facet normal 0.0 -1.0 0.0
  outer loop
    vertex -139.1297927880768 1.3959621005686877 22.860000000000007
    vertex -138.19811262613348 1.3959621005686877 23.000000000000007
    vertex -139.1297927880768 1.3959621005686877 23.000000000000007
  endloop
endfacet
facet normal -1.0 0.0 0.0
  outer loop
    vertex -138.19811262613348 1.3959621005686877 23.000000000000007
    vertex -138.19811262613348 1.0098284973298222 22.860000000000007
    vertex -138.19811262613348 1.0098284973298193 23.000000000000007
  endloop
endfacet
facet normal -1.0 0.0 0.0
  outer loop
    vertex -138.19811262613348 1.0098284973298222 22.860000000000007
    vertex -138.19811262613348 1.3959621005686877 23.000000000000007
    vertex -138.19811262613348 1.3959621005686877 22.860000000000007
  endloop
endfacet
facet normal -2.952501247327585e-42 1.0 2.0142617732484855e-14
  outer loop
    vertex -139.1297927880768 1.0098284973298193 23.000000000000007
    vertex -138.19811262613348 1.0098284973298222 22.860000000000007
    vertex -139.1297927880768 1.0098284973298222 22.860000000000007
  endloop
endfacet
facet normal -2.952501247327585e-42 1.0 2.0142617732484855e-14
  outer loop
    vertex -138.19811262613348 1.0098284973298222 22.860000000000007
    vertex -139.1297927880768 1.0098284973298193 23.000000000000007
    vertex -138.19811262613348 1.0098284973298193 23.000000000000007
  endloop
endfacet
facet normal -1.0 0.0 0.0
  outer loop
    vertex -139.1297927880768 1.0098284973298193 23.000000000000007
    vertex -139.1297927880768 -0.2654751463948748 22.860000000000007
    vertex -139.1297927880768 -0.2654751463948748 23.000000000000007
  endloop
endfacet
facet normal -1.0 0.0 0.0
  outer loop
    vertex -139.1297927880768 -0.2654751463948748 22.860000000000007
    vertex -139.1297927880768 1.0098284973298193 23.000000000000007
    vertex -139.1297927880768 1.0098284973298222 22.860000000000007
  endloop
endfacet
facet normal 1.0 0.0 0.0
  outer loop
    vertex -140.90459035892698 0.9832596714188904 22.860000000000007
    vertex -140.90459035892698 -0.2654751463948748 23.000000000000007
    vertex -140.90459035892698 -0.2654751463948748 22.860000000000007
  endloop
endfacet
facet normal 1.0 0.0 0.0
  outer loop
    vertex -140.90459035892698 -0.2654751463948748 23.000000000000007
    vertex -140.90459035892698 0.9832596714188904 22.860000000000007
    vertex -140.90459035892698 0.9832596714188889 23.000000000000007
  endloop
endfacet
facet normal -6.719686786976335e-32 1.0 1.0071308866242428e-14
  outer loop
    vertex -141.71405392168003 0.9832596714188889 23.000000000000007
    vertex -140.90459035892698 0.9832596714188904 22.860000000000007
    vertex -141.71405392168003 0.9832596714188904 22.860000000000007
  endloop
endfacet
facet normal -6.719686786976335e-32 1.0 1.0071308866242428e-14
  outer loop
    vertex -140.90459035892698 0.9832596714188904 22.860000000000007
    vertex -141.71405392168003 0.9832596714188889 23.000000000000007
    vertex -140.90459035892698 0.9832596714188889 23.000000000000007
  endloop
endfacet
facet normal -1.0 0.0 0.0
  outer loop
    vertex -141.71405392168003 0.9832596714188889 23.000000000000007
    vertex -141.71405392168003 -0.2654751463948748 22.860000000000007
    vertex -141.71405392168003 -0.2654751463948748 23.000000000000007
  endloop
endfacet
facet normal -1.0 0.0 0.0
  outer loop
    vertex -141.71405392168003 -0.2654751463948748 22.860000000000007
    vertex -141.71405392168003 0.9832596714188889 23.000000000000007
    vertex -141.71405392168003 0.9832596714188904 22.860000000000007
  endloop
endfacet
facet normal 0.0 1.0 0.0
  outer loop
    vertex -142.3428494682387 -0.2654751463948748 23.000000000000007
    vertex -141.71405392168003 -0.2654751463948748 22.860000000000007
    vertex -142.3428494682387 -0.2654751463948748 22.860000000000007
  endloop
endfacet
facet normal 0.0 1.0 0.0
  outer loop
    vertex -141.71405392168003 -0.2654751463948748 22.860000000000007
    vertex -142.3428494682387 -0.2654751463948748 23.000000000000007
    vertex -141.71405392168003 -0.2654751463948748 23.000000000000007
  endloop
endfacet
facet normal 1.0 0.0 0.0
  outer loop
    vertex -142.3428494682387 2.0245915919654496 22.860000000000007
    vertex -142.3428494682387 -0.2654751463948748 23.000000000000007
    vertex -142.3428494682387 -0.2654751463948748 22.860000000000007
  endloop
endfacet
facet normal 1.0 0.0 0.0
  outer loop
    vertex -142.3428494682387 -0.2654751463948748 23.000000000000007
    vertex -142.3428494682387 2.0245915919654496 22.860000000000007
    vertex -142.3428494682387 2.024591591965447 23.000000000000007
  endloop
endfacet
facet normal 0.9915544151345537 0.12969133289149787 1.6304673327160062e-13
  outer loop
    vertex -142.3428494682387 2.0245915919654496 22.860000000000007
    vertex -142.39905914055657 2.4543423510747577 23.000000000000007
    vertex -142.3428494682387 2.024591591965447 23.000000000000007
  endloop
endfacet
facet normal 0.9915544151345537 0.12969133289149787 1.6304673327160062e-13
  outer loop
    vertex -142.39905914055657 2.4543423510747577 23.000000000000007
    vertex -142.3428494682387 2.0245915919654496 22.860000000000007
    vertex -142.39905914055655 2.4543423510747617 22.860000000000007
  endloop
endfacet
facet normal 0.052853177857276105 -0.9986022940041683 -1.2350604738815602e-14
  outer loop
    vertex -141.71405392168006 2.4905977280990492 23.000000000000007
    vertex -142.39905914055655 2.4543423510747617 22.860000000000007
    vertex -141.71405392168003 2.490597728099052 22.860000000000007
  endloop
endfacet
facet normal 0.052853177857276105 -0.9986022940041683 -1.2350604738815602e-14
  outer loop
    vertex -142.39905914055655 2.4543423510747617 22.860000000000007
    vertex -141.71405392168006 2.4905977280990492 23.000000000000007
    vertex -142.39905914055657 2.4543423510747577 23.000000000000007
  endloop
endfacet
facet normal -1.0 -1.0304676411492641e-14 -8.057047092993954e-14
  outer loop
    vertex -141.71405392168006 2.4905977280990492 23.000000000000007
    vertex -141.71405392168003 1.3959621005686877 22.860000000000007
    vertex -141.71405392168003 1.3959621005686877 23.000000000000007
  endloop
endfacet
facet normal -1.0 -1.0304676411492641e-14 -8.057047092993954e-14
  outer loop
    vertex -141.71405392168003 1.3959621005686877 22.860000000000007
    vertex -141.71405392168006 2.4905977280990492 23.000000000000007
    vertex -141.71405392168003 2.490597728099052 22.860000000000007
  endloop
endfacet
facet normal 0.0 -1.0 0.0
  outer loop
    vertex -140.90459035892698 1.3959621005686877 23.000000000000007
    vertex -141.71405392168003 1.3959621005686877 22.860000000000007
    vertex -140.90459035892698 1.3959621005686877 22.860000000000007
  endloop
endfacet
facet normal 0.0 -1.0 0.0
  outer loop
    vertex -141.71405392168003 1.3959621005686877 22.860000000000007
    vertex -140.90459035892698 1.3959621005686877 23.000000000000007
    vertex -141.71405392168003 1.3959621005686877 23.000000000000007
  endloop
endfacet
facet normal 1.0 0.0 0.0
  outer loop
    vertex -140.90459035892698 2.4543423510747617 22.860000000000007
    vertex -140.90459035892698 1.3959621005686877 23.000000000000007
    vertex -140.90459035892698 1.3959621005686877 22.860000000000007
  endloop
endfacet
facet normal 1.0 0.0 0.0
  outer loop
    vertex -140.90459035892698 1.3959621005686877 23.000000000000007
    vertex -140.90459035892698 2.4543423510747617 22.860000000000007
    vertex -140.90459035892698 2.4543423510747604 23.000000000000007
  endloop
endfacet
facet normal 0.05772491218224795 -0.9983325270237127 -1.0048334607583371e-14
  outer loop
    vertex -140.277566067429 2.4905977280990506 23.000000000000007
    vertex -140.90459035892698 2.4543423510747617 22.860000000000007
    vertex -140.277566067429 2.490597728099052 22.860000000000007
  endloop
endfacet
facet normal 0.05772491218224795 -0.9983325270237127 -1.0048334607583371e-14
  outer loop
    vertex -140.90459035892698 2.4543423510747617 22.860000000000007
    vertex -140.277566067429 2.4905977280990506 23.000000000000007
    vertex -140.90459035892698 2.4543423510747604 23.000000000000007
  endloop
endfacet
facet normal -1.0 0.0 0.0
  outer loop
    vertex -140.277566067429 2.4905977280990506 23.000000000000007
    vertex -140.277566067429 -0.2654751463948748 22.860000000000007
    vertex -140.277566067429 -0.2654751463948748 23.000000000000007
  endloop
endfacet
facet normal -1.0 0.0 0.0
  outer loop
    vertex -140.277566067429 -0.2654751463948748 22.860000000000007
    vertex -140.277566067429 2.4905977280990506 23.000000000000007
    vertex -140.277566067429 2.490597728099052 22.860000000000007
  endloop
endfacet
facet normal 0.0 1.0 0.0
  outer loop
    vertex -140.90459035892698 -0.2654751463948748 23.000000000000007
    vertex -140.277566067429 -0.2654751463948748 22.860000000000007
    vertex -140.90459035892698 -0.2654751463948748 22.860000000000007
  endloop
endfacet
facet normal 0.0 1.0 0.0
  outer loop
    vertex -140.277566067429 -0.2654751463948748 22.860000000000007
    vertex -140.90459035892698 -0.2654751463948748 23.000000000000007
    vertex -140.277566067429 -0.2654751463948748 23.000000000000007
  endloop
endfacet
endsolid RMP_Front
