solid RMP_Front
facet normal 1.0 0.0 0.0
  outer loop
    vertex -134.75170455223866 5.717204979128776 12.999999999999998
    vertex -134.75170455223866 -3.482795020871218 22.440000000000005
    vertex -134.75170455223866 -3.482795020871218 12.999999999999998
  endloop
endfacet
facet normal 1.0 0.0 0.0
  outer loop
    vertex -134.75170455223866 -3.482795020871218 22.440000000000005
    vertex -134.75170455223866 5.717204979128776 12.999999999999998
    vertex -134.75170455223866 5.717204979128776 22.440000000000005
  endloop
endfacet
facet normal -1.0 0.0 0.0
  outer loop
    vertex -145.55170455223868 5.717204979128776 22.440000000000005
    vertex -145.55170455223868 -3.482795020871218 12.999999999999998
    vertex -145.55170455223868 -3.482795020871218 22.440000000000005
  endloop
endfacet
facet normal -1.0 0.0 0.0
  outer loop
    vertex -145.55170455223868 -3.482795020871218 12.999999999999998
    vertex -145.55170455223868 5.717204979128776 22.440000000000005
    vertex -145.55170455223868 5.717204979128776 12.999999999999998
  endloop
endfacet
facet normal 0.0 0.0 1.0
  outer loop
    vertex -140.90459035892698 1.3959621005686877 22.440000000000005
    vertex -141.71405392168003 2.4905977280990528 22.440000000000005
    vertex -141.71405392168003 1.3959621005686877 22.440000000000005
  endloop
endfacet
facet normal 0.0 0.0 1.0
  outer loop
    vertex -138.19811262613348 1.3959621005686877 22.440000000000005
    vertex -139.1297927880768 1.791865282501888 22.440000000000005
    vertex -139.1297927880768 1.3959621005686877 22.440000000000005
  endloop
endfacet
facet normal 0.0 0.0 1.0
  outer loop
    vertex -145.55170455223868 -3.482795020871218 22.440000000000005
    vertex -144.81729278807677 2.4543423510747675 22.440000000000005
    vertex -145.55170455223868 5.717204979128776 22.440000000000005
  endloop
endfacet
facet normal 0.0 0.0 1.0
  outer loop
    vertex -144.81729278807677 2.4543423510747675 22.440000000000005
    vertex -145.55170455223868 -3.482795020871218 22.440000000000005
    vertex -143.95898133185207 -0.2647832498867722 22.440000000000005
  endloop
endfacet
facet normal 0.0 0.0 1.0
  outer loop
    vertex -143.95898133185207 -0.2647832498867722 22.440000000000005
    vertex -145.55170455223868 -3.482795020871218 22.440000000000005
    vertex -134.75170455223866 -3.482795020871218 22.440000000000005
  endloop
endfacet
facet normal 0.0 0.0 1.0
  outer loop
    vertex -143.95898133185207 -0.2647832498867722 22.440000000000005
    vertex -134.75170455223866 -3.482795020871218 22.440000000000005
    vertex -143.3202224755768 -0.2955864824272612 22.440000000000005
  endloop
endfacet
facet normal 0.0 0.0 1.0
  outer loop
    vertex -143.3202224755768 -0.2955864824272612 22.440000000000005
    vertex -134.75170455223866 -3.482795020871218 22.440000000000005
    vertex -143.26940959602217 0.0977705203561395 22.440000000000005
  endloop
endfacet
facet normal 0.0 0.0 1.0
  outer loop
    vertex -143.26940959602217 0.0977705203561395 22.440000000000005
    vertex -134.75170455223866 -3.482795020871218 22.440000000000005
    vertex -142.3428494682387 -0.2654751463948748 22.440000000000005
  endloop
endfacet
facet normal 0.0 0.0 1.0
  outer loop
    vertex -143.26940959602217 0.0977705203561395 22.440000000000005
    vertex -142.3428494682387 -0.2654751463948748 22.440000000000005
    vertex -142.5199749743116 2.45561544064966 22.440000000000005
  endloop
endfacet
facet normal 0.0 0.0 1.0
  outer loop
    vertex -142.5199749743116 2.45561544064966 22.440000000000005
    vertex -142.3428494682387 -0.2654751463948748 22.440000000000005
    vertex -142.39905914055655 2.4543423510747604 22.440000000000005
  endloop
endfacet
facet normal 0.0 0.0 1.0
  outer loop
    vertex -142.39905914055655 2.4543423510747604 22.440000000000005
    vertex -142.3428494682387 -0.2654751463948748 22.440000000000005
    vertex -142.34284946823874 2.0245915919654482 22.440000000000005
  endloop
endfacet
facet normal 0.0 0.0 1.0
  outer loop
    vertex -142.3428494682387 -0.2654751463948748 22.440000000000005
    vertex -134.75170455223866 -3.482795020871218 22.440000000000005
    vertex -141.71405392168003 -0.2654751463948748 22.440000000000005
  endloop
endfacet
facet normal 0.0 0.0 1.0
  outer loop
    vertex -141.71405392168003 -0.2654751463948748 22.440000000000005
    vertex -134.75170455223866 -3.482795020871218 22.440000000000005
    vertex -140.90459035892698 -0.2654751463948748 22.440000000000005
  endloop
endfacet
facet normal 0.0 0.0 1.0
  outer loop
    vertex -141.71405392168003 -0.2654751463948748 22.440000000000005
    vertex -140.90459035892698 -0.2654751463948748 22.440000000000005
    vertex -141.71405392168003 0.9832596714188904 22.440000000000005
  endloop
endfacet
facet normal 0.0 0.0 1.0
  outer loop
    vertex -140.90459035892698 -0.2654751463948748 22.440000000000005
    vertex -134.75170455223866 -3.482795020871218 22.440000000000005
    vertex -140.277566067429 -0.2654751463948748 22.440000000000005
  endloop
endfacet
facet normal 0.0 0.0 1.0
  outer loop
    vertex -140.277566067429 -0.2654751463948748 22.440000000000005
    vertex -134.75170455223866 -3.482795020871218 22.440000000000005
    vertex -139.7656733548784 -0.2654751463948748 22.440000000000005
  endloop
endfacet
facet normal 0.0 0.0 1.0
  outer loop
    vertex -140.277566067429 -0.2654751463948748 22.440000000000005
    vertex -139.7656733548784 -0.2654751463948748 22.440000000000005
    vertex -140.277566067429 2.4905977280990528 22.440000000000005
  endloop
endfacet
facet normal 0.0 0.0 1.0
  outer loop
    vertex -140.277566067429 2.4905977280990528 22.440000000000005
    vertex -139.7656733548784 -0.2654751463948748 22.440000000000005
    vertex -139.8291617784614 2.4551726268844756 22.440000000000005
  endloop
endfacet
facet normal 0.0 0.0 1.0
  outer loop
    vertex -139.8291617784614 2.4551726268844756 22.440000000000005
    vertex -139.7656733548784 -0.2654751463948748 22.440000000000005
    vertex -139.76567335487843 2.0253111643338673 22.440000000000005
  endloop
endfacet
facet normal 0.0 0.0 1.0
  outer loop
    vertex -139.7656733548784 -0.2654751463948748 22.440000000000005
    vertex -134.75170455223866 -3.482795020871218 22.440000000000005
    vertex -139.1297927880768 -0.2654751463948748 22.440000000000005
  endloop
endfacet
facet normal 0.0 0.0 1.0
  outer loop
    vertex -139.1297927880768 -0.2654751463948748 22.440000000000005
    vertex -134.75170455223866 -3.482795020871218 22.440000000000005
    vertex -139.1297927880768 1.0098284973298222 22.440000000000005
  endloop
endfacet
facet normal 0.0 0.0 1.0
  outer loop
    vertex -139.1297927880768 1.0098284973298222 22.440000000000005
    vertex -134.75170455223866 -3.482795020871218 22.440000000000005
    vertex -137.2234795289675 -0.2654751463948748 22.440000000000005
  endloop
endfacet
facet normal 0.0 0.0 1.0
  outer loop
    vertex -139.1297927880768 1.0098284973298222 22.440000000000005
    vertex -137.2234795289675 -0.2654751463948748 22.440000000000005
    vertex -138.19811262613348 1.0098284973298222 22.440000000000005
  endloop
endfacet
facet normal 0.0 0.0 1.0
  outer loop
    vertex -138.19811262613348 1.0098284973298222 22.440000000000005
    vertex -137.2234795289675 -0.2654751463948748 22.440000000000005
    vertex -138.19811262613348 1.3959621005686877 22.440000000000005
  endloop
endfacet
facet normal 0.0 0.0 1.0
  outer loop
    vertex -138.19811262613348 1.3959621005686877 22.440000000000005
    vertex -137.2234795289675 -0.2654751463948748 22.440000000000005
    vertex -138.06111711753022 2.042470197734678 22.440000000000005
  endloop
endfacet
facet normal 0.0 0.0 1.0
  outer loop
    vertex -138.06111711753022 2.042470197734678 22.440000000000005
    vertex -137.2234795289675 -0.2654751463948748 22.440000000000005
    vertex -138.01213084475694 2.455172626884476 22.440000000000005
  endloop
endfacet
facet normal 0.0 0.0 1.0
  outer loop
    vertex -138.01213084475694 2.455172626884476 22.440000000000005
    vertex -137.2234795289675 -0.2654751463948748 22.440000000000005
    vertex -137.49373430503027 1.698819040092958 22.44000000000001
  endloop
endfacet
facet normal 0.0 0.0 1.0
  outer loop
    vertex -137.2234795289675 -0.2654751463948748 22.440000000000005
    vertex -134.75170455223866 -3.482795020871218 22.440000000000005
    vertex -135.74163093964563 -0.2654751463948748 22.440000000000005
  endloop
endfacet
facet normal 0.0 0.0 1.0
  outer loop
    vertex -135.74163093964563 -0.2654751463948748 22.440000000000005
    vertex -134.75170455223866 -3.482795020871218 22.440000000000005
    vertex -135.74163093964563 0.09727235487030775 22.440000000000005
  endloop
endfacet
facet normal 0.0 0.0 1.0
  outer loop
    vertex -144.81729278807677 2.4543423510747675 22.440000000000005
    vertex -134.75170455223866 5.717204979128776 22.440000000000005
    vertex -145.55170455223868 5.717204979128776 22.440000000000005
  endloop
endfacet
facet normal 0.0 0.0 1.0
  outer loop
    vertex -134.75170455223866 5.717204979128776 22.440000000000005
    vertex -144.81729278807677 2.4543423510747675 22.440000000000005
    vertex -144.23277861803632 2.490597728099047 22.44000000000001
  endloop
endfacet
facet normal 0.0 0.0 1.0
  outer loop
    vertex -134.75170455223866 5.717204979128776 22.440000000000005
    vertex -144.23277861803632 2.490597728099047 22.44000000000001
    vertex -143.10094663423067 2.455615440649664 22.440000000000005
  endloop
endfacet
facet normal 0.0 0.0 1.0
  outer loop
    vertex -143.10094663423067 2.455615440649664 22.440000000000005
    vertex -144.23277861803632 2.490597728099047 22.44000000000001
    vertex -143.7738575021456 1.0041549459634274 22.440000000000005
  endloop
endfacet
facet normal 0.0 0.0 1.0
  outer loop
    vertex -143.10094663423067 2.455615440649664 22.440000000000005
    vertex -143.7738575021456 1.0041549459634274 22.440000000000005
    vertex -143.5507623920748 1.004597759728611 22.440000000000005
  endloop
endfacet
facet normal 0.0 0.0 1.0
  outer loop
    vertex -143.5507623920748 1.004597759728611 22.440000000000005
    vertex -143.7738575021456 1.0041549459634274 22.440000000000005
    vertex -143.67771156338043 0.20653665142901317 22.440000000000005
  endloop
endfacet
facet normal 0.0 0.0 1.0
  outer loop
    vertex -134.75170455223866 5.717204979128776 22.440000000000005
    vertex -143.10094663423067 2.455615440649664 22.440000000000005
    vertex -142.5199749743116 2.45561544064966 22.440000000000005
  endloop
endfacet
facet normal 0.0 0.0 1.0
  outer loop
    vertex -134.75170455223866 5.717204979128776 22.440000000000005
    vertex -142.5199749743116 2.45561544064966 22.440000000000005
    vertex -142.39905914055655 2.4543423510747604 22.440000000000005
  endloop
endfacet
facet normal 0.0 0.0 1.0
  outer loop
    vertex -134.75170455223866 5.717204979128776 22.440000000000005
    vertex -142.39905914055655 2.4543423510747604 22.440000000000005
    vertex -141.71405392168003 2.4905977280990528 22.440000000000005
  endloop
endfacet
facet normal 0.0 0.0 1.0
  outer loop
    vertex -134.75170455223866 5.717204979128776 22.440000000000005
    vertex -141.71405392168003 2.4905977280990528 22.440000000000005
    vertex -140.90459035892698 2.4543423510747613 22.440000000000005
  endloop
endfacet
facet normal 0.0 0.0 1.0
  outer loop
    vertex -140.90459035892698 2.4543423510747613 22.440000000000005
    vertex -141.71405392168003 2.4905977280990528 22.440000000000005
    vertex -140.90459035892698 1.3959621005686877 22.440000000000005
  endloop
endfacet
facet normal 0.0 0.0 1.0
  outer loop
    vertex -134.75170455223866 5.717204979128776 22.440000000000005
    vertex -140.90459035892698 2.4543423510747613 22.440000000000005
    vertex -140.277566067429 2.4905977280990528 22.440000000000005
  endloop
endfacet
facet normal 0.0 0.0 1.0
  outer loop
    vertex -134.75170455223866 5.717204979128776 22.440000000000005
    vertex -140.277566067429 2.4905977280990528 22.440000000000005
    vertex -139.8291617784614 2.4551726268844756 22.440000000000005
  endloop
endfacet
facet normal 0.0 0.0 1.0
  outer loop
    vertex -134.75170455223866 5.717204979128776 22.440000000000005
    vertex -139.8291617784614 2.4551726268844756 22.440000000000005
    vertex -138.01213084475694 2.455172626884476 22.440000000000005
  endloop
endfacet
facet normal 0.0 0.0 1.0
  outer loop
    vertex -134.75170455223866 5.717204979128776 22.440000000000005
    vertex -138.01213084475694 2.455172626884476 22.440000000000005
    vertex -137.49373430503027 1.698819040092958 22.44000000000001
  endloop
endfacet
facet normal 0.0 0.0 1.0
  outer loop
    vertex -134.75170455223866 5.717204979128776 22.440000000000005
    vertex -137.49373430503027 1.698819040092958 22.44000000000001
    vertex -136.62313476682175 2.491455679769086 22.44000000000001
  endloop
endfacet
facet normal 0.0 0.0 1.0
  outer loop
    vertex -134.75170455223866 5.717204979128776 22.440000000000005
    vertex -136.62313476682175 2.491455679769086 22.44000000000001
    vertex -136.18236901530358 2.455172626884481 22.440000000000005
  endloop
endfacet
facet normal 0.0 0.0 1.0
  outer loop
    vertex -134.75170455223866 5.717204979128776 22.440000000000005
    vertex -136.18236901530358 2.455172626884481 22.440000000000005
    vertex -136.1823690153035 0.09727235487030775 22.440000000000005
  endloop
endfacet
facet normal 0.0 0.0 1.0
  outer loop
    vertex -134.75170455223866 5.717204979128776 22.440000000000005
    vertex -136.1823690153035 0.09727235487030775 22.440000000000005
    vertex -135.74163093964563 0.09727235487030775 22.440000000000005
  endloop
endfacet
facet normal 0.0 0.0 1.0
  outer loop
    vertex -134.75170455223866 5.717204979128776 22.440000000000005
    vertex -135.74163093964563 0.09727235487030775 22.440000000000005
    vertex -134.75170455223866 -3.482795020871218 22.440000000000005
  endloop
endfacet
facet normal 0.0 0.0 1.0
  outer loop
    vertex -137.49373430503027 1.698819040092958 22.44000000000001
    vertex -137.2234795289675 0.09727235487030775 22.440000000000005
    vertex -137.2126029158602 1.3632769095261865 22.440000000000005
  endloop
endfacet
facet normal 0.0 0.0 1.0
  outer loop
    vertex -137.2234795289675 0.09727235487030775 22.440000000000005
    vertex -137.49373430503027 1.698819040092958 22.44000000000001
    vertex -137.2234795289675 -0.2654751463948748 22.440000000000005
  endloop
endfacet
facet normal 0.0 0.0 1.0
  outer loop
    vertex -137.2126029158602 1.3632769095261865 22.440000000000005
    vertex -137.2234795289675 0.09727235487030775 22.440000000000005
    vertex -136.7827414533096 0.09727235487030775 22.440000000000005
  endloop
endfacet
facet normal 0.0 0.0 1.0
  outer loop
    vertex -137.2126029158602 1.3632769095261865 22.440000000000005
    vertex -136.7827414533096 0.09727235487030775 22.440000000000005
    vertex -137.06024730477722 1.4975048320970226 22.440000000000005
  endloop
endfacet
facet normal 0.0 0.0 1.0
  outer loop
    vertex -137.06024730477722 1.4975048320970226 22.440000000000005
    vertex -136.7827414533096 0.09727235487030775 22.440000000000005
    vertex -136.78274145330957 1.3306470702043134 22.440000000000005
  endloop
endfacet
facet normal 0.0 0.0 1.0
  outer loop
    vertex -137.06024730477722 1.4975048320970226 22.440000000000005
    vertex -136.78274145330957 1.3306470702043134 22.440000000000005
    vertex -136.64851353073874 1.9890281114492558 22.440000000000005
  endloop
endfacet
facet normal 0.0 0.0 1.0
  outer loop
    vertex -139.1297927880768 1.791865282501888 22.440000000000005
    vertex -138.06111711753022 2.042470197734678 22.440000000000005
    vertex -139.15699815877517 2.042470197734684 22.440000000000005
  endloop
endfacet
facet normal 0.0 0.0 1.0
  outer loop
    vertex -138.06111711753022 2.042470197734678 22.440000000000005
    vertex -139.1297927880768 1.791865282501888 22.440000000000005
    vertex -138.19811262613348 1.3959621005686877 22.440000000000005
  endloop
endfacet
facet normal 0.0 0.0 1.0
  outer loop
    vertex -140.90459035892698 0.9832596714188904 22.440000000000005
    vertex -141.71405392168003 0.9832596714188904 22.440000000000005
    vertex -140.90459035892698 -0.2654751463948748 22.440000000000005
  endloop
endfacet
facet normal 0.0 -1.0 0.0
  outer loop
    vertex -134.75170455223866 -3.482795020871218 22.440000000000005
    vertex -145.55170455223868 -3.482795020871218 12.999999999999998
    vertex -134.75170455223866 -3.482795020871218 12.999999999999998
  endloop
endfacet
facet normal 0.0 -1.0 0.0
  outer loop
    vertex -145.55170455223868 -3.482795020871218 12.999999999999998
    vertex -134.75170455223866 -3.482795020871218 22.440000000000005
    vertex -145.55170455223868 -3.482795020871218 22.440000000000005
  endloop
endfacet
facet normal 0.0 1.0 0.0
  outer loop
    vertex -145.55170455223868 5.717204979128776 22.440000000000005
    vertex -134.75170455223866 5.717204979128776 12.999999999999998
    vertex -145.55170455223868 5.717204979128776 12.999999999999998
  endloop
endfacet
facet normal 0.0 1.0 0.0
  outer loop
    vertex -134.75170455223866 5.717204979128776 12.999999999999998
    vertex -145.55170455223868 5.717204979128776 22.440000000000005
    vertex -134.75170455223866 5.717204979128776 22.440000000000005
  endloop
endfacet
facet normal 0.0 0.0 -1.0
  outer loop
    vertex -134.75170455223866 5.717204979128776 12.999999999999998
    vertex -145.55170455223868 -3.482795020871218 12.999999999999998
    vertex -145.55170455223868 5.717204979128776 12.999999999999998
  endloop
endfacet
facet normal 0.0 0.0 -1.0
  outer loop
    vertex -145.55170455223868 -3.482795020871218 12.999999999999998
    vertex -134.75170455223866 5.717204979128776 12.999999999999998
    vertex -134.75170455223866 -3.482795020871218 12.999999999999998
  endloop
endfacet
facet normal 0.0 1.0 0.0
  outer loop
    vertex -136.1823690153035 0.09727235487030775 23.00000000000001
    vertex -135.74163093964563 0.09727235487030775 22.440000000000005
    vertex -136.1823690153035 0.09727235487030775 22.440000000000005
  endloop
endfacet
facet normal 0.0 1.0 0.0
  outer loop
    vertex -135.74163093964563 0.09727235487030775 22.440000000000005
    vertex -136.1823690153035 0.09727235487030775 23.00000000000001
    vertex -135.74163093964563 0.09727235487030775 23.00000000000001
  endloop
endfacet
facet normal 1.0 1.4351581443971864e-14 -8.057047092993882e-14
  outer loop
    vertex -136.18236901530358 2.455172626884481 22.440000000000005
    vertex -136.1823690153035 0.09727235487030775 23.00000000000001
    vertex -136.1823690153035 0.09727235487030775 22.440000000000005
  endloop
endfacet
facet normal 1.0 1.4351581443971864e-14 -8.057047092993882e-14
  outer loop
    vertex -136.1823690153035 0.09727235487030775 23.00000000000001
    vertex -136.18236901530358 2.455172626884481 22.440000000000005
    vertex -136.1823690153035 2.4551726268844773 23.00000000000001
  endloop
endfacet
facet normal 0.0 0.0 1.0
  outer loop
    vertex -137.2126029158602 1.363276909526178 23.00000000000001
    vertex -136.62313476682175 2.491455679769093 23.00000000000001
    vertex -137.49373430503024 1.69881904009298 23.00000000000001
  endloop
endfacet
facet normal 0.0 0.0 1.0
  outer loop
    vertex -136.62313476682175 2.491455679769093 23.00000000000001
    vertex -137.2126029158602 1.363276909526178 23.00000000000001
    vertex -137.06024730477722 1.4975048320970283 23.00000000000001
  endloop
endfacet
facet normal 0.0 0.0 1.0
  outer loop
    vertex -136.62313476682175 2.491455679769093 23.00000000000001
    vertex -137.06024730477722 1.4975048320970283 23.00000000000001
    vertex -136.64851353073874 1.9890281114492552 23.00000000000001
  endloop
endfacet
facet normal 0.0 0.0 1.0
  outer loop
    vertex -135.74163093964563 -0.2654751463948748 23.00000000000001
    vertex -137.2234795289675 0.09727235487030775 23.00000000000001
    vertex -137.2234795289675 -0.2654751463948748 23.00000000000001
  endloop
endfacet
facet normal 0.0 0.0 1.0
  outer loop
    vertex -137.2234795289675 0.09727235487030775 23.00000000000001
    vertex -135.74163093964563 -0.2654751463948748 23.00000000000001
    vertex -136.7827414533096 0.09727235487030775 23.00000000000001
  endloop
endfacet
facet normal 0.0 0.0 1.0
  outer loop
    vertex -136.7827414533096 0.09727235487030775 23.00000000000001
    vertex -135.74163093964563 -0.2654751463948748 23.00000000000001
    vertex -136.1823690153035 0.09727235487030775 23.00000000000001
  endloop
endfacet
facet normal 0.0 0.0 1.0
  outer loop
    vertex -136.7827414533096 0.09727235487030775 23.00000000000001
    vertex -136.1823690153035 0.09727235487030775 23.00000000000001
    vertex -136.7827414533096 1.3306470702043156 23.00000000000001
  endloop
endfacet
facet normal 0.0 0.0 1.0
  outer loop
    vertex -136.7827414533096 1.3306470702043156 23.00000000000001
    vertex -136.1823690153035 0.09727235487030775 23.00000000000001
    vertex -136.64851353073874 1.9890281114492552 23.00000000000001
  endloop
endfacet
facet normal 0.0 0.0 1.0
  outer loop
    vertex -136.64851353073874 1.9890281114492552 23.00000000000001
    vertex -136.1823690153035 0.09727235487030775 23.00000000000001
    vertex -136.62313476682175 2.491455679769093 23.00000000000001
  endloop
endfacet
facet normal 0.0 0.0 1.0
  outer loop
    vertex -136.1823690153035 0.09727235487030775 23.00000000000001
    vertex -135.74163093964563 -0.2654751463948748 23.00000000000001
    vertex -135.74163093964563 0.09727235487030775 23.00000000000001
  endloop
endfacet
facet normal 0.0 0.0 1.0
  outer loop
    vertex -136.1823690153035 2.4551726268844773 23.00000000000001
    vertex -136.62313476682175 2.491455679769093 23.00000000000001
    vertex -136.1823690153035 0.09727235487030775 23.00000000000001
  endloop
endfacet
facet normal 1.0 0.0 0.0
  outer loop
    vertex -135.74163093964563 0.09727235487030775 22.440000000000005
    vertex -135.74163093964563 -0.2654751463948748 23.00000000000001
    vertex -135.74163093964563 -0.2654751463948748 22.440000000000005
  endloop
endfacet
facet normal 1.0 0.0 0.0
  outer loop
    vertex -135.74163093964563 -0.2654751463948748 23.00000000000001
    vertex -135.74163093964563 0.09727235487030775 22.440000000000005
    vertex -135.74163093964563 0.09727235487030775 23.00000000000001
  endloop
endfacet
facet normal -0.9798435652057559 0.19976633281129647 -2.66877173316231e-14
  outer loop
    vertex -136.7827414533096 1.3306470702043156 23.00000000000001
    vertex -136.64851353073874 1.9890281114492558 22.440000000000005
    vertex -136.78274145330957 1.3306470702043134 22.440000000000005
  endloop
endfacet
facet normal -0.9798435652057559 0.19976633281129647 -2.66877173316231e-14
  outer loop
    vertex -136.64851353073874 1.9890281114492558 22.440000000000005
    vertex -136.7827414533096 1.3306470702043156 23.00000000000001
    vertex -136.64851353073874 1.9890281114492552 23.00000000000001
  endloop
endfacet
facet normal 0.7665842223369288 -0.6421437767852977 3.590495845215016e-15
  outer loop
    vertex -136.64851353073874 1.9890281114492558 22.440000000000005
    vertex -137.06024730477722 1.4975048320970283 23.00000000000001
    vertex -137.06024730477722 1.4975048320970226 22.440000000000005
  endloop
endfacet
facet normal 0.7665842223369288 -0.6421437767852977 3.590495845215016e-15
  outer loop
    vertex -137.06024730477722 1.4975048320970283 23.00000000000001
    vertex -136.64851353073874 1.9890281114492558 22.440000000000005
    vertex -136.64851353073874 1.9890281114492552 23.00000000000001
  endloop
endfacet
facet normal 0.6610579506661116 -0.7503348491581082 -2.3709611913728885e-15
  outer loop
    vertex -137.06024730477722 1.4975048320970283 23.00000000000001
    vertex -137.2126029158602 1.3632769095261865 22.440000000000005
    vertex -137.06024730477722 1.4975048320970226 22.440000000000005
  endloop
endfacet
facet normal 0.6610579506661116 -0.7503348491581082 -2.3709611913728885e-15
  outer loop
    vertex -137.2126029158602 1.3632769095261865 22.440000000000005
    vertex -137.06024730477722 1.4975048320970283 23.00000000000001
    vertex -137.2126029158602 1.363276909526178 23.00000000000001
  endloop
endfacet
facet normal -0.7665187988418349 -0.6422218705572635 3.110666255022479e-14
  outer loop
    vertex -137.49373430503024 1.69881904009298 23.00000000000001
    vertex -137.2126029158602 1.3632769095261865 22.440000000000005
    vertex -137.2126029158602 1.363276909526178 23.00000000000001
  endloop
endfacet
facet normal -0.7665187988418349 -0.6422218705572635 3.110666255022479e-14
  outer loop
    vertex -137.2126029158602 1.3632769095261865 22.440000000000005
    vertex -137.49373430503024 1.69881904009298 23.00000000000001
    vertex -137.49373430503027 1.698819040092958 22.44000000000001
  endloop
endfacet
facet normal -0.6732225084452489 0.7394399597821901 1.1102733579788921e-14
  outer loop
    vertex -137.49373430503024 1.69881904009298 23.00000000000001
    vertex -136.62313476682175 2.491455679769086 22.44000000000001
    vertex -137.49373430503027 1.698819040092958 22.44000000000001
  endloop
endfacet
facet normal -0.6732225084452489 0.7394399597821901 1.1102733579788921e-14
  outer loop
    vertex -136.62313476682175 2.491455679769086 22.44000000000001
    vertex -137.49373430503024 1.69881904009298 23.00000000000001
    vertex -136.62313476682175 2.491455679769093 23.00000000000001
  endloop
endfacet
facet normal 0.08204072522321693 0.9966289778071119 -1.2581255702830078e-14
  outer loop
    vertex -136.62313476682175 2.491455679769086 22.44000000000001
    vertex -136.1823690153035 2.4551726268844773 23.00000000000001
    vertex -136.18236901530358 2.455172626884481 22.440000000000005
  endloop
endfacet
facet normal 0.08204072522321693 0.9966289778071119 -1.2581255702830078e-14
  outer loop
    vertex -136.1823690153035 2.4551726268844773 23.00000000000001
    vertex -136.62313476682175 2.491455679769086 22.44000000000001
    vertex -136.62313476682175 2.491455679769093 23.00000000000001
  endloop
endfacet
facet normal 0.0 -1.0 0.0
  outer loop
    vertex -135.74163093964563 -0.2654751463948748 23.00000000000001
    vertex -137.2234795289675 -0.2654751463948748 22.440000000000005
    vertex -135.74163093964563 -0.2654751463948748 22.440000000000005
  endloop
endfacet
facet normal 0.0 -1.0 0.0
  outer loop
    vertex -137.2234795289675 -0.2654751463948748 22.440000000000005
    vertex -135.74163093964563 -0.2654751463948748 23.00000000000001
    vertex -137.2234795289675 -0.2654751463948748 23.00000000000001
  endloop
endfacet
facet normal -1.0 0.0 0.0
  outer loop
    vertex -137.2234795289675 0.09727235487030775 23.00000000000001
    vertex -137.2234795289675 -0.2654751463948748 22.440000000000005
    vertex -137.2234795289675 -0.2654751463948748 23.00000000000001
  endloop
endfacet
facet normal -1.0 0.0 0.0
  outer loop
    vertex -137.2234795289675 -0.2654751463948748 22.440000000000005
    vertex -137.2234795289675 0.09727235487030775 23.00000000000001
    vertex -137.2234795289675 0.09727235487030775 22.440000000000005
  endloop
endfacet
facet normal 0.0 1.0 0.0
  outer loop
    vertex -137.2234795289675 0.09727235487030775 23.00000000000001
    vertex -136.7827414533096 0.09727235487030775 22.440000000000005
    vertex -137.2234795289675 0.09727235487030775 22.440000000000005
  endloop
endfacet
facet normal 0.0 1.0 0.0
  outer loop
    vertex -136.7827414533096 0.09727235487030775 22.440000000000005
    vertex -137.2234795289675 0.09727235487030775 23.00000000000001
    vertex -136.7827414533096 0.09727235487030775 23.00000000000001
  endloop
endfacet
facet normal -1.0 9.145530380957184e-15 -2.6856823643312982e-14
  outer loop
    vertex -136.7827414533096 1.3306470702043156 23.00000000000001
    vertex -136.7827414533096 0.09727235487030775 22.440000000000005
    vertex -136.7827414533096 0.09727235487030775 23.00000000000001
  endloop
endfacet
facet normal -1.0 9.145530380957184e-15 -2.6856823643312982e-14
  outer loop
    vertex -136.7827414533096 0.09727235487030775 22.440000000000005
    vertex -136.7827414533096 1.3306470702043156 23.00000000000001
    vertex -136.78274145330957 1.3306470702043134 22.440000000000005
  endloop
endfacet
facet normal 0.9530178499651919 -0.30291414236995123 -2.620349467728556e-14
  outer loop
    vertex -143.26940959602217 0.0977705203561395 22.440000000000005
    vertex -142.5199749743116 2.45561544064966 23.00000000000001
    vertex -143.26940959602214 0.0977705203561374 23.00000000000001
  endloop
endfacet
facet normal 0.9530178499651919 -0.30291414236995123 -2.620349467728556e-14
  outer loop
    vertex -142.5199749743116 2.45561544064966 23.00000000000001
    vertex -143.26940959602217 0.0977705203561395 22.440000000000005
    vertex -142.5199749743116 2.45561544064966 22.440000000000005
  endloop
endfacet
facet normal 0.9917595727289383 -0.12811303563850962 -5.387840833377419e-14
  outer loop
    vertex -143.3202224755768 -0.2955864824272612 22.440000000000005
    vertex -143.26940959602214 0.0977705203561374 23.00000000000001
    vertex -143.3202224755768 -0.2955864824272633 23.00000000000001
  endloop
endfacet
facet normal 0.9917595727289383 -0.12811303563850962 -5.387840833377419e-14
  outer loop
    vertex -143.26940959602214 0.0977705203561374 23.00000000000001
    vertex -143.3202224755768 -0.2955864824272612 22.440000000000005
    vertex -143.26940959602217 0.0977705203561395 22.440000000000005
  endloop
endfacet
facet normal -0.04816759553608761 -0.9988392677204236 -8.908537827283313e-15
  outer loop
    vertex -143.3202224755768 -0.2955864824272633 23.00000000000001
    vertex -143.95898133185207 -0.2647832498867722 22.440000000000005
    vertex -143.3202224755768 -0.2955864824272612 22.440000000000005
  endloop
endfacet
facet normal -0.04816759553608761 -0.9988392677204236 -8.908537827283313e-15
  outer loop
    vertex -143.95898133185207 -0.2647832498867722 22.440000000000005
    vertex -143.3202224755768 -0.2955864824272633 23.00000000000001
    vertex -143.9589813318521 -0.26478324988677715 23.00000000000001
  endloop
endfacet
facet normal -0.9536188912405237 -0.30101662789486333 -5.5415833371447077e-14
  outer loop
    vertex -144.8172927880768 2.4543423510747613 23.00000000000001
    vertex -143.95898133185207 -0.2647832498867722 22.440000000000005
    vertex -143.9589813318521 -0.26478324988677715 23.00000000000001
  endloop
endfacet
facet normal -0.9536188912405237 -0.30101662789486333 -5.5415833371447077e-14
  outer loop
    vertex -143.95898133185207 -0.2647832498867722 22.440000000000005
    vertex -144.8172927880768 2.4543423510747613 23.00000000000001
    vertex -144.81729278807677 2.4543423510747675 22.440000000000005
  endloop
endfacet
facet normal -0.06190754138470747 0.9980818885841487 8.388140971473372e-16
  outer loop
    vertex -144.8172927880768 2.4543423510747613 23.00000000000001
    vertex -144.23277861803632 2.490597728099047 22.44000000000001
    vertex -144.81729278807677 2.4543423510747675 22.440000000000005
  endloop
endfacet
facet normal -0.06190754138470747 0.9980818885841487 8.388140971473372e-16
  outer loop
    vertex -144.23277861803632 2.490597728099047 22.44000000000001
    vertex -144.8172927880768 2.4543423510747613 23.00000000000001
    vertex -144.2327786180363 2.4905977280990528 23.00000000000001
  endloop
endfacet
facet normal 0.9554977752194955 0.2949983077080186 -1.1451186695010792e-15
  outer loop
    vertex -143.7738575021456 1.0041549459634274 22.440000000000005
    vertex -144.2327786180363 2.4905977280990528 23.00000000000001
    vertex -143.77385750214563 1.0041549459634251 23.00000000000001
  endloop
endfacet
facet normal 0.9554977752194955 0.2949983077080186 -1.1451186695010792e-15
  outer loop
    vertex -144.2327786180363 2.4905977280990528 23.00000000000001
    vertex -143.7738575021456 1.0041549459634274 22.440000000000005
    vertex -144.23277861803632 2.490597728099047 22.44000000000001
  endloop
endfacet
facet normal 0.9928131245271113 0.11967497552418609 2.7182163472669897e-14
  outer loop
    vertex -143.67771156338043 0.20653665142901317 22.440000000000005
    vertex -143.77385750214563 1.0041549459634251 23.00000000000001
    vertex -143.67771156338043 0.20653665142901176 23.00000000000001
  endloop
endfacet
facet normal 0.9928131245271113 0.11967497552418609 2.7182163472669897e-14
  outer loop
    vertex -143.77385750214563 1.0041549459634251 23.00000000000001
    vertex -143.67771156338043 0.20653665142901317 22.440000000000005
    vertex -143.7738575021456 1.0041549459634274 22.440000000000005
  endloop
endfacet
facet normal -0.9875832047614546 0.15709682897211918 2.7469265762429923e-14
  outer loop
    vertex -143.55076239207477 1.0045977597286069 23.00000000000001
    vertex -143.67771156338043 0.20653665142901317 22.440000000000005
    vertex -143.67771156338043 0.20653665142901176 23.00000000000001
  endloop
endfacet
facet normal -0.9875832047614546 0.15709682897211918 2.7469265762429923e-14
  outer loop
    vertex -143.67771156338043 0.20653665142901317 22.440000000000005
    vertex -143.55076239207477 1.0045977597286069 23.00000000000001
    vertex -143.5507623920748 1.004597759728611 22.440000000000005
  endloop
endfacet
facet normal -0.9551572746498156 0.29609893732253945 5.40506380334094e-14
  outer loop
    vertex -143.10094663423064 2.45561544064966 23.00000000000001
    vertex -143.5507623920748 1.004597759728611 22.440000000000005
    vertex -143.55076239207477 1.0045977597286069 23.00000000000001
  endloop
endfacet
facet normal -0.9551572746498156 0.29609893732253945 5.40506380334094e-14
  outer loop
    vertex -143.5507623920748 1.004597759728611 22.440000000000005
    vertex -143.10094663423064 2.45561544064966 23.00000000000001
    vertex -143.10094663423067 2.455615440649664 22.440000000000005
  endloop
endfacet
facet normal 3.337042218241494e-15 1.0 4.616016563694326e-15
  outer loop
    vertex -143.10094663423064 2.45561544064966 23.00000000000001
    vertex -142.5199749743116 2.45561544064966 22.440000000000005
    vertex -143.10094663423067 2.455615440649664 22.440000000000005
  endloop
endfacet
facet normal 3.337042218241494e-15 1.0 4.616016563694326e-15
  outer loop
    vertex -142.5199749743116 2.45561544064966 22.440000000000005
    vertex -143.10094663423064 2.45561544064966 23.00000000000001
    vertex -142.5199749743116 2.45561544064966 23.00000000000001
  endloop
endfacet
facet normal 0.0 0.0 1.0
  outer loop
    vertex -143.9589813318521 -0.26478324988677715 23.00000000000001
    vertex -144.2327786180363 2.4905977280990528 23.00000000000001
    vertex -144.8172927880768 2.4543423510747613 23.00000000000001
  endloop
endfacet
facet normal 0.0 0.0 1.0
  outer loop
    vertex -144.2327786180363 2.4905977280990528 23.00000000000001
    vertex -143.9589813318521 -0.26478324988677715 23.00000000000001
    vertex -143.77385750214563 1.0041549459634251 23.00000000000001
  endloop
endfacet
facet normal 0.0 0.0 1.0
  outer loop
    vertex -143.77385750214563 1.0041549459634251 23.00000000000001
    vertex -143.9589813318521 -0.26478324988677715 23.00000000000001
    vertex -143.67771156338043 0.20653665142901176 23.00000000000001
  endloop
endfacet
facet normal 0.0 0.0 1.0
  outer loop
    vertex -143.67771156338043 0.20653665142901176 23.00000000000001
    vertex -143.9589813318521 -0.26478324988677715 23.00000000000001
    vertex -143.3202224755768 -0.2955864824272633 23.00000000000001
  endloop
endfacet
facet normal 0.0 0.0 1.0
  outer loop
    vertex -143.67771156338043 0.20653665142901176 23.00000000000001
    vertex -143.3202224755768 -0.2955864824272633 23.00000000000001
    vertex -143.55076239207477 1.0045977597286069 23.00000000000001
  endloop
endfacet
facet normal 0.0 0.0 1.0
  outer loop
    vertex -143.55076239207477 1.0045977597286069 23.00000000000001
    vertex -143.3202224755768 -0.2955864824272633 23.00000000000001
    vertex -143.10094663423064 2.45561544064966 23.00000000000001
  endloop
endfacet
facet normal 0.0 0.0 1.0
  outer loop
    vertex -143.10094663423064 2.45561544064966 23.00000000000001
    vertex -143.3202224755768 -0.2955864824272633 23.00000000000001
    vertex -143.26940959602214 0.0977705203561374 23.00000000000001
  endloop
endfacet
facet normal 0.0 0.0 1.0
  outer loop
    vertex -143.10094663423064 2.45561544064966 23.00000000000001
    vertex -143.26940959602214 0.0977705203561374 23.00000000000001
    vertex -142.5199749743116 2.45561544064966 23.00000000000001
  endloop
endfacet
facet normal -1.0 0.0 0.0
  outer loop
    vertex -140.90459035892698 0.9832596714188904 23.00000000000001
    vertex -140.90459035892698 -0.2654751463948748 22.440000000000005
    vertex -140.90459035892698 -0.2654751463948748 23.00000000000001
  endloop
endfacet
facet normal -1.0 0.0 0.0
  outer loop
    vertex -140.90459035892698 -0.2654751463948748 22.440000000000005
    vertex -140.90459035892698 0.9832596714188904 23.00000000000001
    vertex -140.90459035892698 0.9832596714188904 22.440000000000005
  endloop
endfacet
facet normal 0.0 -1.0 0.0
  outer loop
    vertex -140.90459035892698 0.9832596714188904 23.00000000000001
    vertex -141.71405392168003 0.9832596714188904 22.440000000000005
    vertex -140.90459035892698 0.9832596714188904 22.440000000000005
  endloop
endfacet
facet normal 0.0 -1.0 0.0
  outer loop
    vertex -141.71405392168003 0.9832596714188904 22.440000000000005
    vertex -140.90459035892698 0.9832596714188904 23.00000000000001
    vertex -141.71405392168003 0.9832596714188904 23.00000000000001
  endloop
endfacet
facet normal 1.0 0.0 0.0
  outer loop
    vertex -141.71405392168003 0.9832596714188904 22.440000000000005
    vertex -141.71405392168003 -0.2654751463948748 23.00000000000001
    vertex -141.71405392168003 -0.2654751463948748 22.440000000000005
  endloop
endfacet
facet normal 1.0 0.0 0.0
  outer loop
    vertex -141.71405392168003 -0.2654751463948748 23.00000000000001
    vertex -141.71405392168003 0.9832596714188904 22.440000000000005
    vertex -141.71405392168003 0.9832596714188904 23.00000000000001
  endloop
endfacet
facet normal 0.0 -1.0 0.0
  outer loop
    vertex -141.71405392168003 -0.2654751463948748 23.00000000000001
    vertex -142.3428494682387 -0.2654751463948748 22.440000000000005
    vertex -141.71405392168003 -0.2654751463948748 22.440000000000005
  endloop
endfacet
facet normal 0.0 -1.0 0.0
  outer loop
    vertex -142.3428494682387 -0.2654751463948748 22.440000000000005
    vertex -141.71405392168003 -0.2654751463948748 23.00000000000001
    vertex -142.3428494682387 -0.2654751463948748 23.00000000000001
  endloop
endfacet
facet normal -1.0 -4.9255620988006284e-15 2.685682364331297e-14
  outer loop
    vertex -142.3428494682387 2.0245915919654496 23.00000000000001
    vertex -142.3428494682387 -0.2654751463948748 22.440000000000005
    vertex -142.3428494682387 -0.2654751463948748 23.00000000000001
  endloop
endfacet
facet normal -1.0 -4.9255620988006284e-15 2.685682364331297e-14
  outer loop
    vertex -142.3428494682387 -0.2654751463948748 22.440000000000005
    vertex -142.3428494682387 2.0245915919654496 23.00000000000001
    vertex -142.34284946823874 2.0245915919654482 22.440000000000005
  endloop
endfacet
facet normal -0.9915544151345637 -0.1296913328914209 2.696633743710501e-14
  outer loop
    vertex -142.3428494682387 2.0245915919654496 23.00000000000001
    vertex -142.39905914055655 2.4543423510747604 22.440000000000005
    vertex -142.34284946823874 2.0245915919654482 22.440000000000005
  endloop
endfacet
facet normal -0.9915544151345637 -0.1296913328914209 2.696633743710501e-14
  outer loop
    vertex -142.39905914055655 2.4543423510747604 22.440000000000005
    vertex -142.3428494682387 2.0245915919654496 23.00000000000001
    vertex -142.39905914055655 2.4543423510747613 23.00000000000001
  endloop
endfacet
facet normal -0.05285317785727853 0.9986022940041681 -8.383608826525417e-16
  outer loop
    vertex -142.39905914055655 2.4543423510747613 23.00000000000001
    vertex -141.71405392168003 2.4905977280990528 22.440000000000005
    vertex -142.39905914055655 2.4543423510747604 22.440000000000005
  endloop
endfacet
facet normal -0.05285317785727853 0.9986022940041681 -8.383608826525417e-16
  outer loop
    vertex -141.71405392168003 2.4905977280990528 22.440000000000005
    vertex -142.39905914055655 2.4543423510747613 23.00000000000001
    vertex -141.71405392168003 2.4905977280990528 23.00000000000001
  endloop
endfacet
facet normal 1.0 0.0 0.0
  outer loop
    vertex -141.71405392168003 2.4905977280990528 22.440000000000005
    vertex -141.71405392168003 1.3959621005686877 23.00000000000001
    vertex -141.71405392168003 1.3959621005686877 22.440000000000005
  endloop
endfacet
facet normal 1.0 0.0 0.0
  outer loop
    vertex -141.71405392168003 1.3959621005686877 23.00000000000001
    vertex -141.71405392168003 2.4905977280990528 22.440000000000005
    vertex -141.71405392168003 2.4905977280990528 23.00000000000001
  endloop
endfacet
facet normal 0.0 1.0 0.0
  outer loop
    vertex -141.71405392168003 1.3959621005686877 23.00000000000001
    vertex -140.90459035892698 1.3959621005686877 22.440000000000005
    vertex -141.71405392168003 1.3959621005686877 22.440000000000005
  endloop
endfacet
facet normal 0.0 1.0 0.0
  outer loop
    vertex -140.90459035892698 1.3959621005686877 22.440000000000005
    vertex -141.71405392168003 1.3959621005686877 23.00000000000001
    vertex -140.90459035892698 1.3959621005686877 23.00000000000001
  endloop
endfacet
facet normal -1.0 0.0 0.0
  outer loop
    vertex -140.90459035892698 2.4543423510747613 23.00000000000001
    vertex -140.90459035892698 1.3959621005686877 22.440000000000005
    vertex -140.90459035892698 1.3959621005686877 23.00000000000001
  endloop
endfacet
facet normal -1.0 0.0 0.0
  outer loop
    vertex -140.90459035892698 1.3959621005686877 22.440000000000005
    vertex -140.90459035892698 2.4543423510747613 23.00000000000001
    vertex -140.90459035892698 2.4543423510747613 22.440000000000005
  endloop
endfacet
facet normal -0.05772491218225018 0.9983325270237124 2.8612276910994973e-18
  outer loop
    vertex -140.90459035892698 2.4543423510747613 23.00000000000001
    vertex -140.277566067429 2.4905977280990528 22.440000000000005
    vertex -140.90459035892698 2.4543423510747613 22.440000000000005
  endloop
endfacet
facet normal -0.05772491218225018 0.9983325270237124 2.8612276910994973e-18
  outer loop
    vertex -140.277566067429 2.4905977280990528 22.440000000000005
    vertex -140.90459035892698 2.4543423510747613 23.00000000000001
    vertex -140.277566067429 2.4905977280990528 23.00000000000001
  endloop
endfacet
facet normal 1.0 0.0 0.0
  outer loop
    vertex -140.277566067429 2.4905977280990528 22.440000000000005
    vertex -140.277566067429 -0.2654751463948748 23.00000000000001
    vertex -140.277566067429 -0.2654751463948748 22.440000000000005
  endloop
endfacet
facet normal 1.0 0.0 0.0
  outer loop
    vertex -140.277566067429 -0.2654751463948748 23.00000000000001
    vertex -140.277566067429 2.4905977280990528 22.440000000000005
    vertex -140.277566067429 2.4905977280990528 23.00000000000001
  endloop
endfacet
facet normal 0.0 -1.0 0.0
  outer loop
    vertex -140.277566067429 -0.2654751463948748 23.00000000000001
    vertex -140.90459035892698 -0.2654751463948748 22.440000000000005
    vertex -140.277566067429 -0.2654751463948748 22.440000000000005
  endloop
endfacet
facet normal 0.0 -1.0 0.0
  outer loop
    vertex -140.90459035892698 -0.2654751463948748 22.440000000000005
    vertex -140.277566067429 -0.2654751463948748 23.00000000000001
    vertex -140.90459035892698 -0.2654751463948748 23.00000000000001
  endloop
endfacet
facet normal 0.0 0.0 1.0
  outer loop
    vertex -141.71405392168003 -0.2654751463948748 23.00000000000001
    vertex -142.3428494682387 2.0245915919654496 23.00000000000001
    vertex -142.3428494682387 -0.2654751463948748 23.00000000000001
  endloop
endfacet
facet normal 0.0 0.0 1.0
  outer loop
    vertex -140.277566067429 -0.2654751463948748 23.00000000000001
    vertex -140.90459035892698 0.9832596714188904 23.00000000000001
    vertex -140.90459035892698 -0.2654751463948748 23.00000000000001
  endloop
endfacet
facet normal 0.0 0.0 1.0
  outer loop
    vertex -140.90459035892698 0.9832596714188904 23.00000000000001
    vertex -140.277566067429 -0.2654751463948748 23.00000000000001
    vertex -140.90459035892698 1.3959621005686877 23.00000000000001
  endloop
endfacet
facet normal 0.0 0.0 1.0
  outer loop
    vertex -140.90459035892698 1.3959621005686877 23.00000000000001
    vertex -140.277566067429 -0.2654751463948748 23.00000000000001
    vertex -140.90459035892698 2.4543423510747613 23.00000000000001
  endloop
endfacet
facet normal 0.0 0.0 1.0
  outer loop
    vertex -140.90459035892698 2.4543423510747613 23.00000000000001
    vertex -140.277566067429 -0.2654751463948748 23.00000000000001
    vertex -140.277566067429 2.4905977280990528 23.00000000000001
  endloop
endfacet
facet normal 0.0 0.0 1.0
  outer loop
    vertex -140.90459035892698 0.9832596714188904 23.00000000000001
    vertex -141.71405392168003 1.3959621005686877 23.00000000000001
    vertex -141.71405392168003 0.9832596714188904 23.00000000000001
  endloop
endfacet
facet normal 0.0 0.0 1.0
  outer loop
    vertex -141.71405392168003 1.3959621005686877 23.00000000000001
    vertex -140.90459035892698 0.9832596714188904 23.00000000000001
    vertex -140.90459035892698 1.3959621005686877 23.00000000000001
  endloop
endfacet
facet normal 0.0 0.0 1.0
  outer loop
    vertex -142.3428494682387 2.0245915919654496 23.00000000000001
    vertex -141.71405392168003 2.4905977280990528 23.00000000000001
    vertex -142.39905914055655 2.4543423510747613 23.00000000000001
  endloop
endfacet
facet normal 0.0 0.0 1.0
  outer loop
    vertex -141.71405392168003 2.4905977280990528 23.00000000000001
    vertex -142.3428494682387 2.0245915919654496 23.00000000000001
    vertex -141.71405392168003 -0.2654751463948748 23.00000000000001
  endloop
endfacet
facet normal 0.0 0.0 1.0
  outer loop
    vertex -141.71405392168003 2.4905977280990528 23.00000000000001
    vertex -141.71405392168003 -0.2654751463948748 23.00000000000001
    vertex -141.71405392168003 0.9832596714188904 23.00000000000001
  endloop
endfacet
facet normal 0.0 0.0 1.0
  outer loop
    vertex -141.71405392168003 2.4905977280990528 23.00000000000001
    vertex -141.71405392168003 0.9832596714188904 23.00000000000001
    vertex -141.71405392168003 1.3959621005686877 23.00000000000001
  endloop
endfacet
facet normal 0.0 -1.0 0.0
  outer loop
    vertex -139.1297927880768 -0.2654751463948748 23.00000000000001
    vertex -139.7656733548784 -0.2654751463948748 22.440000000000005
    vertex -139.1297927880768 -0.2654751463948748 22.440000000000005
  endloop
endfacet
facet normal 0.0 -1.0 0.0
  outer loop
    vertex -139.7656733548784 -0.2654751463948748 22.440000000000005
    vertex -139.1297927880768 -0.2654751463948748 23.00000000000001
    vertex -139.7656733548784 -0.2654751463948748 23.00000000000001
  endloop
endfacet
facet normal -1.0 -4.92401490150482e-15 2.685682364331298e-14
  outer loop
    vertex -139.7656733548784 2.0253111643338704 23.00000000000001
    vertex -139.7656733548784 -0.2654751463948748 22.440000000000005
    vertex -139.7656733548784 -0.2654751463948748 23.00000000000001
  endloop
endfacet
facet normal -1.0 -4.92401490150482e-15 2.685682364331298e-14
  outer loop
    vertex -139.7656733548784 -0.2654751463948748 22.440000000000005
    vertex -139.7656733548784 2.0253111643338704 23.00000000000001
    vertex -139.76567335487843 2.0253111643338673 22.440000000000005
  endloop
endfacet
facet normal -0.9892683397932424 -0.14611006769802773 5.3937962375261394e-14
  outer loop
    vertex -139.7656733548784 2.0253111643338704 23.00000000000001
    vertex -139.8291617784614 2.4551726268844756 22.440000000000005
    vertex -139.76567335487843 2.0253111643338673 22.440000000000005
  endloop
endfacet
facet normal -0.9892683397932424 -0.14611006769802773 5.3937962375261394e-14
  outer loop
    vertex -139.8291617784614 2.4551726268844756 22.440000000000005
    vertex -139.7656733548784 2.0253111643338704 23.00000000000001
    vertex -139.8291617784614 2.4551726268844773 23.00000000000001
  endloop
endfacet
facet normal -1.9399549219552407e-16 1.0 -4.19637869426765e-15
  outer loop
    vertex -139.8291617784614 2.4551726268844773 23.00000000000001
    vertex -138.01213084475694 2.455172626884476 22.440000000000005
    vertex -139.8291617784614 2.4551726268844756 22.440000000000005
  endloop
endfacet
facet normal -1.9399549219552407e-16 1.0 -4.19637869426765e-15
  outer loop
    vertex -138.01213084475694 2.455172626884476 22.440000000000005
    vertex -139.8291617784614 2.4551726268844773 23.00000000000001
    vertex -138.01213084475694 2.4551726268844773 23.00000000000001
  endloop
endfacet
facet normal 0.9930291603427952 -0.11786893869414161 5.3868537752899286e-14
  outer loop
    vertex -138.01213084475694 2.455172626884476 22.440000000000005
    vertex -138.06111711753024 2.0424701977346804 23.00000000000001
    vertex -138.06111711753022 2.042470197734678 22.440000000000005
  endloop
endfacet
facet normal 0.9930291603427952 -0.11786893869414161 5.3868537752899286e-14
  outer loop
    vertex -138.06111711753024 2.0424701977346804 23.00000000000001
    vertex -138.01213084475694 2.455172626884476 22.440000000000005
    vertex -138.01213084475694 2.4551726268844773 23.00000000000001
  endloop
endfacet
facet normal -2.7340690047008983e-15 -1.0 -1.258913608280442e-15
  outer loop
    vertex -138.06111711753024 2.0424701977346804 23.00000000000001
    vertex -139.15699815877517 2.042470197734684 22.440000000000005
    vertex -138.06111711753022 2.042470197734678 22.440000000000005
  endloop
endfacet
facet normal -2.7340690047008983e-15 -1.0 -1.258913608280442e-15
  outer loop
    vertex -139.15699815877517 2.042470197734684 22.440000000000005
    vertex -138.06111711753024 2.0424701977346804 23.00000000000001
    vertex -139.1569981587752 2.0424701977346804 23.00000000000001
  endloop
endfacet
facet normal 0.9941590688690796 0.10792472277177617 2.7332852322032178e-14
  outer loop
    vertex -139.1297927880768 1.791865282501888 22.440000000000005
    vertex -139.1569981587752 2.0424701977346804 23.00000000000001
    vertex -139.1297927880768 1.7918652825018866 23.00000000000001
  endloop
endfacet
facet normal 0.9941590688690796 0.10792472277177617 2.7332852322032178e-14
  outer loop
    vertex -139.1569981587752 2.0424701977346804 23.00000000000001
    vertex -139.1297927880768 1.791865282501888 22.440000000000005
    vertex -139.15699815877517 2.042470197734684 22.440000000000005
  endloop
endfacet
facet normal 1.0 0.0 0.0
  outer loop
    vertex -139.1297927880768 1.791865282501888 22.440000000000005
    vertex -139.1297927880768 1.3959621005686877 23.00000000000001
    vertex -139.1297927880768 1.3959621005686877 22.440000000000005
  endloop
endfacet
facet normal 1.0 0.0 0.0
  outer loop
    vertex -139.1297927880768 1.3959621005686877 23.00000000000001
    vertex -139.1297927880768 1.791865282501888 22.440000000000005
    vertex -139.1297927880768 1.7918652825018866 23.00000000000001
  endloop
endfacet
facet normal 0.0 1.0 0.0
  outer loop
    vertex -139.1297927880768 1.3959621005686877 23.00000000000001
    vertex -138.19811262613348 1.3959621005686877 22.440000000000005
    vertex -139.1297927880768 1.3959621005686877 22.440000000000005
  endloop
endfacet
facet normal 0.0 1.0 0.0
  outer loop
    vertex -138.19811262613348 1.3959621005686877 22.440000000000005
    vertex -139.1297927880768 1.3959621005686877 23.00000000000001
    vertex -138.19811262613348 1.3959621005686877 23.00000000000001
  endloop
endfacet
facet normal 1.0 0.0 0.0
  outer loop
    vertex -138.19811262613348 1.3959621005686877 22.440000000000005
    vertex -138.19811262613348 1.0098284973298222 23.00000000000001
    vertex -138.19811262613348 1.0098284973298222 22.440000000000005
  endloop
endfacet
facet normal 1.0 0.0 0.0
  outer loop
    vertex -138.19811262613348 1.0098284973298222 23.00000000000001
    vertex -138.19811262613348 1.3959621005686877 22.440000000000005
    vertex -138.19811262613348 1.3959621005686877 23.00000000000001
  endloop
endfacet
facet normal 0.0 -1.0 0.0
  outer loop
    vertex -138.19811262613348 1.0098284973298222 23.00000000000001
    vertex -139.1297927880768 1.0098284973298222 22.440000000000005
    vertex -138.19811262613348 1.0098284973298222 22.440000000000005
  endloop
endfacet
facet normal 0.0 -1.0 0.0
  outer loop
    vertex -139.1297927880768 1.0098284973298222 22.440000000000005
    vertex -138.19811262613348 1.0098284973298222 23.00000000000001
    vertex -139.1297927880768 1.0098284973298222 23.00000000000001
  endloop
endfacet
facet normal 1.0 0.0 0.0
  outer loop
    vertex -139.1297927880768 1.0098284973298222 22.440000000000005
    vertex -139.1297927880768 -0.2654751463948748 23.00000000000001
    vertex -139.1297927880768 -0.2654751463948748 22.440000000000005
  endloop
endfacet
facet normal 1.0 0.0 0.0
  outer loop
    vertex -139.1297927880768 -0.2654751463948748 23.00000000000001
    vertex -139.1297927880768 1.0098284973298222 22.440000000000005
    vertex -139.1297927880768 1.0098284973298222 23.00000000000001
  endloop
endfacet
facet normal 0.0 0.0 1.0
  outer loop
    vertex -138.19811262613348 1.0098284973298222 23.00000000000001
    vertex -139.1297927880768 1.3959621005686877 23.00000000000001
    vertex -139.1297927880768 1.0098284973298222 23.00000000000001
  endloop
endfacet
facet normal 0.0 0.0 1.0
  outer loop
    vertex -139.1297927880768 1.3959621005686877 23.00000000000001
    vertex -138.19811262613348 1.0098284973298222 23.00000000000001
    vertex -138.19811262613348 1.3959621005686877 23.00000000000001
  endloop
endfacet
facet normal 0.0 0.0 1.0
  outer loop
    vertex -139.1297927880768 -0.2654751463948748 23.00000000000001
    vertex -139.7656733548784 2.0253111643338704 23.00000000000001
    vertex -139.7656733548784 -0.2654751463948748 23.00000000000001
  endloop
endfacet
facet normal 0.0 0.0 1.0
  outer loop
    vertex -139.7656733548784 2.0253111643338704 23.00000000000001
    vertex -139.1297927880768 -0.2654751463948748 23.00000000000001
    vertex -139.1569981587752 2.0424701977346804 23.00000000000001
  endloop
endfacet
facet normal 0.0 0.0 1.0
  outer loop
    vertex -139.1569981587752 2.0424701977346804 23.00000000000001
    vertex -139.1297927880768 -0.2654751463948748 23.00000000000001
    vertex -139.1297927880768 1.7918652825018866 23.00000000000001
  endloop
endfacet
facet normal 0.0 0.0 1.0
  outer loop
    vertex -139.1297927880768 1.7918652825018866 23.00000000000001
    vertex -139.1297927880768 -0.2654751463948748 23.00000000000001
    vertex -139.1297927880768 1.0098284973298222 23.00000000000001
  endloop
endfacet
facet normal 0.0 0.0 1.0
  outer loop
    vertex -139.1297927880768 1.7918652825018866 23.00000000000001
    vertex -139.1297927880768 1.0098284973298222 23.00000000000001
    vertex -139.1297927880768 1.3959621005686877 23.00000000000001
  endloop
endfacet
facet normal 0.0 0.0 1.0
  outer loop
    vertex -139.7656733548784 2.0253111643338704 23.00000000000001
    vertex -138.01213084475694 2.4551726268844773 23.00000000000001
    vertex -139.8291617784614 2.4551726268844773 23.00000000000001
  endloop
endfacet
facet normal 0.0 0.0 1.0
  outer loop
    vertex -138.01213084475694 2.4551726268844773 23.00000000000001
    vertex -139.7656733548784 2.0253111643338704 23.00000000000001
    vertex -139.1569981587752 2.0424701977346804 23.00000000000001
  endloop
endfacet
facet normal 0.0 0.0 1.0
  outer loop
    vertex -138.01213084475694 2.4551726268844773 23.00000000000001
    vertex -139.1569981587752 2.0424701977346804 23.00000000000001
    vertex -138.06111711753024 2.0424701977346804 23.00000000000001
  endloop
endfacet
endsolid RMP_Front
