solid RMP_Front
facet normal -0.057724912182247935 0.9983325270237126 0.0
  outer loop
    vertex -109.20326633697495 -6.011301096285632 23.14000000000001
    vertex -108.57624204547696 -5.975045719261343 23.00000000000001
    vertex -109.20326633697495 -6.011301096285632 23.00000000000001
  endloop
endfacet
facet normal -0.057724912182247935 0.9983325270237126 0.0
  outer loop
    vertex -108.57624204547696 -5.975045719261343 23.00000000000001
    vertex -109.20326633697495 -6.011301096285632 23.14000000000001
    vertex -108.57624204547696 -5.975045719261343 23.14000000000001
  endloop
endfacet
facet normal 0.0 -1.0 0.0
  outer loop
    vertex -110.012729899728 -8.73111859375527 23.14000000000001
    vertex -110.64152544628668 -8.73111859375527 23.00000000000001
    vertex -110.012729899728 -8.73111859375527 23.00000000000001
  endloop
endfacet
facet normal 0.0 -1.0 0.0
  outer loop
    vertex -110.64152544628668 -8.73111859375527 23.00000000000001
    vertex -110.012729899728 -8.73111859375527 23.14000000000001
    vertex -110.64152544628668 -8.73111859375527 23.14000000000001
  endloop
endfacet
facet normal -0.9915544151345604 -0.12969133289144605 0.0
  outer loop
    vertex -110.6977351186045 -6.011301096285632 23.14000000000001
    vertex -110.64152544628668 -6.441051855394946 23.00000000000001
    vertex -110.64152544628668 -6.441051855394946 23.14000000000001
  endloop
endfacet
facet normal -0.9915544151345604 -0.12969133289144605 0.0
  outer loop
    vertex -110.64152544628668 -6.441051855394946 23.00000000000001
    vertex -110.6977351186045 -6.011301096285632 23.14000000000001
    vertex -110.6977351186045 -6.011301096285632 23.00000000000001
  endloop
endfacet
facet normal 1.0 0.0 0.0
  outer loop
    vertex -108.57624204547696 -5.975045719261343 23.00000000000001
    vertex -108.57624204547696 -8.73111859375527 23.14000000000001
    vertex -108.57624204547696 -8.73111859375527 23.00000000000001
  endloop
endfacet
facet normal 1.0 0.0 0.0
  outer loop
    vertex -108.57624204547696 -8.73111859375527 23.14000000000001
    vertex -108.57624204547696 -5.975045719261343 23.00000000000001
    vertex -108.57624204547696 -5.975045719261343 23.14000000000001
  endloop
endfacet
facet normal 0.0 1.0 0.0
  outer loop
    vertex -110.012729899728 -7.069681346791708 23.14000000000001
    vertex -109.20326633697495 -7.069681346791708 23.00000000000001
    vertex -110.012729899728 -7.069681346791708 23.00000000000001
  endloop
endfacet
facet normal 0.0 1.0 0.0
  outer loop
    vertex -109.20326633697495 -7.069681346791708 23.00000000000001
    vertex -110.012729899728 -7.069681346791708 23.14000000000001
    vertex -109.20326633697495 -7.069681346791708 23.14000000000001
  endloop
endfacet
facet normal -1.0 0.0 0.0
  outer loop
    vertex -110.64152544628668 -6.441051855394946 23.14000000000001
    vertex -110.64152544628668 -8.73111859375527 23.00000000000001
    vertex -110.64152544628668 -8.73111859375527 23.14000000000001
  endloop
endfacet
facet normal -1.0 0.0 0.0
  outer loop
    vertex -110.64152544628668 -8.73111859375527 23.00000000000001
    vertex -110.64152544628668 -6.441051855394946 23.14000000000001
    vertex -110.64152544628668 -6.441051855394946 23.00000000000001
  endloop
endfacet
facet normal 1.0 0.0 0.0
  outer loop
    vertex -110.012729899728 -5.975045719261343 23.00000000000001
    vertex -110.012729899728 -7.069681346791708 23.14000000000001
    vertex -110.012729899728 -7.069681346791708 23.00000000000001
  endloop
endfacet
facet normal 1.0 0.0 0.0
  outer loop
    vertex -110.012729899728 -7.069681346791708 23.14000000000001
    vertex -110.012729899728 -5.975045719261343 23.00000000000001
    vertex -110.012729899728 -5.975045719261343 23.14000000000001
  endloop
endfacet
facet normal 0.0 -1.0 0.0
  outer loop
    vertex -109.20326633697495 -7.482383775941504 23.14000000000001
    vertex -110.012729899728 -7.482383775941504 23.00000000000001
    vertex -109.20326633697495 -7.482383775941504 23.00000000000001
  endloop
endfacet
facet normal 0.0 -1.0 0.0
  outer loop
    vertex -110.012729899728 -7.482383775941504 23.00000000000001
    vertex -109.20326633697495 -7.482383775941504 23.14000000000001
    vertex -110.012729899728 -7.482383775941504 23.14000000000001
  endloop
endfacet
facet normal 1.0 0.0 0.0
  outer loop
    vertex -110.012729899728 -7.482383775941504 23.00000000000001
    vertex -110.012729899728 -8.73111859375527 23.14000000000001
    vertex -110.012729899728 -8.73111859375527 23.00000000000001
  endloop
endfacet
facet normal 1.0 0.0 0.0
  outer loop
    vertex -110.012729899728 -8.73111859375527 23.14000000000001
    vertex -110.012729899728 -7.482383775941504 23.00000000000001
    vertex -110.012729899728 -7.482383775941504 23.14000000000001
  endloop
endfacet
facet normal -0.05285317785727596 0.9986022940041683 0.0
  outer loop
    vertex -110.6977351186045 -6.011301096285632 23.14000000000001
    vertex -110.012729899728 -5.975045719261343 23.00000000000001
    vertex -110.6977351186045 -6.011301096285632 23.00000000000001
  endloop
endfacet
facet normal -0.05285317785727596 0.9986022940041683 0.0
  outer loop
    vertex -110.012729899728 -5.975045719261343 23.00000000000001
    vertex -110.6977351186045 -6.011301096285632 23.14000000000001
    vertex -110.012729899728 -5.975045719261343 23.14000000000001
  endloop
endfacet
facet normal 1.101236183753694e-31 -5.893296825878013e-31 1.0
  outer loop
    vertex -104.03488244907011 -8.73111859375527 23.14000000000001
    vertex -105.86677531976848 -8.386498781002233 23.14000000000001
    vertex -105.86677531976848 -8.73111859375527 23.14000000000001
  endloop
endfacet
facet normal 1.101236183753694e-31 -5.893296825878013e-31 1.0
  outer loop
    vertex -105.86677531976848 -8.386498781002233 23.14000000000001
    vertex -104.03488244907011 -8.73111859375527 23.14000000000001
    vertex -105.1993165963373 -8.368371092490086 23.14000000000001
  endloop
endfacet
facet normal 1.101236183753694e-31 -5.893296825878013e-31 1.0
  outer loop
    vertex -105.86677531976848 -8.386498781002233 23.14000000000001
    vertex -105.1993165963373 -8.368371092490086 23.14000000000001
    vertex -105.66998611493547 -8.104454088441504 23.14000000000001
  endloop
endfacet
facet normal 1.101236183753694e-31 -5.893296825878013e-31 1.0
  outer loop
    vertex -105.66998611493547 -8.104454088441504 23.14000000000001
    vertex -105.1993165963373 -8.368371092490086 23.14000000000001
    vertex -105.44053939492031 -7.814258855015391 23.14000000000001
  endloop
endfacet
facet normal 1.101236183753694e-31 -5.893296825878013e-31 1.0
  outer loop
    vertex -105.44053939492031 -7.814258855015391 23.14000000000001
    vertex -105.1993165963373 -8.368371092490086 23.14000000000001
    vertex -105.2101932094446 -7.544917382343325 23.14000000000001
  endloop
endfacet
facet normal 1.101236183753694e-31 -5.893296825878013e-31 1.0
  outer loop
    vertex -105.1993165963373 -8.368371092490086 23.14000000000001
    vertex -104.03488244907011 -8.73111859375527 23.14000000000001
    vertex -104.03488244907011 -8.368371092490086 23.14000000000001
  endloop
endfacet
facet normal 1.101236183753694e-31 -5.893296825878013e-31 1.0
  outer loop
    vertex -105.1993165963373 -8.368371092490086 23.14000000000001
    vertex -105.01250453915107 -7.325461647905068 23.14000000000001
    vertex -105.2101932094446 -7.544917382343325 23.14000000000001
  endloop
endfacet
facet normal 1.101236183753694e-31 -5.893296825878013e-31 1.0
  outer loop
    vertex -105.01250453915107 -7.325461647905068 23.14000000000001
    vertex -105.1993165963373 -8.368371092490086 23.14000000000001
    vertex -105.08776904130187 -8.22689209451438 23.14000000000001
  endloop
endfacet
facet normal 1.101236183753694e-31 -5.893296825878013e-31 1.0
  outer loop
    vertex -105.01250453915107 -7.325461647905068 23.14000000000001
    vertex -105.08776904130187 -8.22689209451438 23.14000000000001
    vertex -104.92816235481402 -8.040080037328146 23.14000000000001
  endloop
endfacet
facet normal 1.101236183753694e-31 -5.893296825878013e-31 1.0
  outer loop
    vertex -105.01250453915107 -7.325461647905068 23.14000000000001
    vertex -104.92816235481402 -8.040080037328146 23.14000000000001
    vertex -104.84563293932818 -7.147713434974906 23.14000000000001
  endloop
endfacet
facet normal 1.101236183753694e-31 -5.893296825878013e-31 1.0
  outer loop
    vertex -104.84563293932818 -7.147713434974906 23.14000000000001
    vertex -104.92816235481402 -8.040080037328146 23.14000000000001
    vertex -104.74314922854884 -7.826048771513366 23.14000000000001
  endloop
endfacet
facet normal 1.101236183753694e-31 -5.893296825878013e-31 1.0
  outer loop
    vertex -104.84563293932818 -7.147713434974906 23.14000000000001
    vertex -104.74314922854884 -7.826048771513366 23.14000000000001
    vertex -104.73498484975329 -7.013485512404055 23.14000000000001
  endloop
endfacet
facet normal 1.101236183753694e-31 -5.893296825878013e-31 1.0
  outer loop
    vertex -104.73498484975329 -7.013485512404055 23.14000000000001
    vertex -104.74314922854884 -7.826048771513366 23.14000000000001
    vertex -104.55541003004176 -7.604766430293733 23.14000000000001
  endloop
endfacet
facet normal 1.101236183753694e-31 -5.893296825878013e-31 1.0
  outer loop
    vertex -104.73498484975329 -7.013485512404055 23.14000000000001
    vertex -104.55541003004176 -7.604766430293733 23.14000000000001
    vertex -104.67422249841219 -6.889234737479966 23.14000000000001
  endloop
endfacet
facet normal 1.101236183753694e-31 -5.893296825878013e-31 1.0
  outer loop
    vertex -104.67422249841219 -6.889234737479966 23.14000000000001
    vertex -104.55541003004176 -7.604766430293733 23.14000000000001
    vertex -104.65518150650936 -6.741417967490088 23.14000000000001
  endloop
endfacet
facet normal 1.101236183753694e-31 -5.893296825878013e-31 1.0
  outer loop
    vertex -104.65518150650936 -6.741417967490088 23.14000000000001
    vertex -104.55541003004176 -7.604766430293733 23.14000000000001
    vertex -104.58081646981908 -6.04765333882106 23.14000000000001
  endloop
endfacet
facet normal 1.101236183753694e-31 -5.893296825878013e-31 1.0
  outer loop
    vertex -104.58081646981908 -6.04765333882106 23.14000000000001
    vertex -104.55541003004176 -7.604766430293733 23.14000000000001
    vertex -104.43185461110829 -6.126321971791706 23.14000000000001
  endloop
endfacet
facet normal 1.101236183753694e-31 -5.893296825878013e-31 1.0
  outer loop
    vertex -104.43185461110829 -6.126321971791706 23.14000000000001
    vertex -104.55541003004176 -7.604766430293733 23.14000000000001
    vertex -104.37948842389297 -7.3980000778139745 23.14000000000001
  endloop
endfacet
facet normal 1.101236183753694e-31 -5.893296825878013e-31 1.0
  outer loop
    vertex -104.43185461110829 -6.126321971791706 23.14000000000001
    vertex -104.37948842389297 -7.3980000778139745 23.14000000000001
    vertex -104.30783562151443 -6.226301017211748 23.14000000000001
  endloop
endfacet
facet normal 1.101236183753694e-31 -5.893296825878013e-31 1.0
  outer loop
    vertex -104.30783562151443 -6.226301017211748 23.14000000000001
    vertex -104.37948842389297 -7.3980000778139745 23.14000000000001
    vertex -104.22713281280998 -7.201210872980979 23.14000000000001
  endloop
endfacet
facet normal 1.101236183753694e-31 -5.893296825878013e-31 1.0
  outer loop
    vertex -104.30783562151443 -6.226301017211748 23.14000000000001
    vertex -104.22713281280998 -7.201210872980979 23.14000000000001
    vertex -104.20966588546305 -6.344421589074095 23.14000000000001
  endloop
endfacet
facet normal 1.101236183753694e-31 -5.893296825878013e-31 1.0
  outer loop
    vertex -104.20966588546305 -6.344421589074095 23.14000000000001
    vertex -104.22713281280998 -7.201210872980979 23.14000000000001
    vertex -104.12012409886766 -6.995343985961748 23.14000000000001
  endloop
endfacet
facet normal 1.101236183753694e-31 -5.893296825878013e-31 1.0
  outer loop
    vertex -104.20966588546305 -6.344421589074095 23.14000000000001
    vertex -104.12012409886766 -6.995343985961748 23.14000000000001
    vertex -104.1382517873798 -6.477514801371667 23.14000000000001
  endloop
endfacet
facet normal 1.101236183753694e-31 -5.893296825878013e-31 1.0
  outer loop
    vertex -104.1382517873798 -6.477514801371667 23.14000000000001
    vertex -104.12012409886766 -6.995343985961748 23.14000000000001
    vertex -104.09472457805542 -6.618768932982243 23.14000000000001
  endloop
endfacet
facet normal 1.101236183753694e-31 -5.893296825878013e-31 1.0
  outer loop
    vertex -104.09472457805542 -6.618768932982243 23.14000000000001
    vertex -104.12012409886766 -6.995343985961748 23.14000000000001
    vertex -104.08021550828062 -6.76137226278361 23.14000000000001
  endloop
endfacet
facet normal 1.101236183753694e-31 -5.893296825878013e-31 1.0
  outer loop
    vertex -105.43691385721787 -6.743244574271463 23.14000000000001
    vertex -105.72439685633225 -6.335136337935432 23.14000000000001
    vertex -105.85952424436361 -6.585436818704661 23.14000000000001
  endloop
endfacet
facet normal 1.101236183753694e-31 -5.893296825878013e-31 1.0
  outer loop
    vertex -105.72439685633225 -6.335136337935432 23.14000000000001
    vertex -105.43691385721787 -6.743244574271463 23.14000000000001
    vertex -105.52760765149924 -6.14378543965608 23.14000000000001
  endloop
endfacet
facet normal 1.101236183753694e-31 -5.893296825878013e-31 1.0
  outer loop
    vertex -105.52760765149924 -6.14378543965608 23.14000000000001
    vertex -105.43691385721787 -6.743244574271463 23.14000000000001
    vertex -105.26914279193447 -6.022260736973892 23.14000000000001
  endloop
endfacet
facet normal 1.101236183753694e-31 -5.893296825878013e-31 1.0
  outer loop
    vertex -105.26914279193447 -6.022260736973892 23.14000000000001
    vertex -105.43691385721787 -6.743244574271463 23.14000000000001
    vertex -105.34350090965968 -6.5904219330455005 23.14000000000001
  endloop
endfacet
facet normal 1.101236183753694e-31 -5.893296825878013e-31 1.0
  outer loop
    vertex -105.26914279193447 -6.022260736973892 23.14000000000001
    vertex -105.34350090965968 -6.5904219330455005 23.14000000000001
    vertex -105.23739858014297 -6.47297596027855 23.14000000000001
  endloop
endfacet
facet normal 1.101236183753694e-31 -5.893296825878013e-31 1.0
  outer loop
    vertex -105.26914279193447 -6.022260736973892 23.14000000000001
    vertex -105.23739858014297 -6.47297596027855 23.14000000000001
    vertex -104.94901611556807 -5.979639912075107 23.14000000000001
  endloop
endfacet
facet normal 1.101236183753694e-31 -5.893296825878013e-31 1.0
  outer loop
    vertex -104.94901611556807 -5.979639912075107 23.14000000000001
    vertex -105.23739858014297 -6.47297596027855 23.14000000000001
    vertex -105.11588079642587 -6.398157731375462 23.14000000000001
  endloop
endfacet
facet normal 1.101236183753694e-31 -5.893296825878013e-31 1.0
  outer loop
    vertex -104.94901611556807 -5.979639912075107 23.14000000000001
    vertex -105.11588079642587 -6.398157731375462 23.14000000000001
    vertex -104.97622148626644 -6.373218321741099 23.14000000000001
  endloop
endfacet
facet normal 1.101236183753694e-31 -5.893296825878013e-31 1.0
  outer loop
    vertex -104.94901611556807 -5.979639912075107 23.14000000000001
    vertex -104.97622148626644 -6.373218321741099 23.14000000000001
    vertex -104.84380633254682 -6.404962533532598 23.14000000000001
  endloop
endfacet
facet normal 1.101236183753694e-31 -5.893296825878013e-31 1.0
  outer loop
    vertex -104.94901611556807 -5.979639912075107 23.14000000000001
    vertex -104.84380633254682 -6.404962533532598 23.14000000000001
    vertex -104.75358302789094 -5.996643268761596 23.14000000000001
  endloop
endfacet
facet normal 1.101236183753694e-31 -5.893296825878013e-31 1.0
  outer loop
    vertex -104.75358302789094 -5.996643268761596 23.14000000000001
    vertex -104.84380633254682 -6.404962533532598 23.14000000000001
    vertex -104.74223592515816 -6.489304717869643 23.14000000000001
  endloop
endfacet
facet normal 1.101236183753694e-31 -5.893296825878013e-31 1.0
  outer loop
    vertex -104.75358302789094 -5.996643268761596 23.14000000000001
    vertex -104.74223592515816 -6.489304717869643 23.14000000000001
    vertex -104.58081646981908 -6.04765333882106 23.14000000000001
  endloop
endfacet
facet normal 1.101236183753694e-31 -5.893296825878013e-31 1.0
  outer loop
    vertex -104.58081646981908 -6.04765333882106 23.14000000000001
    vertex -104.74223592515816 -6.489304717869643 23.14000000000001
    vertex -104.67784803611463 -6.608103348309925 23.14000000000001
  endloop
endfacet
facet normal 1.101236183753694e-31 -5.893296825878013e-31 1.0
  outer loop
    vertex -104.58081646981908 -6.04765333882106 23.14000000000001
    vertex -104.67784803611463 -6.608103348309925 23.14000000000001
    vertex -104.65518150650936 -6.741417967490088 23.14000000000001
  endloop
endfacet
facet normal -1.0 0.0 0.0
  outer loop
    vertex -109.20326633697495 -6.011301096285632 23.14000000000001
    vertex -109.20326633697495 -7.069681346791708 23.00000000000001
    vertex -109.20326633697495 -7.069681346791708 23.14000000000001
  endloop
endfacet
facet normal -1.0 0.0 0.0
  outer loop
    vertex -109.20326633697495 -7.069681346791708 23.00000000000001
    vertex -109.20326633697495 -6.011301096285632 23.14000000000001
    vertex -109.20326633697495 -6.011301096285632 23.00000000000001
  endloop
endfacet
facet normal -1.0 0.0 1.1012361837536942e-31
  outer loop
    vertex -105.86677531976848 -8.386498781002233 23.14000000000001
    vertex -105.86677531976848 -8.73111859375527 23.00000000000001
    vertex -105.86677531976848 -8.73111859375527 23.14000000000001
  endloop
endfacet
facet normal -1.0 0.0 1.1012361837536942e-31
  outer loop
    vertex -105.86677531976848 -8.73111859375527 23.00000000000001
    vertex -105.86677531976848 -8.386498781002233 23.14000000000001
    vertex -105.86677531976848 -8.386498781002233 23.00000000000001
  endloop
endfacet
facet normal -0.7716270408947609 0.6360752390716017 4.598323805236371e-31
  outer loop
    vertex -104.73498484975329 -7.013485512404055 23.14000000000001
    vertex -104.84563293932818 -7.147713434974906 23.00000000000001
    vertex -104.84563293932818 -7.147713434974906 23.14000000000001
  endloop
endfacet
facet normal -0.7716270408947609 0.6360752390716017 4.598323805236371e-31
  outer loop
    vertex -104.84563293932818 -7.147713434974906 23.00000000000001
    vertex -104.73498484975329 -7.013485512404055 23.14000000000001
    vertex -104.73498484975329 -7.013485512404055 23.00000000000001
  endloop
endfacet
facet normal -0.7429935585049052 0.6692985671732893 4.762586512408567e-31
  outer loop
    vertex -105.01250453915107 -7.325461647905068 23.14000000000001
    vertex -105.2101932094446 -7.544917382343325 23.00000000000001
    vertex -105.2101932094446 -7.544917382343325 23.14000000000001
  endloop
endfacet
facet normal -0.7429935585049052 0.6692985671732893 4.762586512408567e-31
  outer loop
    vertex -105.2101932094446 -7.544917382343325 23.00000000000001
    vertex -105.01250453915107 -7.325461647905068 23.14000000000001
    vertex -105.01250453915107 -7.325461647905068 23.00000000000001
  endloop
endfacet
facet normal -0.8799566476267304 0.4750539951390014 3.7686743021745006e-31
  outer loop
    vertex -105.72439685633225 -6.335136337935432 23.14000000000001
    vertex -105.85952424436361 -6.585436818704661 23.00000000000001
    vertex -105.85952424436361 -6.585436818704661 23.14000000000001
  endloop
endfacet
facet normal -0.8799566476267304 0.4750539951390014 3.7686743021745006e-31
  outer loop
    vertex -105.85952424436361 -6.585436818704661 23.00000000000001
    vertex -105.72439685633225 -6.335136337935432 23.14000000000001
    vertex -105.72439685633225 -6.335136337935432 23.00000000000001
  endloop
endfacet
facet normal 0.8532288330588655 -0.5215367277929777 -4.0131772064675235e-31
  outer loop
    vertex -105.34350090965968 -6.5904219330455005 23.00000000000001
    vertex -105.43691385721787 -6.743244574271463 23.14000000000001
    vertex -105.43691385721787 -6.743244574271463 23.00000000000001
  endloop
endfacet
facet normal 0.8532288330588655 -0.5215367277929777 -4.0131772064675235e-31
  outer loop
    vertex -105.43691385721787 -6.743244574271463 23.14000000000001
    vertex -105.34350090965968 -6.5904219330455005 23.00000000000001
    vertex -105.34350090965968 -6.5904219330455005 23.14000000000001
  endloop
endfacet
facet normal -0.8791722108079147 -0.4765041697017181 -1.8400042605283673e-31
  outer loop
    vertex -104.74223592515816 -6.489304717869643 23.14000000000001
    vertex -104.67784803611463 -6.608103348309925 23.00000000000001
    vertex -104.67784803611463 -6.608103348309925 23.14000000000001
  endloop
endfacet
facet normal -0.8791722108079147 -0.4765041697017181 -1.8400042605283673e-31
  outer loop
    vertex -104.67784803611463 -6.608103348309925 23.00000000000001
    vertex -104.74223592515816 -6.489304717869643 23.14000000000001
    vertex -104.74223592515816 -6.489304717869643 23.00000000000001
  endloop
endfacet
facet normal 0.762535510586932 -0.6469463618368426 -4.652378636381821e-31
  outer loop
    vertex -104.55541003004176 -7.604766430293733 23.00000000000001
    vertex -104.74314922854884 -7.826048771513366 23.14000000000001
    vertex -104.74314922854884 -7.826048771513366 23.00000000000001
  endloop
endfacet
facet normal 0.762535510586932 -0.6469463618368426 -4.652378636381821e-31
  outer loop
    vertex -104.74314922854884 -7.826048771513366 23.14000000000001
    vertex -104.55541003004176 -7.604766430293733 23.00000000000001
    vertex -104.55541003004176 -7.604766430293733 23.14000000000001
  endloop
endfacet
facet normal 0.6276144864764861 0.7785242811658842 3.8969228931079676e-31
  outer loop
    vertex -104.43185461110829 -6.126321971791706 23.14000000000001
    vertex -104.30783562151443 -6.226301017211748 23.00000000000001
    vertex -104.43185461110829 -6.126321971791706 23.00000000000001
  endloop
endfacet
facet normal 0.6276144864764861 0.7785242811658842 3.8969228931079676e-31
  outer loop
    vertex -104.30783562151443 -6.226301017211748 23.00000000000001
    vertex -104.43185461110829 -6.126321971791706 23.14000000000001
    vertex -104.30783562151443 -6.226301017211748 23.14000000000001
  endloop
endfacet
facet normal 0.7616298452691463 -0.6480123292000672 -4.657663347041685e-31
  outer loop
    vertex -104.37948842389297 -7.3980000778139745 23.00000000000001
    vertex -104.55541003004176 -7.604766430293733 23.14000000000001
    vertex -104.55541003004176 -7.604766430293733 23.00000000000001
  endloop
endfacet
facet normal 0.7616298452691463 -0.6480123292000672 -4.657663347041685e-31
  outer loop
    vertex -104.55541003004176 -7.604766430293733 23.14000000000001
    vertex -104.37948842389297 -7.3980000778139745 23.00000000000001
    vertex -104.37948842389297 -7.3980000778139745 23.14000000000001
  endloop
endfacet
facet normal 0.7907184982730953 -0.6121799216641632 -4.47852581067138e-31
  outer loop
    vertex -104.22713281280998 -7.201210872980979 23.00000000000001
    vertex -104.37948842389297 -7.3980000778139745 23.14000000000001
    vertex -104.37948842389297 -7.3980000778139745 23.00000000000001
  endloop
endfacet
facet normal 0.7907184982730953 -0.6121799216641632 -4.47852581067138e-31
  outer loop
    vertex -104.37948842389297 -7.3980000778139745 23.14000000000001
    vertex -104.22713281280998 -7.201210872980979 23.00000000000001
    vertex -104.22713281280998 -7.201210872980979 23.14000000000001
  endloop
endfacet
facet normal 0.08667603636131614 0.9962365505845948 5.775666913878421e-31
  outer loop
    vertex -104.94901611556807 -5.979639912075107 23.14000000000001
    vertex -104.75358302789094 -5.996643268761596 23.00000000000001
    vertex -104.94901611556807 -5.979639912075107 23.00000000000001
  endloop
endfacet
facet normal 0.08667603636131614 0.9962365505845948 5.775666913878421e-31
  outer loop
    vertex -104.75358302789094 -5.996643268761596 23.00000000000001
    vertex -104.94901611556807 -5.979639912075107 23.14000000000001
    vertex -104.75358302789094 -5.996643268761596 23.14000000000001
  endloop
endfacet
facet normal -0.1319728648054704 0.9912533293538223 5.987083393519313e-31
  outer loop
    vertex -105.26914279193447 -6.022260736973892 23.14000000000001
    vertex -104.94901611556807 -5.979639912075107 23.00000000000001
    vertex -105.26914279193447 -6.022260736973892 23.00000000000001
  endloop
endfacet
facet normal -0.1319728648054704 0.9912533293538223 5.987083393519313e-31
  outer loop
    vertex -104.94901611556807 -5.979639912075107 23.00000000000001
    vertex -105.26914279193447 -6.022260736973892 23.14000000000001
    vertex -104.94901611556807 -5.979639912075107 23.14000000000001
  endloop
endfacet
facet normal -0.4254936810863543 0.904961395505678 5.8017751572465965e-31
  outer loop
    vertex -105.52760765149924 -6.14378543965608 23.14000000000001
    vertex -105.26914279193447 -6.022260736973892 23.00000000000001
    vertex -105.52760765149924 -6.14378543965608 23.00000000000001
  endloop
endfacet
facet normal -0.4254936810863543 0.904961395505678 5.8017751572465965e-31
  outer loop
    vertex -105.26914279193447 -6.022260736973892 23.00000000000001
    vertex -105.52760765149924 -6.14378543965608 23.14000000000001
    vertex -105.26914279193447 -6.022260736973892 23.14000000000001
  endloop
endfacet
facet normal 0.7420331964617943 -0.6703631369255714 -4.767802752519239e-31
  outer loop
    vertex -105.23739858014297 -6.47297596027855 23.00000000000001
    vertex -105.34350090965968 -6.5904219330455005 23.14000000000001
    vertex -105.34350090965968 -6.5904219330455005 23.00000000000001
  endloop
endfacet
facet normal 0.7420331964617943 -0.6703631369255714 -4.767802752519239e-31
  outer loop
    vertex -105.34350090965968 -6.5904219330455005 23.14000000000001
    vertex -105.23739858014297 -6.47297596027855 23.00000000000001
    vertex -105.23739858014297 -6.47297596027855 23.14000000000001
  endloop
endfacet
facet normal -0.2331269549239199 -0.9724463084859241 -5.47418690496635e-31
  outer loop
    vertex -104.84380633254682 -6.404962533532598 23.14000000000001
    vertex -104.97622148626644 -6.373218321741099 23.00000000000001
    vertex -104.84380633254682 -6.404962533532598 23.00000000000001
  endloop
endfacet
facet normal -0.2331269549239199 -0.9724463084859241 -5.47418690496635e-31
  outer loop
    vertex -104.97622148626644 -6.373218321741099 23.00000000000001
    vertex -104.84380633254682 -6.404962533532598 23.14000000000001
    vertex -104.97622148626644 -6.373218321741099 23.14000000000001
  endloop
endfacet
facet normal 0.9556564598836017 0.29448383772754344 6.830771932903249e-32
  outer loop
    vertex -104.1382517873798 -6.477514801371667 23.00000000000001
    vertex -104.09472457805542 -6.618768932982243 23.14000000000001
    vertex -104.09472457805542 -6.618768932982243 23.00000000000001
  endloop
endfacet
facet normal 0.9556564598836017 0.29448383772754344 6.830771932903249e-32
  outer loop
    vertex -104.09472457805542 -6.618768932982243 23.14000000000001
    vertex -104.1382517873798 -6.477514801371667 23.00000000000001
    vertex -104.1382517873798 -6.477514801371667 23.14000000000001
  endloop
endfacet
facet normal -0.6388431769428556 -0.7693369842101441 -3.830413984882569e-31
  outer loop
    vertex -104.74223592515816 -6.489304717869643 23.14000000000001
    vertex -104.84380633254682 -6.404962533532598 23.00000000000001
    vertex -104.74223592515816 -6.489304717869643 23.00000000000001
  endloop
endfacet
facet normal -0.6388431769428556 -0.7693369842101441 -3.830413984882569e-31
  outer loop
    vertex -104.84380633254682 -6.404962533532598 23.00000000000001
    vertex -104.74223592515816 -6.489304717869643 23.14000000000001
    vertex -104.84380633254682 -6.404962533532598 23.14000000000001
  endloop
endfacet
facet normal -0.9918052137580717 0.12775921869792992 1.845134786655121e-31
  outer loop
    vertex -104.65518150650936 -6.741417967490088 23.14000000000001
    vertex -104.67422249841219 -6.889234737479966 23.00000000000001
    vertex -104.67422249841219 -6.889234737479966 23.14000000000001
  endloop
endfacet
facet normal -0.9918052137580717 0.12775921869792992 1.845134786655121e-31
  outer loop
    vertex -104.67422249841219 -6.889234737479966 23.00000000000001
    vertex -104.65518150650936 -6.741417967490088 23.14000000000001
    vertex -104.65518150650936 -6.741417967490088 23.00000000000001
  endloop
endfacet
facet normal -0.8983343508476832 0.4393124105771104 3.578276727085258e-31
  outer loop
    vertex -104.67422249841219 -6.889234737479966 23.14000000000001
    vertex -104.73498484975329 -7.013485512404055 23.00000000000001
    vertex -104.73498484975329 -7.013485512404055 23.14000000000001
  endloop
endfacet
facet normal -0.8983343508476832 0.4393124105771104 3.578276727085258e-31
  outer loop
    vertex -104.73498484975329 -7.013485512404055 23.00000000000001
    vertex -104.67422249841219 -6.889234737479966 23.14000000000001
    vertex -104.67422249841219 -6.889234737479966 23.00000000000001
  endloop
endfacet
facet normal 0.8872910039806262 -0.4612100110091416 -3.695164453045946e-31
  outer loop
    vertex -104.12012409886766 -6.995343985961748 23.00000000000001
    vertex -104.22713281280998 -7.201210872980979 23.14000000000001
    vertex -104.22713281280998 -7.201210872980979 23.00000000000001
  endloop
endfacet
facet normal 0.8872910039806262 -0.4612100110091416 -3.695164453045946e-31
  outer loop
    vertex -104.22713281280998 -7.201210872980979 23.14000000000001
    vertex -104.12012409886766 -6.995343985961748 23.00000000000001
    vertex -104.12012409886766 -6.995343985961748 23.14000000000001
  endloop
endfacet
facet normal 1.0 0.0 -1.1012361837536942e-31
  outer loop
    vertex -104.03488244907011 -8.368371092490086 23.00000000000001
    vertex -104.03488244907011 -8.73111859375527 23.14000000000001
    vertex -104.03488244907011 -8.73111859375527 23.00000000000001
  endloop
endfacet
facet normal 1.0 0.0 -1.1012361837536942e-31
  outer loop
    vertex -104.03488244907011 -8.73111859375527 23.14000000000001
    vertex -104.03488244907011 -8.368371092490086 23.00000000000001
    vertex -104.03488244907011 -8.368371092490086 23.14000000000001
  endloop
endfacet
facet normal 0.769066189990349 0.6391691446039371 2.9198899749745824e-31
  outer loop
    vertex -104.30783562151443 -6.226301017211748 23.00000000000001
    vertex -104.20966588546305 -6.344421589074095 23.14000000000001
    vertex -104.20966588546305 -6.344421589074095 23.00000000000001
  endloop
endfacet
facet normal 0.769066189990349 0.6391691446039371 2.9198899749745824e-31
  outer loop
    vertex -104.20966588546305 -6.344421589074095 23.14000000000001
    vertex -104.30783562151443 -6.226301017211748 23.00000000000001
    vertex -104.30783562151443 -6.226301017211748 23.14000000000001
  endloop
endfacet
facet normal 0.985762834418408 -0.168141708922524 -2.076466701351968e-31
  outer loop
    vertex -104.08021550828062 -6.76137226278361 23.00000000000001
    vertex -104.12012409886766 -6.995343985961748 23.14000000000001
    vertex -104.12012409886766 -6.995343985961748 23.00000000000001
  endloop
endfacet
facet normal 0.985762834418408 -0.168141708922524 -2.076466701351968e-31
  outer loop
    vertex -104.12012409886766 -6.995343985961748 23.14000000000001
    vertex -104.08021550828062 -6.76137226278361 23.00000000000001
    vertex -104.08021550828062 -6.76137226278361 23.14000000000001
  endloop
endfacet
facet normal 0.7852777833827534 -0.6191436044452607 -4.51357334819891e-31
  outer loop
    vertex -105.08776904130187 -8.22689209451438 23.00000000000001
    vertex -105.1993165963373 -8.368371092490086 23.14000000000001
    vertex -105.1993165963373 -8.368371092490086 23.00000000000001
  endloop
endfacet
facet normal 0.7852777833827534 -0.6191436044452607 -4.51357334819891e-31
  outer loop
    vertex -105.1993165963373 -8.368371092490086 23.14000000000001
    vertex -105.08776904130187 -8.22689209451438 23.00000000000001
    vertex -105.08776904130187 -8.22689209451438 23.14000000000001
  endloop
endfacet
facet normal 0.8811651556273827 0.472808596059939 1.8160304451680496e-31
  outer loop
    vertex -104.20966588546305 -6.344421589074095 23.00000000000001
    vertex -104.1382517873798 -6.477514801371667 23.14000000000001
    vertex -104.1382517873798 -6.477514801371667 23.00000000000001
  endloop
endfacet
facet normal 0.8811651556273827 0.472808596059939 1.8160304451680496e-31
  outer loop
    vertex -104.1382517873798 -6.477514801371667 23.14000000000001
    vertex -104.20966588546305 -6.344421589074095 23.00000000000001
    vertex -104.20966588546305 -6.344421589074095 23.14000000000001
  endloop
endfacet
facet normal 0.994863895213247 0.10122168740504969 -4.990506702247753e-32
  outer loop
    vertex -104.09472457805542 -6.618768932982243 23.00000000000001
    vertex -104.08021550828062 -6.76137226278361 23.14000000000001
    vertex -104.08021550828062 -6.76137226278361 23.00000000000001
  endloop
endfacet
facet normal 0.994863895213247 0.10122168740504969 -4.990506702247753e-32
  outer loop
    vertex -104.08021550828062 -6.76137226278361 23.14000000000001
    vertex -104.09472457805542 -6.618768932982243 23.00000000000001
    vertex -104.09472457805542 -6.618768932982243 23.14000000000001
  endloop
endfacet
facet normal -0.7290608944953296 0.6844488382031705 4.83652840283673e-31
  outer loop
    vertex -104.84563293932818 -7.147713434974906 23.14000000000001
    vertex -105.01250453915107 -7.325461647905068 23.00000000000001
    vertex -105.01250453915107 -7.325461647905068 23.14000000000001
  endloop
endfacet
facet normal -0.7290608944953296 0.6844488382031705 4.83652840283673e-31
  outer loop
    vertex -105.01250453915107 -7.325461647905068 23.00000000000001
    vertex -104.84563293932818 -7.147713434974906 23.14000000000001
    vertex -104.84563293932818 -7.147713434974906 23.00000000000001
  endloop
endfacet
facet normal 0.7565292828747658 -0.6539598184544618 -4.687096742720368e-31
  outer loop
    vertex -104.74314922854884 -7.826048771513366 23.00000000000001
    vertex -104.92816235481402 -8.040080037328146 23.14000000000001
    vertex -104.92816235481402 -8.040080037328146 23.00000000000001
  endloop
endfacet
facet normal 0.7565292828747658 -0.6539598184544618 -4.687096742720368e-31
  outer loop
    vertex -104.92816235481402 -8.040080037328146 23.14000000000001
    vertex -104.74314922854884 -7.826048771513366 23.00000000000001
    vertex -104.74314922854884 -7.826048771513366 23.14000000000001
  endloop
endfacet
facet normal 0.2831695100769737 0.9590698767883219 5.340246950039266e-31
  outer loop
    vertex -104.75358302789094 -5.996643268761596 23.14000000000001
    vertex -104.58081646981908 -6.04765333882106 23.00000000000001
    vertex -104.75358302789094 -5.996643268761596 23.00000000000001
  endloop
endfacet
facet normal 0.2831695100769737 0.9590698767883219 5.340246950039266e-31
  outer loop
    vertex -104.58081646981908 -6.04765333882106 23.00000000000001
    vertex -104.75358302789094 -5.996643268761596 23.14000000000001
    vertex -104.58081646981908 -6.04765333882106 23.14000000000001
  endloop
endfacet
facet normal -0.349818779080049 -0.9368173897846603 -5.135709852365774e-31
  outer loop
    vertex -105.43691385721787 -6.743244574271463 23.14000000000001
    vertex -105.85952424436361 -6.585436818704661 23.00000000000001
    vertex -105.43691385721787 -6.743244574271463 23.00000000000001
  endloop
endfacet
facet normal -0.349818779080049 -0.9368173897846603 -5.135709852365774e-31
  outer loop
    vertex -105.85952424436361 -6.585436818704661 23.00000000000001
    vertex -105.43691385721787 -6.743244574271463 23.14000000000001
    vertex -105.85952424436361 -6.585436818704661 23.14000000000001
  endloop
endfacet
facet normal -0.6971309456284862 0.7169438225182868 4.992868575720387e-31
  outer loop
    vertex -105.72439685633225 -6.335136337935432 23.14000000000001
    vertex -105.52760765149924 -6.14378543965608 23.00000000000001
    vertex -105.72439685633225 -6.335136337935432 23.00000000000001
  endloop
endfacet
facet normal -0.6971309456284862 0.7169438225182868 4.992868575720387e-31
  outer loop
    vertex -105.52760765149924 -6.14378543965608 23.00000000000001
    vertex -105.72439685633225 -6.335136337935432 23.14000000000001
    vertex -105.52760765149924 -6.14378543965608 23.14000000000001
  endloop
endfacet
facet normal 0.0 1.0 5.893296825878012e-31
  outer loop
    vertex -105.1993165963373 -8.368371092490086 23.14000000000001
    vertex -104.03488244907011 -8.368371092490086 23.00000000000001
    vertex -105.1993165963373 -8.368371092490086 23.00000000000001
  endloop
endfacet
facet normal 0.0 1.0 5.893296825878012e-31
  outer loop
    vertex -104.03488244907011 -8.368371092490086 23.00000000000001
    vertex -105.1993165963373 -8.368371092490086 23.14000000000001
    vertex -104.03488244907011 -8.368371092490086 23.14000000000001
  endloop
endfacet
facet normal -0.9858521267642066 -0.16761737426200998 9.783709412296753e-33
  outer loop
    vertex -104.67784803611463 -6.608103348309925 23.14000000000001
    vertex -104.65518150650936 -6.741417967490088 23.00000000000001
    vertex -104.65518150650936 -6.741417967490088 23.14000000000001
  endloop
endfacet
facet normal -0.9858521267642066 -0.16761737426200998 9.783709412296753e-33
  outer loop
    vertex -104.65518150650936 -6.741417967490088 23.00000000000001
    vertex -104.67784803611463 -6.608103348309925 23.14000000000001
    vertex -104.67784803611463 -6.608103348309925 23.00000000000001
  endloop
endfacet
facet normal -0.8201080722343436 0.5722086593683017 4.275328159728073e-31
  outer loop
    vertex -105.66998611493547 -8.104454088441504 23.14000000000001
    vertex -105.86677531976848 -8.386498781002233 23.00000000000001
    vertex -105.86677531976848 -8.386498781002233 23.14000000000001
  endloop
endfacet
facet normal -0.8201080722343436 0.5722086593683017 4.275328159728073e-31
  outer loop
    vertex -105.86677531976848 -8.386498781002233 23.00000000000001
    vertex -105.66998611493547 -8.104454088441504 23.14000000000001
    vertex -105.66998611493547 -8.104454088441504 23.00000000000001
  endloop
endfacet
facet normal 0.524290831289857 -0.8515392675768928 -5.5957416969480845e-31
  outer loop
    vertex -105.11588079642587 -6.398157731375462 23.14000000000001
    vertex -105.23739858014297 -6.47297596027855 23.00000000000001
    vertex -105.11588079642587 -6.398157731375462 23.00000000000001
  endloop
endfacet
facet normal 0.524290831289857 -0.8515392675768928 -5.5957416969480845e-31
  outer loop
    vertex -105.23739858014297 -6.47297596027855 23.00000000000001
    vertex -105.11588079642587 -6.398157731375462 23.14000000000001
    vertex -105.23739858014297 -6.47297596027855 23.14000000000001
  endloop
endfacet
facet normal -0.7844287112939151 0.6202189910811888 4.518975891940173e-31
  outer loop
    vertex -105.44053939492031 -7.814258855015391 23.14000000000001
    vertex -105.66998611493547 -8.104454088441504 23.00000000000001
    vertex -105.66998611493547 -8.104454088441504 23.14000000000001
  endloop
endfacet
facet normal -0.7844287112939151 0.6202189910811888 4.518975891940173e-31
  outer loop
    vertex -105.66998611493547 -8.104454088441504 23.00000000000001
    vertex -105.44053939492031 -7.814258855015391 23.14000000000001
    vertex -105.44053939492031 -7.814258855015391 23.00000000000001
  endloop
endfacet
facet normal 0.7602971874266234 -0.6495753896132196 -4.665407354976423e-31
  outer loop
    vertex -104.92816235481402 -8.040080037328146 23.00000000000001
    vertex -105.08776904130187 -8.22689209451438 23.14000000000001
    vertex -105.08776904130187 -8.22689209451438 23.00000000000001
  endloop
endfacet
facet normal 0.7602971874266234 -0.6495753896132196 -4.665407354976423e-31
  outer loop
    vertex -105.08776904130187 -8.22689209451438 23.14000000000001
    vertex -104.92816235481402 -8.040080037328146 23.00000000000001
    vertex -104.92816235481402 -8.040080037328146 23.14000000000001
  endloop
endfacet
facet normal 0.46699016413561295 0.8842625100051419 4.696954977253014e-31
  outer loop
    vertex -104.58081646981908 -6.04765333882106 23.14000000000001
    vertex -104.43185461110829 -6.126321971791706 23.00000000000001
    vertex -104.58081646981908 -6.04765333882106 23.00000000000001
  endloop
endfacet
facet normal 0.46699016413561295 0.8842625100051419 4.696954977253014e-31
  outer loop
    vertex -104.43185461110829 -6.126321971791706 23.00000000000001
    vertex -104.58081646981908 -6.04765333882106 23.14000000000001
    vertex -104.43185461110829 -6.126321971791706 23.14000000000001
  endloop
endfacet
facet normal -0.7599782438443898 0.6499485124863332 4.6672550466068735e-31
  outer loop
    vertex -105.2101932094446 -7.544917382343325 23.14000000000001
    vertex -105.44053939492031 -7.814258855015391 23.00000000000001
    vertex -105.44053939492031 -7.814258855015391 23.14000000000001
  endloop
endfacet
facet normal -0.7599782438443898 0.6499485124863332 4.6672550466068735e-31
  outer loop
    vertex -105.44053939492031 -7.814258855015391 23.00000000000001
    vertex -105.2101932094446 -7.544917382343325 23.14000000000001
    vertex -105.2101932094446 -7.544917382343325 23.00000000000001
  endloop
endfacet
facet normal 0.17579232645210566 -0.9844272740840517 -5.995111000382587e-31
  outer loop
    vertex -104.97622148626644 -6.373218321741099 23.14000000000001
    vertex -105.11588079642587 -6.398157731375462 23.00000000000001
    vertex -104.97622148626644 -6.373218321741099 23.00000000000001
  endloop
endfacet
facet normal 0.17579232645210566 -0.9844272740840517 -5.995111000382587e-31
  outer loop
    vertex -105.11588079642587 -6.398157731375462 23.00000000000001
    vertex -104.97622148626644 -6.373218321741099 23.14000000000001
    vertex -105.11588079642587 -6.398157731375462 23.14000000000001
  endloop
endfacet
facet normal 0.0 -1.0 -5.893296825878013e-31
  outer loop
    vertex -104.03488244907011 -8.73111859375527 23.14000000000001
    vertex -105.86677531976848 -8.73111859375527 23.00000000000001
    vertex -104.03488244907011 -8.73111859375527 23.00000000000001
  endloop
endfacet
facet normal 0.0 -1.0 -5.893296825878013e-31
  outer loop
    vertex -105.86677531976848 -8.73111859375527 23.00000000000001
    vertex -104.03488244907011 -8.73111859375527 23.14000000000001
    vertex -105.86677531976848 -8.73111859375527 23.14000000000001
  endloop
endfacet
facet normal 0.0 1.0 0.0
  outer loop
    vertex -108.12783775650936 -6.010470820475916 23.14000000000001
    vertex -106.3108068228049 -6.010470820475916 23.00000000000001
    vertex -108.12783775650936 -6.010470820475916 23.00000000000001
  endloop
endfacet
facet normal 0.0 1.0 0.0
  outer loop
    vertex -106.3108068228049 -6.010470820475916 23.00000000000001
    vertex -108.12783775650936 -6.010470820475916 23.14000000000001
    vertex -106.3108068228049 -6.010470820475916 23.14000000000001
  endloop
endfacet
facet normal -1.0 0.0 0.0
  outer loop
    vertex -108.06434933292637 -6.440332283026525 23.14000000000001
    vertex -108.06434933292637 -8.73111859375527 23.00000000000001
    vertex -108.06434933292637 -8.73111859375527 23.14000000000001
  endloop
endfacet
facet normal -1.0 0.0 0.0
  outer loop
    vertex -108.06434933292637 -8.73111859375527 23.00000000000001
    vertex -108.06434933292637 -6.440332283026525 23.14000000000001
    vertex -108.06434933292637 -6.440332283026525 23.00000000000001
  endloop
endfacet
facet normal 0.9941590688690749 0.10792472277182061 0.0
  outer loop
    vertex -107.45567413682313 -6.423173249625715 23.00000000000001
    vertex -107.42846876612475 -6.6737781648585095 23.14000000000001
    vertex -107.42846876612475 -6.6737781648585095 23.00000000000001
  endloop
endfacet
facet normal 0.9941590688690749 0.10792472277182061 0.0
  outer loop
    vertex -107.42846876612475 -6.6737781648585095 23.14000000000001
    vertex -107.45567413682313 -6.423173249625715 23.00000000000001
    vertex -107.45567413682313 -6.423173249625715 23.14000000000001
  endloop
endfacet
facet normal 0.0 0.0 1.0
  outer loop
    vertex -112.25765730990007 -8.730426697247172 23.14000000000001
    vertex -112.53145459608426 -5.975045719261343 23.14000000000001
    vertex -113.11596876612477 -6.011301096285632 23.14000000000001
  endloop
endfacet
facet normal 0.0 0.0 1.0
  outer loop
    vertex -112.53145459608426 -5.975045719261343 23.14000000000001
    vertex -112.25765730990007 -8.730426697247172 23.14000000000001
    vertex -112.07253348019358 -7.46148850139697 23.14000000000001
  endloop
endfacet
facet normal 0.0 0.0 1.0
  outer loop
    vertex -112.07253348019358 -7.46148850139697 23.14000000000001
    vertex -112.25765730990007 -8.730426697247172 23.14000000000001
    vertex -111.9763875414284 -8.259106795931382 23.14000000000001
  endloop
endfacet
facet normal 0.0 0.0 1.0
  outer loop
    vertex -111.9763875414284 -8.259106795931382 23.14000000000001
    vertex -112.25765730990007 -8.730426697247172 23.14000000000001
    vertex -111.61889845362475 -8.761229929787659 23.14000000000001
  endloop
endfacet
facet normal 0.0 0.0 1.0
  outer loop
    vertex -111.9763875414284 -8.259106795931382 23.14000000000001
    vertex -111.61889845362475 -8.761229929787659 23.14000000000001
    vertex -111.84943837012273 -7.4610456876317865 23.14000000000001
  endloop
endfacet
facet normal 0.0 0.0 1.0
  outer loop
    vertex -111.84943837012273 -7.4610456876317865 23.14000000000001
    vertex -111.61889845362475 -8.761229929787659 23.14000000000001
    vertex -111.3996226122786 -6.010028006710736 23.14000000000001
  endloop
endfacet
facet normal 0.0 0.0 1.0
  outer loop
    vertex -111.3996226122786 -6.010028006710736 23.14000000000001
    vertex -111.61889845362475 -8.761229929787659 23.14000000000001
    vertex -111.5680855740701 -8.367872927004257 23.14000000000001
  endloop
endfacet
facet normal 0.0 0.0 1.0
  outer loop
    vertex -111.3996226122786 -6.010028006710736 23.14000000000001
    vertex -111.5680855740701 -8.367872927004257 23.14000000000001
    vertex -110.81865095235956 -6.010028006710736 23.14000000000001
  endloop
endfacet
facet normal -0.9875832047614523 0.15709682897213303 0.0
  outer loop
    vertex -111.84943837012273 -7.4610456876317865 23.14000000000001
    vertex -111.9763875414284 -8.259106795931382 23.00000000000001
    vertex -111.9763875414284 -8.259106795931382 23.14000000000001
  endloop
endfacet
facet normal -0.9875832047614523 0.15709682897213303 0.0
  outer loop
    vertex -111.9763875414284 -8.259106795931382 23.00000000000001
    vertex -111.84943837012273 -7.4610456876317865 23.14000000000001
    vertex -111.84943837012273 -7.4610456876317865 23.00000000000001
  endloop
endfacet
facet normal 0.9928131245271098 0.11967497552420019 0.0
  outer loop
    vertex -112.07253348019358 -7.46148850139697 23.00000000000001
    vertex -111.9763875414284 -8.259106795931382 23.14000000000001
    vertex -111.9763875414284 -8.259106795931382 23.00000000000001
  endloop
endfacet
facet normal 0.9928131245271098 0.11967497552420019 0.0
  outer loop
    vertex -111.9763875414284 -8.259106795931382 23.14000000000001
    vertex -112.07253348019358 -7.46148850139697 23.00000000000001
    vertex -112.07253348019358 -7.46148850139697 23.14000000000001
  endloop
endfacet
facet normal 0.9554977752194997 0.29499830770800467 0.0
  outer loop
    vertex -112.53145459608426 -5.975045719261343 23.00000000000001
    vertex -112.07253348019358 -7.46148850139697 23.14000000000001
    vertex -112.07253348019358 -7.46148850139697 23.00000000000001
  endloop
endfacet
facet normal 0.9554977752194997 0.29499830770800467 0.0
  outer loop
    vertex -112.07253348019358 -7.46148850139697 23.14000000000001
    vertex -112.53145459608426 -5.975045719261343 23.00000000000001
    vertex -112.53145459608426 -5.975045719261343 23.14000000000001
  endloop
endfacet
facet normal 1.0 0.0 0.0
  outer loop
    vertex -106.49678860418143 -7.069681346791708 23.00000000000001
    vertex -106.49678860418143 -7.4558149500305735 23.14000000000001
    vertex -106.49678860418143 -7.4558149500305735 23.00000000000001
  endloop
endfacet
facet normal 1.0 0.0 0.0
  outer loop
    vertex -106.49678860418143 -7.4558149500305735 23.14000000000001
    vertex -106.49678860418143 -7.069681346791708 23.00000000000001
    vertex -106.49678860418143 -7.069681346791708 23.14000000000001
  endloop
endfacet
facet normal -0.061907541384712904 0.9980818885841484 0.0
  outer loop
    vertex -113.11596876612477 -6.011301096285632 23.14000000000001
    vertex -112.53145459608426 -5.975045719261343 23.00000000000001
    vertex -113.11596876612477 -6.011301096285632 23.00000000000001
  endloop
endfacet
facet normal -0.061907541384712904 0.9980818885841484 0.0
  outer loop
    vertex -112.53145459608426 -5.975045719261343 23.00000000000001
    vertex -113.11596876612477 -6.011301096285632 23.14000000000001
    vertex -112.53145459608426 -5.975045719261343 23.14000000000001
  endloop
endfacet
facet normal 0.0 0.0 1.0
  outer loop
    vertex -110.012729899728 -8.73111859375527 23.14000000000001
    vertex -110.64152544628668 -6.441051855394946 23.14000000000001
    vertex -110.64152544628668 -8.73111859375527 23.14000000000001
  endloop
endfacet
facet normal 0.0 0.0 1.0
  outer loop
    vertex -108.57624204547696 -8.73111859375527 23.14000000000001
    vertex -109.20326633697495 -7.482383775941504 23.14000000000001
    vertex -109.20326633697495 -8.73111859375527 23.14000000000001
  endloop
endfacet
facet normal 0.0 0.0 1.0
  outer loop
    vertex -109.20326633697495 -7.482383775941504 23.14000000000001
    vertex -108.57624204547696 -8.73111859375527 23.14000000000001
    vertex -109.20326633697495 -7.069681346791708 23.14000000000001
  endloop
endfacet
facet normal 0.0 0.0 1.0
  outer loop
    vertex -109.20326633697495 -7.069681346791708 23.14000000000001
    vertex -108.57624204547696 -8.73111859375527 23.14000000000001
    vertex -109.20326633697495 -6.011301096285632 23.14000000000001
  endloop
endfacet
facet normal 0.0 0.0 1.0
  outer loop
    vertex -109.20326633697495 -6.011301096285632 23.14000000000001
    vertex -108.57624204547696 -8.73111859375527 23.14000000000001
    vertex -108.57624204547696 -5.975045719261343 23.14000000000001
  endloop
endfacet
facet normal 0.0 0.0 1.0
  outer loop
    vertex -109.20326633697495 -7.482383775941504 23.14000000000001
    vertex -110.012729899728 -7.069681346791708 23.14000000000001
    vertex -110.012729899728 -7.482383775941504 23.14000000000001
  endloop
endfacet
facet normal 0.0 0.0 1.0
  outer loop
    vertex -110.012729899728 -7.069681346791708 23.14000000000001
    vertex -109.20326633697495 -7.482383775941504 23.14000000000001
    vertex -109.20326633697495 -7.069681346791708 23.14000000000001
  endloop
endfacet
facet normal 0.0 0.0 1.0
  outer loop
    vertex -110.64152544628668 -6.441051855394946 23.14000000000001
    vertex -110.012729899728 -5.975045719261343 23.14000000000001
    vertex -110.6977351186045 -6.011301096285632 23.14000000000001
  endloop
endfacet
facet normal 0.0 0.0 1.0
  outer loop
    vertex -110.012729899728 -5.975045719261343 23.14000000000001
    vertex -110.64152544628668 -6.441051855394946 23.14000000000001
    vertex -110.012729899728 -8.73111859375527 23.14000000000001
  endloop
endfacet
facet normal 0.0 0.0 1.0
  outer loop
    vertex -110.012729899728 -5.975045719261343 23.14000000000001
    vertex -110.012729899728 -8.73111859375527 23.14000000000001
    vertex -110.012729899728 -7.482383775941504 23.14000000000001
  endloop
endfacet
facet normal 0.0 0.0 1.0
  outer loop
    vertex -110.012729899728 -5.975045719261343 23.14000000000001
    vertex -110.012729899728 -7.482383775941504 23.14000000000001
    vertex -110.012729899728 -7.069681346791708 23.14000000000001
  endloop
endfacet
facet normal 1.0 0.0 0.0
  outer loop
    vertex -107.42846876612475 -7.4558149500305735 23.00000000000001
    vertex -107.42846876612475 -8.73111859375527 23.14000000000001
    vertex -107.42846876612475 -8.73111859375527 23.00000000000001
  endloop
endfacet
facet normal 1.0 0.0 0.0
  outer loop
    vertex -107.42846876612475 -8.73111859375527 23.14000000000001
    vertex -107.42846876612475 -7.4558149500305735 23.00000000000001
    vertex -107.42846876612475 -7.4558149500305735 23.14000000000001
  endloop
endfacet
facet normal -0.9892683397932422 -0.14611006769802753 0.0
  outer loop
    vertex -108.12783775650936 -6.010470820475916 23.14000000000001
    vertex -108.06434933292637 -6.440332283026525 23.00000000000001
    vertex -108.06434933292637 -6.440332283026525 23.14000000000001
  endloop
endfacet
facet normal -0.9892683397932422 -0.14611006769802753 0.0
  outer loop
    vertex -108.06434933292637 -6.440332283026525 23.00000000000001
    vertex -108.12783775650936 -6.010470820475916 23.14000000000001
    vertex -108.12783775650936 -6.010470820475916 23.00000000000001
  endloop
endfacet
facet normal 0.9530178499651932 -0.3029141423699473 0.0
  outer loop
    vertex -110.81865095235956 -6.010028006710736 23.00000000000001
    vertex -111.5680855740701 -8.367872927004257 23.14000000000001
    vertex -111.5680855740701 -8.367872927004257 23.00000000000001
  endloop
endfacet
facet normal 0.9530178499651932 -0.3029141423699473 0.0
  outer loop
    vertex -111.5680855740701 -8.367872927004257 23.14000000000001
    vertex -110.81865095235956 -6.010028006710736 23.00000000000001
    vertex -110.81865095235956 -6.010028006710736 23.14000000000001
  endloop
endfacet
facet normal 0.0 1.0 0.0
  outer loop
    vertex -111.3996226122786 -6.010028006710736 23.14000000000001
    vertex -110.81865095235956 -6.010028006710736 23.00000000000001
    vertex -111.3996226122786 -6.010028006710736 23.00000000000001
  endloop
endfacet
facet normal 0.0 1.0 0.0
  outer loop
    vertex -110.81865095235956 -6.010028006710736 23.00000000000001
    vertex -111.3996226122786 -6.010028006710736 23.14000000000001
    vertex -110.81865095235956 -6.010028006710736 23.14000000000001
  endloop
endfacet
facet normal 0.0 0.0 1.0
  outer loop
    vertex -106.49678860418143 -7.4558149500305735 23.14000000000001
    vertex -107.42846876612475 -7.069681346791708 23.14000000000001
    vertex -107.42846876612475 -7.4558149500305735 23.14000000000001
  endloop
endfacet
facet normal 0.0 0.0 1.0
  outer loop
    vertex -107.42846876612475 -7.069681346791708 23.14000000000001
    vertex -106.49678860418143 -7.4558149500305735 23.14000000000001
    vertex -106.49678860418143 -7.069681346791708 23.14000000000001
  endloop
endfacet
facet normal 0.0 0.0 1.0
  outer loop
    vertex -107.42846876612475 -8.73111859375527 23.14000000000001
    vertex -108.06434933292637 -6.440332283026525 23.14000000000001
    vertex -108.06434933292637 -8.73111859375527 23.14000000000001
  endloop
endfacet
facet normal 0.0 0.0 1.0
  outer loop
    vertex -108.06434933292637 -6.440332283026525 23.14000000000001
    vertex -107.42846876612475 -8.73111859375527 23.14000000000001
    vertex -107.45567413682313 -6.423173249625715 23.14000000000001
  endloop
endfacet
facet normal 0.0 0.0 1.0
  outer loop
    vertex -107.45567413682313 -6.423173249625715 23.14000000000001
    vertex -107.42846876612475 -8.73111859375527 23.14000000000001
    vertex -107.42846876612475 -6.6737781648585095 23.14000000000001
  endloop
endfacet
facet normal 0.0 0.0 1.0
  outer loop
    vertex -107.42846876612475 -6.6737781648585095 23.14000000000001
    vertex -107.42846876612475 -8.73111859375527 23.14000000000001
    vertex -107.42846876612475 -7.4558149500305735 23.14000000000001
  endloop
endfacet
facet normal 0.0 0.0 1.0
  outer loop
    vertex -107.42846876612475 -6.6737781648585095 23.14000000000001
    vertex -107.42846876612475 -7.4558149500305735 23.14000000000001
    vertex -107.42846876612475 -7.069681346791708 23.14000000000001
  endloop
endfacet
facet normal 0.0 0.0 1.0
  outer loop
    vertex -108.06434933292637 -6.440332283026525 23.14000000000001
    vertex -106.3108068228049 -6.010470820475916 23.14000000000001
    vertex -108.12783775650936 -6.010470820475916 23.14000000000001
  endloop
endfacet
facet normal 0.0 0.0 1.0
  outer loop
    vertex -106.3108068228049 -6.010470820475916 23.14000000000001
    vertex -108.06434933292637 -6.440332283026525 23.14000000000001
    vertex -107.45567413682313 -6.423173249625715 23.14000000000001
  endloop
endfacet
facet normal 0.0 0.0 1.0
  outer loop
    vertex -106.3108068228049 -6.010470820475916 23.14000000000001
    vertex -107.45567413682313 -6.423173249625715 23.14000000000001
    vertex -106.3597930955782 -6.423173249625715 23.14000000000001
  endloop
endfacet
facet normal -0.9551572746498155 0.2960989373225398 0.0
  outer loop
    vertex -111.3996226122786 -6.010028006710736 23.14000000000001
    vertex -111.84943837012273 -7.4610456876317865 23.00000000000001
    vertex -111.84943837012273 -7.4610456876317865 23.14000000000001
  endloop
endfacet
facet normal -0.9551572746498155 0.2960989373225398 0.0
  outer loop
    vertex -111.84943837012273 -7.4610456876317865 23.00000000000001
    vertex -111.3996226122786 -6.010028006710736 23.14000000000001
    vertex -111.3996226122786 -6.010028006710736 23.00000000000001
  endloop
endfacet
facet normal 0.0 -1.0 0.0
  outer loop
    vertex -106.49678860418143 -7.4558149500305735 23.14000000000001
    vertex -107.42846876612475 -7.4558149500305735 23.00000000000001
    vertex -106.49678860418143 -7.4558149500305735 23.00000000000001
  endloop
endfacet
facet normal 0.0 -1.0 0.0
  outer loop
    vertex -107.42846876612475 -7.4558149500305735 23.00000000000001
    vertex -106.49678860418143 -7.4558149500305735 23.14000000000001
    vertex -107.42846876612475 -7.4558149500305735 23.14000000000001
  endloop
endfacet
facet normal 0.0 -1.0 0.0
  outer loop
    vertex -106.3597930955782 -6.423173249625715 23.14000000000001
    vertex -107.45567413682313 -6.423173249625715 23.00000000000001
    vertex -106.3597930955782 -6.423173249625715 23.00000000000001
  endloop
endfacet
facet normal 0.0 -1.0 0.0
  outer loop
    vertex -107.45567413682313 -6.423173249625715 23.00000000000001
    vertex -106.3597930955782 -6.423173249625715 23.14000000000001
    vertex -107.45567413682313 -6.423173249625715 23.14000000000001
  endloop
endfacet
facet normal -0.9536188912405236 -0.3010166278948633 0.0
  outer loop
    vertex -113.11596876612477 -6.011301096285632 23.14000000000001
    vertex -112.25765730990007 -8.730426697247172 23.00000000000001
    vertex -112.25765730990007 -8.730426697247172 23.14000000000001
  endloop
endfacet
facet normal -0.9536188912405236 -0.3010166278948633 0.0
  outer loop
    vertex -112.25765730990007 -8.730426697247172 23.00000000000001
    vertex -113.11596876612477 -6.011301096285632 23.14000000000001
    vertex -113.11596876612477 -6.011301096285632 23.00000000000001
  endloop
endfacet
facet normal -0.04816759553608301 -0.9988392677204238 0.0
  outer loop
    vertex -111.61889845362475 -8.761229929787659 23.14000000000001
    vertex -112.25765730990007 -8.730426697247172 23.00000000000001
    vertex -111.61889845362475 -8.761229929787659 23.00000000000001
  endloop
endfacet
facet normal -0.04816759553608301 -0.9988392677204238 0.0
  outer loop
    vertex -112.25765730990007 -8.730426697247172 23.00000000000001
    vertex -111.61889845362475 -8.761229929787659 23.14000000000001
    vertex -112.25765730990007 -8.730426697247172 23.14000000000001
  endloop
endfacet
facet normal 0.9917595727289382 -0.12811303563850931 0.0
  outer loop
    vertex -111.5680855740701 -8.367872927004257 23.00000000000001
    vertex -111.61889845362475 -8.761229929787659 23.14000000000001
    vertex -111.61889845362475 -8.761229929787659 23.00000000000001
  endloop
endfacet
facet normal 0.9917595727289382 -0.12811303563850931 0.0
  outer loop
    vertex -111.61889845362475 -8.761229929787659 23.14000000000001
    vertex -111.5680855740701 -8.367872927004257 23.00000000000001
    vertex -111.5680855740701 -8.367872927004257 23.14000000000001
  endloop
endfacet
facet normal 0.9930291603427952 -0.11786893869414138 0.0
  outer loop
    vertex -106.3108068228049 -6.010470820475916 23.00000000000001
    vertex -106.3597930955782 -6.423173249625715 23.14000000000001
    vertex -106.3597930955782 -6.423173249625715 23.00000000000001
  endloop
endfacet
facet normal 0.9930291603427952 -0.11786893869414138 0.0
  outer loop
    vertex -106.3597930955782 -6.423173249625715 23.14000000000001
    vertex -106.3108068228049 -6.010470820475916 23.00000000000001
    vertex -106.3108068228049 -6.010470820475916 23.14000000000001
  endloop
endfacet
facet normal -1.0 0.0 0.0
  outer loop
    vertex -109.20326633697495 -7.482383775941504 23.14000000000001
    vertex -109.20326633697495 -8.73111859375527 23.00000000000001
    vertex -109.20326633697495 -8.73111859375527 23.14000000000001
  endloop
endfacet
facet normal -1.0 0.0 0.0
  outer loop
    vertex -109.20326633697495 -8.73111859375527 23.00000000000001
    vertex -109.20326633697495 -7.482383775941504 23.14000000000001
    vertex -109.20326633697495 -7.482383775941504 23.00000000000001
  endloop
endfacet
facet normal 0.0 -1.0 0.0
  outer loop
    vertex -108.57624204547696 -8.73111859375527 23.14000000000001
    vertex -109.20326633697495 -8.73111859375527 23.00000000000001
    vertex -108.57624204547696 -8.73111859375527 23.00000000000001
  endloop
endfacet
facet normal 0.0 -1.0 0.0
  outer loop
    vertex -109.20326633697495 -8.73111859375527 23.00000000000001
    vertex -108.57624204547696 -8.73111859375527 23.14000000000001
    vertex -109.20326633697495 -8.73111859375527 23.14000000000001
  endloop
endfacet
facet normal 0.0 -1.0 0.0
  outer loop
    vertex -107.42846876612475 -8.73111859375527 23.14000000000001
    vertex -108.06434933292637 -8.73111859375527 23.00000000000001
    vertex -107.42846876612475 -8.73111859375527 23.00000000000001
  endloop
endfacet
facet normal 0.0 -1.0 0.0
  outer loop
    vertex -108.06434933292637 -8.73111859375527 23.00000000000001
    vertex -107.42846876612475 -8.73111859375527 23.14000000000001
    vertex -108.06434933292637 -8.73111859375527 23.14000000000001
  endloop
endfacet
facet normal 0.0 1.0 0.0
  outer loop
    vertex -107.42846876612475 -7.069681346791708 23.14000000000001
    vertex -106.49678860418143 -7.069681346791708 23.00000000000001
    vertex -107.42846876612475 -7.069681346791708 23.00000000000001
  endloop
endfacet
facet normal 0.0 1.0 0.0
  outer loop
    vertex -106.49678860418143 -7.069681346791708 23.00000000000001
    vertex -107.42846876612475 -7.069681346791708 23.14000000000001
    vertex -106.49678860418143 -7.069681346791708 23.14000000000001
  endloop
endfacet
facet normal 1.0 0.0 0.0
  outer loop
    vertex -107.42846876612475 -6.6737781648585095 23.00000000000001
    vertex -107.42846876612475 -7.069681346791708 23.14000000000001
    vertex -107.42846876612475 -7.069681346791708 23.00000000000001
  endloop
endfacet
facet normal 1.0 0.0 0.0
  outer loop
    vertex -107.42846876612475 -7.069681346791708 23.14000000000001
    vertex -107.42846876612475 -6.6737781648585095 23.00000000000001
    vertex -107.42846876612475 -6.6737781648585095 23.14000000000001
  endloop
endfacet
facet normal -1.101236183753694e-31 5.893296825878013e-31 -1.0
  outer loop
    vertex -105.72439685633225 -6.335136337935432 23.00000000000001
    vertex -105.43691385721787 -6.743244574271463 23.00000000000001
    vertex -105.85952424436361 -6.585436818704661 23.00000000000001
  endloop
endfacet
facet normal -1.101236183753694e-31 5.893296825878013e-31 -1.0
  outer loop
    vertex -105.43691385721787 -6.743244574271463 23.00000000000001
    vertex -105.72439685633225 -6.335136337935432 23.00000000000001
    vertex -105.52760765149924 -6.14378543965608 23.00000000000001
  endloop
endfacet
facet normal -1.101236183753694e-31 5.893296825878013e-31 -1.0
  outer loop
    vertex -105.43691385721787 -6.743244574271463 23.00000000000001
    vertex -105.52760765149924 -6.14378543965608 23.00000000000001
    vertex -105.26914279193447 -6.022260736973892 23.00000000000001
  endloop
endfacet
facet normal -1.101236183753694e-31 5.893296825878013e-31 -1.0
  outer loop
    vertex -105.43691385721787 -6.743244574271463 23.00000000000001
    vertex -105.26914279193447 -6.022260736973892 23.00000000000001
    vertex -105.34350090965968 -6.5904219330455005 23.00000000000001
  endloop
endfacet
facet normal -1.101236183753694e-31 5.893296825878013e-31 -1.0
  outer loop
    vertex -105.34350090965968 -6.5904219330455005 23.00000000000001
    vertex -105.26914279193447 -6.022260736973892 23.00000000000001
    vertex -105.23739858014297 -6.47297596027855 23.00000000000001
  endloop
endfacet
facet normal -1.101236183753694e-31 5.893296825878013e-31 -1.0
  outer loop
    vertex -105.23739858014297 -6.47297596027855 23.00000000000001
    vertex -105.26914279193447 -6.022260736973892 23.00000000000001
    vertex -104.94901611556807 -5.979639912075107 23.00000000000001
  endloop
endfacet
facet normal -1.101236183753694e-31 5.893296825878013e-31 -1.0
  outer loop
    vertex -105.23739858014297 -6.47297596027855 23.00000000000001
    vertex -104.94901611556807 -5.979639912075107 23.00000000000001
    vertex -105.11588079642587 -6.398157731375462 23.00000000000001
  endloop
endfacet
facet normal -1.101236183753694e-31 5.893296825878013e-31 -1.0
  outer loop
    vertex -105.11588079642587 -6.398157731375462 23.00000000000001
    vertex -104.94901611556807 -5.979639912075107 23.00000000000001
    vertex -104.97622148626644 -6.373218321741099 23.00000000000001
  endloop
endfacet
facet normal -1.101236183753694e-31 5.893296825878013e-31 -1.0
  outer loop
    vertex -104.97622148626644 -6.373218321741099 23.00000000000001
    vertex -104.94901611556807 -5.979639912075107 23.00000000000001
    vertex -104.84380633254682 -6.404962533532598 23.00000000000001
  endloop
endfacet
facet normal -1.101236183753694e-31 5.893296825878013e-31 -1.0
  outer loop
    vertex -104.84380633254682 -6.404962533532598 23.00000000000001
    vertex -104.94901611556807 -5.979639912075107 23.00000000000001
    vertex -104.75358302789094 -5.996643268761596 23.00000000000001
  endloop
endfacet
facet normal -1.101236183753694e-31 5.893296825878013e-31 -1.0
  outer loop
    vertex -104.84380633254682 -6.404962533532598 23.00000000000001
    vertex -104.75358302789094 -5.996643268761596 23.00000000000001
    vertex -104.74223592515816 -6.489304717869643 23.00000000000001
  endloop
endfacet
facet normal -1.101236183753694e-31 5.893296825878013e-31 -1.0
  outer loop
    vertex -104.74223592515816 -6.489304717869643 23.00000000000001
    vertex -104.75358302789094 -5.996643268761596 23.00000000000001
    vertex -104.58081646981908 -6.04765333882106 23.00000000000001
  endloop
endfacet
facet normal -1.101236183753694e-31 5.893296825878013e-31 -1.0
  outer loop
    vertex -104.74223592515816 -6.489304717869643 23.00000000000001
    vertex -104.58081646981908 -6.04765333882106 23.00000000000001
    vertex -104.67784803611463 -6.608103348309925 23.00000000000001
  endloop
endfacet
facet normal -1.101236183753694e-31 5.893296825878013e-31 -1.0
  outer loop
    vertex -104.67784803611463 -6.608103348309925 23.00000000000001
    vertex -104.58081646981908 -6.04765333882106 23.00000000000001
    vertex -104.65518150650936 -6.741417967490088 23.00000000000001
  endloop
endfacet
facet normal -1.101236183753694e-31 5.893296825878013e-31 -1.0
  outer loop
    vertex -105.01250453915107 -7.325461647905068 23.00000000000001
    vertex -105.1993165963373 -8.368371092490086 23.00000000000001
    vertex -105.2101932094446 -7.544917382343325 23.00000000000001
  endloop
endfacet
facet normal -1.101236183753694e-31 5.893296825878013e-31 -1.0
  outer loop
    vertex -105.1993165963373 -8.368371092490086 23.00000000000001
    vertex -105.01250453915107 -7.325461647905068 23.00000000000001
    vertex -105.08776904130187 -8.22689209451438 23.00000000000001
  endloop
endfacet
facet normal -1.101236183753694e-31 5.893296825878013e-31 -1.0
  outer loop
    vertex -105.08776904130187 -8.22689209451438 23.00000000000001
    vertex -105.01250453915107 -7.325461647905068 23.00000000000001
    vertex -104.92816235481402 -8.040080037328146 23.00000000000001
  endloop
endfacet
facet normal -1.101236183753694e-31 5.893296825878013e-31 -1.0
  outer loop
    vertex -104.92816235481402 -8.040080037328146 23.00000000000001
    vertex -105.01250453915107 -7.325461647905068 23.00000000000001
    vertex -104.84563293932818 -7.147713434974906 23.00000000000001
  endloop
endfacet
facet normal -1.101236183753694e-31 5.893296825878013e-31 -1.0
  outer loop
    vertex -104.92816235481402 -8.040080037328146 23.00000000000001
    vertex -104.84563293932818 -7.147713434974906 23.00000000000001
    vertex -104.74314922854884 -7.826048771513366 23.00000000000001
  endloop
endfacet
facet normal -1.101236183753694e-31 5.893296825878013e-31 -1.0
  outer loop
    vertex -104.74314922854884 -7.826048771513366 23.00000000000001
    vertex -104.84563293932818 -7.147713434974906 23.00000000000001
    vertex -104.73498484975329 -7.013485512404055 23.00000000000001
  endloop
endfacet
facet normal -1.101236183753694e-31 5.893296825878013e-31 -1.0
  outer loop
    vertex -104.74314922854884 -7.826048771513366 23.00000000000001
    vertex -104.73498484975329 -7.013485512404055 23.00000000000001
    vertex -104.55541003004176 -7.604766430293733 23.00000000000001
  endloop
endfacet
facet normal -1.101236183753694e-31 5.893296825878013e-31 -1.0
  outer loop
    vertex -104.55541003004176 -7.604766430293733 23.00000000000001
    vertex -104.73498484975329 -7.013485512404055 23.00000000000001
    vertex -104.67422249841219 -6.889234737479966 23.00000000000001
  endloop
endfacet
facet normal -1.101236183753694e-31 5.893296825878013e-31 -1.0
  outer loop
    vertex -104.55541003004176 -7.604766430293733 23.00000000000001
    vertex -104.67422249841219 -6.889234737479966 23.00000000000001
    vertex -104.65518150650936 -6.741417967490088 23.00000000000001
  endloop
endfacet
facet normal -1.101236183753694e-31 5.893296825878013e-31 -1.0
  outer loop
    vertex -104.55541003004176 -7.604766430293733 23.00000000000001
    vertex -104.65518150650936 -6.741417967490088 23.00000000000001
    vertex -104.58081646981908 -6.04765333882106 23.00000000000001
  endloop
endfacet
facet normal -1.101236183753694e-31 5.893296825878013e-31 -1.0
  outer loop
    vertex -104.55541003004176 -7.604766430293733 23.00000000000001
    vertex -104.58081646981908 -6.04765333882106 23.00000000000001
    vertex -104.43185461110829 -6.126321971791706 23.00000000000001
  endloop
endfacet
facet normal -1.101236183753694e-31 5.893296825878013e-31 -1.0
  outer loop
    vertex -104.55541003004176 -7.604766430293733 23.00000000000001
    vertex -104.43185461110829 -6.126321971791706 23.00000000000001
    vertex -104.37948842389297 -7.3980000778139745 23.00000000000001
  endloop
endfacet
facet normal -1.101236183753694e-31 5.893296825878013e-31 -1.0
  outer loop
    vertex -104.37948842389297 -7.3980000778139745 23.00000000000001
    vertex -104.43185461110829 -6.126321971791706 23.00000000000001
    vertex -104.30783562151443 -6.226301017211748 23.00000000000001
  endloop
endfacet
facet normal -1.101236183753694e-31 5.893296825878013e-31 -1.0
  outer loop
    vertex -104.37948842389297 -7.3980000778139745 23.00000000000001
    vertex -104.30783562151443 -6.226301017211748 23.00000000000001
    vertex -104.22713281280998 -7.201210872980979 23.00000000000001
  endloop
endfacet
facet normal -1.101236183753694e-31 5.893296825878013e-31 -1.0
  outer loop
    vertex -104.22713281280998 -7.201210872980979 23.00000000000001
    vertex -104.30783562151443 -6.226301017211748 23.00000000000001
    vertex -104.20966588546305 -6.344421589074095 23.00000000000001
  endloop
endfacet
facet normal -1.101236183753694e-31 5.893296825878013e-31 -1.0
  outer loop
    vertex -104.22713281280998 -7.201210872980979 23.00000000000001
    vertex -104.20966588546305 -6.344421589074095 23.00000000000001
    vertex -104.12012409886766 -6.995343985961748 23.00000000000001
  endloop
endfacet
facet normal -1.101236183753694e-31 5.893296825878013e-31 -1.0
  outer loop
    vertex -104.12012409886766 -6.995343985961748 23.00000000000001
    vertex -104.20966588546305 -6.344421589074095 23.00000000000001
    vertex -104.1382517873798 -6.477514801371667 23.00000000000001
  endloop
endfacet
facet normal -1.101236183753694e-31 5.893296825878013e-31 -1.0
  outer loop
    vertex -104.12012409886766 -6.995343985961748 23.00000000000001
    vertex -104.1382517873798 -6.477514801371667 23.00000000000001
    vertex -104.09472457805542 -6.618768932982243 23.00000000000001
  endloop
endfacet
facet normal -1.101236183753694e-31 5.893296825878013e-31 -1.0
  outer loop
    vertex -104.12012409886766 -6.995343985961748 23.00000000000001
    vertex -104.09472457805542 -6.618768932982243 23.00000000000001
    vertex -104.08021550828062 -6.76137226278361 23.00000000000001
  endloop
endfacet
facet normal -1.101236183753694e-31 5.893296825878013e-31 -1.0
  outer loop
    vertex -105.66998611493547 -8.104454088441504 23.00000000000001
    vertex -105.86677531976848 -8.73111859375527 23.00000000000001
    vertex -105.86677531976848 -8.386498781002233 23.00000000000001
  endloop
endfacet
facet normal -1.101236183753694e-31 5.893296825878013e-31 -1.0
  outer loop
    vertex -105.86677531976848 -8.73111859375527 23.00000000000001
    vertex -105.66998611493547 -8.104454088441504 23.00000000000001
    vertex -105.1993165963373 -8.368371092490086 23.00000000000001
  endloop
endfacet
facet normal -1.101236183753694e-31 5.893296825878013e-31 -1.0
  outer loop
    vertex -105.86677531976848 -8.73111859375527 23.00000000000001
    vertex -105.1993165963373 -8.368371092490086 23.00000000000001
    vertex -104.03488244907011 -8.73111859375527 23.00000000000001
  endloop
endfacet
facet normal -1.101236183753694e-31 5.893296825878013e-31 -1.0
  outer loop
    vertex -105.1993165963373 -8.368371092490086 23.00000000000001
    vertex -105.66998611493547 -8.104454088441504 23.00000000000001
    vertex -105.44053939492031 -7.814258855015391 23.00000000000001
  endloop
endfacet
facet normal -1.101236183753694e-31 5.893296825878013e-31 -1.0
  outer loop
    vertex -105.1993165963373 -8.368371092490086 23.00000000000001
    vertex -105.44053939492031 -7.814258855015391 23.00000000000001
    vertex -105.2101932094446 -7.544917382343325 23.00000000000001
  endloop
endfacet
facet normal -1.101236183753694e-31 5.893296825878013e-31 -1.0
  outer loop
    vertex -104.03488244907011 -8.73111859375527 23.00000000000001
    vertex -105.1993165963373 -8.368371092490086 23.00000000000001
    vertex -104.03488244907011 -8.368371092490086 23.00000000000001
  endloop
endfacet
facet normal 0.0 0.0 -1.0
  outer loop
    vertex -112.53145459608426 -5.975045719261343 23.00000000000001
    vertex -112.25765730990007 -8.730426697247172 23.00000000000001
    vertex -113.11596876612477 -6.011301096285632 23.00000000000001
  endloop
endfacet
facet normal 0.0 0.0 -1.0
  outer loop
    vertex -112.25765730990007 -8.730426697247172 23.00000000000001
    vertex -112.53145459608426 -5.975045719261343 23.00000000000001
    vertex -112.07253348019358 -7.46148850139697 23.00000000000001
  endloop
endfacet
facet normal 0.0 0.0 -1.0
  outer loop
    vertex -112.25765730990007 -8.730426697247172 23.00000000000001
    vertex -112.07253348019358 -7.46148850139697 23.00000000000001
    vertex -111.9763875414284 -8.259106795931382 23.00000000000001
  endloop
endfacet
facet normal 0.0 0.0 -1.0
  outer loop
    vertex -112.25765730990007 -8.730426697247172 23.00000000000001
    vertex -111.9763875414284 -8.259106795931382 23.00000000000001
    vertex -111.61889845362475 -8.761229929787659 23.00000000000001
  endloop
endfacet
facet normal 0.0 0.0 -1.0
  outer loop
    vertex -111.61889845362475 -8.761229929787659 23.00000000000001
    vertex -111.9763875414284 -8.259106795931382 23.00000000000001
    vertex -111.84943837012273 -7.4610456876317865 23.00000000000001
  endloop
endfacet
facet normal 0.0 0.0 -1.0
  outer loop
    vertex -111.61889845362475 -8.761229929787659 23.00000000000001
    vertex -111.84943837012273 -7.4610456876317865 23.00000000000001
    vertex -111.3996226122786 -6.010028006710736 23.00000000000001
  endloop
endfacet
facet normal 0.0 0.0 -1.0
  outer loop
    vertex -111.61889845362475 -8.761229929787659 23.00000000000001
    vertex -111.3996226122786 -6.010028006710736 23.00000000000001
    vertex -111.5680855740701 -8.367872927004257 23.00000000000001
  endloop
endfacet
facet normal 0.0 0.0 -1.0
  outer loop
    vertex -111.5680855740701 -8.367872927004257 23.00000000000001
    vertex -111.3996226122786 -6.010028006710736 23.00000000000001
    vertex -110.81865095235956 -6.010028006710736 23.00000000000001
  endloop
endfacet
facet normal 0.0 0.0 -1.0
  outer loop
    vertex -108.57624204547696 -5.975045719261343 23.00000000000001
    vertex -109.20326633697495 -7.069681346791708 23.00000000000001
    vertex -109.20326633697495 -6.011301096285632 23.00000000000001
  endloop
endfacet
facet normal 0.0 0.0 -1.0
  outer loop
    vertex -109.20326633697495 -7.069681346791708 23.00000000000001
    vertex -108.57624204547696 -5.975045719261343 23.00000000000001
    vertex -109.20326633697495 -7.482383775941504 23.00000000000001
  endloop
endfacet
facet normal 0.0 0.0 -1.0
  outer loop
    vertex -109.20326633697495 -7.482383775941504 23.00000000000001
    vertex -108.57624204547696 -5.975045719261343 23.00000000000001
    vertex -109.20326633697495 -8.73111859375527 23.00000000000001
  endloop
endfacet
facet normal 0.0 0.0 -1.0
  outer loop
    vertex -109.20326633697495 -8.73111859375527 23.00000000000001
    vertex -108.57624204547696 -5.975045719261343 23.00000000000001
    vertex -108.57624204547696 -8.73111859375527 23.00000000000001
  endloop
endfacet
facet normal 0.0 0.0 -1.0
  outer loop
    vertex -109.20326633697495 -7.069681346791708 23.00000000000001
    vertex -110.012729899728 -7.482383775941504 23.00000000000001
    vertex -110.012729899728 -7.069681346791708 23.00000000000001
  endloop
endfacet
facet normal 0.0 0.0 -1.0
  outer loop
    vertex -110.012729899728 -7.482383775941504 23.00000000000001
    vertex -109.20326633697495 -7.069681346791708 23.00000000000001
    vertex -109.20326633697495 -7.482383775941504 23.00000000000001
  endloop
endfacet
facet normal 0.0 0.0 -1.0
  outer loop
    vertex -110.012729899728 -5.975045719261343 23.00000000000001
    vertex -110.64152544628668 -6.441051855394946 23.00000000000001
    vertex -110.6977351186045 -6.011301096285632 23.00000000000001
  endloop
endfacet
facet normal 0.0 0.0 -1.0
  outer loop
    vertex -110.64152544628668 -6.441051855394946 23.00000000000001
    vertex -110.012729899728 -5.975045719261343 23.00000000000001
    vertex -110.64152544628668 -8.73111859375527 23.00000000000001
  endloop
endfacet
facet normal 0.0 0.0 -1.0
  outer loop
    vertex -110.64152544628668 -8.73111859375527 23.00000000000001
    vertex -110.012729899728 -5.975045719261343 23.00000000000001
    vertex -110.012729899728 -8.73111859375527 23.00000000000001
  endloop
endfacet
facet normal 0.0 0.0 -1.0
  outer loop
    vertex -110.012729899728 -8.73111859375527 23.00000000000001
    vertex -110.012729899728 -5.975045719261343 23.00000000000001
    vertex -110.012729899728 -7.069681346791708 23.00000000000001
  endloop
endfacet
facet normal 0.0 0.0 -1.0
  outer loop
    vertex -110.012729899728 -8.73111859375527 23.00000000000001
    vertex -110.012729899728 -7.069681346791708 23.00000000000001
    vertex -110.012729899728 -7.482383775941504 23.00000000000001
  endloop
endfacet
facet normal 0.0 0.0 -1.0
  outer loop
    vertex -106.3108068228049 -6.010470820475916 23.00000000000001
    vertex -108.06434933292637 -6.440332283026525 23.00000000000001
    vertex -108.12783775650936 -6.010470820475916 23.00000000000001
  endloop
endfacet
facet normal 0.0 0.0 -1.0
  outer loop
    vertex -108.06434933292637 -6.440332283026525 23.00000000000001
    vertex -106.3108068228049 -6.010470820475916 23.00000000000001
    vertex -107.45567413682313 -6.423173249625715 23.00000000000001
  endloop
endfacet
facet normal 0.0 0.0 -1.0
  outer loop
    vertex -108.06434933292637 -6.440332283026525 23.00000000000001
    vertex -107.45567413682313 -6.423173249625715 23.00000000000001
    vertex -108.06434933292637 -8.73111859375527 23.00000000000001
  endloop
endfacet
facet normal 0.0 0.0 -1.0
  outer loop
    vertex -107.45567413682313 -6.423173249625715 23.00000000000001
    vertex -106.3108068228049 -6.010470820475916 23.00000000000001
    vertex -106.3597930955782 -6.423173249625715 23.00000000000001
  endloop
endfacet
facet normal 0.0 0.0 -1.0
  outer loop
    vertex -106.49678860418143 -7.069681346791708 23.00000000000001
    vertex -107.42846876612475 -7.4558149500305735 23.00000000000001
    vertex -107.42846876612475 -7.069681346791708 23.00000000000001
  endloop
endfacet
facet normal 0.0 0.0 -1.0
  outer loop
    vertex -107.42846876612475 -7.4558149500305735 23.00000000000001
    vertex -106.49678860418143 -7.069681346791708 23.00000000000001
    vertex -106.49678860418143 -7.4558149500305735 23.00000000000001
  endloop
endfacet
facet normal 0.0 0.0 -1.0
  outer loop
    vertex -107.45567413682313 -6.423173249625715 23.00000000000001
    vertex -107.42846876612475 -8.73111859375527 23.00000000000001
    vertex -108.06434933292637 -8.73111859375527 23.00000000000001
  endloop
endfacet
facet normal 0.0 0.0 -1.0
  outer loop
    vertex -107.42846876612475 -8.73111859375527 23.00000000000001
    vertex -107.45567413682313 -6.423173249625715 23.00000000000001
    vertex -107.42846876612475 -6.6737781648585095 23.00000000000001
  endloop
endfacet
facet normal 0.0 0.0 -1.0
  outer loop
    vertex -107.42846876612475 -8.73111859375527 23.00000000000001
    vertex -107.42846876612475 -6.6737781648585095 23.00000000000001
    vertex -107.42846876612475 -7.069681346791708 23.00000000000001
  endloop
endfacet
facet normal 0.0 0.0 -1.0
  outer loop
    vertex -107.42846876612475 -8.73111859375527 23.00000000000001
    vertex -107.42846876612475 -7.069681346791708 23.00000000000001
    vertex -107.42846876612475 -7.4558149500305735 23.00000000000001
  endloop
endfacet
endsolid RMP_Front
