solid RMP_Front
facet normal 1.0 0.0 0.0
  outer loop
    vertex -103.05643003666951 -2.6620344858384946 12.999999999999998
    vertex -103.05643003666951 -11.862034485838489 22.440000000000005
    vertex -103.05643003666951 -11.862034485838489 12.999999999999998
  endloop
endfacet
facet normal 1.0 0.0 0.0
  outer loop
    vertex -103.05643003666951 -11.862034485838489 22.440000000000005
    vertex -103.05643003666951 -2.6620344858384946 12.999999999999998
    vertex -103.05643003666951 -2.6620344858384946 22.440000000000005
  endloop
endfacet
facet normal -1.0 0.0 0.0
  outer loop
    vertex -113.85643003666951 -2.6620344858384946 22.440000000000005
    vertex -113.85643003666951 -11.862034485838489 12.999999999999998
    vertex -113.85643003666951 -11.862034485838489 22.440000000000005
  endloop
endfacet
facet normal -1.0 0.0 0.0
  outer loop
    vertex -113.85643003666951 -11.862034485838489 12.999999999999998
    vertex -113.85643003666951 -2.6620344858384946 22.440000000000005
    vertex -113.85643003666951 -2.6620344858384946 12.999999999999998
  endloop
endfacet
facet normal 0.0 0.0 1.0
  outer loop
    vertex -106.49678860418143 -7.069681346791707 22.440000000000005
    vertex -107.42846876612475 -6.67377816485851 22.440000000000005
    vertex -107.42846876612475 -7.069681346791707 22.440000000000005
  endloop
endfacet
facet normal 0.0 0.0 1.0
  outer loop
    vertex -105.66998611493547 -8.104454088441507 22.440000000000005
    vertex -105.85952424436363 -6.585436818704655 22.440000000000005
    vertex -105.86677531976848 -8.386498781002237 22.440000000000005
  endloop
endfacet
facet normal 0.0 0.0 1.0
  outer loop
    vertex -105.85952424436363 -6.585436818704655 22.440000000000005
    vertex -105.66998611493547 -8.104454088441507 22.440000000000005
    vertex -105.43691385721792 -6.743244574271446 22.440000000000005
  endloop
endfacet
facet normal 0.0 0.0 1.0
  outer loop
    vertex -105.43691385721792 -6.743244574271446 22.440000000000005
    vertex -105.66998611493547 -8.104454088441507 22.440000000000005
    vertex -105.44053939492031 -7.814258855015393 22.440000000000005
  endloop
endfacet
facet normal 0.0 0.0 1.0
  outer loop
    vertex -105.43691385721792 -6.743244574271446 22.440000000000005
    vertex -105.44053939492031 -7.814258855015393 22.440000000000005
    vertex -105.2101932094446 -7.544917382343327 22.440000000000005
  endloop
endfacet
facet normal 0.0 0.0 1.0
  outer loop
    vertex -105.43691385721792 -6.743244574271446 22.440000000000005
    vertex -105.2101932094446 -7.544917382343327 22.440000000000005
    vertex -105.34350090965968 -6.590421933045505 22.440000000000005
  endloop
endfacet
facet normal 0.0 0.0 1.0
  outer loop
    vertex -105.34350090965968 -6.590421933045505 22.440000000000005
    vertex -105.2101932094446 -7.544917382343327 22.440000000000005
    vertex -105.23739858014297 -6.472975960278547 22.440000000000005
  endloop
endfacet
facet normal 0.0 0.0 1.0
  outer loop
    vertex -105.23739858014297 -6.472975960278547 22.440000000000005
    vertex -105.2101932094446 -7.544917382343327 22.440000000000005
    vertex -105.11588079642587 -6.398157731375465 22.440000000000005
  endloop
endfacet
facet normal 0.0 0.0 1.0
  outer loop
    vertex -105.11588079642587 -6.398157731375465 22.440000000000005
    vertex -105.2101932094446 -7.544917382343327 22.440000000000005
    vertex -105.01250453915107 -7.325461647905063 22.440000000000005
  endloop
endfacet
facet normal 0.0 0.0 1.0
  outer loop
    vertex -105.11588079642587 -6.398157731375465 22.440000000000005
    vertex -105.01250453915107 -7.325461647905063 22.440000000000005
    vertex -104.97622148626644 -6.373218321741096 22.440000000000005
  endloop
endfacet
facet normal 0.0 0.0 1.0
  outer loop
    vertex -104.97622148626644 -6.373218321741096 22.440000000000005
    vertex -105.01250453915107 -7.325461647905063 22.440000000000005
    vertex -104.84563293932821 -7.147713434974895 22.440000000000005
  endloop
endfacet
facet normal 0.0 0.0 1.0
  outer loop
    vertex -104.97622148626644 -6.373218321741096 22.440000000000005
    vertex -104.84563293932821 -7.147713434974895 22.440000000000005
    vertex -104.8438063325468 -6.404962533532592 22.440000000000005
  endloop
endfacet
facet normal 0.0 0.0 1.0
  outer loop
    vertex -104.8438063325468 -6.404962533532592 22.440000000000005
    vertex -104.84563293932821 -7.147713434974895 22.440000000000005
    vertex -104.73498484975329 -7.013485512404051 22.440000000000005
  endloop
endfacet
facet normal 0.0 0.0 1.0
  outer loop
    vertex -104.8438063325468 -6.404962533532592 22.440000000000005
    vertex -104.73498484975329 -7.013485512404051 22.440000000000005
    vertex -104.74223592515817 -6.489304717869618 22.440000000000005
  endloop
endfacet
facet normal 0.0 0.0 1.0
  outer loop
    vertex -104.74223592515817 -6.489304717869618 22.440000000000005
    vertex -104.73498484975329 -7.013485512404051 22.440000000000005
    vertex -104.67784803611461 -6.608103348309922 22.440000000000005
  endloop
endfacet
facet normal 0.0 0.0 1.0
  outer loop
    vertex -104.67784803611461 -6.608103348309922 22.440000000000005
    vertex -104.73498484975329 -7.013485512404051 22.440000000000005
    vertex -104.67422249841219 -6.889234737479964 22.440000000000005
  endloop
endfacet
facet normal 0.0 0.0 1.0
  outer loop
    vertex -104.67784803611461 -6.608103348309922 22.440000000000005
    vertex -104.67422249841219 -6.889234737479964 22.440000000000005
    vertex -104.65518150650938 -6.741417967490086 22.440000000000005
  endloop
endfacet
facet normal 0.0 0.0 1.0
  outer loop
    vertex -104.03488244907011 -8.368371092490086 22.440000000000005
    vertex -105.08776904130187 -8.226892094514374 22.440000000000005
    vertex -105.1993165963373 -8.368371092490083 22.440000000000005
  endloop
endfacet
facet normal 0.0 0.0 1.0
  outer loop
    vertex -105.08776904130187 -8.226892094514374 22.440000000000005
    vertex -104.03488244907011 -8.368371092490086 22.440000000000005
    vertex -104.92816235481405 -8.04008003732813 22.440000000000005
  endloop
endfacet
facet normal 0.0 0.0 1.0
  outer loop
    vertex -104.92816235481405 -8.04008003732813 22.440000000000005
    vertex -104.03488244907011 -8.368371092490086 22.440000000000005
    vertex -104.74314922854884 -7.826048771513373 22.440000000000005
  endloop
endfacet
facet normal 0.0 0.0 1.0
  outer loop
    vertex -104.74314922854884 -7.826048771513373 22.440000000000005
    vertex -104.03488244907011 -8.368371092490086 22.440000000000005
    vertex -104.55541003004176 -7.604766430293729 22.44
  endloop
endfacet
facet normal 0.0 0.0 1.0
  outer loop
    vertex -104.55541003004176 -7.604766430293729 22.44
    vertex -104.03488244907011 -8.368371092490086 22.440000000000005
    vertex -104.37948842389297 -7.398000077813967 22.440000000000005
  endloop
endfacet
facet normal 0.0 0.0 1.0
  outer loop
    vertex -104.37948842389297 -7.398000077813967 22.440000000000005
    vertex -104.03488244907011 -8.368371092490086 22.440000000000005
    vertex -104.22713281280998 -7.201210872980978 22.440000000000005
  endloop
endfacet
facet normal 0.0 0.0 1.0
  outer loop
    vertex -104.22713281280998 -7.201210872980978 22.440000000000005
    vertex -104.03488244907011 -8.368371092490086 22.440000000000005
    vertex -104.12012409886768 -6.995343985961743 22.44
  endloop
endfacet
facet normal 0.0 0.0 1.0
  outer loop
    vertex -104.12012409886768 -6.995343985961743 22.44
    vertex -104.03488244907011 -8.368371092490086 22.440000000000005
    vertex -104.08021550828062 -6.76137226278361 22.440000000000005
  endloop
endfacet
facet normal 0.0 0.0 1.0
  outer loop
    vertex -113.85643003666951 -11.862034485838489 22.440000000000005
    vertex -113.11596876612474 -6.011301096285628 22.440000000000005
    vertex -113.85643003666951 -2.6620344858384946 22.440000000000005
  endloop
endfacet
facet normal 0.0 0.0 1.0
  outer loop
    vertex -113.11596876612474 -6.011301096285628 22.440000000000005
    vertex -113.85643003666951 -11.862034485838489 22.440000000000005
    vertex -112.25765730990004 -8.730426697247166 22.440000000000005
  endloop
endfacet
facet normal 0.0 0.0 1.0
  outer loop
    vertex -112.25765730990004 -8.730426697247166 22.440000000000005
    vertex -113.85643003666951 -11.862034485838489 22.440000000000005
    vertex -103.05643003666951 -11.862034485838489 22.440000000000005
  endloop
endfacet
facet normal 0.0 0.0 1.0
  outer loop
    vertex -112.25765730990004 -8.730426697247166 22.440000000000005
    vertex -103.05643003666951 -11.862034485838489 22.440000000000005
    vertex -111.61889845362477 -8.761229929787659 22.440000000000005
  endloop
endfacet
facet normal 0.0 0.0 1.0
  outer loop
    vertex -111.61889845362477 -8.761229929787659 22.440000000000005
    vertex -103.05643003666951 -11.862034485838489 22.440000000000005
    vertex -111.5680855740701 -8.367872927004258 22.440000000000005
  endloop
endfacet
facet normal 0.0 0.0 1.0
  outer loop
    vertex -111.5680855740701 -8.367872927004258 22.440000000000005
    vertex -103.05643003666951 -11.862034485838489 22.440000000000005
    vertex -110.64152544628668 -8.73111859375527 22.440000000000005
  endloop
endfacet
facet normal 0.0 0.0 1.0
  outer loop
    vertex -111.5680855740701 -8.367872927004258 22.440000000000005
    vertex -110.64152544628668 -8.73111859375527 22.440000000000005
    vertex -110.81865095235956 -6.010028006710734 22.440000000000005
  endloop
endfacet
facet normal 0.0 0.0 1.0
  outer loop
    vertex -110.81865095235956 -6.010028006710734 22.440000000000005
    vertex -110.64152544628668 -8.73111859375527 22.440000000000005
    vertex -110.6977351186045 -6.011301096285635 22.440000000000005
  endloop
endfacet
facet normal 0.0 0.0 1.0
  outer loop
    vertex -110.6977351186045 -6.011301096285635 22.440000000000005
    vertex -110.64152544628668 -8.73111859375527 22.440000000000005
    vertex -110.6415254462867 -6.441051855394946 22.440000000000005
  endloop
endfacet
facet normal 0.0 0.0 1.0
  outer loop
    vertex -110.64152544628668 -8.73111859375527 22.440000000000005
    vertex -103.05643003666951 -11.862034485838489 22.440000000000005
    vertex -110.012729899728 -8.73111859375527 22.440000000000005
  endloop
endfacet
facet normal 0.0 0.0 1.0
  outer loop
    vertex -110.012729899728 -8.73111859375527 22.440000000000005
    vertex -103.05643003666951 -11.862034485838489 22.440000000000005
    vertex -109.20326633697495 -8.73111859375527 22.440000000000005
  endloop
endfacet
facet normal 0.0 0.0 1.0
  outer loop
    vertex -110.012729899728 -8.73111859375527 22.440000000000005
    vertex -109.20326633697495 -8.73111859375527 22.440000000000005
    vertex -110.012729899728 -7.482383775941504 22.440000000000005
  endloop
endfacet
facet normal 0.0 0.0 1.0
  outer loop
    vertex -109.20326633697495 -8.73111859375527 22.440000000000005
    vertex -103.05643003666951 -11.862034485838489 22.440000000000005
    vertex -108.57624204547696 -8.73111859375527 22.440000000000005
  endloop
endfacet
facet normal 0.0 0.0 1.0
  outer loop
    vertex -108.57624204547696 -8.73111859375527 22.440000000000005
    vertex -103.05643003666951 -11.862034485838489 22.440000000000005
    vertex -108.06434933292637 -8.73111859375527 22.440000000000005
  endloop
endfacet
facet normal 0.0 0.0 1.0
  outer loop
    vertex -108.57624204547696 -8.73111859375527 22.440000000000005
    vertex -108.06434933292637 -8.73111859375527 22.440000000000005
    vertex -108.12783775650936 -6.010470820475915 22.440000000000005
  endloop
endfacet
facet normal 0.0 0.0 1.0
  outer loop
    vertex -108.06434933292637 -8.73111859375527 22.440000000000005
    vertex -103.05643003666951 -11.862034485838489 22.440000000000005
    vertex -107.42846876612475 -8.73111859375527 22.440000000000005
  endloop
endfacet
facet normal 0.0 0.0 1.0
  outer loop
    vertex -107.42846876612475 -8.73111859375527 22.440000000000005
    vertex -103.05643003666951 -11.862034485838489 22.440000000000005
    vertex -107.42846876612475 -7.455814950030573 22.440000000000005
  endloop
endfacet
facet normal 0.0 0.0 1.0
  outer loop
    vertex -107.42846876612475 -7.455814950030573 22.440000000000005
    vertex -103.05643003666951 -11.862034485838489 22.440000000000005
    vertex -105.86677531976848 -8.73111859375527 22.440000000000005
  endloop
endfacet
facet normal 0.0 0.0 1.0
  outer loop
    vertex -107.42846876612475 -7.455814950030573 22.440000000000005
    vertex -105.86677531976848 -8.73111859375527 22.440000000000005
    vertex -106.49678860418143 -7.455814950030573 22.440000000000005
  endloop
endfacet
facet normal 0.0 0.0 1.0
  outer loop
    vertex -106.49678860418143 -7.455814950030573 22.440000000000005
    vertex -105.86677531976848 -8.73111859375527 22.440000000000005
    vertex -106.49678860418143 -7.069681346791707 22.440000000000005
  endloop
endfacet
facet normal 0.0 0.0 1.0
  outer loop
    vertex -106.49678860418143 -7.069681346791707 22.440000000000005
    vertex -105.86677531976848 -8.73111859375527 22.440000000000005
    vertex -106.3597930955782 -6.423173249625716 22.440000000000005
  endloop
endfacet
facet normal 0.0 0.0 1.0
  outer loop
    vertex -106.3597930955782 -6.423173249625716 22.440000000000005
    vertex -105.86677531976848 -8.73111859375527 22.440000000000005
    vertex -106.3108068228049 -6.010470820475917 22.440000000000005
  endloop
endfacet
facet normal 0.0 0.0 1.0
  outer loop
    vertex -105.86677531976848 -8.73111859375527 22.440000000000005
    vertex -103.05643003666951 -11.862034485838489 22.440000000000005
    vertex -104.03488244907011 -8.73111859375527 22.440000000000005
  endloop
endfacet
facet normal 0.0 0.0 1.0
  outer loop
    vertex -104.03488244907011 -8.73111859375527 22.440000000000005
    vertex -103.05643003666951 -11.862034485838489 22.440000000000005
    vertex -104.03488244907011 -8.368371092490086 22.440000000000005
  endloop
endfacet
facet normal 0.0 0.0 1.0
  outer loop
    vertex -113.11596876612474 -6.011301096285628 22.440000000000005
    vertex -103.05643003666951 -2.6620344858384946 22.440000000000005
    vertex -113.85643003666951 -2.6620344858384946 22.440000000000005
  endloop
endfacet
facet normal 0.0 0.0 1.0
  outer loop
    vertex -103.05643003666951 -2.6620344858384946 22.440000000000005
    vertex -113.11596876612474 -6.011301096285628 22.440000000000005
    vertex -112.5314545960843 -5.9750457192613435 22.440000000000005
  endloop
endfacet
facet normal 0.0 0.0 1.0
  outer loop
    vertex -103.05643003666951 -2.6620344858384946 22.440000000000005
    vertex -112.5314545960843 -5.9750457192613435 22.440000000000005
    vertex -111.39962261227858 -6.01002800671074 22.440000000000005
  endloop
endfacet
facet normal 0.0 0.0 1.0
  outer loop
    vertex -111.39962261227858 -6.01002800671074 22.440000000000005
    vertex -112.5314545960843 -5.9750457192613435 22.440000000000005
    vertex -112.07253348019358 -7.461488501396976 22.44000000000001
  endloop
endfacet
facet normal 0.0 0.0 1.0
  outer loop
    vertex -111.39962261227858 -6.01002800671074 22.440000000000005
    vertex -112.07253348019358 -7.461488501396976 22.44000000000001
    vertex -111.84943837012271 -7.461045687631793 22.440000000000005
  endloop
endfacet
facet normal 0.0 0.0 1.0
  outer loop
    vertex -111.84943837012271 -7.461045687631793 22.440000000000005
    vertex -112.07253348019358 -7.461488501396976 22.44000000000001
    vertex -111.9763875414284 -8.259106795931386 22.440000000000005
  endloop
endfacet
facet normal 0.0 0.0 1.0
  outer loop
    vertex -103.05643003666951 -2.6620344858384946 22.440000000000005
    vertex -111.39962261227858 -6.01002800671074 22.440000000000005
    vertex -110.81865095235956 -6.010028006710734 22.440000000000005
  endloop
endfacet
facet normal 0.0 0.0 1.0
  outer loop
    vertex -103.05643003666951 -2.6620344858384946 22.440000000000005
    vertex -110.81865095235956 -6.010028006710734 22.440000000000005
    vertex -110.6977351186045 -6.011301096285635 22.440000000000005
  endloop
endfacet
facet normal 0.0 0.0 1.0
  outer loop
    vertex -103.05643003666951 -2.6620344858384946 22.440000000000005
    vertex -110.6977351186045 -6.011301096285635 22.440000000000005
    vertex -110.012729899728 -5.975045719261342 22.440000000000005
  endloop
endfacet
facet normal 0.0 0.0 1.0
  outer loop
    vertex -103.05643003666951 -2.6620344858384946 22.440000000000005
    vertex -110.012729899728 -5.975045719261342 22.440000000000005
    vertex -109.20326633697499 -6.011301096285636 22.440000000000005
  endloop
endfacet
facet normal 0.0 0.0 1.0
  outer loop
    vertex -103.05643003666951 -2.6620344858384946 22.440000000000005
    vertex -109.20326633697499 -6.011301096285636 22.440000000000005
    vertex -108.57624204547702 -5.9750457192613435 22.440000000000005
  endloop
endfacet
facet normal 0.0 0.0 1.0
  outer loop
    vertex -103.05643003666951 -2.6620344858384946 22.440000000000005
    vertex -108.57624204547702 -5.9750457192613435 22.440000000000005
    vertex -108.12783775650936 -6.010470820475915 22.440000000000005
  endloop
endfacet
facet normal 0.0 0.0 1.0
  outer loop
    vertex -108.12783775650936 -6.010470820475915 22.440000000000005
    vertex -108.57624204547702 -5.9750457192613435 22.440000000000005
    vertex -108.57624204547696 -8.73111859375527 22.440000000000005
  endloop
endfacet
facet normal 0.0 0.0 1.0
  outer loop
    vertex -103.05643003666951 -2.6620344858384946 22.440000000000005
    vertex -108.12783775650936 -6.010470820475915 22.440000000000005
    vertex -106.3108068228049 -6.010470820475917 22.440000000000005
  endloop
endfacet
facet normal 0.0 0.0 1.0
  outer loop
    vertex -103.05643003666951 -2.6620344858384946 22.440000000000005
    vertex -106.3108068228049 -6.010470820475917 22.440000000000005
    vertex -105.72439685633225 -6.33513633793544 22.440000000000005
  endloop
endfacet
facet normal 0.0 0.0 1.0
  outer loop
    vertex -105.72439685633225 -6.33513633793544 22.440000000000005
    vertex -106.3108068228049 -6.010470820475917 22.440000000000005
    vertex -105.85952424436363 -6.585436818704655 22.440000000000005
  endloop
endfacet
facet normal 0.0 0.0 1.0
  outer loop
    vertex -105.85952424436363 -6.585436818704655 22.440000000000005
    vertex -106.3108068228049 -6.010470820475917 22.440000000000005
    vertex -105.86677531976848 -8.386498781002237 22.440000000000005
  endloop
endfacet
facet normal 0.0 0.0 1.0
  outer loop
    vertex -105.86677531976848 -8.386498781002237 22.440000000000005
    vertex -106.3108068228049 -6.010470820475917 22.440000000000005
    vertex -105.86677531976848 -8.73111859375527 22.440000000000005
  endloop
endfacet
facet normal 0.0 0.0 1.0
  outer loop
    vertex -103.05643003666951 -2.6620344858384946 22.440000000000005
    vertex -105.72439685633225 -6.33513633793544 22.440000000000005
    vertex -105.52760765149924 -6.143785439656091 22.440000000000005
  endloop
endfacet
facet normal 0.0 0.0 1.0
  outer loop
    vertex -103.05643003666951 -2.6620344858384946 22.440000000000005
    vertex -105.52760765149924 -6.143785439656091 22.440000000000005
    vertex -105.26914279193447 -6.022260736973897 22.440000000000005
  endloop
endfacet
facet normal 0.0 0.0 1.0
  outer loop
    vertex -103.05643003666951 -2.6620344858384946 22.440000000000005
    vertex -105.26914279193447 -6.022260736973897 22.440000000000005
    vertex -104.94901611556807 -5.97963991207511 22.440000000000005
  endloop
endfacet
facet normal 0.0 0.0 1.0
  outer loop
    vertex -103.05643003666951 -2.6620344858384946 22.440000000000005
    vertex -104.94901611556807 -5.97963991207511 22.440000000000005
    vertex -104.75358302789098 -5.996643268761576 22.440000000000005
  endloop
endfacet
facet normal 0.0 0.0 1.0
  outer loop
    vertex -103.05643003666951 -2.6620344858384946 22.440000000000005
    vertex -104.75358302789098 -5.996643268761576 22.440000000000005
    vertex -104.58081646981908 -6.04765333882106 22.440000000000005
  endloop
endfacet
facet normal 0.0 0.0 1.0
  outer loop
    vertex -103.05643003666951 -2.6620344858384946 22.440000000000005
    vertex -104.58081646981908 -6.04765333882106 22.440000000000005
    vertex -104.43185461110829 -6.126321971791714 22.440000000000005
  endloop
endfacet
facet normal 0.0 0.0 1.0
  outer loop
    vertex -103.05643003666951 -2.6620344858384946 22.440000000000005
    vertex -104.43185461110829 -6.126321971791714 22.440000000000005
    vertex -104.30783562151443 -6.226301017211746 22.44
  endloop
endfacet
facet normal 0.0 0.0 1.0
  outer loop
    vertex -103.05643003666951 -2.6620344858384946 22.440000000000005
    vertex -104.30783562151443 -6.226301017211746 22.44
    vertex -104.20966588546308 -6.344421589074104 22.440000000000005
  endloop
endfacet
facet normal 0.0 0.0 1.0
  outer loop
    vertex -103.05643003666951 -2.6620344858384946 22.440000000000005
    vertex -104.20966588546308 -6.344421589074104 22.440000000000005
    vertex -104.13825178737983 -6.477514801371679 22.440000000000005
  endloop
endfacet
facet normal 0.0 0.0 1.0
  outer loop
    vertex -103.05643003666951 -2.6620344858384946 22.440000000000005
    vertex -104.13825178737983 -6.477514801371679 22.440000000000005
    vertex -104.09472457805542 -6.618768932982243 22.440000000000005
  endloop
endfacet
facet normal 0.0 0.0 1.0
  outer loop
    vertex -103.05643003666951 -2.6620344858384946 22.440000000000005
    vertex -104.09472457805542 -6.618768932982243 22.440000000000005
    vertex -104.08021550828062 -6.76137226278361 22.440000000000005
  endloop
endfacet
facet normal 0.0 0.0 1.0
  outer loop
    vertex -103.05643003666951 -2.6620344858384946 22.440000000000005
    vertex -104.08021550828062 -6.76137226278361 22.440000000000005
    vertex -104.03488244907011 -8.368371092490086 22.440000000000005
  endloop
endfacet
facet normal 0.0 0.0 1.0
  outer loop
    vertex -103.05643003666951 -2.6620344858384946 22.440000000000005
    vertex -104.03488244907011 -8.368371092490086 22.440000000000005
    vertex -103.05643003666951 -11.862034485838489 22.440000000000005
  endloop
endfacet
facet normal 0.0 0.0 1.0
  outer loop
    vertex -107.42846876612475 -6.67377816485851 22.440000000000005
    vertex -106.3597930955782 -6.423173249625716 22.440000000000005
    vertex -107.45567413682313 -6.423173249625716 22.440000000000005
  endloop
endfacet
facet normal 0.0 0.0 1.0
  outer loop
    vertex -106.3597930955782 -6.423173249625716 22.440000000000005
    vertex -107.42846876612475 -6.67377816485851 22.440000000000005
    vertex -106.49678860418143 -7.069681346791707 22.440000000000005
  endloop
endfacet
facet normal 0.0 0.0 1.0
  outer loop
    vertex -109.20326633697495 -7.069681346791707 22.440000000000005
    vertex -110.012729899728 -5.975045719261342 22.440000000000005
    vertex -110.012729899728 -7.069681346791707 22.440000000000005
  endloop
endfacet
facet normal 0.0 0.0 1.0
  outer loop
    vertex -110.012729899728 -5.975045719261342 22.440000000000005
    vertex -109.20326633697495 -7.069681346791707 22.440000000000005
    vertex -109.20326633697499 -6.011301096285636 22.440000000000005
  endloop
endfacet
facet normal 0.0 0.0 1.0
  outer loop
    vertex -108.06434933292637 -6.440332283026525 22.440000000000005
    vertex -108.12783775650936 -6.010470820475915 22.440000000000005
    vertex -108.06434933292637 -8.73111859375527 22.440000000000005
  endloop
endfacet
facet normal 0.0 0.0 1.0
  outer loop
    vertex -109.20326633697495 -7.482383775941504 22.440000000000005
    vertex -110.012729899728 -7.482383775941504 22.440000000000005
    vertex -109.20326633697495 -8.73111859375527 22.440000000000005
  endloop
endfacet
facet normal 0.0 -1.0 0.0
  outer loop
    vertex -103.05643003666951 -11.862034485838489 22.440000000000005
    vertex -113.85643003666951 -11.862034485838489 12.999999999999998
    vertex -103.05643003666951 -11.862034485838489 12.999999999999998
  endloop
endfacet
facet normal 0.0 -1.0 0.0
  outer loop
    vertex -113.85643003666951 -11.862034485838489 12.999999999999998
    vertex -103.05643003666951 -11.862034485838489 22.440000000000005
    vertex -113.85643003666951 -11.862034485838489 22.440000000000005
  endloop
endfacet
facet normal 0.0 1.0 0.0
  outer loop
    vertex -113.85643003666951 -2.6620344858384946 22.440000000000005
    vertex -103.05643003666951 -2.6620344858384946 12.999999999999998
    vertex -113.85643003666951 -2.6620344858384946 12.999999999999998
  endloop
endfacet
facet normal 0.0 1.0 0.0
  outer loop
    vertex -103.05643003666951 -2.6620344858384946 12.999999999999998
    vertex -113.85643003666951 -2.6620344858384946 22.440000000000005
    vertex -103.05643003666951 -2.6620344858384946 22.440000000000005
  endloop
endfacet
facet normal 0.0 0.0 -1.0
  outer loop
    vertex -103.05643003666951 -2.6620344858384946 12.999999999999998
    vertex -113.85643003666951 -11.862034485838489 12.999999999999998
    vertex -113.85643003666951 -2.6620344858384946 12.999999999999998
  endloop
endfacet
facet normal 0.0 0.0 -1.0
  outer loop
    vertex -113.85643003666951 -11.862034485838489 12.999999999999998
    vertex -103.05643003666951 -2.6620344858384946 12.999999999999998
    vertex -103.05643003666951 -11.862034485838489 12.999999999999998
  endloop
endfacet
facet normal 0.7625355105869401 -0.646946361836833 4.356615488495669e-15
  outer loop
    vertex -104.55541003004176 -7.604766430293729 22.44
    vertex -104.74314922854884 -7.826048771513366 23.00000000000001
    vertex -104.74314922854884 -7.826048771513373 22.440000000000005
  endloop
endfacet
facet normal 0.7625355105869401 -0.646946361836833 4.356615488495669e-15
  outer loop
    vertex -104.74314922854884 -7.826048771513366 23.00000000000001
    vertex -104.55541003004176 -7.604766430293729 22.44
    vertex -104.55541003004176 -7.604766430293731 23.00000000000001
  endloop
endfacet
facet normal 0.7616298452691496 -0.6480123292000635 -5.434765651887444e-15
  outer loop
    vertex -104.55541003004176 -7.604766430293729 22.44
    vertex -104.37948842389297 -7.398000077813974 23.00000000000001
    vertex -104.55541003004176 -7.604766430293731 23.00000000000001
  endloop
endfacet
facet normal 0.7616298452691496 -0.6480123292000635 -5.434765651887444e-15
  outer loop
    vertex -104.37948842389297 -7.398000077813974 23.00000000000001
    vertex -104.55541003004176 -7.604766430293729 22.44
    vertex -104.37948842389297 -7.398000077813967 22.440000000000005
  endloop
endfacet
facet normal 0.0 0.0 1.0
  outer loop
    vertex -104.03488244907011 -8.73111859375527 23.00000000000001
    vertex -105.86677531976848 -8.386498781002233 23.00000000000001
    vertex -105.86677531976848 -8.73111859375527 23.00000000000001
  endloop
endfacet
facet normal 0.0 0.0 1.0
  outer loop
    vertex -105.86677531976848 -8.386498781002233 23.00000000000001
    vertex -104.03488244907011 -8.73111859375527 23.00000000000001
    vertex -105.1993165963373 -8.368371092490086 23.00000000000001
  endloop
endfacet
facet normal 0.0 0.0 1.0
  outer loop
    vertex -105.86677531976848 -8.386498781002233 23.00000000000001
    vertex -105.1993165963373 -8.368371092490086 23.00000000000001
    vertex -105.66998611493547 -8.104454088441504 23.00000000000001
  endloop
endfacet
facet normal 0.0 0.0 1.0
  outer loop
    vertex -105.66998611493547 -8.104454088441504 23.00000000000001
    vertex -105.1993165963373 -8.368371092490086 23.00000000000001
    vertex -105.44053939492031 -7.814258855015391 23.00000000000001
  endloop
endfacet
facet normal 0.0 0.0 1.0
  outer loop
    vertex -105.44053939492031 -7.814258855015391 23.00000000000001
    vertex -105.1993165963373 -8.368371092490086 23.00000000000001
    vertex -105.2101932094446 -7.544917382343325 23.00000000000001
  endloop
endfacet
facet normal 0.0 0.0 1.0
  outer loop
    vertex -105.1993165963373 -8.368371092490086 23.00000000000001
    vertex -104.03488244907011 -8.73111859375527 23.00000000000001
    vertex -104.03488244907011 -8.368371092490086 23.00000000000001
  endloop
endfacet
facet normal 0.0 0.0 1.0
  outer loop
    vertex -105.1993165963373 -8.368371092490086 23.00000000000001
    vertex -105.01250453915107 -7.325461647905067 23.00000000000001
    vertex -105.2101932094446 -7.544917382343325 23.00000000000001
  endloop
endfacet
facet normal 0.0 0.0 1.0
  outer loop
    vertex -105.01250453915107 -7.325461647905067 23.00000000000001
    vertex -105.1993165963373 -8.368371092490086 23.00000000000001
    vertex -105.08776904130187 -8.22689209451438 23.00000000000001
  endloop
endfacet
facet normal 0.0 0.0 1.0
  outer loop
    vertex -105.01250453915107 -7.325461647905067 23.00000000000001
    vertex -105.08776904130187 -8.22689209451438 23.00000000000001
    vertex -104.92816235481402 -8.040080037328144 23.00000000000001
  endloop
endfacet
facet normal 0.0 0.0 1.0
  outer loop
    vertex -105.01250453915107 -7.325461647905067 23.00000000000001
    vertex -104.92816235481402 -8.040080037328144 23.00000000000001
    vertex -104.84563293932818 -7.1477134349749045 23.00000000000001
  endloop
endfacet
facet normal 0.0 0.0 1.0
  outer loop
    vertex -104.84563293932818 -7.1477134349749045 23.00000000000001
    vertex -104.92816235481402 -8.040080037328144 23.00000000000001
    vertex -104.74314922854884 -7.826048771513366 23.00000000000001
  endloop
endfacet
facet normal 0.0 0.0 1.0
  outer loop
    vertex -104.84563293932818 -7.1477134349749045 23.00000000000001
    vertex -104.74314922854884 -7.826048771513366 23.00000000000001
    vertex -104.73498484975329 -7.013485512404055 23.00000000000001
  endloop
endfacet
facet normal 0.0 0.0 1.0
  outer loop
    vertex -104.73498484975329 -7.013485512404055 23.00000000000001
    vertex -104.74314922854884 -7.826048771513366 23.00000000000001
    vertex -104.55541003004176 -7.604766430293731 23.00000000000001
  endloop
endfacet
facet normal 0.0 0.0 1.0
  outer loop
    vertex -104.73498484975329 -7.013485512404055 23.00000000000001
    vertex -104.55541003004176 -7.604766430293731 23.00000000000001
    vertex -104.67422249841219 -6.889234737479966 23.00000000000001
  endloop
endfacet
facet normal 0.0 0.0 1.0
  outer loop
    vertex -104.67422249841219 -6.889234737479966 23.00000000000001
    vertex -104.55541003004176 -7.604766430293731 23.00000000000001
    vertex -104.65518150650936 -6.741417967490087 23.00000000000001
  endloop
endfacet
facet normal 0.0 0.0 1.0
  outer loop
    vertex -104.65518150650936 -6.741417967490087 23.00000000000001
    vertex -104.55541003004176 -7.604766430293731 23.00000000000001
    vertex -104.58081646981908 -6.047653338821058 23.00000000000001
  endloop
endfacet
facet normal 0.0 0.0 1.0
  outer loop
    vertex -104.58081646981908 -6.047653338821058 23.00000000000001
    vertex -104.55541003004176 -7.604766430293731 23.00000000000001
    vertex -104.43185461110829 -6.126321971791707 23.00000000000001
  endloop
endfacet
facet normal 0.0 0.0 1.0
  outer loop
    vertex -104.43185461110829 -6.126321971791707 23.00000000000001
    vertex -104.55541003004176 -7.604766430293731 23.00000000000001
    vertex -104.37948842389297 -7.398000077813974 23.00000000000001
  endloop
endfacet
facet normal 0.0 0.0 1.0
  outer loop
    vertex -104.43185461110829 -6.126321971791707 23.00000000000001
    vertex -104.37948842389297 -7.398000077813974 23.00000000000001
    vertex -104.30783562151443 -6.226301017211747 23.00000000000001
  endloop
endfacet
facet normal 0.0 0.0 1.0
  outer loop
    vertex -104.30783562151443 -6.226301017211747 23.00000000000001
    vertex -104.37948842389297 -7.398000077813974 23.00000000000001
    vertex -104.22713281280998 -7.201210872980978 23.00000000000001
  endloop
endfacet
facet normal 0.0 0.0 1.0
  outer loop
    vertex -104.30783562151443 -6.226301017211747 23.00000000000001
    vertex -104.22713281280998 -7.201210872980978 23.00000000000001
    vertex -104.20966588546305 -6.344421589074095 23.00000000000001
  endloop
endfacet
facet normal 0.0 0.0 1.0
  outer loop
    vertex -104.20966588546305 -6.344421589074095 23.00000000000001
    vertex -104.22713281280998 -7.201210872980978 23.00000000000001
    vertex -104.12012409886766 -6.995343985961747 23.00000000000001
  endloop
endfacet
facet normal 0.0 0.0 1.0
  outer loop
    vertex -104.20966588546305 -6.344421589074095 23.00000000000001
    vertex -104.12012409886766 -6.995343985961747 23.00000000000001
    vertex -104.1382517873798 -6.477514801371666 23.00000000000001
  endloop
endfacet
facet normal 0.0 0.0 1.0
  outer loop
    vertex -104.1382517873798 -6.477514801371666 23.00000000000001
    vertex -104.12012409886766 -6.995343985961747 23.00000000000001
    vertex -104.09472457805542 -6.618768932982243 23.00000000000001
  endloop
endfacet
facet normal 0.0 0.0 1.0
  outer loop
    vertex -104.09472457805542 -6.618768932982243 23.00000000000001
    vertex -104.12012409886766 -6.995343985961747 23.00000000000001
    vertex -104.08021550828062 -6.76137226278361 23.00000000000001
  endloop
endfacet
facet normal 0.0 0.0 1.0
  outer loop
    vertex -105.43691385721787 -6.743244574271463 23.00000000000001
    vertex -105.72439685633225 -6.335136337935431 23.00000000000001
    vertex -105.85952424436361 -6.585436818704661 23.00000000000001
  endloop
endfacet
facet normal 0.0 0.0 1.0
  outer loop
    vertex -105.72439685633225 -6.335136337935431 23.00000000000001
    vertex -105.43691385721787 -6.743244574271463 23.00000000000001
    vertex -105.52760765149924 -6.143785439656079 23.00000000000001
  endloop
endfacet
facet normal 0.0 0.0 1.0
  outer loop
    vertex -105.52760765149924 -6.143785439656079 23.00000000000001
    vertex -105.43691385721787 -6.743244574271463 23.00000000000001
    vertex -105.26914279193447 -6.022260736973893 23.00000000000001
  endloop
endfacet
facet normal 0.0 0.0 1.0
  outer loop
    vertex -105.26914279193447 -6.022260736973893 23.00000000000001
    vertex -105.43691385721787 -6.743244574271463 23.00000000000001
    vertex -105.34350090965968 -6.5904219330455005 23.00000000000001
  endloop
endfacet
facet normal 0.0 0.0 1.0
  outer loop
    vertex -105.26914279193447 -6.022260736973893 23.00000000000001
    vertex -105.34350090965968 -6.5904219330455005 23.00000000000001
    vertex -105.23739858014297 -6.472975960278548 23.00000000000001
  endloop
endfacet
facet normal 0.0 0.0 1.0
  outer loop
    vertex -105.26914279193447 -6.022260736973893 23.00000000000001
    vertex -105.23739858014297 -6.472975960278548 23.00000000000001
    vertex -104.94901611556807 -5.979639912075107 23.00000000000001
  endloop
endfacet
facet normal 0.0 0.0 1.0
  outer loop
    vertex -104.94901611556807 -5.979639912075107 23.00000000000001
    vertex -105.23739858014297 -6.472975960278548 23.00000000000001
    vertex -105.11588079642587 -6.398157731375462 23.00000000000001
  endloop
endfacet
facet normal 0.0 0.0 1.0
  outer loop
    vertex -104.94901611556807 -5.979639912075107 23.00000000000001
    vertex -105.11588079642587 -6.398157731375462 23.00000000000001
    vertex -104.97622148626644 -6.373218321741099 23.00000000000001
  endloop
endfacet
facet normal 0.0 0.0 1.0
  outer loop
    vertex -104.94901611556807 -5.979639912075107 23.00000000000001
    vertex -104.97622148626644 -6.373218321741099 23.00000000000001
    vertex -104.84380633254682 -6.404962533532598 23.00000000000001
  endloop
endfacet
facet normal 0.0 0.0 1.0
  outer loop
    vertex -104.94901611556807 -5.979639912075107 23.00000000000001
    vertex -104.84380633254682 -6.404962533532598 23.00000000000001
    vertex -104.75358302789094 -5.996643268761595 23.00000000000001
  endloop
endfacet
facet normal 0.0 0.0 1.0
  outer loop
    vertex -104.75358302789094 -5.996643268761595 23.00000000000001
    vertex -104.84380633254682 -6.404962533532598 23.00000000000001
    vertex -104.74223592515816 -6.489304717869642 23.00000000000001
  endloop
endfacet
facet normal 0.0 0.0 1.0
  outer loop
    vertex -104.75358302789094 -5.996643268761595 23.00000000000001
    vertex -104.74223592515816 -6.489304717869642 23.00000000000001
    vertex -104.58081646981908 -6.047653338821058 23.00000000000001
  endloop
endfacet
facet normal 0.0 0.0 1.0
  outer loop
    vertex -104.58081646981908 -6.047653338821058 23.00000000000001
    vertex -104.74223592515816 -6.489304717869642 23.00000000000001
    vertex -104.67784803611463 -6.608103348309925 23.00000000000001
  endloop
endfacet
facet normal 0.0 0.0 1.0
  outer loop
    vertex -104.58081646981908 -6.047653338821058 23.00000000000001
    vertex -104.67784803611463 -6.608103348309925 23.00000000000001
    vertex -104.65518150650936 -6.741417967490087 23.00000000000001
  endloop
endfacet
facet normal 0.756529282874728 -0.6539598184545056 -2.579292004462529e-14
  outer loop
    vertex -104.92816235481405 -8.04008003732813 22.440000000000005
    vertex -104.74314922854884 -7.826048771513366 23.00000000000001
    vertex -104.92816235481402 -8.040080037328144 23.00000000000001
  endloop
endfacet
facet normal 0.756529282874728 -0.6539598184545056 -2.579292004462529e-14
  outer loop
    vertex -104.74314922854884 -7.826048771513366 23.00000000000001
    vertex -104.92816235481405 -8.04008003732813 22.440000000000005
    vertex -104.74314922854884 -7.826048771513373 22.440000000000005
  endloop
endfacet
facet normal -1.0 0.0 0.0
  outer loop
    vertex -105.86677531976848 -8.386498781002233 23.00000000000001
    vertex -105.86677531976848 -8.73111859375527 22.440000000000005
    vertex -105.86677531976848 -8.73111859375527 23.00000000000001
  endloop
endfacet
facet normal -1.0 0.0 0.0
  outer loop
    vertex -105.86677531976848 -8.73111859375527 22.440000000000005
    vertex -105.86677531976848 -8.386498781002233 23.00000000000001
    vertex -105.86677531976848 -8.386498781002237 22.440000000000005
  endloop
endfacet
facet normal -0.8201080722343443 0.5722086593683006 -4.807433295131648e-15
  outer loop
    vertex -105.86677531976848 -8.386498781002233 23.00000000000001
    vertex -105.66998611493547 -8.104454088441507 22.440000000000005
    vertex -105.86677531976848 -8.386498781002237 22.440000000000005
  endloop
endfacet
facet normal -0.8201080722343443 0.5722086593683006 -4.807433295131648e-15
  outer loop
    vertex -105.66998611493547 -8.104454088441507 22.440000000000005
    vertex -105.86677531976848 -8.386498781002233 23.00000000000001
    vertex -105.66998611493547 -8.104454088441504 23.00000000000001
  endloop
endfacet
facet normal -0.7844287112939149 0.6202189910811888 -4.165560955929915e-15
  outer loop
    vertex -105.66998611493547 -8.104454088441504 23.00000000000001
    vertex -105.44053939492031 -7.814258855015393 22.440000000000005
    vertex -105.66998611493547 -8.104454088441507 22.440000000000005
  endloop
endfacet
facet normal -0.7844287112939149 0.6202189910811888 -4.165560955929915e-15
  outer loop
    vertex -105.44053939492031 -7.814258855015393 22.440000000000005
    vertex -105.66998611493547 -8.104454088441504 23.00000000000001
    vertex -105.44053939492031 -7.814258855015391 23.00000000000001
  endloop
endfacet
facet normal -0.7599782438443906 0.6499485124863322 -3.2860053374296367e-15
  outer loop
    vertex -105.44053939492031 -7.814258855015391 23.00000000000001
    vertex -105.2101932094446 -7.544917382343327 22.440000000000005
    vertex -105.44053939492031 -7.814258855015393 22.440000000000005
  endloop
endfacet
facet normal -0.7599782438443906 0.6499485124863322 -3.2860053374296367e-15
  outer loop
    vertex -105.2101932094446 -7.544917382343327 22.440000000000005
    vertex -105.44053939492031 -7.814258855015391 23.00000000000001
    vertex -105.2101932094446 -7.544917382343325 23.00000000000001
  endloop
endfacet
facet normal -0.7429935585049116 0.6692985671732822 2.255890142899761e-15
  outer loop
    vertex -105.2101932094446 -7.544917382343325 23.00000000000001
    vertex -105.01250453915107 -7.325461647905063 22.440000000000005
    vertex -105.2101932094446 -7.544917382343327 22.440000000000005
  endloop
endfacet
facet normal -0.7429935585049116 0.6692985671732822 2.255890142899761e-15
  outer loop
    vertex -105.01250453915107 -7.325461647905063 22.440000000000005
    vertex -105.2101932094446 -7.544917382343325 23.00000000000001
    vertex -105.01250453915107 -7.325461647905067 23.00000000000001
  endloop
endfacet
facet normal -0.7290608944953582 0.6844488382031402 3.1070176338774435e-14
  outer loop
    vertex -104.84563293932818 -7.1477134349749045 23.00000000000001
    vertex -105.01250453915107 -7.325461647905063 22.440000000000005
    vertex -105.01250453915107 -7.325461647905067 23.00000000000001
  endloop
endfacet
facet normal -0.7290608944953582 0.6844488382031402 3.1070176338774435e-14
  outer loop
    vertex -105.01250453915107 -7.325461647905063 22.440000000000005
    vertex -104.84563293932818 -7.1477134349749045 23.00000000000001
    vertex -104.84563293932821 -7.147713434974895 22.440000000000005
  endloop
endfacet
facet normal -0.7716270408947192 0.6360752390716522 3.139253180073404e-14
  outer loop
    vertex -104.73498484975329 -7.013485512404055 23.00000000000001
    vertex -104.84563293932821 -7.147713434974895 22.440000000000005
    vertex -104.84563293932818 -7.1477134349749045 23.00000000000001
  endloop
endfacet
facet normal -0.7716270408947192 0.6360752390716522 3.139253180073404e-14
  outer loop
    vertex -104.84563293932821 -7.147713434974895 22.440000000000005
    vertex -104.73498484975329 -7.013485512404055 23.00000000000001
    vertex -104.73498484975329 -7.013485512404051 22.440000000000005
  endloop
endfacet
facet normal -0.8983343508476812 0.43931241057711445 2.945098907830262e-15
  outer loop
    vertex -104.67422249841219 -6.889234737479966 23.00000000000001
    vertex -104.73498484975329 -7.013485512404051 22.440000000000005
    vertex -104.73498484975329 -7.013485512404055 23.00000000000001
  endloop
endfacet
facet normal -0.8983343508476812 0.43931241057711445 2.945098907830262e-15
  outer loop
    vertex -104.73498484975329 -7.013485512404051 22.440000000000005
    vertex -104.67422249841219 -6.889234737479966 23.00000000000001
    vertex -104.67422249841219 -6.889234737479964 22.440000000000005
  endloop
endfacet
facet normal -0.9918052137580816 0.12775921869785428 2.7064712544895012e-14
  outer loop
    vertex -104.65518150650936 -6.741417967490087 23.00000000000001
    vertex -104.67422249841219 -6.889234737479964 22.440000000000005
    vertex -104.67422249841219 -6.889234737479966 23.00000000000001
  endloop
endfacet
facet normal -0.9918052137580816 0.12775921869785428 2.7064712544895012e-14
  outer loop
    vertex -104.67422249841219 -6.889234737479964 22.440000000000005
    vertex -104.65518150650936 -6.741417967490087 23.00000000000001
    vertex -104.65518150650938 -6.741417967490086 22.440000000000005
  endloop
endfacet
facet normal -0.9858521267642341 -0.16761737426184864 -8.417576448394975e-16
  outer loop
    vertex -104.67784803611463 -6.608103348309925 23.00000000000001
    vertex -104.65518150650938 -6.741417967490086 22.440000000000005
    vertex -104.65518150650936 -6.741417967490087 23.00000000000001
  endloop
endfacet
facet normal -0.9858521267642341 -0.16761737426184864 -8.417576448394975e-16
  outer loop
    vertex -104.65518150650938 -6.741417967490086 22.440000000000005
    vertex -104.67784803611463 -6.608103348309925 23.00000000000001
    vertex -104.67784803611461 -6.608103348309922 22.440000000000005
  endloop
endfacet
facet normal -0.8791722108078648 -0.47650416970181003 -1.519272367029352e-14
  outer loop
    vertex -104.74223592515816 -6.489304717869642 23.00000000000001
    vertex -104.67784803611461 -6.608103348309922 22.440000000000005
    vertex -104.67784803611463 -6.608103348309925 23.00000000000001
  endloop
endfacet
facet normal -0.8791722108078648 -0.47650416970181003 -1.519272367029352e-14
  outer loop
    vertex -104.67784803611461 -6.608103348309922 22.440000000000005
    vertex -104.74223592515816 -6.489304717869642 23.00000000000001
    vertex -104.74223592515817 -6.489304717869618 22.440000000000005
  endloop
endfacet
facet normal -0.638843176942892 -0.7693369842101137 -2.711762783286979e-14
  outer loop
    vertex -104.74223592515816 -6.489304717869642 23.00000000000001
    vertex -104.8438063325468 -6.404962533532592 22.440000000000005
    vertex -104.74223592515817 -6.489304717869618 22.440000000000005
  endloop
endfacet
facet normal -0.638843176942892 -0.7693369842101137 -2.711762783286979e-14
  outer loop
    vertex -104.8438063325468 -6.404962533532592 22.440000000000005
    vertex -104.74223592515816 -6.489304717869642 23.00000000000001
    vertex -104.84380633254682 -6.404962533532598 23.00000000000001
  endloop
endfacet
facet normal -0.2331269549238913 -0.9724463084859308 -1.6059802859324802e-14
  outer loop
    vertex -104.84380633254682 -6.404962533532598 23.00000000000001
    vertex -104.97622148626644 -6.373218321741096 22.440000000000005
    vertex -104.8438063325468 -6.404962533532592 22.440000000000005
  endloop
endfacet
facet normal -0.2331269549238913 -0.9724463084859308 -1.6059802859324802e-14
  outer loop
    vertex -104.97622148626644 -6.373218321741096 22.440000000000005
    vertex -104.84380633254682 -6.404962533532598 23.00000000000001
    vertex -104.97622148626644 -6.373218321741099 23.00000000000001
  endloop
endfacet
facet normal 0.17579232645212486 -0.9844272740840482 0.0
  outer loop
    vertex -104.97622148626644 -6.373218321741099 23.00000000000001
    vertex -105.11588079642587 -6.398157731375465 22.440000000000005
    vertex -104.97622148626644 -6.373218321741096 22.440000000000005
  endloop
endfacet
facet normal 0.17579232645212486 -0.9844272740840482 0.0
  outer loop
    vertex -105.11588079642587 -6.398157731375465 22.440000000000005
    vertex -104.97622148626644 -6.373218321741099 23.00000000000001
    vertex -105.11588079642587 -6.398157731375462 23.00000000000001
  endloop
endfacet
facet normal 0.5242908312898391 -0.8515392675769038 1.429792854002962e-15
  outer loop
    vertex -105.11588079642587 -6.398157731375462 23.00000000000001
    vertex -105.23739858014297 -6.472975960278547 22.440000000000005
    vertex -105.11588079642587 -6.398157731375465 22.440000000000005
  endloop
endfacet
facet normal 0.5242908312898391 -0.8515392675769038 1.429792854002962e-15
  outer loop
    vertex -105.23739858014297 -6.472975960278547 22.440000000000005
    vertex -105.11588079642587 -6.398157731375462 23.00000000000001
    vertex -105.23739858014297 -6.472975960278548 23.00000000000001
  endloop
endfacet
facet normal 0.7420331964618062 -0.670363136925558 2.2594783059832872e-15
  outer loop
    vertex -105.23739858014297 -6.472975960278547 22.440000000000005
    vertex -105.34350090965968 -6.5904219330455005 23.00000000000001
    vertex -105.34350090965968 -6.590421933045505 22.440000000000005
  endloop
endfacet
facet normal 0.7420331964618062 -0.670363136925558 2.2594783059832872e-15
  outer loop
    vertex -105.34350090965968 -6.5904219330455005 23.00000000000001
    vertex -105.23739858014297 -6.472975960278547 22.440000000000005
    vertex -105.23739858014297 -6.472975960278548 23.00000000000001
  endloop
endfacet
facet normal 0.8532288330587936 -0.5215367277930958 -5.370632482683272e-14
  outer loop
    vertex -105.43691385721792 -6.743244574271446 22.440000000000005
    vertex -105.34350090965968 -6.5904219330455005 23.00000000000001
    vertex -105.43691385721787 -6.743244574271463 23.00000000000001
  endloop
endfacet
facet normal 0.8532288330587936 -0.5215367277930958 -5.370632482683272e-14
  outer loop
    vertex -105.34350090965968 -6.5904219330455005 23.00000000000001
    vertex -105.43691385721792 -6.743244574271446 22.440000000000005
    vertex -105.34350090965968 -6.590421933045505 22.440000000000005
  endloop
endfacet
facet normal -0.34981877908004616 -0.9368173897846613 3.0376650476436666e-15
  outer loop
    vertex -105.43691385721787 -6.743244574271463 23.00000000000001
    vertex -105.85952424436363 -6.585436818704655 22.440000000000005
    vertex -105.43691385721792 -6.743244574271446 22.440000000000005
  endloop
endfacet
facet normal -0.34981877908004616 -0.9368173897846613 3.0376650476436666e-15
  outer loop
    vertex -105.85952424436363 -6.585436818704655 22.440000000000005
    vertex -105.43691385721787 -6.743244574271463 23.00000000000001
    vertex -105.85952424436361 -6.585436818704661 23.00000000000001
  endloop
endfacet
facet normal -0.8799566476267087 0.47505399513904195 2.163951164145539e-14
  outer loop
    vertex -105.72439685633225 -6.335136337935431 23.00000000000001
    vertex -105.85952424436363 -6.585436818704655 22.440000000000005
    vertex -105.85952424436361 -6.585436818704661 23.00000000000001
  endloop
endfacet
facet normal -0.8799566476267087 0.47505399513904195 2.163951164145539e-14
  outer loop
    vertex -105.85952424436363 -6.585436818704655 22.440000000000005
    vertex -105.72439685633225 -6.335136337935431 23.00000000000001
    vertex -105.72439685633225 -6.33513633793544 22.440000000000005
  endloop
endfacet
facet normal -0.6971309456284842 0.7169438225182887 -1.86566459125449e-14
  outer loop
    vertex -105.72439685633225 -6.335136337935431 23.00000000000001
    vertex -105.52760765149924 -6.143785439656091 22.440000000000005
    vertex -105.72439685633225 -6.33513633793544 22.440000000000005
  endloop
endfacet
facet normal -0.6971309456284842 0.7169438225182887 -1.86566459125449e-14
  outer loop
    vertex -105.52760765149924 -6.143785439656091 22.440000000000005
    vertex -105.72439685633225 -6.335136337935431 23.00000000000001
    vertex -105.52760765149924 -6.143785439656079 23.00000000000001
  endloop
endfacet
facet normal -0.4254936810863594 0.9049613955056756 -1.8996456892083148e-14
  outer loop
    vertex -105.52760765149924 -6.143785439656079 23.00000000000001
    vertex -105.26914279193447 -6.022260736973897 22.440000000000005
    vertex -105.52760765149924 -6.143785439656091 22.440000000000005
  endloop
endfacet
facet normal -0.4254936810863594 0.9049613955056756 -1.8996456892083148e-14
  outer loop
    vertex -105.26914279193447 -6.022260736973897 22.440000000000005
    vertex -105.52760765149924 -6.143785439656079 23.00000000000001
    vertex -105.26914279193447 -6.022260736973893 23.00000000000001
  endloop
endfacet
facet normal -0.13197286480547582 0.9912533293538216 -9.154102921963179e-15
  outer loop
    vertex -105.26914279193447 -6.022260736973893 23.00000000000001
    vertex -104.94901611556807 -5.97963991207511 22.440000000000005
    vertex -105.26914279193447 -6.022260736973897 22.440000000000005
  endloop
endfacet
facet normal -0.13197286480547582 0.9912533293538216 -9.154102921963179e-15
  outer loop
    vertex -104.94901611556807 -5.97963991207511 22.440000000000005
    vertex -105.26914279193447 -6.022260736973893 23.00000000000001
    vertex -104.94901611556807 -5.979639912075107 23.00000000000001
  endloop
endfacet
facet normal 0.08667603636126722 0.9962365505845991 1.457547470900781e-14
  outer loop
    vertex -104.94901611556807 -5.979639912075107 23.00000000000001
    vertex -104.75358302789098 -5.996643268761576 22.440000000000005
    vertex -104.94901611556807 -5.97963991207511 22.440000000000005
  endloop
endfacet
facet normal 0.08667603636126722 0.9962365505845991 1.457547470900781e-14
  outer loop
    vertex -104.75358302789098 -5.996643268761576 22.440000000000005
    vertex -104.94901611556807 -5.979639912075107 23.00000000000001
    vertex -104.75358302789094 -5.996643268761595 23.00000000000001
  endloop
endfacet
facet normal 0.28316951007698826 0.9590698767883176 4.905635074531951e-15
  outer loop
    vertex -104.75358302789094 -5.996643268761595 23.00000000000001
    vertex -104.58081646981908 -6.04765333882106 22.440000000000005
    vertex -104.75358302789098 -5.996643268761576 22.440000000000005
  endloop
endfacet
facet normal 0.28316951007698826 0.9590698767883176 4.905635074531951e-15
  outer loop
    vertex -104.58081646981908 -6.04765333882106 22.440000000000005
    vertex -104.75358302789094 -5.996643268761595 23.00000000000001
    vertex -104.58081646981908 -6.047653338821058 23.00000000000001
  endloop
endfacet
facet normal 0.46699016413563743 0.8842625100051288 -9.64805388264926e-15
  outer loop
    vertex -104.58081646981908 -6.047653338821058 23.00000000000001
    vertex -104.43185461110829 -6.126321971791714 22.440000000000005
    vertex -104.58081646981908 -6.04765333882106 22.440000000000005
  endloop
endfacet
facet normal 0.46699016413563743 0.8842625100051288 -9.64805388264926e-15
  outer loop
    vertex -104.43185461110829 -6.126321971791714 22.440000000000005
    vertex -104.58081646981908 -6.047653338821058 23.00000000000001
    vertex -104.43185461110829 -6.126321971791707 23.00000000000001
  endloop
endfacet
facet normal 0.6276144864764619 0.7785242811659039 -6.5360485137164725e-15
  outer loop
    vertex -104.43185461110829 -6.126321971791714 22.440000000000005
    vertex -104.30783562151443 -6.226301017211747 23.00000000000001
    vertex -104.30783562151443 -6.226301017211746 22.44
  endloop
endfacet
facet normal 0.6276144864764619 0.7785242811659039 -6.5360485137164725e-15
  outer loop
    vertex -104.30783562151443 -6.226301017211747 23.00000000000001
    vertex -104.43185461110829 -6.126321971791714 22.440000000000005
    vertex -104.43185461110829 -6.126321971791707 23.00000000000001
  endloop
endfacet
facet normal 0.7690661899904019 0.6391691446038734 -2.7106654369818608e-14
  outer loop
    vertex -104.30783562151443 -6.226301017211746 22.44
    vertex -104.20966588546305 -6.344421589074095 23.00000000000001
    vertex -104.20966588546308 -6.344421589074104 22.440000000000005
  endloop
endfacet
facet normal 0.7690661899904019 0.6391691446038734 -2.7106654369818608e-14
  outer loop
    vertex -104.20966588546305 -6.344421589074095 23.00000000000001
    vertex -104.30783562151443 -6.226301017211746 22.44
    vertex -104.30783562151443 -6.226301017211747 23.00000000000001
  endloop
endfacet
facet normal 0.8811651556273833 0.4728085960599382 -5.963790239063802e-14
  outer loop
    vertex -104.20966588546308 -6.344421589074104 22.440000000000005
    vertex -104.1382517873798 -6.477514801371666 23.00000000000001
    vertex -104.13825178737983 -6.477514801371679 22.440000000000005
  endloop
endfacet
facet normal 0.8811651556273833 0.4728085960599382 -5.963790239063802e-14
  outer loop
    vertex -104.1382517873798 -6.477514801371666 23.00000000000001
    vertex -104.20966588546308 -6.344421589074104 22.440000000000005
    vertex -104.20966588546305 -6.344421589074095 23.00000000000001
  endloop
endfacet
facet normal 0.9556564598835773 0.29448383772762254 -3.011983481477966e-14
  outer loop
    vertex -104.13825178737983 -6.477514801371679 22.440000000000005
    vertex -104.09472457805542 -6.618768932982243 23.00000000000001
    vertex -104.09472457805542 -6.618768932982243 22.440000000000005
  endloop
endfacet
facet normal 0.9556564598835773 0.29448383772762254 -3.011983481477966e-14
  outer loop
    vertex -104.09472457805542 -6.618768932982243 23.00000000000001
    vertex -104.13825178737983 -6.477514801371679 22.440000000000005
    vertex -104.1382517873798 -6.477514801371666 23.00000000000001
  endloop
endfacet
facet normal 0.9948638952132471 0.10122168740504969 -3.5879218022234e-28
  outer loop
    vertex -104.09472457805542 -6.618768932982243 22.440000000000005
    vertex -104.08021550828062 -6.76137226278361 23.00000000000001
    vertex -104.08021550828062 -6.76137226278361 22.440000000000005
  endloop
endfacet
facet normal 0.9948638952132471 0.10122168740504969 -3.5879218022234e-28
  outer loop
    vertex -104.08021550828062 -6.76137226278361 23.00000000000001
    vertex -104.09472457805542 -6.618768932982243 22.440000000000005
    vertex -104.09472457805542 -6.618768932982243 23.00000000000001
  endloop
endfacet
facet normal 0.9857628344183995 -0.16814170892257266 -2.7321385247045522e-14
  outer loop
    vertex -104.12012409886768 -6.995343985961743 22.44
    vertex -104.08021550828062 -6.76137226278361 23.00000000000001
    vertex -104.12012409886766 -6.995343985961747 23.00000000000001
  endloop
endfacet
facet normal 0.9857628344183995 -0.16814170892257266 -2.7321385247045522e-14
  outer loop
    vertex -104.08021550828062 -6.76137226278361 23.00000000000001
    vertex -104.12012409886768 -6.995343985961743 22.44
    vertex -104.08021550828062 -6.76137226278361 22.440000000000005
  endloop
endfacet
facet normal 0.8872910039806481 -0.46121001100909953 -2.6153256966476953e-14
  outer loop
    vertex -104.12012409886768 -6.995343985961743 22.44
    vertex -104.22713281280998 -7.201210872980978 23.00000000000001
    vertex -104.22713281280998 -7.201210872980978 22.440000000000005
  endloop
endfacet
facet normal 0.8872910039806481 -0.46121001100909953 -2.6153256966476953e-14
  outer loop
    vertex -104.22713281280998 -7.201210872980978 23.00000000000001
    vertex -104.12012409886768 -6.995343985961743 22.44
    vertex -104.12012409886766 -6.995343985961747 23.00000000000001
  endloop
endfacet
facet normal 0.7907184982730909 -0.6121799216641688 -4.111568359496604e-15
  outer loop
    vertex -104.37948842389297 -7.398000077813967 22.440000000000005
    vertex -104.22713281280998 -7.201210872980978 23.00000000000001
    vertex -104.37948842389297 -7.398000077813974 23.00000000000001
  endloop
endfacet
facet normal 0.7907184982730909 -0.6121799216641688 -4.111568359496604e-15
  outer loop
    vertex -104.22713281280998 -7.201210872980978 23.00000000000001
    vertex -104.37948842389297 -7.398000077813967 22.440000000000005
    vertex -104.22713281280998 -7.201210872980978 22.440000000000005
  endloop
endfacet
facet normal 0.7602971874266569 -0.6495753896131803 -3.459087367047459e-14
  outer loop
    vertex -105.08776904130187 -8.226892094514374 22.440000000000005
    vertex -104.92816235481402 -8.040080037328144 23.00000000000001
    vertex -105.08776904130187 -8.22689209451438 23.00000000000001
  endloop
endfacet
facet normal 0.7602971874266569 -0.6495753896131803 -3.459087367047459e-14
  outer loop
    vertex -104.92816235481402 -8.040080037328144 23.00000000000001
    vertex -105.08776904130187 -8.226892094514374 22.440000000000005
    vertex -104.92816235481405 -8.04008003732813 22.440000000000005
  endloop
endfacet
facet normal 0.7852777833827534 -0.6191436044452607 -6.237507546233517e-15
  outer loop
    vertex -105.1993165963373 -8.368371092490083 22.440000000000005
    vertex -105.08776904130187 -8.22689209451438 23.00000000000001
    vertex -105.1993165963373 -8.368371092490086 23.00000000000001
  endloop
endfacet
facet normal 0.7852777833827534 -0.6191436044452607 -6.237507546233517e-15
  outer loop
    vertex -105.08776904130187 -8.22689209451438 23.00000000000001
    vertex -105.1993165963373 -8.368371092490083 22.440000000000005
    vertex -105.08776904130187 -8.226892094514374 22.440000000000005
  endloop
endfacet
facet normal 1.816311267472325e-15 1.0 5.03565443312118e-15
  outer loop
    vertex -105.1993165963373 -8.368371092490086 23.00000000000001
    vertex -104.03488244907011 -8.368371092490086 22.440000000000005
    vertex -105.1993165963373 -8.368371092490083 22.440000000000005
  endloop
endfacet
facet normal 1.816311267472325e-15 1.0 5.03565443312118e-15
  outer loop
    vertex -104.03488244907011 -8.368371092490086 22.440000000000005
    vertex -105.1993165963373 -8.368371092490086 23.00000000000001
    vertex -104.03488244907011 -8.368371092490086 23.00000000000001
  endloop
endfacet
facet normal 1.0 0.0 0.0
  outer loop
    vertex -104.03488244907011 -8.368371092490086 22.440000000000005
    vertex -104.03488244907011 -8.73111859375527 23.00000000000001
    vertex -104.03488244907011 -8.73111859375527 22.440000000000005
  endloop
endfacet
facet normal 1.0 0.0 0.0
  outer loop
    vertex -104.03488244907011 -8.73111859375527 23.00000000000001
    vertex -104.03488244907011 -8.368371092490086 22.440000000000005
    vertex -104.03488244907011 -8.368371092490086 23.00000000000001
  endloop
endfacet
facet normal 0.0 -1.0 0.0
  outer loop
    vertex -104.03488244907011 -8.73111859375527 23.00000000000001
    vertex -105.86677531976848 -8.73111859375527 22.440000000000005
    vertex -104.03488244907011 -8.73111859375527 22.440000000000005
  endloop
endfacet
facet normal 0.0 -1.0 0.0
  outer loop
    vertex -105.86677531976848 -8.73111859375527 22.440000000000005
    vertex -104.03488244907011 -8.73111859375527 23.00000000000001
    vertex -105.86677531976848 -8.73111859375527 23.00000000000001
  endloop
endfacet
facet normal -0.9915544151345637 -0.1296913328914212 2.717204491080871e-14
  outer loop
    vertex -110.64152544628668 -6.441051855394945 23.00000000000001
    vertex -110.6977351186045 -6.011301096285635 22.440000000000005
    vertex -110.6415254462867 -6.441051855394946 22.440000000000005
  endloop
endfacet
facet normal -0.9915544151345637 -0.1296913328914212 2.717204491080871e-14
  outer loop
    vertex -110.6977351186045 -6.011301096285635 22.440000000000005
    vertex -110.64152544628668 -6.441051855394945 23.00000000000001
    vertex -110.6977351186045 -6.011301096285633 23.00000000000001
  endloop
endfacet
facet normal -1.0 -4.9255620988006284e-15 2.6856823643312966e-14
  outer loop
    vertex -110.64152544628668 -6.441051855394945 23.00000000000001
    vertex -110.64152544628668 -8.73111859375527 22.440000000000005
    vertex -110.64152544628668 -8.73111859375527 23.00000000000001
  endloop
endfacet
facet normal -1.0 -4.9255620988006284e-15 2.6856823643312966e-14
  outer loop
    vertex -110.64152544628668 -8.73111859375527 22.440000000000005
    vertex -110.64152544628668 -6.441051855394945 23.00000000000001
    vertex -110.6415254462867 -6.441051855394946 22.440000000000005
  endloop
endfacet
facet normal 0.0 0.0 1.0
  outer loop
    vertex -110.012729899728 -8.73111859375527 23.00000000000001
    vertex -110.64152544628668 -6.441051855394945 23.00000000000001
    vertex -110.64152544628668 -8.73111859375527 23.00000000000001
  endloop
endfacet
facet normal 0.0 0.0 1.0
  outer loop
    vertex -108.57624204547696 -8.73111859375527 23.00000000000001
    vertex -109.20326633697495 -7.482383775941504 23.00000000000001
    vertex -109.20326633697495 -8.73111859375527 23.00000000000001
  endloop
endfacet
facet normal 0.0 0.0 1.0
  outer loop
    vertex -109.20326633697495 -7.482383775941504 23.00000000000001
    vertex -108.57624204547696 -8.73111859375527 23.00000000000001
    vertex -109.20326633697495 -7.069681346791707 23.00000000000001
  endloop
endfacet
facet normal 0.0 0.0 1.0
  outer loop
    vertex -109.20326633697495 -7.069681346791707 23.00000000000001
    vertex -108.57624204547696 -8.73111859375527 23.00000000000001
    vertex -109.20326633697495 -6.011301096285633 23.00000000000001
  endloop
endfacet
facet normal 0.0 0.0 1.0
  outer loop
    vertex -109.20326633697495 -6.011301096285633 23.00000000000001
    vertex -108.57624204547696 -8.73111859375527 23.00000000000001
    vertex -108.57624204547696 -5.975045719261342 23.00000000000001
  endloop
endfacet
facet normal 0.0 0.0 1.0
  outer loop
    vertex -109.20326633697495 -7.482383775941504 23.00000000000001
    vertex -110.012729899728 -7.069681346791707 23.00000000000001
    vertex -110.012729899728 -7.482383775941504 23.00000000000001
  endloop
endfacet
facet normal 0.0 0.0 1.0
  outer loop
    vertex -110.012729899728 -7.069681346791707 23.00000000000001
    vertex -109.20326633697495 -7.482383775941504 23.00000000000001
    vertex -109.20326633697495 -7.069681346791707 23.00000000000001
  endloop
endfacet
facet normal 0.0 0.0 1.0
  outer loop
    vertex -110.64152544628668 -6.441051855394945 23.00000000000001
    vertex -110.012729899728 -5.975045719261342 23.00000000000001
    vertex -110.6977351186045 -6.011301096285633 23.00000000000001
  endloop
endfacet
facet normal 0.0 0.0 1.0
  outer loop
    vertex -110.012729899728 -5.975045719261342 23.00000000000001
    vertex -110.64152544628668 -6.441051855394945 23.00000000000001
    vertex -110.012729899728 -8.73111859375527 23.00000000000001
  endloop
endfacet
facet normal 0.0 0.0 1.0
  outer loop
    vertex -110.012729899728 -5.975045719261342 23.00000000000001
    vertex -110.012729899728 -8.73111859375527 23.00000000000001
    vertex -110.012729899728 -7.482383775941504 23.00000000000001
  endloop
endfacet
facet normal 0.0 0.0 1.0
  outer loop
    vertex -110.012729899728 -5.975045719261342 23.00000000000001
    vertex -110.012729899728 -7.482383775941504 23.00000000000001
    vertex -110.012729899728 -7.069681346791707 23.00000000000001
  endloop
endfacet
facet normal -0.05285317785727954 0.9986022940041681 -2.515082647957602e-15
  outer loop
    vertex -110.6977351186045 -6.011301096285633 23.00000000000001
    vertex -110.012729899728 -5.975045719261342 22.440000000000005
    vertex -110.6977351186045 -6.011301096285635 22.440000000000005
  endloop
endfacet
facet normal -0.05285317785727954 0.9986022940041681 -2.515082647957602e-15
  outer loop
    vertex -110.012729899728 -5.975045719261342 22.440000000000005
    vertex -110.6977351186045 -6.011301096285633 23.00000000000001
    vertex -110.012729899728 -5.975045719261342 23.00000000000001
  endloop
endfacet
facet normal -1.0 0.0 0.0
  outer loop
    vertex -109.20326633697495 -7.482383775941504 23.00000000000001
    vertex -109.20326633697495 -8.73111859375527 22.440000000000005
    vertex -109.20326633697495 -8.73111859375527 23.00000000000001
  endloop
endfacet
facet normal -1.0 0.0 0.0
  outer loop
    vertex -109.20326633697495 -8.73111859375527 22.440000000000005
    vertex -109.20326633697495 -7.482383775941504 23.00000000000001
    vertex -109.20326633697495 -7.482383775941504 22.440000000000005
  endloop
endfacet
facet normal 0.0 -1.0 0.0
  outer loop
    vertex -109.20326633697495 -7.482383775941504 23.00000000000001
    vertex -110.012729899728 -7.482383775941504 22.440000000000005
    vertex -109.20326633697495 -7.482383775941504 22.440000000000005
  endloop
endfacet
facet normal 0.0 -1.0 0.0
  outer loop
    vertex -110.012729899728 -7.482383775941504 22.440000000000005
    vertex -109.20326633697495 -7.482383775941504 23.00000000000001
    vertex -110.012729899728 -7.482383775941504 23.00000000000001
  endloop
endfacet
facet normal 1.0 0.0 0.0
  outer loop
    vertex -110.012729899728 -7.482383775941504 22.440000000000005
    vertex -110.012729899728 -8.73111859375527 23.00000000000001
    vertex -110.012729899728 -8.73111859375527 22.440000000000005
  endloop
endfacet
facet normal 1.0 0.0 0.0
  outer loop
    vertex -110.012729899728 -8.73111859375527 23.00000000000001
    vertex -110.012729899728 -7.482383775941504 22.440000000000005
    vertex -110.012729899728 -7.482383775941504 23.00000000000001
  endloop
endfacet
facet normal 0.0 -1.0 0.0
  outer loop
    vertex -110.012729899728 -8.73111859375527 23.00000000000001
    vertex -110.64152544628668 -8.73111859375527 22.440000000000005
    vertex -110.012729899728 -8.73111859375527 22.440000000000005
  endloop
endfacet
facet normal 0.0 -1.0 0.0
  outer loop
    vertex -110.64152544628668 -8.73111859375527 22.440000000000005
    vertex -110.012729899728 -8.73111859375527 23.00000000000001
    vertex -110.64152544628668 -8.73111859375527 23.00000000000001
  endloop
endfacet
facet normal 1.0 0.0 0.0
  outer loop
    vertex -110.012729899728 -5.975045719261342 22.440000000000005
    vertex -110.012729899728 -7.069681346791707 23.00000000000001
    vertex -110.012729899728 -7.069681346791707 22.440000000000005
  endloop
endfacet
facet normal 1.0 0.0 0.0
  outer loop
    vertex -110.012729899728 -7.069681346791707 23.00000000000001
    vertex -110.012729899728 -5.975045719261342 22.440000000000005
    vertex -110.012729899728 -5.975045719261342 23.00000000000001
  endloop
endfacet
facet normal 0.0 1.0 0.0
  outer loop
    vertex -110.012729899728 -7.069681346791707 23.00000000000001
    vertex -109.20326633697495 -7.069681346791707 22.440000000000005
    vertex -110.012729899728 -7.069681346791707 22.440000000000005
  endloop
endfacet
facet normal 0.0 1.0 0.0
  outer loop
    vertex -109.20326633697495 -7.069681346791707 22.440000000000005
    vertex -110.012729899728 -7.069681346791707 23.00000000000001
    vertex -109.20326633697495 -7.069681346791707 23.00000000000001
  endloop
endfacet
facet normal -1.0 -2.1315337138609728e-14 5.371364728662599e-14
  outer loop
    vertex -109.20326633697495 -6.011301096285633 23.00000000000001
    vertex -109.20326633697495 -7.069681346791707 22.440000000000005
    vertex -109.20326633697495 -7.069681346791707 23.00000000000001
  endloop
endfacet
facet normal -1.0 -2.1315337138609728e-14 5.371364728662599e-14
  outer loop
    vertex -109.20326633697495 -7.069681346791707 22.440000000000005
    vertex -109.20326633697495 -6.011301096285633 23.00000000000001
    vertex -109.20326633697499 -6.011301096285636 22.440000000000005
  endloop
endfacet
facet normal -0.05772491218225074 0.9983325270237124 3.335710976277829e-16
  outer loop
    vertex -109.20326633697495 -6.011301096285633 23.00000000000001
    vertex -108.57624204547702 -5.9750457192613435 22.440000000000005
    vertex -109.20326633697499 -6.011301096285636 22.440000000000005
  endloop
endfacet
facet normal -0.05772491218225074 0.9983325270237124 3.335710976277829e-16
  outer loop
    vertex -108.57624204547702 -5.9750457192613435 22.440000000000005
    vertex -109.20326633697495 -6.011301096285633 23.00000000000001
    vertex -108.57624204547696 -5.975045719261342 23.00000000000001
  endloop
endfacet
facet normal 1.0 8.185462753602121e-15 -5.3713647286625944e-14
  outer loop
    vertex -108.57624204547702 -5.9750457192613435 22.440000000000005
    vertex -108.57624204547696 -8.73111859375527 23.00000000000001
    vertex -108.57624204547696 -8.73111859375527 22.440000000000005
  endloop
endfacet
facet normal 1.0 8.185462753602121e-15 -5.3713647286625944e-14
  outer loop
    vertex -108.57624204547696 -8.73111859375527 23.00000000000001
    vertex -108.57624204547702 -5.9750457192613435 22.440000000000005
    vertex -108.57624204547696 -5.975045719261342 23.00000000000001
  endloop
endfacet
facet normal 0.0 -1.0 0.0
  outer loop
    vertex -108.57624204547696 -8.73111859375527 23.00000000000001
    vertex -109.20326633697495 -8.73111859375527 22.440000000000005
    vertex -108.57624204547696 -8.73111859375527 22.440000000000005
  endloop
endfacet
facet normal 0.0 -1.0 0.0
  outer loop
    vertex -109.20326633697495 -8.73111859375527 22.440000000000005
    vertex -108.57624204547696 -8.73111859375527 23.00000000000001
    vertex -109.20326633697495 -8.73111859375527 23.00000000000001
  endloop
endfacet
facet normal 1.0 0.0 0.0
  outer loop
    vertex -107.42846876612475 -6.67377816485851 22.440000000000005
    vertex -107.42846876612475 -7.069681346791707 23.00000000000001
    vertex -107.42846876612475 -7.069681346791707 22.440000000000005
  endloop
endfacet
facet normal 1.0 0.0 0.0
  outer loop
    vertex -107.42846876612475 -7.069681346791707 23.00000000000001
    vertex -107.42846876612475 -6.67377816485851 22.440000000000005
    vertex -107.42846876612475 -6.673778164858508 23.00000000000001
  endloop
endfacet
facet normal 0.9941590688690747 0.1079247227718209 -5.429703598979135e-16
  outer loop
    vertex -107.45567413682313 -6.423173249625716 22.440000000000005
    vertex -107.42846876612475 -6.673778164858508 23.00000000000001
    vertex -107.42846876612475 -6.67377816485851 22.440000000000005
  endloop
endfacet
facet normal 0.9941590688690747 0.1079247227718209 -5.429703598979135e-16
  outer loop
    vertex -107.42846876612475 -6.673778164858508 23.00000000000001
    vertex -107.45567413682313 -6.423173249625716 22.440000000000005
    vertex -107.45567413682313 -6.423173249625715 23.00000000000001
  endloop
endfacet
facet normal 0.0 0.0 1.0
  outer loop
    vertex -106.49678860418143 -7.455814950030573 23.00000000000001
    vertex -107.42846876612475 -7.069681346791707 23.00000000000001
    vertex -107.42846876612475 -7.455814950030573 23.00000000000001
  endloop
endfacet
facet normal 0.0 0.0 1.0
  outer loop
    vertex -107.42846876612475 -7.069681346791707 23.00000000000001
    vertex -106.49678860418143 -7.455814950030573 23.00000000000001
    vertex -106.49678860418143 -7.069681346791707 23.00000000000001
  endloop
endfacet
facet normal 0.0 0.0 1.0
  outer loop
    vertex -107.42846876612475 -8.73111859375527 23.00000000000001
    vertex -108.06434933292637 -6.440332283026525 23.00000000000001
    vertex -108.06434933292637 -8.73111859375527 23.00000000000001
  endloop
endfacet
facet normal 0.0 0.0 1.0
  outer loop
    vertex -108.06434933292637 -6.440332283026525 23.00000000000001
    vertex -107.42846876612475 -8.73111859375527 23.00000000000001
    vertex -107.45567413682313 -6.423173249625715 23.00000000000001
  endloop
endfacet
facet normal 0.0 0.0 1.0
  outer loop
    vertex -107.45567413682313 -6.423173249625715 23.00000000000001
    vertex -107.42846876612475 -8.73111859375527 23.00000000000001
    vertex -107.42846876612475 -6.673778164858508 23.00000000000001
  endloop
endfacet
facet normal 0.0 0.0 1.0
  outer loop
    vertex -107.42846876612475 -6.673778164858508 23.00000000000001
    vertex -107.42846876612475 -8.73111859375527 23.00000000000001
    vertex -107.42846876612475 -7.455814950030573 23.00000000000001
  endloop
endfacet
facet normal 0.0 0.0 1.0
  outer loop
    vertex -107.42846876612475 -6.673778164858508 23.00000000000001
    vertex -107.42846876612475 -7.455814950030573 23.00000000000001
    vertex -107.42846876612475 -7.069681346791707 23.00000000000001
  endloop
endfacet
facet normal 0.0 0.0 1.0
  outer loop
    vertex -108.06434933292637 -6.440332283026525 23.00000000000001
    vertex -106.3108068228049 -6.010470820475917 23.00000000000001
    vertex -108.12783775650936 -6.010470820475917 23.00000000000001
  endloop
endfacet
facet normal 0.0 0.0 1.0
  outer loop
    vertex -106.3108068228049 -6.010470820475917 23.00000000000001
    vertex -108.06434933292637 -6.440332283026525 23.00000000000001
    vertex -107.45567413682313 -6.423173249625715 23.00000000000001
  endloop
endfacet
facet normal 0.0 0.0 1.0
  outer loop
    vertex -106.3108068228049 -6.010470820475917 23.00000000000001
    vertex -107.45567413682313 -6.423173249625715 23.00000000000001
    vertex -106.3597930955782 -6.423173249625715 23.00000000000001
  endloop
endfacet
facet normal 0.0 1.0 0.0
  outer loop
    vertex -107.42846876612475 -7.069681346791707 23.00000000000001
    vertex -106.49678860418143 -7.069681346791707 22.440000000000005
    vertex -107.42846876612475 -7.069681346791707 22.440000000000005
  endloop
endfacet
facet normal 0.0 1.0 0.0
  outer loop
    vertex -106.49678860418143 -7.069681346791707 22.440000000000005
    vertex -107.42846876612475 -7.069681346791707 23.00000000000001
    vertex -106.49678860418143 -7.069681346791707 23.00000000000001
  endloop
endfacet
facet normal 0.0 -1.0 0.0
  outer loop
    vertex -107.42846876612475 -8.73111859375527 23.00000000000001
    vertex -108.06434933292637 -8.73111859375527 22.440000000000005
    vertex -107.42846876612475 -8.73111859375527 22.440000000000005
  endloop
endfacet
facet normal 0.0 -1.0 0.0
  outer loop
    vertex -108.06434933292637 -8.73111859375527 22.440000000000005
    vertex -107.42846876612475 -8.73111859375527 23.00000000000001
    vertex -108.06434933292637 -8.73111859375527 23.00000000000001
  endloop
endfacet
facet normal -1.0 0.0 0.0
  outer loop
    vertex -108.06434933292637 -6.440332283026525 23.00000000000001
    vertex -108.06434933292637 -8.73111859375527 22.440000000000005
    vertex -108.06434933292637 -8.73111859375527 23.00000000000001
  endloop
endfacet
facet normal -1.0 0.0 0.0
  outer loop
    vertex -108.06434933292637 -8.73111859375527 22.440000000000005
    vertex -108.06434933292637 -6.440332283026525 23.00000000000001
    vertex -108.06434933292637 -6.440332283026525 22.440000000000005
  endloop
endfacet
facet normal -0.9892683397932424 -0.1461100676980276 -2.4623410064245755e-16
  outer loop
    vertex -108.12783775650936 -6.010470820475917 23.00000000000001
    vertex -108.06434933292637 -6.440332283026525 22.440000000000005
    vertex -108.06434933292637 -6.440332283026525 23.00000000000001
  endloop
endfacet
facet normal -0.9892683397932424 -0.1461100676980276 -2.4623410064245755e-16
  outer loop
    vertex -108.06434933292637 -6.440332283026525 22.440000000000005
    vertex -108.12783775650936 -6.010470820475917 23.00000000000001
    vertex -108.12783775650936 -6.010470820475915 22.440000000000005
  endloop
endfacet
facet normal 3.879909843910481e-16 1.0 1.6785514777070602e-15
  outer loop
    vertex -108.12783775650936 -6.010470820475917 23.00000000000001
    vertex -106.3108068228049 -6.010470820475917 22.440000000000005
    vertex -108.12783775650936 -6.010470820475915 22.440000000000005
  endloop
endfacet
facet normal 3.879909843910481e-16 1.0 1.6785514777070602e-15
  outer loop
    vertex -106.3108068228049 -6.010470820475917 22.440000000000005
    vertex -108.12783775650936 -6.010470820475917 23.00000000000001
    vertex -106.3108068228049 -6.010470820475917 23.00000000000001
  endloop
endfacet
facet normal 0.9930291603427952 -0.11786893869414135 1.9279796767924105e-16
  outer loop
    vertex -106.3108068228049 -6.010470820475917 22.440000000000005
    vertex -106.3597930955782 -6.423173249625715 23.00000000000001
    vertex -106.3597930955782 -6.423173249625716 22.440000000000005
  endloop
endfacet
facet normal 0.9930291603427952 -0.11786893869414135 1.9279796767924105e-16
  outer loop
    vertex -106.3597930955782 -6.423173249625715 23.00000000000001
    vertex -106.3108068228049 -6.010470820475917 22.440000000000005
    vertex -106.3108068228049 -6.010470820475917 23.00000000000001
  endloop
endfacet
facet normal 0.0 -1.0 3.35710295541412e-15
  outer loop
    vertex -106.3597930955782 -6.423173249625715 23.00000000000001
    vertex -107.45567413682313 -6.423173249625716 22.440000000000005
    vertex -106.3597930955782 -6.423173249625716 22.440000000000005
  endloop
endfacet
facet normal 0.0 -1.0 3.35710295541412e-15
  outer loop
    vertex -107.45567413682313 -6.423173249625716 22.440000000000005
    vertex -106.3597930955782 -6.423173249625715 23.00000000000001
    vertex -107.45567413682313 -6.423173249625715 23.00000000000001
  endloop
endfacet
facet normal 1.0 0.0 0.0
  outer loop
    vertex -106.49678860418143 -7.069681346791707 22.440000000000005
    vertex -106.49678860418143 -7.455814950030573 23.00000000000001
    vertex -106.49678860418143 -7.455814950030573 22.440000000000005
  endloop
endfacet
facet normal 1.0 0.0 0.0
  outer loop
    vertex -106.49678860418143 -7.455814950030573 23.00000000000001
    vertex -106.49678860418143 -7.069681346791707 22.440000000000005
    vertex -106.49678860418143 -7.069681346791707 23.00000000000001
  endloop
endfacet
facet normal 0.0 -1.0 0.0
  outer loop
    vertex -106.49678860418143 -7.455814950030573 23.00000000000001
    vertex -107.42846876612475 -7.455814950030573 22.440000000000005
    vertex -106.49678860418143 -7.455814950030573 22.440000000000005
  endloop
endfacet
facet normal 0.0 -1.0 0.0
  outer loop
    vertex -107.42846876612475 -7.455814950030573 22.440000000000005
    vertex -106.49678860418143 -7.455814950030573 23.00000000000001
    vertex -107.42846876612475 -7.455814950030573 23.00000000000001
  endloop
endfacet
facet normal 1.0 0.0 0.0
  outer loop
    vertex -107.42846876612475 -7.455814950030573 22.440000000000005
    vertex -107.42846876612475 -8.73111859375527 23.00000000000001
    vertex -107.42846876612475 -8.73111859375527 22.440000000000005
  endloop
endfacet
facet normal 1.0 0.0 0.0
  outer loop
    vertex -107.42846876612475 -8.73111859375527 23.00000000000001
    vertex -107.42846876612475 -7.455814950030573 22.440000000000005
    vertex -107.42846876612475 -7.455814950030573 23.00000000000001
  endloop
endfacet
facet normal 0.9530178499651932 -0.30291414236994707 4.804615820257938e-16
  outer loop
    vertex -110.81865095235956 -6.010028006710734 22.440000000000005
    vertex -111.5680855740701 -8.367872927004257 23.00000000000001
    vertex -111.5680855740701 -8.367872927004258 22.440000000000005
  endloop
endfacet
facet normal 0.9530178499651932 -0.30291414236994707 4.804615820257938e-16
  outer loop
    vertex -111.5680855740701 -8.367872927004257 23.00000000000001
    vertex -110.81865095235956 -6.010028006710734 22.440000000000005
    vertex -110.81865095235956 -6.010028006710734 23.00000000000001
  endloop
endfacet
facet normal -4.247144641398266e-15 1.0 -5.874930171974824e-15
  outer loop
    vertex -111.3996226122786 -6.010028006710734 23.00000000000001
    vertex -110.81865095235956 -6.010028006710734 22.440000000000005
    vertex -111.39962261227858 -6.01002800671074 22.440000000000005
  endloop
endfacet
facet normal -4.247144641398266e-15 1.0 -5.874930171974824e-15
  outer loop
    vertex -110.81865095235956 -6.010028006710734 22.440000000000005
    vertex -111.3996226122786 -6.010028006710734 23.00000000000001
    vertex -110.81865095235956 -6.010028006710734 23.00000000000001
  endloop
endfacet
facet normal 0.0 0.0 1.0
  outer loop
    vertex -112.25765730990007 -8.730426697247172 23.00000000000001
    vertex -112.53145459608426 -5.975045719261342 23.00000000000001
    vertex -113.11596876612477 -6.011301096285633 23.00000000000001
  endloop
endfacet
facet normal 0.0 0.0 1.0
  outer loop
    vertex -112.53145459608426 -5.975045719261342 23.00000000000001
    vertex -112.25765730990007 -8.730426697247172 23.00000000000001
    vertex -112.07253348019358 -7.46148850139697 23.00000000000001
  endloop
endfacet
facet normal 0.0 0.0 1.0
  outer loop
    vertex -112.07253348019358 -7.46148850139697 23.00000000000001
    vertex -112.25765730990007 -8.730426697247172 23.00000000000001
    vertex -111.9763875414284 -8.259106795931382 23.00000000000001
  endloop
endfacet
facet normal 0.0 0.0 1.0
  outer loop
    vertex -111.9763875414284 -8.259106795931382 23.00000000000001
    vertex -112.25765730990007 -8.730426697247172 23.00000000000001
    vertex -111.61889845362475 -8.761229929787659 23.00000000000001
  endloop
endfacet
facet normal 0.0 0.0 1.0
  outer loop
    vertex -111.9763875414284 -8.259106795931382 23.00000000000001
    vertex -111.61889845362475 -8.761229929787659 23.00000000000001
    vertex -111.84943837012273 -7.4610456876317865 23.00000000000001
  endloop
endfacet
facet normal 0.0 0.0 1.0
  outer loop
    vertex -111.84943837012273 -7.4610456876317865 23.00000000000001
    vertex -111.61889845362475 -8.761229929787659 23.00000000000001
    vertex -111.3996226122786 -6.010028006710734 23.00000000000001
  endloop
endfacet
facet normal 0.0 0.0 1.0
  outer loop
    vertex -111.3996226122786 -6.010028006710734 23.00000000000001
    vertex -111.61889845362475 -8.761229929787659 23.00000000000001
    vertex -111.5680855740701 -8.367872927004257 23.00000000000001
  endloop
endfacet
facet normal 0.0 0.0 1.0
  outer loop
    vertex -111.3996226122786 -6.010028006710734 23.00000000000001
    vertex -111.5680855740701 -8.367872927004257 23.00000000000001
    vertex -110.81865095235956 -6.010028006710734 23.00000000000001
  endloop
endfacet
facet normal 0.9917595727289347 -0.12811303563853732 -2.6205764414878786e-14
  outer loop
    vertex -111.5680855740701 -8.367872927004258 22.440000000000005
    vertex -111.61889845362475 -8.761229929787659 23.00000000000001
    vertex -111.61889845362477 -8.761229929787659 22.440000000000005
  endloop
endfacet
facet normal 0.9917595727289347 -0.12811303563853732 -2.6205764414878786e-14
  outer loop
    vertex -111.61889845362475 -8.761229929787659 23.00000000000001
    vertex -111.5680855740701 -8.367872927004258 22.440000000000005
    vertex -111.5680855740701 -8.367872927004257 23.00000000000001
  endloop
endfacet
facet normal -0.048167595536090214 -0.9988392677204234 -5.025170347866643e-15
  outer loop
    vertex -111.61889845362475 -8.761229929787659 23.00000000000001
    vertex -112.25765730990004 -8.730426697247166 22.440000000000005
    vertex -111.61889845362477 -8.761229929787659 22.440000000000005
  endloop
endfacet
facet normal -0.048167595536090214 -0.9988392677204234 -5.025170347866643e-15
  outer loop
    vertex -112.25765730990004 -8.730426697247166 22.440000000000005
    vertex -111.61889845362475 -8.761229929787659 23.00000000000001
    vertex -112.25765730990007 -8.730426697247172 23.00000000000001
  endloop
endfacet
facet normal -0.9536188912405237 -0.3010166278948634 -5.5356151887065526e-14
  outer loop
    vertex -113.11596876612477 -6.011301096285633 23.00000000000001
    vertex -112.25765730990004 -8.730426697247166 22.440000000000005
    vertex -112.25765730990007 -8.730426697247172 23.00000000000001
  endloop
endfacet
facet normal -0.9536188912405237 -0.3010166278948634 -5.5356151887065526e-14
  outer loop
    vertex -112.25765730990004 -8.730426697247166 22.440000000000005
    vertex -113.11596876612477 -6.011301096285633 23.00000000000001
    vertex -113.11596876612474 -6.011301096285628 22.440000000000005
  endloop
endfacet
facet normal -0.061907541384712876 0.9980818885841483 6.690696057653911e-15
  outer loop
    vertex -113.11596876612477 -6.011301096285633 23.00000000000001
    vertex -112.5314545960843 -5.9750457192613435 22.440000000000005
    vertex -113.11596876612474 -6.011301096285628 22.440000000000005
  endloop
endfacet
facet normal -0.061907541384712876 0.9980818885841483 6.690696057653911e-15
  outer loop
    vertex -112.5314545960843 -5.9750457192613435 22.440000000000005
    vertex -113.11596876612477 -6.011301096285633 23.00000000000001
    vertex -112.53145459608426 -5.975045719261342 23.00000000000001
  endloop
endfacet
facet normal 0.9554977752194957 0.2949983077080174 -5.382023532688866e-14
  outer loop
    vertex -112.5314545960843 -5.9750457192613435 22.440000000000005
    vertex -112.07253348019358 -7.46148850139697 23.00000000000001
    vertex -112.07253348019358 -7.461488501396976 22.44000000000001
  endloop
endfacet
facet normal 0.9554977752194957 0.2949983077080174 -5.382023532688866e-14
  outer loop
    vertex -112.07253348019358 -7.46148850139697 23.00000000000001
    vertex -112.5314545960843 -5.9750457192613435 22.440000000000005
    vertex -112.53145459608426 -5.975045719261342 23.00000000000001
  endloop
endfacet
facet normal 0.9928131245271098 0.1196749755242003 -1.4083079591172185e-15
  outer loop
    vertex -112.07253348019358 -7.461488501396976 22.44000000000001
    vertex -111.9763875414284 -8.259106795931382 23.00000000000001
    vertex -111.9763875414284 -8.259106795931386 22.440000000000005
  endloop
endfacet
facet normal 0.9928131245271098 0.1196749755242003 -1.4083079591172185e-15
  outer loop
    vertex -111.9763875414284 -8.259106795931382 23.00000000000001
    vertex -112.07253348019358 -7.461488501396976 22.44000000000001
    vertex -112.07253348019358 -7.46148850139697 23.00000000000001
  endloop
endfacet
facet normal -0.98758320476145 0.1570968289721468 -2.8384767225917253e-14
  outer loop
    vertex -111.9763875414284 -8.259106795931382 23.00000000000001
    vertex -111.84943837012271 -7.461045687631793 22.440000000000005
    vertex -111.9763875414284 -8.259106795931386 22.440000000000005
  endloop
endfacet
facet normal -0.98758320476145 0.1570968289721468 -2.8384767225917253e-14
  outer loop
    vertex -111.84943837012271 -7.461045687631793 22.440000000000005
    vertex -111.9763875414284 -8.259106795931382 23.00000000000001
    vertex -111.84943837012273 -7.4610456876317865 23.00000000000001
  endloop
endfacet
facet normal -0.9551572746498154 0.29609893732253945 -5.5078001285628785e-14
  outer loop
    vertex -111.84943837012273 -7.4610456876317865 23.00000000000001
    vertex -111.39962261227858 -6.01002800671074 22.440000000000005
    vertex -111.84943837012271 -7.461045687631793 22.440000000000005
  endloop
endfacet
facet normal -0.9551572746498154 0.29609893732253945 -5.5078001285628785e-14
  outer loop
    vertex -111.39962261227858 -6.01002800671074 22.440000000000005
    vertex -111.84943837012273 -7.4610456876317865 23.00000000000001
    vertex -111.3996226122786 -6.010028006710734 23.00000000000001
  endloop
endfacet
endsolid RMP_Front
