solid RMP_Front
facet normal -1.0 0.0 0.0
  outer loop
    vertex -142.30377577342537 -22.230852102610047 23.140000000000008
    vertex -142.30377577342537 -24.52091884097037 23.000000000000007
    vertex -142.30377577342537 -24.52091884097037 23.140000000000008
  endloop
endfacet
facet normal -1.0 0.0 0.0
  outer loop
    vertex -142.30377577342537 -24.52091884097037 23.000000000000007
    vertex -142.30377577342537 -22.230852102610047 23.140000000000008
    vertex -142.30377577342537 -22.230852102610047 23.000000000000007
  endloop
endfacet
facet normal 1.0 0.0 0.0
  outer loop
    vertex -139.09071909326346 -23.245615197245677 23.000000000000007
    vertex -139.09071909326346 -24.52091884097037 23.140000000000008
    vertex -139.09071909326346 -24.52091884097037 23.000000000000007
  endloop
endfacet
facet normal 1.0 0.0 0.0
  outer loop
    vertex -139.09071909326346 -24.52091884097037 23.140000000000008
    vertex -139.09071909326346 -23.245615197245677 23.000000000000007
    vertex -139.09071909326346 -23.245615197245677 23.140000000000008
  endloop
endfacet
facet normal 0.0 -1.0 0.0
  outer loop
    vertex -138.15903893132014 -23.245615197245677 23.140000000000008
    vertex -139.09071909326346 -23.245615197245677 23.000000000000007
    vertex -138.15903893132014 -23.245615197245677 23.000000000000007
  endloop
endfacet
facet normal 0.0 -1.0 0.0
  outer loop
    vertex -139.09071909326346 -23.245615197245677 23.000000000000007
    vertex -138.15903893132014 -23.245615197245677 23.140000000000008
    vertex -139.09071909326346 -23.245615197245677 23.140000000000008
  endloop
endfacet
facet normal 1.0 0.0 0.0
  outer loop
    vertex -138.15903893132014 -22.859481594006805 23.000000000000007
    vertex -138.15903893132014 -23.245615197245677 23.140000000000008
    vertex -138.15903893132014 -23.245615197245677 23.000000000000007
  endloop
endfacet
facet normal 1.0 0.0 0.0
  outer loop
    vertex -138.15903893132014 -23.245615197245677 23.140000000000008
    vertex -138.15903893132014 -22.859481594006805 23.000000000000007
    vertex -138.15903893132014 -22.859481594006805 23.140000000000008
  endloop
endfacet
facet normal 0.0 1.0 0.0
  outer loop
    vertex -139.79008808364807 -21.800271067691018 23.140000000000008
    vertex -137.9730571499436 -21.800271067691018 23.000000000000007
    vertex -139.79008808364807 -21.800271067691018 23.000000000000007
  endloop
endfacet
facet normal 0.0 1.0 0.0
  outer loop
    vertex -137.9730571499436 -21.800271067691018 23.000000000000007
    vertex -139.79008808364807 -21.800271067691018 23.140000000000008
    vertex -137.9730571499436 -21.800271067691018 23.140000000000008
  endloop
endfacet
facet normal 0.0 -1.0 0.0
  outer loop
    vertex -140.86551666411364 -23.272184023156605 23.140000000000008
    vertex -141.6749802268667 -23.272184023156605 23.000000000000007
    vertex -140.86551666411364 -23.272184023156605 23.000000000000007
  endloop
endfacet
facet normal 0.0 -1.0 0.0
  outer loop
    vertex -141.6749802268667 -23.272184023156605 23.000000000000007
    vertex -140.86551666411364 -23.272184023156605 23.140000000000008
    vertex -141.6749802268667 -23.272184023156605 23.140000000000008
  endloop
endfacet
facet normal 1.0 0.0 0.0
  outer loop
    vertex -141.6749802268667 -23.272184023156605 23.000000000000007
    vertex -141.6749802268667 -24.52091884097037 23.140000000000008
    vertex -141.6749802268667 -24.52091884097037 23.000000000000007
  endloop
endfacet
facet normal 1.0 0.0 0.0
  outer loop
    vertex -141.6749802268667 -24.52091884097037 23.140000000000008
    vertex -141.6749802268667 -23.272184023156605 23.000000000000007
    vertex -141.6749802268667 -23.272184023156605 23.140000000000008
  endloop
endfacet
facet normal -1.0 0.0 0.0
  outer loop
    vertex -140.86551666411364 -21.801101343500733 23.140000000000008
    vertex -140.86551666411364 -22.859481594006805 23.000000000000007
    vertex -140.86551666411364 -22.859481594006805 23.140000000000008
  endloop
endfacet
facet normal -1.0 0.0 0.0
  outer loop
    vertex -140.86551666411364 -22.859481594006805 23.000000000000007
    vertex -140.86551666411364 -21.801101343500733 23.140000000000008
    vertex -140.86551666411364 -21.801101343500733 23.000000000000007
  endloop
endfacet
facet normal 1.0 0.0 0.0
  outer loop
    vertex -141.6749802268667 -21.764845966476443 23.000000000000007
    vertex -141.6749802268667 -22.859481594006805 23.140000000000008
    vertex -141.6749802268667 -22.859481594006805 23.000000000000007
  endloop
endfacet
facet normal 1.0 0.0 0.0
  outer loop
    vertex -141.6749802268667 -22.859481594006805 23.140000000000008
    vertex -141.6749802268667 -21.764845966476443 23.000000000000007
    vertex -141.6749802268667 -21.764845966476443 23.140000000000008
  endloop
endfacet
facet normal 0.9930291603427952 -0.11786893869414138 0.0
  outer loop
    vertex -137.9730571499436 -21.800271067691018 23.000000000000007
    vertex -138.0220434227169 -22.212973496840817 23.140000000000008
    vertex -138.0220434227169 -22.212973496840817 23.000000000000007
  endloop
endfacet
facet normal 0.9930291603427952 -0.11786893869414138 0.0
  outer loop
    vertex -138.0220434227169 -22.212973496840817 23.140000000000008
    vertex -137.9730571499436 -21.800271067691018 23.000000000000007
    vertex -137.9730571499436 -21.800271067691018 23.140000000000008
  endloop
endfacet
facet normal -0.9915544151345604 -0.12969133289144605 0.0
  outer loop
    vertex -142.3599854457432 -21.801101343500733 23.140000000000008
    vertex -142.30377577342537 -22.230852102610047 23.000000000000007
    vertex -142.30377577342537 -22.230852102610047 23.140000000000008
  endloop
endfacet
facet normal -0.9915544151345604 -0.12969133289144605 0.0
  outer loop
    vertex -142.30377577342537 -22.230852102610047 23.000000000000007
    vertex -142.3599854457432 -21.801101343500733 23.140000000000008
    vertex -142.3599854457432 -21.801101343500733 23.000000000000007
  endloop
endfacet
facet normal 1.0 0.0 0.0
  outer loop
    vertex -139.09071909326346 -22.46357841207361 23.000000000000007
    vertex -139.09071909326346 -22.859481594006805 23.140000000000008
    vertex -139.09071909326346 -22.859481594006805 23.000000000000007
  endloop
endfacet
facet normal 1.0 0.0 0.0
  outer loop
    vertex -139.09071909326346 -22.859481594006805 23.140000000000008
    vertex -139.09071909326346 -22.46357841207361 23.000000000000007
    vertex -139.09071909326346 -22.46357841207361 23.140000000000008
  endloop
endfacet
facet normal 0.0 1.0 0.0
  outer loop
    vertex -139.09071909326346 -22.859481594006805 23.140000000000008
    vertex -138.15903893132014 -22.859481594006805 23.000000000000007
    vertex -139.09071909326346 -22.859481594006805 23.000000000000007
  endloop
endfacet
facet normal 0.0 1.0 0.0
  outer loop
    vertex -138.15903893132014 -22.859481594006805 23.000000000000007
    vertex -139.09071909326346 -22.859481594006805 23.140000000000008
    vertex -138.15903893132014 -22.859481594006805 23.140000000000008
  endloop
endfacet
facet normal 0.0 -1.0 0.0
  outer loop
    vertex -141.6749802268667 -24.52091884097037 23.140000000000008
    vertex -142.30377577342537 -24.52091884097037 23.000000000000007
    vertex -141.6749802268667 -24.52091884097037 23.000000000000007
  endloop
endfacet
facet normal 0.0 -1.0 0.0
  outer loop
    vertex -142.30377577342537 -24.52091884097037 23.000000000000007
    vertex -141.6749802268667 -24.52091884097037 23.140000000000008
    vertex -142.30377577342537 -24.52091884097037 23.140000000000008
  endloop
endfacet
facet normal 0.9941590688690747 0.10792472277182179 0.0
  outer loop
    vertex -139.11792446396183 -22.212973496840817 23.000000000000007
    vertex -139.09071909326346 -22.46357841207361 23.140000000000008
    vertex -139.09071909326346 -22.46357841207361 23.000000000000007
  endloop
endfacet
facet normal 0.9941590688690747 0.10792472277182179 0.0
  outer loop
    vertex -139.09071909326346 -22.46357841207361 23.140000000000008
    vertex -139.11792446396183 -22.212973496840817 23.000000000000007
    vertex -139.11792446396183 -22.212973496840817 23.140000000000008
  endloop
endfacet
facet normal 0.0 1.0 0.0
  outer loop
    vertex -141.6749802268667 -22.859481594006805 23.140000000000008
    vertex -140.86551666411364 -22.859481594006805 23.000000000000007
    vertex -141.6749802268667 -22.859481594006805 23.000000000000007
  endloop
endfacet
facet normal 0.0 1.0 0.0
  outer loop
    vertex -140.86551666411364 -22.859481594006805 23.000000000000007
    vertex -141.6749802268667 -22.859481594006805 23.140000000000008
    vertex -140.86551666411364 -22.859481594006805 23.140000000000008
  endloop
endfacet
facet normal -0.05285317785727596 0.9986022940041683 0.0
  outer loop
    vertex -142.3599854457432 -21.801101343500733 23.140000000000008
    vertex -141.6749802268667 -21.764845966476443 23.000000000000007
    vertex -142.3599854457432 -21.801101343500733 23.000000000000007
  endloop
endfacet
facet normal -0.05285317785727596 0.9986022940041683 0.0
  outer loop
    vertex -141.6749802268667 -21.764845966476443 23.000000000000007
    vertex -142.3599854457432 -21.801101343500733 23.140000000000008
    vertex -141.6749802268667 -21.764845966476443 23.140000000000008
  endloop
endfacet
facet normal -0.9892683397932422 -0.14611006769802753 0.0
  outer loop
    vertex -139.79008808364807 -21.800271067691018 23.140000000000008
    vertex -139.72659966006506 -22.230132530241626 23.000000000000007
    vertex -139.72659966006506 -22.230132530241626 23.140000000000008
  endloop
endfacet
facet normal -0.9892683397932422 -0.14611006769802753 0.0
  outer loop
    vertex -139.72659966006506 -22.230132530241626 23.000000000000007
    vertex -139.79008808364807 -21.800271067691018 23.140000000000008
    vertex -139.79008808364807 -21.800271067691018 23.000000000000007
  endloop
endfacet
facet normal -1.0 0.0 0.0
  outer loop
    vertex -139.72659966006506 -22.230132530241626 23.140000000000008
    vertex -139.72659966006506 -24.52091884097037 23.000000000000007
    vertex -139.72659966006506 -24.52091884097037 23.140000000000008
  endloop
endfacet
facet normal -1.0 0.0 0.0
  outer loop
    vertex -139.72659966006506 -24.52091884097037 23.000000000000007
    vertex -139.72659966006506 -22.230132530241626 23.140000000000008
    vertex -139.72659966006506 -22.230132530241626 23.000000000000007
  endloop
endfacet
facet normal -0.057724912182247935 0.9983325270237126 0.0
  outer loop
    vertex -140.86551666411364 -21.801101343500733 23.140000000000008
    vertex -140.23849237261567 -21.764845966476443 23.000000000000007
    vertex -140.86551666411364 -21.801101343500733 23.000000000000007
  endloop
endfacet
facet normal -0.057724912182247935 0.9983325270237126 0.0
  outer loop
    vertex -140.23849237261567 -21.764845966476443 23.000000000000007
    vertex -140.86551666411364 -21.801101343500733 23.140000000000008
    vertex -140.23849237261567 -21.764845966476443 23.140000000000008
  endloop
endfacet
facet normal 0.0 -1.0 0.0
  outer loop
    vertex -138.0220434227169 -22.212973496840817 23.140000000000008
    vertex -139.11792446396183 -22.212973496840817 23.000000000000007
    vertex -138.0220434227169 -22.212973496840817 23.000000000000007
  endloop
endfacet
facet normal 0.0 -1.0 0.0
  outer loop
    vertex -139.11792446396183 -22.212973496840817 23.000000000000007
    vertex -138.0220434227169 -22.212973496840817 23.140000000000008
    vertex -139.11792446396183 -22.212973496840817 23.140000000000008
  endloop
endfacet
facet normal 0.38448899474462267 0.9231295753686315 1.6923615566819968e-30
  outer loop
    vertex -136.17141399457924 -22.81326290726592 23.140000000000008
    vertex -136.026084592536 -22.8737934732768 23.000000000000007
    vertex -136.17141399457924 -22.81326290726592 23.000000000000007
  endloop
endfacet
facet normal 0.38448899474462267 0.9231295753686315 1.6923615566819968e-30
  outer loop
    vertex -136.026084592536 -22.8737934732768 23.000000000000007
    vertex -136.17141399457924 -22.81326290726592 23.140000000000008
    vertex -136.026084592536 -22.8737934732768 23.140000000000008
  endloop
endfacet
facet normal 0.9917595727289381 -0.12811303563850976 0.0
  outer loop
    vertex -143.2303359012088 -24.157673174219358 23.000000000000007
    vertex -143.28114878076346 -24.551030177002758 23.140000000000008
    vertex -143.28114878076346 -24.551030177002758 23.000000000000007
  endloop
endfacet
facet normal 0.9917595727289381 -0.12811303563850976 0.0
  outer loop
    vertex -143.28114878076346 -24.551030177002758 23.140000000000008
    vertex -143.2303359012088 -24.157673174219358 23.000000000000007
    vertex -143.2303359012088 -24.157673174219358 23.140000000000008
  endloop
endfacet
facet normal 0.0 0.0 1.0
  outer loop
    vertex -138.15903893132014 -23.245615197245677 23.140000000000008
    vertex -139.09071909326346 -22.859481594006805 23.140000000000008
    vertex -139.09071909326346 -23.245615197245677 23.140000000000008
  endloop
endfacet
facet normal 0.0 0.0 1.0
  outer loop
    vertex -139.09071909326346 -22.859481594006805 23.140000000000008
    vertex -138.15903893132014 -23.245615197245677 23.140000000000008
    vertex -138.15903893132014 -22.859481594006805 23.140000000000008
  endloop
endfacet
facet normal 0.0 0.0 1.0
  outer loop
    vertex -139.09071909326346 -24.52091884097037 23.140000000000008
    vertex -139.72659966006506 -22.230132530241626 23.140000000000008
    vertex -139.72659966006506 -24.52091884097037 23.140000000000008
  endloop
endfacet
facet normal 0.0 0.0 1.0
  outer loop
    vertex -139.72659966006506 -22.230132530241626 23.140000000000008
    vertex -139.09071909326346 -24.52091884097037 23.140000000000008
    vertex -139.11792446396183 -22.212973496840817 23.140000000000008
  endloop
endfacet
facet normal 0.0 0.0 1.0
  outer loop
    vertex -139.11792446396183 -22.212973496840817 23.140000000000008
    vertex -139.09071909326346 -24.52091884097037 23.140000000000008
    vertex -139.09071909326346 -22.46357841207361 23.140000000000008
  endloop
endfacet
facet normal 0.0 0.0 1.0
  outer loop
    vertex -139.09071909326346 -22.46357841207361 23.140000000000008
    vertex -139.09071909326346 -24.52091884097037 23.140000000000008
    vertex -139.09071909326346 -23.245615197245677 23.140000000000008
  endloop
endfacet
facet normal 0.0 0.0 1.0
  outer loop
    vertex -139.09071909326346 -22.46357841207361 23.140000000000008
    vertex -139.09071909326346 -23.245615197245677 23.140000000000008
    vertex -139.09071909326346 -22.859481594006805 23.140000000000008
  endloop
endfacet
facet normal 0.0 0.0 1.0
  outer loop
    vertex -139.72659966006506 -22.230132530241626 23.140000000000008
    vertex -137.9730571499436 -21.800271067691018 23.140000000000008
    vertex -139.79008808364807 -21.800271067691018 23.140000000000008
  endloop
endfacet
facet normal 0.0 0.0 1.0
  outer loop
    vertex -137.9730571499436 -21.800271067691018 23.140000000000008
    vertex -139.72659966006506 -22.230132530241626 23.140000000000008
    vertex -139.11792446396183 -22.212973496840817 23.140000000000008
  endloop
endfacet
facet normal 0.0 0.0 1.0
  outer loop
    vertex -137.9730571499436 -21.800271067691018 23.140000000000008
    vertex -139.11792446396183 -22.212973496840817 23.140000000000008
    vertex -138.0220434227169 -22.212973496840817 23.140000000000008
  endloop
endfacet
facet normal 0.06832581467428817 0.9976630608823277 1.859797359848722e-30
  outer loop
    vertex -136.51874604164402 -22.763391006962273 23.140000000000008
    vertex -136.33669423243347 -22.775858982038184 23.000000000000007
    vertex -136.51874604164402 -22.763391006962273 23.000000000000007
  endloop
endfacet
facet normal 0.06832581467428817 0.9976630608823277 1.859797359848722e-30
  outer loop
    vertex -136.33669423243347 -22.775858982038184 23.000000000000007
    vertex -136.51874604164402 -22.763391006962273 23.140000000000008
    vertex -136.33669423243347 -22.775858982038184 23.140000000000008
  endloop
endfacet
facet normal 0.708456792639643 -0.7057541873504896 -1.3827557610618563e-30
  outer loop
    vertex -136.0009306949841 -22.37704983477098 23.000000000000007
    vertex -136.2358157215529 -22.61283432680033 23.140000000000008
    vertex -136.2358157215529 -22.61283432680033 23.000000000000007
  endloop
endfacet
facet normal 0.708456792639643 -0.7057541873504896 -1.3827557610618563e-30
  outer loop
    vertex -136.2358157215529 -22.61283432680033 23.140000000000008
    vertex -136.0009306949841 -22.37704983477098 23.000000000000007
    vertex -136.0009306949841 -22.37704983477098 23.140000000000008
  endloop
endfacet
facet normal 0.8059086142482567 -0.5920399526049359 -1.1787274358011936e-30
  outer loop
    vertex -135.90865937666427 -22.25144640217356 23.000000000000007
    vertex -136.0009306949841 -22.37704983477098 23.140000000000008
    vertex -136.0009306949841 -22.37704983477098 23.000000000000007
  endloop
endfacet
facet normal 0.8059086142482567 -0.5920399526049359 -1.1787274358011936e-30
  outer loop
    vertex -136.0009306949841 -22.37704983477098 23.140000000000008
    vertex -135.90865937666427 -22.25144640217356 23.000000000000007
    vertex -135.90865937666427 -22.25144640217356 23.140000000000008
  endloop
endfacet
facet normal 0.0 -1.0 0.0
  outer loop
    vertex -139.09071909326346 -24.52091884097037 23.140000000000008
    vertex -139.72659966006506 -24.52091884097037 23.000000000000007
    vertex -139.09071909326346 -24.52091884097037 23.000000000000007
  endloop
endfacet
facet normal 0.0 -1.0 0.0
  outer loop
    vertex -139.72659966006506 -24.52091884097037 23.000000000000007
    vertex -139.09071909326346 -24.52091884097037 23.140000000000008
    vertex -139.72659966006506 -24.52091884097037 23.140000000000008
  endloop
endfacet
facet normal 0.72291149719146 0.6909406394390201 1.2280998988834979e-30
  outer loop
    vertex -135.90388529075838 -22.95564137070215 23.000000000000007
    vertex -135.80571901418955 -23.058349947846633 23.140000000000008
    vertex -135.80571901418955 -23.058349947846633 23.000000000000007
  endloop
endfacet
facet normal 0.72291149719146 0.6909406394390201 1.2280998988834979e-30
  outer loop
    vertex -135.80571901418955 -23.058349947846633 23.140000000000008
    vertex -135.90388529075838 -22.95564137070215 23.000000000000007
    vertex -135.90388529075838 -22.95564137070215 23.140000000000008
  endloop
endfacet
facet normal 0.2207245246589628 0.9753361903539082 1.8045244515521312e-30
  outer loop
    vertex -136.33669423243347 -22.775858982038184 23.140000000000008
    vertex -136.17141399457924 -22.81326290726592 23.000000000000007
    vertex -136.33669423243347 -22.775858982038184 23.000000000000007
  endloop
endfacet
facet normal 0.2207245246589628 0.9753361903539082 1.8045244515521312e-30
  outer loop
    vertex -136.17141399457924 -22.81326290726592 23.000000000000007
    vertex -136.33669423243347 -22.775858982038184 23.140000000000008
    vertex -136.17141399457924 -22.81326290726592 23.140000000000008
  endloop
endfacet
facet normal -0.04816759553608301 -0.9988392677204238 0.0
  outer loop
    vertex -143.28114878076346 -24.551030177002758 23.140000000000008
    vertex -143.91990763703876 -24.520226944462273 23.000000000000007
    vertex -143.28114878076346 -24.551030177002758 23.000000000000007
  endloop
endfacet
facet normal -0.04816759553608301 -0.9988392677204238 0.0
  outer loop
    vertex -143.91990763703876 -24.520226944462273 23.000000000000007
    vertex -143.28114878076346 -24.551030177002758 23.140000000000008
    vertex -143.91990763703876 -24.520226944462273 23.140000000000008
  endloop
endfacet
facet normal 1.0 0.0 -8.869216398675353e-32
  outer loop
    vertex -135.84041070510557 -21.800271067691018 23.000000000000007
    vertex -135.84041070510557 -22.114059972043243 23.140000000000008
    vertex -135.84041070510557 -22.114059972043243 23.000000000000007
  endloop
endfacet
facet normal 1.0 0.0 -8.869216398675353e-32
  outer loop
    vertex -135.84041070510557 -22.114059972043243 23.140000000000008
    vertex -135.84041070510557 -21.800271067691018 23.000000000000007
    vertex -135.84041070510557 -21.800271067691018 23.140000000000008
  endloop
endfacet
facet normal 0.0 1.0 1.8702279330239895e-30
  outer loop
    vertex -137.36759235363795 -21.800271067691018 23.140000000000008
    vertex -135.84041070510557 -21.800271067691018 23.000000000000007
    vertex -137.36759235363795 -21.800271067691018 23.000000000000007
  endloop
endfacet
facet normal 0.0 1.0 1.8702279330239895e-30
  outer loop
    vertex -135.84041070510557 -21.800271067691018 23.000000000000007
    vertex -137.36759235363795 -21.800271067691018 23.140000000000008
    vertex -135.84041070510557 -21.800271067691018 23.140000000000008
  endloop
endfacet
facet normal -0.9945266366489262 0.10448334314987591 2.836143864414896e-31
  outer loop
    vertex -137.36759235363795 -21.800271067691018 23.140000000000008
    vertex -137.40570201330394 -22.1630185689562 23.000000000000007
    vertex -137.40570201330394 -22.1630185689562 23.140000000000008
  endloop
endfacet
facet normal -0.9945266366489262 0.10448334314987591 2.836143864414896e-31
  outer loop
    vertex -137.40570201330394 -22.1630185689562 23.000000000000007
    vertex -137.36759235363795 -21.800271067691018 23.140000000000008
    vertex -137.36759235363795 -21.800271067691018 23.000000000000007
  endloop
endfacet
facet normal 0.8955833280103407 -0.4448938104648372 -9.114840549525147e-31
  outer loop
    vertex -135.84041070510557 -22.114059972043243 23.000000000000007
    vertex -135.90865937666427 -22.25144640217356 23.140000000000008
    vertex -135.90865937666427 -22.25144640217356 23.000000000000007
  endloop
endfacet
facet normal 0.8955833280103407 -0.4448938104648372 -9.114840549525147e-31
  outer loop
    vertex -135.90865937666427 -22.25144640217356 23.140000000000008
    vertex -135.84041070510557 -22.114059972043243 23.000000000000007
    vertex -135.84041070510557 -22.114059972043243 23.140000000000008
  endloop
endfacet
facet normal 0.0 0.0 1.0
  outer loop
    vertex -141.6749802268667 -24.52091884097037 23.140000000000008
    vertex -142.30377577342537 -22.230852102610047 23.140000000000008
    vertex -142.30377577342537 -24.52091884097037 23.140000000000008
  endloop
endfacet
facet normal 0.0 0.0 1.0
  outer loop
    vertex -140.23849237261567 -24.52091884097037 23.140000000000008
    vertex -140.86551666411364 -23.272184023156605 23.140000000000008
    vertex -140.86551666411364 -24.52091884097037 23.140000000000008
  endloop
endfacet
facet normal 0.0 0.0 1.0
  outer loop
    vertex -140.86551666411364 -23.272184023156605 23.140000000000008
    vertex -140.23849237261567 -24.52091884097037 23.140000000000008
    vertex -140.86551666411364 -22.859481594006805 23.140000000000008
  endloop
endfacet
facet normal 0.0 0.0 1.0
  outer loop
    vertex -140.86551666411364 -22.859481594006805 23.140000000000008
    vertex -140.23849237261567 -24.52091884097037 23.140000000000008
    vertex -140.86551666411364 -21.801101343500733 23.140000000000008
  endloop
endfacet
facet normal 0.0 0.0 1.0
  outer loop
    vertex -140.86551666411364 -21.801101343500733 23.140000000000008
    vertex -140.23849237261567 -24.52091884097037 23.140000000000008
    vertex -140.23849237261567 -21.764845966476443 23.140000000000008
  endloop
endfacet
facet normal 0.0 0.0 1.0
  outer loop
    vertex -140.86551666411364 -23.272184023156605 23.140000000000008
    vertex -141.6749802268667 -22.859481594006805 23.140000000000008
    vertex -141.6749802268667 -23.272184023156605 23.140000000000008
  endloop
endfacet
facet normal 0.0 0.0 1.0
  outer loop
    vertex -141.6749802268667 -22.859481594006805 23.140000000000008
    vertex -140.86551666411364 -23.272184023156605 23.140000000000008
    vertex -140.86551666411364 -22.859481594006805 23.140000000000008
  endloop
endfacet
facet normal 0.0 0.0 1.0
  outer loop
    vertex -142.30377577342537 -22.230852102610047 23.140000000000008
    vertex -141.6749802268667 -21.764845966476443 23.140000000000008
    vertex -142.3599854457432 -21.801101343500733 23.140000000000008
  endloop
endfacet
facet normal 0.0 0.0 1.0
  outer loop
    vertex -141.6749802268667 -21.764845966476443 23.140000000000008
    vertex -142.30377577342537 -22.230852102610047 23.140000000000008
    vertex -141.6749802268667 -24.52091884097037 23.140000000000008
  endloop
endfacet
facet normal 0.0 0.0 1.0
  outer loop
    vertex -141.6749802268667 -21.764845966476443 23.140000000000008
    vertex -141.6749802268667 -24.52091884097037 23.140000000000008
    vertex -141.6749802268667 -23.272184023156605 23.140000000000008
  endloop
endfacet
facet normal 0.0 0.0 1.0
  outer loop
    vertex -141.6749802268667 -21.764845966476443 23.140000000000008
    vertex -141.6749802268667 -23.272184023156605 23.140000000000008
    vertex -141.6749802268667 -22.859481594006805 23.140000000000008
  endloop
endfacet
facet normal 0.0 -1.0 -1.8702279330239895e-30
  outer loop
    vertex -136.80532957529786 -22.1630185689562 23.140000000000008
    vertex -137.40570201330394 -22.1630185689562 23.000000000000007
    vertex -136.80532957529786 -22.1630185689562 23.000000000000007
  endloop
endfacet
facet normal 0.0 -1.0 -1.8702279330239895e-30
  outer loop
    vertex -137.40570201330394 -22.1630185689562 23.000000000000007
    vertex -136.80532957529786 -22.1630185689562 23.140000000000008
    vertex -137.40570201330394 -22.1630185689562 23.140000000000008
  endloop
endfacet
facet normal 0.4697633383590993 -0.8827923911847647 -1.6926873160954978e-30
  outer loop
    vertex -136.2358157215529 -22.61283432680033 23.140000000000008
    vertex -136.51874604164402 -22.763391006962273 23.000000000000007
    vertex -136.2358157215529 -22.61283432680033 23.000000000000007
  endloop
endfacet
facet normal 0.4697633383590993 -0.8827923911847647 -1.6926873160954978e-30
  outer loop
    vertex -136.51874604164402 -22.763391006962273 23.000000000000007
    vertex -136.2358157215529 -22.61283432680033 23.140000000000008
    vertex -136.51874604164402 -22.763391006962273 23.140000000000008
  endloop
endfacet
facet normal -1.0 0.0 0.0
  outer loop
    vertex -140.86551666411364 -23.272184023156605 23.140000000000008
    vertex -140.86551666411364 -24.52091884097037 23.000000000000007
    vertex -140.86551666411364 -24.52091884097037 23.140000000000008
  endloop
endfacet
facet normal -1.0 0.0 0.0
  outer loop
    vertex -140.86551666411364 -24.52091884097037 23.000000000000007
    vertex -140.86551666411364 -23.272184023156605 23.140000000000008
    vertex -140.86551666411364 -23.272184023156605 23.000000000000007
  endloop
endfacet
facet normal 0.0 -1.0 0.0
  outer loop
    vertex -140.23849237261567 -24.52091884097037 23.140000000000008
    vertex -140.86551666411364 -24.52091884097037 23.000000000000007
    vertex -140.23849237261567 -24.52091884097037 23.000000000000007
  endloop
endfacet
facet normal 0.0 -1.0 0.0
  outer loop
    vertex -140.86551666411364 -24.52091884097037 23.000000000000007
    vertex -140.23849237261567 -24.52091884097037 23.140000000000008
    vertex -140.86551666411364 -24.52091884097037 23.140000000000008
  endloop
endfacet
facet normal 1.0 0.0 0.0
  outer loop
    vertex -140.23849237261567 -21.764845966476443 23.000000000000007
    vertex -140.23849237261567 -24.52091884097037 23.140000000000008
    vertex -140.23849237261567 -24.52091884097037 23.000000000000007
  endloop
endfacet
facet normal 1.0 0.0 0.0
  outer loop
    vertex -140.23849237261567 -24.52091884097037 23.140000000000008
    vertex -140.23849237261567 -21.764845966476443 23.000000000000007
    vertex -140.23849237261567 -21.764845966476443 23.140000000000008
  endloop
endfacet
facet normal 0.5564955850817239 0.8308505664585841 1.5045231398696762e-30
  outer loop
    vertex -136.026084592536 -22.8737934732768 23.140000000000008
    vertex -135.90388529075838 -22.95564137070215 23.000000000000007
    vertex -136.026084592536 -22.8737934732768 23.000000000000007
  endloop
endfacet
facet normal 0.5564955850817239 0.8308505664585841 1.5045231398696762e-30
  outer loop
    vertex -135.90388529075838 -22.95564137070215 23.000000000000007
    vertex -136.026084592536 -22.8737934732768 23.140000000000008
    vertex -135.90388529075838 -22.95564137070215 23.140000000000008
  endloop
endfacet
facet normal -0.9852974676285884 0.17084759373397923 4.069121066658701e-31
  outer loop
    vertex -136.29022646294968 -23.499762622599928 23.140000000000008
    vertex -136.31448435452356 -23.639660637054632 23.000000000000007
    vertex -136.31448435452356 -23.639660637054632 23.140000000000008
  endloop
endfacet
facet normal -0.9852974676285884 0.17084759373397923 4.069121066658701e-31
  outer loop
    vertex -136.31448435452356 -23.639660637054632 23.000000000000007
    vertex -136.29022646294968 -23.499762622599928 23.140000000000008
    vertex -136.29022646294968 -23.499762622599928 23.000000000000007
  endloop
endfacet
facet normal -0.8656537713258723 0.5006431345672229 1.0130934809864941e-30
  outer loop
    vertex -136.31448435452356 -23.639660637054632 23.140000000000008
    vertex -136.38725802924523 -23.765492395499724 23.000000000000007
    vertex -136.38725802924523 -23.765492395499724 23.140000000000008
  endloop
endfacet
facet normal -0.8656537713258723 0.5006431345672229 1.0130934809864941e-30
  outer loop
    vertex -136.38725802924523 -23.765492395499724 23.000000000000007
    vertex -136.31448435452356 -23.639660637054632 23.140000000000008
    vertex -136.31448435452356 -23.639660637054632 23.000000000000007
  endloop
endfacet
facet normal -0.9698516221620577 -0.2436961858331505 -3.6974917480094696e-31
  outer loop
    vertex -136.33466005669968 -23.32292771306045 23.140000000000008
    vertex -136.29022646294968 -23.499762622599928 23.000000000000007
    vertex -136.29022646294968 -23.499762622599928 23.140000000000008
  endloop
endfacet
facet normal -0.9698516221620577 -0.2436961858331505 -3.6974917480094696e-31
  outer loop
    vertex -136.29022646294968 -23.499762622599928 23.000000000000007
    vertex -136.33466005669968 -23.32292771306045 23.140000000000008
    vertex -136.33466005669968 -23.32292771306045 23.000000000000007
  endloop
endfacet
facet normal 0.0 0.0 -1.0
  outer loop
    vertex -140.23849237261567 -21.764845966476443 23.000000000000007
    vertex -140.86551666411364 -22.859481594006805 23.000000000000007
    vertex -140.86551666411364 -21.801101343500733 23.000000000000007
  endloop
endfacet
facet normal 0.0 0.0 -1.0
  outer loop
    vertex -140.86551666411364 -22.859481594006805 23.000000000000007
    vertex -140.23849237261567 -21.764845966476443 23.000000000000007
    vertex -140.86551666411364 -23.272184023156605 23.000000000000007
  endloop
endfacet
facet normal 0.0 0.0 -1.0
  outer loop
    vertex -140.86551666411364 -23.272184023156605 23.000000000000007
    vertex -140.23849237261567 -21.764845966476443 23.000000000000007
    vertex -140.86551666411364 -24.52091884097037 23.000000000000007
  endloop
endfacet
facet normal 0.0 0.0 -1.0
  outer loop
    vertex -140.86551666411364 -24.52091884097037 23.000000000000007
    vertex -140.23849237261567 -21.764845966476443 23.000000000000007
    vertex -140.23849237261567 -24.52091884097037 23.000000000000007
  endloop
endfacet
facet normal 0.0 0.0 -1.0
  outer loop
    vertex -140.86551666411364 -22.859481594006805 23.000000000000007
    vertex -141.6749802268667 -23.272184023156605 23.000000000000007
    vertex -141.6749802268667 -22.859481594006805 23.000000000000007
  endloop
endfacet
facet normal 0.0 0.0 -1.0
  outer loop
    vertex -141.6749802268667 -23.272184023156605 23.000000000000007
    vertex -140.86551666411364 -22.859481594006805 23.000000000000007
    vertex -140.86551666411364 -23.272184023156605 23.000000000000007
  endloop
endfacet
facet normal 0.0 0.0 -1.0
  outer loop
    vertex -141.6749802268667 -21.764845966476443 23.000000000000007
    vertex -142.30377577342537 -22.230852102610047 23.000000000000007
    vertex -142.3599854457432 -21.801101343500733 23.000000000000007
  endloop
endfacet
facet normal 0.0 0.0 -1.0
  outer loop
    vertex -142.30377577342537 -22.230852102610047 23.000000000000007
    vertex -141.6749802268667 -21.764845966476443 23.000000000000007
    vertex -142.30377577342537 -24.52091884097037 23.000000000000007
  endloop
endfacet
facet normal 0.0 0.0 -1.0
  outer loop
    vertex -142.30377577342537 -24.52091884097037 23.000000000000007
    vertex -141.6749802268667 -21.764845966476443 23.000000000000007
    vertex -141.6749802268667 -24.52091884097037 23.000000000000007
  endloop
endfacet
facet normal 0.0 0.0 -1.0
  outer loop
    vertex -141.6749802268667 -24.52091884097037 23.000000000000007
    vertex -141.6749802268667 -21.764845966476443 23.000000000000007
    vertex -141.6749802268667 -22.859481594006805 23.000000000000007
  endloop
endfacet
facet normal 0.0 0.0 -1.0
  outer loop
    vertex -141.6749802268667 -24.52091884097037 23.000000000000007
    vertex -141.6749802268667 -22.859481594006805 23.000000000000007
    vertex -141.6749802268667 -23.272184023156605 23.000000000000007
  endloop
endfacet
facet normal -8.869216398675353e-32 1.8702279330239895e-30 -1.0
  outer loop
    vertex -137.36759235363795 -21.800271067691018 23.000000000000007
    vertex -136.80532957529786 -22.1630185689562 23.000000000000007
    vertex -137.40570201330394 -22.1630185689562 23.000000000000007
  endloop
endfacet
facet normal -8.869216398675353e-32 1.8702279330239895e-30 -1.0
  outer loop
    vertex -136.80532957529786 -22.1630185689562 23.000000000000007
    vertex -137.36759235363795 -21.800271067691018 23.000000000000007
    vertex -135.84041070510557 -21.800271067691018 23.000000000000007
  endloop
endfacet
facet normal -8.869216398675353e-32 1.8702279330239895e-30 -1.0
  outer loop
    vertex -136.80532957529786 -22.1630185689562 23.000000000000007
    vertex -135.84041070510557 -21.800271067691018 23.000000000000007
    vertex -136.33376059123916 -22.028818322245673 23.000000000000007
  endloop
endfacet
facet normal -8.869216398675353e-32 1.8702279330239895e-30 -1.0
  outer loop
    vertex -136.33376059123916 -22.028818322245673 23.000000000000007
    vertex -135.84041070510557 -21.800271067691018 23.000000000000007
    vertex -136.2358157215529 -22.61283432680033 23.000000000000007
  endloop
endfacet
facet normal -8.869216398675353e-32 1.8702279330239895e-30 -1.0
  outer loop
    vertex -136.2358157215529 -22.61283432680033 23.000000000000007
    vertex -135.84041070510557 -21.800271067691018 23.000000000000007
    vertex -136.0009306949841 -22.37704983477098 23.000000000000007
  endloop
endfacet
facet normal -8.869216398675353e-32 1.8702279330239895e-30 -1.0
  outer loop
    vertex -136.0009306949841 -22.37704983477098 23.000000000000007
    vertex -135.84041070510557 -21.800271067691018 23.000000000000007
    vertex -135.90865937666427 -22.25144640217356 23.000000000000007
  endloop
endfacet
facet normal -8.869216398675353e-32 1.8702279330239895e-30 -1.0
  outer loop
    vertex -135.90865937666427 -22.25144640217356 23.000000000000007
    vertex -135.84041070510557 -21.800271067691018 23.000000000000007
    vertex -135.84041070510557 -22.114059972043243 23.000000000000007
  endloop
endfacet
facet normal -8.869216398675353e-32 1.8702279330239895e-30 -1.0
  outer loop
    vertex -136.44530814627458 -22.172995716602962 23.000000000000007
    vertex -136.51874604164402 -22.763391006962273 23.000000000000007
    vertex -136.59312491626446 -22.32353855883474 23.000000000000007
  endloop
endfacet
facet normal -8.869216398675353e-32 1.8702279330239895e-30 -1.0
  outer loop
    vertex -136.51874604164402 -22.763391006962273 23.000000000000007
    vertex -136.44530814627458 -22.172995716602962 23.000000000000007
    vertex -136.2358157215529 -22.61283432680033 23.000000000000007
  endloop
endfacet
facet normal -8.869216398675353e-32 1.8702279330239895e-30 -1.0
  outer loop
    vertex -136.2358157215529 -22.61283432680033 23.000000000000007
    vertex -136.44530814627458 -22.172995716602962 23.000000000000007
    vertex -136.33376059123916 -22.028818322245673 23.000000000000007
  endloop
endfacet
facet normal -8.869216398675353e-32 1.8702279330239895e-30 -1.0
  outer loop
    vertex -137.0919131089517 -22.72710795407766 23.000000000000007
    vertex -137.21886228025738 -23.14246726581855 23.000000000000007
    vertex -137.21886228025738 -22.819600679280086 23.000000000000007
  endloop
endfacet
facet normal -8.869216398675353e-32 1.8702279330239895e-30 -1.0
  outer loop
    vertex -137.21886228025738 -23.14246726581855 23.000000000000007
    vertex -137.0919131089517 -22.72710795407766 23.000000000000007
    vertex -137.14178500925536 -23.137015121334745 23.000000000000007
  endloop
endfacet
facet normal -8.869216398675353e-32 1.8702279330239895e-30 -1.0
  outer loop
    vertex -137.14178500925536 -23.137015121334745 23.000000000000007
    vertex -137.0919131089517 -22.72710795407766 23.000000000000007
    vertex -137.03386299192235 -23.13066351139041 23.000000000000007
  endloop
endfacet
facet normal -8.869216398675353e-32 1.8702279330239895e-30 -1.0
  outer loop
    vertex -137.03386299192235 -23.13066351139041 23.000000000000007
    vertex -137.0919131089517 -22.72710795407766 23.000000000000007
    vertex -136.93320588792437 -22.60739602024669 23.000000000000007
  endloop
endfacet
facet normal -8.869216398675353e-32 1.8702279330239895e-30 -1.0
  outer loop
    vertex -137.03386299192235 -23.13066351139041 23.000000000000007
    vertex -136.93320588792437 -22.60739602024669 23.000000000000007
    vertex -136.92504150912885 -23.126124670297294 23.000000000000007
  endloop
endfacet
facet normal -8.869216398675353e-32 1.8702279330239895e-30 -1.0
  outer loop
    vertex -136.92504150912885 -23.126124670297294 23.000000000000007
    vertex -136.93320588792437 -22.60739602024669 23.000000000000007
    vertex -136.76089598154786 -22.470455863364098 23.000000000000007
  endloop
endfacet
facet normal -8.869216398675353e-32 1.8702279330239895e-30 -1.0
  outer loop
    vertex -136.92504150912885 -23.126124670297294 23.000000000000007
    vertex -136.76089598154786 -22.470455863364098 23.000000000000007
    vertex -136.8452381658849 -23.124311901446077 23.000000000000007
  endloop
endfacet
facet normal -8.869216398675353e-32 1.8702279330239895e-30 -1.0
  outer loop
    vertex -136.8452381658849 -23.124311901446077 23.000000000000007
    vertex -136.76089598154786 -22.470455863364098 23.000000000000007
    vertex -136.63212020346083 -23.143366731279077 23.000000000000007
  endloop
endfacet
facet normal -8.869216398675353e-32 1.8702279330239895e-30 -1.0
  outer loop
    vertex -136.63212020346083 -23.143366731279077 23.000000000000007
    vertex -136.76089598154786 -22.470455863364098 23.000000000000007
    vertex -136.59312491626446 -22.32353855883474 23.000000000000007
  endloop
endfacet
facet normal -8.869216398675353e-32 1.8702279330239895e-30 -1.0
  outer loop
    vertex -136.63212020346083 -23.143366731279077 23.000000000000007
    vertex -136.59312491626446 -22.32353855883474 23.000000000000007
    vertex -136.45527145599118 -23.20685515486207 23.000000000000007
  endloop
endfacet
facet normal -8.869216398675353e-32 1.8702279330239895e-30 -1.0
  outer loop
    vertex -136.45527145599118 -23.20685515486207 23.000000000000007
    vertex -136.59312491626446 -22.32353855883474 23.000000000000007
    vertex -136.51874604164402 -22.763391006962273 23.000000000000007
  endloop
endfacet
facet normal -8.869216398675353e-32 1.8702279330239895e-30 -1.0
  outer loop
    vertex -136.45527145599118 -23.20685515486207 23.000000000000007
    vertex -136.51874604164402 -22.763391006962273 23.000000000000007
    vertex -136.33669423243347 -22.775858982038184 23.000000000000007
  endloop
endfacet
facet normal -8.869216398675353e-32 1.8702279330239895e-30 -1.0
  outer loop
    vertex -136.45527145599118 -23.20685515486207 23.000000000000007
    vertex -136.33669423243347 -22.775858982038184 23.000000000000007
    vertex -136.33466005669968 -23.32292771306045 23.000000000000007
  endloop
endfacet
facet normal -8.869216398675353e-32 1.8702279330239895e-30 -1.0
  outer loop
    vertex -136.33466005669968 -23.32292771306045 23.000000000000007
    vertex -136.33669423243347 -22.775858982038184 23.000000000000007
    vertex -136.17141399457924 -22.81326290726592 23.000000000000007
  endloop
endfacet
facet normal -8.869216398675353e-32 1.8702279330239895e-30 -1.0
  outer loop
    vertex -136.33466005669968 -23.32292771306045 23.000000000000007
    vertex -136.17141399457924 -22.81326290726592 23.000000000000007
    vertex -136.29022646294968 -23.499762622599928 23.000000000000007
  endloop
endfacet
facet normal -8.869216398675353e-32 1.8702279330239895e-30 -1.0
  outer loop
    vertex -136.29022646294968 -23.499762622599928 23.000000000000007
    vertex -136.17141399457924 -22.81326290726592 23.000000000000007
    vertex -136.24577903126954 -24.27061836020114 23.000000000000007
  endloop
endfacet
facet normal -8.869216398675353e-32 1.8702279330239895e-30 -1.0
  outer loop
    vertex -136.24577903126954 -24.27061836020114 23.000000000000007
    vertex -136.17141399457924 -22.81326290726592 23.000000000000007
    vertex -135.94741941904786 -24.070203617665715 23.000000000000007
  endloop
endfacet
facet normal -8.869216398675353e-32 1.8702279330239895e-30 -1.0
  outer loop
    vertex -135.94741941904786 -24.070203617665715 23.000000000000007
    vertex -136.17141399457924 -22.81326290726592 23.000000000000007
    vertex -136.026084592536 -22.8737934732768 23.000000000000007
  endloop
endfacet
facet normal -8.869216398675353e-32 1.8702279330239895e-30 -1.0
  outer loop
    vertex -135.94741941904786 -24.070203617665715 23.000000000000007
    vertex -136.026084592536 -22.8737934732768 23.000000000000007
    vertex -135.90388529075838 -22.95564137070215 23.000000000000007
  endloop
endfacet
facet normal -8.869216398675353e-32 1.8702279330239895e-30 -1.0
  outer loop
    vertex -135.94741941904786 -24.070203617665715 23.000000000000007
    vertex -135.90388529075838 -22.95564137070215 23.000000000000007
    vertex -135.83360590294842 -23.947094471979984 23.000000000000007
  endloop
endfacet
facet normal -8.869216398675353e-32 1.8702279330239895e-30 -1.0
  outer loop
    vertex -135.83360590294842 -23.947094471979984 23.000000000000007
    vertex -135.90388529075838 -22.95564137070215 23.000000000000007
    vertex -135.80571901418955 -23.058349947846633 23.000000000000007
  endloop
endfacet
facet normal -8.869216398675353e-32 1.8702279330239895e-30 -1.0
  outer loop
    vertex -135.83360590294842 -23.947094471979984 23.000000000000007
    vertex -135.80571901418955 -23.058349947846633 23.000000000000007
    vertex -135.74609137312174 -23.80811322039851 23.000000000000007
  endloop
endfacet
facet normal -8.869216398675353e-32 1.8702279330239895e-30 -1.0
  outer loop
    vertex -135.74609137312174 -23.80811322039851 23.000000000000007
    vertex -135.80571901418955 -23.058349947846633 23.000000000000007
    vertex -135.73248868777256 -23.181462553014907 23.000000000000007
  endloop
endfacet
facet normal -8.869216398675353e-32 1.8702279330239895e-30 -1.0
  outer loop
    vertex -135.74609137312174 -23.80811322039851 23.000000000000007
    vertex -135.73248868777256 -23.181462553014907 23.000000000000007
    vertex -135.69031759560403 -23.65303499655615 23.000000000000007
  endloop
endfacet
facet normal -8.869216398675353e-32 1.8702279330239895e-30 -1.0
  outer loop
    vertex -135.69031759560403 -23.65303499655615 23.000000000000007
    vertex -135.73248868777256 -23.181462553014907 23.000000000000007
    vertex -135.68691692426674 -23.323162957873205 23.000000000000007
  endloop
endfacet
facet normal -8.869216398675353e-32 1.8702279330239895e-30 -1.0
  outer loop
    vertex -135.69031759560403 -23.65303499655615 23.000000000000007
    vertex -135.68691692426674 -23.323162957873205 23.000000000000007
    vertex -135.67172633643145 -23.48163493408778 23.000000000000007
  endloop
endfacet
facet normal -8.869216398675353e-32 1.8702279330239895e-30 -1.0
  outer loop
    vertex -137.00667145915412 -24.101947829457213 23.000000000000007
    vertex -137.4238297018161 -24.52091884097037 23.000000000000007
    vertex -137.4238297018161 -24.15817133970519 23.000000000000007
  endloop
endfacet
facet normal -8.869216398675353e-32 1.8702279330239895e-30 -1.0
  outer loop
    vertex -137.4238297018161 -24.52091884097037 23.000000000000007
    vertex -137.00667145915412 -24.101947829457213 23.000000000000007
    vertex -137.01482200001954 -24.49371347027199 23.000000000000007
  endloop
endfacet
facet normal -8.869216398675353e-32 1.8702279330239895e-30 -1.0
  outer loop
    vertex -137.01482200001954 -24.49371347027199 23.000000000000007
    vertex -137.00667145915412 -24.101947829457213 23.000000000000007
    vertex -136.6121659081673 -24.41118405478616 23.000000000000007
  endloop
endfacet
facet normal -8.869216398675353e-32 1.8702279330239895e-30 -1.0
  outer loop
    vertex -136.6121659081673 -24.41118405478616 23.000000000000007
    vertex -137.00667145915412 -24.101947829457213 23.000000000000007
    vertex -136.6439101199588 -23.96863321027705 23.000000000000007
  endloop
endfacet
facet normal -8.869216398675353e-32 1.8702279330239895e-30 -1.0
  outer loop
    vertex -136.6121659081673 -24.41118405478616 23.000000000000007
    vertex -136.6439101199588 -23.96863321027705 23.000000000000007
    vertex -136.4999368350714 -23.875676914414196 23.000000000000007
  endloop
endfacet
facet normal -8.869216398675353e-32 1.8702279330239895e-30 -1.0
  outer loop
    vertex -136.6121659081673 -24.41118405478616 23.000000000000007
    vertex -136.4999368350714 -23.875676914414196 23.000000000000007
    vertex -136.24577903126954 -24.27061836020114 23.000000000000007
  endloop
endfacet
facet normal -8.869216398675353e-32 1.8702279330239895e-30 -1.0
  outer loop
    vertex -136.24577903126954 -24.27061836020114 23.000000000000007
    vertex -136.4999368350714 -23.875676914414196 23.000000000000007
    vertex -136.38725802924523 -23.765492395499724 23.000000000000007
  endloop
endfacet
facet normal -8.869216398675353e-32 1.8702279330239895e-30 -1.0
  outer loop
    vertex -136.24577903126954 -24.27061836020114 23.000000000000007
    vertex -136.38725802924523 -23.765492395499724 23.000000000000007
    vertex -136.31448435452356 -23.639660637054632 23.000000000000007
  endloop
endfacet
facet normal -8.869216398675353e-32 1.8702279330239895e-30 -1.0
  outer loop
    vertex -136.24577903126954 -24.27061836020114 23.000000000000007
    vertex -136.31448435452356 -23.639660637054632 23.000000000000007
    vertex -136.29022646294968 -23.499762622599928 23.000000000000007
  endloop
endfacet
facet normal 0.0 0.0 -1.0
  outer loop
    vertex -137.9730571499436 -21.800271067691018 23.000000000000007
    vertex -139.72659966006506 -22.230132530241626 23.000000000000007
    vertex -139.79008808364807 -21.800271067691018 23.000000000000007
  endloop
endfacet
facet normal 0.0 0.0 -1.0
  outer loop
    vertex -139.72659966006506 -22.230132530241626 23.000000000000007
    vertex -137.9730571499436 -21.800271067691018 23.000000000000007
    vertex -139.11792446396183 -22.212973496840817 23.000000000000007
  endloop
endfacet
facet normal 0.0 0.0 -1.0
  outer loop
    vertex -139.72659966006506 -22.230132530241626 23.000000000000007
    vertex -139.11792446396183 -22.212973496840817 23.000000000000007
    vertex -139.72659966006506 -24.52091884097037 23.000000000000007
  endloop
endfacet
facet normal 0.0 0.0 -1.0
  outer loop
    vertex -139.11792446396183 -22.212973496840817 23.000000000000007
    vertex -137.9730571499436 -21.800271067691018 23.000000000000007
    vertex -138.0220434227169 -22.212973496840817 23.000000000000007
  endloop
endfacet
facet normal 0.0 0.0 -1.0
  outer loop
    vertex -138.15903893132014 -22.859481594006805 23.000000000000007
    vertex -139.09071909326346 -23.245615197245677 23.000000000000007
    vertex -139.09071909326346 -22.859481594006805 23.000000000000007
  endloop
endfacet
facet normal 0.0 0.0 -1.0
  outer loop
    vertex -139.09071909326346 -23.245615197245677 23.000000000000007
    vertex -138.15903893132014 -22.859481594006805 23.000000000000007
    vertex -138.15903893132014 -23.245615197245677 23.000000000000007
  endloop
endfacet
facet normal 0.0 0.0 -1.0
  outer loop
    vertex -139.11792446396183 -22.212973496840817 23.000000000000007
    vertex -139.09071909326346 -24.52091884097037 23.000000000000007
    vertex -139.72659966006506 -24.52091884097037 23.000000000000007
  endloop
endfacet
facet normal 0.0 0.0 -1.0
  outer loop
    vertex -139.09071909326346 -24.52091884097037 23.000000000000007
    vertex -139.11792446396183 -22.212973496840817 23.000000000000007
    vertex -139.09071909326346 -22.46357841207361 23.000000000000007
  endloop
endfacet
facet normal 0.0 0.0 -1.0
  outer loop
    vertex -139.09071909326346 -24.52091884097037 23.000000000000007
    vertex -139.09071909326346 -22.46357841207361 23.000000000000007
    vertex -139.09071909326346 -22.859481594006805 23.000000000000007
  endloop
endfacet
facet normal 0.0 0.0 -1.0
  outer loop
    vertex -139.09071909326346 -24.52091884097037 23.000000000000007
    vertex -139.09071909326346 -22.859481594006805 23.000000000000007
    vertex -139.09071909326346 -23.245615197245677 23.000000000000007
  endloop
endfacet
facet normal 0.0 0.0 -1.0
  outer loop
    vertex -144.19370492322295 -21.764845966476443 23.000000000000007
    vertex -143.91990763703876 -24.520226944462273 23.000000000000007
    vertex -144.77821909326346 -21.801101343500733 23.000000000000007
  endloop
endfacet
facet normal 0.0 0.0 -1.0
  outer loop
    vertex -143.91990763703876 -24.520226944462273 23.000000000000007
    vertex -144.19370492322295 -21.764845966476443 23.000000000000007
    vertex -143.7347838073323 -23.251288748612073 23.000000000000007
  endloop
endfacet
facet normal 0.0 0.0 -1.0
  outer loop
    vertex -143.91990763703876 -24.520226944462273 23.000000000000007
    vertex -143.7347838073323 -23.251288748612073 23.000000000000007
    vertex -143.6386378685671 -24.048907043146485 23.000000000000007
  endloop
endfacet
facet normal 0.0 0.0 -1.0
  outer loop
    vertex -143.91990763703876 -24.520226944462273 23.000000000000007
    vertex -143.6386378685671 -24.048907043146485 23.000000000000007
    vertex -143.28114878076346 -24.551030177002758 23.000000000000007
  endloop
endfacet
facet normal 0.0 0.0 -1.0
  outer loop
    vertex -143.28114878076346 -24.551030177002758 23.000000000000007
    vertex -143.6386378685671 -24.048907043146485 23.000000000000007
    vertex -143.51168869726143 -23.25084593484689 23.000000000000007
  endloop
endfacet
facet normal 0.0 0.0 -1.0
  outer loop
    vertex -143.28114878076346 -24.551030177002758 23.000000000000007
    vertex -143.51168869726143 -23.25084593484689 23.000000000000007
    vertex -143.0618729394173 -21.799828253925835 23.000000000000007
  endloop
endfacet
facet normal 0.0 0.0 -1.0
  outer loop
    vertex -143.28114878076346 -24.551030177002758 23.000000000000007
    vertex -143.0618729394173 -21.799828253925835 23.000000000000007
    vertex -143.2303359012088 -24.157673174219358 23.000000000000007
  endloop
endfacet
facet normal 0.0 0.0 -1.0
  outer loop
    vertex -143.2303359012088 -24.157673174219358 23.000000000000007
    vertex -143.0618729394173 -21.799828253925835 23.000000000000007
    vertex -142.48090127949826 -21.799828253925835 23.000000000000007
  endloop
endfacet
facet normal -0.6934192447008949 -0.7205343510745622 -1.2860626167203777e-30
  outer loop
    vertex -136.33466005669968 -23.32292771306045 23.140000000000008
    vertex -136.45527145599118 -23.20685515486207 23.000000000000007
    vertex -136.33466005669968 -23.32292771306045 23.000000000000007
  endloop
endfacet
facet normal -0.6934192447008949 -0.7205343510745622 -1.2860626167203777e-30
  outer loop
    vertex -136.45527145599118 -23.20685515486207 23.000000000000007
    vertex -136.33466005669968 -23.32292771306045 23.140000000000008
    vertex -136.45527145599118 -23.20685515486207 23.140000000000008
  endloop
endfacet
facet normal -0.6991490535909705 0.7149759442546655 1.399177024897552e-30
  outer loop
    vertex -136.4999368350714 -23.875676914414196 23.140000000000008
    vertex -136.38725802924523 -23.765492395499724 23.000000000000007
    vertex -136.4999368350714 -23.875676914414196 23.000000000000007
  endloop
endfacet
facet normal -0.6991490535909705 0.7149759442546655 1.399177024897552e-30
  outer loop
    vertex -136.38725802924523 -23.765492395499724 23.000000000000007
    vertex -136.4999368350714 -23.875676914414196 23.140000000000008
    vertex -136.38725802924523 -23.765492395499724 23.140000000000008
  endloop
endfacet
facet normal 0.3581968157301196 -0.9336461006188602 -1.777900267656587e-30
  outer loop
    vertex -136.24577903126954 -24.27061836020114 23.140000000000008
    vertex -136.6121659081673 -24.41118405478616 23.000000000000007
    vertex -136.24577903126954 -24.27061836020114 23.000000000000007
  endloop
endfacet
facet normal 0.3581968157301196 -0.9336461006188602 -1.777900267656587e-30
  outer loop
    vertex -136.6121659081673 -24.41118405478616 23.000000000000007
    vertex -136.24577903126954 -24.27061836020114 23.140000000000008
    vertex -136.6121659081673 -24.41118405478616 23.140000000000008
  endloop
endfacet
facet normal 0.9519792174408003 0.3061626521324923 4.88160847201653e-31
  outer loop
    vertex -135.73248868777256 -23.181462553014907 23.000000000000007
    vertex -135.68691692426674 -23.323162957873205 23.140000000000008
    vertex -135.68691692426674 -23.323162957873205 23.000000000000007
  endloop
endfacet
facet normal 0.9519792174408003 0.3061626521324923 4.88160847201653e-31
  outer loop
    vertex -135.68691692426674 -23.323162957873205 23.140000000000008
    vertex -135.73248868777256 -23.181462553014907 23.000000000000007
    vertex -135.73248868777256 -23.181462553014907 23.140000000000008
  endloop
endfacet
facet normal 0.06636888973429693 -0.9977951545660245 -1.8719907699573012e-30
  outer loop
    vertex -137.01482200001954 -24.49371347027199 23.140000000000008
    vertex -137.4238297018161 -24.52091884097037 23.000000000000007
    vertex -137.01482200001954 -24.49371347027199 23.000000000000007
  endloop
endfacet
facet normal 0.06636888973429693 -0.9977951545660245 -1.8719907699573012e-30
  outer loop
    vertex -137.4238297018161 -24.52091884097037 23.000000000000007
    vertex -137.01482200001954 -24.49371347027199 23.140000000000008
    vertex -137.4238297018161 -24.52091884097037 23.140000000000008
  endloop
endfacet
facet normal 0.5576021184076996 -0.8301083528957205 -1.6019467675472887e-30
  outer loop
    vertex -135.94741941904786 -24.070203617665715 23.140000000000008
    vertex -136.24577903126954 -24.27061836020114 23.000000000000007
    vertex -135.94741941904786 -24.070203617665715 23.000000000000007
  endloop
endfacet
facet normal 0.5576021184076996 -0.8301083528957205 -1.6019467675472887e-30
  outer loop
    vertex -136.24577903126954 -24.27061836020114 23.000000000000007
    vertex -135.94741941904786 -24.070203617665715 23.140000000000008
    vertex -136.24577903126954 -24.27061836020114 23.140000000000008
  endloop
endfacet
facet normal 0.2007884033296518 -0.9796346344879447 -1.849948415571852e-30
  outer loop
    vertex -136.6121659081673 -24.41118405478616 23.140000000000008
    vertex -137.01482200001954 -24.49371347027199 23.000000000000007
    vertex -136.6121659081673 -24.41118405478616 23.000000000000007
  endloop
endfacet
facet normal 0.2007884033296518 -0.9796346344879447 -1.849948415571852e-30
  outer loop
    vertex -137.01482200001954 -24.49371347027199 23.000000000000007
    vertex -136.6121659081673 -24.41118405478616 23.140000000000008
    vertex -137.01482200001954 -24.49371347027199 23.140000000000008
  endloop
endfacet
facet normal 0.9409925328827504 -0.3384273231565471 -7.163948971026583e-31
  outer loop
    vertex -135.69031759560403 -23.65303499655615 23.000000000000007
    vertex -135.74609137312174 -23.80811322039851 23.140000000000008
    vertex -135.74609137312174 -23.80811322039851 23.000000000000007
  endloop
endfacet
facet normal 0.9409925328827504 -0.3384273231565471 -7.163948971026583e-31
  outer loop
    vertex -135.74609137312174 -23.80811322039851 23.140000000000008
    vertex -135.69031759560403 -23.65303499655615 23.000000000000007
    vertex -135.69031759560403 -23.65303499655615 23.140000000000008
  endloop
endfacet
facet normal -1.0 0.0 8.869216398675353e-32
  outer loop
    vertex -137.4238297018161 -24.15817133970519 23.140000000000008
    vertex -137.4238297018161 -24.52091884097037 23.000000000000007
    vertex -137.4238297018161 -24.52091884097037 23.140000000000008
  endloop
endfacet
facet normal -1.0 0.0 8.869216398675353e-32
  outer loop
    vertex -137.4238297018161 -24.52091884097037 23.000000000000007
    vertex -137.4238297018161 -24.15817133970519 23.140000000000008
    vertex -137.4238297018161 -24.15817133970519 23.000000000000007
  endloop
endfacet
facet normal 0.8594492826245722 0.511221019321495 8.798734135712203e-31
  outer loop
    vertex -135.80571901418955 -23.058349947846633 23.000000000000007
    vertex -135.73248868777256 -23.181462553014907 23.140000000000008
    vertex -135.73248868777256 -23.181462553014907 23.000000000000007
  endloop
endfacet
facet normal 0.8594492826245722 0.511221019321495 8.798734135712203e-31
  outer loop
    vertex -135.73248868777256 -23.181462553014907 23.140000000000008
    vertex -135.80571901418955 -23.058349947846633 23.000000000000007
    vertex -135.80571901418955 -23.058349947846633 23.140000000000008
  endloop
endfacet
facet normal -0.5424165115005565 0.8401097119136087 1.6193047442126978e-30
  outer loop
    vertex -136.6439101199588 -23.96863321027705 23.140000000000008
    vertex -136.4999368350714 -23.875676914414196 23.000000000000007
    vertex -136.6439101199588 -23.96863321027705 23.000000000000007
  endloop
endfacet
facet normal -0.5424165115005565 0.8401097119136087 1.6193047442126978e-30
  outer loop
    vertex -136.4999368350714 -23.875676914414196 23.000000000000007
    vertex -136.6439101199588 -23.96863321027705 23.140000000000008
    vertex -136.4999368350714 -23.875676914414196 23.140000000000008
  endloop
endfacet
facet normal -0.3449436502079301 0.9386233952876037 1.786033491247125e-30
  outer loop
    vertex -137.00667145915412 -24.101947829457213 23.140000000000008
    vertex -136.6439101199588 -23.96863321027705 23.000000000000007
    vertex -137.00667145915412 -24.101947829457213 23.000000000000007
  endloop
endfacet
facet normal -0.3449436502079301 0.9386233952876037 1.786033491247125e-30
  outer loop
    vertex -136.6439101199588 -23.96863321027705 23.000000000000007
    vertex -137.00667145915412 -24.101947829457213 23.140000000000008
    vertex -136.6439101199588 -23.96863321027705 23.140000000000008
  endloop
endfacet
facet normal 0.7342850703958934 -0.6788412446173979 -1.3347131896488061e-30
  outer loop
    vertex -135.83360590294842 -23.947094471979984 23.000000000000007
    vertex -135.94741941904786 -24.070203617665715 23.140000000000008
    vertex -135.94741941904786 -24.070203617665715 23.000000000000007
  endloop
endfacet
facet normal 0.7342850703958934 -0.6788412446173979 -1.3347131896488061e-30
  outer loop
    vertex -135.94741941904786 -24.070203617665715 23.140000000000008
    vertex -135.83360590294842 -23.947094471979984 23.000000000000007
    vertex -135.83360590294842 -23.947094471979984 23.140000000000008
  endloop
endfacet
facet normal 0.9941688523941877 -0.10783456277661498 -2.8985019833732214e-31
  outer loop
    vertex -135.67172633643145 -23.48163493408778 23.000000000000007
    vertex -135.69031759560403 -23.65303499655615 23.140000000000008
    vertex -135.69031759560403 -23.65303499655615 23.000000000000007
  endloop
endfacet
facet normal 0.9941688523941877 -0.10783456277661498 -2.8985019833732214e-31
  outer loop
    vertex -135.69031759560403 -23.65303499655615 23.140000000000008
    vertex -135.67172633643145 -23.48163493408778 23.000000000000007
    vertex -135.67172633643145 -23.48163493408778 23.140000000000008
  endloop
endfacet
facet normal 0.9954371744489926 0.09541924190123206 9.016825443691666e-32
  outer loop
    vertex -135.68691692426674 -23.323162957873205 23.000000000000007
    vertex -135.67172633643145 -23.48163493408778 23.140000000000008
    vertex -135.67172633643145 -23.48163493408778 23.000000000000007
  endloop
endfacet
facet normal 0.9954371744489926 0.09541924190123206 9.016825443691666e-32
  outer loop
    vertex -135.67172633643145 -23.48163493408778 23.140000000000008
    vertex -135.68691692426674 -23.323162957873205 23.000000000000007
    vertex -135.68691692426674 -23.323162957873205 23.140000000000008
  endloop
endfacet
facet normal -0.13356973238192368 0.9910394172743189 1.8653161895223328e-30
  outer loop
    vertex -137.4238297018161 -24.15817133970519 23.140000000000008
    vertex -137.00667145915412 -24.101947829457213 23.000000000000007
    vertex -137.4238297018161 -24.15817133970519 23.000000000000007
  endloop
endfacet
facet normal -0.13356973238192368 0.9910394172743189 1.8653161895223328e-30
  outer loop
    vertex -137.00667145915412 -24.101947829457213 23.000000000000007
    vertex -137.4238297018161 -24.15817133970519 23.140000000000008
    vertex -137.00667145915412 -24.101947829457213 23.140000000000008
  endloop
endfacet
facet normal 0.8462113826128457 -0.5328473476864236 -1.0715983123950509e-30
  outer loop
    vertex -135.74609137312174 -23.80811322039851 23.000000000000007
    vertex -135.83360590294842 -23.947094471979984 23.140000000000008
    vertex -135.83360590294842 -23.947094471979984 23.000000000000007
  endloop
endfacet
facet normal 0.8462113826128457 -0.5328473476864236 -1.0715983123950509e-30
  outer loop
    vertex -135.83360590294842 -23.947094471979984 23.140000000000008
    vertex -135.74609137312174 -23.80811322039851 23.000000000000007
    vertex -135.74609137312174 -23.80811322039851 23.140000000000008
  endloop
endfacet
facet normal -0.5888629516332942 0.8082329021969625 1.5638072795497895e-30
  outer loop
    vertex -137.21886228025738 -22.819600679280086 23.140000000000008
    vertex -137.0919131089517 -22.72710795407766 23.000000000000007
    vertex -137.21886228025738 -22.819600679280086 23.000000000000007
  endloop
endfacet
facet normal -0.5888629516332942 0.8082329021969625 1.5638072795497895e-30
  outer loop
    vertex -137.0919131089517 -22.72710795407766 23.000000000000007
    vertex -137.21886228025738 -22.819600679280086 23.140000000000008
    vertex -137.0919131089517 -22.72710795407766 23.140000000000008
  endloop
endfacet
facet normal -0.33788482692527744 -0.9411874647134202 -1.7302673502407763e-30
  outer loop
    vertex -136.45527145599118 -23.20685515486207 23.140000000000008
    vertex -136.63212020346083 -23.143366731279077 23.000000000000007
    vertex -136.45527145599118 -23.20685515486207 23.000000000000007
  endloop
endfacet
facet normal -0.33788482692527744 -0.9411874647134202 -1.7302673502407763e-30
  outer loop
    vertex -136.63212020346083 -23.143366731279077 23.000000000000007
    vertex -136.45527145599118 -23.20685515486207 23.140000000000008
    vertex -136.63212020346083 -23.143366731279077 23.140000000000008
  endloop
endfacet
facet normal 0.9928131245271098 0.11967497552420019 0.0
  outer loop
    vertex -143.7347838073323 -23.251288748612073 23.000000000000007
    vertex -143.6386378685671 -24.048907043146485 23.140000000000008
    vertex -143.6386378685671 -24.048907043146485 23.000000000000007
  endloop
endfacet
facet normal 0.9928131245271098 0.11967497552420019 0.0
  outer loop
    vertex -143.6386378685671 -24.048907043146485 23.140000000000008
    vertex -143.7347838073323 -23.251288748612073 23.000000000000007
    vertex -143.7347838073323 -23.251288748612073 23.140000000000008
  endloop
endfacet
facet normal 0.9554977752194997 0.29499830770800467 0.0
  outer loop
    vertex -144.19370492322295 -21.764845966476443 23.000000000000007
    vertex -143.7347838073323 -23.251288748612073 23.140000000000008
    vertex -143.7347838073323 -23.251288748612073 23.000000000000007
  endloop
endfacet
facet normal 0.9554977752194997 0.29499830770800467 0.0
  outer loop
    vertex -143.7347838073323 -23.251288748612073 23.140000000000008
    vertex -144.19370492322295 -21.764845966476443 23.000000000000007
    vertex -144.19370492322295 -21.764845966476443 23.140000000000008
  endloop
endfacet
facet normal 8.869216398675353e-32 -1.8702279330239895e-30 1.0
  outer loop
    vertex -137.01482200001954 -24.49371347027199 23.140000000000008
    vertex -137.4238297018161 -24.15817133970519 23.140000000000008
    vertex -137.4238297018161 -24.52091884097037 23.140000000000008
  endloop
endfacet
facet normal 8.869216398675353e-32 -1.8702279330239895e-30 1.0
  outer loop
    vertex -137.4238297018161 -24.15817133970519 23.140000000000008
    vertex -137.01482200001954 -24.49371347027199 23.140000000000008
    vertex -137.00667145915412 -24.101947829457213 23.140000000000008
  endloop
endfacet
facet normal 8.869216398675353e-32 -1.8702279330239895e-30 1.0
  outer loop
    vertex -137.00667145915412 -24.101947829457213 23.140000000000008
    vertex -137.01482200001954 -24.49371347027199 23.140000000000008
    vertex -136.6121659081673 -24.41118405478616 23.140000000000008
  endloop
endfacet
facet normal 8.869216398675353e-32 -1.8702279330239895e-30 1.0
  outer loop
    vertex -137.00667145915412 -24.101947829457213 23.140000000000008
    vertex -136.6121659081673 -24.41118405478616 23.140000000000008
    vertex -136.6439101199588 -23.96863321027705 23.140000000000008
  endloop
endfacet
facet normal 8.869216398675353e-32 -1.8702279330239895e-30 1.0
  outer loop
    vertex -136.6439101199588 -23.96863321027705 23.140000000000008
    vertex -136.6121659081673 -24.41118405478616 23.140000000000008
    vertex -136.4999368350714 -23.875676914414196 23.140000000000008
  endloop
endfacet
facet normal 8.869216398675353e-32 -1.8702279330239895e-30 1.0
  outer loop
    vertex -136.4999368350714 -23.875676914414196 23.140000000000008
    vertex -136.6121659081673 -24.41118405478616 23.140000000000008
    vertex -136.24577903126954 -24.27061836020114 23.140000000000008
  endloop
endfacet
facet normal 8.869216398675353e-32 -1.8702279330239895e-30 1.0
  outer loop
    vertex -136.4999368350714 -23.875676914414196 23.140000000000008
    vertex -136.24577903126954 -24.27061836020114 23.140000000000008
    vertex -136.38725802924523 -23.765492395499724 23.140000000000008
  endloop
endfacet
facet normal 8.869216398675353e-32 -1.8702279330239895e-30 1.0
  outer loop
    vertex -136.38725802924523 -23.765492395499724 23.140000000000008
    vertex -136.24577903126954 -24.27061836020114 23.140000000000008
    vertex -136.31448435452356 -23.639660637054632 23.140000000000008
  endloop
endfacet
facet normal 8.869216398675353e-32 -1.8702279330239895e-30 1.0
  outer loop
    vertex -136.31448435452356 -23.639660637054632 23.140000000000008
    vertex -136.24577903126954 -24.27061836020114 23.140000000000008
    vertex -136.29022646294968 -23.499762622599928 23.140000000000008
  endloop
endfacet
facet normal 8.869216398675353e-32 -1.8702279330239895e-30 1.0
  outer loop
    vertex -137.14178500925536 -23.137015121334745 23.140000000000008
    vertex -137.21886228025738 -22.819600679280086 23.140000000000008
    vertex -137.21886228025738 -23.14246726581855 23.140000000000008
  endloop
endfacet
facet normal 8.869216398675353e-32 -1.8702279330239895e-30 1.0
  outer loop
    vertex -137.21886228025738 -22.819600679280086 23.140000000000008
    vertex -137.14178500925536 -23.137015121334745 23.140000000000008
    vertex -137.0919131089517 -22.72710795407766 23.140000000000008
  endloop
endfacet
facet normal 8.869216398675353e-32 -1.8702279330239895e-30 1.0
  outer loop
    vertex -137.0919131089517 -22.72710795407766 23.140000000000008
    vertex -137.14178500925536 -23.137015121334745 23.140000000000008
    vertex -137.03386299192235 -23.13066351139041 23.140000000000008
  endloop
endfacet
facet normal 8.869216398675353e-32 -1.8702279330239895e-30 1.0
  outer loop
    vertex -137.0919131089517 -22.72710795407766 23.140000000000008
    vertex -137.03386299192235 -23.13066351139041 23.140000000000008
    vertex -136.93320588792437 -22.60739602024669 23.140000000000008
  endloop
endfacet
facet normal 8.869216398675353e-32 -1.8702279330239895e-30 1.0
  outer loop
    vertex -136.93320588792437 -22.60739602024669 23.140000000000008
    vertex -137.03386299192235 -23.13066351139041 23.140000000000008
    vertex -136.92504150912885 -23.126124670297294 23.140000000000008
  endloop
endfacet
facet normal 8.869216398675353e-32 -1.8702279330239895e-30 1.0
  outer loop
    vertex -136.93320588792437 -22.60739602024669 23.140000000000008
    vertex -136.92504150912885 -23.126124670297294 23.140000000000008
    vertex -136.76089598154786 -22.470455863364098 23.140000000000008
  endloop
endfacet
facet normal 8.869216398675353e-32 -1.8702279330239895e-30 1.0
  outer loop
    vertex -136.76089598154786 -22.470455863364098 23.140000000000008
    vertex -136.92504150912885 -23.126124670297294 23.140000000000008
    vertex -136.8452381658849 -23.124311901446077 23.140000000000008
  endloop
endfacet
facet normal 8.869216398675353e-32 -1.8702279330239895e-30 1.0
  outer loop
    vertex -136.76089598154786 -22.470455863364098 23.140000000000008
    vertex -136.8452381658849 -23.124311901446077 23.140000000000008
    vertex -136.63212020346083 -23.143366731279077 23.140000000000008
  endloop
endfacet
facet normal 8.869216398675353e-32 -1.8702279330239895e-30 1.0
  outer loop
    vertex -136.76089598154786 -22.470455863364098 23.140000000000008
    vertex -136.63212020346083 -23.143366731279077 23.140000000000008
    vertex -136.59312491626446 -22.32353855883474 23.140000000000008
  endloop
endfacet
facet normal 8.869216398675353e-32 -1.8702279330239895e-30 1.0
  outer loop
    vertex -136.59312491626446 -22.32353855883474 23.140000000000008
    vertex -136.63212020346083 -23.143366731279077 23.140000000000008
    vertex -136.45527145599118 -23.20685515486207 23.140000000000008
  endloop
endfacet
facet normal 8.869216398675353e-32 -1.8702279330239895e-30 1.0
  outer loop
    vertex -136.59312491626446 -22.32353855883474 23.140000000000008
    vertex -136.45527145599118 -23.20685515486207 23.140000000000008
    vertex -136.51874604164402 -22.763391006962273 23.140000000000008
  endloop
endfacet
facet normal 8.869216398675353e-32 -1.8702279330239895e-30 1.0
  outer loop
    vertex -136.51874604164402 -22.763391006962273 23.140000000000008
    vertex -136.45527145599118 -23.20685515486207 23.140000000000008
    vertex -136.33669423243347 -22.775858982038184 23.140000000000008
  endloop
endfacet
facet normal 8.869216398675353e-32 -1.8702279330239895e-30 1.0
  outer loop
    vertex -136.33669423243347 -22.775858982038184 23.140000000000008
    vertex -136.45527145599118 -23.20685515486207 23.140000000000008
    vertex -136.33466005669968 -23.32292771306045 23.140000000000008
  endloop
endfacet
facet normal 8.869216398675353e-32 -1.8702279330239895e-30 1.0
  outer loop
    vertex -136.33669423243347 -22.775858982038184 23.140000000000008
    vertex -136.33466005669968 -23.32292771306045 23.140000000000008
    vertex -136.17141399457924 -22.81326290726592 23.140000000000008
  endloop
endfacet
facet normal 8.869216398675353e-32 -1.8702279330239895e-30 1.0
  outer loop
    vertex -136.17141399457924 -22.81326290726592 23.140000000000008
    vertex -136.33466005669968 -23.32292771306045 23.140000000000008
    vertex -136.29022646294968 -23.499762622599928 23.140000000000008
  endloop
endfacet
facet normal 8.869216398675353e-32 -1.8702279330239895e-30 1.0
  outer loop
    vertex -136.17141399457924 -22.81326290726592 23.140000000000008
    vertex -136.29022646294968 -23.499762622599928 23.140000000000008
    vertex -136.24577903126954 -24.27061836020114 23.140000000000008
  endloop
endfacet
facet normal 8.869216398675353e-32 -1.8702279330239895e-30 1.0
  outer loop
    vertex -136.17141399457924 -22.81326290726592 23.140000000000008
    vertex -136.24577903126954 -24.27061836020114 23.140000000000008
    vertex -135.94741941904786 -24.070203617665715 23.140000000000008
  endloop
endfacet
facet normal 8.869216398675353e-32 -1.8702279330239895e-30 1.0
  outer loop
    vertex -136.17141399457924 -22.81326290726592 23.140000000000008
    vertex -135.94741941904786 -24.070203617665715 23.140000000000008
    vertex -136.026084592536 -22.8737934732768 23.140000000000008
  endloop
endfacet
facet normal 8.869216398675353e-32 -1.8702279330239895e-30 1.0
  outer loop
    vertex -136.026084592536 -22.8737934732768 23.140000000000008
    vertex -135.94741941904786 -24.070203617665715 23.140000000000008
    vertex -135.90388529075838 -22.95564137070215 23.140000000000008
  endloop
endfacet
facet normal 8.869216398675353e-32 -1.8702279330239895e-30 1.0
  outer loop
    vertex -135.90388529075838 -22.95564137070215 23.140000000000008
    vertex -135.94741941904786 -24.070203617665715 23.140000000000008
    vertex -135.83360590294842 -23.947094471979984 23.140000000000008
  endloop
endfacet
facet normal 8.869216398675353e-32 -1.8702279330239895e-30 1.0
  outer loop
    vertex -135.90388529075838 -22.95564137070215 23.140000000000008
    vertex -135.83360590294842 -23.947094471979984 23.140000000000008
    vertex -135.80571901418955 -23.058349947846633 23.140000000000008
  endloop
endfacet
facet normal 8.869216398675353e-32 -1.8702279330239895e-30 1.0
  outer loop
    vertex -135.80571901418955 -23.058349947846633 23.140000000000008
    vertex -135.83360590294842 -23.947094471979984 23.140000000000008
    vertex -135.74609137312174 -23.80811322039851 23.140000000000008
  endloop
endfacet
facet normal 8.869216398675353e-32 -1.8702279330239895e-30 1.0
  outer loop
    vertex -135.80571901418955 -23.058349947846633 23.140000000000008
    vertex -135.74609137312174 -23.80811322039851 23.140000000000008
    vertex -135.73248868777256 -23.181462553014907 23.140000000000008
  endloop
endfacet
facet normal 8.869216398675353e-32 -1.8702279330239895e-30 1.0
  outer loop
    vertex -135.73248868777256 -23.181462553014907 23.140000000000008
    vertex -135.74609137312174 -23.80811322039851 23.140000000000008
    vertex -135.69031759560403 -23.65303499655615 23.140000000000008
  endloop
endfacet
facet normal 8.869216398675353e-32 -1.8702279330239895e-30 1.0
  outer loop
    vertex -135.73248868777256 -23.181462553014907 23.140000000000008
    vertex -135.69031759560403 -23.65303499655615 23.140000000000008
    vertex -135.68691692426674 -23.323162957873205 23.140000000000008
  endloop
endfacet
facet normal 8.869216398675353e-32 -1.8702279330239895e-30 1.0
  outer loop
    vertex -135.68691692426674 -23.323162957873205 23.140000000000008
    vertex -135.69031759560403 -23.65303499655615 23.140000000000008
    vertex -135.67172633643145 -23.48163493408778 23.140000000000008
  endloop
endfacet
facet normal 8.869216398675353e-32 -1.8702279330239895e-30 1.0
  outer loop
    vertex -136.51874604164402 -22.763391006962273 23.140000000000008
    vertex -136.44530814627458 -22.172995716602962 23.140000000000008
    vertex -136.59312491626446 -22.32353855883474 23.140000000000008
  endloop
endfacet
facet normal 8.869216398675353e-32 -1.8702279330239895e-30 1.0
  outer loop
    vertex -136.44530814627458 -22.172995716602962 23.140000000000008
    vertex -136.51874604164402 -22.763391006962273 23.140000000000008
    vertex -136.2358157215529 -22.61283432680033 23.140000000000008
  endloop
endfacet
facet normal 8.869216398675353e-32 -1.8702279330239895e-30 1.0
  outer loop
    vertex -136.44530814627458 -22.172995716602962 23.140000000000008
    vertex -136.2358157215529 -22.61283432680033 23.140000000000008
    vertex -136.33376059123916 -22.028818322245673 23.140000000000008
  endloop
endfacet
facet normal 8.869216398675353e-32 -1.8702279330239895e-30 1.0
  outer loop
    vertex -136.80532957529786 -22.1630185689562 23.140000000000008
    vertex -137.36759235363795 -21.800271067691018 23.140000000000008
    vertex -137.40570201330394 -22.1630185689562 23.140000000000008
  endloop
endfacet
facet normal 8.869216398675353e-32 -1.8702279330239895e-30 1.0
  outer loop
    vertex -137.36759235363795 -21.800271067691018 23.140000000000008
    vertex -136.80532957529786 -22.1630185689562 23.140000000000008
    vertex -135.84041070510557 -21.800271067691018 23.140000000000008
  endloop
endfacet
facet normal 8.869216398675353e-32 -1.8702279330239895e-30 1.0
  outer loop
    vertex -135.84041070510557 -21.800271067691018 23.140000000000008
    vertex -136.80532957529786 -22.1630185689562 23.140000000000008
    vertex -136.33376059123916 -22.028818322245673 23.140000000000008
  endloop
endfacet
facet normal 8.869216398675353e-32 -1.8702279330239895e-30 1.0
  outer loop
    vertex -135.84041070510557 -21.800271067691018 23.140000000000008
    vertex -136.33376059123916 -22.028818322245673 23.140000000000008
    vertex -136.2358157215529 -22.61283432680033 23.140000000000008
  endloop
endfacet
facet normal 8.869216398675353e-32 -1.8702279330239895e-30 1.0
  outer loop
    vertex -135.84041070510557 -21.800271067691018 23.140000000000008
    vertex -136.2358157215529 -22.61283432680033 23.140000000000008
    vertex -136.0009306949841 -22.37704983477098 23.140000000000008
  endloop
endfacet
facet normal 8.869216398675353e-32 -1.8702279330239895e-30 1.0
  outer loop
    vertex -135.84041070510557 -21.800271067691018 23.140000000000008
    vertex -136.0009306949841 -22.37704983477098 23.140000000000008
    vertex -135.90865937666427 -22.25144640217356 23.140000000000008
  endloop
endfacet
facet normal 8.869216398675353e-32 -1.8702279330239895e-30 1.0
  outer loop
    vertex -135.84041070510557 -21.800271067691018 23.140000000000008
    vertex -135.90865937666427 -22.25144640217356 23.140000000000008
    vertex -135.84041070510557 -22.114059972043243 23.140000000000008
  endloop
endfacet
facet normal -0.061907541384712904 0.9980818885841484 0.0
  outer loop
    vertex -144.77821909326346 -21.801101343500733 23.140000000000008
    vertex -144.19370492322295 -21.764845966476443 23.000000000000007
    vertex -144.77821909326346 -21.801101343500733 23.000000000000007
  endloop
endfacet
facet normal -0.061907541384712904 0.9980818885841484 0.0
  outer loop
    vertex -144.19370492322295 -21.764845966476443 23.000000000000007
    vertex -144.77821909326346 -21.801101343500733 23.140000000000008
    vertex -144.19370492322295 -21.764845966476443 23.140000000000008
  endloop
endfacet
facet normal -1.0 0.0 8.869216398675353e-32
  outer loop
    vertex -137.21886228025738 -22.819600679280086 23.140000000000008
    vertex -137.21886228025738 -23.14246726581855 23.000000000000007
    vertex -137.21886228025738 -23.14246726581855 23.140000000000008
  endloop
endfacet
facet normal -1.0 0.0 8.869216398675353e-32
  outer loop
    vertex -137.21886228025738 -23.14246726581855 23.000000000000007
    vertex -137.21886228025738 -22.819600679280086 23.140000000000008
    vertex -137.21886228025738 -22.819600679280086 23.000000000000007
  endloop
endfacet
facet normal -0.9536188912405236 -0.3010166278948633 0.0
  outer loop
    vertex -144.77821909326346 -21.801101343500733 23.140000000000008
    vertex -143.91990763703876 -24.520226944462273 23.000000000000007
    vertex -143.91990763703876 -24.520226944462273 23.140000000000008
  endloop
endfacet
facet normal -0.9536188912405236 -0.3010166278948633 0.0
  outer loop
    vertex -143.91990763703876 -24.520226944462273 23.000000000000007
    vertex -144.77821909326346 -21.801101343500733 23.140000000000008
    vertex -144.77821909326346 -21.801101343500733 23.000000000000007
  endloop
endfacet
facet normal 0.07055978019915327 -0.9975075525620082 -1.8718245878001556e-30
  outer loop
    vertex -137.14178500925536 -23.137015121334745 23.140000000000008
    vertex -137.21886228025738 -23.14246726581855 23.000000000000007
    vertex -137.14178500925536 -23.137015121334745 23.000000000000007
  endloop
endfacet
facet normal 0.07055978019915327 -0.9975075525620082 -1.8718245878001556e-30
  outer loop
    vertex -137.21886228025738 -23.14246726581855 23.000000000000007
    vertex -137.14178500925536 -23.137015121334745 23.140000000000008
    vertex -137.21886228025738 -23.14246726581855 23.140000000000008
  endloop
endfacet
facet normal 0.05875203573631175 -0.9982726072054865 -1.8722081599564665e-30
  outer loop
    vertex -137.03386299192235 -23.13066351139041 23.140000000000008
    vertex -137.14178500925536 -23.137015121334745 23.000000000000007
    vertex -137.03386299192235 -23.13066351139041 23.000000000000007
  endloop
endfacet
facet normal 0.05875203573631175 -0.9982726072054865 -1.8722081599564665e-30
  outer loop
    vertex -137.14178500925536 -23.137015121334745 23.000000000000007
    vertex -137.03386299192235 -23.13066351139041 23.140000000000008
    vertex -137.14178500925536 -23.137015121334745 23.140000000000008
  endloop
endfacet
facet normal 0.022709591749553247 -0.9997421039661022 -1.8717597714931013e-30
  outer loop
    vertex -136.8452381658849 -23.124311901446077 23.140000000000008
    vertex -136.92504150912885 -23.126124670297294 23.000000000000007
    vertex -136.8452381658849 -23.124311901446077 23.000000000000007
  endloop
endfacet
facet normal 0.022709591749553247 -0.9997421039661022 -1.8717597714931013e-30
  outer loop
    vertex -136.92504150912885 -23.126124670297294 23.000000000000007
    vertex -136.8452381658849 -23.124311901446077 23.140000000000008
    vertex -136.92504150912885 -23.126124670297294 23.140000000000008
  endloop
endfacet
facet normal -0.08905453135048252 -0.9960267518726323 -1.8548986142930508e-30
  outer loop
    vertex -136.63212020346083 -23.143366731279077 23.140000000000008
    vertex -136.8452381658849 -23.124311901446077 23.000000000000007
    vertex -136.63212020346083 -23.143366731279077 23.000000000000007
  endloop
endfacet
facet normal -0.08905453135048252 -0.9960267518726323 -1.8548986142930508e-30
  outer loop
    vertex -136.8452381658849 -23.124311901446077 23.000000000000007
    vertex -136.63212020346083 -23.143366731279077 23.140000000000008
    vertex -136.8452381658849 -23.124311901446077 23.140000000000008
  endloop
endfacet
facet normal 0.9530178499651932 -0.30291414236994674 0.0
  outer loop
    vertex -142.48090127949826 -21.799828253925835 23.000000000000007
    vertex -143.2303359012088 -24.157673174219358 23.140000000000008
    vertex -143.2303359012088 -24.157673174219358 23.000000000000007
  endloop
endfacet
facet normal 0.9530178499651932 -0.30291414236994674 0.0
  outer loop
    vertex -143.2303359012088 -24.157673174219358 23.140000000000008
    vertex -142.48090127949826 -21.799828253925835 23.000000000000007
    vertex -142.48090127949826 -21.799828253925835 23.140000000000008
  endloop
endfacet
facet normal 0.0 1.0 0.0
  outer loop
    vertex -143.0618729394173 -21.799828253925835 23.140000000000008
    vertex -142.48090127949826 -21.799828253925835 23.000000000000007
    vertex -143.0618729394173 -21.799828253925835 23.000000000000007
  endloop
endfacet
facet normal 0.0 1.0 0.0
  outer loop
    vertex -142.48090127949826 -21.799828253925835 23.000000000000007
    vertex -143.0618729394173 -21.799828253925835 23.140000000000008
    vertex -142.48090127949826 -21.799828253925835 23.140000000000008
  endloop
endfacet
facet normal 0.0 0.0 1.0
  outer loop
    vertex -143.91990763703876 -24.520226944462273 23.140000000000008
    vertex -144.19370492322295 -21.764845966476443 23.140000000000008
    vertex -144.77821909326346 -21.801101343500733 23.140000000000008
  endloop
endfacet
facet normal 0.0 0.0 1.0
  outer loop
    vertex -144.19370492322295 -21.764845966476443 23.140000000000008
    vertex -143.91990763703876 -24.520226944462273 23.140000000000008
    vertex -143.7347838073323 -23.251288748612073 23.140000000000008
  endloop
endfacet
facet normal 0.0 0.0 1.0
  outer loop
    vertex -143.7347838073323 -23.251288748612073 23.140000000000008
    vertex -143.91990763703876 -24.520226944462273 23.140000000000008
    vertex -143.6386378685671 -24.048907043146485 23.140000000000008
  endloop
endfacet
facet normal 0.0 0.0 1.0
  outer loop
    vertex -143.6386378685671 -24.048907043146485 23.140000000000008
    vertex -143.91990763703876 -24.520226944462273 23.140000000000008
    vertex -143.28114878076346 -24.551030177002758 23.140000000000008
  endloop
endfacet
facet normal 0.0 0.0 1.0
  outer loop
    vertex -143.6386378685671 -24.048907043146485 23.140000000000008
    vertex -143.28114878076346 -24.551030177002758 23.140000000000008
    vertex -143.51168869726143 -23.25084593484689 23.140000000000008
  endloop
endfacet
facet normal 0.0 0.0 1.0
  outer loop
    vertex -143.51168869726143 -23.25084593484689 23.140000000000008
    vertex -143.28114878076346 -24.551030177002758 23.140000000000008
    vertex -143.0618729394173 -21.799828253925835 23.140000000000008
  endloop
endfacet
facet normal 0.0 0.0 1.0
  outer loop
    vertex -143.0618729394173 -21.799828253925835 23.140000000000008
    vertex -143.28114878076346 -24.551030177002758 23.140000000000008
    vertex -143.2303359012088 -24.157673174219358 23.140000000000008
  endloop
endfacet
facet normal 0.0 0.0 1.0
  outer loop
    vertex -143.0618729394173 -21.799828253925835 23.140000000000008
    vertex -143.2303359012088 -24.157673174219358 23.140000000000008
    vertex -142.48090127949826 -21.799828253925835 23.140000000000008
  endloop
endfacet
facet normal 0.041672821705830344 -0.9991313106549481 -1.8722993386822774e-30
  outer loop
    vertex -136.92504150912885 -23.126124670297294 23.140000000000008
    vertex -137.03386299192235 -23.13066351139041 23.000000000000007
    vertex -136.92504150912885 -23.126124670297294 23.000000000000007
  endloop
endfacet
facet normal 0.041672821705830344 -0.9991313106549481 -1.8722993386822774e-30
  outer loop
    vertex -137.03386299192235 -23.13066351139041 23.000000000000007
    vertex -136.92504150912885 -23.126124670297294 23.140000000000008
    vertex -137.03386299192235 -23.13066351139041 23.140000000000008
  endloop
endfacet
facet normal -0.9551572746498155 0.2960989373225392 0.0
  outer loop
    vertex -143.0618729394173 -21.799828253925835 23.140000000000008
    vertex -143.51168869726143 -23.25084593484689 23.000000000000007
    vertex -143.51168869726143 -23.25084593484689 23.140000000000008
  endloop
endfacet
facet normal -0.9551572746498155 0.2960989373225392 0.0
  outer loop
    vertex -143.51168869726143 -23.25084593484689 23.000000000000007
    vertex -143.0618729394173 -21.799828253925835 23.140000000000008
    vertex -143.0618729394173 -21.799828253925835 23.000000000000007
  endloop
endfacet
facet normal -0.9875832047614523 0.15709682897213303 0.0
  outer loop
    vertex -143.51168869726143 -23.25084593484689 23.140000000000008
    vertex -143.6386378685671 -24.048907043146485 23.000000000000007
    vertex -143.6386378685671 -24.048907043146485 23.140000000000008
  endloop
endfacet
facet normal -0.9875832047614523 0.15709682897213303 0.0
  outer loop
    vertex -143.6386378685671 -24.048907043146485 23.000000000000007
    vertex -143.51168869726143 -23.25084593484689 23.140000000000008
    vertex -143.51168869726143 -23.25084593484689 23.000000000000007
  endloop
endfacet
facet normal -0.6021918350395649 0.7983514225024477 1.5465088277183277e-30
  outer loop
    vertex -137.0919131089517 -22.72710795407766 23.140000000000008
    vertex -136.93320588792437 -22.60739602024669 23.000000000000007
    vertex -137.0919131089517 -22.72710795407766 23.000000000000007
  endloop
endfacet
facet normal -0.6021918350395649 0.7983514225024477 1.5465088277183277e-30
  outer loop
    vertex -136.93320588792437 -22.60739602024669 23.000000000000007
    vertex -137.0919131089517 -22.72710795407766 23.140000000000008
    vertex -136.93320588792437 -22.60739602024669 23.140000000000008
  endloop
endfacet
facet normal -0.6221769454543181 0.782876649635902 1.5193399979363108e-30
  outer loop
    vertex -136.93320588792437 -22.60739602024669 23.140000000000008
    vertex -136.76089598154786 -22.470455863364098 23.000000000000007
    vertex -136.93320588792437 -22.60739602024669 23.000000000000007
  endloop
endfacet
facet normal -0.6221769454543181 0.782876649635902 1.5193399979363108e-30
  outer loop
    vertex -136.76089598154786 -22.470455863364098 23.000000000000007
    vertex -136.93320588792437 -22.60739602024669 23.140000000000008
    vertex -136.76089598154786 -22.470455863364098 23.140000000000008
  endloop
endfacet
facet normal -0.6588032829336312 0.7523152493442292 1.4654316825684464e-30
  outer loop
    vertex -136.76089598154786 -22.470455863364098 23.140000000000008
    vertex -136.59312491626446 -22.32353855883474 23.000000000000007
    vertex -136.76089598154786 -22.470455863364098 23.000000000000007
  endloop
endfacet
facet normal -0.6588032829336312 0.7523152493442292 1.4654316825684464e-30
  outer loop
    vertex -136.59312491626446 -22.32353855883474 23.000000000000007
    vertex -136.76089598154786 -22.470455863364098 23.140000000000008
    vertex -136.59312491626446 -22.32353855883474 23.140000000000008
  endloop
endfacet
facet normal -0.7135377388679238 0.7006167962668685 1.3735983088704861e-30
  outer loop
    vertex -136.44530814627458 -22.172995716602962 23.140000000000008
    vertex -136.59312491626446 -22.32353855883474 23.000000000000007
    vertex -136.59312491626446 -22.32353855883474 23.140000000000008
  endloop
endfacet
facet normal -0.7135377388679238 0.7006167962668685 1.3735983088704861e-30
  outer loop
    vertex -136.59312491626446 -22.32353855883474 23.000000000000007
    vertex -136.44530814627458 -22.172995716602962 23.140000000000008
    vertex -136.44530814627458 -22.172995716602962 23.000000000000007
  endloop
endfacet
facet normal 0.2737145056928591 -0.9618109842236748 -1.8230821008088764e-30
  outer loop
    vertex -136.33376059123916 -22.028818322245673 23.140000000000008
    vertex -136.80532957529786 -22.1630185689562 23.000000000000007
    vertex -136.33376059123916 -22.028818322245673 23.000000000000007
  endloop
endfacet
facet normal 0.2737145056928591 -0.9618109842236748 -1.8230821008088764e-30
  outer loop
    vertex -136.80532957529786 -22.1630185689562 23.000000000000007
    vertex -136.33376059123916 -22.028818322245673 23.140000000000008
    vertex -136.80532957529786 -22.1630185689562 23.140000000000008
  endloop
endfacet
facet normal -0.790919248602262 0.6119205358463086 1.2145792186280854e-30
  outer loop
    vertex -136.33376059123916 -22.028818322245673 23.140000000000008
    vertex -136.44530814627458 -22.172995716602962 23.000000000000007
    vertex -136.44530814627458 -22.172995716602962 23.140000000000008
  endloop
endfacet
facet normal -0.790919248602262 0.6119205358463086 1.2145792186280854e-30
  outer loop
    vertex -136.44530814627458 -22.172995716602962 23.000000000000007
    vertex -136.33376059123916 -22.028818322245673 23.140000000000008
    vertex -136.33376059123916 -22.028818322245673 23.000000000000007
  endloop
endfacet
endsolid RMP_Front
