solid RMP_Front
facet normal 1.0 0.0 0.0
  outer loop
    vertex -134.75170455223866 -18.317174878783163 12.999999999999998
    vertex -134.75170455223866 -27.51717487878316 22.440000000000005
    vertex -134.75170455223866 -27.51717487878316 12.999999999999998
  endloop
endfacet
facet normal 1.0 0.0 0.0
  outer loop
    vertex -134.75170455223866 -27.51717487878316 22.440000000000005
    vertex -134.75170455223866 -18.317174878783163 12.999999999999998
    vertex -134.75170455223866 -18.317174878783163 22.440000000000005
  endloop
endfacet
facet normal -1.0 0.0 0.0
  outer loop
    vertex -145.55170455223868 -18.317174878783163 22.440000000000005
    vertex -145.55170455223868 -27.51717487878316 12.999999999999998
    vertex -145.55170455223868 -27.51717487878316 22.440000000000005
  endloop
endfacet
facet normal -1.0 0.0 0.0
  outer loop
    vertex -145.55170455223868 -27.51717487878316 12.999999999999998
    vertex -145.55170455223868 -18.317174878783163 22.440000000000005
    vertex -145.55170455223868 -18.317174878783163 12.999999999999998
  endloop
endfacet
facet normal 0.0 0.0 1.0
  outer loop
    vertex -138.15903893132014 -22.859481594006805 22.440000000000005
    vertex -139.09071909326346 -22.463578412073616 22.440000000000005
    vertex -139.09071909326346 -22.859481594006805 22.440000000000005
  endloop
endfacet
facet normal 0.0 0.0 1.0
  outer loop
    vertex -137.4238297018161 -24.15817133970519 22.440000000000005
    vertex -137.21886228025738 -23.14246726581855 22.440000000000005
    vertex -137.40570201330397 -22.1630185689562 22.440000000000005
  endloop
endfacet
facet normal 0.0 0.0 1.0
  outer loop
    vertex -137.21886228025738 -23.14246726581855 22.440000000000005
    vertex -137.4238297018161 -24.15817133970519 22.440000000000005
    vertex -137.00667145915415 -24.101947829457217 22.440000000000005
  endloop
endfacet
facet normal 0.0 0.0 1.0
  outer loop
    vertex -137.21886228025738 -23.14246726581855 22.440000000000005
    vertex -137.00667145915415 -24.101947829457217 22.440000000000005
    vertex -137.1417850092554 -23.13701512133475 22.440000000000005
  endloop
endfacet
facet normal 0.0 0.0 1.0
  outer loop
    vertex -137.1417850092554 -23.13701512133475 22.440000000000005
    vertex -137.00667145915415 -24.101947829457217 22.440000000000005
    vertex -137.03386299192235 -23.13066351139041 22.440000000000005
  endloop
endfacet
facet normal 0.0 0.0 1.0
  outer loop
    vertex -137.03386299192235 -23.13066351139041 22.440000000000005
    vertex -137.00667145915415 -24.101947829457217 22.440000000000005
    vertex -136.92504150912885 -23.126124670297294 22.440000000000005
  endloop
endfacet
facet normal 0.0 0.0 1.0
  outer loop
    vertex -136.92504150912885 -23.126124670297294 22.440000000000005
    vertex -137.00667145915415 -24.101947829457217 22.440000000000005
    vertex -136.64391011995883 -23.968633210277066 22.440000000000005
  endloop
endfacet
facet normal 0.0 0.0 1.0
  outer loop
    vertex -136.92504150912885 -23.126124670297294 22.440000000000005
    vertex -136.64391011995883 -23.968633210277066 22.440000000000005
    vertex -136.84523816588492 -23.124311901446085 22.440000000000005
  endloop
endfacet
facet normal 0.0 0.0 1.0
  outer loop
    vertex -136.84523816588492 -23.124311901446085 22.440000000000005
    vertex -136.64391011995883 -23.968633210277066 22.440000000000005
    vertex -136.63212020346086 -23.143366731279077 22.440000000000005
  endloop
endfacet
facet normal 0.0 0.0 1.0
  outer loop
    vertex -136.63212020346086 -23.143366731279077 22.440000000000005
    vertex -136.64391011995883 -23.968633210277066 22.440000000000005
    vertex -136.49993683507142 -23.875676914414218 22.440000000000005
  endloop
endfacet
facet normal 0.0 0.0 1.0
  outer loop
    vertex -136.63212020346086 -23.143366731279077 22.440000000000005
    vertex -136.49993683507142 -23.875676914414218 22.440000000000005
    vertex -136.45527145599115 -23.20685515486206 22.440000000000005
  endloop
endfacet
facet normal 0.0 0.0 1.0
  outer loop
    vertex -136.45527145599115 -23.20685515486206 22.440000000000005
    vertex -136.49993683507142 -23.875676914414218 22.440000000000005
    vertex -136.38725802924526 -23.76549239549975 22.440000000000005
  endloop
endfacet
facet normal 0.0 0.0 1.0
  outer loop
    vertex -136.45527145599115 -23.20685515486206 22.440000000000005
    vertex -136.38725802924526 -23.76549239549975 22.440000000000005
    vertex -136.33466005669968 -23.32292771306045 22.440000000000005
  endloop
endfacet
facet normal 0.0 0.0 1.0
  outer loop
    vertex -136.33466005669968 -23.32292771306045 22.440000000000005
    vertex -136.38725802924526 -23.76549239549975 22.440000000000005
    vertex -136.31448435452356 -23.639660637054632 22.440000000000005
  endloop
endfacet
facet normal 0.0 0.0 1.0
  outer loop
    vertex -136.33466005669968 -23.32292771306045 22.440000000000005
    vertex -136.31448435452356 -23.639660637054632 22.440000000000005
    vertex -136.29022646294968 -23.499762622599924 22.440000000000005
  endloop
endfacet
facet normal 0.0 0.0 1.0
  outer loop
    vertex -137.40570201330397 -22.1630185689562 22.440000000000005
    vertex -137.21886228025738 -22.819600679280086 22.440000000000005
    vertex -136.80532957529786 -22.1630185689562 22.440000000000005
  endloop
endfacet
facet normal 0.0 0.0 1.0
  outer loop
    vertex -137.21886228025738 -22.819600679280086 22.440000000000005
    vertex -137.40570201330397 -22.1630185689562 22.440000000000005
    vertex -137.21886228025738 -23.14246726581855 22.440000000000005
  endloop
endfacet
facet normal 0.0 0.0 1.0
  outer loop
    vertex -136.80532957529786 -22.1630185689562 22.440000000000005
    vertex -137.21886228025738 -22.819600679280086 22.440000000000005
    vertex -137.09191310895176 -22.72710795407767 22.440000000000005
  endloop
endfacet
facet normal 0.0 0.0 1.0
  outer loop
    vertex -136.80532957529786 -22.1630185689562 22.440000000000005
    vertex -137.09191310895176 -22.72710795407767 22.440000000000005
    vertex -136.9332058879244 -22.607396020246732 22.440000000000005
  endloop
endfacet
facet normal 0.0 0.0 1.0
  outer loop
    vertex -136.80532957529786 -22.1630185689562 22.440000000000005
    vertex -136.9332058879244 -22.607396020246732 22.440000000000005
    vertex -136.7608959815479 -22.47045586336412 22.440000000000005
  endloop
endfacet
facet normal 0.0 0.0 1.0
  outer loop
    vertex -136.80532957529786 -22.1630185689562 22.440000000000005
    vertex -136.7608959815479 -22.47045586336412 22.440000000000005
    vertex -136.33376059123916 -22.02881832224568 22.440000000000005
  endloop
endfacet
facet normal 0.0 0.0 1.0
  outer loop
    vertex -136.33376059123916 -22.02881832224568 22.440000000000005
    vertex -136.7608959815479 -22.47045586336412 22.440000000000005
    vertex -136.59312491626451 -22.323538558834763 22.440000000000005
  endloop
endfacet
facet normal 0.0 0.0 1.0
  outer loop
    vertex -136.33376059123916 -22.02881832224568 22.440000000000005
    vertex -136.59312491626451 -22.323538558834763 22.440000000000005
    vertex -136.44530814627458 -22.172995716602962 22.440000000000005
  endloop
endfacet
facet normal 0.0 0.0 1.0
  outer loop
    vertex -136.33669423243353 -22.77585898203818 22.440000000000005
    vertex -136.2358157215529 -22.612834326800336 22.44
    vertex -136.51874604164405 -22.76339100696227 22.440000000000005
  endloop
endfacet
facet normal 0.0 0.0 1.0
  outer loop
    vertex -136.2358157215529 -22.612834326800336 22.44
    vertex -136.33669423243353 -22.77585898203818 22.440000000000005
    vertex -136.17141399457924 -22.813262907265916 22.440000000000005
  endloop
endfacet
facet normal 0.0 0.0 1.0
  outer loop
    vertex -136.2358157215529 -22.612834326800336 22.44
    vertex -136.17141399457924 -22.813262907265916 22.440000000000005
    vertex -136.0009306949841 -22.377049834770986 22.44
  endloop
endfacet
facet normal 0.0 0.0 1.0
  outer loop
    vertex -136.0009306949841 -22.377049834770986 22.44
    vertex -136.17141399457924 -22.813262907265916 22.440000000000005
    vertex -136.026084592536 -22.873793473276788 22.44
  endloop
endfacet
facet normal 0.0 0.0 1.0
  outer loop
    vertex -136.0009306949841 -22.377049834770986 22.44
    vertex -136.026084592536 -22.873793473276788 22.44
    vertex -135.9038852907584 -22.955641370702136 22.44
  endloop
endfacet
facet normal 0.0 0.0 1.0
  outer loop
    vertex -136.0009306949841 -22.377049834770986 22.44
    vertex -135.9038852907584 -22.955641370702136 22.44
    vertex -135.90865937666427 -22.251446402173563 22.440000000000005
  endloop
endfacet
facet normal 0.0 0.0 1.0
  outer loop
    vertex -135.90865937666427 -22.251446402173563 22.440000000000005
    vertex -135.9038852907584 -22.955641370702136 22.44
    vertex -135.84041070510557 -22.114059972043243 22.440000000000005
  endloop
endfacet
facet normal 0.0 0.0 1.0
  outer loop
    vertex -135.84041070510557 -22.114059972043243 22.440000000000005
    vertex -135.9038852907584 -22.955641370702136 22.44
    vertex -135.80571901418955 -23.058349947846644 22.440000000000005
  endloop
endfacet
facet normal 0.0 0.0 1.0
  outer loop
    vertex -135.84041070510557 -22.114059972043243 22.440000000000005
    vertex -135.80571901418955 -23.058349947846644 22.440000000000005
    vertex -135.84041070510557 -21.800271067691018 22.440000000000005
  endloop
endfacet
facet normal 0.0 0.0 1.0
  outer loop
    vertex -145.55170455223868 -27.51717487878316 22.440000000000005
    vertex -144.77821909326346 -21.801101343500736 22.440000000000005
    vertex -145.55170455223868 -18.317174878783163 22.440000000000005
  endloop
endfacet
facet normal 0.0 0.0 1.0
  outer loop
    vertex -144.77821909326346 -21.801101343500736 22.440000000000005
    vertex -145.55170455223868 -27.51717487878316 22.440000000000005
    vertex -143.91990763703882 -24.52022694446227 22.440000000000005
  endloop
endfacet
facet normal 0.0 0.0 1.0
  outer loop
    vertex -143.91990763703882 -24.52022694446227 22.440000000000005
    vertex -145.55170455223868 -27.51717487878316 22.440000000000005
    vertex -134.75170455223866 -27.51717487878316 22.440000000000005
  endloop
endfacet
facet normal 0.0 0.0 1.0
  outer loop
    vertex -143.91990763703882 -24.52022694446227 22.440000000000005
    vertex -134.75170455223866 -27.51717487878316 22.440000000000005
    vertex -143.28114878076346 -24.55103017700276 22.440000000000005
  endloop
endfacet
facet normal 0.0 0.0 1.0
  outer loop
    vertex -143.28114878076346 -24.55103017700276 22.440000000000005
    vertex -134.75170455223866 -27.51717487878316 22.440000000000005
    vertex -143.2303359012088 -24.157673174219365 22.440000000000005
  endloop
endfacet
facet normal 0.0 0.0 1.0
  outer loop
    vertex -143.2303359012088 -24.157673174219365 22.440000000000005
    vertex -134.75170455223866 -27.51717487878316 22.440000000000005
    vertex -142.30377577342537 -24.52091884097037 22.440000000000005
  endloop
endfacet
facet normal 0.0 0.0 1.0
  outer loop
    vertex -143.2303359012088 -24.157673174219365 22.440000000000005
    vertex -142.30377577342537 -24.52091884097037 22.440000000000005
    vertex -142.48090127949826 -21.799828253925842 22.440000000000005
  endloop
endfacet
facet normal 0.0 0.0 1.0
  outer loop
    vertex -142.48090127949826 -21.799828253925842 22.440000000000005
    vertex -142.30377577342537 -24.52091884097037 22.440000000000005
    vertex -142.35998544574323 -21.801101343500736 22.440000000000005
  endloop
endfacet
facet normal 0.0 0.0 1.0
  outer loop
    vertex -142.35998544574323 -21.801101343500736 22.440000000000005
    vertex -142.30377577342537 -24.52091884097037 22.440000000000005
    vertex -142.3037757734254 -22.23085210261005 22.440000000000005
  endloop
endfacet
facet normal 0.0 0.0 1.0
  outer loop
    vertex -142.30377577342537 -24.52091884097037 22.440000000000005
    vertex -134.75170455223866 -27.51717487878316 22.440000000000005
    vertex -141.6749802268667 -24.52091884097037 22.440000000000005
  endloop
endfacet
facet normal 0.0 0.0 1.0
  outer loop
    vertex -141.6749802268667 -24.52091884097037 22.440000000000005
    vertex -134.75170455223866 -27.51717487878316 22.440000000000005
    vertex -140.86551666411364 -24.52091884097037 22.440000000000005
  endloop
endfacet
facet normal 0.0 0.0 1.0
  outer loop
    vertex -141.6749802268667 -24.52091884097037 22.440000000000005
    vertex -140.86551666411364 -24.52091884097037 22.440000000000005
    vertex -141.6749802268667 -23.272184023156605 22.440000000000005
  endloop
endfacet
facet normal 0.0 0.0 1.0
  outer loop
    vertex -140.86551666411364 -24.52091884097037 22.440000000000005
    vertex -134.75170455223866 -27.51717487878316 22.440000000000005
    vertex -140.23849237261567 -24.52091884097037 22.440000000000005
  endloop
endfacet
facet normal 0.0 0.0 1.0
  outer loop
    vertex -140.23849237261567 -24.52091884097037 22.440000000000005
    vertex -134.75170455223866 -27.51717487878316 22.440000000000005
    vertex -139.72659966006506 -24.52091884097037 22.440000000000005
  endloop
endfacet
facet normal 0.0 0.0 1.0
  outer loop
    vertex -140.23849237261567 -24.52091884097037 22.440000000000005
    vertex -139.72659966006506 -24.52091884097037 22.440000000000005
    vertex -139.79008808364807 -21.80027106769102 22.440000000000005
  endloop
endfacet
facet normal 0.0 0.0 1.0
  outer loop
    vertex -139.72659966006506 -24.52091884097037 22.440000000000005
    vertex -134.75170455223866 -27.51717487878316 22.440000000000005
    vertex -139.09071909326346 -24.52091884097037 22.440000000000005
  endloop
endfacet
facet normal 0.0 0.0 1.0
  outer loop
    vertex -139.09071909326346 -24.52091884097037 22.440000000000005
    vertex -134.75170455223866 -27.51717487878316 22.440000000000005
    vertex -139.09071909326346 -23.245615197245677 22.440000000000005
  endloop
endfacet
facet normal 0.0 0.0 1.0
  outer loop
    vertex -139.09071909326346 -23.245615197245677 22.440000000000005
    vertex -134.75170455223866 -27.51717487878316 22.440000000000005
    vertex -137.4238297018161 -24.52091884097037 22.440000000000005
  endloop
endfacet
facet normal 0.0 0.0 1.0
  outer loop
    vertex -139.09071909326346 -23.245615197245677 22.440000000000005
    vertex -137.4238297018161 -24.52091884097037 22.440000000000005
    vertex -138.15903893132014 -23.245615197245677 22.440000000000005
  endloop
endfacet
facet normal 0.0 0.0 1.0
  outer loop
    vertex -138.15903893132014 -23.245615197245677 22.440000000000005
    vertex -137.4238297018161 -24.52091884097037 22.440000000000005
    vertex -138.15903893132014 -22.859481594006805 22.440000000000005
  endloop
endfacet
facet normal 0.0 0.0 1.0
  outer loop
    vertex -138.15903893132014 -22.859481594006805 22.440000000000005
    vertex -137.4238297018161 -24.52091884097037 22.440000000000005
    vertex -138.0220434227169 -22.212973496840817 22.440000000000005
  endloop
endfacet
facet normal 0.0 0.0 1.0
  outer loop
    vertex -138.0220434227169 -22.212973496840817 22.440000000000005
    vertex -137.4238297018161 -24.52091884097037 22.440000000000005
    vertex -137.9730571499436 -21.80027106769102 22.440000000000005
  endloop
endfacet
facet normal 0.0 0.0 1.0
  outer loop
    vertex -137.4238297018161 -24.52091884097037 22.440000000000005
    vertex -134.75170455223866 -27.51717487878316 22.440000000000005
    vertex -137.0148220000195 -24.493713470271988 22.440000000000005
  endloop
endfacet
facet normal 0.0 0.0 1.0
  outer loop
    vertex -137.0148220000195 -24.493713470271988 22.440000000000005
    vertex -134.75170455223866 -27.51717487878316 22.440000000000005
    vertex -136.61216590816727 -24.41118405478616 22.440000000000005
  endloop
endfacet
facet normal 0.0 0.0 1.0
  outer loop
    vertex -136.61216590816727 -24.41118405478616 22.440000000000005
    vertex -134.75170455223866 -27.51717487878316 22.440000000000005
    vertex -136.24577903126954 -24.27061836020114 22.440000000000005
  endloop
endfacet
facet normal 0.0 0.0 1.0
  outer loop
    vertex -136.24577903126954 -24.27061836020114 22.440000000000005
    vertex -134.75170455223866 -27.51717487878316 22.440000000000005
    vertex -135.94741941904786 -24.070203617665722 22.44000000000001
  endloop
endfacet
facet normal 0.0 0.0 1.0
  outer loop
    vertex -135.94741941904786 -24.070203617665722 22.44000000000001
    vertex -134.75170455223866 -27.51717487878316 22.440000000000005
    vertex -135.83360590294842 -23.947094471979995 22.44000000000001
  endloop
endfacet
facet normal 0.0 0.0 1.0
  outer loop
    vertex -135.83360590294842 -23.947094471979995 22.44000000000001
    vertex -134.75170455223866 -27.51717487878316 22.440000000000005
    vertex -135.74609137312174 -23.80811322039852 22.440000000000005
  endloop
endfacet
facet normal 0.0 0.0 1.0
  outer loop
    vertex -135.74609137312174 -23.80811322039852 22.440000000000005
    vertex -134.75170455223866 -27.51717487878316 22.440000000000005
    vertex -135.69031759560403 -23.65303499655616 22.440000000000005
  endloop
endfacet
facet normal 0.0 0.0 1.0
  outer loop
    vertex -135.69031759560403 -23.65303499655616 22.440000000000005
    vertex -134.75170455223866 -27.51717487878316 22.440000000000005
    vertex -135.67172633643148 -23.48163493408778 22.440000000000005
  endloop
endfacet
facet normal 0.0 0.0 1.0
  outer loop
    vertex -144.77821909326346 -21.801101343500736 22.440000000000005
    vertex -134.75170455223866 -18.317174878783163 22.440000000000005
    vertex -145.55170455223868 -18.317174878783163 22.440000000000005
  endloop
endfacet
facet normal 0.0 0.0 1.0
  outer loop
    vertex -134.75170455223866 -18.317174878783163 22.440000000000005
    vertex -144.77821909326346 -21.801101343500736 22.440000000000005
    vertex -144.193704923223 -21.764845966476443 22.440000000000005
  endloop
endfacet
facet normal 0.0 0.0 1.0
  outer loop
    vertex -134.75170455223866 -18.317174878783163 22.440000000000005
    vertex -144.193704923223 -21.764845966476443 22.440000000000005
    vertex -143.0618729394173 -21.799828253925835 22.440000000000005
  endloop
endfacet
facet normal 0.0 0.0 1.0
  outer loop
    vertex -143.0618729394173 -21.799828253925835 22.440000000000005
    vertex -144.193704923223 -21.764845966476443 22.440000000000005
    vertex -143.7347838073323 -23.25128874861208 22.440000000000005
  endloop
endfacet
facet normal 0.0 0.0 1.0
  outer loop
    vertex -143.0618729394173 -21.799828253925835 22.440000000000005
    vertex -143.7347838073323 -23.25128874861208 22.440000000000005
    vertex -143.5116886972614 -23.25084593484689 22.440000000000005
  endloop
endfacet
facet normal 0.0 0.0 1.0
  outer loop
    vertex -143.5116886972614 -23.25084593484689 22.440000000000005
    vertex -143.7347838073323 -23.25128874861208 22.440000000000005
    vertex -143.6386378685671 -24.048907043146485 22.440000000000005
  endloop
endfacet
facet normal 0.0 0.0 1.0
  outer loop
    vertex -134.75170455223866 -18.317174878783163 22.440000000000005
    vertex -143.0618729394173 -21.799828253925835 22.440000000000005
    vertex -142.48090127949826 -21.799828253925842 22.440000000000005
  endloop
endfacet
facet normal 0.0 0.0 1.0
  outer loop
    vertex -134.75170455223866 -18.317174878783163 22.440000000000005
    vertex -142.48090127949826 -21.799828253925842 22.440000000000005
    vertex -142.35998544574323 -21.801101343500736 22.440000000000005
  endloop
endfacet
facet normal 0.0 0.0 1.0
  outer loop
    vertex -134.75170455223866 -18.317174878783163 22.440000000000005
    vertex -142.35998544574323 -21.801101343500736 22.440000000000005
    vertex -141.6749802268667 -21.764845966476443 22.440000000000005
  endloop
endfacet
facet normal 0.0 0.0 1.0
  outer loop
    vertex -134.75170455223866 -18.317174878783163 22.440000000000005
    vertex -141.6749802268667 -21.764845966476443 22.440000000000005
    vertex -140.86551666411367 -21.801101343500736 22.440000000000005
  endloop
endfacet
facet normal 0.0 0.0 1.0
  outer loop
    vertex -134.75170455223866 -18.317174878783163 22.440000000000005
    vertex -140.86551666411367 -21.801101343500736 22.440000000000005
    vertex -140.2384923726157 -21.764845966476443 22.440000000000005
  endloop
endfacet
facet normal 0.0 0.0 1.0
  outer loop
    vertex -134.75170455223866 -18.317174878783163 22.440000000000005
    vertex -140.2384923726157 -21.764845966476443 22.440000000000005
    vertex -139.79008808364807 -21.80027106769102 22.440000000000005
  endloop
endfacet
facet normal 0.0 0.0 1.0
  outer loop
    vertex -139.79008808364807 -21.80027106769102 22.440000000000005
    vertex -140.2384923726157 -21.764845966476443 22.440000000000005
    vertex -140.23849237261567 -24.52091884097037 22.440000000000005
  endloop
endfacet
facet normal 0.0 0.0 1.0
  outer loop
    vertex -134.75170455223866 -18.317174878783163 22.440000000000005
    vertex -139.79008808364807 -21.80027106769102 22.440000000000005
    vertex -137.9730571499436 -21.80027106769102 22.440000000000005
  endloop
endfacet
facet normal 0.0 0.0 1.0
  outer loop
    vertex -134.75170455223866 -18.317174878783163 22.440000000000005
    vertex -137.9730571499436 -21.80027106769102 22.440000000000005
    vertex -137.36759235363797 -21.800271067691014 22.440000000000005
  endloop
endfacet
facet normal 0.0 0.0 1.0
  outer loop
    vertex -137.36759235363797 -21.800271067691014 22.440000000000005
    vertex -137.9730571499436 -21.80027106769102 22.440000000000005
    vertex -137.40570201330397 -22.1630185689562 22.440000000000005
  endloop
endfacet
facet normal 0.0 0.0 1.0
  outer loop
    vertex -137.40570201330397 -22.1630185689562 22.440000000000005
    vertex -137.9730571499436 -21.80027106769102 22.440000000000005
    vertex -137.4238297018161 -24.15817133970519 22.440000000000005
  endloop
endfacet
facet normal 0.0 0.0 1.0
  outer loop
    vertex -137.4238297018161 -24.15817133970519 22.440000000000005
    vertex -137.9730571499436 -21.80027106769102 22.440000000000005
    vertex -137.4238297018161 -24.52091884097037 22.440000000000005
  endloop
endfacet
facet normal 0.0 0.0 1.0
  outer loop
    vertex -134.75170455223866 -18.317174878783163 22.440000000000005
    vertex -137.36759235363797 -21.800271067691014 22.440000000000005
    vertex -135.84041070510557 -21.800271067691018 22.440000000000005
  endloop
endfacet
facet normal 0.0 0.0 1.0
  outer loop
    vertex -134.75170455223866 -18.317174878783163 22.440000000000005
    vertex -135.84041070510557 -21.800271067691018 22.440000000000005
    vertex -135.80571901418955 -23.058349947846644 22.440000000000005
  endloop
endfacet
facet normal 0.0 0.0 1.0
  outer loop
    vertex -134.75170455223866 -18.317174878783163 22.440000000000005
    vertex -135.80571901418955 -23.058349947846644 22.440000000000005
    vertex -135.73248868777256 -23.181462553014903 22.440000000000005
  endloop
endfacet
facet normal 0.0 0.0 1.0
  outer loop
    vertex -134.75170455223866 -18.317174878783163 22.440000000000005
    vertex -135.73248868777256 -23.181462553014903 22.440000000000005
    vertex -135.68691692426674 -23.323162957873198 22.440000000000005
  endloop
endfacet
facet normal 0.0 0.0 1.0
  outer loop
    vertex -134.75170455223866 -18.317174878783163 22.440000000000005
    vertex -135.68691692426674 -23.323162957873198 22.440000000000005
    vertex -135.67172633643148 -23.48163493408778 22.440000000000005
  endloop
endfacet
facet normal 0.0 0.0 1.0
  outer loop
    vertex -134.75170455223866 -18.317174878783163 22.440000000000005
    vertex -135.67172633643148 -23.48163493408778 22.440000000000005
    vertex -134.75170455223866 -27.51717487878316 22.440000000000005
  endloop
endfacet
facet normal 0.0 0.0 1.0
  outer loop
    vertex -139.09071909326346 -22.463578412073616 22.440000000000005
    vertex -138.0220434227169 -22.212973496840817 22.440000000000005
    vertex -139.11792446396183 -22.212973496840817 22.440000000000005
  endloop
endfacet
facet normal 0.0 0.0 1.0
  outer loop
    vertex -138.0220434227169 -22.212973496840817 22.440000000000005
    vertex -139.09071909326346 -22.463578412073616 22.440000000000005
    vertex -138.15903893132014 -22.859481594006805 22.440000000000005
  endloop
endfacet
facet normal 0.0 0.0 1.0
  outer loop
    vertex -139.72659966006506 -22.230132530241626 22.440000000000005
    vertex -139.79008808364807 -21.80027106769102 22.440000000000005
    vertex -139.72659966006506 -24.52091884097037 22.440000000000005
  endloop
endfacet
facet normal 0.0 0.0 1.0
  outer loop
    vertex -140.86551666411364 -22.859481594006805 22.440000000000005
    vertex -141.6749802268667 -21.764845966476443 22.440000000000005
    vertex -141.6749802268667 -22.859481594006805 22.440000000000005
  endloop
endfacet
facet normal 0.0 0.0 1.0
  outer loop
    vertex -141.6749802268667 -21.764845966476443 22.440000000000005
    vertex -140.86551666411364 -22.859481594006805 22.440000000000005
    vertex -140.86551666411367 -21.801101343500736 22.440000000000005
  endloop
endfacet
facet normal 0.0 0.0 1.0
  outer loop
    vertex -140.86551666411364 -23.272184023156605 22.440000000000005
    vertex -141.6749802268667 -23.272184023156605 22.440000000000005
    vertex -140.86551666411364 -24.52091884097037 22.440000000000005
  endloop
endfacet
facet normal 0.0 -1.0 0.0
  outer loop
    vertex -134.75170455223866 -27.51717487878316 22.440000000000005
    vertex -145.55170455223868 -27.51717487878316 12.999999999999998
    vertex -134.75170455223866 -27.51717487878316 12.999999999999998
  endloop
endfacet
facet normal 0.0 -1.0 0.0
  outer loop
    vertex -145.55170455223868 -27.51717487878316 12.999999999999998
    vertex -134.75170455223866 -27.51717487878316 22.440000000000005
    vertex -145.55170455223868 -27.51717487878316 22.440000000000005
  endloop
endfacet
facet normal 0.0 1.0 0.0
  outer loop
    vertex -145.55170455223868 -18.317174878783163 22.440000000000005
    vertex -134.75170455223866 -18.317174878783163 12.999999999999998
    vertex -145.55170455223868 -18.317174878783163 12.999999999999998
  endloop
endfacet
facet normal 0.0 1.0 0.0
  outer loop
    vertex -134.75170455223866 -18.317174878783163 12.999999999999998
    vertex -145.55170455223868 -18.317174878783163 22.440000000000005
    vertex -134.75170455223866 -18.317174878783163 22.440000000000005
  endloop
endfacet
facet normal 0.0 0.0 -1.0
  outer loop
    vertex -134.75170455223866 -18.317174878783163 12.999999999999998
    vertex -145.55170455223868 -27.51717487878316 12.999999999999998
    vertex -145.55170455223868 -18.317174878783163 12.999999999999998
  endloop
endfacet
facet normal 0.0 0.0 -1.0
  outer loop
    vertex -145.55170455223868 -27.51717487878316 12.999999999999998
    vertex -134.75170455223866 -18.317174878783163 12.999999999999998
    vertex -134.75170455223866 -27.51717487878316 12.999999999999998
  endloop
endfacet
facet normal 0.9530178499651907 -0.302914142369955 4.023865749466909e-15
  outer loop
    vertex -142.48090127949826 -21.799828253925842 22.440000000000005
    vertex -143.2303359012088 -24.157673174219358 23.000000000000007
    vertex -143.2303359012088 -24.157673174219365 22.440000000000005
  endloop
endfacet
facet normal 0.9530178499651907 -0.302914142369955 4.023865749466909e-15
  outer loop
    vertex -143.2303359012088 -24.157673174219358 23.000000000000007
    vertex -142.48090127949826 -21.799828253925842 22.440000000000005
    vertex -142.48090127949826 -21.799828253925835 23.000000000000007
  endloop
endfacet
facet normal 0.9917595727289381 -0.1281130356385102 -5.198607027231669e-14
  outer loop
    vertex -143.2303359012088 -24.157673174219365 22.440000000000005
    vertex -143.28114878076346 -24.551030177002758 23.000000000000007
    vertex -143.28114878076346 -24.55103017700276 22.440000000000005
  endloop
endfacet
facet normal 0.9917595727289381 -0.1281130356385102 -5.198607027231669e-14
  outer loop
    vertex -143.28114878076346 -24.551030177002758 23.000000000000007
    vertex -143.2303359012088 -24.157673174219365 22.440000000000005
    vertex -143.2303359012088 -24.157673174219358 23.000000000000007
  endloop
endfacet
facet normal -0.04816759553608793 -0.9988392677204236 1.8225761422930988e-15
  outer loop
    vertex -143.28114878076346 -24.551030177002758 23.000000000000007
    vertex -143.91990763703882 -24.52022694446227 22.440000000000005
    vertex -143.28114878076346 -24.55103017700276 22.440000000000005
  endloop
endfacet
facet normal -0.04816759553608793 -0.9988392677204236 1.8225761422930988e-15
  outer loop
    vertex -143.91990763703882 -24.52022694446227 22.440000000000005
    vertex -143.28114878076346 -24.551030177002758 23.000000000000007
    vertex -143.91990763703876 -24.520226944462273 23.000000000000007
  endloop
endfacet
facet normal -0.9536188912405269 -0.3010166278948529 7.584260896262382e-14
  outer loop
    vertex -144.77821909326346 -21.801101343500733 23.000000000000007
    vertex -143.91990763703882 -24.52022694446227 22.440000000000005
    vertex -143.91990763703876 -24.520226944462273 23.000000000000007
  endloop
endfacet
facet normal -0.9536188912405269 -0.3010166278948529 7.584260896262382e-14
  outer loop
    vertex -143.91990763703882 -24.52022694446227 22.440000000000005
    vertex -144.77821909326346 -21.801101343500733 23.000000000000007
    vertex -144.77821909326346 -21.801101343500736 22.440000000000005
  endloop
endfacet
facet normal -0.06190754138471767 0.998081888584148 -2.846018229639131e-17
  outer loop
    vertex -144.77821909326346 -21.801101343500733 23.000000000000007
    vertex -144.193704923223 -21.764845966476443 22.440000000000005
    vertex -144.77821909326346 -21.801101343500736 22.440000000000005
  endloop
endfacet
facet normal -0.06190754138471767 0.998081888584148 -2.846018229639131e-17
  outer loop
    vertex -144.193704923223 -21.764845966476443 22.440000000000005
    vertex -144.77821909326346 -21.801101343500733 23.000000000000007
    vertex -144.19370492322295 -21.764845966476443 23.000000000000007
  endloop
endfacet
facet normal 0.9554977752194957 0.2949983077080171 -5.429273907907848e-14
  outer loop
    vertex -144.193704923223 -21.764845966476443 22.440000000000005
    vertex -143.7347838073323 -23.251288748612073 23.000000000000007
    vertex -143.7347838073323 -23.25128874861208 22.440000000000005
  endloop
endfacet
facet normal 0.9554977752194957 0.2949983077080171 -5.429273907907848e-14
  outer loop
    vertex -143.7347838073323 -23.251288748612073 23.000000000000007
    vertex -144.193704923223 -21.764845966476443 22.440000000000005
    vertex -144.19370492322295 -21.764845966476443 23.000000000000007
  endloop
endfacet
facet normal 0.9928131245271096 0.11967497552420078 -1.1982401163161843e-15
  outer loop
    vertex -143.7347838073323 -23.25128874861208 22.440000000000005
    vertex -143.6386378685671 -24.048907043146485 23.000000000000007
    vertex -143.6386378685671 -24.048907043146485 22.440000000000005
  endloop
endfacet
facet normal 0.9928131245271096 0.11967497552420078 -1.1982401163161843e-15
  outer loop
    vertex -143.6386378685671 -24.048907043146485 23.000000000000007
    vertex -143.7347838073323 -23.25128874861208 22.440000000000005
    vertex -143.7347838073323 -23.251288748612073 23.000000000000007
  endloop
endfacet
facet normal -0.98758320476145 0.1570968289721466 -2.6547092846912527e-14
  outer loop
    vertex -143.51168869726143 -23.25084593484689 23.000000000000007
    vertex -143.6386378685671 -24.048907043146485 22.440000000000005
    vertex -143.6386378685671 -24.048907043146485 23.000000000000007
  endloop
endfacet
facet normal -0.98758320476145 0.1570968289721466 -2.6547092846912527e-14
  outer loop
    vertex -143.6386378685671 -24.048907043146485 22.440000000000005
    vertex -143.51168869726143 -23.25084593484689 23.000000000000007
    vertex -143.5116886972614 -23.25084593484689 22.440000000000005
  endloop
endfacet
facet normal -0.9551572746498176 0.29609893732253245 -2.5660393553042196e-14
  outer loop
    vertex -143.0618729394173 -21.799828253925835 23.000000000000007
    vertex -143.5116886972614 -23.25084593484689 22.440000000000005
    vertex -143.51168869726143 -23.25084593484689 23.000000000000007
  endloop
endfacet
facet normal -0.9551572746498176 0.29609893732253245 -2.5660393553042196e-14
  outer loop
    vertex -143.5116886972614 -23.25084593484689 22.440000000000005
    vertex -143.0618729394173 -21.799828253925835 23.000000000000007
    vertex -143.0618729394173 -21.799828253925835 22.440000000000005
  endloop
endfacet
facet normal 4.853879590169447e-15 1.0 -6.7142059108282e-15
  outer loop
    vertex -143.0618729394173 -21.799828253925835 23.000000000000007
    vertex -142.48090127949826 -21.799828253925842 22.440000000000005
    vertex -143.0618729394173 -21.799828253925835 22.440000000000005
  endloop
endfacet
facet normal 4.853879590169447e-15 1.0 -6.7142059108282e-15
  outer loop
    vertex -142.48090127949826 -21.799828253925842 22.440000000000005
    vertex -143.0618729394173 -21.799828253925835 23.000000000000007
    vertex -142.48090127949826 -21.799828253925835 23.000000000000007
  endloop
endfacet
facet normal 0.0 0.0 1.0
  outer loop
    vertex -143.91990763703876 -24.520226944462273 23.000000000000007
    vertex -144.19370492322295 -21.764845966476443 23.000000000000007
    vertex -144.77821909326346 -21.801101343500733 23.000000000000007
  endloop
endfacet
facet normal 0.0 0.0 1.0
  outer loop
    vertex -144.19370492322295 -21.764845966476443 23.000000000000007
    vertex -143.91990763703876 -24.520226944462273 23.000000000000007
    vertex -143.7347838073323 -23.251288748612073 23.000000000000007
  endloop
endfacet
facet normal 0.0 0.0 1.0
  outer loop
    vertex -143.7347838073323 -23.251288748612073 23.000000000000007
    vertex -143.91990763703876 -24.520226944462273 23.000000000000007
    vertex -143.6386378685671 -24.048907043146485 23.000000000000007
  endloop
endfacet
facet normal 0.0 0.0 1.0
  outer loop
    vertex -143.6386378685671 -24.048907043146485 23.000000000000007
    vertex -143.91990763703876 -24.520226944462273 23.000000000000007
    vertex -143.28114878076346 -24.551030177002758 23.000000000000007
  endloop
endfacet
facet normal 0.0 0.0 1.0
  outer loop
    vertex -143.6386378685671 -24.048907043146485 23.000000000000007
    vertex -143.28114878076346 -24.551030177002758 23.000000000000007
    vertex -143.51168869726143 -23.25084593484689 23.000000000000007
  endloop
endfacet
facet normal 0.0 0.0 1.0
  outer loop
    vertex -143.51168869726143 -23.25084593484689 23.000000000000007
    vertex -143.28114878076346 -24.551030177002758 23.000000000000007
    vertex -143.0618729394173 -21.799828253925835 23.000000000000007
  endloop
endfacet
facet normal 0.0 0.0 1.0
  outer loop
    vertex -143.0618729394173 -21.799828253925835 23.000000000000007
    vertex -143.28114878076346 -24.551030177002758 23.000000000000007
    vertex -143.2303359012088 -24.157673174219358 23.000000000000007
  endloop
endfacet
facet normal 0.0 0.0 1.0
  outer loop
    vertex -143.0618729394173 -21.799828253925835 23.000000000000007
    vertex -143.2303359012088 -24.157673174219358 23.000000000000007
    vertex -142.48090127949826 -21.799828253925835 23.000000000000007
  endloop
endfacet
facet normal 0.0 0.0 1.0
  outer loop
    vertex -141.6749802268667 -24.52091884097037 23.000000000000007
    vertex -142.30377577342537 -22.230852102610047 23.000000000000007
    vertex -142.30377577342537 -24.52091884097037 23.000000000000007
  endloop
endfacet
facet normal 0.0 0.0 1.0
  outer loop
    vertex -140.23849237261567 -24.52091884097037 23.000000000000007
    vertex -140.86551666411364 -23.272184023156605 23.000000000000007
    vertex -140.86551666411364 -24.52091884097037 23.000000000000007
  endloop
endfacet
facet normal 0.0 0.0 1.0
  outer loop
    vertex -140.86551666411364 -23.272184023156605 23.000000000000007
    vertex -140.23849237261567 -24.52091884097037 23.000000000000007
    vertex -140.86551666411364 -22.859481594006805 23.000000000000007
  endloop
endfacet
facet normal 0.0 0.0 1.0
  outer loop
    vertex -140.86551666411364 -22.859481594006805 23.000000000000007
    vertex -140.23849237261567 -24.52091884097037 23.000000000000007
    vertex -140.86551666411364 -21.801101343500733 23.000000000000007
  endloop
endfacet
facet normal 0.0 0.0 1.0
  outer loop
    vertex -140.86551666411364 -21.801101343500733 23.000000000000007
    vertex -140.23849237261567 -24.52091884097037 23.000000000000007
    vertex -140.23849237261567 -21.764845966476443 23.000000000000007
  endloop
endfacet
facet normal 0.0 0.0 1.0
  outer loop
    vertex -140.86551666411364 -23.272184023156605 23.000000000000007
    vertex -141.6749802268667 -22.859481594006805 23.000000000000007
    vertex -141.6749802268667 -23.272184023156605 23.000000000000007
  endloop
endfacet
facet normal 0.0 0.0 1.0
  outer loop
    vertex -141.6749802268667 -22.859481594006805 23.000000000000007
    vertex -140.86551666411364 -23.272184023156605 23.000000000000007
    vertex -140.86551666411364 -22.859481594006805 23.000000000000007
  endloop
endfacet
facet normal 0.0 0.0 1.0
  outer loop
    vertex -142.30377577342537 -22.230852102610047 23.000000000000007
    vertex -141.6749802268667 -21.764845966476443 23.000000000000007
    vertex -142.3599854457432 -21.801101343500733 23.000000000000007
  endloop
endfacet
facet normal 0.0 0.0 1.0
  outer loop
    vertex -141.6749802268667 -21.764845966476443 23.000000000000007
    vertex -142.30377577342537 -22.230852102610047 23.000000000000007
    vertex -141.6749802268667 -24.52091884097037 23.000000000000007
  endloop
endfacet
facet normal 0.0 0.0 1.0
  outer loop
    vertex -141.6749802268667 -21.764845966476443 23.000000000000007
    vertex -141.6749802268667 -24.52091884097037 23.000000000000007
    vertex -141.6749802268667 -23.272184023156605 23.000000000000007
  endloop
endfacet
facet normal 0.0 0.0 1.0
  outer loop
    vertex -141.6749802268667 -21.764845966476443 23.000000000000007
    vertex -141.6749802268667 -23.272184023156605 23.000000000000007
    vertex -141.6749802268667 -22.859481594006805 23.000000000000007
  endloop
endfacet
facet normal -1.0 0.0 0.0
  outer loop
    vertex -140.86551666411364 -23.272184023156605 23.000000000000007
    vertex -140.86551666411364 -24.52091884097037 22.440000000000005
    vertex -140.86551666411364 -24.52091884097037 23.000000000000007
  endloop
endfacet
facet normal -1.0 0.0 0.0
  outer loop
    vertex -140.86551666411364 -24.52091884097037 22.440000000000005
    vertex -140.86551666411364 -23.272184023156605 23.000000000000007
    vertex -140.86551666411364 -23.272184023156605 22.440000000000005
  endloop
endfacet
facet normal 0.0 -1.0 0.0
  outer loop
    vertex -140.23849237261567 -24.52091884097037 23.000000000000007
    vertex -140.86551666411364 -24.52091884097037 22.440000000000005
    vertex -140.23849237261567 -24.52091884097037 22.440000000000005
  endloop
endfacet
facet normal 0.0 -1.0 0.0
  outer loop
    vertex -140.86551666411364 -24.52091884097037 22.440000000000005
    vertex -140.23849237261567 -24.52091884097037 23.000000000000007
    vertex -140.86551666411364 -24.52091884097037 23.000000000000007
  endloop
endfacet
facet normal 1.0 4.0927313768010644e-15 -2.685682364331332e-14
  outer loop
    vertex -140.2384923726157 -21.764845966476443 22.440000000000005
    vertex -140.23849237261567 -24.52091884097037 23.000000000000007
    vertex -140.23849237261567 -24.52091884097037 22.440000000000005
  endloop
endfacet
facet normal 1.0 4.0927313768010644e-15 -2.685682364331332e-14
  outer loop
    vertex -140.23849237261567 -24.52091884097037 23.000000000000007
    vertex -140.2384923726157 -21.764845966476443 22.440000000000005
    vertex -140.23849237261567 -21.764845966476443 23.000000000000007
  endloop
endfacet
facet normal -0.05772491218225019 0.9983325270237124 -2.509667989433232e-16
  outer loop
    vertex -140.86551666411364 -21.801101343500733 23.000000000000007
    vertex -140.2384923726157 -21.764845966476443 22.440000000000005
    vertex -140.86551666411367 -21.801101343500736 22.440000000000005
  endloop
endfacet
facet normal -0.05772491218225019 0.9983325270237124 -2.509667989433232e-16
  outer loop
    vertex -140.2384923726157 -21.764845966476443 22.440000000000005
    vertex -140.86551666411364 -21.801101343500733 23.000000000000007
    vertex -140.23849237261567 -21.764845966476443 23.000000000000007
  endloop
endfacet
facet normal -1.0 -1.0657668569304872e-14 2.6856823643313354e-14
  outer loop
    vertex -140.86551666411364 -21.801101343500733 23.000000000000007
    vertex -140.86551666411364 -22.859481594006805 22.440000000000005
    vertex -140.86551666411364 -22.859481594006805 23.000000000000007
  endloop
endfacet
facet normal -1.0 -1.0657668569304872e-14 2.6856823643313354e-14
  outer loop
    vertex -140.86551666411364 -22.859481594006805 22.440000000000005
    vertex -140.86551666411364 -21.801101343500733 23.000000000000007
    vertex -140.86551666411367 -21.801101343500736 22.440000000000005
  endloop
endfacet
facet normal 0.0 1.0 0.0
  outer loop
    vertex -141.6749802268667 -22.859481594006805 23.000000000000007
    vertex -140.86551666411364 -22.859481594006805 22.440000000000005
    vertex -141.6749802268667 -22.859481594006805 22.440000000000005
  endloop
endfacet
facet normal 0.0 1.0 0.0
  outer loop
    vertex -140.86551666411364 -22.859481594006805 22.440000000000005
    vertex -141.6749802268667 -22.859481594006805 23.000000000000007
    vertex -140.86551666411364 -22.859481594006805 23.000000000000007
  endloop
endfacet
facet normal 1.0 0.0 0.0
  outer loop
    vertex -141.6749802268667 -21.764845966476443 22.440000000000005
    vertex -141.6749802268667 -22.859481594006805 23.000000000000007
    vertex -141.6749802268667 -22.859481594006805 22.440000000000005
  endloop
endfacet
facet normal 1.0 0.0 0.0
  outer loop
    vertex -141.6749802268667 -22.859481594006805 23.000000000000007
    vertex -141.6749802268667 -21.764845966476443 22.440000000000005
    vertex -141.6749802268667 -21.764845966476443 23.000000000000007
  endloop
endfacet
facet normal -0.052853177857277125 0.9986022940041681 -1.930917988533512e-15
  outer loop
    vertex -142.3599854457432 -21.801101343500733 23.000000000000007
    vertex -141.6749802268667 -21.764845966476443 22.440000000000005
    vertex -142.35998544574323 -21.801101343500736 22.440000000000005
  endloop
endfacet
facet normal -0.052853177857277125 0.9986022940041681 -1.930917988533512e-15
  outer loop
    vertex -141.6749802268667 -21.764845966476443 22.440000000000005
    vertex -142.3599854457432 -21.801101343500733 23.000000000000007
    vertex -141.6749802268667 -21.764845966476443 23.000000000000007
  endloop
endfacet
facet normal -0.9915544151345604 -0.12969133289144605 5.413838234791551e-14
  outer loop
    vertex -142.30377577342537 -22.230852102610047 23.000000000000007
    vertex -142.35998544574323 -21.801101343500736 22.440000000000005
    vertex -142.3037757734254 -22.23085210261005 22.440000000000005
  endloop
endfacet
facet normal -0.9915544151345604 -0.12969133289144605 5.413838234791551e-14
  outer loop
    vertex -142.35998544574323 -21.801101343500736 22.440000000000005
    vertex -142.30377577342537 -22.230852102610047 23.000000000000007
    vertex -142.3599854457432 -21.801101343500733 23.000000000000007
  endloop
endfacet
facet normal -1.0 -4.925562098800635e-15 2.6856823643313335e-14
  outer loop
    vertex -142.30377577342537 -22.230852102610047 23.000000000000007
    vertex -142.30377577342537 -24.52091884097037 22.440000000000005
    vertex -142.30377577342537 -24.52091884097037 23.000000000000007
  endloop
endfacet
facet normal -1.0 -4.925562098800635e-15 2.6856823643313335e-14
  outer loop
    vertex -142.30377577342537 -24.52091884097037 22.440000000000005
    vertex -142.30377577342537 -22.230852102610047 23.000000000000007
    vertex -142.3037757734254 -22.23085210261005 22.440000000000005
  endloop
endfacet
facet normal 0.0 -1.0 0.0
  outer loop
    vertex -141.6749802268667 -24.52091884097037 23.000000000000007
    vertex -142.30377577342537 -24.52091884097037 22.440000000000005
    vertex -141.6749802268667 -24.52091884097037 22.440000000000005
  endloop
endfacet
facet normal 0.0 -1.0 0.0
  outer loop
    vertex -142.30377577342537 -24.52091884097037 22.440000000000005
    vertex -141.6749802268667 -24.52091884097037 23.000000000000007
    vertex -142.30377577342537 -24.52091884097037 23.000000000000007
  endloop
endfacet
facet normal 1.0 0.0 0.0
  outer loop
    vertex -141.6749802268667 -23.272184023156605 22.440000000000005
    vertex -141.6749802268667 -24.52091884097037 23.000000000000007
    vertex -141.6749802268667 -24.52091884097037 22.440000000000005
  endloop
endfacet
facet normal 1.0 0.0 0.0
  outer loop
    vertex -141.6749802268667 -24.52091884097037 23.000000000000007
    vertex -141.6749802268667 -23.272184023156605 22.440000000000005
    vertex -141.6749802268667 -23.272184023156605 23.000000000000007
  endloop
endfacet
facet normal 0.0 -1.0 0.0
  outer loop
    vertex -140.86551666411364 -23.272184023156605 23.000000000000007
    vertex -141.6749802268667 -23.272184023156605 22.440000000000005
    vertex -140.86551666411364 -23.272184023156605 22.440000000000005
  endloop
endfacet
facet normal 0.0 -1.0 0.0
  outer loop
    vertex -141.6749802268667 -23.272184023156605 22.440000000000005
    vertex -140.86551666411364 -23.272184023156605 23.000000000000007
    vertex -141.6749802268667 -23.272184023156605 23.000000000000007
  endloop
endfacet
facet normal 0.0 -1.0 0.0
  outer loop
    vertex -138.0220434227169 -22.212973496840817 23.000000000000007
    vertex -139.11792446396183 -22.212973496840817 22.440000000000005
    vertex -138.0220434227169 -22.212973496840817 22.440000000000005
  endloop
endfacet
facet normal 0.0 -1.0 0.0
  outer loop
    vertex -139.11792446396183 -22.212973496840817 22.440000000000005
    vertex -138.0220434227169 -22.212973496840817 23.000000000000007
    vertex -139.11792446396183 -22.212973496840817 23.000000000000007
  endloop
endfacet
facet normal 0.9930291603427952 -0.11786893869414179 3.9728066067277e-16
  outer loop
    vertex -137.9730571499436 -21.80027106769102 22.440000000000005
    vertex -138.0220434227169 -22.212973496840817 23.000000000000007
    vertex -138.0220434227169 -22.212973496840817 22.440000000000005
  endloop
endfacet
facet normal 0.9930291603427952 -0.11786893869414179 3.9728066067277e-16
  outer loop
    vertex -138.0220434227169 -22.212973496840817 23.000000000000007
    vertex -137.9730571499436 -21.80027106769102 22.440000000000005
    vertex -137.9730571499436 -21.800271067691018 23.000000000000007
  endloop
endfacet
facet normal 0.0 0.0 1.0
  outer loop
    vertex -138.15903893132014 -23.245615197245677 23.000000000000007
    vertex -139.09071909326346 -22.859481594006805 23.000000000000007
    vertex -139.09071909326346 -23.245615197245677 23.000000000000007
  endloop
endfacet
facet normal 0.0 0.0 1.0
  outer loop
    vertex -139.09071909326346 -22.859481594006805 23.000000000000007
    vertex -138.15903893132014 -23.245615197245677 23.000000000000007
    vertex -138.15903893132014 -22.859481594006805 23.000000000000007
  endloop
endfacet
facet normal 0.0 0.0 1.0
  outer loop
    vertex -139.09071909326346 -24.52091884097037 23.000000000000007
    vertex -139.72659966006506 -22.230132530241626 23.000000000000007
    vertex -139.72659966006506 -24.52091884097037 23.000000000000007
  endloop
endfacet
facet normal 0.0 0.0 1.0
  outer loop
    vertex -139.72659966006506 -22.230132530241626 23.000000000000007
    vertex -139.09071909326346 -24.52091884097037 23.000000000000007
    vertex -139.11792446396183 -22.212973496840817 23.000000000000007
  endloop
endfacet
facet normal 0.0 0.0 1.0
  outer loop
    vertex -139.11792446396183 -22.212973496840817 23.000000000000007
    vertex -139.09071909326346 -24.52091884097037 23.000000000000007
    vertex -139.09071909326346 -22.46357841207361 23.000000000000007
  endloop
endfacet
facet normal 0.0 0.0 1.0
  outer loop
    vertex -139.09071909326346 -22.46357841207361 23.000000000000007
    vertex -139.09071909326346 -24.52091884097037 23.000000000000007
    vertex -139.09071909326346 -23.245615197245677 23.000000000000007
  endloop
endfacet
facet normal 0.0 0.0 1.0
  outer loop
    vertex -139.09071909326346 -22.46357841207361 23.000000000000007
    vertex -139.09071909326346 -23.245615197245677 23.000000000000007
    vertex -139.09071909326346 -22.859481594006805 23.000000000000007
  endloop
endfacet
facet normal 0.0 0.0 1.0
  outer loop
    vertex -139.72659966006506 -22.230132530241626 23.000000000000007
    vertex -137.9730571499436 -21.800271067691018 23.000000000000007
    vertex -139.79008808364807 -21.800271067691018 23.000000000000007
  endloop
endfacet
facet normal 0.0 0.0 1.0
  outer loop
    vertex -137.9730571499436 -21.800271067691018 23.000000000000007
    vertex -139.72659966006506 -22.230132530241626 23.000000000000007
    vertex -139.11792446396183 -22.212973496840817 23.000000000000007
  endloop
endfacet
facet normal 0.0 0.0 1.0
  outer loop
    vertex -137.9730571499436 -21.800271067691018 23.000000000000007
    vertex -139.11792446396183 -22.212973496840817 23.000000000000007
    vertex -138.0220434227169 -22.212973496840817 23.000000000000007
  endloop
endfacet
facet normal 0.9941590688690749 0.10792472277182001 -1.0886154506338548e-15
  outer loop
    vertex -139.11792446396183 -22.212973496840817 22.440000000000005
    vertex -139.09071909326346 -22.46357841207361 23.000000000000007
    vertex -139.09071909326346 -22.463578412073616 22.440000000000005
  endloop
endfacet
facet normal 0.9941590688690749 0.10792472277182001 -1.0886154506338548e-15
  outer loop
    vertex -139.09071909326346 -22.46357841207361 23.000000000000007
    vertex -139.11792446396183 -22.212973496840817 22.440000000000005
    vertex -139.11792446396183 -22.212973496840817 23.000000000000007
  endloop
endfacet
facet normal 0.0 -1.0 0.0
  outer loop
    vertex -139.09071909326346 -24.52091884097037 23.000000000000007
    vertex -139.72659966006506 -24.52091884097037 22.440000000000005
    vertex -139.09071909326346 -24.52091884097037 22.440000000000005
  endloop
endfacet
facet normal 0.0 -1.0 0.0
  outer loop
    vertex -139.72659966006506 -24.52091884097037 22.440000000000005
    vertex -139.09071909326346 -24.52091884097037 23.000000000000007
    vertex -139.72659966006506 -24.52091884097037 23.000000000000007
  endloop
endfacet
facet normal -1.0 0.0 0.0
  outer loop
    vertex -139.72659966006506 -22.230132530241626 23.000000000000007
    vertex -139.72659966006506 -24.52091884097037 22.440000000000005
    vertex -139.72659966006506 -24.52091884097037 23.000000000000007
  endloop
endfacet
facet normal -1.0 0.0 0.0
  outer loop
    vertex -139.72659966006506 -24.52091884097037 22.440000000000005
    vertex -139.72659966006506 -22.230132530241626 23.000000000000007
    vertex -139.72659966006506 -22.230132530241626 22.440000000000005
  endloop
endfacet
facet normal -0.9892683397932424 -0.146110067698028 4.9246820128493305e-16
  outer loop
    vertex -139.79008808364807 -21.800271067691018 23.000000000000007
    vertex -139.72659966006506 -22.230132530241626 22.440000000000005
    vertex -139.72659966006506 -22.230132530241626 23.000000000000007
  endloop
endfacet
facet normal -0.9892683397932424 -0.146110067698028 4.9246820128493305e-16
  outer loop
    vertex -139.72659966006506 -22.230132530241626 22.440000000000005
    vertex -139.79008808364807 -21.800271067691018 23.000000000000007
    vertex -139.79008808364807 -21.80027106769102 22.440000000000005
  endloop
endfacet
facet normal 1.2937426455619394e-43 1.0 -6.71420591082833e-15
  outer loop
    vertex -139.79008808364807 -21.800271067691018 23.000000000000007
    vertex -137.9730571499436 -21.80027106769102 22.440000000000005
    vertex -139.79008808364807 -21.80027106769102 22.440000000000005
  endloop
endfacet
facet normal 1.2937426455619394e-43 1.0 -6.71420591082833e-15
  outer loop
    vertex -137.9730571499436 -21.80027106769102 22.440000000000005
    vertex -139.79008808364807 -21.800271067691018 23.000000000000007
    vertex -137.9730571499436 -21.800271067691018 23.000000000000007
  endloop
endfacet
facet normal 1.0 0.0 0.0
  outer loop
    vertex -139.09071909326346 -22.463578412073616 22.440000000000005
    vertex -139.09071909326346 -22.859481594006805 23.000000000000007
    vertex -139.09071909326346 -22.859481594006805 22.440000000000005
  endloop
endfacet
facet normal 1.0 0.0 0.0
  outer loop
    vertex -139.09071909326346 -22.859481594006805 23.000000000000007
    vertex -139.09071909326346 -22.463578412073616 22.440000000000005
    vertex -139.09071909326346 -22.46357841207361 23.000000000000007
  endloop
endfacet
facet normal 0.0 1.0 0.0
  outer loop
    vertex -139.09071909326346 -22.859481594006805 23.000000000000007
    vertex -138.15903893132014 -22.859481594006805 22.440000000000005
    vertex -139.09071909326346 -22.859481594006805 22.440000000000005
  endloop
endfacet
facet normal 0.0 1.0 0.0
  outer loop
    vertex -138.15903893132014 -22.859481594006805 22.440000000000005
    vertex -139.09071909326346 -22.859481594006805 23.000000000000007
    vertex -138.15903893132014 -22.859481594006805 23.000000000000007
  endloop
endfacet
facet normal 1.0 0.0 0.0
  outer loop
    vertex -138.15903893132014 -22.859481594006805 22.440000000000005
    vertex -138.15903893132014 -23.245615197245677 23.000000000000007
    vertex -138.15903893132014 -23.245615197245677 22.440000000000005
  endloop
endfacet
facet normal 1.0 0.0 0.0
  outer loop
    vertex -138.15903893132014 -23.245615197245677 23.000000000000007
    vertex -138.15903893132014 -22.859481594006805 22.440000000000005
    vertex -138.15903893132014 -22.859481594006805 23.000000000000007
  endloop
endfacet
facet normal 0.0 -1.0 0.0
  outer loop
    vertex -138.15903893132014 -23.245615197245677 23.000000000000007
    vertex -139.09071909326346 -23.245615197245677 22.440000000000005
    vertex -138.15903893132014 -23.245615197245677 22.440000000000005
  endloop
endfacet
facet normal 0.0 -1.0 0.0
  outer loop
    vertex -139.09071909326346 -23.245615197245677 22.440000000000005
    vertex -138.15903893132014 -23.245615197245677 23.000000000000007
    vertex -139.09071909326346 -23.245615197245677 23.000000000000007
  endloop
endfacet
facet normal 1.0 0.0 0.0
  outer loop
    vertex -139.09071909326346 -23.245615197245677 22.440000000000005
    vertex -139.09071909326346 -24.52091884097037 23.000000000000007
    vertex -139.09071909326346 -24.52091884097037 22.440000000000005
  endloop
endfacet
facet normal 1.0 0.0 0.0
  outer loop
    vertex -139.09071909326346 -24.52091884097037 23.000000000000007
    vertex -139.09071909326346 -23.245615197245677 22.440000000000005
    vertex -139.09071909326346 -23.245615197245677 23.000000000000007
  endloop
endfacet
facet normal 0.8059086142482599 -0.5920399526049317 5.964499722305553e-15
  outer loop
    vertex -135.90865937666427 -22.251446402173563 22.440000000000005
    vertex -136.0009306949841 -22.37704983477098 23.000000000000007
    vertex -136.0009306949841 -22.377049834770986 22.44
  endloop
endfacet
facet normal 0.8059086142482599 -0.5920399526049317 5.964499722305553e-15
  outer loop
    vertex -136.0009306949841 -22.37704983477098 23.000000000000007
    vertex -135.90865937666427 -22.251446402173563 22.440000000000005
    vertex -135.90865937666427 -22.25144640217356 23.000000000000007
  endloop
endfacet
facet normal 0.8955833280103426 -0.4448938104648336 1.4940144634856379e-15
  outer loop
    vertex -135.84041070510557 -22.114059972043243 22.440000000000005
    vertex -135.90865937666427 -22.25144640217356 23.000000000000007
    vertex -135.90865937666427 -22.251446402173563 22.440000000000005
  endloop
endfacet
facet normal 0.8955833280103426 -0.4448938104648336 1.4940144634856379e-15
  outer loop
    vertex -135.90865937666427 -22.25144640217356 23.000000000000007
    vertex -135.84041070510557 -22.114059972043243 22.440000000000005
    vertex -135.84041070510557 -22.114059972043243 23.000000000000007
  endloop
endfacet
facet normal 0.0 0.0 1.0
  outer loop
    vertex -137.01482200001954 -24.49371347027199 23.000000000000007
    vertex -137.4238297018161 -24.15817133970519 23.000000000000007
    vertex -137.4238297018161 -24.52091884097037 23.000000000000007
  endloop
endfacet
facet normal 0.0 0.0 1.0
  outer loop
    vertex -137.4238297018161 -24.15817133970519 23.000000000000007
    vertex -137.01482200001954 -24.49371347027199 23.000000000000007
    vertex -137.00667145915412 -24.101947829457213 23.000000000000007
  endloop
endfacet
facet normal 0.0 0.0 1.0
  outer loop
    vertex -137.00667145915412 -24.101947829457213 23.000000000000007
    vertex -137.01482200001954 -24.49371347027199 23.000000000000007
    vertex -136.6121659081673 -24.41118405478616 23.000000000000007
  endloop
endfacet
facet normal 0.0 0.0 1.0
  outer loop
    vertex -137.00667145915412 -24.101947829457213 23.000000000000007
    vertex -136.6121659081673 -24.41118405478616 23.000000000000007
    vertex -136.6439101199588 -23.96863321027705 23.000000000000007
  endloop
endfacet
facet normal 0.0 0.0 1.0
  outer loop
    vertex -136.6439101199588 -23.96863321027705 23.000000000000007
    vertex -136.6121659081673 -24.41118405478616 23.000000000000007
    vertex -136.4999368350714 -23.875676914414196 23.000000000000007
  endloop
endfacet
facet normal 0.0 0.0 1.0
  outer loop
    vertex -136.4999368350714 -23.875676914414196 23.000000000000007
    vertex -136.6121659081673 -24.41118405478616 23.000000000000007
    vertex -136.24577903126954 -24.27061836020114 23.000000000000007
  endloop
endfacet
facet normal 0.0 0.0 1.0
  outer loop
    vertex -136.4999368350714 -23.875676914414196 23.000000000000007
    vertex -136.24577903126954 -24.27061836020114 23.000000000000007
    vertex -136.38725802924523 -23.765492395499724 23.000000000000007
  endloop
endfacet
facet normal 0.0 0.0 1.0
  outer loop
    vertex -136.38725802924523 -23.765492395499724 23.000000000000007
    vertex -136.24577903126954 -24.27061836020114 23.000000000000007
    vertex -136.31448435452356 -23.639660637054632 23.000000000000007
  endloop
endfacet
facet normal 0.0 0.0 1.0
  outer loop
    vertex -136.31448435452356 -23.639660637054632 23.000000000000007
    vertex -136.24577903126954 -24.27061836020114 23.000000000000007
    vertex -136.29022646294968 -23.499762622599928 23.000000000000007
  endloop
endfacet
facet normal 0.0 0.0 1.0
  outer loop
    vertex -137.14178500925536 -23.137015121334745 23.000000000000007
    vertex -137.21886228025738 -22.819600679280086 23.000000000000007
    vertex -137.21886228025738 -23.14246726581855 23.000000000000007
  endloop
endfacet
facet normal 0.0 0.0 1.0
  outer loop
    vertex -137.21886228025738 -22.819600679280086 23.000000000000007
    vertex -137.14178500925536 -23.137015121334745 23.000000000000007
    vertex -137.0919131089517 -22.72710795407766 23.000000000000007
  endloop
endfacet
facet normal 0.0 0.0 1.0
  outer loop
    vertex -137.0919131089517 -22.72710795407766 23.000000000000007
    vertex -137.14178500925536 -23.137015121334745 23.000000000000007
    vertex -137.03386299192235 -23.13066351139041 23.000000000000007
  endloop
endfacet
facet normal 0.0 0.0 1.0
  outer loop
    vertex -137.0919131089517 -22.72710795407766 23.000000000000007
    vertex -137.03386299192235 -23.13066351139041 23.000000000000007
    vertex -136.93320588792437 -22.60739602024669 23.000000000000007
  endloop
endfacet
facet normal 0.0 0.0 1.0
  outer loop
    vertex -136.93320588792437 -22.60739602024669 23.000000000000007
    vertex -137.03386299192235 -23.13066351139041 23.000000000000007
    vertex -136.92504150912885 -23.126124670297294 23.000000000000007
  endloop
endfacet
facet normal 0.0 0.0 1.0
  outer loop
    vertex -136.93320588792437 -22.60739602024669 23.000000000000007
    vertex -136.92504150912885 -23.126124670297294 23.000000000000007
    vertex -136.76089598154786 -22.470455863364098 23.000000000000007
  endloop
endfacet
facet normal 0.0 0.0 1.0
  outer loop
    vertex -136.76089598154786 -22.470455863364098 23.000000000000007
    vertex -136.92504150912885 -23.126124670297294 23.000000000000007
    vertex -136.8452381658849 -23.124311901446077 23.000000000000007
  endloop
endfacet
facet normal 0.0 0.0 1.0
  outer loop
    vertex -136.76089598154786 -22.470455863364098 23.000000000000007
    vertex -136.8452381658849 -23.124311901446077 23.000000000000007
    vertex -136.63212020346083 -23.143366731279077 23.000000000000007
  endloop
endfacet
facet normal 0.0 0.0 1.0
  outer loop
    vertex -136.76089598154786 -22.470455863364098 23.000000000000007
    vertex -136.63212020346083 -23.143366731279077 23.000000000000007
    vertex -136.59312491626446 -22.32353855883474 23.000000000000007
  endloop
endfacet
facet normal 0.0 0.0 1.0
  outer loop
    vertex -136.59312491626446 -22.32353855883474 23.000000000000007
    vertex -136.63212020346083 -23.143366731279077 23.000000000000007
    vertex -136.45527145599118 -23.20685515486207 23.000000000000007
  endloop
endfacet
facet normal 0.0 0.0 1.0
  outer loop
    vertex -136.59312491626446 -22.32353855883474 23.000000000000007
    vertex -136.45527145599118 -23.20685515486207 23.000000000000007
    vertex -136.51874604164402 -22.763391006962273 23.000000000000007
  endloop
endfacet
facet normal 0.0 0.0 1.0
  outer loop
    vertex -136.51874604164402 -22.763391006962273 23.000000000000007
    vertex -136.45527145599118 -23.20685515486207 23.000000000000007
    vertex -136.33669423243347 -22.775858982038184 23.000000000000007
  endloop
endfacet
facet normal 0.0 0.0 1.0
  outer loop
    vertex -136.33669423243347 -22.775858982038184 23.000000000000007
    vertex -136.45527145599118 -23.20685515486207 23.000000000000007
    vertex -136.33466005669968 -23.32292771306045 23.000000000000007
  endloop
endfacet
facet normal 0.0 0.0 1.0
  outer loop
    vertex -136.33669423243347 -22.775858982038184 23.000000000000007
    vertex -136.33466005669968 -23.32292771306045 23.000000000000007
    vertex -136.17141399457924 -22.81326290726592 23.000000000000007
  endloop
endfacet
facet normal 0.0 0.0 1.0
  outer loop
    vertex -136.17141399457924 -22.81326290726592 23.000000000000007
    vertex -136.33466005669968 -23.32292771306045 23.000000000000007
    vertex -136.29022646294968 -23.499762622599928 23.000000000000007
  endloop
endfacet
facet normal 0.0 0.0 1.0
  outer loop
    vertex -136.17141399457924 -22.81326290726592 23.000000000000007
    vertex -136.29022646294968 -23.499762622599928 23.000000000000007
    vertex -136.24577903126954 -24.27061836020114 23.000000000000007
  endloop
endfacet
facet normal 0.0 0.0 1.0
  outer loop
    vertex -136.17141399457924 -22.81326290726592 23.000000000000007
    vertex -136.24577903126954 -24.27061836020114 23.000000000000007
    vertex -135.94741941904786 -24.070203617665715 23.000000000000007
  endloop
endfacet
facet normal 0.0 0.0 1.0
  outer loop
    vertex -136.17141399457924 -22.81326290726592 23.000000000000007
    vertex -135.94741941904786 -24.070203617665715 23.000000000000007
    vertex -136.026084592536 -22.8737934732768 23.000000000000007
  endloop
endfacet
facet normal 0.0 0.0 1.0
  outer loop
    vertex -136.026084592536 -22.8737934732768 23.000000000000007
    vertex -135.94741941904786 -24.070203617665715 23.000000000000007
    vertex -135.90388529075838 -22.95564137070215 23.000000000000007
  endloop
endfacet
facet normal 0.0 0.0 1.0
  outer loop
    vertex -135.90388529075838 -22.95564137070215 23.000000000000007
    vertex -135.94741941904786 -24.070203617665715 23.000000000000007
    vertex -135.83360590294842 -23.947094471979984 23.000000000000007
  endloop
endfacet
facet normal 0.0 0.0 1.0
  outer loop
    vertex -135.90388529075838 -22.95564137070215 23.000000000000007
    vertex -135.83360590294842 -23.947094471979984 23.000000000000007
    vertex -135.80571901418955 -23.058349947846633 23.000000000000007
  endloop
endfacet
facet normal 0.0 0.0 1.0
  outer loop
    vertex -135.80571901418955 -23.058349947846633 23.000000000000007
    vertex -135.83360590294842 -23.947094471979984 23.000000000000007
    vertex -135.74609137312174 -23.80811322039851 23.000000000000007
  endloop
endfacet
facet normal 0.0 0.0 1.0
  outer loop
    vertex -135.80571901418955 -23.058349947846633 23.000000000000007
    vertex -135.74609137312174 -23.80811322039851 23.000000000000007
    vertex -135.73248868777256 -23.181462553014907 23.000000000000007
  endloop
endfacet
facet normal 0.0 0.0 1.0
  outer loop
    vertex -135.73248868777256 -23.181462553014907 23.000000000000007
    vertex -135.74609137312174 -23.80811322039851 23.000000000000007
    vertex -135.69031759560403 -23.65303499655615 23.000000000000007
  endloop
endfacet
facet normal 0.0 0.0 1.0
  outer loop
    vertex -135.73248868777256 -23.181462553014907 23.000000000000007
    vertex -135.69031759560403 -23.65303499655615 23.000000000000007
    vertex -135.68691692426674 -23.323162957873205 23.000000000000007
  endloop
endfacet
facet normal 0.0 0.0 1.0
  outer loop
    vertex -135.68691692426674 -23.323162957873205 23.000000000000007
    vertex -135.69031759560403 -23.65303499655615 23.000000000000007
    vertex -135.67172633643145 -23.48163493408778 23.000000000000007
  endloop
endfacet
facet normal 0.0 0.0 1.0
  outer loop
    vertex -136.51874604164402 -22.763391006962273 23.000000000000007
    vertex -136.44530814627458 -22.172995716602962 23.000000000000007
    vertex -136.59312491626446 -22.32353855883474 23.000000000000007
  endloop
endfacet
facet normal 0.0 0.0 1.0
  outer loop
    vertex -136.44530814627458 -22.172995716602962 23.000000000000007
    vertex -136.51874604164402 -22.763391006962273 23.000000000000007
    vertex -136.2358157215529 -22.61283432680033 23.000000000000007
  endloop
endfacet
facet normal 0.0 0.0 1.0
  outer loop
    vertex -136.44530814627458 -22.172995716602962 23.000000000000007
    vertex -136.2358157215529 -22.61283432680033 23.000000000000007
    vertex -136.33376059123916 -22.028818322245673 23.000000000000007
  endloop
endfacet
facet normal 0.0 0.0 1.0
  outer loop
    vertex -136.80532957529786 -22.1630185689562 23.000000000000007
    vertex -137.36759235363795 -21.800271067691018 23.000000000000007
    vertex -137.40570201330394 -22.1630185689562 23.000000000000007
  endloop
endfacet
facet normal 0.0 0.0 1.0
  outer loop
    vertex -137.36759235363795 -21.800271067691018 23.000000000000007
    vertex -136.80532957529786 -22.1630185689562 23.000000000000007
    vertex -135.84041070510557 -21.800271067691018 23.000000000000007
  endloop
endfacet
facet normal 0.0 0.0 1.0
  outer loop
    vertex -135.84041070510557 -21.800271067691018 23.000000000000007
    vertex -136.80532957529786 -22.1630185689562 23.000000000000007
    vertex -136.33376059123916 -22.028818322245673 23.000000000000007
  endloop
endfacet
facet normal 0.0 0.0 1.0
  outer loop
    vertex -135.84041070510557 -21.800271067691018 23.000000000000007
    vertex -136.33376059123916 -22.028818322245673 23.000000000000007
    vertex -136.2358157215529 -22.61283432680033 23.000000000000007
  endloop
endfacet
facet normal 0.0 0.0 1.0
  outer loop
    vertex -135.84041070510557 -21.800271067691018 23.000000000000007
    vertex -136.2358157215529 -22.61283432680033 23.000000000000007
    vertex -136.0009306949841 -22.37704983477098 23.000000000000007
  endloop
endfacet
facet normal 0.0 0.0 1.0
  outer loop
    vertex -135.84041070510557 -21.800271067691018 23.000000000000007
    vertex -136.0009306949841 -22.37704983477098 23.000000000000007
    vertex -135.90865937666427 -22.25144640217356 23.000000000000007
  endloop
endfacet
facet normal 0.0 0.0 1.0
  outer loop
    vertex -135.84041070510557 -21.800271067691018 23.000000000000007
    vertex -135.90865937666427 -22.25144640217356 23.000000000000007
    vertex -135.84041070510557 -22.114059972043243 23.000000000000007
  endloop
endfacet
facet normal 0.708456792639643 -0.7057541873504897 9.480077616411615e-15
  outer loop
    vertex -136.0009306949841 -22.377049834770986 22.44
    vertex -136.2358157215529 -22.61283432680033 23.000000000000007
    vertex -136.2358157215529 -22.612834326800336 22.44
  endloop
endfacet
facet normal 0.708456792639643 -0.7057541873504897 9.480077616411615e-15
  outer loop
    vertex -136.2358157215529 -22.61283432680033 23.000000000000007
    vertex -136.0009306949841 -22.377049834770986 22.44
    vertex -136.0009306949841 -22.37704983477098 23.000000000000007
  endloop
endfacet
facet normal -0.588862951633339 0.8082329021969298 2.0780804241192487e-14
  outer loop
    vertex -137.21886228025738 -22.819600679280086 23.000000000000007
    vertex -137.09191310895176 -22.72710795407767 22.440000000000005
    vertex -137.21886228025738 -22.819600679280086 22.440000000000005
  endloop
endfacet
facet normal -0.588862951633339 0.8082329021969298 2.0780804241192487e-14
  outer loop
    vertex -137.09191310895176 -22.72710795407767 22.440000000000005
    vertex -137.21886228025738 -22.819600679280086 23.000000000000007
    vertex -137.0919131089517 -22.72710795407766 23.000000000000007
  endloop
endfacet
facet normal -0.6021918350394833 0.7983514225025092 -5.080783491771633e-15
  outer loop
    vertex -137.0919131089517 -22.72710795407766 23.000000000000007
    vertex -136.9332058879244 -22.607396020246732 22.440000000000005
    vertex -137.09191310895176 -22.72710795407767 22.440000000000005
  endloop
endfacet
facet normal -0.6021918350394833 0.7983514225025092 -5.080783491771633e-15
  outer loop
    vertex -136.9332058879244 -22.607396020246732 22.440000000000005
    vertex -137.0919131089517 -22.72710795407766 23.000000000000007
    vertex -136.93320588792437 -22.60739602024669 23.000000000000007
  endloop
endfacet
facet normal -0.6221769454543495 0.7828766496358768 -2.9662501575477054e-14
  outer loop
    vertex -136.93320588792437 -22.60739602024669 23.000000000000007
    vertex -136.7608959815479 -22.47045586336412 22.440000000000005
    vertex -136.9332058879244 -22.607396020246732 22.440000000000005
  endloop
endfacet
facet normal -0.6221769454543495 0.7828766496358768 -2.9662501575477054e-14
  outer loop
    vertex -136.7608959815479 -22.47045586336412 22.440000000000005
    vertex -136.93320588792437 -22.60739602024669 23.000000000000007
    vertex -136.76089598154786 -22.470455863364098 23.000000000000007
  endloop
endfacet
facet normal -0.6588032829336599 0.7523152493442041 1.5184448878271623e-14
  outer loop
    vertex -136.76089598154786 -22.470455863364098 23.000000000000007
    vertex -136.59312491626451 -22.323538558834763 22.440000000000005
    vertex -136.7608959815479 -22.47045586336412 22.440000000000005
  endloop
endfacet
facet normal -0.6588032829336599 0.7523152493442041 1.5184448878271623e-14
  outer loop
    vertex -136.59312491626451 -22.323538558834763 22.440000000000005
    vertex -136.76089598154786 -22.470455863364098 23.000000000000007
    vertex -136.59312491626446 -22.32353855883474 23.000000000000007
  endloop
endfacet
facet normal -0.7135377388678933 0.7006167962668995 2.1851467010930634e-14
  outer loop
    vertex -136.59312491626446 -22.32353855883474 23.000000000000007
    vertex -136.44530814627458 -22.172995716602962 22.440000000000005
    vertex -136.59312491626451 -22.323538558834763 22.440000000000005
  endloop
endfacet
facet normal -0.7135377388678933 0.7006167962668995 2.1851467010930634e-14
  outer loop
    vertex -136.44530814627458 -22.172995716602962 22.440000000000005
    vertex -136.59312491626446 -22.32353855883474 23.000000000000007
    vertex -136.44530814627458 -22.172995716602962 23.000000000000007
  endloop
endfacet
facet normal -0.7909192486022562 0.6119205358463161 -4.109826253158933e-15
  outer loop
    vertex -136.33376059123916 -22.028818322245673 23.000000000000007
    vertex -136.44530814627458 -22.172995716602962 22.440000000000005
    vertex -136.44530814627458 -22.172995716602962 23.000000000000007
  endloop
endfacet
facet normal -0.7909192486022562 0.6119205358463161 -4.109826253158933e-15
  outer loop
    vertex -136.44530814627458 -22.172995716602962 22.440000000000005
    vertex -136.33376059123916 -22.028818322245673 23.000000000000007
    vertex -136.33376059123916 -22.02881832224568 22.440000000000005
  endloop
endfacet
facet normal 0.2737145056928538 -0.9618109842236764 6.4597865277910875e-15
  outer loop
    vertex -136.33376059123916 -22.028818322245673 23.000000000000007
    vertex -136.80532957529786 -22.1630185689562 22.440000000000005
    vertex -136.33376059123916 -22.02881832224568 22.440000000000005
  endloop
endfacet
facet normal 0.2737145056928538 -0.9618109842236764 6.4597865277910875e-15
  outer loop
    vertex -136.80532957529786 -22.1630185689562 22.440000000000005
    vertex -136.33376059123916 -22.028818322245673 23.000000000000007
    vertex -136.80532957529786 -22.1630185689562 23.000000000000007
  endloop
endfacet
facet normal 0.0 -1.0 0.0
  outer loop
    vertex -136.80532957529786 -22.1630185689562 23.000000000000007
    vertex -137.40570201330397 -22.1630185689562 22.440000000000005
    vertex -136.80532957529786 -22.1630185689562 22.440000000000005
  endloop
endfacet
facet normal 0.0 -1.0 0.0
  outer loop
    vertex -137.40570201330397 -22.1630185689562 22.440000000000005
    vertex -136.80532957529786 -22.1630185689562 23.000000000000007
    vertex -137.40570201330394 -22.1630185689562 23.000000000000007
  endloop
endfacet
facet normal -0.9945266366489232 0.10448334314990608 8.048168240683094e-14
  outer loop
    vertex -137.36759235363795 -21.800271067691018 23.000000000000007
    vertex -137.40570201330397 -22.1630185689562 22.440000000000005
    vertex -137.40570201330394 -22.1630185689562 23.000000000000007
  endloop
endfacet
facet normal -0.9945266366489232 0.10448334314990608 8.048168240683094e-14
  outer loop
    vertex -137.40570201330397 -22.1630185689562 22.440000000000005
    vertex -137.36759235363795 -21.800271067691018 23.000000000000007
    vertex -137.36759235363797 -21.800271067691014 22.440000000000005
  endloop
endfacet
facet normal 9.23258371149851e-16 1.0 3.3571029554141405e-15
  outer loop
    vertex -137.36759235363795 -21.800271067691018 23.000000000000007
    vertex -135.84041070510557 -21.800271067691018 22.440000000000005
    vertex -137.36759235363797 -21.800271067691014 22.440000000000005
  endloop
endfacet
facet normal 9.23258371149851e-16 1.0 3.3571029554141405e-15
  outer loop
    vertex -135.84041070510557 -21.800271067691018 22.440000000000005
    vertex -137.36759235363795 -21.800271067691018 23.000000000000007
    vertex -135.84041070510557 -21.800271067691018 23.000000000000007
  endloop
endfacet
facet normal 1.0 0.0 0.0
  outer loop
    vertex -135.84041070510557 -21.800271067691018 22.440000000000005
    vertex -135.84041070510557 -22.114059972043243 23.000000000000007
    vertex -135.84041070510557 -22.114059972043243 22.440000000000005
  endloop
endfacet
facet normal 1.0 0.0 0.0
  outer loop
    vertex -135.84041070510557 -22.114059972043243 23.000000000000007
    vertex -135.84041070510557 -21.800271067691018 22.440000000000005
    vertex -135.84041070510557 -21.800271067691018 23.000000000000007
  endloop
endfacet
facet normal 0.4697633383590599 -0.8827923911847857 -2.2254313121884036e-14
  outer loop
    vertex -136.2358157215529 -22.61283432680033 23.000000000000007
    vertex -136.51874604164405 -22.76339100696227 22.440000000000005
    vertex -136.2358157215529 -22.612834326800336 22.44
  endloop
endfacet
facet normal 0.4697633383590599 -0.8827923911847857 -2.2254313121884036e-14
  outer loop
    vertex -136.51874604164405 -22.76339100696227 22.440000000000005
    vertex -136.2358157215529 -22.61283432680033 23.000000000000007
    vertex -136.51874604164402 -22.763391006962273 23.000000000000007
  endloop
endfacet
facet normal 0.06832581467428817 0.9976630608823277 -6.422905114585332e-16
  outer loop
    vertex -136.51874604164402 -22.763391006962273 23.000000000000007
    vertex -136.33669423243353 -22.77585898203818 22.440000000000005
    vertex -136.51874604164405 -22.76339100696227 22.440000000000005
  endloop
endfacet
facet normal 0.06832581467428817 0.9976630608823277 -6.422905114585332e-16
  outer loop
    vertex -136.33669423243353 -22.77585898203818 22.440000000000005
    vertex -136.51874604164402 -22.763391006962273 23.000000000000007
    vertex -136.33669423243347 -22.775858982038184 23.000000000000007
  endloop
endfacet
facet normal 0.22072452465894848 0.9753361903539114 -1.1236283494418295e-14
  outer loop
    vertex -136.33669423243347 -22.775858982038184 23.000000000000007
    vertex -136.17141399457924 -22.813262907265916 22.440000000000005
    vertex -136.33669423243353 -22.77585898203818 22.440000000000005
  endloop
endfacet
facet normal 0.22072452465894848 0.9753361903539114 -1.1236283494418295e-14
  outer loop
    vertex -136.17141399457924 -22.813262907265916 22.440000000000005
    vertex -136.33669423243347 -22.775858982038184 23.000000000000007
    vertex -136.17141399457924 -22.81326290726592 23.000000000000007
  endloop
endfacet
facet normal 0.3844889947446074 0.9231295753686378 -8.252187522533051e-15
  outer loop
    vertex -136.17141399457924 -22.813262907265916 22.440000000000005
    vertex -136.026084592536 -22.8737934732768 23.000000000000007
    vertex -136.026084592536 -22.873793473276788 22.44
  endloop
endfacet
facet normal 0.3844889947446074 0.9231295753686378 -8.252187522533051e-15
  outer loop
    vertex -136.026084592536 -22.8737934732768 23.000000000000007
    vertex -136.17141399457924 -22.813262907265916 22.440000000000005
    vertex -136.17141399457924 -22.81326290726592 23.000000000000007
  endloop
endfacet
facet normal 0.5564955850817039 0.8308505664585973 -4.787876594038503e-15
  outer loop
    vertex -136.026084592536 -22.8737934732768 23.000000000000007
    vertex -135.9038852907584 -22.955641370702136 22.44
    vertex -136.026084592536 -22.873793473276788 22.44
  endloop
endfacet
facet normal 0.5564955850817039 0.8308505664585973 -4.787876594038503e-15
  outer loop
    vertex -135.9038852907584 -22.955641370702136 22.44
    vertex -136.026084592536 -22.8737934732768 23.000000000000007
    vertex -135.90388529075838 -22.95564137070215 23.000000000000007
  endloop
endfacet
facet normal 0.722911497191463 0.690940639439017 -1.245058267196761e-14
  outer loop
    vertex -135.9038852907584 -22.955641370702136 22.44
    vertex -135.80571901418955 -23.058349947846633 23.000000000000007
    vertex -135.80571901418955 -23.058349947846644 22.440000000000005
  endloop
endfacet
facet normal 0.722911497191463 0.690940639439017 -1.245058267196761e-14
  outer loop
    vertex -135.80571901418955 -23.058349947846633 23.000000000000007
    vertex -135.9038852907584 -22.955641370702136 22.44
    vertex -135.90388529075838 -22.95564137070215 23.000000000000007
  endloop
endfacet
facet normal 0.8594492826245274 0.5112210193215705 1.964503833223146e-14
  outer loop
    vertex -135.73248868777256 -23.181462553014903 22.440000000000005
    vertex -135.80571901418955 -23.058349947846633 23.000000000000007
    vertex -135.73248868777256 -23.181462553014907 23.000000000000007
  endloop
endfacet
facet normal 0.8594492826245274 0.5112210193215705 1.964503833223146e-14
  outer loop
    vertex -135.80571901418955 -23.058349947846633 23.000000000000007
    vertex -135.73248868777256 -23.181462553014903 22.440000000000005
    vertex -135.80571901418955 -23.058349947846644 22.440000000000005
  endloop
endfacet
facet normal 0.9519792174407995 0.30616265213249505 5.421589846022357e-14
  outer loop
    vertex -135.68691692426674 -23.323162957873198 22.440000000000005
    vertex -135.73248868777256 -23.181462553014907 23.000000000000007
    vertex -135.68691692426674 -23.323162957873205 23.000000000000007
  endloop
endfacet
facet normal 0.9519792174407995 0.30616265213249505 5.421589846022357e-14
  outer loop
    vertex -135.73248868777256 -23.181462553014907 23.000000000000007
    vertex -135.68691692426674 -23.323162957873198 22.440000000000005
    vertex -135.73248868777256 -23.181462553014903 22.440000000000005
  endloop
endfacet
facet normal 0.9954371744490064 0.09541924190108998 6.393199266354002e-16
  outer loop
    vertex -135.68691692426674 -23.323162957873198 22.440000000000005
    vertex -135.67172633643145 -23.48163493408778 23.000000000000007
    vertex -135.67172633643148 -23.48163493408778 22.440000000000005
  endloop
endfacet
facet normal 0.9954371744490064 0.09541924190108998 6.393199266354002e-16
  outer loop
    vertex -135.67172633643145 -23.48163493408778 23.000000000000007
    vertex -135.68691692426674 -23.323162957873198 22.440000000000005
    vertex -135.68691692426674 -23.323162957873205 23.000000000000007
  endloop
endfacet
facet normal 0.9941688523941951 -0.10783456277654767 -2.5614374005894008e-14
  outer loop
    vertex -135.67172633643148 -23.48163493408778 22.440000000000005
    vertex -135.69031759560403 -23.65303499655615 23.000000000000007
    vertex -135.69031759560403 -23.65303499655616 22.440000000000005
  endloop
endfacet
facet normal 0.9941688523941951 -0.10783456277654767 -2.5614374005894008e-14
  outer loop
    vertex -135.69031759560403 -23.65303499655615 23.000000000000007
    vertex -135.67172633643148 -23.48163493408778 22.440000000000005
    vertex -135.67172633643145 -23.48163493408778 23.000000000000007
  endloop
endfacet
facet normal 0.9409925328827514 -0.3384273231565444 7.955397729052146e-15
  outer loop
    vertex -135.69031759560403 -23.65303499655616 22.440000000000005
    vertex -135.74609137312174 -23.80811322039851 23.000000000000007
    vertex -135.74609137312174 -23.80811322039852 22.440000000000005
  endloop
endfacet
facet normal 0.9409925328827514 -0.3384273231565444 7.955397729052146e-15
  outer loop
    vertex -135.74609137312174 -23.80811322039851 23.000000000000007
    vertex -135.69031759560403 -23.65303499655616 22.440000000000005
    vertex -135.69031759560403 -23.65303499655615 23.000000000000007
  endloop
endfacet
facet normal 0.8462113826128431 -0.5328473476864274 1.2523820840697048e-14
  outer loop
    vertex -135.74609137312174 -23.80811322039852 22.440000000000005
    vertex -135.83360590294842 -23.947094471979984 23.000000000000007
    vertex -135.83360590294842 -23.947094471979995 22.44000000000001
  endloop
endfacet
facet normal 0.8462113826128431 -0.5328473476864274 1.2523820840697048e-14
  outer loop
    vertex -135.83360590294842 -23.947094471979984 23.000000000000007
    vertex -135.74609137312174 -23.80811322039852 22.440000000000005
    vertex -135.74609137312174 -23.80811322039851 23.000000000000007
  endloop
endfacet
facet normal 0.7342850703958934 -0.6788412446173979 1.367785229660693e-14
  outer loop
    vertex -135.83360590294842 -23.947094471979995 22.44000000000001
    vertex -135.94741941904786 -24.070203617665715 23.000000000000007
    vertex -135.94741941904786 -24.070203617665722 22.44000000000001
  endloop
endfacet
facet normal 0.7342850703958934 -0.6788412446173979 1.367785229660693e-14
  outer loop
    vertex -135.94741941904786 -24.070203617665715 23.000000000000007
    vertex -135.83360590294842 -23.947094471979995 22.44000000000001
    vertex -135.83360590294842 -23.947094471979984 23.000000000000007
  endloop
endfacet
facet normal 0.5576021184076769 -0.8301083528957356 -6.6168801567301624e-15
  outer loop
    vertex -135.94741941904786 -24.070203617665722 22.44000000000001
    vertex -136.24577903126954 -24.27061836020114 23.000000000000007
    vertex -136.24577903126954 -24.27061836020114 22.440000000000005
  endloop
endfacet
facet normal 0.5576021184076769 -0.8301083528957356 -6.6168801567301624e-15
  outer loop
    vertex -136.24577903126954 -24.27061836020114 23.000000000000007
    vertex -135.94741941904786 -24.070203617665722 22.44000000000001
    vertex -135.94741941904786 -24.070203617665715 23.000000000000007
  endloop
endfacet
facet normal 0.35819681573013884 -0.9336461006188529 1.2918170724948472e-28
  outer loop
    vertex -136.24577903126954 -24.27061836020114 23.000000000000007
    vertex -136.61216590816727 -24.41118405478616 22.440000000000005
    vertex -136.24577903126954 -24.27061836020114 22.440000000000005
  endloop
endfacet
facet normal 0.35819681573013884 -0.9336461006188529 1.2918170724948472e-28
  outer loop
    vertex -136.61216590816727 -24.41118405478616 22.440000000000005
    vertex -136.24577903126954 -24.27061836020114 23.000000000000007
    vertex -136.6121659081673 -24.41118405478616 23.000000000000007
  endloop
endfacet
facet normal 0.20078840332964853 -0.9796346344879454 7.488700240369519e-15
  outer loop
    vertex -136.6121659081673 -24.41118405478616 23.000000000000007
    vertex -137.0148220000195 -24.493713470271988 22.440000000000005
    vertex -136.61216590816727 -24.41118405478616 22.440000000000005
  endloop
endfacet
facet normal 0.20078840332964853 -0.9796346344879454 7.488700240369519e-15
  outer loop
    vertex -137.0148220000195 -24.493713470271988 22.440000000000005
    vertex -136.6121659081673 -24.41118405478616 23.000000000000007
    vertex -137.01482200001954 -24.49371347027199 23.000000000000007
  endloop
endfacet
facet normal 0.06636888973430195 -0.9977951545660242 1.783006710476084e-15
  outer loop
    vertex -137.01482200001954 -24.49371347027199 23.000000000000007
    vertex -137.4238297018161 -24.52091884097037 22.440000000000005
    vertex -137.0148220000195 -24.493713470271988 22.440000000000005
  endloop
endfacet
facet normal 0.06636888973430195 -0.9977951545660242 1.783006710476084e-15
  outer loop
    vertex -137.4238297018161 -24.52091884097037 22.440000000000005
    vertex -137.01482200001954 -24.49371347027199 23.000000000000007
    vertex -137.4238297018161 -24.52091884097037 23.000000000000007
  endloop
endfacet
facet normal -1.0 0.0 0.0
  outer loop
    vertex -137.4238297018161 -24.52091884097037 23.000000000000007
    vertex -137.4238297018161 -24.15817133970519 22.440000000000005
    vertex -137.4238297018161 -24.52091884097037 22.440000000000005
  endloop
endfacet
facet normal -1.0 0.0 0.0
  outer loop
    vertex -137.4238297018161 -24.15817133970519 22.440000000000005
    vertex -137.4238297018161 -24.52091884097037 23.000000000000007
    vertex -137.4238297018161 -24.15817133970519 23.000000000000007
  endloop
endfacet
facet normal -0.13356973238192726 0.9910394172743183 -3.0615884813414564e-15
  outer loop
    vertex -137.4238297018161 -24.15817133970519 23.000000000000007
    vertex -137.00667145915415 -24.101947829457217 22.440000000000005
    vertex -137.4238297018161 -24.15817133970519 22.440000000000005
  endloop
endfacet
facet normal -0.13356973238192726 0.9910394172743183 -3.0615884813414564e-15
  outer loop
    vertex -137.00667145915415 -24.101947829457217 22.440000000000005
    vertex -137.4238297018161 -24.15817133970519 23.000000000000007
    vertex -137.00667145915412 -24.101947829457213 23.000000000000007
  endloop
endfacet
facet normal -0.3449436502079267 0.9386233952876051 8.911939881298122e-15
  outer loop
    vertex -137.00667145915412 -24.101947829457213 23.000000000000007
    vertex -136.64391011995883 -23.968633210277066 22.440000000000005
    vertex -137.00667145915415 -24.101947829457217 22.440000000000005
  endloop
endfacet
facet normal -0.3449436502079267 0.9386233952876051 8.911939881298122e-15
  outer loop
    vertex -136.64391011995883 -23.968633210277066 22.440000000000005
    vertex -137.00667145915412 -24.101947829457213 23.000000000000007
    vertex -136.6439101199588 -23.96863321027705 23.000000000000007
  endloop
endfacet
facet normal -0.5424165115005148 0.8401097119136356 9.858740986553471e-15
  outer loop
    vertex -136.6439101199588 -23.96863321027705 23.000000000000007
    vertex -136.49993683507142 -23.875676914414218 22.440000000000005
    vertex -136.64391011995883 -23.968633210277066 22.440000000000005
  endloop
endfacet
facet normal -0.5424165115005148 0.8401097119136356 9.858740986553471e-15
  outer loop
    vertex -136.49993683507142 -23.875676914414218 22.440000000000005
    vertex -136.6439101199588 -23.96863321027705 23.000000000000007
    vertex -136.4999368350714 -23.875676914414196 23.000000000000007
  endloop
endfacet
facet normal -0.6991490535909612 0.7149759442546744 -8.413260764807393e-16
  outer loop
    vertex -136.4999368350714 -23.875676914414196 23.000000000000007
    vertex -136.38725802924526 -23.76549239549975 22.440000000000005
    vertex -136.49993683507142 -23.875676914414218 22.440000000000005
  endloop
endfacet
facet normal -0.6991490535909612 0.7149759442546744 -8.413260764807393e-16
  outer loop
    vertex -136.38725802924526 -23.76549239549975 22.440000000000005
    vertex -136.4999368350714 -23.875676914414196 23.000000000000007
    vertex -136.38725802924523 -23.765492395499724 23.000000000000007
  endloop
endfacet
facet normal -0.8656537713258606 0.5006431345672432 8.125658448980806e-15
  outer loop
    vertex -136.38725802924523 -23.765492395499724 23.000000000000007
    vertex -136.31448435452356 -23.639660637054632 22.440000000000005
    vertex -136.38725802924526 -23.76549239549975 22.440000000000005
  endloop
endfacet
facet normal -0.8656537713258606 0.5006431345672432 8.125658448980806e-15
  outer loop
    vertex -136.31448435452356 -23.639660637054632 22.440000000000005
    vertex -136.38725802924523 -23.765492395499724 23.000000000000007
    vertex -136.31448435452356 -23.639660637054632 23.000000000000007
  endloop
endfacet
facet normal -0.9852974676285755 0.17084759373405467 -2.5890278389587614e-14
  outer loop
    vertex -136.29022646294968 -23.499762622599928 23.000000000000007
    vertex -136.31448435452356 -23.639660637054632 22.440000000000005
    vertex -136.31448435452356 -23.639660637054632 23.000000000000007
  endloop
endfacet
facet normal -0.9852974676285755 0.17084759373405467 -2.5890278389587614e-14
  outer loop
    vertex -136.31448435452356 -23.639660637054632 22.440000000000005
    vertex -136.29022646294968 -23.499762622599928 23.000000000000007
    vertex -136.29022646294968 -23.499762622599924 22.440000000000005
  endloop
endfacet
facet normal -0.9698516221620426 -0.2436961858332105 -2.686751483613378e-14
  outer loop
    vertex -136.33466005669968 -23.32292771306045 23.000000000000007
    vertex -136.29022646294968 -23.499762622599924 22.440000000000005
    vertex -136.29022646294968 -23.499762622599928 23.000000000000007
  endloop
endfacet
facet normal -0.9698516221620426 -0.2436961858332105 -2.686751483613378e-14
  outer loop
    vertex -136.29022646294968 -23.499762622599924 22.440000000000005
    vertex -136.33466005669968 -23.32292771306045 23.000000000000007
    vertex -136.33466005669968 -23.32292771306045 22.440000000000005
  endloop
endfacet
facet normal -0.6934192447009461 -0.720534351074513 -2.8307388680802882e-14
  outer loop
    vertex -136.33466005669968 -23.32292771306045 23.000000000000007
    vertex -136.45527145599115 -23.20685515486206 22.440000000000005
    vertex -136.33466005669968 -23.32292771306045 22.440000000000005
  endloop
endfacet
facet normal -0.6934192447009461 -0.720534351074513 -2.8307388680802882e-14
  outer loop
    vertex -136.45527145599115 -23.20685515486206 22.440000000000005
    vertex -136.33466005669968 -23.32292771306045 23.000000000000007
    vertex -136.45527145599118 -23.20685515486207 23.000000000000007
  endloop
endfacet
facet normal -0.33788482692520605 -0.9411874647134457 -9.477723015714291e-15
  outer loop
    vertex -136.45527145599118 -23.20685515486207 23.000000000000007
    vertex -136.63212020346086 -23.143366731279077 22.440000000000005
    vertex -136.45527145599115 -23.20685515486206 22.440000000000005
  endloop
endfacet
facet normal -0.33788482692520605 -0.9411874647134457 -9.477723015714291e-15
  outer loop
    vertex -136.63212020346086 -23.143366731279077 22.440000000000005
    vertex -136.45527145599118 -23.20685515486207 23.000000000000007
    vertex -136.63212020346083 -23.143366731279077 23.000000000000007
  endloop
endfacet
facet normal -0.08905453135047599 -0.9960267518726329 1.481555103322237e-14
  outer loop
    vertex -136.63212020346083 -23.143366731279077 23.000000000000007
    vertex -136.84523816588492 -23.124311901446085 22.440000000000005
    vertex -136.63212020346086 -23.143366731279077 22.440000000000005
  endloop
endfacet
facet normal -0.08905453135047599 -0.9960267518726329 1.481555103322237e-14
  outer loop
    vertex -136.84523816588492 -23.124311901446085 22.440000000000005
    vertex -136.63212020346083 -23.143366731279077 23.000000000000007
    vertex -136.8452381658849 -23.124311901446077 23.000000000000007
  endloop
endfacet
facet normal 0.02270959174952114 -0.999742103966103 6.1024583744910195e-15
  outer loop
    vertex -136.8452381658849 -23.124311901446077 23.000000000000007
    vertex -136.92504150912885 -23.126124670297294 22.440000000000005
    vertex -136.84523816588492 -23.124311901446085 22.440000000000005
  endloop
endfacet
facet normal 0.02270959174952114 -0.999742103966103 6.1024583744910195e-15
  outer loop
    vertex -136.92504150912885 -23.126124670297294 22.440000000000005
    vertex -136.8452381658849 -23.124311901446077 23.000000000000007
    vertex -136.92504150912885 -23.126124670297294 23.000000000000007
  endloop
endfacet
facet normal 0.04167282170583034 -0.9991313106549481 1.5029073451949136e-29
  outer loop
    vertex -136.92504150912885 -23.126124670297294 23.000000000000007
    vertex -137.03386299192235 -23.13066351139041 22.440000000000005
    vertex -136.92504150912885 -23.126124670297294 22.440000000000005
  endloop
endfacet
facet normal 0.04167282170583034 -0.9991313106549481 1.5029073451949136e-29
  outer loop
    vertex -137.03386299192235 -23.13066351139041 22.440000000000005
    vertex -136.92504150912885 -23.126124670297294 23.000000000000007
    vertex -137.03386299192235 -23.13066351139041 23.000000000000007
  endloop
endfacet
facet normal 0.05875203573631863 -0.9982726072054859 1.773138967904259e-15
  outer loop
    vertex -137.03386299192235 -23.13066351139041 23.000000000000007
    vertex -137.1417850092554 -23.13701512133475 22.440000000000005
    vertex -137.03386299192235 -23.13066351139041 22.440000000000005
  endloop
endfacet
facet normal 0.05875203573631863 -0.9982726072054859 1.773138967904259e-15
  outer loop
    vertex -137.1417850092554 -23.13701512133475 22.440000000000005
    vertex -137.03386299192235 -23.13066351139041 23.000000000000007
    vertex -137.14178500925536 -23.137015121334745 23.000000000000007
  endloop
endfacet
facet normal 0.07055978019914537 -0.9975075525620087 1.4534502005082636e-15
  outer loop
    vertex -137.14178500925536 -23.137015121334745 23.000000000000007
    vertex -137.21886228025738 -23.14246726581855 22.440000000000005
    vertex -137.1417850092554 -23.13701512133475 22.440000000000005
  endloop
endfacet
facet normal 0.07055978019914537 -0.9975075525620087 1.4534502005082636e-15
  outer loop
    vertex -137.21886228025738 -23.14246726581855 22.440000000000005
    vertex -137.14178500925536 -23.137015121334745 23.000000000000007
    vertex -137.21886228025738 -23.14246726581855 23.000000000000007
  endloop
endfacet
facet normal -1.0 0.0 0.0
  outer loop
    vertex -137.21886228025738 -22.819600679280086 23.000000000000007
    vertex -137.21886228025738 -23.14246726581855 22.440000000000005
    vertex -137.21886228025738 -23.14246726581855 23.000000000000007
  endloop
endfacet
facet normal -1.0 0.0 0.0
  outer loop
    vertex -137.21886228025738 -23.14246726581855 22.440000000000005
    vertex -137.21886228025738 -22.819600679280086 23.000000000000007
    vertex -137.21886228025738 -22.819600679280086 22.440000000000005
  endloop
endfacet
endsolid RMP_Front
