solid RMP_Front
facet normal -1.0 0.0 0.0
  outer loop
    vertex -147.05170455223868 -50.360617710380616 16.000000000000007
    vertex -147.05170455223868 -61.56061771038062 8.000000000000004
    vertex -147.05170455223868 -61.56061771038062 16.000000000000007
  endloop
endfacet
facet normal -1.0 0.0 0.0
  outer loop
    vertex -147.05170455223868 -61.56061771038062 8.000000000000004
    vertex -147.05170455223868 -50.360617710380616 16.000000000000007
    vertex -147.05170455223868 -50.360617710380616 8.000000000000004
  endloop
endfacet
facet normal 1.0 0.0 0.0
  outer loop
    vertex -133.25170455223866 -50.360617710380616 8.000000000000004
    vertex -133.25170455223866 -61.56061771038062 16.000000000000007
    vertex -133.25170455223866 -61.56061771038062 8.000000000000004
  endloop
endfacet
facet normal 1.0 0.0 0.0
  outer loop
    vertex -133.25170455223866 -61.56061771038062 16.000000000000007
    vertex -133.25170455223866 -50.360617710380616 8.000000000000004
    vertex -133.25170455223866 -50.360617710380616 16.000000000000007
  endloop
endfacet
facet normal 1.0 0.0 0.0
  outer loop
    vertex -134.0017045522387 -50.610617710380616 16.000000000000007
    vertex -134.0017045522387 -61.31061771038062 23.000000000000007
    vertex -134.0017045522387 -61.31061771038062 16.000000000000007
  endloop
endfacet
facet normal 1.0 0.0 0.0
  outer loop
    vertex -134.0017045522387 -61.31061771038062 23.000000000000007
    vertex -134.0017045522387 -50.610617710380616 16.000000000000007
    vertex -134.0017045522387 -50.610617710380616 23.000000000000007
  endloop
endfacet
facet normal -1.0 0.0 0.0
  outer loop
    vertex -146.30170455223868 -50.610617710380616 23.000000000000007
    vertex -146.30170455223868 -61.31061771038062 16.000000000000007
    vertex -146.30170455223868 -61.31061771038062 23.000000000000007
  endloop
endfacet
facet normal -1.0 0.0 0.0
  outer loop
    vertex -146.30170455223868 -61.31061771038062 16.000000000000007
    vertex -146.30170455223868 -50.610617710380616 23.000000000000007
    vertex -146.30170455223868 -50.610617710380616 16.000000000000007
  endloop
endfacet
facet normal 0.0 -1.0 0.0
  outer loop
    vertex -133.25170455223866 -61.56061771038062 16.000000000000007
    vertex -147.05170455223868 -61.56061771038062 8.000000000000004
    vertex -133.25170455223866 -61.56061771038062 8.000000000000004
  endloop
endfacet
facet normal 0.0 -1.0 0.0
  outer loop
    vertex -147.05170455223868 -61.56061771038062 8.000000000000004
    vertex -133.25170455223866 -61.56061771038062 16.000000000000007
    vertex -147.05170455223868 -61.56061771038062 16.000000000000007
  endloop
endfacet
facet normal 0.0 0.0 -1.0
  outer loop
    vertex -147.05170455223868 -50.360617710380616 8.000000000000004
    vertex -145.55170455223868 -51.36061771038062 8.000000000000004
    vertex -147.05170455223868 -61.56061771038062 8.000000000000004
  endloop
endfacet
facet normal 0.0 0.0 -1.0
  outer loop
    vertex -145.55170455223868 -51.36061771038062 8.000000000000004
    vertex -147.05170455223868 -50.360617710380616 8.000000000000004
    vertex -133.25170455223866 -50.360617710380616 8.000000000000004
  endloop
endfacet
facet normal 0.0 0.0 -1.0
  outer loop
    vertex -145.55170455223868 -51.36061771038062 8.000000000000004
    vertex -133.25170455223866 -50.360617710380616 8.000000000000004
    vertex -134.75170455223866 -51.36061771038062 8.000000000000004
  endloop
endfacet
facet normal 0.0 0.0 -1.0
  outer loop
    vertex -134.75170455223866 -51.36061771038062 8.000000000000004
    vertex -133.25170455223866 -50.360617710380616 8.000000000000004
    vertex -134.75170455223866 -60.56061771038062 8.000000000000004
  endloop
endfacet
facet normal 0.0 0.0 -1.0
  outer loop
    vertex -147.05170455223868 -61.56061771038062 8.000000000000004
    vertex -145.55170455223868 -60.56061771038062 8.000000000000004
    vertex -133.25170455223866 -61.56061771038062 8.000000000000004
  endloop
endfacet
facet normal 0.0 0.0 -1.0
  outer loop
    vertex -145.55170455223868 -60.56061771038062 8.000000000000004
    vertex -147.05170455223868 -61.56061771038062 8.000000000000004
    vertex -145.55170455223868 -51.36061771038062 8.000000000000004
  endloop
endfacet
facet normal 0.0 0.0 -1.0
  outer loop
    vertex -133.25170455223866 -61.56061771038062 8.000000000000004
    vertex -145.55170455223868 -60.56061771038062 8.000000000000004
    vertex -134.75170455223866 -60.56061771038062 8.000000000000004
  endloop
endfacet
facet normal 0.0 0.0 -1.0
  outer loop
    vertex -133.25170455223866 -61.56061771038062 8.000000000000004
    vertex -134.75170455223866 -60.56061771038062 8.000000000000004
    vertex -133.25170455223866 -50.360617710380616 8.000000000000004
  endloop
endfacet
facet normal 0.0 0.0 1.0
  outer loop
    vertex -138.25170455223866 -54.96061771038063 23.000000000000007
    vertex -142.05170455223868 -53.46061771038063 23.000000000000007
    vertex -142.05170455223868 -54.96061771038063 23.000000000000007
  endloop
endfacet
facet normal 0.0 0.0 1.0
  outer loop
    vertex -146.30170455223868 -61.31061771038062 23.000000000000007
    vertex -144.05170455223865 -55.96061771038064 23.000000000000007
    vertex -146.30170455223868 -50.610617710380616 23.000000000000007
  endloop
endfacet
facet normal 0.0 0.0 1.0
  outer loop
    vertex -144.05170455223865 -55.96061771038064 23.000000000000007
    vertex -146.30170455223868 -61.31061771038062 23.000000000000007
    vertex -142.05170455223865 -58.46061771038064 23.000000000000007
  endloop
endfacet
facet normal 0.0 0.0 1.0
  outer loop
    vertex -142.05170455223865 -58.46061771038064 23.000000000000007
    vertex -146.30170455223868 -61.31061771038062 23.000000000000007
    vertex -134.0017045522387 -61.31061771038062 23.000000000000007
  endloop
endfacet
facet normal 0.0 0.0 1.0
  outer loop
    vertex -142.05170455223865 -58.46061771038064 23.000000000000007
    vertex -134.0017045522387 -61.31061771038062 23.000000000000007
    vertex -138.25170455223866 -58.460617710380625 23.000000000000007
  endloop
endfacet
facet normal 0.0 0.0 1.0
  outer loop
    vertex -138.25170455223866 -58.460617710380625 23.000000000000007
    vertex -134.0017045522387 -61.31061771038062 23.000000000000007
    vertex -136.25170455223866 -55.96061771038064 23.000000000000007
  endloop
endfacet
facet normal 0.0 0.0 1.0
  outer loop
    vertex -146.30170455223868 -50.610617710380616 23.000000000000007
    vertex -142.05170455223868 -53.46061771038063 23.000000000000007
    vertex -134.0017045522387 -50.610617710380616 23.000000000000007
  endloop
endfacet
facet normal 0.0 0.0 1.0
  outer loop
    vertex -142.05170455223868 -53.46061771038063 23.000000000000007
    vertex -146.30170455223868 -50.610617710380616 23.000000000000007
    vertex -144.05170455223865 -55.96061771038064 23.000000000000007
  endloop
endfacet
facet normal 0.0 0.0 1.0
  outer loop
    vertex -134.0017045522387 -50.610617710380616 23.000000000000007
    vertex -142.05170455223868 -53.46061771038063 23.000000000000007
    vertex -138.25170455223866 -53.46061771038063 23.000000000000007
  endloop
endfacet
facet normal 0.0 0.0 1.0
  outer loop
    vertex -138.25170455223866 -53.46061771038063 23.000000000000007
    vertex -142.05170455223868 -53.46061771038063 23.000000000000007
    vertex -138.25170455223866 -54.96061771038063 23.000000000000007
  endloop
endfacet
facet normal 0.0 0.0 1.0
  outer loop
    vertex -134.0017045522387 -50.610617710380616 23.000000000000007
    vertex -138.25170455223866 -53.46061771038063 23.000000000000007
    vertex -136.25170455223866 -55.96061771038064 23.000000000000007
  endloop
endfacet
facet normal 0.0 0.0 1.0
  outer loop
    vertex -134.0017045522387 -50.610617710380616 23.000000000000007
    vertex -136.25170455223866 -55.96061771038064 23.000000000000007
    vertex -134.0017045522387 -61.31061771038062 23.000000000000007
  endloop
endfacet
facet normal 0.0 0.0 1.0
  outer loop
    vertex -142.05170455223865 -58.46061771038064 23.000000000000007
    vertex -138.25170455223866 -56.960617710380625 23.000000000000007
    vertex -142.05170455223868 -56.960617710380625 23.000000000000007
  endloop
endfacet
facet normal 0.0 0.0 1.0
  outer loop
    vertex -138.25170455223866 -56.960617710380625 23.000000000000007
    vertex -142.05170455223865 -58.46061771038064 23.000000000000007
    vertex -138.25170455223866 -58.460617710380625 23.000000000000007
  endloop
endfacet
facet normal 0.0 1.0 0.0
  outer loop
    vertex -147.05170455223868 -50.360617710380616 16.000000000000007
    vertex -133.25170455223866 -50.360617710380616 8.000000000000004
    vertex -147.05170455223868 -50.360617710380616 8.000000000000004
  endloop
endfacet
facet normal 0.0 1.0 0.0
  outer loop
    vertex -133.25170455223866 -50.360617710380616 8.000000000000004
    vertex -147.05170455223868 -50.360617710380616 16.000000000000007
    vertex -133.25170455223866 -50.360617710380616 16.000000000000007
  endloop
endfacet
facet normal -1.0 0.0 0.0
  outer loop
    vertex -134.75170455223866 -51.36061771038062 12.999999999999998
    vertex -134.75170455223866 -60.56061771038062 8.000000000000004
    vertex -134.75170455223866 -60.56061771038062 12.999999999999998
  endloop
endfacet
facet normal -1.0 0.0 0.0
  outer loop
    vertex -134.75170455223866 -60.56061771038062 8.000000000000004
    vertex -134.75170455223866 -51.36061771038062 12.999999999999998
    vertex -134.75170455223866 -51.36061771038062 8.000000000000004
  endloop
endfacet
facet normal 0.0 1.0 0.0
  outer loop
    vertex -145.55170455223868 -60.56061771038062 12.999999999999998
    vertex -134.75170455223866 -60.56061771038062 8.000000000000004
    vertex -145.55170455223868 -60.56061771038062 8.000000000000004
  endloop
endfacet
facet normal 0.0 1.0 0.0
  outer loop
    vertex -134.75170455223866 -60.56061771038062 8.000000000000004
    vertex -145.55170455223868 -60.56061771038062 12.999999999999998
    vertex -134.75170455223866 -60.56061771038062 12.999999999999998
  endloop
endfacet
facet normal 1.0 0.0 0.0
  outer loop
    vertex -145.55170455223868 -51.36061771038062 8.000000000000004
    vertex -145.55170455223868 -60.56061771038062 12.999999999999998
    vertex -145.55170455223868 -60.56061771038062 8.000000000000004
  endloop
endfacet
facet normal 1.0 0.0 0.0
  outer loop
    vertex -145.55170455223868 -60.56061771038062 12.999999999999998
    vertex -145.55170455223868 -51.36061771038062 8.000000000000004
    vertex -145.55170455223868 -51.36061771038062 12.999999999999998
  endloop
endfacet
facet normal 0.0 -1.0 0.0
  outer loop
    vertex -134.75170455223866 -51.36061771038062 12.999999999999998
    vertex -145.55170455223868 -51.36061771038062 8.000000000000004
    vertex -134.75170455223866 -51.36061771038062 8.000000000000004
  endloop
endfacet
facet normal 0.0 -1.0 0.0
  outer loop
    vertex -145.55170455223868 -51.36061771038062 8.000000000000004
    vertex -134.75170455223866 -51.36061771038062 12.999999999999998
    vertex -145.55170455223868 -51.36061771038062 12.999999999999998
  endloop
endfacet
facet normal 0.0 -1.0 0.0
  outer loop
    vertex -134.0017045522387 -61.31061771038062 23.000000000000007
    vertex -146.30170455223868 -61.31061771038062 16.000000000000007
    vertex -134.0017045522387 -61.31061771038062 16.000000000000007
  endloop
endfacet
facet normal 0.0 -1.0 0.0
  outer loop
    vertex -146.30170455223868 -61.31061771038062 16.000000000000007
    vertex -134.0017045522387 -61.31061771038062 23.000000000000007
    vertex -146.30170455223868 -61.31061771038062 23.000000000000007
  endloop
endfacet
facet normal 0.0 0.0 1.0
  outer loop
    vertex -147.05170455223868 -61.56061771038062 16.000000000000007
    vertex -146.30170455223868 -61.31061771038062 16.000000000000007
    vertex -147.05170455223868 -50.360617710380616 16.000000000000007
  endloop
endfacet
facet normal 0.0 0.0 1.0
  outer loop
    vertex -146.30170455223868 -61.31061771038062 16.000000000000007
    vertex -147.05170455223868 -61.56061771038062 16.000000000000007
    vertex -133.25170455223866 -61.56061771038062 16.000000000000007
  endloop
endfacet
facet normal 0.0 0.0 1.0
  outer loop
    vertex -146.30170455223868 -61.31061771038062 16.000000000000007
    vertex -133.25170455223866 -61.56061771038062 16.000000000000007
    vertex -134.0017045522387 -61.31061771038062 16.000000000000007
  endloop
endfacet
facet normal 0.0 0.0 1.0
  outer loop
    vertex -134.0017045522387 -61.31061771038062 16.000000000000007
    vertex -133.25170455223866 -61.56061771038062 16.000000000000007
    vertex -134.0017045522387 -50.610617710380616 16.000000000000007
  endloop
endfacet
facet normal 0.0 0.0 1.0
  outer loop
    vertex -147.05170455223868 -50.360617710380616 16.000000000000007
    vertex -146.30170455223868 -50.610617710380616 16.000000000000007
    vertex -133.25170455223866 -50.360617710380616 16.000000000000007
  endloop
endfacet
facet normal 0.0 0.0 1.0
  outer loop
    vertex -146.30170455223868 -50.610617710380616 16.000000000000007
    vertex -147.05170455223868 -50.360617710380616 16.000000000000007
    vertex -146.30170455223868 -61.31061771038062 16.000000000000007
  endloop
endfacet
facet normal 0.0 0.0 1.0
  outer loop
    vertex -133.25170455223866 -50.360617710380616 16.000000000000007
    vertex -146.30170455223868 -50.610617710380616 16.000000000000007
    vertex -134.0017045522387 -50.610617710380616 16.000000000000007
  endloop
endfacet
facet normal 0.0 0.0 1.0
  outer loop
    vertex -133.25170455223866 -50.360617710380616 16.000000000000007
    vertex -134.0017045522387 -50.610617710380616 16.000000000000007
    vertex -133.25170455223866 -61.56061771038062 16.000000000000007
  endloop
endfacet
facet normal 0.0 1.0 0.0
  outer loop
    vertex -146.30170455223868 -50.610617710380616 23.000000000000007
    vertex -134.0017045522387 -50.610617710380616 16.000000000000007
    vertex -146.30170455223868 -50.610617710380616 16.000000000000007
  endloop
endfacet
facet normal 0.0 1.0 0.0
  outer loop
    vertex -134.0017045522387 -50.610617710380616 16.000000000000007
    vertex -146.30170455223868 -50.610617710380616 23.000000000000007
    vertex -134.0017045522387 -50.610617710380616 23.000000000000007
  endloop
endfacet
facet normal -1.0 0.0 0.0
  outer loop
    vertex -134.75170455223866 -51.36061771038062 22.440000000000005
    vertex -134.75170455223866 -60.56061771038062 12.999999999999998
    vertex -134.75170455223866 -60.56061771038062 22.440000000000005
  endloop
endfacet
facet normal -1.0 0.0 0.0
  outer loop
    vertex -134.75170455223866 -60.56061771038062 12.999999999999998
    vertex -134.75170455223866 -51.36061771038062 22.440000000000005
    vertex -134.75170455223866 -51.36061771038062 12.999999999999998
  endloop
endfacet
facet normal 1.0 0.0 0.0
  outer loop
    vertex -145.55170455223868 -51.36061771038062 12.999999999999998
    vertex -145.55170455223868 -60.56061771038062 22.440000000000005
    vertex -145.55170455223868 -60.56061771038062 12.999999999999998
  endloop
endfacet
facet normal 1.0 0.0 0.0
  outer loop
    vertex -145.55170455223868 -60.56061771038062 22.440000000000005
    vertex -145.55170455223868 -51.36061771038062 12.999999999999998
    vertex -145.55170455223868 -51.36061771038062 22.440000000000005
  endloop
endfacet
facet normal 0.0 0.0 -1.0
  outer loop
    vertex -145.55170455223868 -51.36061771038062 22.440000000000005
    vertex -144.05170455223868 -55.96061771038066 22.440000000000005
    vertex -145.55170455223868 -60.56061771038062 22.440000000000005
  endloop
endfacet
facet normal 0.0 0.0 -1.0
  outer loop
    vertex -144.05170455223868 -55.96061771038066 22.440000000000005
    vertex -145.55170455223868 -51.36061771038062 22.440000000000005
    vertex -142.05170455223868 -53.46061771038067 22.440000000000005
  endloop
endfacet
facet normal 0.0 0.0 -1.0
  outer loop
    vertex -142.05170455223868 -53.46061771038067 22.440000000000005
    vertex -145.55170455223868 -51.36061771038062 22.440000000000005
    vertex -134.75170455223866 -51.36061771038062 22.440000000000005
  endloop
endfacet
facet normal 0.0 0.0 -1.0
  outer loop
    vertex -142.05170455223868 -53.46061771038067 22.440000000000005
    vertex -134.75170455223866 -51.36061771038062 22.440000000000005
    vertex -142.05170455223868 -54.96061771038063 22.440000000000005
  endloop
endfacet
facet normal 0.0 0.0 -1.0
  outer loop
    vertex -142.05170455223868 -54.96061771038063 22.440000000000005
    vertex -134.75170455223866 -51.36061771038062 22.440000000000005
    vertex -138.25170455223866 -53.46061771038063 22.440000000000005
  endloop
endfacet
facet normal 0.0 0.0 -1.0
  outer loop
    vertex -138.25170455223866 -53.46061771038063 22.440000000000005
    vertex -134.75170455223866 -51.36061771038062 22.440000000000005
    vertex -136.25170455223866 -55.96061771038065 22.440000000000005
  endloop
endfacet
facet normal 0.0 0.0 -1.0
  outer loop
    vertex -145.55170455223868 -60.56061771038062 22.440000000000005
    vertex -142.05170455223865 -58.46061771038064 22.439999999999998
    vertex -134.75170455223866 -60.56061771038062 22.440000000000005
  endloop
endfacet
facet normal 0.0 0.0 -1.0
  outer loop
    vertex -142.05170455223865 -58.46061771038064 22.439999999999998
    vertex -145.55170455223868 -60.56061771038062 22.440000000000005
    vertex -144.05170455223868 -55.96061771038066 22.440000000000005
  endloop
endfacet
facet normal 0.0 0.0 -1.0
  outer loop
    vertex -134.75170455223866 -60.56061771038062 22.440000000000005
    vertex -142.05170455223865 -58.46061771038064 22.439999999999998
    vertex -138.25170455223866 -58.46061771038064 22.440000000000005
  endloop
endfacet
facet normal 0.0 0.0 -1.0
  outer loop
    vertex -138.25170455223866 -58.46061771038064 22.440000000000005
    vertex -142.05170455223865 -58.46061771038064 22.439999999999998
    vertex -138.25170455223866 -56.960617710380625 22.440000000000005
  endloop
endfacet
facet normal 0.0 0.0 -1.0
  outer loop
    vertex -134.75170455223866 -60.56061771038062 22.440000000000005
    vertex -138.25170455223866 -58.46061771038064 22.440000000000005
    vertex -136.25170455223866 -55.96061771038065 22.440000000000005
  endloop
endfacet
facet normal 0.0 0.0 -1.0
  outer loop
    vertex -134.75170455223866 -60.56061771038062 22.440000000000005
    vertex -136.25170455223866 -55.96061771038065 22.440000000000005
    vertex -134.75170455223866 -51.36061771038062 22.440000000000005
  endloop
endfacet
facet normal 0.0 0.0 -1.0
  outer loop
    vertex -138.25170455223866 -54.96061771038063 22.440000000000005
    vertex -142.05170455223868 -54.96061771038063 22.440000000000005
    vertex -138.25170455223866 -53.46061771038063 22.440000000000005
  endloop
endfacet
facet normal 0.0 0.0 -1.0
  outer loop
    vertex -138.25170455223866 -56.960617710380625 22.440000000000005
    vertex -142.05170455223865 -58.46061771038064 22.439999999999998
    vertex -142.05170455223868 -56.960617710380625 22.440000000000005
  endloop
endfacet
facet normal 0.0 1.0 0.0
  outer loop
    vertex -145.55170455223868 -60.56061771038062 22.440000000000005
    vertex -134.75170455223866 -60.56061771038062 12.999999999999998
    vertex -145.55170455223868 -60.56061771038062 12.999999999999998
  endloop
endfacet
facet normal 0.0 1.0 0.0
  outer loop
    vertex -134.75170455223866 -60.56061771038062 12.999999999999998
    vertex -145.55170455223868 -60.56061771038062 22.440000000000005
    vertex -134.75170455223866 -60.56061771038062 22.440000000000005
  endloop
endfacet
facet normal 0.0 -1.0 0.0
  outer loop
    vertex -134.75170455223866 -51.36061771038062 22.440000000000005
    vertex -145.55170455223868 -51.36061771038062 12.999999999999998
    vertex -134.75170455223866 -51.36061771038062 12.999999999999998
  endloop
endfacet
facet normal 0.0 -1.0 0.0
  outer loop
    vertex -145.55170455223868 -51.36061771038062 12.999999999999998
    vertex -134.75170455223866 -51.36061771038062 22.440000000000005
    vertex -145.55170455223868 -51.36061771038062 22.440000000000005
  endloop
endfacet
facet normal -1.0 0.0 0.0
  outer loop
    vertex -142.05170455223868 -53.46061771038063 23.000000000000007
    vertex -142.05170455223868 -54.96061771038063 22.440000000000005
    vertex -142.05170455223868 -54.96061771038063 23.000000000000007
  endloop
endfacet
facet normal -1.0 0.0 0.0
  outer loop
    vertex -142.05170455223868 -54.96061771038063 22.440000000000005
    vertex -142.05170455223868 -53.46061771038063 23.000000000000007
    vertex -142.05170455223868 -53.46061771038067 22.440000000000005
  endloop
endfacet
facet normal 0.7808688094430327 -0.6246950475544213 1.5588443875792897e-14
  outer loop
    vertex -142.05170455223868 -53.46061771038067 22.440000000000005
    vertex -144.05170455223865 -55.96061771038064 23.000000000000007
    vertex -144.05170455223868 -55.96061771038066 22.440000000000005
  endloop
endfacet
facet normal 0.7808688094430327 -0.6246950475544213 1.5588443875792897e-14
  outer loop
    vertex -144.05170455223865 -55.96061771038064 23.000000000000007
    vertex -142.05170455223868 -53.46061771038067 22.440000000000005
    vertex -142.05170455223868 -53.46061771038063 23.000000000000007
  endloop
endfacet
facet normal -0.7808688094430289 0.624695047554426 -1.2592675890724486e-14
  outer loop
    vertex -138.25170455223866 -58.460617710380625 23.000000000000007
    vertex -136.25170455223866 -55.96061771038065 22.440000000000005
    vertex -138.25170455223866 -58.46061771038064 22.440000000000005
  endloop
endfacet
facet normal -0.7808688094430289 0.624695047554426 -1.2592675890724486e-14
  outer loop
    vertex -136.25170455223866 -55.96061771038065 22.440000000000005
    vertex -138.25170455223866 -58.460617710380625 23.000000000000007
    vertex -136.25170455223866 -55.96061771038064 23.000000000000007
  endloop
endfacet
facet normal -0.7808688094430325 -0.6246950475544217 6.2179602945900705e-15
  outer loop
    vertex -136.25170455223866 -55.96061771038064 23.000000000000007
    vertex -138.25170455223866 -53.46061771038063 22.440000000000005
    vertex -136.25170455223866 -55.96061771038065 22.440000000000005
  endloop
endfacet
facet normal -0.7808688094430325 -0.6246950475544217 6.2179602945900705e-15
  outer loop
    vertex -138.25170455223866 -53.46061771038063 22.440000000000005
    vertex -136.25170455223866 -55.96061771038064 23.000000000000007
    vertex -138.25170455223866 -53.46061771038063 23.000000000000007
  endloop
endfacet
facet normal 0.0 -1.0 0.0
  outer loop
    vertex -138.25170455223866 -54.96061771038063 23.000000000000007
    vertex -142.05170455223868 -54.96061771038063 22.440000000000005
    vertex -138.25170455223866 -54.96061771038063 22.440000000000005
  endloop
endfacet
facet normal 0.0 -1.0 0.0
  outer loop
    vertex -142.05170455223868 -54.96061771038063 22.440000000000005
    vertex -138.25170455223866 -54.96061771038063 23.000000000000007
    vertex -142.05170455223868 -54.96061771038063 23.000000000000007
  endloop
endfacet
facet normal 0.0 1.0 0.0
  outer loop
    vertex -142.05170455223868 -56.960617710380625 23.000000000000007
    vertex -138.25170455223866 -56.960617710380625 22.440000000000005
    vertex -142.05170455223868 -56.960617710380625 22.440000000000005
  endloop
endfacet
facet normal 0.0 1.0 0.0
  outer loop
    vertex -138.25170455223866 -56.960617710380625 22.440000000000005
    vertex -142.05170455223868 -56.960617710380625 23.000000000000007
    vertex -138.25170455223866 -56.960617710380625 23.000000000000007
  endloop
endfacet
facet normal 1.0 0.0 0.0
  outer loop
    vertex -138.25170455223866 -56.960617710380625 22.440000000000005
    vertex -138.25170455223866 -58.460617710380625 23.000000000000007
    vertex -138.25170455223866 -58.46061771038064 22.440000000000005
  endloop
endfacet
facet normal 1.0 0.0 0.0
  outer loop
    vertex -138.25170455223866 -58.460617710380625 23.000000000000007
    vertex -138.25170455223866 -56.960617710380625 22.440000000000005
    vertex -138.25170455223866 -56.960617710380625 23.000000000000007
  endloop
endfacet
facet normal 1.0 0.0 0.0
  outer loop
    vertex -138.25170455223866 -53.46061771038063 22.440000000000005
    vertex -138.25170455223866 -54.96061771038063 23.000000000000007
    vertex -138.25170455223866 -54.96061771038063 22.440000000000005
  endloop
endfacet
facet normal 1.0 0.0 0.0
  outer loop
    vertex -138.25170455223866 -54.96061771038063 23.000000000000007
    vertex -138.25170455223866 -53.46061771038063 22.440000000000005
    vertex -138.25170455223866 -53.46061771038063 23.000000000000007
  endloop
endfacet
facet normal 0.7808688094430272 0.6246950475544281 -2.830304055660767e-14
  outer loop
    vertex -144.05170455223868 -55.96061771038066 22.440000000000005
    vertex -142.05170455223865 -58.46061771038064 23.000000000000007
    vertex -142.05170455223865 -58.46061771038064 22.439999999999998
  endloop
endfacet
facet normal 0.7808688094430272 0.6246950475544281 -2.830304055660767e-14
  outer loop
    vertex -142.05170455223865 -58.46061771038064 23.000000000000007
    vertex -144.05170455223868 -55.96061771038066 22.440000000000005
    vertex -144.05170455223865 -55.96061771038064 23.000000000000007
  endloop
endfacet
facet normal -1.0 -1.5039821240255366e-14 -7.924317365564855e-31
  outer loop
    vertex -142.05170455223868 -56.960617710380625 23.000000000000007
    vertex -142.05170455223865 -58.46061771038064 22.439999999999998
    vertex -142.05170455223865 -58.46061771038064 23.000000000000007
  endloop
endfacet
facet normal -1.0 -1.5039821240255366e-14 -7.924317365564855e-31
  outer loop
    vertex -142.05170455223865 -58.46061771038064 22.439999999999998
    vertex -142.05170455223868 -56.960617710380625 23.000000000000007
    vertex -142.05170455223868 -56.960617710380625 22.440000000000005
  endloop
endfacet
endsolid RMP_Front
