solid RMP_Front
facet normal 0.0 -1.0 0.0
  outer loop
    vertex -138.25170455223866 -56.96061771038064 23.140000000000008
    vertex -142.05170455223868 -56.96061771038064 23.000000000000007
    vertex -138.25170455223866 -56.96061771038064 23.000000000000007
  endloop
endfacet
facet normal 0.0 -1.0 0.0
  outer loop
    vertex -142.05170455223868 -56.96061771038064 23.000000000000007
    vertex -138.25170455223866 -56.96061771038064 23.140000000000008
    vertex -142.05170455223868 -56.96061771038064 23.140000000000008
  endloop
endfacet
facet normal 1.0 0.0 0.0
  outer loop
    vertex -142.05170455223868 -56.96061771038064 23.000000000000007
    vertex -142.05170455223868 -58.46061771038064 23.140000000000008
    vertex -142.05170455223868 -58.46061771038064 23.000000000000007
  endloop
endfacet
facet normal 1.0 0.0 0.0
  outer loop
    vertex -142.05170455223868 -58.46061771038064 23.140000000000008
    vertex -142.05170455223868 -56.96061771038064 23.000000000000007
    vertex -142.05170455223868 -56.96061771038064 23.140000000000008
  endloop
endfacet
facet normal -0.7808688094430304 -0.6246950475544243 0.0
  outer loop
    vertex -144.05170455223868 -55.96061771038064 23.140000000000008
    vertex -142.05170455223868 -58.46061771038064 23.000000000000007
    vertex -142.05170455223868 -58.46061771038064 23.140000000000008
  endloop
endfacet
facet normal -0.7808688094430304 -0.6246950475544243 0.0
  outer loop
    vertex -142.05170455223868 -58.46061771038064 23.000000000000007
    vertex -144.05170455223868 -55.96061771038064 23.140000000000008
    vertex -144.05170455223868 -55.96061771038064 23.000000000000007
  endloop
endfacet
facet normal -1.0 0.0 0.0
  outer loop
    vertex -138.25170455223866 -56.96061771038064 23.140000000000008
    vertex -138.25170455223866 -58.46061771038064 23.000000000000007
    vertex -138.25170455223866 -58.46061771038064 23.140000000000008
  endloop
endfacet
facet normal -1.0 0.0 0.0
  outer loop
    vertex -138.25170455223866 -58.46061771038064 23.000000000000007
    vertex -138.25170455223866 -56.96061771038064 23.140000000000008
    vertex -138.25170455223866 -56.96061771038064 23.000000000000007
  endloop
endfacet
facet normal 0.0 0.0 -1.0
  outer loop
    vertex -136.25170455223866 -55.96061771038064 23.000000000000007
    vertex -138.25170455223866 -54.960617710380646 23.000000000000007
    vertex -138.25170455223866 -53.46061771038063 23.000000000000007
  endloop
endfacet
facet normal 0.0 0.0 -1.0
  outer loop
    vertex -138.25170455223866 -54.960617710380646 23.000000000000007
    vertex -136.25170455223866 -55.96061771038064 23.000000000000007
    vertex -138.25170455223866 -56.96061771038064 23.000000000000007
  endloop
endfacet
facet normal 0.0 0.0 -1.0
  outer loop
    vertex -138.25170455223866 -56.96061771038064 23.000000000000007
    vertex -136.25170455223866 -55.96061771038064 23.000000000000007
    vertex -138.25170455223866 -58.46061771038064 23.000000000000007
  endloop
endfacet
facet normal 0.0 0.0 -1.0
  outer loop
    vertex -138.25170455223866 -54.960617710380646 23.000000000000007
    vertex -142.05170455223868 -56.96061771038064 23.000000000000007
    vertex -142.05170455223868 -54.960617710380646 23.000000000000007
  endloop
endfacet
facet normal 0.0 0.0 -1.0
  outer loop
    vertex -142.05170455223868 -56.96061771038064 23.000000000000007
    vertex -138.25170455223866 -54.960617710380646 23.000000000000007
    vertex -138.25170455223866 -56.96061771038064 23.000000000000007
  endloop
endfacet
facet normal 0.0 0.0 -1.0
  outer loop
    vertex -142.05170455223868 -53.46061771038063 23.000000000000007
    vertex -142.05170455223868 -58.46061771038064 23.000000000000007
    vertex -144.05170455223868 -55.96061771038064 23.000000000000007
  endloop
endfacet
facet normal 0.0 0.0 -1.0
  outer loop
    vertex -142.05170455223868 -58.46061771038064 23.000000000000007
    vertex -142.05170455223868 -53.46061771038063 23.000000000000007
    vertex -142.05170455223868 -54.960617710380646 23.000000000000007
  endloop
endfacet
facet normal 0.0 0.0 -1.0
  outer loop
    vertex -142.05170455223868 -58.46061771038064 23.000000000000007
    vertex -142.05170455223868 -54.960617710380646 23.000000000000007
    vertex -142.05170455223868 -56.96061771038064 23.000000000000007
  endloop
endfacet
facet normal 0.0 0.0 1.0
  outer loop
    vertex -136.25170455223866 -55.96061771038064 23.140000000000008
    vertex -138.25170455223866 -56.96061771038064 23.140000000000008
    vertex -138.25170455223866 -58.46061771038064 23.140000000000008
  endloop
endfacet
facet normal 0.0 0.0 1.0
  outer loop
    vertex -138.25170455223866 -56.96061771038064 23.140000000000008
    vertex -136.25170455223866 -55.96061771038064 23.140000000000008
    vertex -138.25170455223866 -54.960617710380646 23.140000000000008
  endloop
endfacet
facet normal 0.0 0.0 1.0
  outer loop
    vertex -138.25170455223866 -54.960617710380646 23.140000000000008
    vertex -136.25170455223866 -55.96061771038064 23.140000000000008
    vertex -138.25170455223866 -53.46061771038063 23.140000000000008
  endloop
endfacet
facet normal 0.0 0.0 1.0
  outer loop
    vertex -138.25170455223866 -56.96061771038064 23.140000000000008
    vertex -142.05170455223868 -54.960617710380646 23.140000000000008
    vertex -142.05170455223868 -56.96061771038064 23.140000000000008
  endloop
endfacet
facet normal 0.0 0.0 1.0
  outer loop
    vertex -142.05170455223868 -54.960617710380646 23.140000000000008
    vertex -138.25170455223866 -56.96061771038064 23.140000000000008
    vertex -138.25170455223866 -54.960617710380646 23.140000000000008
  endloop
endfacet
facet normal 0.0 0.0 1.0
  outer loop
    vertex -142.05170455223868 -58.46061771038064 23.140000000000008
    vertex -142.05170455223868 -53.46061771038063 23.140000000000008
    vertex -144.05170455223868 -55.96061771038064 23.140000000000008
  endloop
endfacet
facet normal 0.0 0.0 1.0
  outer loop
    vertex -142.05170455223868 -53.46061771038063 23.140000000000008
    vertex -142.05170455223868 -58.46061771038064 23.140000000000008
    vertex -142.05170455223868 -56.96061771038064 23.140000000000008
  endloop
endfacet
facet normal 0.0 0.0 1.0
  outer loop
    vertex -142.05170455223868 -53.46061771038063 23.140000000000008
    vertex -142.05170455223868 -56.96061771038064 23.140000000000008
    vertex -142.05170455223868 -54.960617710380646 23.140000000000008
  endloop
endfacet
facet normal 1.0 0.0 0.0
  outer loop
    vertex -142.05170455223868 -53.46061771038063 23.000000000000007
    vertex -142.05170455223868 -54.960617710380646 23.140000000000008
    vertex -142.05170455223868 -54.960617710380646 23.000000000000007
  endloop
endfacet
facet normal 1.0 0.0 0.0
  outer loop
    vertex -142.05170455223868 -54.960617710380646 23.140000000000008
    vertex -142.05170455223868 -53.46061771038063 23.000000000000007
    vertex -142.05170455223868 -53.46061771038063 23.140000000000008
  endloop
endfacet
facet normal -0.7808688094430317 0.6246950475544225 0.0
  outer loop
    vertex -142.05170455223868 -53.46061771038063 23.140000000000008
    vertex -144.05170455223868 -55.96061771038064 23.000000000000007
    vertex -144.05170455223868 -55.96061771038064 23.140000000000008
  endloop
endfacet
facet normal -0.7808688094430317 0.6246950475544225 0.0
  outer loop
    vertex -144.05170455223868 -55.96061771038064 23.000000000000007
    vertex -142.05170455223868 -53.46061771038063 23.140000000000008
    vertex -142.05170455223868 -53.46061771038063 23.000000000000007
  endloop
endfacet
facet normal 0.7808688094430304 -0.6246950475544243 0.0
  outer loop
    vertex -136.25170455223866 -55.96061771038064 23.000000000000007
    vertex -138.25170455223866 -58.46061771038064 23.140000000000008
    vertex -138.25170455223866 -58.46061771038064 23.000000000000007
  endloop
endfacet
facet normal 0.7808688094430304 -0.6246950475544243 0.0
  outer loop
    vertex -138.25170455223866 -58.46061771038064 23.140000000000008
    vertex -136.25170455223866 -55.96061771038064 23.000000000000007
    vertex -136.25170455223866 -55.96061771038064 23.140000000000008
  endloop
endfacet
facet normal 0.7808688094430317 0.6246950475544225 0.0
  outer loop
    vertex -138.25170455223866 -53.46061771038063 23.000000000000007
    vertex -136.25170455223866 -55.96061771038064 23.140000000000008
    vertex -136.25170455223866 -55.96061771038064 23.000000000000007
  endloop
endfacet
facet normal 0.7808688094430317 0.6246950475544225 0.0
  outer loop
    vertex -136.25170455223866 -55.96061771038064 23.140000000000008
    vertex -138.25170455223866 -53.46061771038063 23.000000000000007
    vertex -138.25170455223866 -53.46061771038063 23.140000000000008
  endloop
endfacet
facet normal -1.0 0.0 0.0
  outer loop
    vertex -138.25170455223866 -53.46061771038063 23.140000000000008
    vertex -138.25170455223866 -54.960617710380646 23.000000000000007
    vertex -138.25170455223866 -54.960617710380646 23.140000000000008
  endloop
endfacet
facet normal -1.0 0.0 0.0
  outer loop
    vertex -138.25170455223866 -54.960617710380646 23.000000000000007
    vertex -138.25170455223866 -53.46061771038063 23.140000000000008
    vertex -138.25170455223866 -53.46061771038063 23.000000000000007
  endloop
endfacet
facet normal 0.0 1.0 0.0
  outer loop
    vertex -142.05170455223868 -54.960617710380646 23.140000000000008
    vertex -138.25170455223866 -54.960617710380646 23.000000000000007
    vertex -142.05170455223868 -54.960617710380646 23.000000000000007
  endloop
endfacet
facet normal 0.0 1.0 0.0
  outer loop
    vertex -138.25170455223866 -54.960617710380646 23.000000000000007
    vertex -142.05170455223868 -54.960617710380646 23.140000000000008
    vertex -138.25170455223866 -54.960617710380646 23.140000000000008
  endloop
endfacet
endsolid RMP_Front
