solid RMP_Front
facet normal 1.0 0.0 0.0
  outer loop
    vertex -134.75170455223866 -51.36061771038062 12.999999999999998
    vertex -134.75170455223866 -60.56061771038062 22.440000000000005
    vertex -134.75170455223866 -60.56061771038062 12.999999999999998
  endloop
endfacet
facet normal 1.0 0.0 0.0
  outer loop
    vertex -134.75170455223866 -60.56061771038062 22.440000000000005
    vertex -134.75170455223866 -51.36061771038062 12.999999999999998
    vertex -134.75170455223866 -51.36061771038062 22.440000000000005
  endloop
endfacet
facet normal -1.0 0.0 0.0
  outer loop
    vertex -145.55170455223868 -51.36061771038062 22.440000000000005
    vertex -145.55170455223868 -60.56061771038062 12.999999999999998
    vertex -145.55170455223868 -60.56061771038062 22.440000000000005
  endloop
endfacet
facet normal -1.0 0.0 0.0
  outer loop
    vertex -145.55170455223868 -60.56061771038062 12.999999999999998
    vertex -145.55170455223868 -51.36061771038062 22.440000000000005
    vertex -145.55170455223868 -51.36061771038062 12.999999999999998
  endloop
endfacet
facet normal 0.0 0.0 1.0
  outer loop
    vertex -145.55170455223868 -60.56061771038062 22.440000000000005
    vertex -144.05170455223868 -55.96061771038064 22.440000000000005
    vertex -145.55170455223868 -51.36061771038062 22.440000000000005
  endloop
endfacet
facet normal 0.0 0.0 1.0
  outer loop
    vertex -144.05170455223868 -55.96061771038064 22.440000000000005
    vertex -145.55170455223868 -60.56061771038062 22.440000000000005
    vertex -142.05170455223868 -58.460617710380625 22.440000000000005
  endloop
endfacet
facet normal 0.0 0.0 1.0
  outer loop
    vertex -142.05170455223868 -58.460617710380625 22.440000000000005
    vertex -145.55170455223868 -60.56061771038062 22.440000000000005
    vertex -134.75170455223866 -60.56061771038062 22.440000000000005
  endloop
endfacet
facet normal 0.0 0.0 1.0
  outer loop
    vertex -142.05170455223868 -58.460617710380625 22.440000000000005
    vertex -134.75170455223866 -60.56061771038062 22.440000000000005
    vertex -142.05170455223868 -56.960617710380625 22.440000000000005
  endloop
endfacet
facet normal 0.0 0.0 1.0
  outer loop
    vertex -142.05170455223868 -56.960617710380625 22.440000000000005
    vertex -134.75170455223866 -60.56061771038062 22.440000000000005
    vertex -138.25170455223866 -58.46061771038064 22.440000000000005
  endloop
endfacet
facet normal 0.0 0.0 1.0
  outer loop
    vertex -138.25170455223866 -58.46061771038064 22.440000000000005
    vertex -134.75170455223866 -60.56061771038062 22.440000000000005
    vertex -136.25170455223864 -55.96061771038063 22.440000000000005
  endloop
endfacet
facet normal 0.0 0.0 1.0
  outer loop
    vertex -145.55170455223868 -51.36061771038062 22.440000000000005
    vertex -142.05170455223868 -53.460617710380646 22.440000000000005
    vertex -134.75170455223866 -51.36061771038062 22.440000000000005
  endloop
endfacet
facet normal 0.0 0.0 1.0
  outer loop
    vertex -142.05170455223868 -53.460617710380646 22.440000000000005
    vertex -145.55170455223868 -51.36061771038062 22.440000000000005
    vertex -144.05170455223868 -55.96061771038064 22.440000000000005
  endloop
endfacet
facet normal 0.0 0.0 1.0
  outer loop
    vertex -134.75170455223866 -51.36061771038062 22.440000000000005
    vertex -142.05170455223868 -53.460617710380646 22.440000000000005
    vertex -138.25170455223866 -53.46061771038063 22.440000000000005
  endloop
endfacet
facet normal 0.0 0.0 1.0
  outer loop
    vertex -138.25170455223866 -53.46061771038063 22.440000000000005
    vertex -142.05170455223868 -53.460617710380646 22.440000000000005
    vertex -138.25170455223866 -54.96061771038063 22.440000000000005
  endloop
endfacet
facet normal 0.0 0.0 1.0
  outer loop
    vertex -134.75170455223866 -51.36061771038062 22.440000000000005
    vertex -138.25170455223866 -53.46061771038063 22.440000000000005
    vertex -136.25170455223864 -55.96061771038063 22.440000000000005
  endloop
endfacet
facet normal 0.0 0.0 1.0
  outer loop
    vertex -134.75170455223866 -51.36061771038062 22.440000000000005
    vertex -136.25170455223864 -55.96061771038063 22.440000000000005
    vertex -134.75170455223866 -60.56061771038062 22.440000000000005
  endloop
endfacet
facet normal 0.0 0.0 1.0
  outer loop
    vertex -138.25170455223866 -56.960617710380625 22.440000000000005
    vertex -142.05170455223868 -56.960617710380625 22.440000000000005
    vertex -138.25170455223866 -58.46061771038064 22.440000000000005
  endloop
endfacet
facet normal 0.0 0.0 1.0
  outer loop
    vertex -138.25170455223866 -54.96061771038063 22.440000000000005
    vertex -142.05170455223868 -53.460617710380646 22.440000000000005
    vertex -142.05170455223868 -54.96061771038063 22.440000000000005
  endloop
endfacet
facet normal 0.0 -1.0 0.0
  outer loop
    vertex -134.75170455223866 -60.56061771038062 22.440000000000005
    vertex -145.55170455223868 -60.56061771038062 12.999999999999998
    vertex -134.75170455223866 -60.56061771038062 12.999999999999998
  endloop
endfacet
facet normal 0.0 -1.0 0.0
  outer loop
    vertex -145.55170455223868 -60.56061771038062 12.999999999999998
    vertex -134.75170455223866 -60.56061771038062 22.440000000000005
    vertex -145.55170455223868 -60.56061771038062 22.440000000000005
  endloop
endfacet
facet normal 0.0 1.0 0.0
  outer loop
    vertex -145.55170455223868 -51.36061771038062 22.440000000000005
    vertex -134.75170455223866 -51.36061771038062 12.999999999999998
    vertex -145.55170455223868 -51.36061771038062 12.999999999999998
  endloop
endfacet
facet normal 0.0 1.0 0.0
  outer loop
    vertex -134.75170455223866 -51.36061771038062 12.999999999999998
    vertex -145.55170455223868 -51.36061771038062 22.440000000000005
    vertex -134.75170455223866 -51.36061771038062 22.440000000000005
  endloop
endfacet
facet normal 0.0 0.0 -1.0
  outer loop
    vertex -134.75170455223866 -51.36061771038062 12.999999999999998
    vertex -145.55170455223868 -60.56061771038062 12.999999999999998
    vertex -145.55170455223868 -51.36061771038062 12.999999999999998
  endloop
endfacet
facet normal 0.0 0.0 -1.0
  outer loop
    vertex -145.55170455223868 -60.56061771038062 12.999999999999998
    vertex -134.75170455223866 -51.36061771038062 12.999999999999998
    vertex -134.75170455223866 -60.56061771038062 12.999999999999998
  endloop
endfacet
facet normal 0.0 0.0 1.0
  outer loop
    vertex -136.25170455223866 -55.96061771038063 23.000000000000007
    vertex -138.25170455223866 -56.960617710380625 23.000000000000007
    vertex -138.25170455223866 -58.460617710380625 23.000000000000007
  endloop
endfacet
facet normal 0.0 0.0 1.0
  outer loop
    vertex -138.25170455223866 -56.960617710380625 23.000000000000007
    vertex -136.25170455223866 -55.96061771038063 23.000000000000007
    vertex -138.25170455223866 -54.96061771038063 23.000000000000007
  endloop
endfacet
facet normal 0.0 0.0 1.0
  outer loop
    vertex -138.25170455223866 -54.96061771038063 23.000000000000007
    vertex -136.25170455223866 -55.96061771038063 23.000000000000007
    vertex -138.25170455223866 -53.46061771038063 23.000000000000007
  endloop
endfacet
facet normal 0.0 0.0 1.0
  outer loop
    vertex -138.25170455223866 -56.960617710380625 23.000000000000007
    vertex -142.05170455223868 -54.96061771038063 23.000000000000007
    vertex -142.05170455223868 -56.960617710380625 23.000000000000007
  endloop
endfacet
facet normal 0.0 0.0 1.0
  outer loop
    vertex -142.05170455223868 -54.96061771038063 23.000000000000007
    vertex -138.25170455223866 -56.960617710380625 23.000000000000007
    vertex -138.25170455223866 -54.96061771038063 23.000000000000007
  endloop
endfacet
facet normal 0.0 0.0 1.0
  outer loop
    vertex -142.05170455223868 -58.460617710380625 23.000000000000007
    vertex -142.05170455223868 -53.46061771038063 23.000000000000007
    vertex -144.05170455223868 -55.96061771038063 23.000000000000007
  endloop
endfacet
facet normal 0.0 0.0 1.0
  outer loop
    vertex -142.05170455223868 -53.46061771038063 23.000000000000007
    vertex -142.05170455223868 -58.460617710380625 23.000000000000007
    vertex -142.05170455223868 -56.960617710380625 23.000000000000007
  endloop
endfacet
facet normal 0.0 0.0 1.0
  outer loop
    vertex -142.05170455223868 -53.46061771038063 23.000000000000007
    vertex -142.05170455223868 -56.960617710380625 23.000000000000007
    vertex -142.05170455223868 -54.96061771038063 23.000000000000007
  endloop
endfacet
facet normal 1.0 0.0 0.0
  outer loop
    vertex -142.05170455223868 -53.460617710380646 22.440000000000005
    vertex -142.05170455223868 -54.96061771038063 23.000000000000007
    vertex -142.05170455223868 -54.96061771038063 22.440000000000005
  endloop
endfacet
facet normal 1.0 0.0 0.0
  outer loop
    vertex -142.05170455223868 -54.96061771038063 23.000000000000007
    vertex -142.05170455223868 -53.460617710380646 22.440000000000005
    vertex -142.05170455223868 -53.46061771038063 23.000000000000007
  endloop
endfacet
facet normal -0.7808688094430303 0.6246950475544242 -1.2540424123543112e-14
  outer loop
    vertex -144.05170455223868 -55.96061771038063 23.000000000000007
    vertex -142.05170455223868 -53.460617710380646 22.440000000000005
    vertex -144.05170455223868 -55.96061771038064 22.440000000000005
  endloop
endfacet
facet normal -0.7808688094430303 0.6246950475544242 -1.2540424123543112e-14
  outer loop
    vertex -142.05170455223868 -53.460617710380646 22.440000000000005
    vertex -144.05170455223868 -55.96061771038063 23.000000000000007
    vertex -142.05170455223868 -53.46061771038063 23.000000000000007
  endloop
endfacet
facet normal 0.7808688094430294 -0.6246950475544256 2.2032828494835937e-14
  outer loop
    vertex -136.25170455223864 -55.96061771038063 22.440000000000005
    vertex -138.25170455223866 -58.460617710380625 23.000000000000007
    vertex -138.25170455223866 -58.46061771038064 22.440000000000005
  endloop
endfacet
facet normal 0.7808688094430294 -0.6246950475544256 2.2032828494835937e-14
  outer loop
    vertex -138.25170455223866 -58.460617710380625 23.000000000000007
    vertex -136.25170455223864 -55.96061771038063 22.440000000000005
    vertex -136.25170455223866 -55.96061771038063 23.000000000000007
  endloop
endfacet
facet normal 0.7808688094430287 0.6246950475544264 1.5762616433064417e-14
  outer loop
    vertex -138.25170455223866 -53.46061771038063 22.440000000000005
    vertex -136.25170455223866 -55.96061771038063 23.000000000000007
    vertex -136.25170455223864 -55.96061771038063 22.440000000000005
  endloop
endfacet
facet normal 0.7808688094430287 0.6246950475544264 1.5762616433064417e-14
  outer loop
    vertex -136.25170455223866 -55.96061771038063 23.000000000000007
    vertex -138.25170455223866 -53.46061771038063 22.440000000000005
    vertex -138.25170455223866 -53.46061771038063 23.000000000000007
  endloop
endfacet
facet normal 0.0 1.0 0.0
  outer loop
    vertex -142.05170455223868 -54.96061771038063 23.000000000000007
    vertex -138.25170455223866 -54.96061771038063 22.440000000000005
    vertex -142.05170455223868 -54.96061771038063 22.440000000000005
  endloop
endfacet
facet normal 0.0 1.0 0.0
  outer loop
    vertex -138.25170455223866 -54.96061771038063 22.440000000000005
    vertex -142.05170455223868 -54.96061771038063 23.000000000000007
    vertex -138.25170455223866 -54.96061771038063 23.000000000000007
  endloop
endfacet
facet normal 0.0 -1.0 0.0
  outer loop
    vertex -138.25170455223866 -56.960617710380625 23.000000000000007
    vertex -142.05170455223868 -56.960617710380625 22.440000000000005
    vertex -138.25170455223866 -56.960617710380625 22.440000000000005
  endloop
endfacet
facet normal 0.0 -1.0 0.0
  outer loop
    vertex -142.05170455223868 -56.960617710380625 22.440000000000005
    vertex -138.25170455223866 -56.960617710380625 23.000000000000007
    vertex -142.05170455223868 -56.960617710380625 23.000000000000007
  endloop
endfacet
facet normal -1.0 0.0 0.0
  outer loop
    vertex -138.25170455223866 -58.460617710380625 23.000000000000007
    vertex -138.25170455223866 -56.960617710380625 22.440000000000005
    vertex -138.25170455223866 -58.46061771038064 22.440000000000005
  endloop
endfacet
facet normal -1.0 0.0 0.0
  outer loop
    vertex -138.25170455223866 -56.960617710380625 22.440000000000005
    vertex -138.25170455223866 -58.460617710380625 23.000000000000007
    vertex -138.25170455223866 -56.960617710380625 23.000000000000007
  endloop
endfacet
facet normal -1.0 0.0 0.0
  outer loop
    vertex -138.25170455223866 -53.46061771038063 23.000000000000007
    vertex -138.25170455223866 -54.96061771038063 22.440000000000005
    vertex -138.25170455223866 -54.96061771038063 23.000000000000007
  endloop
endfacet
facet normal -1.0 0.0 0.0
  outer loop
    vertex -138.25170455223866 -54.96061771038063 22.440000000000005
    vertex -138.25170455223866 -53.46061771038063 23.000000000000007
    vertex -138.25170455223866 -53.46061771038063 22.440000000000005
  endloop
endfacet
facet normal -0.7808688094430296 -0.6246950475544251 6.270212061771501e-15
  outer loop
    vertex -144.05170455223868 -55.96061771038063 23.000000000000007
    vertex -142.05170455223868 -58.460617710380625 22.440000000000005
    vertex -142.05170455223868 -58.460617710380625 23.000000000000007
  endloop
endfacet
facet normal -0.7808688094430296 -0.6246950475544251 6.270212061771501e-15
  outer loop
    vertex -142.05170455223868 -58.460617710380625 22.440000000000005
    vertex -144.05170455223868 -55.96061771038063 23.000000000000007
    vertex -144.05170455223868 -55.96061771038064 22.440000000000005
  endloop
endfacet
facet normal 1.0 0.0 0.0
  outer loop
    vertex -142.05170455223868 -56.960617710380625 22.440000000000005
    vertex -142.05170455223868 -58.460617710380625 23.000000000000007
    vertex -142.05170455223868 -58.460617710380625 22.440000000000005
  endloop
endfacet
facet normal 1.0 0.0 0.0
  outer loop
    vertex -142.05170455223868 -58.460617710380625 23.000000000000007
    vertex -142.05170455223868 -56.960617710380625 22.440000000000005
    vertex -142.05170455223868 -56.960617710380625 23.000000000000007
  endloop
endfacet
endsolid RMP_Front
